<?xml version="1.0" encoding="UTF-8"?>
<svg id="Layer_1" data-name="Layer 1" xmlns="http://www.w3.org/2000/svg" viewBox="0 0 161.11 42.18">
  <defs>
    <style>
      .cls-1 {
        fill: #848484;
      }

      .cls-2 {
        fill: #4b4b4b;
      }
    </style>
  </defs>
  <path id="polygon10" class="cls-2" d="M28.9,11.12l2.33,2.34L13.55,31.13l-2.33-2.34L28.9,11.12ZM21.89,4.11l2.33,2.34L6.55,24.13l-2.33-2.34L21.89,4.11Z"/>
  <path id="rect14" class="cls-1" d="M12.52,34.51l17.68-17.67,2.34,2.34-17.68,17.67-2.34-2.34ZM23.18,9.82l2.34,2.34L7.84,29.84l-2.33-2.34L23.18,9.82Z"/>
  <path id="path26" class="cls-2" d="M77.62,28.78l-7.8-18.98c-.08-.12-.19-.22-.32-.29-.12-.07-.26-.12-.4-.13h-4.76c-.14.01-.28.05-.4.13-.13.06-.24.16-.31.29l-7.8,18.98c-.18.24-.19.57-.02.82.17.25.46.38.76.35h4.8c.15,0,.3-.05.42-.13.13-.07.24-.18.32-.31l1.09-2.57h7.02l1.11,2.57c.08.13.18.24.31.31.12.08.27.13.42.13h4.8c.3.02.59-.12.76-.37.17-.25.16-.57-.01-.82h0ZM66.73,22.33h-1.81l1.81-5.05,1.81,5.05h-1.81ZM149.02,20.18v-10c0-.21.09-.4.23-.55.15-.15.36-.24.58-.23h4.47c.22,0,.43.08.58.23.15.14.24.34.24.55v19c0,.21-.09.4-.24.55-.15.16-.36.24-.58.24h-5.23c-.12,0-.23-.04-.34-.09-.12-.05-.23-.12-.31-.22l-7.4-9.97v9.5c0,.21-.09.4-.23.55-.15.16-.36.24-.58.24h-4.49c-.43-.02-.77-.36-.79-.79V10.17c.01-.43.36-.78.79-.79h4.68c.13,0,.26.04.38.11.12.04.21.12.27.23l7.97,10.45ZM124.55,29.96c-.19,0-.37-.09-.49-.24-.13-.15-.2-.35-.2-.55V10.17c0-.2.07-.39.2-.55.12-.15.3-.24.49-.23h4.72c.19,0,.37.08.49.23.13.15.2.35.19.55v19c0,.2-.07.39-.19.55-.12.15-.3.24-.49.24h-4.72ZM103.19,29.96c-.22,0-.43-.08-.58-.24-.15-.14-.24-.34-.24-.55V10.17c0-.21.09-.4.24-.55.15-.16.36-.24.58-.23h14.91c.21,0,.42.08.56.23.14.14.23.34.23.55v4.49c0,.21-.08.42-.23.58-.14.16-.35.25-.56.24h-9.65v2.49h7.14c.2,0,.4.08.55.22.16.14.24.35.24.56v4.53c-.02.43-.36.77-.79.78h-7.13v5.11c0,.2-.08.4-.22.55-.15.16-.35.24-.57.24h-4.47ZM87.15,23.88h11.1c.21,0,.41.08.57.22.16.14.25.35.25.56v4.52c-.02.43-.36.77-.79.79h-16.4c-.22,0-.43-.08-.58-.24-.15-.14-.23-.34-.23-.55V10.17c0-.2.08-.4.22-.55.15-.16.35-.24.57-.23h4.49c.21,0,.42.08.57.23.16.14.25.34.25.55v13.7ZM36.62,29.96c-.43-.02-.77-.36-.79-.79V10.17c0-.43.36-.78.79-.79h9.98c.84-.01,1.68.11,2.48.36.72.22,1.4.58,2.01,1.04.58.44,1.06,1,1.41,1.64.33.64.5,1.36.48,2.09.02.89-.2,1.77-.63,2.55-.47.78-1.15,1.4-1.97,1.79.79.29,1.5.75,2.07,1.37.88,1.01,1.31,2.32,1.31,3.91.04,1.67-.71,3.27-2.02,4.3-1.28,1.03-2.95,1.54-4.99,1.54h-10.14ZM42.36,14.08v3.28h1.6c.58.03,1.15-.15,1.61-.5.37-.25.59-.65.62-1.09,0-.46-.22-.9-.59-1.18-.46-.35-1.03-.53-1.61-.5h-1.63ZM42.36,21.35v3.91h1.81c.65.03,1.29-.15,1.83-.52.46-.31.73-.84.72-1.39.02-.57-.23-1.11-.68-1.46-.51-.38-1.14-.57-1.78-.55h-1.9Z"/>
  <path id="path84" class="cls-1" d="M155.13,33.7c.02.72-.55,1.32-1.27,1.34h-1.26v1.8h-.6v-4.48h1.87c.71.02,1.28.62,1.25,1.33h0s0,0,0,0ZM154.54,33.7c.02-.41-.29-.77-.71-.79-.03,0-.06,0-.09,0h-1.14v1.58h1.14c.41.03.77-.27.8-.68,0-.04,0-.07,0-.11h0ZM151.08,35.42c0,.92-.8,1.46-1.66,1.46s-1.64-.55-1.64-1.46v-3.06h.6v2.95c0,.58.47,1.05,1.05,1.05.58,0,1.05-.47,1.05-1.05v-2.95h.6v3.06ZM146.85,35.42c0,.92-.8,1.46-1.66,1.46s-1.64-.55-1.64-1.46v-1.64c0-.9.79-1.46,1.64-1.46s1.66.55,1.66,1.46v1.64ZM146.25,33.9c0-.58-.47-1.05-1.05-1.05-.58,0-1.05.47-1.05,1.05v1.4c.03.58.52,1.03,1.1,1,.54-.03.97-.46,1-1v-1.4ZM141.46,32.36c.71.01,1.28.61,1.27,1.32,0,0,0,.01,0,.02,0,.53-.3,1.01-.79,1.23l.84,1.91h-.65l-.79-1.8h-1.14v1.8h-.6v-4.48h1.86ZM142.14,33.7c.02-.41-.29-.77-.71-.79-.03,0-.06,0-.09,0h-1.14v1.58h1.14c.41.03.76-.28.79-.69,0-.03,0-.07,0-.1h0ZM138.61,36.3c-.36.39-.88.6-1.41.58-.87,0-1.64-.55-1.64-1.47v-1.64c0-.9.82-1.46,1.69-1.46.45-.02.9.13,1.25.4l-.3.47c-.27-.21-.61-.32-.96-.32-.57-.03-1.06.41-1.09.99,0,.01,0,.03,0,.05v1.4c-.02.55.41,1.01.96,1.03.03,0,.05,0,.08,0,.3,0,.59-.09.82-.27v-1.05h-.72v-.55h1.31v1.84ZM130.2,32.91v3.92h-.6v-3.92h-1.29v-.55h3.18v.55h-1.28ZM126.98,36.84l-2.25-3.36v3.36h-.6v-4.48h.57l2.26,3.39v-3.39h.6v4.48h-.58ZM120.27,36.84v-4.48h2.99v.55h-2.39v1.42h2.05v.55h-2.05v1.43h2.39v.55h-2.99ZM118.65,36.84v-3.09l-1.2,2.43h-.44l-1.23-2.42v3.08h-.6v-4.48h.57l1.49,3,1.46-3h.55v4.48h-.6ZM113.14,32.91v3.92h-.6v-3.92h-1.29v-.55h3.18v.55h-1.29ZM110.68,35.6c0,.8-.64,1.28-1.59,1.28-.59.01-1.17-.18-1.64-.55l.34-.43c.38.28.84.44,1.32.44.6,0,.97-.27.97-.74,0-.6-.6-.68-1.09-.78-.7-.14-1.37-.42-1.37-1.25,0-.75.55-1.29,1.46-1.29.51,0,1,.16,1.42.44l-.31.46c-.34-.22-.74-.34-1.15-.34-.46,0-.85.25-.85.75s.58.63,1,.72c.74.16,1.47.34,1.47,1.29h0ZM103.79,36.84v-4.48h3v.55h-2.39v1.42h2.05v.55h-2.05v1.43h2.39v.55h-3ZM101.62,36.84h-.65l-1.44-4.48h.66l1.11,3.55,1.11-3.55h.66l-1.44,4.48ZM98.24,36.84l-2.26-3.36v3.36h-.6v-4.48h.57l2.26,3.39v-3.39h.6v4.48h-.56ZM93.64,36.84v-4.48h.6v4.48h-.6ZM86.28,36.84v-4.48h2.99v.55h-2.39v1.42h2.05v.55h-2.05v1.43h2.39v.55h-2.99ZM84.19,32.32c.45-.02.9.13,1.25.4l-.3.47c-.27-.21-.61-.32-.96-.32-.57-.02-1.06.43-1.08,1,0,.01,0,.02,0,.03v1.4c0,.56.44,1.02,1,1.03.02,0,.04,0,.07,0,.36.01.7-.1.99-.31l.27.46c-.36.27-.81.41-1.26.4-.87,0-1.68-.55-1.68-1.47v-1.64c.02-.9.84-1.46,1.7-1.46h0ZM80.94,36.84l-2.25-3.36v3.36h-.6v-4.48h.57l2.26,3.39v-3.39h.59v4.48h-.57ZM76.75,36.84l-.35-1.01h-1.78l-.34,1.01h-.63l1.56-4.48h.6l1.56,4.48h-.63ZM75.51,33.2l-.7,2.09h1.4l-.7-2.09ZM72.35,36.84l-2.25-3.36v3.36h-.61v-4.48h.57l2.26,3.39v-3.39h.6v4.48h-.57ZM67.74,36.84v-4.48h.6v4.48h-.6ZM64.48,32.91v1.42h2.05v.55h-2.05v1.97h-.6v-4.48h2.99v.55h-2.39ZM58.91,36.84l-2.26-3.36v3.36h-.6v-4.48h.57l2.26,3.39v-3.39h.6v4.48h-.57ZM54.74,36.84l-.35-1.01h-1.78l-.34,1.01h-.62l1.56-4.48h.6l1.56,4.48h-.63ZM53.5,33.2l-.7,2.09h1.39l-.7-2.09ZM50.53,36.84l-1.29-2.22-.82.97v1.24h-.6v-4.48h.6v2.37l1.94-2.37h.72l-1.44,1.77,1.59,2.71h-.7ZM44.14,36.84v-4.48h.6v3.94h2.39v.55h-2.99ZM42.76,36.84l-.35-1.01h-1.78l-.34,1.01h-.63l1.56-4.48h.6l1.56,4.48h-.63ZM41.52,33.2l-.7,2.09h1.4l-.7-2.09ZM39.04,35.57c0,.7-.56,1.27-1.26,1.27,0,0,0,0-.01,0h-1.93v-4.48h1.86c.67-.03,1.24.49,1.27,1.16,0,.02,0,.05,0,.07.01.39-.2.76-.55.95.39.2.62.6.62,1.04h0ZM38.38,33.6c0-.47-.33-.69-.8-.69h-1.13v1.37h1.19c.37.04.7-.23.74-.6,0-.02,0-.05,0-.08h0ZM38.45,35.57c0-.42-.34-.76-.76-.76-.02,0-.04,0-.06,0h-1.19v1.48h1.21c.45,0,.8-.23.8-.73h0Z"/>
</svg>