<?xml version="1.0" encoding="UTF-8"?>
<svg id="Layer_1" data-name="Layer 1" xmlns="http://www.w3.org/2000/svg" viewBox="0 0 191.86 29.82">
  <defs>
    <style>
      .cls-1 {
        fill: none;
        isolation: isolate;
        opacity: .37;
        stroke: #9c9c9c;
        stroke-miterlimit: 10;
        stroke-width: .03px;
      }

      .cls-2 {
        fill: #b1b1b1;
      }

      .cls-3 {
        fill: #333;
      }
    </style>
  </defs>
  <rect class="cls-1" x="5.38" y="6.99" width="17.15" height="17.15" transform="translate(-6.92 14.43) rotate(-45)"/>
  <rect class="cls-2" x="1.88" y="8.44" width="15.17" height="2.45" transform="translate(-4.06 9.52) rotate(-45)"/>
  <rect class="cls-3" x="3.94" y="13.3" width="15.17" height="2.45" transform="translate(-6.9 12.41) rotate(-45)"/>
  <rect class="cls-2" x="8.8" y="15.37" width="15.17" height="2.45" transform="translate(-6.94 16.45) rotate(-45)"/>
  <rect class="cls-3" x="10.87" y="20.24" width="15.17" height="2.45" transform="translate(-9.77 19.34) rotate(-45)"/>
  <path class="cls-3" d="M126.26,23.38V7.75h5.06c3.51,0,6.68.35,6.68,3.96v1.01c0,1.45-.67,2.15-1.8,2.81,1.1.59,1.79,1.74,1.8,2.99v.94c0,3.13-2.06,3.93-6.68,3.93h-5.06ZM129.7,9.79v4.68h2.74c1.29,0,2.13-.4,2.13-1.78v-.8c0-2-1.2-2.1-3.11-2.1h-1.76ZM129.7,21.37h1.76c2.08,0,3.11-.49,3.11-2.06v-.82c0-1.43-.84-1.78-2.13-1.78h-2.74v4.66Z"/>
  <path class="cls-3" d="M139.74,23.38l5.47-15.6h4.72l5.59,15.6h-3.49l-1.38-4.01h-6.08l-1.34,4.01h-3.49ZM145.35,17.16h4.54l-2.29-6.68-2.25,6.68Z"/>
  <path class="cls-3" d="M167.57,23.38l-6.27-10.53v10.53h-3.34V7.75h3.96l6.35,10.86V7.75h3.46v15.63h-4.16Z"/>
  <path class="cls-3" d="M175.78,23.38V7.75h3.44v6.64h1.73l4.4-6.64h3.79l-5.12,7.52,5.38,8.07h-3.74l-4.61-6.86h-1.82v6.89h-3.43Z"/>
  <path class="cls-3" d="M36.08,23.38v-13.41h-5.1v-2.2h13.76v2.2h-5.1v13.41h-3.55Z"/>
  <path class="cls-3" d="M50.92,23.38h-3.46V7.77h3.46v15.61Z"/>
  <path class="cls-3" d="M54.92,23.38V7.77h6.78c3.34,0,6.11.82,6.11,3.93v1.82c0,1.26-.59,2.22-1.85,3.09l1.4,6.76h-3.63l-1.15-5.92h-4.16v5.89l-3.5.03ZM58.43,15.36h3.16c1.45,0,2.76-.23,2.76-1.85v-1.8c0-1.66-1.38-1.9-2.76-1.9h-3.16v5.55Z"/>
  <path class="cls-3" d="M69.4,23.38l5.47-15.6h4.72l5.62,15.6h-3.46l-1.38-4.01h-6.08l-1.34,4.01h-3.55ZM75.01,17.16h4.54l-2.29-6.68-2.25,6.68Z"/>
  <path class="cls-3" d="M97.24,23.38l-6.27-10.53v10.53h-3.34V7.75h3.96l6.32,10.86V7.75h3.46v15.63h-4.13Z"/>
  <path class="cls-3" d="M103.55,23.38l5.47-15.6h4.72l5.59,15.6h-3.45l-1.38-4.01h-6.08l-1.34,4.01h-3.53ZM109.16,17.16h4.54l-2.29-6.68-2.25,6.68Z"/>
</svg>