<?xml version="1.0" encoding="UTF-8"?>
<svg id="Layer_1" data-name="Layer 1" xmlns="http://www.w3.org/2000/svg" xmlns:xlink="http://www.w3.org/1999/xlink" viewBox="0 0 161.69 30.39">
  <defs>
    <style>
      .cls-1 {
        fill: none;
      }

      .cls-2 {
        clip-path: url(#clippath-1);
      }

      .cls-3 {
        clip-path: url(#clippath-3);
      }

      .cls-4 {
        clip-path: url(#clippath-4);
      }

      .cls-5 {
        clip-path: url(#clippath-2);
      }

      .cls-6 {
        clip-path: url(#clippath-5);
      }

      .cls-7 {
        fill: #bbbdbf;
      }

      .cls-8 {
        clip-path: url(#clippath);
      }
    </style>
    <clipPath id="clippath">
      <rect class="cls-1" x=".7" y=".88" width="157.54" height="28.19"/>
    </clipPath>
    <clipPath id="clippath-1">
      <rect class="cls-1" x=".7" y=".88" width="157.54" height="28.19"/>
    </clipPath>
    <clipPath id="clippath-2">
      <rect class="cls-1" x=".73" y=".91" width="157.47" height="28.13"/>
    </clipPath>
    <clipPath id="clippath-3">
      <rect class="cls-1" x=".73" y=".91" width="157.47" height="28.13"/>
    </clipPath>
    <clipPath id="clippath-4">
      <rect class="cls-1" x=".73" y=".91" width="157.47" height="28.13"/>
    </clipPath>
    <clipPath id="clippath-5">
      <rect class="cls-1" x=".73" y=".91" width="157.47" height="28.13"/>
    </clipPath>
  </defs>
  <g class="cls-8">
    <g class="cls-2">
      <g class="cls-5">
        <path class="cls-7" d="M15.14,22.93l-8.4,6.07.07.05,8.37-6.09-.05-.02ZM29.96,12.09l-.09.07-8.37,6.11,3.19,9.91.02.07.07-.05-3.17-9.91,8.37-6.13-.02-.07ZM15.83.91l3.24,9.86h.09L15.92.91h-.09Z"/>
      </g>
      <g class="cls-3">
        <path class="cls-7" d="M115.28,5.16h-4.93c-.31,0-.44,0-.51.13-.1.13-.18.77-.18,1.21,0,.15.03.26.08.36.18.18.87.36,1.18.67.26.26.39.77.39,2.73v10.29c0,1.72-.18,2.26-.38,2.47-.36.36-.98.57-1.16.75-.05.05-.08.15-.08.34,0,.67.08,1.31.18,1.41.08.08.18.13.51.13h6.45c.33,0,.44-.05.51-.13.1-.1.23-.75.23-1.41,0-.18-.02-.28-.1-.34-.18-.18-.8-.39-1.13-.75-.28-.26-.38-.82-.38-1.7v-.59c0-.33.1-.44.67-1,.26-.23.49-.41.67-.41.26,0,.46.18,3.29,5.89.18.36.26.44.72.44h4.19c.31,0,.41-.05.49-.13.1-.1.2-.75.2-1.41,0-.18-.03-.28-.08-.34-.18-.18-1.26-.31-1.49-.75-3.72-6.3-3.83-6.51-3.83-6.89,0-.33,1.64-1.98,3.01-3.06.88-.69,1.44-.23,1.44-1.05,0-.95-.13-1.29-.31-1.29h-6.22c-.54,0-.59.31-.59,1.47,0,.39,1.08.44,1.08.98,0,.46-2.62,2.98-3.06,2.98-.16,0-.18-.1-.18-.54V5.88c0-.41-.28-.72-.67-.72M155.61,14.7c0-2.88-1.49-4.35-3.82-4.35-1.11,0-2.29.36-3.47,1.08-.41.26-.54.33-.64.33-.41,0-.13-1.06-.87-1.06h-4.52c-.28,0-.36,0-.46.1-.13.13-.23.8-.23,1.26,0,.13.03.23.1.31.2.21.59.28.9.59.23.23.33.72.33,1.47v6.87c0,.88-.08,1.44-.33,1.7-.36.36-.98.57-1.16.75-.05.05-.08.15-.08.34,0,.67.08,1.31.18,1.41.08.08.23.13.52.13h6.47c.31,0,.41-.05.49-.13.13-.13.23-.75.23-1.41,0-.18-.02-.28-.08-.34-.2-.2-.8-.39-1.16-.75-.26-.26-.39-.82-.39-1.7v-5.07c0-2.08,1.16-2.73,2.01-2.73s1.36.64,1.36,2v7.13c0,1.9,1.21,3.16,3.39,3.16,2.42,0,3.44-1.75,3.44-2.11,0-.31-.49-.93-.8-.93-.36,0-.87.46-1.13.46-.18,0-.28-.13-.28-.54v-8h0ZM104.18,15.76c0,.95-.41,1.24-1.95,1.77-1.23.46-2.18.67-2.47.67-.51,0-.74-.39-.74-1.18,0-1.9.54-4.22,2.54-4.22,1.85,0,2.62,2.01,2.62,2.96M108.01,23.7c.74-.75.93-1.18.93-1.54,0-.39-.1-.69-.41-1-.33-.33-.62-.39-.87-.39-.36,0-.51.1-.75.34-1.13,1.13-2.57,1.75-4.32,1.75s-2.88-1.18-2.88-1.93c0-.2.18-.39.64-.51,4.93-1.54,6.99-2.57,7.76-3.34.44-.41.62-.9.62-1.34,0-1.96-2.83-5.43-7.17-5.43-1.8,0-3.62.72-4.98,2.08-1.36,1.36-2.21,3.29-2.21,5.92s.8,4.27,2.18,5.66c1.39,1.39,3.39,2.08,5.58,2.08s4.34-.8,5.88-2.34M135.75,15.76c0,.95-.41,1.24-1.95,1.77-1.23.46-2.18.67-2.47.67-.51,0-.74-.39-.74-1.18,0-1.9.54-4.22,2.54-4.22,1.85,0,2.62,2.01,2.62,2.96M139.58,23.7c.75-.75.93-1.18.93-1.54,0-.39-.1-.69-.41-1-.33-.33-.62-.39-.87-.39-.36,0-.51.1-.75.34-1.13,1.13-2.57,1.75-4.32,1.75s-2.88-1.18-2.88-1.93c0-.2.18-.39.64-.51,4.93-1.54,6.99-2.57,7.76-3.34.44-.41.62-.9.62-1.34,0-1.96-2.83-5.43-7.17-5.43-1.8,0-3.62.72-4.98,2.08-1.36,1.36-2.21,3.29-2.21,5.92s.8,4.27,2.18,5.66c1.39,1.39,3.39,2.08,5.57,2.08s4.34-.8,5.88-2.34M91.98,14.7c0-2.88-1.49-4.35-3.83-4.35-1.11,0-2.29.36-3.47,1.08-.41.26-.54.33-.64.33-.41,0-.13-1.06-.87-1.06h-4.52c-.28,0-.36,0-.46.1-.13.13-.23.8-.23,1.26,0,.13.03.23.1.31.2.21.59.28.9.59.23.23.33.72.33,1.47v6.87c0,.88-.08,1.44-.33,1.7-.36.36-.98.57-1.16.75-.05.05-.08.15-.08.33,0,.67.08,1.31.18,1.41.08.08.23.13.51.13h6.47c.31,0,.41-.05.49-.13.13-.13.23-.75.23-1.41,0-.18-.03-.28-.08-.33-.2-.2-.8-.39-1.16-.75-.26-.26-.38-.82-.38-1.7v-5.07c0-2.08,1.15-2.73,2-2.73s1.36.64,1.36,2.01v7.13c0,1.9,1.21,3.16,3.39,3.16,2.41,0,3.44-1.75,3.44-2.11,0-.31-.49-.93-.8-.93-.36,0-.87.46-1.13.46-.18,0-.28-.13-.28-.54v-8h0ZM72.07,4.7c-1.41,0-2.57,1.11-2.57,2.5s1.16,2.52,2.57,2.52,2.6-1.11,2.6-2.52-1.16-2.5-2.6-2.5M74.81,11.18c0-.33-.18-.46-.46-.46h-4.96c-.28,0-.38,0-.46.1-.1.1-.2.8-.2,1.26,0,.13.05.23.1.31.18.23.57.31.9.59.23.23.33.72.33,1.47v6.87c0,.88-.1,1.44-.36,1.7-.38.39-1.03.57-1.21.75-.05.05-.08.15-.08.34,0,.67.1,1.31.2,1.41.08.08.2.13.49.13h6.6c.28,0,.41-.05.49-.13.1-.1.18-.75.18-1.41,0-.18-.03-.28-.08-.34-.18-.18-.77-.36-1.16-.75-.26-.26-.33-.82-.33-1.7v-10.13h0ZM66.77,23.7c.74-.75.93-1.18.93-1.54,0-.39-.1-.69-.41-1-.34-.33-.62-.39-.87-.39-.36,0-.51.1-.74.34-1.13,1.13-2.57,1.75-4.32,1.75s-2.88-1.18-2.88-1.93c0-.2.18-.39.64-.51,4.93-1.54,6.99-2.57,7.76-3.34.44-.41.62-.9.62-1.34,0-1.96-2.82-5.43-7.17-5.43-1.8,0-3.62.72-4.98,2.08-1.36,1.36-2.21,3.29-2.21,5.92s.8,4.27,2.18,5.66c1.39,1.39,3.39,2.08,5.58,2.08s4.34-.8,5.88-2.34M42.91,24.06c0-.16-.02-.26-.1-.33-.21-.21-.98-.33-1.36-.72-.28-.28-.46-.77-.46-1.9v-4.35c0-.33.08-.54.41-.54h4.42c.33,0,.41.2.41.54v4.35c0,1.13-.18,1.62-.46,1.9-.38.39-1.16.51-1.36.72-.08.08-.1.18-.1.33,0,.67.1,1.34.2,1.44.1.1.26.13.59.13h7.22c.33,0,.49-.02.59-.13.1-.1.21-.77.21-1.44,0-.16-.03-.26-.1-.33-.18-.18-.98-.33-1.36-.72-.28-.28-.44-.82-.44-1.7v-12.01c0-.62.16-1.03.38-1.26.41-.41,1.23-.49,1.41-.67.08-.08.1-.23.1-.36,0-.46-.1-1.16-.21-1.26-.1-.1-.2-.13-.59-.13h-6.96c-.28,0-.38.03-.46.1-.08.08-.15.62-.15,1.31,0,.13.03.28.08.33.13.13.77.34,1.03.59.28.28.38.59.38,1.47v3.42c0,.13-.13.31-.31.31h-4.62c-.18,0-.31-.18-.31-.31v-3.42c0-.87.1-1.18.39-1.47.26-.26.9-.46,1.03-.59.05-.05.08-.2.08-.33,0-.69-.08-1.23-.15-1.31-.08-.08-.18-.1-.46-.1h-6.96c-.38,0-.49.03-.59.13-.1.1-.2.8-.2,1.26,0,.13.03.28.1.36.18.18,1,.26,1.41.67.23.23.38.64.38,1.26v12.01c0,.87-.15,1.41-.44,1.7-.38.39-1.18.54-1.36.72-.08.08-.1.18-.1.33,0,.67.1,1.34.2,1.44.1.1.21.13.59.13h7.22c.33,0,.49-.02.59-.13.1-.1.2-.77.2-1.44M62.94,15.76c0,.95-.41,1.24-1.95,1.77-1.23.46-2.18.67-2.47.67-.51,0-.74-.39-.74-1.18,0-1.9.54-4.22,2.54-4.22,1.85,0,2.62,2.01,2.62,2.96"/>
      </g>
      <g class="cls-4">
        <polygon class="cls-7" points="15.12 1.13 18.53 11.51 29.45 11.55 20.64 18 23.97 28.41 15.12 22.02 6.26 28.41 9.6 18 .79 11.55 11.71 11.51 15.12 1.13 15.12 1.13"/>
      </g>
      <g class="cls-6">
        <path class="cls-7" d="M155.03,6.97h.22c.31,0,.51-.01.58-.04.15-.04.25-.18.25-.33,0-.07-.02-.14-.07-.2-.04-.06-.11-.11-.18-.13-.08-.03-.27-.04-.58-.04h-.22v.73M154.48,8.49v-2.68h.54c.51,0,.79,0,.85,0,.18.02.32.05.42.11.11.06.19.15.25.26.07.12.1.25.1.38,0,.18-.06.36-.19.5-.13.14-.3.22-.53.25.07.02.13.06.19.1.05.04.1.1.18.2.02.03.09.13.2.33l.32.54h-.67l-.22-.43c-.15-.29-.28-.48-.37-.55-.11-.08-.24-.12-.37-.12h-.14v1.1h-.54M155.62,5.11c-.35,0-.69.09-1,.26-.32.17-.57.42-.75.75-.36.63-.36,1.4,0,2.03.18.32.43.57.75.75.62.36,1.39.36,2.01,0,.31-.17.58-.43.75-.75.18-.32.27-.66.27-1.01s-.09-.7-.28-1.02c-.17-.32-.44-.58-.75-.75-.3-.17-.65-.26-1-.26M155.62,4.62c.43,0,.85.11,1.24.33.39.21.72.53.93.93.23.4.34.83.34,1.27,0,.44-.12.88-.34,1.26-.22.39-.54.71-.93.93-.78.44-1.73.44-2.51,0-.39-.22-.71-.54-.93-.93-.22-.38-.33-.82-.33-1.26,0-.44.11-.86.34-1.27.23-.4.54-.71.94-.93.38-.21.81-.33,1.24-.33"/>
      </g>
    </g>
  </g>
</svg>