<?xml version="1.0" encoding="UTF-8"?>
<svg id="Layer_1" data-name="Layer 1" xmlns="http://www.w3.org/2000/svg" viewBox="0 0 172.96 59.73">
  <defs>
    <style>
      .cls-1 {
        fill: #bbbdbf;
      }
    </style>
  </defs>
  <path class="cls-1" d="M69.97,46.77c0-.55.38-.94.91-.94.27,0,.51.1.67.3l-.05.05c-.14-.19-.37-.29-.62-.29-.48,0-.84.36-.84.87s.36.87.84.87c.25,0,.47-.09.62-.29l.05.05c-.16.2-.4.3-.67.3-.53,0-.91-.39-.91-.94"/>
  <path class="cls-1" d="M72.6,46.77c0-.55.38-.94.9-.94s.9.39.9.94-.38.94-.9.94-.9-.39-.9-.94M74.33,46.77c0-.51-.36-.87-.83-.87s-.83.36-.83.87.36.87.83.87.83-.36.83-.87"/>
  <path class="cls-1" d="M77.32,46.61v1.09h-.07v-1.09c0-.46-.25-.7-.67-.7-.49,0-.78.32-.78.79v1.01h-.07v-1.86h.07v.49c.11-.31.38-.51.78-.51.46,0,.74.27.74.77"/>
  <path class="cls-1" d="M78.54,47.46l.04-.06c.13.13.38.24.68.24.44,0,.62-.17.62-.41,0-.62-1.27-.2-1.27-.92,0-.25.2-.48.66-.48.23,0,.47.08.61.19l-.04.06c-.15-.12-.36-.18-.57-.18-.41,0-.58.18-.58.41,0,.64,1.27.22,1.27.92,0,.28-.23.48-.69.48-.3,0-.58-.11-.72-.25"/>
  <path class="cls-1" d="M82.06,47.58c-.09.09-.23.13-.36.13-.29,0-.45-.18-.45-.46v-1.34h-.36v-.07h.36v-.41h.07v.41h.63v.07h-.63v1.32c0,.26.13.41.38.41.12,0,.23-.04.31-.11l.05.05Z"/>
  <path class="cls-1" d="M84.13,45.84v.07h-.02c-.45,0-.71.31-.71.8v1h-.07v-1.86h.07v.48c.1-.31.36-.49.73-.49"/>
  <path class="cls-1" d="M86.98,45.85v1.86h-.07v-.49c-.11.31-.37.5-.75.5-.47,0-.76-.27-.76-.77v-1.09h.07v1.09c0,.46.25.7.69.7.47,0,.75-.32.75-.79v-1.01h.07Z"/>
  <path class="cls-1" d="M88.3,46.77c0-.55.38-.94.91-.94.27,0,.51.1.67.3l-.05.05c-.14-.19-.37-.29-.62-.29-.48,0-.84.36-.84.87s.36.87.84.87c.25,0,.47-.09.62-.29l.05.05c-.16.2-.4.3-.67.3-.53,0-.91-.39-.91-.94"/>
  <path class="cls-1" d="M92.05,47.58c-.09.09-.23.13-.36.13-.29,0-.45-.18-.45-.46v-1.34h-.36v-.07h.36v-.41h.07v.41h.63v.07h-.63v1.32c0,.26.13.41.38.41.12,0,.23-.04.31-.11l.05.05Z"/>
  <path class="cls-1" d="M93.26,45.24c0-.05.04-.09.09-.09s.09.04.09.09-.04.09-.09.09-.09-.04-.09-.09M93.32,45.85h.07v1.86h-.07v-1.86Z"/>
  <path class="cls-1" d="M94.72,46.77c0-.55.38-.94.9-.94s.9.39.9.94-.38.94-.9.94-.9-.39-.9-.94M96.45,46.77c0-.51-.36-.87-.83-.87s-.83.36-.83.87.36.87.83.87.83-.36.83-.87"/>
  <path class="cls-1" d="M99.44,46.61v1.09h-.07v-1.09c0-.46-.25-.7-.67-.7-.49,0-.78.32-.78.79v1.01h-.07v-1.86h.07v.49c.11-.31.38-.51.78-.51.46,0,.74.27.74.77"/>
  <polygon class="cls-1" points="65.39 10.97 65.39 10.97 65.39 10.97 47.93 28.43 55.71 28.43 65.39 18.75 73.2 26.57 77.1 22.67 65.39 10.97"/>
  <rect class="cls-1" x="62.62" y="23.38" width="5.54" height="5.54" transform="translate(.66 53.89) rotate(-45)"/>
  <polygon class="cls-1" points="121.67 14.16 113.89 14.16 104.22 23.83 91.23 10.85 74.36 27.72 78.25 31.62 91.23 18.64 104.21 31.62 104.22 31.61 104.22 31.62 121.67 14.16"/>
  <polygon class="cls-1" points="54.69 38.11 54.69 40.27 57.53 40.27 57.53 40.77 54.69 40.77 54.69 43.1 54.1 43.1 54.1 37.61 57.87 37.61 57.87 38.11 54.69 38.11"/>
  <rect class="cls-1" x="60.25" y="37.61" width=".58" height="5.5"/>
  <path class="cls-1" d="M67.56,43.11l-1.26-1.77c-.14.02-.28.02-.44.02h-1.48v1.74h-.58v-5.5h2.06c1.4,0,2.25.71,2.25,1.89,0,.86-.46,1.47-1.26,1.73l1.34,1.89h-.64ZM67.53,39.49c0-.88-.58-1.38-1.68-1.38h-1.46v2.76h1.46c1.1,0,1.68-.51,1.68-1.37"/>
  <path class="cls-1" d="M70.14,42.44l.23-.45c.39.38,1.09.67,1.81.67,1.03,0,1.48-.43,1.48-.97,0-1.51-3.39-.58-3.39-2.62,0-.81.63-1.51,2.03-1.51.62,0,1.26.18,1.7.49l-.2.46c-.47-.31-1.02-.46-1.51-.46-1.01,0-1.45.45-1.45,1,0,1.51,3.39.6,3.39,2.6,0,.81-.64,1.5-2.05,1.5-.82,0-1.63-.29-2.04-.71"/>
  <polygon class="cls-1" points="77.66 38.11 75.73 38.11 75.73 37.61 80.18 37.61 80.18 38.11 78.24 38.11 78.24 43.1 77.66 43.1 77.66 38.11"/>
  <polygon class="cls-1" points="93.07 37.61 91.21 43.1 90.6 43.1 88.99 38.41 87.37 43.1 86.77 43.1 84.91 37.61 85.51 37.61 87.1 42.34 88.74 37.61 89.28 37.61 90.9 42.36 92.51 37.61 93.07 37.61"/>
  <path class="cls-1" d="M94.77,40.36c0-1.6,1.23-2.8,2.89-2.8s2.88,1.19,2.88,2.8-1.23,2.8-2.88,2.8-2.89-1.19-2.89-2.8M99.97,40.36c0-1.31-.98-2.28-2.3-2.28s-2.32.97-2.32,2.28.99,2.28,2.32,2.28,2.3-.97,2.3-2.28"/>
  <path class="cls-1" d="M102.54,40.36c0-1.6,1.23-2.8,2.89-2.8s2.88,1.19,2.88,2.8-1.23,2.8-2.88,2.8-2.89-1.19-2.89-2.8M107.73,40.36c0-1.31-.98-2.28-2.3-2.28s-2.32.97-2.32,2.28.99,2.28,2.32,2.28,2.3-.97,2.3-2.28"/>
  <path class="cls-1" d="M110.8,37.61h2.24c1.76,0,2.95,1.13,2.95,2.75s-1.19,2.75-2.95,2.75h-2.24v-5.5ZM113.01,42.6c1.46,0,2.4-.93,2.4-2.25s-.94-2.25-2.4-2.25h-1.63v4.49h1.63Z"/>
</svg>