<?xml version="1.0" encoding="UTF-8"?>
<svg id="Layer_1" data-name="Layer 1" xmlns="http://www.w3.org/2000/svg" viewBox="0 0 141.81 59.73">
  <defs>
    <style>
      .cls-1 {
        fill: #bbbdbf;
      }
    </style>
  </defs>
  <g id="_7iWitP" data-name="7iWitP">
    <g>
      <path class="cls-1" d="M63.43,27.55c0,4.15.04,8.29-.01,12.44-.03,2.48-.55,4.87-1.79,7.05-2.49,4.4-7.7,6.12-12.52,4.16-1.41-.57-2.66-1.39-3.81-2.38-.62-.53-.62-.79-.07-1.38.67-.72,1.36-1.42,2.01-2.16.38-.43.73-.47,1.21-.16,1.19.76,2.4,1.46,3.82,1.72,1.82.33,3.6-.43,4.6-1.99,1.02-1.6,1.3-3.4,1.41-5.24.03-.5-.39-.68-.84-.4-.55.34-1.08.76-1.67,1.02-1.18.53-2.45.47-3.7.41-3.6-.18-6.86-2.56-7.97-5.9-.31-.93-.45-1.96-.47-2.95-.06-3.12-.03-6.25-.02-9.37.02-4.49,3.36-8.22,7.83-8.71.97-.1,1.96-.07,2.94-.03,1.05.05,1.97.46,2.8,1.12.17.13.46.24.65.18.14-.04.27-.35.28-.55.03-.58.32-.75.87-.74,1.19.02,2.39,0,3.59,0,.78,0,.89.11.89.92,0,4.32,0,8.64,0,12.96-.01,0-.02,0-.03,0ZM58.14,27.18h0c0-1.64,0-3.28,0-4.91,0-1.13-.49-2.02-1.35-2.76-1.18-1.02-2.56-1.22-4.05-1.12-1.67.11-4.07,2.01-4.02,4.31.06,2.95.02,5.9.01,8.85,0,1.1.41,2.01,1.16,2.81,1.18,1.26,2.62,1.7,4.29,1.52,2.43-.27,3.96-1.98,3.96-4.4,0-1.43,0-2.85,0-4.28Z"/>
      <path class="cls-1" d="M90.66,40.63c-2.95,0-5.9,0-8.85,0-.98,0-1.14-.27-.67-1.15,3.51-6.56,7.03-13.12,10.54-19.67.08-.15.17-.3.23-.47.15-.41.02-.68-.43-.75-.21-.03-.42-.03-.63-.03-2.82,0-5.63,0-8.45,0-.8,0-.87-.08-.87-.85,0-.96,0-1.93,0-2.89,0-.9.08-.97,1-.97,4.98,0,9.95,0,14.93,0,.66,0,1.31,0,1.97,0,1,0,1.16.26.7,1.14-2.74,5.18-5.49,10.35-8.23,15.53-.76,1.43-1.52,2.86-2.28,4.29-.43.81-.26,1.1.65,1.1,3.07,0,6.13,0,9.2,0,.94,0,1.01.07,1.01,1.03,0,.96,0,1.93,0,2.89,0,.68-.12.8-.82.8-2.99,0-5.98,0-8.97,0Z"/>
      <path class="cls-1" d="M69.95,27.24c0-4.13,0-8.25,0-12.38,0-.92.12-1.05,1.02-1.05,1.1,0,2.2,0,3.3,0,.66,0,.81.15.81.83,0,8.39,0,16.77,0,25.16,0,.69-.15.83-.87.83-1.12,0-2.24,0-3.35,0-.78,0-.91-.13-.91-.9,0-4.16,0-8.33,0-12.49Z"/>
      <path class="cls-1" d="M75.11,8.26c0,.64,0,1.27,0,1.91,0,.64-.19.83-.82.83-1.1,0-2.2.03-3.29-.01-.31-.01-.84-.15-.88-.32-.09-.41-.05-.92.13-1.29.2-.42.61-.73.93-1.09.72-.8,1.42-1.63,2.17-2.4.22-.22.58-.38.89-.41.65-.07.87.17.88.83,0,.65,0,1.31,0,1.96Z"/>
    </g>
  </g>
</svg>