<?xml version="1.0" encoding="UTF-8"?>
<svg id="Layer_1" data-name="Layer 1" xmlns="http://www.w3.org/2000/svg" viewBox="0 0 172.96 59.73">
  <defs>
    <style>
      .cls-1 {
        fill: #bbbdbf;
      }
    </style>
  </defs>
  <path class="cls-1" d="M30.94,32.12c-2.09-5.26-4.21-10.56-6.39-16.05-3.03,8.13-5.98,16.03-8.98,24.05,1.11,0,2.07-.04,3.03.01.58.03.83-.18,1.02-.72.9-2.54,1.86-5.06,2.78-7.59.82-2.24,1.62-4.49,2.39-6.64,2,5.19,4.02,10.45,6.14,15.93,2.05-5.5,4-10.75,5.93-15.94,1.76,4.71,3.52,9.45,5.31,14.17.11.3.44.72.69.74,1.07.08,2.14.03,3.32.03-2.98-8.02-5.93-15.94-8.95-24.06-2.15,5.5-4.23,10.81-6.29,16.06Z"/>
  <path class="cls-1" d="M125.26,32.47c-5.68-5.48-11.36-10.97-17.12-16.54v23.95h3.41v-15.6c5.68,5.48,11.35,10.95,17.15,16.54v-23.94h-3.44v15.59Z"/>
  <path class="cls-1" d="M150.65,16.89v15.62c-5.68-5.49-11.35-10.98-17.15-16.59v23.98h3.45v-15.59c5.65,5.46,11.32,10.93,17.08,16.49v-23.9h-3.38Z"/>
  <path class="cls-1" d="M81.59,18.3c-2.78-1.84-5.87-2.39-9.11-1.83-6.69,1.15-10.81,6.71-9.94,13.65,1.33,10.56,12.87,12.55,18.95,8.61.18-.12.43-.33.44-.5.04-1.29.02-2.58.02-4.01-.57.41-.97.72-1.39.99-2.27,1.48-4.74,2.17-7.43,1.74-3.11-.5-5.26-2.31-6.25-5.28-1.08-3.26-.77-6.45,1.55-9.13,2.41-2.79,5.62-3.31,9.03-2.42,1.58.41,3.03,1.32,4.57,2.02.04-.85.14-1.86.11-2.87,0-.33-.26-.79-.54-.97Z"/>
  <path class="cls-1" d="M83.51,39.95c1.21,0,2.28-.03,3.35.01.52.02.72-.21.91-.64.68-1.56,1.41-3.1,2.09-4.67.2-.47.44-.68.99-.67,2.58.03,5.15.03,7.73,0,.58,0,.83.21,1.05.72.64,1.55,1.33,3.08,2.03,4.6.12.26.4.61.62.62,1.18.06,2.36.03,3.65.03-3.76-8.07-7.45-15.98-11.21-24.05-3.77,8.09-7.46,16.01-11.21,24.05ZM97.92,30.83h-6.28c1.08-2.55,2.14-5.02,3.13-7.37,1.01,2.35,2.06,4.81,3.15,7.37Z"/>
  <path class="cls-1" d="M58.71,25.04c-3.09-1.04-6.05-.83-8.7,1.15-3.15,2.35-3.86,7.51-1.61,10.98,2.45,3.78,7.44,4.07,10.58,2.56.2-.1.43-.37.44-.57.04-1.12.02-2.25.02-3.43-3,2.12-5.71,2.22-7.5.34-1.55-1.63-1.7-4.98-.3-6.86.64-.85,1.49-1.39,2.52-1.6,1.97-.39,3.7.14,5.28,1.62,0-1.15-.04-2.11.01-3.05.04-.61-.17-.94-.74-1.13Z"/>
</svg>