<?xml version="1.0" encoding="UTF-8"?>
<svg id="Layer_1" data-name="Layer 1" xmlns="http://www.w3.org/2000/svg" viewBox="0 0 172.96 59.73">
  <defs>
    <style>
      .cls-1 {
        fill: #bbbdbf;
      }
    </style>
  </defs>
  <g id="pxRYPD">
    <g>
      <path class="cls-1" d="M98.92,32.92c.24,0,.49.01.73.02.2.1.11.28.13.43,0,.21,0,.43,0,.64-.02.4.03.79-.03,1.19-.01.05-.02.11-.03.16-.2.1-.43-.02-.63.06-2.77,0-5.54.01-8.3.02-.02-.02-.03-.04-.05-.06-.1-.23-.06-.48-.06-.71,0-.87,0-1.74,0-2.61,0-.23,0-.46,0-.69,0-1.04,0-2.08,0-3.12,0-.51,0-1.03,0-1.54,0-.33,0-.66,0-.99.02-.73-.05-1.46.04-2.19.22-.27.37-.1.49.1.14.23.21.5.25.76.13.81.98,1.15,1.71.73.35-.2.7-.25,1.08-.23.19,0,.42,0,.51.18.1.21-.07.37-.21.52-.11.03-.22.01-.32.02-.18.02-.36.07-.55.02-.27-.12-.15.09-.16.19-.01.41.03.81-.03,1.22,0,.08,0,.16,0,.24.03.06.02.12,0,.18-.02.41.25.68.73.67.63,0,1.25.18,1.88.02.1-.03.21,0,.32.04.04.02.07.05.08.09-.11.24-.32.25-.54.25-.65,0-1.3-.04-1.94.06-.13.02-.27.01-.4-.04-.35-.14-.66-.4-1.09-.21-.14.06-.29-.11-.43-.19-.33-.19-.52-.11-.64.25-.1.31-.14.61-.1.95.07.45.08.91,0,1.37.28-.39.62-.62,1.09-.63.34,0,.64-.07.89-.31.12-.12.28-.18.44-.16.43.05.79.33,1.21.43.1.02.14.16.09.28-.02.04-.04.07-.07.1-.33,0-.65.02-.98.03-.15.05-.31.01-.46.03-.18.21-.04.45-.07.67-.03.22.03.45-.03.66,0,.08,0,.16,0,.23.05.13.01.26.02.39,0,.04,0,.07-.01.11-.02.12-.03.24.07.34.04.04.08.07.13.11.47.14.94.13,1.41-.05,1.25-.02,2.5,0,3.74-.01.02,0,.05,0,.07,0Z"/>
      <path class="cls-1" d="M29.88,34.65c-.3.16-.6.32-.89.49-.18.25-.45.3-.74.3-.75.22-1.52.39-2.31.33-1.31-.1-2.5-.55-3.55-1.34-.69-.52-1.27-1.13-1.7-1.88-.59-1.03-.94-2.13-.9-3.34,0-.24,0-.48.01-.73.12-.12.18-.3.38-.34.03.02.06.05.07.09,0,.33-.14.65-.04.99.05.2-.1.45.11.6.24.17.51.32.81.33.4.01.8,0,1.19.15.31.12.26-.23.38-.35.19-.04.19.12.22.22.42,1.46,1.36,2.35,2.88,2.58.06.01.11.03.17.05.19.12.39.07.58,0,.04-.01.07-.02.11-.02.13-.01.27-.02.4-.07,1.22-.24,2.64-1.45,2.68-3.13.11-.35-.14-.72.02-1.07.38-.22.6-.12.63.29.03.43.04.86-.02,1.29,0,.07-.04.14-.03.2.08.39.11.76-.34.99.63-.24.66-.28.66-.85,0-.17.06-.29.22-.35.16-.06.29.02.39.15.14.19.13.41.11.62-.01.15-.05.29,0,.44.42-.09.82-.54.82-.98,0-.41.21-.52.57-.46.06.07.07.15.07.23-.2,1.51-.83,2.81-1.9,3.88-.29.29-.6.58-1.03.68Z"/>
      <path class="cls-1" d="M72.86,26.38c0-.27-.1-.54,0-.81-.06-.19-.01-.38-.03-.58-.02-.46.04-.92-.04-1.38q-.01-.46.64-.49c1.01-.05,2.02-.05,3.02,0,.05,0,.11.02.16,0,.34-.06.6.01.66.41.1.12.19.24.16.41-.02.21.13.37.16.57.14.07.16.19.14.33.3.83.6,1.65.9,2.48.07.2.16.4.24.6.06.04.12.09.15.16.05.12.08.24.12.36.03.09.05.17.03.27-.12.15.04.19.11.27.2.43.42.85.51,1.32,0,.18.07.32.19.44.06.08.1.17.12.27.03.15,0,.3-.1.42-.21.26-.31.51-.13.84.11.21-.09.35-.27.42-.15.06-.52-.28-.52-.47,0-.12.04-.24.05-.36.02-.17-.04-.28-.2-.36-.42-.22-.6-.66-.4-1.11.11-.25.11-.46-.05-.67-.03-.04-.06-.09-.07-.14-.19-1.11-1.07-1.37-1.98-1.59-.23-.14-.26-.39-.34-.61-.09-.26-.16-.54-.27-.79-.05.12,0,.24-.01.36,0,.22.01.44-.03.66-.1.37-.03.76-.05,1.13,0,.25,0,.5,0,.75,0,1.22,0,2.44,0,3.67,0,.43,0,.86,0,1.29-.02.29.03.59-.04.88-.02.04-.05.08-.09.12-.59,0-1.19,0-1.78-.01-.17-.06-.35-.01-.52-.03-.18-.09-.33-.22-.5-.32-.02-.1,0-.2.04-.29-.19-.17.09-.39-.06-.56.28-.17.42-.06.51.22.04.15.04.36.25.37.2,0,.28-.19.36-.35.07-.13.09-.28.17-.41.17-.3.36-.58.78-.53.22.03.32-.09.37-.28.05-.21.07-.43.04-.64-.07-.59-.06-1.18-.04-1.77.02-.53-.45-.86-.96-.65-.24.1-.37.04-.49-.18-.24-.44-.33-.9-.34-1.4-.04.67-.12,1.34-.14,2.01-.02.69.04,1.38-.06,2.06-.03.22-.02.54-.42.48,0-.05,0-.1,0-.14,0-1.45,0-2.9,0-4.36.02-.76-.03-1.52.03-2.27Z"/>
      <path class="cls-1" d="M30.86,24.69c.14.18.28.36.42.54.19.32.39.63.66.9.4.68.68,1.39.71,2.19-.2.16-.21.35-.11.57.08.17.18.33.24.51,0,.1,0,.2,0,.3,0,.06.01.12-.05.16-.3.08-.56.15-.41.58.07.21-.28.31-.32.53-.04.21-.12.38-.39.36-.09,0-.18.11-.28.17-.1-.22-.12-.42-.06-.65.05-.19.06-.41-.07-.59-.07-.1-.17-.19-.31-.12-.11.06-.2.15-.13.3.17.39.07.64-.36.76-.07.02-.13.13-.18.21-.07.1-.14.18-.26.08-.11-.08-.19-.22-.05-.29.41-.21.31-.55.34-.92.03-.46.03-.91.06-1.37.03-.39-.13-.52-.5-.42-.07.01-.11-.03-.14-.08-.13-.36-.29-.7-.48-1.03-.14-.25-.33-.46-.56-.64-.12-.1-.25-.21-.24-.4.07-.22.07-.43-.1-.6-.26-.27-.6-.45-.69-.87-.03-.14-.22-.11-.36-.1-1.1.13-2.11.52-3.09,1.04-.11.06-.22.1-.34.12-.39.05-.74.13-.89.56-.04.11-.15.21-.29.16-.14-.05-.08-.18-.08-.28,0-.21.05-.38.23-.53.33-.26.31-.49-.01-.75-.18-.14-.39-.23-.62-.3-.1-.03-.27,0-.23-.2.68-.73,1.55-1.15,2.49-1.44.51-.16,1.04-.32,1.58-.32,1.63-.02,3.1.49,4.4,1.46.05.05.11.11.16.16.18,0,.25.12.32.25Z"/>
      <path class="cls-1" d="M9.6,30.99c0,.38,0,.76,0,1.13-.05.59-.05,1.19,0,1.78-.17.22.09.43,0,.65-.06.2-.03.4-.02.6,0,.16-.05.25-.21.28-.79,0-1.57,0-2.36.02-.2,0-.25-.06-.25-.25.01-1.59.01-3.18.02-4.78.23-.38.25-.8.29-1.24.09-1.02-.2-2-.23-3,0-.26.16-.54-.06-.78,0-.03,0-.05,0-.08.23-.16.33-.34.15-.6-.11-.16-.05-.37-.15-.53,0-.04-.01-.08-.01-.12,0-.29-.1-.67.05-.86.16-.21.56-.03.85-.08.36-.04.71-.04,1.07,0,.29.06.6-.08.88.1.05.04.08.09.1.16,0,.04.01.08.01.12,0,.14,0,.29,0,.43,0,.06-.02.12-.03.18-.23.43.03.88-.07,1.31.02.13.03.26.06.39,0,.06,0,.11-.02.17-.45.47-.46.59-.08,1.04.03.17.03.34.06.51,0,.12,0,.23-.03.35-.03.08,0,.13.07.2.44.41.34.87-.24,1.09-.09.03-.19.03-.28.06-.27.11-.37.28-.25.57.14.33.38.54.66.73.08.15-.07.32.03.47Z"/>
      <path class="cls-1" d="M76.45,27.92c.52-.04.94.15,1.3.51.05.05.1.14.15.13.57-.05.49.43.58.74.05.17.08.32.2.47.14.18.18.39,0,.59-.25.3,0,.62,0,.93,0,.1.16.04.25.07.29.1.43.25.33.57-.07.21-.14.44.17.55.08.03.1.28.25.07.08-.11.26-.16.09-.35-.2-.22-.14-.44.03-.65.14-.16.29-.33.25-.57.35-.58.5-1.24.77-1.86.06-.13.07-.29.21-.39.22-.27.28-.61.4-.92.26-.64.5-1.28.75-1.93.27,0,.45.2.52.39.17.43.42.85.3,1.35-.02.09-.08.21.04.25.14.04.2-.1.19-.2-.02-.3.12-.61-.04-.91-.09-.16-.09-.38.09-.47.32-.15.47-.43.65-.69.11-.17.28-.31.51-.25.22.05.27.24.3.43,0,.04,0,.07-.02.11-.07.1-.12.21-.15.33-.02.07-.05.13-.07.2-.05.14-.12.27-.16.41-.09.28-.19.55-.3.83-.27.67-.47,1.37-.72,2.05-.06.15-.11.3-.26.39-.58,1.61-1.16,3.21-1.74,4.82-.19.52-.17.52-.75.52-.42,0-.84,0-1.26,0-.12-.09-.29.03-.41-.09-.09-.09-.09-.2-.1-.31-.14-.16-.18-.36-.2-.56.25-.66-.24-1.08-.51-1.58-.34-.44-.39-.99-.58-1.49-.32-.85-.6-1.72-.89-2.59-.09-.3-.29-.58-.18-.91Z"/>
      <path class="cls-1" d="M58.22,35.13c-.09.14-.22.04-.33.06-.14-.05-.26-.08-.35.08-.03.03-.06.04-.09.05-.04,0-.07-.01-.1-.03-.2-.14-.32.04-.46.12-.08.03-.15.01-.22-.04-1.6.14-3.2.02-4.8.08-.35.01-.45-.1-.42-.41-.06-.29.02-.6-.1-.88,0-.23,0-.46,0-.68.02-1.5-.03-3.01.03-4.51.32-.86.35-1.76.26-2.66-.02-.18-.1-.33-.22-.47-.07-.13-.06-.28-.07-.42,0-.12.01-.24.04-.35.09-.51.12-1.02.12-1.53.22-.06.23-.05.3.21.09.35.14.71.37,1.01.24.31.82.51,1.23.38.51-.16,1.02-.22,1.55-.23.15,0,.33-.03.41.11.08.14-.1.23-.16.34-.04.07-.07.15-.12.21-.06.06-.14.08-.22.07-.13-.03-.27-.16-.35.06-.08.12-.09.25-.08.38,0,.32,0,.64,0,.96,0,.32,0,.63,0,.95,0,.22,0,.44,0,.66,0,.27,0,.54,0,.8,0,.2,0,.39,0,.59,0,.37,0,.73,0,1.1,0,.35,0,.7,0,1.05,0,.04,0,.08,0,.13-.02.2-.15.41.1.56.16.07.34.03.51.05.16.01.31.05.39.21.02.11.11.18.2.24.08.05.21.1.14.25-.05.11-.17.16-.27.12-.27-.11-.51-.06-.78-.01-.25.04-.48-.08-.49-.4,0-.19-.09-.26-.29-.31-.31-.07-.6-.24-.86-.42-.27-.19-.4-.47-.35-.81.04-.29.03-.59.14-.87.12-.3.05-.55-.17-.78-.23-.24-.42-.5-.39-.9.07,1.12-.16,2.17-.2,3.23-.02.46,0,.92.08,1.36.09.43.53.64.95.4.36-.21.74-.31,1.11-.46.12-.05.22-.07.3.08.18.36.49.46.87.22.39-.26.81-.27,1.25-.22.19.02.41.07.49.24.15.33.36.37.68.26.21-.08.46-.04.56.19.1.22.06.45-.15.61Z"/>
      <path class="cls-1" d="M84.84,35.43h-.04s-.04,0-.04,0c-.08-.36-.03-.74-.12-1.1,0-.17,0-.35,0-.52.04-.32.1-.64.07-.97,0-.69,0-1.37,0-2.06,0-.32,0-.64,0-.96,0-.16.02-.33-.05-.48-.04-.24.02-.48-.05-.72-.02-.09-.03-.17-.02-.26,0-.04.01-.09.03-.13.04-.32.01-.64.02-.97,0-.15,0-.3,0-.45,0-.23.02-.46-.02-.69-.01-.04-.01-.08,0-.13,0-.04.03-.08.06-.11h0c.58-.03,1.12-.23,1.65-.45.19-.08.27-.01.34.15.11.26.18.55.61.47.17-.03.28.17.29.37,0,.8,0,1.59,0,2.39,0,1.34,0,2.68,0,4.02.08.5.09,1,.07,1.5,0,.16.01.32-.1.46q-.04.64-.71.64c-.42,0-.84,0-1.26-.01-.24-.06-.49-.02-.73,0Z"/>
      <path class="cls-1" d="M9.53,30.5c-.36-.08-.84-.65-.8-.98.03-.29.27-.43.51-.43.33,0,.46-.25.63-.43.15-.16-.03-.45-.32-.51-.27-.06-.15-.14-.03-.24.05,0,.1-.03.15-.05.63-.38,1.12-.91,1.62-1.44.9-.95,1.85-1.85,2.77-2.77.21-.21.38-.46.7-.51.08,0,.16-.01.23-.02.41-.05.82-.01,1.22-.02.43.01.87-.03,1.3.03h.89c-.28.27-.48.47-.69.66-1.63,1.47-3.14,3.07-4.7,4.61-.13.13-.37.17-.38.41-.23-.06-.45.08-.67.07-.12-.09-.02-.3-.2-.36-.04-.01-.08.03-.08.07-.02.21.2.18.29.29.03.04-.02,0,.03.03.32.25.41.56.2.92-.11.2-.09.33.09.48.33.28.34.52.02.8-.15.14-.16.29-.2.46-.03.15-.07.32-.22.41-.27-.22-.5-.47-.72-.74-.22-.07-.34-.25-.48-.41-.31-.35-.59-.72-1-.95-.1.09-.03.19-.03.29,0,.07,0,.15-.03.22-.02.05-.04.1-.09.13Z"/>
      <path class="cls-1" d="M58.22,35.13c.03-.12.05-.23.08-.35.09-.34-.11-.39-.38-.39-.16,0-.28.11-.42.14-.16.04-.34.07-.34-.19,0-.23-.15-.33-.36-.37-.47-.1-.95-.17-1.35.18-.33.29-.67.03-1,.05-.06,0-.12-.07-.08-.15.04-.09.16-.19.03-.27-.09-.05-.15.12-.23.12-.52.02-.88.43-1.36.54-.27.06-.72-.27-.78-.56-.19-.95-.04-1.9.04-2.84.05-.66.11-1.32.12-2,.13.03.15.12.15.19.01.36.21.63.46.87.23.22.31.46.15.78-.16.33-.12.71-.17,1.06-.03.22.12.47.34.56.32.15.59.45,1,.4.22-.02.17.16.18.28.03.45.25.58.62.35.18-.11.27-.1.41.04.12.12.26.12.39-.01,0-.01-.36-.39-.36-.39.17-.15.37-.11.56-.08.18.19.36.41.57.02.08-.06.18-.09.28-.11.5.05.97-.25,1.47-.14,1.09-.56,2.32-.98,2.5-2.47.04-.33.3-.62.37-.96.19-.15.42-.18.64-.21.36.14.59-.17.89-.24.19.02.27-.08.24-.25-.03-.17-.15-.08-.24-.05-.3.08-.48-.03-.47-.35.01-.24-.09-.44-.17-.65.06-.1.16-.11.24-.07.41.18.64-.05.84-.36.2.32.11.74.34,1.06.02.02.03.04.02.06,0,.02-.01.03-.02.03v.4c.09.29-.03.6.07.89.09.43-.07.82-.19,1.22-.56,1.88-1.83,3.1-3.6,3.86-.11.05-.23.09-.35.04-.38.11-.73.3-1.14.32Z"/>
      <path class="cls-1" d="M122.69,35.43h-.04s-.04,0-.04,0c-.23-.39-.04-.79,0-1.17.04-.47.05-.93.06-1.4-.03-2.09.08-4.18-.06-6.27-.02-.04-.03-.08-.04-.12-.05-.22.21-.46-.03-.67-.06-.05-.12-.11-.15-.18-.02-.04-.03-.08-.04-.12-.02-.33-.27-.38-.52-.47-.5-.17-.98,0-1.46.08-.63.1-1.2-.03-1.75-.33-.11-.12-.1-.29-.15-.43-.02-.09-.02-.17,0-.26.08-.2,0-.43.12-.63.21-.13.34.02.44.15.16.21.37.3.62.33.31.04.62.07.9.21.14.07.29.05.44,0,.33-.1.67-.1,1.01-.1.5-.01.8.27.82.76,0,.1.02.19.08.26.17.21.22.46.23.72.02.28.14.48.42.58.35.12.54.38.61.74.03.16.06.33.28.33.22,0,.34-.12.42-.32.14-.37-.01-.75.05-1.12.02-.14-.06-.36.23-.3.2.32.07.67.11,1,0,.77,0,1.54,0,2.32,0,.49,0,.98,0,1.47,0,1.34,0,2.69,0,4.03-.05.3.13.63-.13.89h0c-.16.11-.32.15-.48.02-.43,0-.87-.02-1.3-.03-.22-.05-.44-.04-.66,0Z"/>
      <path class="cls-1" d="M47.95,35.43c-.81,0-1.63,0-2.44,0-.35-.06-.7-.01-1.06-.03-.34,0-.44-.27-.58-.49-1.09-1.71-2.19-3.41-3.31-5.11-.08-.14-.2-.27-.15-.45.18-.17.45-.13.55-.02.28.31.71.27,1.01.53.16.14.39.2.57.1.21-.11.11-.36.07-.51-.2-.73-.61-1.34-1.16-1.86-.16-.15-.31-.3-.37-.52-.15-.47.05-.71.56-.67.17.11.3.26.41.44.53.84,1.1,1.65,1.66,2.47.45.63.76,1.35,1.31,1.92.13-.14.03-.3.05-.44,0-.55-.05-1.1.04-1.64.22-.23.34,0,.35.13.06.57.39,1.1.21,1.7-.09.29.07.58.18.86.08.19.23.16.38.09.35-.17.66-.13.89.21.2.29.16,1.01-.1,1.22-.24.19-.46.43-.78.5-.33.07-.35.2-.09.4.05.04.08.11.17.15.1-.19.24-.34.42-.46.18-.12.36-.06.36.14,0,.53.3.48.65.42.08-.02.18-.09.25.03,0,.27,0,.53,0,.8,0,.05-.01.09-.04.12Z"/>
      <path class="cls-1" d="M69.28,35.43c-.82,0-1.64,0-2.46.02-.35.01-.41-.12-.32-.41-.04-.19-.04-.38,0-.57l.03-.65c.06-.35.01-.7.03-1.05,0-.04.02-.08.05-.11.58-.45.77-1.56.36-2.13-.16-.22-.16-.45-.1-.69.06-.21.04-.42.08-.63.06-.34-.07-.51-.38-.58,0-.35-.02-.7-.09-1.04-.02-.06-.02-.12,0-.19.02-.04.04-.07.08-.08.09-.03.26-.01.11-.18-.06-.07-.13-.14-.15-.23-.02-.38-.08-.76.05-1.14,0,0,.7-.6.71-.6.24-.36.64-.37,1-.45.19-.04.52.42.54.74.03.44.11.88.1,1.33-.01,1.47,0,2.94,0,4.4,0,.11.03.21.03.32,0,.27.07.48.41.44.04,0,.05.05.06.09-.05.5.07.98.08,1.48,0,.34-.04.66-.08.99-.08.3.18.65-.13.92Z"/>
      <path class="cls-1" d="M110.8,33.91l-1.3-1.95c-.28-.2-.4-.53-.61-.78-.07-.11-.14-.22-.21-.32-.83-1.28-1.65-2.56-2.53-3.84-.08.19-.03.36-.08.51-.06.17-.03.36-.05.53,0,.06-.03.12-.07.17-.2.06-.24-.11-.33-.22-.22-.29-.23-.6-.02-.9.08-.11.1-.19-.02-.31-.31-.33-.42-.97-.24-1.24.3-.45.97-.71,1.45-.57.25.08.47.54.42.89-.01.1-.1.19-.06.31.55-.1.97.16,1.34.49.24.21.42.49.66.71.16.16.28.36.35.58.17.54.5,1,.85,1.44.04.05.08.13.14.14.34.03.56.22.75.48.05.07.15.03.23.02.28.13.44.34.41.67-.12.09-.23-.02-.36-.02.07.15.22.21.34.27.22.13.33.27.17.52-.08.13-.03.26.02.38.09.23.19.44.26.68.04.15.07.38-.07.4-.39.06-.35.29-.36.58-.01.26-.73.47-1.09.35Z"/>
      <path class="cls-1" d="M35.83,35.46c-.1-.04-.08-.13-.08-.2,0-1.8,0-3.6.01-5.4.15-.63.23-1.27.21-1.92-.01-.31.03-.62.17-.91.15-.3.33-.36.62-.21.58.29.66.31.49,1.02-.17.68.03,1.23.32,1.8.13-.29.2-.59.27-.89.04-.16.05-.4.29-.35.22.04.33.26.3.47-.07.43.07.83.14,1.23.01.08.05.15.06.24.04.49,0,.98.02,1.46,0,.53.02,1.07-.08,1.6,0,.64,0,1.27,0,1.91,0,.14-.07.18-.2.14-.84,0-1.68,0-2.52,0Z"/>
      <path class="cls-1" d="M11.97,28.88c.2-.18.4-.34.66-.08.33.38.66.76,1.01,1.13.69.73,1.39,1.46,2.08,2.19.13.18.26.36.29.6.03.22.2.37.4.47.28.27.63.44.94.64.41.32.71.75,1.05,1.13.09.26-.15.32-.27.45-.26.03-.53-.03-.8.04-.22,0-.43,0-.65,0-.22-.05-.43-.05-.65,0-.61.06-1.11.02-1.56-.57-.78-1.02-1.72-1.93-2.59-2.89.02-.25.22-.46.12-.73-.04-.1.1-.13.18-.18.36-.2.36-.53-.01-.72-.23-.12-.28-.33-.15-.45.38-.38.11-.68-.05-1.01Z"/>
      <path class="cls-1" d="M55.04,25.55c-.05-.23.09-.37.27-.51-.64-.07-1.26-.03-1.86.19-.21.08-.38.1-.57-.01-.03-.02-.08-.05-.11-.04-.63.06-.71-.42-.92-.84-.15-.29.01-.66-.3-.87-.03-.02-.03-.08-.08-.07-.13-.06-.07-.16-.07-.25.29,0,.59,0,.88-.01.89-.07,1.78-.01,2.68-.03.41.02.83-.03,1.24.03.19,0,.38,0,.56,0,.14.02.28,0,.41.08.29-.15.56-.06.81.1.22.05.43.11.65.16.55-.02,1.04.14,1.47.48.78.41,1.54.85,2.12,1.53,0,.18.12.3.26.41.22.26.36.57.48.88.05.16.01.31,0,.47,0,.14-.07.26-.21.32-.28.13-1.04-.13-1.2-.4-.13-.23-.22-.49-.41-.69-.03-.03-.05-.06-.08-.1-.36-.24-.58-.56-.69-.98-.04-.15-.17-.3-.32-.35-.39-.14-.74-.33-1-.66-.02-.03-.07-.06-.11-.05-.54.11-1.09-.25-1.63.03-.28.14-.58.22-.9.25-.13.01-.29.01-.34.17-.05.18.09.26.21.35.15.12.49.17.23.49-.38.09-.76.03-1.14.04-.13,0-.25,0-.34-.12Z"/>
      <path class="cls-1" d="M105.68,27.99c.08.08.16.16.24.24.26.29-.03.6.04.89,0,.51,0,1.02,0,1.53,0,.48,0,.97,0,1.45,0,.4,0,.81,0,1.22.02.62-.04,1.25.03,1.87,0,.08,0,.15,0,.23-.1.11-.21.08-.32.03-.81,0-1.63,0-2.44,0-.1-.04-.08-.13-.08-.2,0-1.61,0-3.22.01-4.83.2-.69.24-1.4.28-2.11.01-.23.02-.46.09-.68.03-.09.04-.2.16-.2.11,0,.14.11.17.2.11.39.14.79.12,1.2-.01.27.03.51.32.63.13.05.18.19.23.32.05.11.09.24.25.22.14-.03.18-.15.2-.27.06-.34.21-.64.36-.94.1-.15.1-.31.08-.49-.01-.14-.07-.38.24-.3Z"/>
      <path class="cls-1" d="M105.68,27.99c-.23.04-.18.22-.14.34.07.19.04.34-.11.47-.15-.15-.11-.36-.12-.54,0-.23-.09-.4-.25-.57-.2-.21-.34-.35-.55-.02-.08.12-.22.18-.36.1-.16-.09-.21-.26-.18-.42.09-.38.26-.74.53-1.03.12-.13.22-.24.15-.42-.07-.2-.21-.31-.42-.31-.37,0-.56-.18-.64-.54-.09-.41-.4-.73-.53-1.13-.02-.09-.03-.19-.03-.28,0-.51.07-.6.6-.62.13,0,.27-.02.4,0,.28.02.55,0,.83,0,.47,0,.93,0,1.4,0,.12,0,.23,0,.34.03.14.05.3.05.44.11.09.05.15.13.17.24,0,.11-.03.24.14.27.05.03.08.07.1.12.06.18-.02.44.28.46.48.56.82,1.22,1.23,1.83.58.86,1.12,1.74,1.71,2.59.04.07.07.14.06.22l.08.16c.19.08.26.26.37.4.09.21.36.35.27.64-.16.36-.3.09-.38-.03-.13-.21-.21-.35-.54-.33-.22.01-.46-.36-.59-.63-.1-.21-.18-.41-.36-.57-.1-.09-.17-.22-.17-.36,0-.28-.15-.51-.33-.67-.27-.25-.48-.54-.73-.79-.1-.11-.17-.32-.42-.15-.12.08-.15-.11-.21-.18-.13-.13-.27-.24-.44-.05-.06.07-.13.16-.23.08-.1-.07-.11-.19-.06-.29.08-.14.19-.27.1-.44-.11-.2-.03-.54-.36-.57-.43-.04-.89-.04-1.19.34-.34.43-.23,1.04.23,1.4.09.07.14.12.02.21-.36.27-.32.61-.13.96Z"/>
      <path class="cls-1" d="M87.51,26.29c-.14-.08-.25-.33-.46-.1-.12.12-.17-.02-.21-.08-.15-.19-.24-.41-.3-.63-.62.14-1.16.62-1.85.39-.08-.17-.03-.45-.3-.47-.28-.01-.43.21-.51.44-.08.2-.18.37-.4.42-.28.07-.33.25-.19.45.23.33-.01.66.07,1,.04.15-.17.38-.38.31-.19-.06-.19-.27-.08-.45.09-.14.06-.28,0-.42-.18-.46-.21-1.01-.73-1.28.26-.76.59-1.5.81-2.28.07-.25.23-.48.55-.48.9-.05,1.8-.05,2.7,0,.33,0,.67.02,1,0,.25-.01.37.08.37.32-.17.4-.04.81-.07,1.22.06.42.01.84.03,1.27-.02.12.05.25-.05.36Z"/>
      <path class="cls-1" d="M111.38,34.73c-.19-.15-.29-.37-.41-.57-.02-.04-.02-.1.01-.1.69-.05.97-.59,1.3-1.07.09-.13.12-.26.04-.41-.04-.07-.06-.15-.09-.22-.1-.24-.32-.48-.12-.74.19-.25.42.05.64,0,.36,0,.43-.16.26-.46-.05-.09-.09-.19-.1-.3-.14-1.72-.13-3.43-.01-5.15,0-.4-.01-.8.03-1.2.04-.38-.12-.73-.18-1.1.2-.14.3.01.37.15.14.25.22.54.2.82-.04.54,0,1.08-.05,1.62-.13,1.24-.03,2.48-.07,3.72,0,.05,0,.11.04.15.1,0,.12-.09.17-.15.29-.37.75-.3.97.12.37.68.21,1.32-.1,1.96-.05.11-.14.2-.28.21-.16,0-.23-.12-.31-.23-.15-.23-.06-.53-.27-.79.19.47.17.79-.14,1.24-.43.63-.93,1.21-1.32,1.86-.08.14-.04.2.11.21.13,0,.27,0,.39-.07.61-.4,1.3-.51,2-.6.22-.03.27-.15.22-.3-.15-.46-.04-.87.16-1.29.05-.11.07-.25,0-.35-.25-.34-.23-.72-.24-1.11-.05-1.14-.04-2.28-.1-3.42-.02-.46.05-.91.15-1.37-.24-.01-.34.15-.5.22-.38.16-.58.06-.71-.32-.11-.33-.13-.65-.12-.99.01-.4.23-.62.57-.69.45-.09.91-.15,1.36-.24.06-.01.1.02.14.06.06.08.07.18.07.28,0,1.59,0,3.19,0,4.78,0,.36,0,.72,0,1.09-.02,1.26.03,2.51-.03,3.77-.2.24-.48.4-.56.75-.04.19-.34.17-.39-.04-.1-.43-.33-.38-.65-.29-.45.13-.93.17-1.29.53-.12.13-.28.04-.43.03-.26-.02-.51.08-.77.03Z"/>
      <path class="cls-1" d="M21.9,24.58c.3.12.61.19.88.37.46.32.48.68.02.97-.29.18-.08.45-.21.65.16.03.23-.06.25-.13.09-.44.41-.5.78-.61.64-.18,1.27-.43,1.86-.73.41-.22.84-.26,1.28-.34.11-.02.21-.03.32-.06.53-.15.53-.15.71.4.07.2.27.29.43.4.35.26.42.55.21.88-.11.07-.21.02-.3-.04-.37-.25-.79-.36-1.22-.48-.1-.06-.18-.13-.3-.16-.26-.09-.51-.03-.75.07-.07.03-.14.06-.21.08-.07.02-.15.02-.22,0-.16-.06-.31-.12-.41.09-.1.14-.26.19-.4.25-.51.24-.89.63-1.2,1.09-.24.3-.34.67-.49,1.02-.15.14-.19.31-.12.5.02.26.06.51-.04.76-.42.23-.64.13-.64-.31,0-.5-.1-1.02.18-1.5.14-.24-.1-.52-.07-.82-.14.4-.38.45-.73.32-.46-.17-.64.21-.86.49-.13.16-.16.42-.45.4h0c-.05-.05-.07-.13-.04-.19.33-.63.43-1.34.6-2.01.15-.44.47-.76.82-1.05.18.02.21-.12.24-.24.03-.03.05-.05.08-.08Z"/>
      <path class="cls-1" d="M111.38,34.73c.25-.16.57-.2.8-.14.26.08.38.01.5-.15.21-.28.56-.24.84-.34.23-.09.49-.1.73-.19.28-.1.26.16.31.3.04.12-.02.31.17.31.19,0,.14-.19.17-.31.05-.26.18-.42.47-.38.21.51.19,1.02.01,1.54-.48.17-.98.06-1.47.07-.34-.06-.67-.01-1.01-.03-.4-.02-.8.04-1.2-.03-.14-.2-.26-.4-.32-.64Z"/>
      <path class="cls-1" d="M6.78,25.4c.25.04.28.18.23.41-.12.49-.17.98.11,1.44.06.1.06.2.06.31,0,.69,0,1.38,0,2.06,0,.33-.1.61-.39.79,0-1.67,0-3.35,0-5.02Z"/>
      <path class="cls-1" d="M112.77,31.72c-.09,0-.19,0-.28-.03-.1-.03-.19-.19-.31-.05-.1.11-.07.25-.03.38,0,.01.01.02.02.04.08.27.42.52.28.79-.24.48-.55.93-1.04,1.24-.16.1-.32-.1-.44.07-.06-.08-.11-.17-.17-.25.33.04.6-.13.89-.24.19-.08.23-.22.08-.38-.07-.08-.18-.15-.08-.27.08-.1.19-.09.3-.05.28.09.32-.09.27-.28-.07-.25-.17-.48-.27-.72-.09-.21-.19-.39.02-.58.13-.12.01-.18-.08-.23-.17-.1-.35-.21-.51-.33-.08-.05-.15-.14-.08-.24.07-.09.15,0,.22.02.11.05.22.1.33.15.33.05.35.38.53.57.05.11.16.11.26.13.1.07.19.14.09.27Z"/>
      <path class="cls-1" d="M69.38,34.56c0-.87,0-1.73-.01-2.6-.03-.03-.05-.06-.07-.1-.04-.14-.02-.29-.04-.43-.07-.92-.05-1.85.08-2.76.03-.03.06-.04.1-.02,0,.97.02,1.94.03,2.91,0,.43,0,.86,0,1.3.17.3.09.63.1.95,0,.18-.03.34-.1.51,0,.08-.02.16-.03.24-.01.04-.03.04-.06,0Z"/>
      <path class="cls-1" d="M20.76,25.96c.05.67-.16,1.27-.44,1.87-.05.11-.09.22-.13.33-.13.11-.18.32-.39.32-.07-.15.08-.26.08-.4.24-.49.52-.96.49-1.54.14-.18.18-.44.38-.58Z"/>
      <path class="cls-1" d="M17.36,33.82c-.41-.05-.7-.3-.99-.56-.15-.2-.4-.37-.16-.66.4.39.85.73,1.15,1.22Z"/>
      <path class="cls-1" d="M122.54,35.44c-.02-.1-.11-.07-.17-.09-.15-.22-.14-.5-.07-.7.21-.58.26-1.17.35-1.77.03-.04.07-.05.12-.03.04.87-.11,1.72-.16,2.58h-.04s-.04.01-.04.01Z"/>
      <path class="cls-1" d="M20.38,26.54c.11.36.15.71-.16,1-.16.15,0,.5-.34.53.08-.54.19-1.07.49-1.54Z"/>
      <path class="cls-1" d="M87.54,32.85c0-1.35,0-2.7,0-4.05.02,0,.04,0,.05,0,0,1.27.02,2.54.03,3.8,0,.08-.01.16-.02.24-.02.04-.03.04-.06,0Z"/>
      <path class="cls-1" d="M6.78,24.19c.22.23.27.54.36.82.07.21-.15.31-.36.31,0-.38,0-.75,0-1.13Z"/>
      <path class="cls-1" d="M16.21,32.6c-.06.25.09.44.16.66-.31-.13-.5-.36-.49-.7,0-.18-.18-.27-.16-.44.19.14.35.3.49.48Z"/>
      <path class="cls-1" d="M54.96,23.12c-.9,0-1.79,0-2.69,0,.34-.14.69-.06,1.03-.07.55-.01,1.11,0,1.66,0,0,.02,0,.04,0,.05Z"/>
      <path class="cls-1" d="M86.23,23.13c-.9,0-1.8,0-2.7,0,.52-.15,1.06-.06,1.59-.06.37,0,.75-.09,1.11.06Z"/>
      <path class="cls-1" d="M90.72,25.73c0-.84-.02-1.67-.03-2.51.03-.03.07-.07.1-.1.01.02.03.03.04.05.05.11.03.21-.04.3,0,.75-.01,1.51-.02,2.26-.02,0-.04,0-.06,0Z"/>
      <path class="cls-1" d="M18.16,35.37c-.08-.23.26-.23.25-.42.15.12.3.24.45.37,0,0,0,.03,0,.03,0,0-.02.01-.04.02-.13.08-.29,0-.42.06-.08,0-.16,0-.24,0-.03-.01-.04-.03-.03-.04,0-.02.02-.02.03-.02Z"/>
      <path class="cls-1" d="M84.74,30.74c0,.71,0,1.41,0,2.12-.02,0-.04,0-.05,0,0-.7,0-1.4,0-2.1.02,0,.04,0,.06-.01Z"/>
      <path class="cls-1" d="M38.52,35.37c0-.65,0-1.3,0-1.95.02,0,.04,0,.06,0,0,.65,0,1.3,0,1.94l-.03.03-.04-.02Z"/>
      <path class="cls-1" d="M106,35.2c-.16-.62-.04-1.24-.06-1.86.02-.04.04-.04.06,0,0,.62,0,1.24,0,1.87Z"/>
      <path class="cls-1" d="M9.6,33.9c-.11-.59-.11-1.19,0-1.78v1.78Z"/>
      <path class="cls-1" d="M66.51,24.11c0-.08.02-.16.03-.24.14.02.17.13.17.23.02.5.08,1-.04,1.5-.03.05-.07.07-.13.05,0-.08-.02-.16-.03-.25-.06-.11-.06-.21,0-.32,0-.03,0-.06,0-.08-.04-.08-.06-.16,0-.24,0-.22,0-.43,0-.65Z"/>
      <path class="cls-1" d="M66.53,25.65s.04,0,.06,0c.02.02.03.03.03.05,0,.02-.01.03-.02.03,0,.43,0,.86,0,1.3.08.11.1.22,0,.32-.02,0-.04,0-.07,0l-.03-1.54c0-.05.02-.11.03-.16Z"/>
      <path class="cls-1" d="M38.58,33.42s-.04,0-.06,0c0-.54,0-1.08,0-1.62.02-.04.04-.04.06,0,0,.46.02.92.03,1.38,0,.08-.02.16-.03.24Z"/>
      <path class="cls-1" d="M66.51,27.99c0-.16.02-.32.03-.49.15.37.03.76.07,1.13.08.09.09.19.04.3-.03.04-.06.05-.11.03-.06-.13.06-.3-.08-.41.1-.18.08-.37.06-.56Z"/>
      <path class="cls-1" d="M105.93,30.66c0-.51,0-1.02,0-1.53.02-.04.04-.04.06,0,0,.51,0,1.03,0,1.54-.02.04-.04.03-.06,0Z"/>
      <path class="cls-1" d="M105.93,30.66s.04,0,.06,0c0,.48,0,.97,0,1.45-.02.04-.04.04-.06,0,0-.49,0-.98,0-1.47Z"/>
      <path class="cls-1" d="M47.96,35.37c0-.3,0-.6-.01-.9-.1-.1-.09-.23-.09-.36,0-.06.02-.13.06-.18.03-.04.07-.05.11-.02,0,.24.02.48.03.73,0,.24-.01.48-.02.72-.02.04-.04.05-.07.01Z"/>
      <path class="cls-1" d="M105.94,32.13s.04,0,.06,0c0,.4,0,.81,0,1.21-.02,0-.04,0-.06,0,0-.4,0-.81,0-1.21Z"/>
      <path class="cls-1" d="M111.7,35.37c.41,0,.82,0,1.23,0,.03.01.04.03.03.04,0,.02-.02.02-.02.02-.41-.01-.83.09-1.23-.06Z"/>
      <path class="cls-1" d="M54.96,23.12s0-.04,0-.05c.24,0,.49-.02.73-.03.16.05.35-.05.49.09-.41,0-.82,0-1.23,0Z"/>
      <path class="cls-1" d="M84.67,34.47c0-.05.02-.11.03-.16.01-.04.03-.04.06,0,0,.37.01.75.02,1.12-.21-.21-.02-.48-.1-.72-.04-.08-.06-.16,0-.24Z"/>
      <path class="cls-1" d="M44.39,35.44s-.01-.05-.02-.07c.38.01.77-.07,1.15.06-.38,0-.75,0-1.13.01Z"/>
      <path class="cls-1" d="M66.6,32.69c-.03.38.07.76-.07,1.13,0-.38,0-.76,0-1.13.02-.02.05-.02.07,0Z"/>
      <path class="cls-1" d="M69.38,34.56s.04,0,.06,0l.03.49c.04.11.05.21,0,.32-.04.08-.11.07-.18.07.13-.28.07-.58.1-.87Z"/>
      <path class="cls-1" d="M9.37,35.43c.16-.1.17-.25.17-.42,0-.15-.05-.32.06-.46,0,.23,0,.46.02.68,0,.19-.09.23-.25.19Z"/>
      <path class="cls-1" d="M105.99,29.13s-.04,0-.06,0c0-.3,0-.6,0-.89,0-.05,0-.11,0-.16.02-.03.04-.03.06,0,0,.24.02.48.03.73,0,.11-.02.21-.03.32Z"/>
      <path class="cls-1" d="M84.69,33.83c0-.14-.02-.27-.02-.41,0-.19.02-.38.02-.57.02,0,.04,0,.05,0,0,.32,0,.64,0,.97-.02,0-.04,0-.05,0Z"/>
      <path class="cls-1" d="M112.93,35.43s0-.04,0-.06c.33.02.66-.07.98.06-.32,0-.65,0-.97,0Z"/>
      <path class="cls-1" d="M84.74,30.74s-.04,0-.06.01c0-.33,0-.65,0-.98.02,0,.04,0,.06,0,0,.32,0,.64,0,.96Z"/>
      <path class="cls-1" d="M21.82,24.67c.04.1.12.19,0,.28-.09.06-.18.06-.24-.04.06-.1.14-.18.24-.24Z"/>
      <path class="cls-1" d="M18.16,35.37s0,.04,0,.06c-.27,0-.55,0-.82,0,.26-.13.54-.05.81-.06Z"/>
      <path class="cls-1" d="M84.84,35.43c.25-.11.49-.1.73,0-.25.02-.49.05-.73,0Z"/>
      <path class="cls-1" d="M9.53,30.33c.15.11.03.28.09.41,0,.08-.02.16-.03.24-.12-.15-.04-.32-.07-.49,0-.06,0-.11,0-.17Z"/>
      <path class="cls-1" d="M72.86,34.79c0,.11.01.22.02.33.05.09.04.15-.08.16l-.02.02h-.02c-.03-.18-.06-.34.04-.49.02,0,.04,0,.06-.01Z"/>
      <path class="cls-1" d="M16.04,35.43c.22-.11.43-.11.65,0h-.65Z"/>
      <path class="cls-1" d="M73.28,35.46s-.05-.02-.08-.03c0-.06,0-.1.08-.07.19.03.39-.06.57.07-.19,0-.38.02-.57.03Z"/>
      <path class="cls-1" d="M99.09,35.43c.2-.13.42-.05.63-.06h.03c0,.13-.08.13-.18.09-.16,0-.33-.02-.49-.03Z"/>
      <path class="cls-1" d="M122.69,35.43c.22-.11.44-.09.66,0-.22,0-.44,0-.66,0Z"/>
      <path class="cls-1" d="M66.51,32.29s.02-.05.03-.08c.3.12.19.3.07.48,0,0,0,0,0,0-.02,0-.04,0-.07,0,0-.13-.02-.27-.03-.4Z"/>
      <path class="cls-1" d="M57.65,35.21c-.06.02-.11.04-.17.05.09-.25.24-.23.41-.08-.08,0-.16.02-.24.03Z"/>
      <path class="cls-1" d="M84.74,29.78s-.04,0-.06,0c0-.11-.02-.21-.03-.32,0-.06.02-.11.03-.17.02,0,.04,0,.06,0v.48Z"/>
      <path class="cls-1" d="M18.4,35.43c.12-.12.28-.05.42-.06-.12.15-.28.05-.42.06Z"/>
      <path class="cls-1" d="M132.39,37.39c.11-.06.18-.14.24-.25.17-.19.33-.37.5-.56.24-.45.49-.89.86-1.25.62-.17,1.05-.99.84-1.62.08-.4.15-.81.47-1.12.11-.01.14.06.16.14.02.09,0,.19,0,.28,0,.26.03.51.06.76.04.39.41.19.62.29.97.45,1.9.95,2.59,1.8.18.22.43.31.72.32.14.02.24.11.34.2.49.5,1.01.97,1.48,1.49.09.12.26.21.19.4-.4.48-.67,1.04-1.02,1.55-.09.13-.16.28-.32.35-.28-.02-.53-.1-.71-.33-.2-.24-.34-.15-.45.09-.29.68-.85.94-1.56.73-.18-.06-.33-.1-.37.18-.05.36-.36.51-.65.66-.94-.83-1.77-1.77-2.68-2.63-.39-.37-.74-.79-1.18-1.1-.15-.11-.13-.25-.12-.4Z"/>
      <path class="cls-1" d="M136.38,41.52c.09-.16.21-.29.36-.37.16-.1.24-.21.2-.39-.07-.32.11-.35.3-.22.48.33.9-.03,1.34-.1.17-.03.22-.23.23-.39.01-.22.09-.39.32-.45.23-.06.26.14.38.26.14.15.39.2.59.29,0,.35-.21.56-.47.73-.41.5-.84.99-1.24,1.5-.44.57-.75.58-1.19.03-.15-.2-.34-.37-.51-.55.05-.16,0-.21-.16-.15-.05-.06-.11-.11-.16-.17Z"/>
      <path class="cls-1" d="M162.91,9.94c-.06.1-.05.26-.23.24-.36.15-.73.15-1.1.07-.16-.09-.3-.19-.21-.41.12-.05.24-.02.37-.03.31.03.63-.14.94.03.08.04.14.12.23.1Z"/>
      <path class="cls-1" d="M136.54,41.69c.01-.1.05-.19.17-.15.05.02.11.08.13.13.04.12-.04.16-.15.17-.05-.05-.1-.1-.16-.15Z"/>
      <path class="cls-1" d="M138.66,16.5c.56.73,1.13,1.46,1.69,2.19.23.18.34.45.5.68.11.22.24.43.32.67.03.15.09.29.13.43,0,.08-.04.15-.08.21-.77.94-1.7,1.73-2.5,2.64-.41.46-.93.81-1.31,1.31-.53.69-.96,1.43-1.2,2.27-.06.2-.09.43-.33.52-.11.03-.21.02-.31-.03-.07-.05-.11-.13-.15-.21-.15-1.12-.53-2.16-1.05-3.16-.51-.95-1.07-1.86-1.86-2.62-.12-.12-.26-.25-.13-.45.01-.02.02-.04.02-.07.29-.45.63-.85,1.13-1.09.43-.37.85-.76,1.23-1.19.05-.27.3-.36.46-.53.61-.65,1.17-1.36,1.9-1.89.18-.08.24-.33.47-.34.11,0,.23-.06.34,0,.29.17.5.42.73.65Z"/>
      <path class="cls-1" d="M137.93,15.85c-.11,0-.23.08-.34,0,.12-.1.23-.11.34,0Z"/>
      <path class="cls-1" d="M72.88,33.18c.42-.28.25-.73.3-1.1.05-.37.03-.75,0-1.13-.03-.73.14-1.45.09-2.17-.01-.17.05-.34.16-.49.18.12.17.29.15.44-.05.46.11.87.31,1.28.08.16.16.23.29.1.35-.37.62-.04.9.1.27.14.29.42.27.67-.03.52-.05,1.02.02,1.54.04.32.03.64-.05.96-.06.24-.18.3-.4.29-.44-.02-.63.12-.79.53-.07.18-.14.35-.22.52-.08.18-.24.27-.42.27-.21,0-.24-.21-.26-.35-.04-.26-.1-.47-.44-.4.06-.16-.08-.34.05-.49-.02-.19-.07-.38.03-.57Z"/>
      <path class="cls-1" d="M66.61,25.73s0-.06,0-.08c-.02-.59.08-1.19-.06-1.78.05-.24-.16-.48,0-.73.05-.06.11-.09.19-.1.19-.02.39-.03.57.05.42.02.83,0,1.25,0,.3.06.64-.14.91.13.04.19-.17.37,0,.55-.07.97-.01,1.95-.03,2.92-.02.65.04,1.29-.03,1.94-.02.79-.03,1.58-.07,2.37,0,.14.08.25.06.39-.03.16-.12.32,0,.48,0,.03,0,.06,0,.08-.47.18-.44.18-.5-.3-.19-1.48,0-2.96-.05-4.43-.02-.59-.08-1.18-.09-1.77,0-.28-.28-.42-.37-.66,0-.02-.04-.03-.07-.03-.23-.04-.96.39-1.02.61q-.17.57-.66.35Z"/>
      <path class="cls-1" d="M61.15,26.37c.31.18.36.52.51.79.1.18.2.32.44.23.05-.02.11-.03.15-.01q.52.12.63-.39c.02-.08.04-.15.06-.23.11.15.17.31.16.49-.04.42-.38.63-.76.48-.1-.04-.2-.05-.3-.07-.05.05-.1.07-.17.08-.24,0-.3-.2-.41-.35-.11-.24-.16-.51-.33-.72-.07-.09-.08-.2.01-.29Z"/>
      <path class="cls-1" d="M76.46,23.13c-1.01,0-2.02,0-3.02,0,.17-.14.36-.06.54-.06.7-.01,1.4,0,2.1,0,.13,0,.27-.05.38.07Z"/>
      <path class="cls-1" d="M69.38,26.69c0-.87,0-1.74,0-2.61,0-.1-.02-.22.07-.3,0,.97,0,1.95,0,2.92-.02.03-.04.03-.06,0Z"/>
      <path class="cls-1" d="M69.38,26.69s.04,0,.06,0c0,.65,0,1.29,0,1.94-.02,0-.04,0-.06,0,0-.65,0-1.3,0-1.95Z"/>
      <path class="cls-1" d="M68.56,23.12c-.44,0-.87,0-1.31,0-.02-.02-.03-.03-.02-.04,0,0,.02-.01.03-.01,0,0,0-.02,0-.02.43,0,.87,0,1.3.01.03,0,.04.02.03.04,0,.02-.01.02-.02.02Z"/>
      <path class="cls-1" d="M63.52,29.61c-.02.06,0,.14-.09.17,0-.33,0-.66,0-.99.16.26.03.55.09.82Z"/>
      <path class="cls-1" d="M62.47,25.88c-.24-.04-.4-.13-.26-.41.05.06.1.12.16.18.04.01.06.04.07.08l.03.15Z"/>
      <path class="cls-1" d="M103.15,28.72c0-1.4,0-2.81.01-4.21,0-.16,0-.32.01-.48.24.32.47.66.54,1.05.06.31.2.45.48.4.38-.06.5.17.61.45.11.27-.12.35-.26.51-.23.27-.4.6-.48.95-.03.13.02.29.16.34.16.05.24-.09.3-.2.19-.32.22-.28.51-.04.44.37.4.84.4,1.32-.1.37-.35.69-.34,1.1,0,.19-.2.24-.36.26-.18.03-.23-.12-.26-.25-.04-.22-.09-.4-.38-.44-.22-.03-.21-.25-.21-.42,0-.53.03-1.06-.19-1.61-.09.33-.12.62-.14.92-.05.6,0,1.21-.24,1.78-.04.1-.1.19-.15.28,0-.57-.02-1.13-.03-1.7Z"/>
      <path class="cls-1" d="M99.1,30.18c-.02.21-.14.27-.33.23-.2-.07-.41-.01-.62-.03-.39-.09-.76-.23-1.18-.2-.3.03-.38-.13-.23-.39.07-.13.08-.25.07-.38-.01-.11-.04-.23,0-.32.21-.41.04-.66-.32-.85h0c0-.2.18-.17.29-.19.24-.05.47-.11.69-.2.19-.04.39-.06.58,0,.19.13.02.2-.06.27-.17.14-.09.22.07.28.38.15.74.33,1.07.56,0,.2,0,.4,0,.59-.01.21.03.42-.03.63Z"/>
      <path class="cls-1" d="M99.08,28.88c-.17.06-.32.08-.46-.09-.15-.19-.4-.2-.6-.3-.11-.06-.29-.05-.3-.21-.02-.17.15-.19.26-.26.04-.03.09-.06.13-.09.03-.04.06-.06.11-.07.24.01.48.06.71,0,.05.03.1.05.15.08.11.17.05.36.05.55-.02.14.05.28-.05.41Z"/>
      <path class="cls-1" d="M93.79,27.82s.06,0,.09,0c.17-.05.34-.01.51-.03.37.05.74-.08,1.1-.01.22.04.44-.02.66.04.16,0,.33.02.49.03.02.05,0,.09-.04.12-.06.04-.13.05-.2.06-.79,0-1.59.05-2.38,0-.1-.01-.19-.04-.24-.13,0-.02,0-.05,0-.07Z"/>
      <path class="cls-1" d="M95.02,30.41s0-.05,0-.07c.6-.22,1.21-.14,1.82-.06.05.03.07.07.05.13-.62,0-1.25,0-1.87,0Z"/>
      <path class="cls-1" d="M96.89,30.41s0-.04.01-.06c.4-.26.81-.08,1.21-.01.22.04.45-.06.66.08-.63,0-1.25,0-1.88,0Z"/>
      <path class="cls-1" d="M93.96,32.85c.35,0,.7,0,1.06,0,0,.02.02.04.02.06-.03.04-.06.06-.1.08-.32.09-.66,0-.99.08-.1,0-.19,0-.26-.08-.01-.23.11-.23.27-.15Z"/>
      <path class="cls-1" d="M96.65,27.91s0-.04,0-.06c.03,0,.06-.02.08-.03.49,0,.98.02,1.46.03,0,.02,0,.04,0,.06-.03,0-.06.02-.09.03-.22,0-.44,0-.65,0-.27.06-.54.18-.81,0Z"/>
      <path class="cls-1" d="M93.48,27.03l-.03-1.38s.05-.04.08-.03c0,.01.02.03.02.04-.03.46.06.92-.08,1.37Z"/>
      <path class="cls-1" d="M93.48,31.81c-.05-.42.05-.84-.06-1.26-.02-.06.07-.1.14-.11.02.02.03.03.03.05,0,.02-.01.03-.02.03-.07.43.09.87-.08,1.3Z"/>
      <path class="cls-1" d="M99.08,28.88c0-.14.02-.27.02-.41.02,0,.04,0,.05,0,0,.35,0,.7,0,1.05-.02,0-.04,0-.06,0,0-.22-.01-.43-.02-.65Z"/>
      <path class="cls-1" d="M98.2,27.9s0-.04,0-.06c.06,0,.11-.02.17-.03.19,0,.38.02.58.03-.23.14-.49.05-.73.06Z"/>
      <path class="cls-1" d="M93.55,25.57c.22,0,.44,0,.65.01,0,.02,0,.04,0,.05-.03,0-.05.02-.08.02-.16.05-.32.04-.48,0h-.04s-.04,0-.04,0c-.01-.01-.02-.02-.03-.03v-.04s.02-.02.02-.02Z"/>
      <path class="cls-1" d="M94.2,25.63s0-.04,0-.05c.11,0,.22-.02.32-.03.07-.05.15-.06.22-.02.02.02.03.04.03.06,0,.02,0,.04-.01.04-.08,0-.16.02-.24.02-.11,0-.22-.02-.33-.02Z"/>
      <path class="cls-1" d="M99.16,28.48s-.04,0-.05,0c0-.18-.02-.37-.02-.55.16.02.06.16.1.23.04.06.04.11,0,.16,0,.05-.01.11-.02.16Z"/>
      <path class="cls-1" d="M94.77,25.58c-.08,0-.16-.02-.25-.03.2-.55.2-.55-.43-.55-.33,0-.6.04-.89.26-.41.32-1.39.13-1.69-.29-.16-.22-.15-.56-.25-.82-.1-.26-.03-.65-.48-.68,0-.1,0-.21,0-.31.22,0,.43-.02.65-.03.08,0,.16,0,.24,0,.26-.06.51-.01.77-.03,1.91,0,3.81,0,5.72,0,.15,0,.3-.03.44.03.27,0,.53.01.8.02.11.72.02,1.45.05,2.17-.07.3-.35.15-.53.24-.05,0-.11.02-.16.03-.57.06-1.14,0-1.71.03-.76-.02-1.52.03-2.28-.03Z"/>
      <path class="cls-1" d="M98.11,30.33c-.4,0-.81,0-1.21.01-.63,0-1.25,0-1.88,0,.03-.19-.04-.33-.25-.32-.25.02-.43-.09-.62-.22-.25-.17-.53-.18-.77.08-.21.24-.49.32-.8.3-.54-.03-.92.22-1.2.66-.13-.13-.13-.3-.1-.45.07-.46-.02-.9-.07-1.35-.03-.35.1-.7.26-.99.14-.24.45-.2.64-.04.25.19.44.39.76.1.13-.11.28,0,.39.12.2.21.47.28.74.24.68-.1,1.37-.08,2.05-.05.17,0,.31-.07.43-.19.14.05.27.11.41.15.21.06.28.15.12.34-.17.21-.16.46-.12.69.04.2.1.37-.14.47-.05.02-.09.07-.05.13.09.12.22.1.33.08.39-.08.73.06,1.06.24Z"/>
      <path class="cls-1" d="M93.46,27.43c0,.23-.02.48.34.42l.16.07c.84.23,1.68.17,2.53,0,.05,0,.11,0,.16,0,.27,0,.54,0,.81,0-.27.27-.67.14-.98.32-.68.06-1.36.05-2.04.02-.35-.02-.66-.09-.93-.28-.19-.13-.23-.35-.05-.55Z"/>
      <path class="cls-1" d="M97.63,32.92c.22,0,.43,0,.65,0,.22,0,.43.02.65.03-.13.11-.28.06-.43.06-1.16,0-2.32,0-3.48,0,0-.01-.02-.02-.03-.04.01-.01.02-.02.03-.03v-.03c.29,0,.59,0,.89,0,.57,0,1.14,0,1.71,0Z"/>
      <path class="cls-1" d="M90.79,35.43h-.04s-.04,0-.04,0c0-1.13,0-2.27,0-3.4.03-.03.05-.02.06.01l.02,3.38Z"/>
      <path class="cls-1" d="M90.72,31.39c0-1.05,0-2.1,0-3.16.02-.04.04-.04.06,0,0,1.05,0,2.11,0,3.16-.02.03-.04.03-.06,0Z"/>
      <path class="cls-1" d="M93.55,33.01c.05,0,.11,0,.16,0,.08,0,.16,0,.24,0,.35-.06.71-.06,1.06,0,0,0,0,0,0,0-.29.24-1.12.23-1.46,0Z"/>
      <path class="cls-1" d="M90.78,28.24s-.04,0-.06,0c0-.51,0-1.02,0-1.53.01-.04.03-.04.06-.01,0,.51,0,1.03,0,1.54Z"/>
      <path class="cls-1" d="M93.12,25.99c-.04.09-.06.2-.18.2-.11,0-.12-.09-.12-.17,0-.08-.01-.18.1-.18.09,0,.18.05.2.15Z"/>
      <path class="cls-1" d="M90.78,26.69s-.04,0-.06.01c0-.32,0-.65,0-.97.02,0,.04,0,.06,0,0,.32,0,.65,0,.97Z"/>
      <path class="cls-1" d="M90.72,31.39s.04,0,.06,0c0,.22,0,.44,0,.65-.02,0-.04,0-.06-.01,0-.21,0-.43,0-.64Z"/>
      <path class="cls-1" d="M93.46,32.52c0,.08.01.16.02.24,0,.05,0,.11,0,.16-.14-.13-.12-.27-.02-.41Z"/>
      <path class="cls-1" d="M93.55,25.57s-.01.04-.02.06c-.02,0-.05.01-.07.02-.04,0-.07.02-.11.03,0-.02,0-.06,0-.07.06-.04.12-.13.2-.03Z"/>
      <path class="cls-1" d="M22.71,29.61c0,.11.01.21.02.32,0,.09.01.19-.01.28-.05.21-.17.36-.4.21-.29-.2-.63-.19-.93-.17-.28.01-.52-.04-.77-.15-.5-.22-.46-.22-.51-.77-.04-.41,0-.79.1-1.17.16-.07.25-.21.3-.36.1-.33.4-.47.63-.66.16-.13.3-.02.45.05.24.11.45.16.5-.2.01-.1.08-.17.16-.23.06-.04.12-.07.19-.02.05.04.03.1,0,.14-.13.18-.05.36,0,.54.07.2.09.39-.09.56-.1.1-.11.24-.11.38,0,.27,0,.54,0,.81q0,.45.48.45Z"/>
      <path class="cls-1" d="M25.81,32.84c.27-.14.55-.04.83-.05.02.02.02.03.01.04,0,0-.02.01-.03.01-.03,0-.05,0-.08.02-.19.04-.38.06-.57,0-.06,0-.11-.02-.17-.02Z"/>
      <path class="cls-1" d="M25.98,32.86c.19,0,.38,0,.57,0-.19.08-.38.19-.57,0Z"/>
      <path class="cls-1" d="M26.62,32.84s0-.04.01-.06c.13,0,.27,0,.4,0-.13.1-.27.07-.42.06Z"/>
      <path class="cls-1" d="M75.71,29.45c0,1.24,0,2.49,0,3.73-.02.04-.04.03-.06,0,0-1.24,0-2.48,0-3.72.02-.04.04-.04.06,0Z"/>
      <path class="cls-1" d="M73.28,35.36s-.05.05-.08.07c-.15.01-.33.08-.39-.15.07-.03.06-.1.08-.16.29-.17.3.1.4.24Z"/>
      <path class="cls-1" d="M75.65,33.17s.04,0,.06,0c0,.43,0,.86,0,1.29-.01.04-.03.04-.06.01,0-.44,0-.87,0-1.31Z"/>
      <path class="cls-1" d="M75.71,27.59c.01.3.02.59.03.89,0,.08-.02.16-.03.24-.02.04-.04.04-.06,0,.03-.38-.08-.76.06-1.13Z"/>
      <path class="cls-1" d="M75.65,34.48s.04,0,.06-.01c0,.3.09.61-.06.9,0-.3,0-.59,0-.89Z"/>
      <path class="cls-1" d="M75.64,28.72s.04,0,.06,0c0,.24,0,.48,0,.73-.02,0-.04,0-.06,0,0-.24,0-.49,0-.73Z"/>
      <path class="cls-1" d="M79.71,30.33c.12.11.16.27.23.41-.22-.06-.22-.24-.23-.41Z"/>
      <path class="cls-1" d="M79.15,28.72c.11.06.07.16.06.25-.08,0-.17-.02-.18-.11-.01-.07.06-.11.12-.13Z"/>
      <path class="cls-1" d="M38.51,30.26c-.11-.45-.32-.88-.17-1.36.04-.13-.04-.24-.11-.33-.04-.05-.11-.11-.16-.11-.1,0-.11.1-.12.18-.03.47-.25.89-.4,1.34-.12-.53-.46-.97-.52-1.52-.02-.15.01-.26.07-.38.06-.12.15-.23.06-.37-.09-.13-.08-.23.06-.34.13-.1.08-.33-.05-.3-.26.07-.36-.1-.52-.21-.19-.13-.31-.02-.39.14-.12.24-.18.5-.18.78,0,.48.03.97-.08,1.45-.05.22-.08.45-.23.63,0-2.24,0-4.47-.01-6.71.21-.13.43-.03.65-.02.03,0,.06,0,.08,0,.06-.05.13-.08.21-.09.74-.02,1.48,0,2.21,0,.56-.08.92.16,1.15.66.17.35.45.63.57,1.01,0,.02,0,.05.02.07.23.12.33.34.39.58.06.11.12.21.18.32.26.21.46.45.46.81-.22,0-.48-.03-.53.24-.05.25.03.54.25.69.65.45.94,1.16,1.32,1.8.13.22,0,.53.1.79.02.06-.06.12-.13.12-.21,0-.44.05-.64-.06-.25-.14-.44-.42-.79-.31-.02,0-.06-.05-.08-.08-.14-.36-.44-.26-.71-.26-.25.01-.3-.2-.39-.35-.41-.66-.85-1.3-1.24-1.96-.04-.06-.06-.16-.17-.12-.07.1-.04.22-.04.33,0,.12.03.23.03.35-.03.17-.02.34-.02.52,0,.31,0,.62,0,.93-.15.39,0,.8-.12,1.19Z"/>
      <path class="cls-1" d="M47.95,34.06c0,.14,0,.27,0,.41-.23.2-.49.21-.76.1-.17-.07-.33-.17-.19-.39.04-.08.06-.15-.02-.22-.11-.08-.18,0-.23.07-.11.16-.38.21-.31.51.03.11-.19.08-.23-.02-.07-.18-.2-.25-.34-.35-.26-.19-.04-.35.14-.39.28-.05.46-.25.69-.35.42-.19.4-.54.42-.86.03-.54-.41-.83-.88-.56-.34.19-.47.08-.55-.23-.09-.35-.32-.7-.07-1.08.02-.03.02-.08.01-.12-.12-.42-.21-.85-.27-1.29-.01-.1-.08-.2-.19-.25-.27-.41-.09-.87-.13-1.3-.02-1.39,0-2.78,0-4.16,0-.19,0-.38.19-.5.05-.02.1-.04.15-.04.15,0,.31-.01.46-.01.43,0,.85,0,1.28,0,.3.01.62-.09.89.13,0,.16,0,.31,0,.47-.06.18-.03.37-.03.56,0,1.89,0,3.77,0,5.66,0,1.21,0,2.43,0,3.64.05.2-.2.38-.05.59Z"/>
      <path class="cls-1" d="M47.97,29.86c0-2.01,0-4.01-.01-6.02,0-.08,0-.16.07-.22,0,.27.02.54.02.81,0,1.65,0,3.3-.01,4.94,0,.16,0,.32-.01.48-.02,0-.04,0-.06,0Z"/>
      <path class="cls-1" d="M32.72,29.37c-.23-.16-.27-.42-.36-.66-.09-.25-.01-.4.27-.39.14.14.08.32.1.48.07.15.02.31.03.46,0,.05-.01.09-.05.12Z"/>
      <path class="cls-1" d="M51.46,23.39s.04-.02.06-.03c0,.03.02.07.03.1-.04.54.09,1.08-.07,1.62-.06-.21.07-.45-.08-.65.02-.35.04-.69.07-1.04Z"/>
      <path class="cls-1" d="M31.93,26.13c-.37-.19-.54-.52-.66-.9.29.25.47.57.66.9Z"/>
      <path class="cls-1" d="M32.75,29.29c0-.17,0-.33,0-.5.14.15.06.33.07.49-.01.03-.03.04-.06,0Z"/>
      <path class="cls-1" d="M32.75,29.29s.04,0,.06,0c0,.13,0,.27,0,.4-.02,0-.04,0-.06.01,0-.11-.02-.22-.02-.33,0-.03.02-.05.03-.08Z"/>
      <path class="cls-1" d="M9.62,26.78c0,.05-.02.11-.03.16-.01.04-.03.06-.07.08-.23-.08-.33-.22-.34-.48,0-.32.15-.46.4-.57,0,.11.02.21.03.32.04.16.04.32,0,.49Z"/>
      <path class="cls-1" d="M9.63,24.59c0,.24-.02.49-.03.73-.01.04-.03.06-.07.08.1-.43-.26-.88.07-1.29h.03c.04.15.04.32,0,.48Z"/>
      <path class="cls-1" d="M9.53,27.02s.05-.05.07-.08c0,.19,0,.38,0,.56-.01.04-.03.04-.06.01-.01-.16-.07-.33,0-.49Z"/>
      <path class="cls-1" d="M9.54,27.52s.04,0,.06-.01c0,.16.01.32.02.49-.03-.03-.07-.05-.1-.08,0-.13.02-.26.02-.4Z"/>
      <path class="cls-1" d="M9.53,25.4l.07-.08c0,.16,0,.32,0,.48-.12-.12-.05-.27-.07-.4Z"/>
      <path class="cls-1" d="M78.67,34.47c-.18-.54-.48-1.03-.52-1.61.32.26.4.69.63,1.01.06.08.01.41-.11.6Z"/>
      <path class="cls-1" d="M82.15,27.91c-.09.14-.09.34-.27.38-.13.03-.14-.11-.12-.2.04-.14.07-.3.25-.33.11-.02.13.07.14.15Z"/>
      <path class="cls-1" d="M84.67,26.3c-.08.03-.15.05-.23.08-.02-.07-.02-.13.05-.17.13-.03-.03-.26.17-.23,0,.02.01.04.01.07.04.09.05.17,0,.26Z"/>
      <path class="cls-1" d="M84.67,25.98c-.1.04-.05.2-.17.23.03-.12-.05-.31.18-.32,0,.03,0,.06-.01.09Z"/>
      <path class="cls-1" d="M87.59,28.8s-.04,0-.05,0c0-.84-.02-1.67-.03-2.51,0-.11.02-.22.03-.33.02,0,.04,0,.06,0,0,.94,0,1.89,0,2.83Z"/>
      <path class="cls-1" d="M51.47,25.81c.28.13.29.41.31.65.06.75-.04,1.5-.16,2.24-.01.09-.07.14-.14.19-.07-.06-.05-.14-.05-.21,0-.83,0-1.67,0-2.5.02-.12-.05-.25.05-.36Z"/>
      <path class="cls-1" d="M56.92,32.78s.05,0,.08,0c.05.04.05.1.03.15-.06.12-.19.09-.28.16-.08.03-.16.05-.24.08-.16.1-.32.14-.49,0-.22,0-.43,0-.65,0-.09-.18-.26-.15-.41-.16-.19-.02-.4.09-.56-.1.27-.19.54,0,.81,0,.08,0,.16,0,.24,0,.39.1.77.06,1.15-.04.1-.04.22-.05.32-.1Z"/>
      <path class="cls-1" d="M53.73,26.46c.2.18.2.4.22.6,0,.08-.05.19-.17.19-.11,0-.17-.07-.19-.17-.04-.22.02-.41.14-.62Z"/>
      <path class="cls-1" d="M54.38,31.15c-.01.38.1.77-.06,1.14,0-.38,0-.76,0-1.15.02,0,.04,0,.06,0Z"/>
      <path class="cls-1" d="M54.38,31.15s-.04,0-.06,0c0-.38,0-.75,0-1.13.01-.04.03-.04.06,0,0,.38,0,.76,0,1.14Z"/>
      <path class="cls-1" d="M54.32,25.96s.05.06.08.09c.1.16.11.33.1.51,0,.13,0,.26-.04.38-.02.04-.04.07-.08.1-.02,0-.04-.01-.06-.02v-1.05Z"/>
      <path class="cls-1" d="M57.4,35.26c-.16.03-.33.06-.49.08.12-.3.27-.35.49-.08Z"/>
      <path class="cls-1" d="M54.32,27.02s.04,0,.05,0c.21.3.15.61.07.93-.03.05-.07.07-.12.04,0-.32,0-.65,0-.97Z"/>
      <path class="cls-1" d="M54.64,25.66c-.05,0-.11-.02-.16-.03,0-.08-.02-.18.08-.21.13-.04.2.05.25.15,0,.03,0,.06-.02.09-.05.03-.1.02-.14,0Z"/>
      <path class="cls-1" d="M54.38,28.64c0,.27,0,.54,0,.81-.02.04-.04.04-.06,0,0-.27,0-.55,0-.82.02-.03.04-.03.06,0Z"/>
      <path class="cls-1" d="M54.38,28.64s-.04,0-.06,0c0-.22,0-.43,0-.65.02,0,.04,0,.06,0,.04.02.06.05.07.09.02.08,0,.16-.05.23,0,.11-.02.22-.03.33Z"/>
      <path class="cls-1" d="M54.32,29.46s.04,0,.06,0c0,.19,0,.38,0,.57-.02,0-.04,0-.06,0,0-.19,0-.38,0-.57Z"/>
      <path class="cls-1" d="M47.97,29.86s.04,0,.06,0c0,1.35,0,2.7,0,4.05-.02,0-.04,0-.06,0-.08-.07-.06-.15-.02-.24,0-1.27.01-2.54.02-3.81Z"/>
      <path class="cls-1" d="M85.76,25.97c.26,0,.35.16.35.34,0,.17-.14.3-.32.28-.18-.03-.34-.15-.32-.35.01-.18.13-.29.3-.27Z"/>
      <path class="cls-1" d="M84.69,28.32c0-.35,0-.71,0-1.06.02-.04.04-.03.06,0-.02.35.1.71-.06,1.06Z"/>
      <path class="cls-1" d="M84.67,26.3c0-.09,0-.17,0-.26.16.23.06.49.06.73-.02.04-.04.04-.06,0,0,0-.03,0-.03,0,0-.16.01-.33.02-.49Z"/>
      <path class="cls-1" d="M84.75,29.29s-.04,0-.06,0c0-.24,0-.49,0-.73.13.24.05.49.06.74Z"/>
      <path class="cls-1" d="M84.68,26.78s.04,0,.06,0c0,.16,0,.33,0,.49-.02,0-.04,0-.06,0,0-.16,0-.32,0-.49Z"/>
      <path class="cls-1" d="M84.69,33.83s.04,0,.05,0c0,.16,0,.32,0,.49-.02,0-.04,0-.06,0,0-.16,0-.32,0-.49Z"/>
      <path class="cls-1" d="M11.97,28.68c-.04.06.07.21-.08.19-.14-.02-.36.01-.36-.21,0-.12.02-.33.22-.33.24,0,.22.19.22.35Z"/>
      <path class="cls-1" d="M9.62,29.71c0,.16-.01.32-.02.48-.1-.16-.15-.32.02-.48Z"/>
      <path class="cls-1" d="M56.75,33.09c.08-.05.16-.11.25-.16.16-.18.39-.08.57-.15l.24-.11c.11-.13.25-.16.41-.14.2-.02.38-.06.5-.25.23-.22.51-.38.74-.6.09-.09.19-.17.26-.27.07-.09.12-.19.18-.28.3-.46.44-.97.45-1.52.08-.2.02-.4-.02-.6-.02-.19-.04-.39.03-.57.02-.04.04-.07.07-.1.16-.08.29-.19.42-.31.09-.08.15-.18.05-.27-.24-.23-.26-.51-.25-.81,0-.14-.06-.26-.13-.37-.06-.23.11-.31.27-.38.17-.07.28.04.37.17.06.35.37.61.41.97.1.12-.04.48.33.32h.16c.18.12.29.28.24.51-.06.33.05.5.41.46.12.13.12.27,0,.4-.13,0-.22.08-.29.17-.18.2-.39.18-.6.07-.12-.12-.11-.27-.07-.42.18-.19.14-.3-.12-.33-.13-.07-.18-.19-.22-.31-.01-.03-.02-.09-.06-.08-.11.03-.07.15-.12.22-.17.25-.22.51-.07.79.05.09.1.2,0,.3.02.29,0,.56-.24.78-.04.04-.08.12-.08.18.06.66-.35,1.17-.76,1.54-.31.28-.62.76-1.19.67-.04,0-.1,0-.12.02-.38.63-1.12.14-1.59.5-.08.06-.28-.02-.43-.04Z"/>
      <path class="cls-1" d="M61.15,29.45c-.04-.1-.06-.21-.11-.3-.18-.31-.12-.58.11-.84.09-.1.13-.28.33-.16.01.13.06.24.16.32.08.1.23.16.16.32v.49c-.21.09-.43.14-.65.16Z"/>
      <path class="cls-1" d="M62.69,29.05v-.4c.03-.22.12-.28.27-.08.11.14.07.31-.01.46-.07.12-.15.14-.25.03Z"/>
      <path class="cls-1" d="M56.02,33.18c.16,0,.33,0,.49,0-.02.03-.03.08-.05.1-.08.09-.05.32-.27.25-.18-.05-.16-.21-.16-.35Z"/>
      <path class="cls-1" d="M118.56,23.37c0-.08,0-.16,0-.23.08,0,.15-.01.23-.02.15-.05.3-.02.46-.03,1.05,0,2.09,0,3.14,0,1.7,0,3.4,0,5.09,0,.15,0,.3-.03.44.03.16,0,.32.02.48,0,.32-.04.55,0,.48.4-.06.09,0,.21-.07.3-.21.21-.38.44-.5.73-.13.33-.43.46-.76.54-.45.11-.91.09-1.37.09-.29,0-.57.04-.79.26-.05.06-.14.06-.19.11-.02.07-.06.13-.13.17-.05.3-.07.6-.03.91.07.46-.15.98-.55.96-.25-.01-.41-.05-.42-.35-.01-.42-.22-.71-.66-.79-.33-.06-.37-.35-.38-.59-.01-.31-.05-.59-.31-.8-.06-.05-.12-.12-.07-.21.07-.11.2-.25.04-.35-.2-.12-.32-.38-.61-.34-.17.02-.37-.03-.52.03-.76.29-1.46-.14-2.2-.17-.17,0-.26-.12-.34-.25-.1-.15-.2-.3-.4-.32-.05,0-.06-.05-.07-.09Z"/>
      <path class="cls-1" d="M118.64,24.75c.4-.01.7.32,1.11.29.37-.03.75,0,1.1-.12.51-.18.98-.02,1.43.18.18.08.17.29.16.47-.45-.29-.94-.42-1.48-.38-.39.03-.72.19-1.07.33-.11,0-.23,0-.34,0-.31-.03-.62.05-.93-.04h0c-.02-.24-.12-.49.02-.73Z"/>
      <path class="cls-1" d="M122.78,32.85h-.08c-.13-.12-.1-.29-.11-.44,0-1.25,0-2.5,0-3.75.05-.58-.12-1.14-.08-1.71.01-.17-.03-.35.11-.49.09.04.15.11.15.22,0,1.18,0,2.37,0,3.55,0,.88,0,1.75,0,2.63Z"/>
      <path class="cls-1" d="M122.62,26.46c-.06.73.1,1.46.08,2.19-.1.5-.02,1-.04,1.5,0,.14.02.29-.02.44-.05.03-.09.03-.14-.01-.11-.16-.08-.34-.08-.51,0-1.05,0-2.1,0-3.14,0-.14,0-.27.03-.41,0-.04.03-.08.05-.12.03-.03.07-.04.12-.01,0,.03,0,.05,0,.08Z"/>
      <path class="cls-1" d="M119.93,25.47c.65-.52,1.37-.44,2.11-.27.2.05.29.23.42.36,0,.03,0,.05,0,.08-.02.03-.05.05-.08.06-.05,0-.1,0-.15-.03-.03-.02-.05-.04-.07-.07-.02-.03-.04-.05-.06-.08-.05-.05-.11-.08-.17-.12-.57-.13-1.13-.05-1.69.12-.1-.02-.22.04-.31-.05Z"/>
      <path class="cls-1" d="M122.36,25.65s.06,0,.1,0c.05.03.11.05.16.08.15.24.02.44-.08.65h0s-.07.04-.11.04c-.11-.05-.13-.14-.11-.24.06-.13.14-.27.03-.41-.01-.04,0-.07.01-.1Z"/>
      <path class="cls-1" d="M122.54,26.37c0-.22.12-.42.08-.65.32.22.06.43,0,.65-.03,0-.05,0-.08,0Z"/>
      <path class="cls-1" d="M118.56,23.37s.05.06.07.09c-.04.22.07.45-.07.65v-.74Z"/>
      <path class="cls-1" d="M66.6,32.69c-.02-.16.12-.34-.07-.48,0-.16,0-.33,0-.49.06-.26.01-.52.03-.78.02-.66-.05-1.31.04-1.97,0-.11,0-.22,0-.32.5-.13.48-.11.46.42-.02.34-.06.68-.13,1.01-.02.1-.04.23.04.31.55.48.24,1.11.23,1.66,0,.2-.13.69-.6.65Z"/>
      <path class="cls-1" d="M68.73,28.47c.1.46-.1,1.04-.17,1.64-.02.13-.04.3-.21.29-.16,0-.29-.14-.32-.28-.05-.28-.13-.59.09-.85.25-.3.32-.64.28-1.01-.04-.46.1-.94-.14-1.39-.06-.11-.04-.27.11-.3.17-.04.16.13.2.23.21.49.14,1,.16,1.66Z"/>
      <path class="cls-1" d="M66.6,27.35c0-.11,0-.22,0-.32.18.01.28.12.25.28-.01.08-.15.17-.25.04Z"/>
      <path class="cls-1" d="M105.99,28.08s-.04,0-.06,0c.01-.19-.06-.39.06-.57,0,.19,0,.38,0,.57Z"/>
      <path class="cls-1" d="M38.58,29.05l.03.24c0,.84-.02,1.67-.03,2.51-.02,0-.04,0-.06,0,0-.51-.01-1.03-.02-1.54,0-.41.01-.81.02-1.22.02-.03.04-.03.06,0Z"/>
      <path class="cls-1" d="M61.15,26.37q-.36-.16-.57.16c.05.08.08.17.1.26.03.15.09.33-.06.45-.13.1-.26,0-.37-.06-.13-.07-.26-.07-.39-.04-.25-.02-.32-.26-.48-.39-.4-.32-.85-.56-1.3-.79-.03-.02-.06-.04-.09-.06-.14-.11-.3-.04-.46-.04-.23-.02-.46-.09-.68-.14-.09-.03-.2-.06-.25-.16-.02-.23-.22-.26-.37-.33-.22-.09-.32-.24-.28-.47.05-.23.23-.24.41-.24.43,0,.8-.21,1.2-.34.2-.06.39-.09.59,0,.1.04.23.11.31.08.47-.19.76.04,1.01.39.09.12.24.17.39.19.39.05.59.34.71.65.1.27.1.57.47.65.09.02.13.13.13.24Z"/>
      <path class="cls-1" d="M104.87,23.07c.48,0,.97,0,1.45,0,.03,0,.04.02.03.03,0,.02-.01.02-.02.02-.49,0-.98,0-1.47,0,0-.02,0-.04,0-.06Z"/>
      <path class="cls-1" d="M107.39,23.78c.1.16.21.33.31.49-.51.09-.24-.31-.31-.49Z"/>
      <path class="cls-1" d="M107.15,23.45c.1.05.17.13.17.25-.07.02-.14.09-.21,0-.08-.09.01-.17.04-.25Z"/>
      <path class="cls-1" d="M106.66,23.15s.06-.02.08-.03c.1.05.24-.06.3.09-.13-.02-.27.05-.39-.07Z"/>
      <path class="cls-1" d="M128.88,24.76s-.04.1-.07.15c-.03.48-.1.56-.54.58-.09,0-.19.03-.28,0-.52-.15-1.03-.1-1.54.03-.11,0-.23.02-.34-.03.03-.36.34-.34.57-.36.29-.03.59-.05.88-.05.44,0,.84-.11,1.16-.43.09-.02.12.04.15.11Z"/>
      <path class="cls-1" d="M127.91,23.13c-1.85,0-3.7,0-5.54,0,0-.02,0-.04,0-.05,1.76,0,3.52,0,5.28-.01.09,0,.19-.02.26.07Z"/>
      <path class="cls-1" d="M126.44,25.48c.46-.27.94-.23,1.43-.13.62.13.64.12.94-.44.13.05.05.17.09.25.11.44-.22.35-.46.37-.54.06-1.08.04-1.61.04-.13,0-.27.03-.38-.08Z"/>
      <path class="cls-1" d="M122.37,23.07s0,.04,0,.05c-1.06,0-2.12,0-3.18,0-.02-.02-.03-.03-.02-.04,0,0,.02-.01.03-.01,1.06,0,2.11,0,3.17,0Z"/>
      <path class="cls-1" d="M128.88,24.76s-.06-.06-.08-.08c-.18-.3-.14-.59,0-.89.02-.08,0-.19.08-.25,0,.41,0,.82,0,1.22Z"/>
      <path class="cls-1" d="M114.56,23.12c.19,0,.38.03.56,0,.21-.02.28.08.33.24-.09.12.04.29-.09.41-.42.17-.85.27-1.31.26-.3,0-.54.33-.57.62-.04.34,0,.64.1.97.1.33.22.43.53.28.16-.08.29-.19.44-.29.05-.04.09-.11.17-.07.08.04.09.13.09.21,0,.04,0,.08-.01.12-.24.86-.17,1.73-.08,2.6.04.36-.02.73-.02,1.08,0,.55.02,1.1.04,1.65,0,.01,0,.03.01.04.47.42.26.87.04,1.31-.11.22-.03.42.03.62.12.39,0,.51-.4.51-.3,0-.6.12-.89.21-.35.11-.73.14-1.02.44-.15.15-.44.07-.65.02-.19-.04-.15-.24-.04-.32.35-.24.45-.67.73-.96.13-.13.19-.31.37-.41.24-.13.1-.39.16-.57.04-.13.4-.06.42-.34.01-.24.07-.48-.15-.68-.07-.07-.1-.18-.17-.31.34,0,.53.09.5.44-.02.18.07.34.13.5.04.1.08.22.22.2.11-.02.19-.11.21-.22.04-.26.15-.49.25-.72.1-.22.11-.44-.04-.65-.08-.12-.11-.27-.13-.42-.03-.24-.23-.32-.43-.37-.2-.05-.28.07-.38.22-.08.14-.15.41-.32.36-.17-.05-.08-.31-.08-.47,0-.81-.02-1.62,0-2.43.03-.92.13-1.85.12-2.77,0-.37.04-.86-.45-1.07-.05.05-.1.05-.15,0,0-.08,0-.16,0-.23.24,0,.49-.01.73-.02.41-.04.81-.04,1.22,0Z"/>
      <path class="cls-1" d="M112.62,23.38c.05,0,.1,0,.15,0,.26.38.31.8.26,1.26-.04.33-.01.67-.01,1.01-.15.66-.16,1.32-.12,1.99.04.78-.08,1.55,0,2.33.04.34.07.68.12,1.02.02.03.04.07.06.1.29.43.21.59-.31.63,0-.12-.06-.2-.17-.25-.07-.08-.04-.16,0-.24,0-.94,0-1.89,0-2.83,0-1.51,0-3.03.01-4.54,0-.16,0-.32.01-.48Z"/>
      <path class="cls-1" d="M113.01,30.99c-.12-.66-.31-1.32-.18-2.01.02-.12.02-.24.02-.36,0-.75-.05-1.5,0-2.24.02-.26.03-.51.17-.73-.14,1.78-.11,3.56,0,5.34Z"/>
      <path class="cls-1" d="M115.44,24.02l.03,1.95s.06.09.07.13c.04.91.1,1.82-.03,2.73-.03.05-.07.07-.13.05,0-1.62,0-3.24,0-4.86.02,0,.04,0,.06,0Z"/>
      <path class="cls-1" d="M115.38,28.88s.04,0,.05,0c.21.35.21.7,0,1.05-.02,0-.04,0-.06,0,0-.35,0-.7,0-1.05Z"/>
      <path class="cls-1" d="M115.44,24.02s-.04,0-.06,0c0-.08-.02-.16-.03-.24.05-.13-.04-.3.09-.41,0,.22,0,.43,0,.65Z"/>
      <path class="cls-1" d="M112.73,32.52c-.05-.01-.08-.04-.06-.08.02-.03.06-.04.09-.04.02,0,.03.05.05.08-.03.02-.06.03-.09.04Z"/>
      <path class="cls-1" d="M128.49,25.49s-.01.04-.02.07c-.08,0-.15.02-.23.03-.54.07-1.09-.04-1.64.06h0c-.05.06-.1.05-.16,0-.4-.16-.82-.06-1.22-.06h-.04s-.04,0-.04,0c.02-.08.09-.09.15-.11.27-.15.55-.16.82,0,.11,0,.21,0,.32,0,.68,0,1.36,0,2.04.01Z"/>
      <path class="cls-1" d="M26.88,25.8c-.08,0-.16,0-.24,0-.16-.1-.36.05-.51-.1.15-.17.33-.09.51-.06.11,0,.23,0,.25.16Z"/>
      <path class="cls-1" d="M25.41,25.8c-.11.11-.26.1-.4.1-.06-.05-.09-.13,0-.14.13-.02.3-.16.41.04Z"/>
      <path class="cls-1" d="M26.14,25.71h-.32c.26-.13.53-.23.81-.07-.16.03-.34-.05-.49.07Z"/>
      <path class="cls-1" d="M22.87,28.32l-.16.4c-.12-.2-.03-.32.16-.4Z"/>
      <path class="cls-1" d="M122.54,30.58h.08c.08.46.01.93.04,1.39,0,.16-.04.32.04.47v.4c.02.57.01,1.14-.26,1.67-.13.26-.04.55-.06.83-.29.02-.12-.19-.16-.3.1-.19-.02-.38,0-.57.03-.11.06-.22.11-.32.11-.28.15-.55.12-.86-.08-.83-.04-1.66-.02-2.49,0-.08.03-.16.1-.21Z"/>
      <path class="cls-1" d="M122.21,25.49s0,.06,0,.08c-.36.15-.73.06-1.09.06-.23-.03-.47-.06-.7,0h-.15c-.15-.13-.33-.06-.49-.06-.05,0-.11-.02-.16-.03,0-.02,0-.04,0-.06.11,0,.22-.02.33-.02.11,0,.22,0,.33,0,.16-.08.34-.07.52-.09.48,0,.97-.09,1.44.1Z"/>
      <path class="cls-1" d="M69.37,31.88c-.26-.16-.08-.32,0-.48,0,.16,0,.32,0,.48Z"/>
      <path class="cls-1" d="M66.6,28.96c0,.67,0,1.35,0,2.02-.02.04-.04.04-.07,0,0-.68,0-1.35,0-2.03.02,0,.04,0,.07,0Z"/>
      <path class="cls-1" d="M66.53,30.99s.04,0,.07,0c-.03.24.07.5-.07.73,0-.05-.02-.11-.03-.16,0-.19.02-.38.03-.56Z"/>
      <path class="cls-1" d="M119.6,25.5s0,.04,0,.06c-.27,0-.54.02-.82.03-.06-.02-.15,0-.16-.1.32,0,.65.01.97.02Z"/>
      <path class="cls-1" d="M47.95,33.66c0,.08.01.16.02.24,0,.05-.01.11-.02.16-.2-.14-.2-.27,0-.4Z"/>
      <path class="cls-1" d="M135.73,30.41c0-.7,0-1.39,0-2.09.1-.21,0-.42,0-.63.03-.13.05-.26.16-.34.23-.31.25-.69.39-1.03.47-1.1,1.15-2.03,2.07-2.81.55-.47,1.02-1.03,1.52-1.56.43-.44.86-.89,1.29-1.34.25-.04.4.11.53.29.18.25.27.55.39.84.53,1.17.84,2.4,1.13,3.65.08.29.15.59.17.89,0,.16.07.3.08.46,0,.16,0,.32,0,.49.02.67-.05,1.35.04,2.02.03.12.04.23.03.35,0,.07-.01.14-.03.2-.11.37-.01.75-.1,1.12-.22.88-.38,1.78-.68,2.64-.15.43.03.85,0,1.28-.06.55-.29,1.06-.47,1.57-.03.09-.07.19-.09.28-.05.23-.16.44-.27.65-.21.24-.28.64-.73.59-.56-.58-1.11-1.15-1.72-1.68-.12-.04-.2-.12-.24-.24-.16-.45-.43-.84-.81-1.14-.35-.28-.68-.58-1.05-.82-.03-.02-.05-.05-.07-.08-.24-.4-.36-.88-.82-1.12-.28-.32-.34-.73-.45-1.11,0-.16-.07-.31-.08-.46,0-.24-.06-.48-.15-.7-.02-.05-.04-.1-.07-.15Z"/>
      <path class="cls-1" d="M139.31,36.01c.05.08.11.16.16.24-.31.12-.59-.04-.75-.24-.69-.87-1.61-1.39-2.6-1.83-.1-.04-.22-.12-.3-.1-.46.16-.42-.15-.43-.43-.01-.35-.04-.7-.07-1.05-.05-.04-.06-.09-.05-.15.01-.04.03-.07.05-.1.16-.24.11-.53.16-.8.02-.25.03-.5.16-.72.08-.03.14.01.19.07.06.09.1.18.13.29.01.03.02.07.03.1-.01.16.07.29.12.43.09.4.2.78.42,1.13.34.33.54.76.79,1.14h0c.07.06.13.13.17.22.32.46.71.84,1.17,1.16.27.15.47.38.62.64Z"/>
      <path class="cls-1" d="M141.19,37.93c.34-.09.46-.4.66-.63.24-.09.37.08.35.24-.04.33-.02.65.02.98,0,.08-.06.14-.15.17-.02,0-.05-.01-.07-.02-.13-.22-.33-.34-.57-.41.02-.18-.19-.19-.24-.32Z"/>
      <path class="cls-1" d="M134.01,35.36c.27-.54.54-1.09.81-1.63.03-.03.05-.03.08,0,.19.2.18.42.08.67-.15.37-.43.64-.67.95-.08.1-.19.16-.3.02Z"/>
      <path class="cls-1" d="M142.07,38.69c.05-.11.14-.24.06-.34-.17-.23-.14-.42-.02-.66.11-.22-.06-.33-.27-.39.07-.22.23-.4.24-.64.12-.05.24.16.37,0-.01-.17-.21-.14-.28-.25.17-.51.41-.99.48-1.53.08-.39.13-.79.3-1.16.06-.08.1-.16.12-.25.05-.13.04-.26.05-.39,0-.16.06-.3.1-.45.05-.12.06-.25.08-.38,0-.04.02-.07.03-.11.05-.15.03-.31.03-.46,0-.1,0-.21.03-.31.07-.27.04-.55.09-.82.16-.23.44-.34.63-.55.18-.02.26.1.33.23.18.45.5.78.87,1.09.49.42.91.92,1.4,1.35.08.07.13.17.18.27.06.12.11.26.01.38-.09.12-.24.11-.37.1-.13-.01-.24-.06-.33-.15-.38-.36-.76-.32-1.18-.08-.13.08-.29.12-.28.3,0,.19.17.27.34.3.36.06.62.27.84.53.55.62.63,1.53.19,2.22.99.07,1.63,1.13,1.46,2.34-.01.05.08-.01.03,0-.01,0-.01,0-.01-.03.14-.77.62-1.02,1.35-.7.6.27,1.17.59,1.87.58.22,0,.26-.05.27-.22,0-.37-.23-.63-.47-.86-.25-.22-.46-.45-.61-.75-.18-.37-.5-.6-.84-.8-.33-.2-.62-.44-.74-.82-.07-.23-.29-.31-.47-.42-.32-.21-.63-.43-.76-.81-.05-.14-.09-.3.05-.41.14-.11.28-.05.42.02.15.09.29.2.47.24.1.04.17.1.21.2.09.35.34.55.68.65.05.03.09.07.12.12.13.23.33.39.51.57.12.11.27.22.3.38.06.43.34.61.73.7.03.02.06.05.08.08.29.54.75.94,1.18,1.35.27.25.51.51.73.79.06.1.13.2.25.24.15.1.3.18.41.32.02.03.04.06.05.09.04.11.1.21.19.29.03.02.05.05.07.07.08.09.19.14.3.19.03.01.06.03.09.06.28.26.54.55.88.74.03.02.06.05.08.07.08.12.18.22.32.26.16.08.28.2.34.36.06.23.25.34.45.44.21.1.34.29.51.42.46.39.88.83,1.29,1.28.05.07.11.14.17.21.06.09.12.18.19.25.03.03.05.05.07.08.04.06.08.12.11.19.17.37.49.62.77.91.2.2.44.38.65.57.24.22.46.46.65.72.1.11.23.17.34.27.34.34.66.7,1.14.86.24.14.42.33.51.6.03.18.06.35-.08.5l-.98.03c-.43.04-.87.04-1.3,0-.22,0-.43,0-.65,0-1.76,0-3.53,0-5.29,0-.07.05-.15.08-.24.09-.37,0-.73-.02-1.1,0-.57.05-1-.18-1.37-.57-.41-.45-.86-.86-1.28-1.3-.09-.1-.19-.2-.28-.29-.11-.18-.28-.31-.42-.46-.06-.1-.14-.19-.24-.25-.04-.03-.08-.07-.11-.11-.06-.08-.13-.15-.22-.21-.09-.06-.17-.13-.25-.2-.19-.19-.38-.38-.57-.56-.19-.21-.42-.39-.58-.62-.06-.1-.15-.19-.25-.25-.25-.15-.38-.43-.61-.59-.37-.39-.78-.73-1.15-1.12-.18-.23-.47-.37-.56-.68,0-.15-.07-.22-.21-.25-.03-.02-.05-.05-.08-.07-.18-.33-.41-.63-.58-.98-.11-.23-.4-.23-.64-.24-.03-.03-.05-.05-.08-.08-.03-.18-.17-.26-.31-.34-.35-.3-.6-.7-.99-.96Z"/>
      <path class="cls-1" d="M162.83,48.41c.03.05.07.1.1.15-.12.22-.32.16-.51.15,0-.18,0-.36,0-.54.22-.06.28.14.4.24Z"/>
      <path class="cls-1" d="M143.45,40.07c.36-.15.7,0,.83.32.08.2.21.4.34.57.08.11.12.2.05.32-.41-.41-.81-.81-1.22-1.22Z"/>
      <path class="cls-1" d="M143.06,39.65c.23,0,.43.02.31.34-.12-.09-.25-.18-.31-.34Z"/>
      <path class="cls-1" d="M145,41.61s-.05-.01-.07-.01c-.06-.08-.12-.16-.18-.24.33-.16.23.1.25.25Z"/>
      <path class="cls-1" d="M143.32,26.29c-.06-.3-.11-.59-.17-.89-.02-.43-.05-.86-.23-1.26-.08-.17-.01-.28.14-.37.15-.09.25-.2.21-.39-.03-.13.04-.24.17-.21.3.06.54.26.71.5.14.2-.08.33-.21.46-.22.24-.25.54-.07.73.21.22.4.18.68.05.43-.19.65-.48.78-.9.09-.28.24-.39.59-.25.29.12.64.02.92-.16.2-.13.39-.23.64-.21.2.02.32-.12.43-.27-.62.19-.95-.02-1.06-.65-.02-.14.03-.25.15-.3.27-.12.54-.28.85-.26.33.03.58-.09.8-.31.08-.08.17-.18.27-.16.43.1.71-.19,1.03-.38.37-.22.69-.52,1.08-.71.22-.11.26-.34.28-.59.02-.34.14-.4.51-.23-.15-.23-.19-.43-.03-.65.14-.19.19-.47.43-.57.31-.13.37-.3.28-.63-.16-.58.01-.87.6-1.08.28-.1.5-.24.69-.46.42-.51,1.01-.74,1.62-.94.13-.04.27-.01.4.01.18.03.35.01.52-.05.09-.03.19-.07.2-.18.02-.12-.09-.16-.17-.19-.21-.09-.24-.24-.13-.42.11-.19.06-.32-.11-.45-.33-.24-.39-.56-.24-.94.09-.23.12-.47.18-.71.08-.37.3-.48.65-.43.18.03.35.03.52-.03.28-.1.52-.23.53-.58.01-.24.17-.36.41-.36.44,0,.82-.06,1.07-.5.12-.22.8-.21,1,0,.22.24.39.23.61.02.18-.18.39-.29.66-.24.38,0,.76,0,1.14,0-.33.32-.66.65-.99.97-.46.17-.69.59-1.01.9-.4.39-.8.8-1.17,1.23-.04.07-.08.13-.13.18-.5.55-1.08,1.02-1.53,1.61-.2.19-.39.38-.58.57-.17.16-.34.33-.5.5-.34.28-.56.67-.89.96-.29.28-.56.57-.89.8-.12.11-.23.22-.35.34-.2.19-.38.39-.59.56-.39.27-.68.66-1.04.96-.23.21-.42.45-.64.66-.24.27-.46.57-.73.81-.43.41-.85.83-1.22,1.29-.36.26-.67.57-.98.89-.45.43-.9.87-1.29,1.36-.12.12-.26.2-.4.29-.1.11-.21.22-.31.33-.41.54-.93.95-1.46,1.36-.08.02-.18.01-.23.07-.6.63-1.42,1.05-1.76,1.91-.04.05-.09.08-.16.05-.04-.05-.07-.1-.09-.16-.21-.4-.15-.86-.28-1.28-.05-.36.05-.73-.16-1.07Z"/>
      <path class="cls-1" d="M159.42,13.27c0-.09.05-.14.11-.2.6-.52,1.11-1.12,1.64-1.7.15-.17.3-.25.51-.23,0,.02.01.05,0,.08-.05.05-.09.11-.14.16-.21.2-.4.41-.62.6-.08.06-.17.11-.22.2-.02.03-.04.05-.06.08-.07.08-.14.15-.21.22-.06.06-.12.12-.18.19-.23.2-.41.46-.67.62-.06.02-.11.01-.16-.03Z"/>
      <path class="cls-1" d="M161.53,10.18c-.27.11-.54.21-.74.45-.19.22-.37.12-.54-.08-.26-.32-.81-.25-1.02.09-.18.29-.49.37-.81.35-.37-.03-.6.04-.57.49.02.26-.6.59-.93.54-.64-.09-.64-.09-.81.53-.06.22-.09.43-.17.65-.1.27,0,.55.28.69.27.14.35.28.13.52-.15.17-.15.28.11.32.13.02.28.07.26.25-.01.17-.12.27-.28.3-.24.05-.46.08-.71.05-.46-.06-.86.2-1.26.4-.12.06-.23.15-.32.25-.35.39-.75.69-1.26.88-.4.15-.46.49-.23.98.13.29.05.44-.23.51-.46.11-.42.59-.68.85-.08.08.12.18.19.27.07.1.1.2,0,.29-.12.1-.16-.02-.21-.1-.05-.08-.09-.19-.21-.13-.1.05-.15.15-.12.27.09.42-.15.61-.49.79-.45.24-.86.55-1.28.84-.09.06-.17.2-.27.16-.41-.16-.63.12-.91.32-.17.12-.35.18-.6.13-.3-.06-.58.18-.87.27-.03,0-.07.07-.06.09.11.24.19.52.37.7.12.12.38.1.56-.05.08-.07.17-.2.27-.07.1.12-.07.18-.13.25-.16.21-.32.41-.64.28-.08-.04-.18,0-.22.06-.27.36-.72.24-1.06.43-.09.05-.16.01-.21-.06-.2-.33-.32-.12-.41.07-.08.17-.14.35-.19.53-.04.18-.14.28-.32.32-.12.03-.24.07-.33.13-.36.24-.64.22-.88-.08-.18-.23-.12-.72.18-.9.38-.22.21-.32-.04-.46-.08-.05-.15-.12-.22-.18-.08-.07-.16-.19-.27-.11-.12.08.04.15.05.23.03.22-.14.31-.3.37-.16.06-.2.09-.1.28.2.39.28.83.13,1.27-.1-.37-.2-.74-.29-1.11-.21-.87-.52-1.7-.84-2.53.22-.21.3.06.42.13.2.13.31.13.39-.11.14-.41.48-.76.39-1.25-.03-.16.13-.26.25-.35.25-.18.24-.36.02-.57-.43-.39-.42-.48,0-.89.24-.24.59-.33.8-.62.07-.1.22-.1.34-.04.15.07.11.2.07.32-.02.09-.06.18-.02.3.26-.05.43-.22.61-.36.15-.12.32-.17.49-.08.16.09.13.25.1.4-.04.3.07.59.05.89-.02.26-.04.5-.39.49-.07,0-.15.01-.16.09,0,.08.06.12.12.15.28.11.53.22.64.55.06.19.31.13.47.04.22-.12.42-.25.68-.17.04.01.1.02.11-.02.19-.55.69-.36,1.07-.45.25-.06.31-.13.3-.4-.02-.44-.04-.82-.31-1.21-.22-.31.09-.77.58-1.01-.07-.16-.27-.17-.37-.29-.09-.1-.21-.12-.33-.02-.1.09-.16.23-.07.32.33.37-.13.68-.08,1.03.02.11-.15.13-.26.12-.18-.01-.3-.11-.37-.28-.04-.11.04-.21.03-.35-.46.13-.93-.04-1.39.13-.19.07-.4,0-.28-.3.16-.41.06-.8-.16-1.16-.13-.2-.15-.36.04-.54.17-.15.31-.13.45.04.11.13.18.05.25-.05.13-.19.25-.38.32-.61.09-.3.31-.55.63-.44.98.33,1.47-.37,2.03-.9.31-.29.65-.56.93-.9.21-.25.42-.16.61.2q.24.43.7.36c.12-.02.24-.01.37,0,.3,0,.49.1.47.45-.01.27.03.57.4.59.32.01.71.12.81-.37.02-.11.09-.19.14-.29.19-.37.14-.51-.24-.68-.25-.11-.5-.24-.53-.56-.01-.13-.03-.29.08-.38.15-.12.21.11.34.13.05-.09-.03-.15-.06-.21-.06-.11-.11-.23.01-.33.11-.09.2,0,.29.05.11.08.22.17.41.08-.13-.16-.31-.25-.43-.41-.12-.16-.3-.09-.38.04-.47.71-1.21.43-1.85.51-.15.02-.3-.07-.37-.22-.08-.17.04-.28.15-.38.06-.06.16-.1.19-.21-.17-.06-.3.16-.46.04-.17-.13-.22-.33-.26-.53,0-.38.35-.53.55-.78.02-.03.05-.05.08-.08.16-.14.36-.24.47-.43.07-.1.2-.08.29-.14.16,0,.32,0,.48-.01.65,0,1.3,0,1.96,0,1.96,0,3.91,0,5.87,0,.3,0,.6.02.89.03,0,.14.12.2.16.31Z"/>
      <path class="cls-1" d="M150.87,11.23c.05.13.1.25.14.38.07.23.18.26.33.07.12-.16.23-.13.32,0,.1.14.07.23-.12.29-.16.05-.37.17-.29.36.07.18.28.2.49.15.2-.05.45-.07.64-.01.3.09.49-.02.68-.22.09-.1.19-.19.29-.29.26-.24.37-.23.56.07.1.15.23.22.39.27.07.02.12.07.12.14,0,.1-.08.15-.16.15-.18,0-.38.07-.51-.14-.04-.07-.11-.19-.22-.08-.1.1,0,.17.06.24.03.04.07.08.1.13.07.11.09.24-.03.32-.14.09-.18-.05-.24-.13-.04-.06-.09-.12-.15-.21-.09.54.04.77.47.87.38.09.52.43.29.76-.08.11-.15.22-.19.35-.13.41-.5.55-1.06.42-.25-.06-.42-.35-.35-.73.05-.26-.05-.33-.26-.31-.28.02-.61-.14-.79.23-.04.08-.13.1-.21.07-.1-.04-.15-.13-.14-.23.04-.25-.09-.44-.2-.64-.12-.21-.26-.2-.37-.04-.48.67-1.22,1.07-1.73,1.71-.28.35-.69.2-1.03.16-.63-.07-.63-.08-.84.5-.08.23-.22.46-.38.66-.13.16-.27.08-.33-.1-.05-.12-.09-.27-.24-.11-.09.1-.34.16-.14.37.3.32.29.73.34,1.12.02.15-.15.21-.18.36.04.02.08.06.1.05.49-.21,1.04,0,1.54-.18.08-.03.16-.05.22.04.06.1-.02.14-.08.19-.12.09-.12.2-.03.32.1.12.22.15.36.13.03,0,.07-.02.07-.03.01-.16-.13-.33.07-.48.17-.14.17-.27-.02-.46-.19-.18-.06-.4.13-.55.17-.13.33-.13.44.07.07.12.16.17.3.17.13,0,.2.06.19.2-.01.13-.1.2-.22.2-.27-.01-.42.06-.44.38-.01.22-.14.42.12.6.2.14.22.41.2.63-.03.22-.07.4.05.61.09.16-.09.26-.24.29-.21.04-.43.07-.64.09-.24.02-.54-.09-.49.36.01.12-.17.17-.29.07-.22-.16-.4-.05-.53.09-.16.18-.35.11-.53.12-.29.03-.23-.2-.25-.36-.02-.12-.1-.17-.22-.21-.13-.03-.25-.09-.38-.14-.12-.05-.23-.11-.19-.27.04-.15.17-.19.29-.15.35.1.32-.12.35-.35.04-.36-.19-.71-.02-1.07.03-.07,0-.16-.1-.19-.12-.03-.25-.02-.34.08-.16.17-.34.3-.55.39-.08.03-.12.17-.23.08-.08-.07-.07-.17-.05-.27.01-.08.05-.15.08-.23.03-.07.1-.16,0-.21-.08-.04-.23-.06-.26.02-.15.41-.63.41-.88.71-.28.33-.3.41.07.63.33.2.34.56.01.76-.13.08-.29.16-.24.33.14.42-.12.72-.31,1.03-.11.18.01.55-.32.52-.2-.01-.37-.2-.51-.37-.05-.06-.09-.03-.14-.01-.07-.17-.13-.35-.21-.51-.14-.27-.31-.53-.63-.63.03-.05.06-.09.09-.14.02-.08.08-.14.13-.19.07-.05.14-.07.21-.11.03-.02.05-.04.08-.05.13-.08.25-.18.35-.29.43-.38.78-.84,1.18-1.25.06-.06.13-.12.2-.17.07-.05.15-.08.22-.12.1-.06.18-.14.24-.24.13-.19.32-.33.43-.53.36-.39.74-.77,1.14-1.13.13-.08.26-.17.35-.32.02-.03.04-.06.06-.09.07-.09.16-.15.26-.18.2-.12.43-.21.5-.47.03-.11.08-.2.19-.26.11-.04.2-.11.24-.23.01-.03.03-.06.05-.09.1-.1.21-.2.33-.27.22-.1.36-.3.54-.45.11-.1.19-.26.39-.2.07.13-.01.22-.08.32.02,0,.05,0,.07-.02.32-.35.65-.65,1.13-.84.53-.2.81-.75,1.05-1.28.09-.2.08-.36-.01-.53.05-.18.16-.26.35-.25Z"/>
      <path class="cls-1" d="M141.11,20.04c.05.06.11.12.16.18.04.06.13.02.16.09-.01.1-.07.15-.16.16-.14-.11-.18-.26-.16-.43Z"/>
      <path class="cls-1" d="M135.65,27.51c-.02-.05-.05-.11-.07-.16.11,0,.22,0,.32,0-.02.11.03.24-.08.33-.09-.03-.12-.11-.17-.18Z"/>
      <path class="cls-1" d="M135.39,32.04c0-.13.02-.26.02-.39.03-.03.06-.06.09-.08.12.31.11.61-.11.88-.04-.13-.05-.27,0-.4Z"/>
      <path class="cls-1" d="M135.8,30.9s-.09-.05-.14-.07c.02-.14.05-.28.07-.42.03.03.06.06.09.09.03.08.06.15.06.24,0,.07-.03.12-.08.16Z"/>
      <path class="cls-1" d="M61.88,27.67c-.07.08-.17.18-.26.11-.14-.11-.04-.29-.07-.44.12.1.09.34.33.32Z"/>
      <path class="cls-1" d="M98.6,23.13c-2.06,0-4.13,0-6.19,0,0-.02,0-.04,0-.06,1.98,0,3.95,0,5.93,0,.09,0,.19-.02.26.07Z"/>
      <path class="cls-1" d="M99.41,25.4c0-.75,0-1.51,0-2.26.14.05.09.18.09.27,0,.62,0,1.23,0,1.85,0,.13.03.28-.18.28-.03-.08.05-.11.09-.15Z"/>
      <path class="cls-1" d="M99.41,25.4c-.03.05-.06.1-.09.15-.13,0-.26,0-.4,0,.16-.05.32-.1.48-.15Z"/>
      <path class="cls-1" d="M96.48,27.92c-.15.2-.39.17-.59.2-.59.09-1.17.07-1.76-.05-.08-.02-.14-.08-.18-.15.84,0,1.68,0,2.53,0Z"/>
      <path class="cls-1" d="M95.02,33.01c-.35,0-.71,0-1.06,0,.35-.15.71-.07,1.07-.06,0,.02,0,.04,0,.06Z"/>
      <path class="cls-1" d="M36.64,23.13c.52-.15,1.06-.05,1.59-.07.26,0,.53-.08.78.07-.79,0-1.58,0-2.37,0Z"/>
      <path class="cls-1" d="M38.58,29.05s-.04,0-.06,0c0-.32,0-.65,0-.97.02,0,.04,0,.06,0,0,.32,0,.65,0,.97Z"/>
      <path class="cls-1" d="M38.58,28.08s-.04,0-.06,0c0-.16-.07-.34.06-.49,0,.16,0,.33,0,.49Z"/>
      <path class="cls-1" d="M38.58,26.86c0,.14.07.29-.06.41,0-.14-.05-.29.06-.41Z"/>
      <path class="cls-1" d="M56.67,32.93c-.41.12-.82.33-1.22-.01.14-.14.33-.03.49-.08.15-.06.3-.02.46-.03.11,0,.23,0,.28.12Z"/>
      <path class="cls-1" d="M57.57,32.78c-.19.05-.38.1-.57.15,0-.05,0-.1,0-.15.19,0,.38,0,.57,0Z"/>
      <path class="cls-1" d="M56.67,32.93c-.08-.03-.17-.06-.25-.09-.02-.02-.03-.03-.02-.05,0-.01.02-.02.03-.02h.48c-.08.05-.17.1-.25.15Z"/>
      <path class="cls-1" d="M60.27,27.91c-.08-.3-.28-.53-.42-.8.12-.13.24-.22.4-.06.09.09.21.23.34.13.13-.1.07-.27.03-.41-.02-.08-.03-.16-.04-.24.14.11.17.27.16.43-.02.3,0,.58.28.78.12.09.14.19-.02.28-.18.1-.26.35-.51.37-.07-.17-.04-.38-.23-.49Z"/>
      <path class="cls-1" d="M61.8,28.8c-.05-.11-.17-.18-.16-.32.15.01.35-.04.39.18.03.16-.12.13-.22.14Z"/>
      <path class="cls-1" d="M61.47,28.16c-.14-.01-.21.12-.33.16,0-.11,0-.21.09-.29.2-.19.23-.05.23.13Z"/>
      <path class="cls-1" d="M60.27,27.91c.32.05.26.27.23.49-.02,0-.05,0-.07,0-.05-.16-.11-.32-.16-.49Z"/>
      <path class="cls-1" d="M126.12,25.47c-.27,0-.54,0-.82,0,.1-.37.42-.36.7-.38.48-.04.97.02,1.45-.08.4-.08.7-.22.82-.64.08-.26.24-.48.52-.58,0,.3,0,.59,0,.89-.32.53-.84.5-1.35.49-.46-.01-.95-.07-1.32.31Z"/>
      <path class="cls-1" d="M122.7,32.45c-.17-.36-.05-.73-.08-1.1-.02-.25,0-.51,0-.76,0-.52,0-1.04,0-1.57,0-.13-.04-.27.08-.38v3.81Z"/>
      <path class="cls-1" d="M122.54,30.58c0,.79,0,1.58,0,2.37,0,.34.14.68,0,1.02-.04.1-.06.2-.17.25-.06-.06-.07-.14-.05-.22.04-1.76,0-3.52.02-5.28,0-.51,0-1.02,0-1.53,0-.16-.06-.37.19-.42,0,1.27,0,2.54,0,3.81Z"/>
      <path class="cls-1" d="M122.54,26.78c-.15.19-.07.41-.08.62-.01.44,0,.88,0,1.33-.05.03-.09.01-.12-.03-.06-.16-.04-.33-.07-.5,0-.46-.02-.92.02-1.37.01-.16.05-.32.17-.44.03,0,.06,0,.09,0,0,.13,0,.27,0,.4Z"/>
      <path class="cls-1" d="M120.74,25.48c-.16,0-.33,0-.49,0,.48-.3,1.46-.35,1.79-.08-.43.07-.88-.08-1.3.08Z"/>
      <path class="cls-1" d="M120.74,25.48c.42-.27.86-.14,1.3-.08.07,0,.13.02.16.09-.49,0-.98,0-1.46,0Z"/>
      <path class="cls-1" d="M122.36,25.65s0,.05.02.07c.06.09.09.19.04.3-.1.1-.08.23-.1.35-.04.03-.07.03-.12.02-.02-.04-.03-.08-.03-.12,0-.19,0-.38,0-.57.02-.01.03-.03.05-.04.05,0,.09,0,.14,0Z"/>
      <path class="cls-1" d="M122.29,26.38c.01-.11-.03-.24.08-.33.03.02.04.04.03.06,0,.02-.02.03-.02.03,0,.09-.01.18.08.25-.11.62-.06,1.24-.08,1.86-.05.02-.09.01-.12-.03-.04-.61-.11-1.22.04-1.83Z"/>
      <path class="cls-1" d="M122.37,26.13s0-.06,0-.09c0-.11,0-.21,0-.32.22.14.21.27,0,.41Z"/>
      <path class="cls-1" d="M57.64,25.82s-.05-.02-.08-.03c.17-.1.33-.12.48.03-.13.04-.27.04-.4,0Z"/>
      <path class="cls-1" d="M122.37,34.07c0,.05,0,.11,0,.16,0,.09.01.18-.07.24-.01-.02-.02-.05-.03-.07-.04-.69-.02-1.39-.01-2.08.04-.05.08-.05.13-.02.02.59.05,1.18-.02,1.77Z"/>
      <path class="cls-1" d="M122.3,32.29c0,.7-.02,1.41-.03,2.11-.02,0-.04,0-.06-.01,0-.02-.01-.05-.02-.07,0-1.92.01-3.83.02-5.75.06-.02.1,0,.11.07.05,1.22.11,2.44-.03,3.66Z"/>
      <path class="cls-1" d="M122.28,28.56s-.04,0-.06,0c0-.05-.02-.11-.02-.16-.03-.68-.08-1.35.03-2.03.02,0,.04,0,.07,0,0,.62,0,1.24,0,1.86.04.11.06.22-.02.32Z"/>
      <path class="cls-1" d="M140.46,30.54c-.12.04-.18.06-.24.08-.13.06-.25.06-.31-.08-.06-.14.03-.23.15-.28.27-.11.32-.21.14-.5-.13-.2-.07-.54-.07-.82,0-.22,0-.41-.31-.39-.22.02-.25-.14-.27-.32-.04-.51-.09-1.01-.14-1.52-.05-.52.46-1.2.98-1.31.19-.04.34-.13.49-.27.29-.28.61-.45,1.05-.26.3.13.3.13.25.46-.1.6-.1,1.2.07,1.79.09.33.23.38.53.2.15-.09.29-.35.47-.16.13.14-.06.34-.13.51-.08.22-.14.44-.1.7.06.37-.07.76.03,1.15.04.16-.02.35.11.5.03.03.06.12.04.15-.26.32-.04.75-.26,1.08-.1.15-.03.34-.05.52-.01.14.03.35-.19.32-.17-.02-.14-.2-.1-.34.06-.26.13-.52.18-.78.03-.14.03-.3.02-.44-.02-.14-.15-.2-.26-.22-.15-.03-.18.12-.19.21-.04.44-.19.87-.25,1.3-.05.33,0,.67.1,1,.11.35.04.62-.28.84-.24.17-.46.38-.41.73.01.09-.04.22-.1.3-.27.31-.26.68-.18,1.03.06.26.04.46-.17.6-.24.16-.53.16-.78.03-.25-.12-.3-.39-.28-.63.01-.19.05-.39.21-.55.25-.27.23-.56-.02-.86-.35-.41-.59-.48-.96-.28-.26.14-.85.08-1.06-.13-.05-.05-.13-.15-.12-.2.12-.31.23-.64.43-.89.17-.21.5-.15.76-.21.12-.02.2.06.26.16.05.08.11.16.19.2.11.06.26.09.34-.02.09-.13-.04-.22-.13-.3-.1-.08-.4-.06-.24-.29.14-.2.28,0,.39.11.16.16.2.12.28-.09.12-.29.2-.55.08-.84-.01-.03-.04-.1-.03-.1.4-.27-.03-.58.1-.9Z"/>
      <path class="cls-1" d="M138.6,30.88c-.43-.57-.7-.54-1.01.07-.11.23-.28.26-.46.05-.12-.14-.23-.25-.43-.27-.11-.01-.19-.11-.24-.21-.29-.61-.55-1.22-.34-1.93.13-.41.56-.59.96-.43.46.19.82.56,1.31.69.23.06.35.23.33.49-.01.31-.01.61.07.92.06.22-.05.42-.21.62Z"/>
      <path class="cls-1" d="M143.04,33.73c-.15.38-.19.79-.39,1.15-.01-.21,0-.43-.04-.64-.08-.32.02-.59.09-.9.25-1.07.7-2.1.68-3.23,0-.12-.03-.25.07-.34.06.04.09.11.11.18.06.31-.09.6-.06.91-.04.27-.08.53-.08.8,0,.04,0,.09-.01.13-.06.43-.2.84-.23,1.27,0,.09,0,.17,0,.26-.09.12-.04.29-.12.41Z"/>
      <path class="cls-1" d="M139.31,36.01c-.21-.19-.43-.38-.64-.57-.07-.04-.13-.08-.16-.15-.17-.28-.4-.51-.68-.67-.16-.11-.29-.24-.38-.4-.03-.08-.06-.15-.09-.23.83.5,1.65,1.02,1.96,2.02Z"/>
      <path class="cls-1" d="M139.08,34.42c.14.01.64.63.6.76-.03.09-.06.18-.19.18-.23,0-.65-.62-.57-.83.03-.07.08-.11.15-.11Z"/>
      <path class="cls-1" d="M143.47,29.94c0-.05-.01-.11-.02-.16,0-.05.01-.1.02-.16.03-.05.04-.1.1-.12.14,0,.24.07.34.15.09.1.23.18.21.35-.04.34-.32.4-.57.5-.1-.18.01-.39-.07-.57Z"/>
      <path class="cls-1" d="M137.35,33.99c-.35-.32-.6-.72-.79-1.14.06-.03.14-.06.18,0,.25.36.54.69.61,1.14Z"/>
      <path class="cls-1" d="M143.45,29.29c-.16-.44-.04-.9-.07-1.35-.02-.25,0-.51,0-.76.05-.03.08-.01.11.03,0,.07.02.13.04.2.04.41.05.82.04,1.23,0,.15.04.3.02.45-.02.09-.06.16-.14.2Z"/>
      <path class="cls-1" d="M142.17,36.41s.03,0,.04,0c.17-.01.33.02.38.2.02.08-.04.19-.12.23-.19.09-.27-.09-.39-.19.03-.08.06-.17.08-.25Z"/>
      <path class="cls-1" d="M143.46,27.34c0-.05,0-.1-.01-.16-.09-.16.02-.34-.07-.49-.01-.14-.14-.26-.07-.41.1-.04.12,0,.15.1.08.32.08.64.08.96-.01,0-.03.02-.04.03-.01-.01-.03-.02-.04-.03Z"/>
      <path class="cls-1" d="M135.82,30.74c0-.08,0-.16,0-.24.21.21.22.47.22.74-.03.02-.05.02-.08,0h0c-.07-.16-.11-.33-.15-.5Z"/>
      <path class="cls-1" d="M135.96,31.24s.05,0,.08,0c.03.16.06.32.09.47-.15-.13-.17-.3-.17-.48Z"/>
      <path class="cls-1" d="M143.39,26.7c.13.15.06.33.07.49-.02,0-.05,0-.07,0,0-.16,0-.32,0-.49Z"/>
      <path class="cls-1" d="M143.45,29.29c.02-.06.04-.11.06-.17.02.01.04.02.06.03.07.12.08.24-.02.36-.03.03-.06.07-.09.1,0-.11-.01-.22-.02-.32Z"/>
      <path class="cls-1" d="M138.57,35.28c.03.05.06.1.09.16-.52-.3-.93-.7-1.23-1.22.13.11.27.23.4.34.29.2.52.45.74.72Z"/>
      <path class="cls-1" d="M135.82,30.74c.09.15.15.31.15.49-.11-.08-.14-.21-.17-.33,0-.05.01-.11.02-.16Z"/>
      <path class="cls-1" d="M148.11,33.98c-.25.03-.39-.16-.57-.26-.09-.05-.18-.08-.27-.02-.09.06-.07.16-.04.26.1.37.37.59.66.78.29.18.58.3.68.71.06.25.35.45.62.59.41.2.74.5.92.92.09.22.24.39.42.54.37.33.77.65.58,1.24-.02.07.08.15,0,.25-.33-.23-.71-.23-1.1-.21-.28.02-.43-.27-.7-.33-.25-.05-.48-.23-.72-.35-.2-.1-.73.15-.83.4-.07.17-.19.32-.2.52-.07-.35-.13-.68-.14-1.03-.01-.73-.82-1.38-1.72-1.27.5-.35.47-.78.53-1.21.09-.61-.25-.96-.62-1.3-.16-.15-.35-.32-.64-.3-.21.01-.4-.18-.42-.37-.01-.2.14-.37.37-.42.08-.02.17-.02.23-.07.32-.28.61-.19.91.05.14.11.27.23.45.25.1.01.23.04.3-.06.07-.1.03-.21-.05-.3-.08-.11-.14-.24-.25-.32-.58-.41-.95-1.03-1.52-1.43-.34-.25-.54-.58-.67-.97.29.02.41.25.55.45.05.14.14.24.27.32.05.03.09.06.13.1.19.19.39.37.57.58.16.18.36.32.52.5.03.02.05.05.08.08.16.17.32.35.53.47.42.26.7.65,1.02,1,.06.07.12.14.1.25Z"/>
      <path class="cls-1" d="M149.24,42.09c-.16-.07-.37.14-.48-.08-.05-.1-.02-.26.12-.31.25-.09.52-.23.76.01.25.26.52.25.81.12.09-.04.22-.13.23-.21.04-.46.34-.83.43-1.27.03-.14.08-.25.17-.35.11-.13.13-.28.17-.44.03-.13-.18-.39.09-.37.24.02.6-.07.72.3.06.18.11.36.13.54.04.37.27.51.61.51.23,0,.29.13.41.3.27.36.16.68.09,1.06-.1.5.03,1.03-.17,1.54-.08.2-.19.27-.35.35-.2.1-.22-.08-.3-.17-.25-.29-.58-.25-.9-.21-.14.02-.25.02-.39-.03-.4-.15-.71,0-.85.41-.01.04,0,.09-.03.12-.04.05-.09.11-.15.12-.44.1-.74.6-1.27.47-.09-.02-.09-.08-.1-.15-.01-.13.02-.24.16-.3.21-.09.36-.23.51-.39.09-.09.15-.19.14-.32-.03-.33.06-.59.37-.79.24-.15.03-.29-.11-.34-.27-.09-.55-.14-.82-.1Z"/>
      <path class="cls-1" d="M146.78,40.17c-.25-.05-.33-.24-.43-.38-.25-.36-.66-.42-1-.12-.15.13-.33.42-.51.22-.16-.18.09-.41.24-.57.08-.09.19-.14.27-.24.19-.24.2-.41-.12-.52-.27-.1-.39-.37-.65-.51-.22-.12.01-.45.15-.63.13-.18.21,0,.3.09.18.2.38.2.54-.03.1-.14.19-.18.33-.08.48.33.77.78.81,1.37,0,.07.01.16-.02.2-.42.43-.26.82.09,1.22Z"/>
      <path class="cls-1" d="M148.07,40.26c-.06.26-.1.46-.15.65-.01.06-.05.1-.11.1-.09,0-.16-.05-.18-.13-.04-.13-.03-.27-.18-.34-.11-.06-.24-.17-.12-.28.13-.11.22-.33.47-.24.16.05.27.12.27.23Z"/>
      <path class="cls-1" d="M151.12,36.97l.23.18c.28.34.6.64.92.95.08.08.16.16.23.24.04.14.22.2.19.37-.01.01-.02.03-.03.04-.55-.54-1.15-1.03-1.63-1.64-.13-.16-.41-.26-.32-.55.05.03.1.07.15.1.1.09.17.21.26.3Z"/>
      <path class="cls-1" d="M149.89,35.61c.27.32.55.64.82.96-.43-.04-.77-.13-.84-.67-.05-.32-.42-.5-.65-.74-.08-.08-.15-.15-.14-.27.42.07.61.4.81.72Z"/>
      <path class="cls-1" d="M143.37,38.61c-.62-.08-.73-.28-.49-.8.28.19.26.55.49.8Z"/>
      <path class="cls-1" d="M159.09,44.83s.05.06.08.09c.04.04.06.1.07.16,0,.06-.02.12-.07.16-.33-.28-.68-.54-.81-.98.09-.04.13.03.18.07.18.17.34.36.55.5Z"/>
      <path class="cls-1" d="M161.06,46.85s.04,0,.06.01c.12.15.24.3.42.39.17.11.3.24.42.4-.52-.12-.84-.5-1.15-.88.12-.1.18.02.26.08Z"/>
      <path class="cls-1" d="M154.22,40.05c.28.2.51.46.73.73-.44-.13-.7-.48-.98-.81.12-.09.18.01.26.08Z"/>
      <path class="cls-1" d="M161.06,46.85c-.09-.03-.17-.05-.26-.08-.12-.07-.27-.1-.33-.24-.05-.1-.14-.2-.08-.33.32.12.51.36.66.65Z"/>
      <path class="cls-1" d="M154.22,40.05l-.26-.08h0c-.13-.08-.28-.14-.41-.24h0c-.07-.11-.17-.21-.24-.32,0-.03,0-.05,0-.08-.02-.02-.03-.04-.02-.06,0-.02.01-.03.02-.03.26-.03.29.27.48.34.12.18.4.22.43.48Z"/>
      <path class="cls-1" d="M148.9,34.64c.03.05.05.1.08.16-.4-.04-.65-.26-.72-.66.24.14.36.41.63.5Z"/>
      <path class="cls-1" d="M143.14,33.1c.01-.45.06-.89.24-1.3.07.13.06.27,0,.41h0c-.1.12.01.28-.08.41-.03.16-.06.32-.09.48-.02.04-.05.04-.08,0Z"/>
      <path class="cls-1" d="M159.17,45.24c0-.05,0-.11,0-.16.37.09.58.33.68.68-.01.02-.02.03-.03.05-.24-.17-.48-.32-.65-.57Z"/>
      <path class="cls-1" d="M143.47,29.94c.14.17.04.38.07.57-.04.3.08.61-.08.89-.08-.16-.06-.32-.01-.49,0-.32.01-.65.02-.97Z"/>
      <path class="cls-1" d="M160.4,46.2c.03.11.05.22.08.33-.22-.24-.43-.49-.65-.73,0,0,0,0,0,0,.35-.1.42.22.58.4h0Z"/>
      <path class="cls-1" d="M144.5,32.61c-.15-.17-.26-.28-.18-.44.01-.02.08-.04.1-.02.16.1.08.25.08.46Z"/>
      <path class="cls-1" d="M155.6,41.42c.27.06.32.34.49.5-.25-.08-.48-.18-.49-.5Z"/>
      <path class="cls-1" d="M143.45,30.91c0,.16,0,.33.01.49,0,.11,0,.21-.01.32-.02.04-.05.04-.08,0,.03-.27-.08-.55.07-.81Z"/>
      <path class="cls-1" d="M153.31,39.25s0,.05,0,.08c-.13-.11-.32-.16-.41-.32.01-.01.02-.02.04-.03.08-.03.16,0,.24,0,.05.01.09.05.12.09.03.06.07.12.02.19Z"/>
      <path class="cls-1" d="M153.56,39.73c.17.03.32.08.41.24-.2.02-.32-.08-.41-.24Z"/>
      <path class="cls-1" d="M154.94,40.78c.14.08.25.19.33.33-.2-.01-.31-.12-.33-.33Z"/>
      <path class="cls-1" d="M152.9,39.01c-.18.02-.26-.06-.24-.24h0c.18-.02.26.06.24.24h0Z"/>
      <path class="cls-1" d="M153.31,39.41c.13.07.24.16.24.32-.13-.07-.24-.16-.24-.32Z"/>
      <path class="cls-1" d="M143.38,31.72s.05,0,.08,0c-.01.17.07.35-.08.49,0-.14,0-.27,0-.41,0-.03,0-.05,0-.08Z"/>
      <path class="cls-1" d="M158.52,44.35c-.05-.03-.11-.06-.16-.09-.03-.05-.06-.1-.08-.16.18-.01.25.12.33.24-.03.04-.06.04-.09,0Z"/>
      <path class="cls-1" d="M158.02,43.79c.15.05.24.15.25.31-.14-.06-.22-.17-.25-.31Z"/>
      <path class="cls-1" d="M143.3,32.61c.01-.14-.05-.29.08-.41-.01.14.05.29-.08.41Z"/>
      <path class="cls-1" d="M143.14,33.1s.05,0,.08,0c0,.14.05.29-.07.41-.05-.05-.05-.11-.01-.17,0-.08,0-.16,0-.24Z"/>
      <path class="cls-1" d="M143.13,33.33c0,.06,0,.11.01.17-.01.08.01.18-.1.23.02-.13-.04-.29.08-.4Z"/>
      <path class="cls-1" d="M144.19,28.56c-.08.06-.16.12-.24.17.17-.62.63-1.02,1.12-1.38.15-.11.31-.22.4-.38.12-.21.28-.31.53-.27-.08.24-.32.34-.44.55-.13.12-.27.23-.36.39-.34.3-.59.7-1.01.92Z"/>
      <path class="cls-1" d="M143.54,27.35c.13.17.14.39.14.57,0,.26.08.49.18.73-.35.09-.3-.2-.36-.38.02-.31-.04-.61.04-.92h0Z"/>
      <path class="cls-1" d="M143.54,28.32c.12.1.09.34.32.32,0,.05,0,.1,0,.16-.07.04-.07.1-.08.17-.07.07-.09.2-.23.17h-.02s-.02,0-.02,0c-.01-.13-.03-.27-.04-.4.08-.13-.02-.28.07-.4Z"/>
      <path class="cls-1" d="M160.87,11.95c-.03.12-.12.2-.23.25,0-.15.09-.23.23-.25Z"/>
      <path class="cls-1" d="M160.55,12.44c-.05,0-.1,0-.16,0,.06-.1.13-.19.25-.24-.03.08-.06.15-.09.23Z"/>
      <path class="cls-1" d="M146.55,22.65c-.13.14-.14.38-.37.39-.17,0-.21-.15-.19-.3.02-.16.05-.34.27-.33.13,0,.26.06.29.23Z"/>
      <path class="cls-1" d="M151.45,17.71c-.2,0-.19-.17-.22-.28-.03-.13.07-.2.19-.18.14.02.25.12.25.27,0,.13-.09.18-.22.19Z"/>
      <path class="cls-1" d="M151.15,16.05c-.06-.21.09-.34.22-.42.1-.06.3-.07.34.09.05.17-.13.13-.22.13-.16,0-.18.2-.34.2Z"/>
      <path class="cls-1" d="M145.98,21.47c-.02.09-.05.18-.16.18-.11,0-.16-.09-.14-.2.01-.1.09-.17.19-.16.1,0,.12.09.11.18Z"/>
      <path class="cls-1" d="M144.41,24.18c0,.06-.02.11-.08.12-.08.01-.11-.05-.13-.12,0-.06,0-.11.07-.12.08,0,.12.05.13.12Z"/>
      <path class="cls-1" d="M148.92,13.02c.6-.45,1.11-1,1.64-1.54.2.11.2.24.13.46-.14.43-.42.78-.69,1.08-.2.22-.44.63-.91.5-.2-.05-.28.11-.31.25-.08.4-.45.39-.73.68.02-.35.32-.41.29-.63-.05-.1-.01-.18.03-.27.15-.21.36-.36.55-.53Z"/>
      <path class="cls-1" d="M147.45,14.55c.3-.35.62-.67.98-.97-.03.08-.05.16-.08.24-.19.18-.38.36-.57.54-.09.09-.17.21-.32.2Z"/>
      <path class="cls-1" d="M146.39,15.53c.11-.06.21-.12.32-.17-.06.31-.29.42-.57.49-.05-.05-.05-.1.01-.15h0c.05-.09.15-.13.24-.17Z"/>
      <path class="cls-1" d="M147.84,14.72c0,.08-.02.14-.1.15-.07,0-.14-.01-.16-.08-.02-.09.05-.15.12-.17.08-.03.11.05.13.11Z"/>
      <path class="cls-1" d="M145.51,16.34c.14-.07.21-.24.38-.26-.08.17-.19.3-.38.35,0-.03,0-.06,0-.08Z"/>
      <path class="cls-1" d="M143.69,18.35c.02-.14.1-.22.25-.24-.04.12-.12.2-.25.24Z"/>
      <path class="cls-1" d="M146.88,15.12c.06-.11.13-.19.24-.25,0,.16-.08.24-.24.25Z"/>
      <path class="cls-1" d="M122.37,34.07c0-.59,0-1.19,0-1.78-.08-.97-.02-1.95-.03-2.93,0-.21-.05-.43.04-.63.03,0,.05,0,.08,0,0,1.63,0,3.26,0,4.88,0,.15.06.33-.08.46Z"/>
      <path class="cls-1" d="M122.38,28.72c0,1.19,0,2.37,0,3.56-.02,0-.05,0-.07,0,0-1.24-.01-2.48-.02-3.73,0-.11.01-.22.02-.32.02,0,.05,0,.07,0,0,.16,0,.32,0,.49Z"/>
      <path class="cls-1" d="M152.27,38.11c-.41-.22-.7-.54-.92-.95.36.27.69.55.92.95Z"/>
      <path class="cls-1" d="M153.14,38.93s.01.04.02.07c-.08.11-.17-.02-.25,0-.05-.11-.14-.19-.24-.24.01-.16-.19-.25-.16-.41.08.08.16.16.25.24.13.11.26.23.39.34Z"/>
      <path class="cls-1" d="M153.14,38.93c-.2-.04-.31-.17-.39-.34.08.03.15.06.23.1.05.08.11.16.16.24Z"/>
      <path class="cls-1" d="M151.12,36.97c-.15-.05-.22-.16-.26-.3.15.05.24.15.26.3Z"/>
      <path class="cls-1" d="M142.47,28.16c.12.14.11.25.02.38-.12-.11-.11-.22-.02-.38Z"/>
      <path class="cls-1" d="M138.57,35.28c-.27-.21-.51-.46-.74-.72.35.13.59.39.74.72Z"/>
      <path class="cls-1" d="M143.54,28.32c-.02.14.05.29-.07.4,0-.46,0-.92,0-1.38.03,0,.05,0,.08,0,0,.32,0,.65,0,.97Z"/>
      <path class="cls-1" d="M145.25,31.16c.32.06.45.35.66.56-.03.03-.06.03-.09,0-.19-.19-.38-.38-.57-.56Z"/>
      <path class="cls-1" d="M145.81,31.72s.06,0,.09,0c.19.17.43.29.5.56-.22-.16-.44-.32-.59-.55Z"/>
      <path class="cls-1" d="M146.4,32.27c.26.08.41.29.55.5-.26-.08-.41-.29-.55-.5Z"/>
      <path class="cls-1" d="M144.85,30.74c.2.02.25.18.31.34-.19-.03-.3-.14-.31-.34Z"/>
      <path class="cls-1" d="M151.98,42.47c-.02.14-.13.21-.23.26-.21.11-.68-.02-.8-.21-.08-.12,0-.17.08-.23.15-.11.76-.06.89.08.03.03.04.06.06.09Z"/>
      <path class="cls-1" d="M153.24,39.07c.18.02.26.18.39.27.05.08.11.15.16.23-.23-.01-.3-.25-.48-.33-.02-.06-.05-.11-.07-.17Z"/>
      <path class="cls-1" d="M160.4,46.2c-.23-.08-.31-.38-.58-.4-.11-.33-.41-.51-.65-.73,0-.05,0-.1,0-.15.05.02.11.05.16.07.18.12.32.28.48.43.11.1.21.21.32.31.09.13.27.21.28.39,0,.03,0,.05,0,.08Z"/>
      <path class="cls-1" d="M158.52,44.35s.06,0,.09,0c.17.15.37.28.48.49-.28-.06-.41-.29-.57-.48Z"/>
      <path class="cls-1" d="M161.54,47.26c-.24-.03-.36-.18-.42-.39.19.07.3.24.42.39Z"/>
    </g>
  </g>
</svg>