<?xml version="1.0" encoding="UTF-8"?>
<svg id="Layer_1" data-name="Layer 1" xmlns="http://www.w3.org/2000/svg" viewBox="0 0 172.96 59.73">
  <defs>
    <style>
      .cls-1 {
        fill: #bbbdbf;
      }
    </style>
  </defs>
  <path class="cls-1" d="M109.78,39.31c.07-.03.14-.05.21-.08-.02-.03-.02-.06-.03-.06-.49-.13-.98-.26-1.47-.4-.14-.04-.36-.02-.3-.29,0-.02-.1-.08-.16-.11-.23-.1-.47-.18-.68-.3-.13-.07-.39.02-.36-.32,0-.09-.36-.23-.56-.34-.16-.09-.4-.08-.35-.38.01-.06-.18-.16-.29-.24-.05-.03-.13-.03-.16-.08-.29-.42-.78-.68-.97-1.19-.08-.22-.25-.4-.39-.59,0,0-.07.03-.11.05-.2-.46-.4-.93-.6-1.39-.01.04-.03.1-.04.17-.02,0-.04,0-.06.01-.11-.47-.21-.94-.32-1.41-.03,0-.07,0-.1,0-.06.2-.12.39-.21.67-.04-.18-.06-.27-.07-.3-.19.47-.38,1-.62,1.5-.18.37-.4.73-.65,1.06-.27.35-.63.62-.88.98-.21.3-.58.48-.73.74-.25.44-.76.54-1,.95-.03.05-.11.08-.17.11-.38.22-.76.45-1.14.67-.03.02-.07.05-.1.06-.73.26-1.45.57-2.2.76-.68.17-1.39.25-2.1.29-.55.03-1.11-.06-1.66-.12-.76-.09-1.52-.19-2.27-.31-.12-.02-.35.03-.3-.24,0-.02-.13-.07-.21-.09-.49-.15-.98-.31-1.52-.47.1-.07.16-.11.21-.14-.02-.02-.03-.04-.04-.05-.32-.13-.65-.24-.97-.38-.09-.04-.14-.16-.21-.24-.09-.09-.19-.18-.28-.27-.19-.17-.38-.33-.57-.5-.01-.01-.02-.04-.03-.05-.35-.33-.71-.65-1.05-.98-.11-.11-.18-.26-.28-.38-.12-.14-.26-.27-.39-.41-.01-.01-.03-.03-.04-.04-.15-.33-.29-.67-.43-1-.03-.08-.05-.17-.09-.25,0-.02-.1.01-.2.03-.18-.71-.38-1.47-.59-2.29-.02.2-.03.35-.05.54-.34-1.35-.35-5.07,0-5.87.02.12.03.2.05.35.45-2.38,1.74-4.19,3.5-5.68,1.76-1.49,3.81-2.31,6.14-2.39h-.97v-.09h3.13s0,.04,0,.06c-.16.02-.33.04-.49.06,0,.02,0,.04,0,.05.35.03.7.02,1.04.08.67.13,1.38.2,1.99.48.91.41,1.84.82,2.58,1.53.57.55,1.21,1.04,1.73,1.63.77.86,1.47,1.78,1.77,2.94.1.37.3.72.49,1.15.05-.21.07-.35.12-.5.67-1.97,1.69-3.71,3.35-5.02.67-.52,1.43-.93,2.14-1.39.02-.01.03-.02.05-.03,1.12-.54,2.29-.84,3.53-.86.2,0,.39-.03.59-.1h-1.04s0-.06,0-.09h3s0,.04,0,.05c-.1.02-.19.05-.29.07,0,.02,0,.03,0,.05.29.02.59.01.88.07.71.14,1.45.23,2.11.5.86.36,1.71.81,2.47,1.35,1.37.98,2.44,2.23,3.19,3.78.36.75.55,1.52.79,2.3.3.96.39,1.92.31,2.9-.08,1.15-.32,2.29-.72,3.37-.37,1-.89,1.96-1.57,2.79-.52.64-1.06,1.28-1.75,1.76-.56.38-1.09.82-1.67,1.18-.39.23-.85.34-1.26.54-.77.39-1.62.35-2.44.52-1.31.27-2.57-.08-3.86-.17-.43-.03-.86-.15-1.29-.22,0-.02,0-.04-.01-.06ZM103.06,26.73c-.14,0-.24,0-.35,0-1.6,0-3.21,0-4.81,0-.23,0-.33-.07-.4-.29-.08-.26-.22-.5-.33-.75-.02,0-.04.02-.07.02.01.08.02.16.03.23-.44-1.16-1.32-1.84-2.43-2.32,0,0,.02-.05.04-.12-.21-.06-.42-.12-.63-.17-1.37-.33-2.68-.27-3.96.39-1.01.52-1.71,1.34-2.28,2.24-.53.84-.71,1.85-.81,2.84-.07.67-.07,1.36.23,2.01.23.51.36,1.07.53,1.61,0,.03.03.05.05.07.04-.04.07-.07.07-.06.25.33.51.64.73.98.46.7,1.21,1.03,1.84,1.5.21.15.51.19.77.25.81.19,1.63.23,2.43.06.54-.12,1.07-.38,1.56-.66.65-.36,1.17-.88,1.57-1.51.21-.32.45-.63.61-.97.1-.22.18-.31.41-.31,1.43,0,2.87,0,4.3,0,.25,0,.51-.02.8-.04-.15-1.69-.14-3.33.09-5.02ZM115.76,23.6l.02-.1c-.31-.07-.62-.14-.94-.2-1.32-.25-2.61-.22-3.83.43-1.27.67-2.18,1.68-2.64,3-.81,2.36-.62,4.62,1.01,6.62.92,1.13,2.11,1.8,3.56,1.94.91.09,1.83.1,2.69-.32.16-.08.28-.22.44-.27.31-.09.58-.22.81-.47.16-.18.42-.29.55-.48.26-.41.76-.65.81-1.2,0-.02.04-.04.05-.07.13-.19.32-.36.38-.58.17-.65.3-1.31.44-1.97.13-.62-.02-1.22-.15-1.82-.11-.56-.23-1.13-.35-1.69-.02-.11-.12-.2-.18-.3-.14.11-.16-.02-.19-.1-.31-.87-.98-1.44-1.67-1.96-.27-.21-.63-.31-.9-.44-.01,0,.04-.01.09-.03Z"/>
  <path class="cls-1" d="M48.45,37.16c.08-.03.13-.05.21-.08-.09-.06-.15-.11-.22-.15-.35-.16-.7-.32-.8-.75-.01-.06-.09-.14-.14-.15-.35-.03-.35-.35-.49-.55-.09-.12-.22-.2-.32-.31-.08-.09-.16-.2-.22-.31-.05-.08-.06-.19-.1-.27-.24-.53-.54-1.03-.7-1.58-.17-.57-.22-1.18-.33-1.83-.02.1-.03.15-.04.24-.13-1.12-.14-2.19-.01-3.25.08-.64.2-1.27.36-1.89.13-.49.38-.95.55-1.44.29-.85.81-1.56,1.34-2.27.96-1.27,2.21-2.18,3.61-2.91,1.12-.59,2.32-.9,3.59-.94.25,0,.49-.04.74-.1h-1.13s0-.06,0-.1h2.87s0,.05,0,.07c-.16.02-.32.03-.48.05,0,.02,0,.03,0,.05.31.02.63.01.94.07.76.14,1.57.18,2.26.49.96.44,1.95.86,2.79,1.56.63.52,1.24,1.06,1.75,1.69.34.41.62.87.92,1.32.08.12.16.25.23.38.04.09.07.19.1.29-.1.03-.2.07-.3.08-.2.01-.4,0-.6,0-1.55,0-3.09,0-4.64,0-.28,0-.57-.09-.85-.15-.05-.01-.08-.11-.11-.17l.07-.08c-.4-.19-.81-.37-1.18-.54,0,0,.05-.01.15-.05-.13-.07-.21-.13-.3-.15-1.32-.34-2.65-.46-3.94.04-1.45.56-2.48,1.58-3.09,3.02-.62,1.46-.6,2.95-.32,4.47.04.2,0,.48.13.6.27.27.28.64.47.93.42.64.87,1.25,1.49,1.72,1.18.89,2.49,1.23,3.95,1.1.61-.05,1.16-.22,1.71-.53.43-.24.89-.44,1.23-.81.32-.34.65-.67.91-1.05.3-.45.52-.95.8-1.48-.18-.02-.31-.05-.44-.05-.43-.01-.86-.02-1.29-.01-.2,0-.28-.05-.28-.27,0-1.27,0-2.55-.02-3.82,0-.25.14-.24.3-.24,2.06,0,4.13-.01,6.19-.02.2,0,.4.01.6,0,.07,0,.17-.08.18-.14.06-.43.13-.86.13-1.28.01-1.96,0-3.92,0-5.88,0-.21,0-.43,0-.64-.03-.02-.06-.03-.1-.05.18-.02.36-.06.54-.06,2.25,0,4.51-.01,6.76-.01,2.56,0,5.12,0,7.69,0,.26,0,.52.02.78.02.15,0,.21.05.21.21,0,1.27-.01,2.55,0,3.82,0,.22-.07.27-.27.27-2.85,0-5.7.02-8.55.03-.8,0-1.59,0-2.39-.02-.27,0-.4.04-.39.37.03,1.1.01,2.21.01,3.34.13,0,.23.02.33.02.56,0,1.12.01,1.67,0,.2,0,.26.07.26.26,0,1.3,0,2.61-.02,3.91,0,.06-.14.18-.22.18-.52.02-1.04.01-1.55.02-.16,0-.31.02-.46.02v3.85c.17,0,.3,0,.44,0,3.36,0,6.72,0,10.08,0,.27,0,.54.02.81.02.21,0,.27.08.27.29-.01.71-.01,1.41,0,2.12,0,.53.03,1.05.05,1.58,0,.19-.05.28-.24.29-.3.01-.6.06-.89.06-4.49,0-8.97,0-13.46,0-.48,0-.97-.04-1.47-.06v-.72c.04.21.07.33.09.46.01,0,.03,0,.04-.01v-6.75s-.05,0-.08,0v1.94s-.02,0-.03,0c-.05-.8-.09-1.59-.14-2.39-.02,0-.05-.01-.07-.02-.03.05-.07.1-.08.15-.2,1.21-.79,2.23-1.47,3.22-.39.56-.84,1.06-1.33,1.55-.65.64-1.37,1.16-2.17,1.58-.85.45-1.72.89-2.68,1.05-1.32.21-2.66.38-4.01.13-.79-.15-1.59-.21-2.44-.32.07-.13.09-.18.13-.24-.61-.17-1.21-.35-1.84-.53.06-.08.1-.12.14-.19-.17-.07-.33-.13-.48-.21-.31-.19-.61-.39-.92-.58-.27-.17-.53-.32-.83-.5Z"/>
  <path class="cls-1" d="M102.7,31.3v-3.01s.06,0,.09,0v3.02s-.06,0-.09,0Z"/>
</svg>