<?xml version="1.0" encoding="UTF-8"?>
<svg id="Layer_1" data-name="Layer 1" xmlns="http://www.w3.org/2000/svg" viewBox="0 0 634.15 478.99">
  <defs>
    <style>
      .cls-1 {
        fill: #5113f9;
      }
    </style>
  </defs>
  <path class="cls-1" d="M192.27,458.55c-1.76,3.52-3.54,6.57-6.86,8.7-7.19,4.62-15.16-3.69-19.02-8.93-2.78-3.78-5.11-7.73-6.98-11.82-1.29-2.83-2.57-5.61-3.84-8.35-2.84-6.14-7.02-12.36-13.91-13.96-5.45-1.27-11.3-.23-16.75.81-.11.02-.18.11-.18.22.07,3.97.04,7.99-.1,12.07-.06,1.82-.07,4.21-1.01,5.74-1.2,1.97-3.77,2.62-6.02,2.85-1.78.19-3.72.29-5.81.31-4.03.04-7.93-.01-11.71-.15-.08,0-.12.03-.12.11l.05,27.81c0,.16-.08.25-.25.25l-1.4.02c-.18,0-.32-.14-.33-.31,0,0,0,0,0,0l-.03-27.78c0-.14-.11-.25-.25-.26-1.7-.06-3.39-.2-5.09-.41-4.85-.6-11.5-1.43-12.18-7.59-.31-2.81-.5-5.76-.57-8.85-.16-7.48-.23-15.29-.18-23.43.01-2.82.05-5.54,3.24-6.49,2.66-.8,5.61-.93,8.37-.97,3.28-.05,6.65.02,10.1.22.1,0,.2-.06.24-.16,1.17-3.32,3.3-4.88,6.43-6.21,5.43-2.31,10.75-5.78,14.28-10.43,3.42-4.5,3.42-9.69,2.6-15.14-.02-.17-.17-.29-.34-.28-12.62.39-24.98,1.04-37.3,1.57-3.53.15-6.83.19-9.9.12-2.93-.07-5.44-.76-6.32-3.96-.48-1.75-.84-3.78-1.08-6.07-.67-6.36-.93-13.47-.77-21.35.1-5.42.54-10.48,1.32-15.17.23-1.38.57-2.79,1.01-4.21.75-2.37,1.91-4.14,4.6-4.6,1.4-.24,2.96-.4,4.68-.5,7.08-.39,13.82-.64,20.24-.75.19,0,.35-.12.42-.29,1.57-4.06,4.47-7.31,7.44-10.63,4.19-4.68,6.53-10.35,7.03-17.02.17-2.24.21-4.62.14-7.14,0-.19-.16-.34-.35-.34-6.74.12-14.46.76-20.76.1-2.4-.25-4.6-.8-6.59-1.65-4.27-1.82-7.23-5.59-8.81-10.05-1.13-3.2-1.89-6.48-2.28-9.85-.2-1.76.99-1.71,2.31-1.74,5.28-.15,9.56-.16,12.83-.05,4.33.15,8.89.34,13.69.55,4.89.21,11.04.08,15.37-2.15,2.32-1.2,3.55-3.06,3.69-5.59.09-1.52.1-3.36.03-5.52-.4-12.6-.78-24.2-1.15-34.79,0-.06-.03-.1-.1-.1-.21,0-.43,0-.64.04-10.74,1.81-18.93,3.23-24.58,4.28-2.04.38-2.72-1.24-2.8-2.96-.24-5.17-.51-10.36-.81-15.55,0-.16-.09-.26-.25-.3-3.69-.79-7.29-2.27-10.8-4.44-7.23-4.46-12.78-10.21-11.86-19.36.79-7.88,4.74-15.99,12.07-19.69.21-.11.38-.29.47-.51,2.31-5.64,7.74-8.92,13.54-10.34,2.37-.58,4.84-1.15,7.4-1.69,1.94-.41,3.75-1.19,4.9-2.8,2.43-3.4,1.86-7.52,3-11.39,1.88-6.45,5.79-11.42,11.74-14.91,3.07-1.81,6.37-2.76,9.88-2.86.08,0,.14-.07.14-.15,0-.03-.01-.06-.03-.09-.98-1.15-1.94-2.36-2.89-3.63-1.46-1.94-2.95-3.43-4.92-4.8-2.34-1.62-4.32-2.87-4.95-5.88-.26-1.23-.38-2.34-.37-3.32.04-2.56.04-5.09,0-7.59-.02-1.73-.12-4.37-1.04-5.86-.05-.09-.13-.15-.23-.18-.36-.12-.73-.19-1.1-.19-8.43-.03-16.53-.02-24.29.04-2.64.02-3.77.76-4.32,3.36-.49,2.39-1.1,4.74-1.82,7.07-2.16,7-4.4,13.97-8.17,20.07-2.17,3.51-5.5,7.06-9.58,7.99-2.86.65-3.23-2.76-3.38-4.66-.15-1.87-.19-3.69-.12-5.46.2-5.03.65-10.01,1.35-14.93,1.01-7.13,2.02-13.67,3.03-19.62.19-1.1.48-2.21.89-3.34,1.22-3.4,3.86-5.07,7.21-6,1.71-.47,3.46-.82,5.26-1.04,4.32-.54,8.6-.7,12.85-.49.13,0,.26-.01.38-.05.09-.03.15-.13.12-.23,0-.02-.01-.03-.02-.05-3.35-5.18-6.07-10.74-8.15-16.67-1.21-3.46-1.97-6.71-2.29-9.75-.75-7.26,1.86-13.88,7.4-18.51,3.05-2.55,6.71-4.38,10.67-4.7,4.96-.39,9.31.97,13.07,4.09,2.96,2.46,5.03,5.84,6.46,9.56.05.13.19.22.33.2,1.53-.17,2.98-.28,4.35-.35,10.09-.45,18.62-.66,25.59-.64,6.09.02,12.28.07,18.57.14.12,0,.22-.09.22-.21,0,0,0,0,0,0,.02-3.95.03-7.79.03-11.54,0-2.25,1.54-2.64,3.54-2.66,3.49-.03,6.95-.17,10.39-.4,9.42-.62,18.63-1.3,28.01-1.66,1.5-.06,2.29.63,2.37,2.07.21,3.51.32,7.04.34,10.6,0,.19.14.35.33.37,4.93.66,9.63,1.72,14.12,3.2,5.38,1.76,9.09,5.3,11.84,10.14.04.08.14.1.22.06.02-.01.04-.03.05-.04,3.31-4.52,7.02-8.6,11.15-12.25,4.74-4.19,9.68-7.25,15.7-8.72,2.71-.66,5.43-1.14,8.28-1.53,7.59-1.04,16.69-1.89,27.31-2.58,13.06-.84,26.39-1.45,39.67-1.49,2.24,0,3.88.33,4.25,2.92.26,1.79.5,3.74.74,5.84,1.6,14.1,3.08,28.34,4.44,42.72.02.17.15.3.32.32,4.79.48,9.3,1.29,13.51,2.42,4.37,1.17,7.89,3.27,9.27,7.75.8,2.59,1.31,5.33,1.52,8.22.32,4.32.56,8.65.71,12.98.51,14.1.75,28.15.73,42.14,0,1.51-.06,2.28.57,3.33.41.69.97.9,1.66.63.76-.29,1.59-.73,2.49-1.32,6.06-3.95,12.02-7.72,18.52-10.67.13-.06.22-.19.21-.33-.11-6.97-.25-13.81-.41-20.52-.05-1.88.03-2.98,2.23-3.13,3.43-.23,6.81-.64,9.81-2.12,2.56-1.27,3.8-3.7,4.41-6.37.81-3.54.91-7.54,1.11-11.27.21-3.92.66-6.71,2.17-9.92.06-.12,0-.26-.11-.32-.03-.01-.06-.02-.09-.02-3.87-.3-7.46-.65-10.78-1.03-2.28-.26-2.99-.9-3.16-3.21-.34-4.68-.52-9.37-.54-14.07,0-.17-.09-.26-.26-.26-10.52-.02-20.64,0-30.35.02-1.01,0-1.75-.1-2.23-.32-1-.44-1.49-1.34-1.49-2.69.03-12.25.04-24.54.03-36.89,0-1.04.42-1.83,1.27-2.37.3-.19.93-.28,1.91-.28,11.35,0,23.43-.01,36.25-.03.31,0,.62.01.94.03,1.71.12,2.26,1.53,2.26,3.02-.06,10.87-.07,22.75-.03,35.64,0,2.15-.37,3.85-2.86,3.89-1.08.02-2.17-.01-3.25-.1-.14-.01-.2.05-.2.19.07,5,.27,9.74.6,14.22.05.67.4,1.04,1.04,1.1,3.71.38,7.41.75,11.09,1.09,1.22.12,3.62.34,2.52,2.35-1.4,2.59-2.33,4.99-2.56,8.07-.14,1.89-.25,3.95-.33,6.17-.13,3.69-.57,7.91-2.27,11.17-2.74,5.26-9.59,6.14-14.91,6.37-.1,0-.18.09-.18.19l.44,20.64c0,.14.12.24.25.24.03,0,.05,0,.07-.01,5.18-1.83,10.49-2.44,15.94-1.83,5.39.6,10.87,2.66,14.88,6.2,5.82,5.12,9.23,13.11,7.62,20.88-.54,2.6-1.26,5.12-1.45,7.72-.18,2.45.23,4.96,1.24,7.53.82,2.1,2.21,3.78,4.03,5.11.08.06.19.04.24-.04.01-.01.02-.03.03-.05,2.25-6.32,4.15-12.62,5.69-18.92,2.71-11.03,3.53-22.4.83-33.47-1.95-7.98-5.38-15.38-8.89-22.87-1.09-2.33-1.89-4.84-2.4-7.52-1.19-6.28.91-12.58,5.81-16.71,2.02-1.7,4.32-3.07,6.88-4.09,6.89-2.74,14.53-3.43,22.06-2.93,11.53.76,22.33,6.26,25.19,18.3.95,4.02.95,8.18.34,12.28-.61,4.1-1.72,7.7-3.34,10.78-.57,1.09-1.53,2.59-2.86,4.5-2.81,4.01-3.37,10.03-3.09,14.94.26,4.67,1.08,9.7,2.44,15.07.08.3.19.31.34.04.81-1.44,2.06-2.39,3.29-3.39,5.45-4.43,11.74-6.3,18.86-5.61.06,0,.11-.03.12-.09,0,0,0-.02,0-.03-.19-1.56-.33-3.08-.4-4.59-.92-19.11-1.74-37.1-2.47-53.97-.06-1.5-.17-3.14-.33-4.92-.04-.5-.32-.77-.81-.81-5.95-.53-11.87-.97-17.76-1.31-1.41-.08-2.93-.21-2.99-2.04-.05-1.5-.07-2.93-.06-4.29,0-.11-.09-.2-.2-.2h0c-11.35-.02-22.6-.02-33.75,0-2.53,0-5.03-.02-7.5-.07-4.54-.1-10.64-.68-12.42-5.79-.38-1.11-.66-2.38-.82-3.82-.27-2.37-.42-4.72-.43-7.04-.06-10.82-.01-21.9.13-33.25,0-.15.08-.22.22-.22L446.03,0c.15,0,.27.11.27.26,0,0,0,0,0,0-.08,8.92-.13,18.75-.14,29.47,0,3.09.09,6.1.29,9.01.09,1.31.31,2.65.67,4.04.61,2.35,2.09,3.88,4.45,4.58,1.4.42,2.79.68,4.16.77,2.8.2,5.55.31,8.25.31,12.56.02,25.18.02,37.86-.01,2.44,0,5.15-.09,8.13-.26,2.69-.15,5.19-.64,7.49-1.48,2.61-.95,4.49-2.69,5.63-5.23,1.26-2.8,1.86-5.85,2.18-8.83.5-4.69.68-9.87.54-15.53-.11-4.43-.28-8.26-.51-11.5-.17-2.39-.26-4.03-.28-4.92,0-.12.06-.18.18-.19l1.68-.06c.14,0,.22.06.23.21.51,6.88.79,13.26.84,19.15.03,3.14-.06,6.28-.26,9.42-.3,4.69-.85,9.39-2.82,13.54-2.56,5.38-8.11,6.88-13.81,7.24-3.28.21-6.51.28-9.69.23-.1,0-.18.08-.18.18,0,0,0,0,0,0l.09,3.7c0,.37.2.57.57.59,6.44.44,12.27.87,17.48,1.28,2.23.17,3.57.44,3.68,3.12.86,19.96,1.75,39.64,2.64,59.02.07,1.45.16,3.01.29,4.67,0,.1.08.19.18.23,2.62.97,4.99,2.18,7.04,4.06,4.23,3.89,6.69,9.59,7.8,15.3.84,4.27,1.28,9,1.33,14.19.05,5.38-.05,10.76-.29,16.15-.55,12.2-1.48,24.31-2.4,36.46-.15,1.98-.3,3.91-.46,5.78-1.29,15.13-2.68,30.24-4.17,45.34-.61,6.19-1.3,12.4-2.08,18.64-.01.12,0,.23.06.34.48,1.02-.16,1.53-.4,2.43-1.89,7.04-5.88,11.5-13.6,11.13-4.55-.22-8.87-1.28-13.51-2.08-1.89-.32-3.96-.47-6.22-.45-3.22.03-6,.89-8.35,2.57-3.34,2.39-5.1,6.3-4.08,10.34,1.37,5.44,5.32,8.94,10.17,11.4,2.79,1.42,5.55,2.82,8.29,4.22,3.77,1.92,7.21,4.62,10.61,7.45,1.48,1.23,3.43,2.01,5.15,2.9,6.47,3.34,10.93,9.67,12.54,16.69,1.52,6.6.84,13.47-1.04,19.99-1.39,4.84-3.14,10.02-5.25,15.54-3.5,9.19-9.38,16.85-18.54,20.64-.09.04-.13.13-.09.22,3.6,9.25,7.46,17.73,12.19,27.38,6.43,13.13,12.61,25.77,18.55,37.92,1.52,3.11,3.08,6.41,4.68,9.9.12.27.04.42-.26.46l-1.77.25c-.15.02-.29-.06-.35-.19-6.14-12.62-12.42-25.44-18.82-38.47-5.59-11.38-11.3-22.92-15.86-34.83-1.5-3.92-2.56-7.72-3.17-11.39-.42-2.49-.31-4.85,0-7.27.02-.16-.09-.3-.25-.32,0,0,0,0,0,0-2.87-.26-4.15-2.06-4.78-4.63-1.04-4.23-1.22-8.6-1.48-13.33-.15-2.62-.73-5.27-1.77-7.95-1.8-4.66-4.88-8.05-9.24-10.18-4.36-2.13-8.91-2.81-13.64-2.02-2.48.41-5.19,1.33-7.69,1.95-5.46,1.37-10.59.67-15.4-2.11-.1-.05-.14-.03-.14.08.09,4.57.15,9.06.15,13.47,0,2.32-.1,4.62-.3,6.9-.35,3.93-2.03,7.24-5.35,9.47-1.16.78-2.36,1.63-3.61,2.55-.22.16-.26.46-.1.68.05.07.11.12.19.15,2,.93,4.06,1.31,6.18,1.77.78.17,1.17.63,1.18,1.38.04,2.79.29,5.48.74,8.06.57,3.26,1.91,6.4,5.29,7.45,2.33.72,4.94.59,7.34.85,2.17.23,3.4,1.97,3.74,4.03.24,1.43.42,2.9.54,4.43,0,.1.1.18.2.17.01,0,.02,0,.04,0,2.13-.57,3.82-1.65,5.06-3.24.92-1.18,1.79-2.49,2.61-3.91,3.66-6.37,6.03-13.1,8.14-20.12.02-.08-.02-.16-.1-.19-.03,0-.06,0-.09,0-2.88.81-5.29.34-7.22-1.42-3.5-3.18-1.97-7.56.33-10.88,1.35-1.95,2.8-3.82,4.36-5.62,1.8-2.09,3.9-3.33,6.18-1,1.19,1.22,2.03,2.78,2.51,4.68,1.2,4.74.35,9.52-3.37,12.79-.1.09-.18.19-.25.32-.12.23-.2.47-.26.72-2.09,8.84-5.47,17.81-10.71,25.22-1.73,2.44-4.07,4.02-7.01,4.74-1.98.48-3.9.85-5.76,1.1-3.82.52-7.61,1.03-11.36,1.51-.08.01-.14.09-.13.17,0,0,0,0,0,0,.31,1.78.72,3.61,1.25,5.49,1.26,4.52,3.76,8,7.5,10.46,2.67,1.75,5.75,3.08,9.25,4.01,6.51,1.72,13.05,2.15,19.54,3,3.06.4,5.96,1.15,8.7,2.24,5.42,2.18,9.4,6.22,12.13,11.46,1.78,3.42,3.24,6.99,4.36,10.7,1.66,5.5,2.86,10.87,3.6,16.11.05.38.1.77.13,1.17.02.22-.09.34-.31.36l-1.32.08c-.24.01-.39-.1-.43-.34-.23-1.2-.46-2.41-.69-3.62-1.03-5.41-2.37-10.53-4-15.36-1.19-3.51-2.7-6.79-4.54-9.83-4.34-7.19-11.08-9.87-19.16-10.83-7.02-.84-14.18-1.46-20.77-3.54-8.14-2.58-14.56-7.63-16.47-16.14-.33-1.48-.68-3.01-1.05-4.59-.05-.21-.18-.32-.39-.33-.1,0-.21.02-.34.08-.09.04-.19.08-.29.11-2.71.74-5.24,1.81-7.6,3.22-5.58,3.34-9.39,9.15-12.37,14.7-2.62,4.88-5.2,10.06-7.74,15.52-4.55,9.79-8.92,19.72-13.11,29.79-.09.21-.24.31-.47.3-.47-.02-.97-.11-1.52-.26-.31-.09-.4-.28-.28-.57,3.57-8.82,7.62-18.13,12.13-27.92,2.41-5.22,4.96-10.44,7.67-15.68,2.05-3.96,4.44-8.16,7.38-11.69,4.23-5.07,9.59-8.33,16.07-9.79.14-.03.23-.17.2-.32,0,0,0-.01,0-.02-1.72-5.52-4.67-10.36-8.83-14.52-2.75-2.76-5.8-5.32-8.13-8.36-4.09-5.34-5.7-12.24-5.69-18.82,0-2.88.01-5.79.03-8.73.06-10.97-4.34-21.48-14.51-26.24-10.19-4.77-22.76-4.21-31.22,3.93-3.48,3.35-5.34,7.34-5.6,11.98-.11,2.12-.16,4.24-.13,6.39.07,5.41-1.75,10.31-5.46,14.69-.85,1.01-1.71,2-2.58,2.97-.79.88-1.39,2.15-.65,3.2,2,2.84,6.24,2.64,6.92,6.79.55,3.4.98,6.81,1.26,10.24.09,1.01.24,2.02.43,3.02.29,1.57,1.45,2.08,2.96,2.83,1.69.85,3.78,1.79,6.26,2.83.37.15.8.43,1.31.83.55.43.63.98.63,1.62-.01,8.51-.04,17.02-.08,25.55,0,.05.04.09.1.09,0,0,.01,0,.02,0,4.33-.97,8.21-2.36,11.67-4.18,8.16-4.31,12.62-12.04,14.46-20.88,1.86-8.97,1.64-18.31,1.42-27.63-.02-.95-.18-2.39.91-2.84,1.13-.46,2.47-.77,3.46-1.41,1.84-1.19,2.72-2.98,2.63-5.37-.09-2.43-.64-4.81-1.65-7.15-1.28-2.97-3.87-5.76-7.33-3.67-.56.34-.97.21-1.24-.39l-.16-.36c-.31-.69-.13-1.21.54-1.56,1.73-.92,3.43-1.1,5.09-.55,4.06,1.34,5.97,6.12,6.77,10.14.45,2.25.7,4.46.01,6.66-.95,3.05-3.5,4.92-6.46,5.68-.16.04-.28.19-.27.36.12,4.68.13,9.34.07,13.89-.12,8.16-1.14,16.37-4.56,23.86-2.81,6.13-7.42,10.8-13.43,13.74-4.26,2.08-8.83,3.45-13.42,4.45-5.27,1.16-9.97,2.22-14.11,3.18-3.02.7-6,1.56-8.96,2.58-3.55,1.22-6.96,2.77-10.22,4.66-.1.06-.15.18-.12.3,2.73,9.19,4.41,19.7,5.05,31.55.03.58.02,1.15-.03,1.71-.01.13-.08.19-.21.19h-1.61c-.15,0-.28-.12-.29-.27-.32-4.61-.7-8.74-1.15-12.4-.79-6.39-2.05-12.77-3.8-19.12-.04-.14-.18-.23-.33-.19-.05.01-.09.04-.12.07-1.29,1.27-2.64,2.46-3.79,3.8-3.2,3.73-5.89,8.02-8.19,12.4-1.87,3.55-3.67,7.2-5.41,10.94-.12.25-.4.37-.66.28l-1.2-.42c-.28-.1-.36-.29-.25-.56,2.6-6.15,5.47-11.78,8.61-16.91,2.71-4.43,6.15-8.92,10.33-11.91.12-.08.16-.23.12-.37-2.37-6.68-5.19-13.11-9.09-19.04-3.17-4.82-7.38-9.43-12.42-12.09-6.94-3.66-13.84-3.72-20.7-.17-4.71,2.43-8.82,4.23-13.82,4.83-.12.02-.21.13-.19.25,0,0,0,.02,0,.03,2.13,8,5.14,15.5,8.56,22.77,5.43,11.52,11.39,23.41,16.82,35.92.09.22.03.36-.2.44l-1.65.55c-.19.06-.33,0-.41-.18-4.34-9.45-9.2-19.73-14.58-30.84-2.63-5.43-4.94-10.66-6.95-15.68-1.64-4.11-2.96-8.31-3.95-12.6-.03-.13-.15-.22-.28-.2-8.44.69-16.82-.98-24.78-4.08-5.92-2.3-11.35-5-16.3-8.11-4.32-2.71-7.92-5.89-10.82-9.52-.09-.12-.26-.15-.39-.07-2.45,1.46-4.73,2.9-6.82,4.33-7.68,5.23-14.05,11.9-18.56,19.79-4.22,7.37-7.13,15.25-9.51,23.34-2.93,9.95-5.58,20.72-7.95,32.29-.06.31-.25.46-.57.44-.37-.02-.82-.05-1.35-.08-.23-.01-.41-.21-.39-.44,0-.02,0-.03,0-.05,1.09-5.92,2.38-11.78,3.88-17.56.08-.3.05-.31-.09-.03ZM346.76,130.91c.12.26.17.25.15-.04-.27-3.27-.55-6.66-.85-10.19-1.24-14.56-5.26-29.49-6.93-44.49-.79-7.11-1.4-22.37,8.13-24.5,2.74-.61,6.17-.24,9.12.04.12.01.22-.08.23-.19,0-.02,0-.04,0-.05-.15-.96-.27-1.89-.35-2.78-1.56-15.73-3.13-30.19-4.72-43.37-.08-.64-.2-1.4-.38-2.3-.13-.64-.54-.96-1.24-.97-5.45-.05-10.53,0-15.24.15-15.63.51-31.25,1.36-46.84,3.07-3.29.36-6.49.8-9.58,1.33-4.82.82-9.28,2.13-13.41,4.79-6.67,4.3-11.97,10.31-17.03,16.62-.12.15-.14.36-.05.52,1.24,2.28,2.6,4.84,4.07,7.68,2.21,4.25,4.46,7.08,9.37,8.65,4.98,1.59,10.16,2.29,15.53,2.09.22,0,.39-.18.39-.4.08-6.17.13-12.34.17-18.51,0-1.19.05-2.51.12-3.97.17-3.23,2.78-3.09,5.18-3.18,12.64-.44,25.28-.78,37.92-1.02,1.57-.03,3.14-.04,4.71-.02,2.84.03,4.94.99,5.21,4.17.08,1,.14,1.99.16,2.96.24,10.14.64,20.49.89,30.82.07,3.05.24,6.29-2.77,7.44-.99.38-2.45.31-3.57.27-2.72-.1-5.53-.21-8.41-.31-.15,0-.27.11-.28.26,0,0,0,0,0,.01.08,5.77.12,11.53.12,17.29,0,.86.06,1.71-.27,2.5-.43,1.03-1.8,1.59-2.83,1.87-3.47.96-7.22,2.01-11.25,3.13-.17.05-.34.09-.53.12-.18.04-.29.21-.26.39,0,.03.02.07.04.1,2.01,3.53,3.52,7.15,4.53,10.84,1.29,4.68,2,9.18.99,13.66-.22.98-.43,1.94-.63,2.9-.02.09.04.18.13.2.05,0,.09,0,.13-.02,3.22-2.08,7.6-3.02,11.44-3.37,3.63-.33,6.85-.36,9.65-.08,4.75.47,9.57,2.53,12.92,5.92,2.22,2.25,3.81,4.7,5.02,7.51.36.84.73,1.66,1.1,2.47ZM215.91,19.38c.78-.03,1.59-.07,2.41-.13.11,0,.2-.1.19-.21l-.61-16.24c0-.22-.19-.39-.41-.39-2.79.04-5.53.14-8.24.32-10.87.69-20.68,1.52-31.34,1.71-.19,0-.35.16-.35.35-.02,4.39-.03,8.54-.03,12.43,0,.9.02,1.74.07,2.54.01.21.19.38.4.39,12.9.14,25.3-.25,37.9-.76ZM418.83,5.15c0-.53-.44-.97-.97-.97h0l-36.83.06c-.53,0-.97.44-.97.97l.06,36.8c0,.53.44.97.97.97h0l36.83-.06c.53,0,.97-.44.97-.97l-.06-36.8ZM101.16,27.65c2.46-7.37,9.4-10.29,16.55-7.33,3.29,1.36,5.81,3.2,8.25,5.59.25.25.36.2.33-.16-.95-9.71-6.85-19.92-17.75-19.96-5.52-.02-10.51,3.15-13.89,7.46-2.98,3.81-4.27,8.58-3.74,13.37.56,5.09,2.25,9.81,4.28,14.63,1.41,3.35,3.23,6.66,4.91,9.78.07.13.17.21.31.23.08.01.15-.04.16-.11,0-.01,0-.03,0-.04-.61-5.01-.86-9.97-.76-14.88.07-3.22.52-6.08,1.35-8.57ZM157.13,64.37c.08-.29-.03-.76-.01-1.08.25-5.29,1.55-10.27,3.92-14.95,6.03-11.93,19.27-18.61,32.26-15.23,8.26,2.14,14.13,8.42,16.36,16.64.05.17.2.29.38.29l22.18-.06c.17,0,.33-.1.41-.25,3.71-7.06,7.6-13.57,11.67-19.55.26-.38.54-.76.85-1.16.11-.13.12-.32.04-.47-1.21-2.26-2.69-4.28-4.42-6.05-2.91-2.97-7.16-4.39-11.23-5.38-2.81-.68-5.78-1.31-8.92-1.9-.08-.02-.16.04-.18.12,0,.01,0,.03,0,.04.12,1.29.15,2.45.1,3.46-.08,1.52-.75,2.32-2.02,2.39-10.94.59-24.13.91-39.58.96-.47,0-.96-.02-1.46-.07-1.66-.16-2.02-1.96-2.02-3.31,0-.14-.07-.2-.21-.21-8.74-.12-15.94-.15-21.6-.1-8.62.07-17.42.31-26.4.7-.07,0-.12.06-.12.13,0,0,0,.02,0,.03.73,2.53,1.14,5.24,1.24,8.12,0,.12.02.23.04.35.02.1.06.18.13.25,3.08,3.04,5.76,6.35,8.07,9.93,1.19,1.85,2.03,3.66,2.51,5.42,1.05,3.84-1.73,6.62-5.22,7.43-.03,0-.06.02-.08.04-.04.04-.04.09,0,.15.02.04.06.07.11.07,4.52.03,8.72.62,12.95,2.21,2.5.94,4.59,2.25,6.26,3.92,1.65,1.65,2.9,4.02,3.74,7.13.09.33.18.33.26,0ZM122.32,69.54c1.71,1.73,1.87,5.59,1.86,7.91-.01,2.29-.05,4.54-.1,6.77-.02.91.08,1.89.29,2.93.52,2.47,1.95,3.56,3.92,4.83,1.65,1.07,3.05,2.32,4.32,3.76.07.09.2.1.29.02.03-.02.05-.06.06-.09.7-2.15.87-4.33.52-6.54-1.23-7.63-5.3-14.83-8.58-21.86-1.53-3.28-2.8-6.66-3.81-10.13-.83-2.84-1.34-4.76-.3-7.24,1.27-3.03,2.09-5,2.45-5.9,1.79-4.55,2.82-9.31,3.08-14.26.03-.45.08-.81-.28-1.14-3.13-2.98-6.16-5.5-10.3-6.89-2.08-.7-4.97-.82-7.07.12-7.64,3.44-7.06,14.4-6.72,21.2.16,3.29.32,6.65.48,10.07.06,1.4,0,2.73-.21,3.98-.65,3.93-1.47,7.8-2.47,11.62-.02.08.03.16.11.18.01,0,.03,0,.04,0,6.66,0,13.3,0,19.9,0,.97,0,1.9.01,2.53.66ZM328.51,25.78c-.04-1.83-.32-3.72-2.59-3.83-1.92-.09-3.98-.12-6.16-.07-12,.26-24.67.61-38,1.04-.56.02-1.12.09-1.67.2-.34.07-.6.36-.63.7-.1,1.08-.16,2.2-.17,3.37-.11,10.86-.19,21.5-.25,31.92,0,.7.04,1.43.12,2.2.03.25.22.46.47.5.27.05.52.08.76.09,7.23.29,14.59.46,21.93.78,7.76.34,15.52.63,23.28.85.38.01.77.01,1.18,0,1.56-.02,2.54-1.01,2.59-2.62.08-2.46.07-5.15-.04-8.08-.36-9.76-.64-18.78-.83-27.06ZM314.53,65.31c0-.15-.08-.23-.23-.23-3.32-.07-7.16-.2-11.5-.39-8.09-.35-15.68-.62-22.77-.8-1.23-.03-2.09-.52-2.6-1.47-.3-.56-.44-1.4-.41-2.52.07-3.53.11-7.13.13-10.81,0-.11-.08-.2-.19-.2,0,0,0,0,0,0-5.62.19-10.97-.47-16.47-2.14-4.14-1.26-7.27-3.8-9.38-7.61-1.52-2.75-3.07-5.63-4.64-8.62-.17-.33-.36-.34-.55-.01-.27.46-.48.97-.77,1.41-1.97,2.98-3.64,5.6-5,7.85-.84,1.38-2.45,4.2-4.83,8.46-.3.53-.69.99-.98,1.53-.04.07-.01.16.06.2.02.01.05.02.08.02,3.68-.06,7.43-.13,11.1.3,5.99.69,6.72,6.76,6.99,11.54.34,5.94.37,12.25.1,18.91-.11,2.6-.39,5.07-.85,7.39-.18.91-.47,1.79-.87,2.66-1.67,3.62-5.06,3.85-8.6,4.06-.07,0-.13.07-.13.14-.03,3.74-.15,7.58-.34,11.52-.1,2.01-.29,4.51-1.28,6.08-.07.11-.04.26.08.33.02.01.04.02.07.03,7.52,1.78,14.47,5.36,19.56,11.23.57.66.99,1.41,1.54,2.11.14.18.21.16.19-.07-.53-8.36-.68-15.32-.43-20.88.16-3.66.61-7.16,1.36-10.48.08-.37.06-.74-.08-1.1-1.22-3.25-.96-6.5.77-9.74,1.25-2.34,3.86-4.34,6.26-5.5,6.48-3.13,14.63-2.93,20.89,1.05,1.98,1.26,4,2.9,6.05,4.91,1.25,1.22,2.29,2.69,3.28,4.14.14.2.39.29.62.21,3.75-1.19,7.65-2.34,11.69-3.45.67-.18,1.3-.41,1.89-.68.22-.1.36-.32.36-.56l-.12-18.81ZM129.53,32.1c-.34-.38-.66-.78-.94-1.2-.19-.28-.29-.26-.32.08-.38,6.17-2.19,12.44-4.83,17.93-.05.11-.01.25.1.3.62.33,1.31.52,2.06.59,2.76.25,5.49-.11,8.19-1.07.9-.32,1.83-.84,2.53-1.51,2.13-2.03-.03-5.68-1.2-7.61-1.62-2.68-3.49-5.19-5.59-7.53ZM175.6,95.5c.1,1.47.1,2.87.14,4.32.06,2.02-.13,3.98-1.89,5.23-.78.56-1.68,1.07-2.71,1.53-3.36,1.52-6.71,3.03-10.05,4.54-.04.02-.05.06-.03.1,0,0,0,.02.02.02,1.46,1.29,2.98,2.53,4.59,3.74,5.65,4.25,12.12,6.89,19.4,7.92,2.78.39,5.51.66,8.18.79,7.49.38,15.51.38,23.13,2.03,5.64,1.22,11.45,3.74,15.32,7.93,7.05,7.66,6.25,18.62.15,26.53-1.79,2.32-4.02,4.55-6.69,6.69-5.21,4.18-10.85,7.7-16.34,11.42-1.58,1.07-3.61,2.58-6.08,4.52-5.41,4.24-9.32,9.52-11.73,15.84-2,5.22-3.4,10.45-4.21,15.7-.08.49,0,.94.2,1.36,1.92,3.84,4.37,7.49,6.66,11.22,4.62,7.52,6.59,16.43,7.17,25.31.01.17.16.3.33.28,0,0,.01,0,.02,0,4.83-.71,9.47-1.69,13.74-4,8.4-4.55,11.85-13.34,11.41-22.53-.01-.25-.14-.48-.35-.61-.59-.38-1.19-.8-1.82-1.26-3.56-2.62-5.34-7.27-5.16-11.59.04-.96.13-1.88.27-2.75.04-.24,0-.48-.1-.7-.39-.8-.69-1.62-.9-2.46-1.1-4.43-.97-8.46-.42-12.98.62-5.07,2.83-9.2,6.64-12.4,4.88-4.09,10.88-7.11,16.94-9.2.06-.02.1-.07.1-.13.3-3.96.65-8.02,1.06-12.17.38-3.88.76-6.95,1.15-9.22.73-4.3,1.99-8.81,4.48-12.31,2.92-4.1,7.94-7,12.78-8.4.14-.04.23-.19.18-.34,0-.03-.02-.05-.03-.07-3.5-5.36-8.1-9.26-13.82-11.7-2.93-1.25-6-2.27-9.19-3.05-4.73-1.16-9.24-2.32-13.55-3.47-7.39-1.98-18.18-6.37-18.51-15.27-.01-.36-.02-.71-.03-1.05,0-.12-.06-.18-.19-.18-1.34,0-2.67,0-4,0-2.76-.02-3.52-1.65-3.51-4.03.03-11.36.02-22.72-.02-34.08,0-2.87-.28-6.37,3.58-6.5,2-.06,3.85-.08,5.57-.03.09,0,.16-.07.16-.16,0-.02,0-.03,0-.05-.74-2.35-1.83-4.56-3.27-6.63-6.39-9.21-18.65-11.07-28.38-6.57-14.55,6.73-19.97,24.76-15.34,39.58,1.35,4.31,3.33,7.95,5.96,10.92,1.24,1.4,2.66,2.78,4.26,4.15,1.12.95,2.44,1.72,3.64,2.58.58.41,1.05.85,1.1,1.63ZM249.89,87.16c.38-1.87.61-3.69.68-5.45.25-5.79.27-11.79.06-18-.1-2.81-.34-6.1-1.6-8.76-1.23-2.6-3.84-2.95-6.41-2.98-13.29-.14-26.59-.13-39.89.01-.59,0-1.64.02-2.02.54-.47.64-.51,1.99-.51,2.72,0,11.76-.01,23.22-.03,34.35,0,.81.08,1.53.24,2.15.28,1.09,1.2,1.07,2.1,1.07,12.95,0,26.03-.01,39.23,0,1.14,0,2.34-.09,3.59-.26,3.05-.43,4.01-2.73,4.55-5.4ZM139.24,103.36c2.06,1.59,3.88,3.31,5.92,4.9,2,1.56,4.04,3.09,6.12,4.59.03.03.08.03.11.01l5.47-2.32c.1-.04.16-.14.16-.25-.06-3.45-.15-6.85-.27-10.22-.28-7.59-.45-14.47-.49-20.65-.03-3.38-.2-6.57-.53-9.58-.47-4.26-1.8-8.6-4.92-11.45-2.12-1.93-5.03-3.17-7.85-3.85-5.05-1.22-10.46-1.64-15.7-.95-1.43.19-2.99.37-4.68.53-.2.02-.27.12-.21.32,2.16,7.49,5.63,14.39,9,21.48,1.96,4.14,3.29,8.1,3.98,11.87.63,3.44.35,6.58-.82,9.42-.15.36,0,.68.22.97,1.39,1.8,2.64,3.73,4.5,5.16ZM350.14,69.11c.31.53.17.84-.44.94-1.99.33-3.33,2-3.55,4.03-.26,2.38.4,4.4,2.75,5.34.19.08.4-.02.48-.2,0,0,0-.01,0-.02.41-1.22.83-2.41,1.24-3.59,1.76-5.08,5.17-9.21,9.85-11.5,3.67-1.8,7.31-2.4,10.93-1.82,10.98,1.77,9.14,14.74,8.42,22.43-.33,3.56-.67,6.97-1.02,10.23-.24,2.18-.55,4.13-.95,5.85-1.04,4.52-3.4,7.76-8.54,7.36-.68-.05-1.33-.13-1.94-.23-.12-.02-.24.06-.26.19,0,0,0,0,0,.01-.73,6.54-2.77,13.21-6.4,18.61-1.33,1.98-2.92,3.61-4.77,4.88-2.1,1.44-4.46,2.1-7.07,1.97-.12,0-.21.08-.22.2,0,0,0,.02,0,.02l.31,6.16c.01.25.14.37.39.37,8.43.04,16.76.03,24.98-.04.98,0,1.61.07,1.88.25.81.53,1.22,1.29,1.22,2.27-.03,17.55-.03,33.7-.02,48.44,0,1.19-.08,1.98-.23,2.37-.37.9-1.14,1.35-2.33,1.35-9.53-.02-18.06-.02-25.6.02-.06,0-.09.03-.08.08l.06,17.18c0,.12.09.22.21.22,5.37.28,10.59,1.8,13.9,6.16,2.75,3.63,4.75,8.71,5.52,13.21.03.14.16.24.3.21.01,0,.02,0,.03,0,2-.61,4.03-1.24,5.9-2.13,5.08-2.43,9.75-5.7,14.21-9.26.11-.09.17-.23.16-.37-.26-2.69-.42-5.44-.47-8.24-.07-4.21.3-8.56,2.19-12.23,2.07-4.02,6.12-6.33,10.49-7.62.17-.05.27-.24.22-.41,0,0,0-.01,0-.02-1.37-3.84-3.43-7.41-5.43-11.17-3.01-5.67-4.12-11.68-3.33-18.05.37-3.01,1.22-6.09,2.53-9.24,2.2-5.26,5.9-9.86,11.16-12.07.11-.04.16-.12.17-.24.61-6.97.73-13.95.86-21.08,0-.11-.08-.2-.19-.21-.03,0-.06,0-.09.02-6.16,2.97-11.85,6.63-17.66,10.29-1.05.66-2.06,1.16-3.04,1.49-1.14.39-2.21.08-3.19-.94-1.07-1.1-1.26-2.58-1.25-4.04.02-14.33-.25-28.65-.81-42.96-.16-4.06-.39-8.28-.7-12.63-.2-2.82-.73-5.53-1.6-8.14-.79-2.38-2.3-4.11-4.52-5.17-2.62-1.25-5.59-1.91-8.38-2.41-5.24-.93-11.05-1.65-16.73-1.75-9.19-.17-9.2,13.64-8.73,19.85.22,2.92.57,5.87,1.05,8.84.86,5.35,2.07,12.18,3.62,20.51,1.81,9.7,2.85,19.4,3.13,29.1,0,.1.08.18.18.17,0,0,0,0,0,0,2.9-.22,5.32-1.25,7.26-3.07,5.98-5.61,7.92-14.42,9.24-22.01.06-.34.18-.68.36-1.01.14-.25.43-.38.71-.3,2.1.6,4.33,1.03,6.27-.06,2.09-1.18,3.01-4.22,3.37-6.5.44-2.75.79-5.52,1.04-8.3.44-4.84.96-9.64,1.16-14.32.18-4.18-.65-9.05-4.52-11.12-1.62-.87-3.59-1.24-5.9-1.12-6.57.34-11.9,4.41-14.66,10.38-.86,1.87-1.51,3.74-1.95,5.59-.4,1.72-.76,3.72-1.09,6-.08.57-.4.81-.97.74l-.17-.02c-.68-.09-1-.47-.97-1.15.04-1.19.26-2.44.64-3.77.06-.22-.06-.45-.27-.52-4.49-1.53-5.6-6.1-3.67-10.1.69-1.42,1.83-2.39,3.44-2.9.63-.2,1.18-.06,1.64.42.09.09.16.19.22.29ZM89.29,74.24c.64-2.58,1.16-4.53,4.19-5.08,1.39-.25,2.73-.36,4.02-.32.17,0,.32-.11.35-.28l2.46-12.02c.05-.26-.05-.39-.32-.39-2.3-.04-4.39-.07-6.25-.07-3.96,0-7.79.41-11.48,1.26-2.21.51-4.66,1.44-5.86,3.47-.99,1.68-1.42,3.76-1.72,5.72-1.04,6.73-2.01,13.17-2.9,19.33-.77,5.31-1.23,10.48-1.21,15.69,0,1.76.03,3.84.63,5.37.05.13.19.21.32.18,2.06-.35,4.22-2.17,5.54-3.69,2.88-3.31,4.86-7.15,6.47-11.19,2.34-5.88,4.25-11.87,5.76-17.97ZM487.6,184.87c3.73-6.63,9.81-10.6,17.55-10.74.09,0,.17-.06.19-.15.74-2.39,1.5-4.74,2.27-7.04.93-2.76,1.12-4.76.09-7.59-.93-2.55-1.81-5.03-2.64-7.44-2.71-7.92-4.93-15.97-6.64-24.17-.71-3.41-1.15-6.74-1.42-10.21-.47-5.9.13-12.8,3.51-17.53,1.2-1.68,2.1-3.15,2.71-4.41,2.56-5.27,3.64-10.96,3.24-17.06-.53-8.04-4.38-13.93-11.53-17.67-2.36-1.23-4.94-2.1-7.74-2.59-7.92-1.39-15.65-.95-23.2,1.31-6.3,1.88-11.94,5.92-13.67,12.52-1.05,4-.15,8.23,1.39,11.96,2.11,5.1,4.84,10.43,6.92,15.92,3.37,8.91,4.91,18.11,4.39,27.38-.26,4.62-.86,9.07-1.79,13.37-1.62,7.48-3.81,14.9-6.57,22.26-.09.25.03.53.28.62,3.33,1.27,6.59,2.5,9.79,3.7,1.89.71,3.85,1.6,5.89,2.68,5.16,2.73,8.76,6.86,10.79,12.37,1.18,3.2,1.85,6.45,2.02,9.75.03.65.19.68.46.09,1.2-2.61,2.43-5.05,3.71-7.32ZM158.34,76.63c.2,1.97.28,4.08.32,6.05.11,6.94.28,13.73.52,20.38.07,2.03.11,4.1.12,6.21,0,.09.08.17.17.17.02,0,.05,0,.07-.02,3.67-1.76,7.43-3.51,11.29-5.24,1.16-.52,2.54-1.37,2.6-2.82.07-1.64.06-3.25-.03-4.82-.04-.63-.26-1.07-.67-1.32-6.13-3.81-10.77-9.41-13.31-16.13-.39-1.04-.5-2.08-.95-3.09-.13-.29-.19-.28-.17.04,0,.19.02.38.04.59ZM292.66,90.95c.1.12.23.15.37.1,1.53-.54,3.13-1.01,4.8-1.39.16-.04.26-.2.22-.36-.01-.04-.03-.08-.06-.12-3.12-3.93-7-7.71-11.58-9.45-4.55-1.74-9.23-1.74-14.02,0-4.5,1.64-8.22,5.2-8.25,10.17,0,.69.09,1.36.27,2.02.02.08.1.12.18.1.03,0,.06-.03.08-.05.58-.8,1.26-1.53,2.03-2.2,6.49-5.53,16.19-6.66,23.27-1.52,1.03.75,1.84,1.77,2.68,2.71ZM283.01,150c-3.78-6.5-2.22-13.01,1.78-18.86,3.45-5.04,6.92-9.89,9.01-15.49,2.44-6.53,2.42-13.99-.7-20.19-2.59-5.15-7.56-8.42-13.32-8.39-5.15.03-9.48,1.88-12.97,5.54-1.28,1.35-1.86,2.92-2.2,4.7-.43,2.22-.72,4.66-.87,7.32-.24,4.19-.25,8.89,0,14.08.51,11.07.99,21.66,1.43,31.76.02.49.07.99.14,1.49.03.18.13.25.3.23l17.22-1.88c.12-.01.2-.12.19-.24,0-.03-.01-.06-.03-.09ZM294.14,92.93c4.46,7.11,4.36,16.52,1.5,23.96-1.17,3.04-2.63,5.89-4.38,8.54-1.83,2.76-3.63,5.49-5.43,8.18-1.61,2.4-2.8,5.26-2.91,8.04-.12,2.9.99,5.68,2.4,8.12.13.22.31.31.57.28l8.11-1.03c.17-.02.3-.17.31-.35.16-6.4,1.24-12.54,3.25-18.42.82-2.4,1.92-4.58,3.31-6.54.81-1.15,1.77-2.16,2.69-3.19.24-.27.4-.58.47-.93.32-1.59.64-3.17.96-4.72.51-2.44.55-4.94.11-7.5-.94-5.53-2.85-10.82-5.71-15.86-.11-.19-.33-.27-.54-.19-1.55.59-3.08,1.04-4.61,1.37-.08.02-.14.1-.12.18,0,.02.01.04.02.05ZM237.26,111.95c.34.09.7.19,1.07.3.14.04.3-.03.35-.18.67-2,1.05-3.95,1.13-5.86.17-3.72.32-7.52.45-11.39,0-.06-.05-.12-.11-.12,0,0,0,0,0,0h-31.81c-.08.01-.11.05-.1.13.44,5.4,4.08,8.79,8.84,10.99,6.32,2.92,13.33,4.37,20.21,6.13ZM157.57,143.02c.15-.05.25-.18.26-.33.12-1.45.22-2.81.32-4.09.39-5.32.06-11.01-1.64-15.98-.8-2.34-2.16-4.96-4.19-6.44-2.27-1.66-4.54-3.32-6.8-4.99-1.44-1.07-3.47-2.73-6.08-5.01-.49-.43-1.1-.88-1.83-1.35-.6-.39-1.11-.43-1.8-.4-3.16.13-6.14.88-8.88,2.41-5.72,3.2-10.21,8.85-11.53,15.3-.27,1.33-.5,2.89-.7,4.69-.4,3.69-2.49,7.86-6.36,9.11-1.65.53-3.66,1-6.01,1.4-3.05.52-6.02,1.49-8.89,2.91-2.37,1.17-4.02,2.76-5.85,4.79-.1.11-.18.24-.24.37-.03.07,0,.16.08.19.03.01.07.01.1,0,.83-.3,1.62-.63,2.48-.84,2.42-.58,5.14-.9,8.16-.96,7.19-.14,14.9,1.53,19.59,7.02,2.17,2.54,3.6,5.62,4.36,8.83,1.28,5.34,1.45,10.66-1.13,15.43-2.82,5.24-7.87,9.85-13.04,12.91-3.27,1.94-6.75,3.07-10.59,2.75-.03,0-.06.02-.06.05,0,0,0,0,0,0l.91,16.23c0,.18.16.32.35.31,0,0,.01,0,.02,0,.35-.03.68-.08.99-.14,10.48-1.88,21.46-3.85,32.32-5.37,5.29-.74,10.45-1.2,15.47-1.38.09,0,.16-.08.15-.17,0-.02,0-.05-.02-.07-1.12-2.13-2.2-4.2-3.24-6.19-.71-1.36-1.57-2.41-2.6-3.16-1.72-1.26-3.82-2.51-5.26-4.05-2.22-2.38-2.19-4.82.08-7.34,1.05-1.16,2.08-2.29,3.09-3.39,1.59-1.73,3.54-4.16,3.58-6.6.03-2.1.07-4.23.12-6.37.05-2.63.51-5.2,1.37-7.71,2.06-6.03,6.97-10.43,12.94-12.37ZM191.61,193.11c2.83-5.39,6.91-9.4,11.93-13.25,6.44-4.93,13.76-9.07,20.22-14.31,4.8-3.89,9.18-8.8,10.49-14.58,2.2-9.64-2.92-17.4-11.6-21.18-4.91-2.14-10.4-3.06-15.67-3.4-6.56-.42-13.95-.54-21.05-1.41-9.19-1.13-17.11-4.65-23.77-10.54-.84-.74-1.67-1.51-2.48-2.31-.2-.19-.5-.23-.73-.1-1.75.98-3.48,1.73-5.19,2.24-.1.03-.16.14-.13.24.01.04.03.07.06.09,3.75,3.08,5.33,7.64,6.08,12.41.55,3.51.69,7.32.42,11.43-.09,1.34-.28,2.62-.57,3.84-.02.07.03.15.1.17.02,0,.04,0,.07,0,1.54-.34,3.16-.54,4.88-.59,5.75-.17,11.77.46,16.86,3.06,7.04,3.6,10.54,10.33,11.07,18.04.44,6.3-.7,12.35-2.62,18.36-.98,3.08-2.09,6.46-3.32,10.15-1.34,4.02-2.28,8.23-2.4,12.47-.08,2.7.34,5.21,1.05,7.75.03.09.08.18.15.24.17.15.26.12.28-.11.13-1.38.36-2.76.69-4.14,1.23-5.1,2.92-10.27,5.18-14.57ZM439.69,200.12c.11.21.18.19.21-.04.26-2.6.84-5.33,1.75-8.18,2.53-7.98,5.71-15.8,8.8-23.66.47-1.19.92-2.42,1.35-3.68.06-.17,0-.36-.16-.46-2.85-1.87-4.75-4.44-5.69-7.69-.85-2.95-1.08-6.11-.51-9.19.31-1.67.68-3.37,1.1-5.08.82-3.35.63-6.71-.57-10.07-2.27-6.38-6.47-10.84-12.61-13.38-7.23-2.99-15.79-2.64-23.13-.02-.23.08-.39.3-.39.55.02,7.09-.25,14.13-.81,21.12,0,.1.07.18.16.19.02,0,.04,0,.05,0,3.65-.83,7.11-.44,10.36,1.15,6.31,3.1,8.67,10.21,8.19,16.91-.27,3.75-1.29,7.44-3.06,11.07-1,2.05-1.97,4.03-2.91,5.95-2.25,4.59-1.91,9.53-1.72,14.46,0,.14.11.25.25.26,6.14.26,12.21,1.25,16.54,5.96,1.05,1.14,1.98,2.43,2.78,3.84ZM290.22,305.04l.07.02s.02,0,.02-.01c.49-1.52,1.01-3.02,1.58-4.51,1.1-2.88,2.19-5.74,3.58-8.39,1.48-2.81,3.34-5.32,5.59-7.55,3.14-3.11,6.67-5.5,10.43-8.04,4.92-3.31,7.91-7.36,6.72-13.73-.77-4.17-2.19-8.29-3.36-12.25-1.02-3.44-1.56-6.99-1.61-10.64-.12-8.75,3.23-15.76,10.06-21.01,2.3-1.77,4.74-3.1,7.31-3.98.35-.12.41-.33.17-.61-4.74-5.64-8.04-12.04-9.91-19.2-1.6-6.18-1.87-12.29-1.39-18.64.15-2,.42-3.66.83-4.98.46-1.52,1.26-3.09,2.4-4.73,1.4-2.01,2.67-3.78,3.8-5.29.15-.2.23-.45.23-.7,0-5.88.03-11.84.06-17.87.01-2.33,1.41-2.63,3.44-2.62,5.49.04,11.21.06,16.73-.04.12,0,.21-.1.21-.22,0,0,0-.02,0-.03-.93-5.95-3.08-11.93-7.03-16.47-5.76-6.61-13.91-7.26-22.25-6.35-4.97.55-10.19,2.14-13.5,5.7-3,3.22-4.59,7.07-5.74,11.35-1.2,4.47-1.89,8.79-2.09,12.98-.05,1.03.09,2.07.03,3.13-.05.87.02,1.83.2,2.89.7,4.06,1.82,7.79,3.6,11.53,2.03,4.26,4.35,8.12,6.86,12.51,3.03,5.29,5.56,10.91,6.55,16.93.94,5.67.07,11.04-2.6,16.09-1.98,3.73-4.23,6.65-6.48,9.91-3.25,4.72-5.1,9.57-6.12,15.13-.36,1.97-.65,3.82-.87,5.53-.71,5.61-1.44,11.09-2.19,16.43-.59,4.23-1.5,9.11-2.73,14.64-.07.3-.06.61,0,.91,1.42,6.26,1.56,12.58.44,18.94-.63,3.57-1.28,6.52-1.95,8.85-.41,1.41-.8,2.82-1.19,4.22-.02.07,0,.12.08.14ZM502.23,133.42c-.25.31-.26.55-.16.93,2.17,8.6,4.75,16.38,7.71,24.5,1.07,2.94.81,5.37-.11,8.3-.71,2.29-1.52,4.56-2.41,6.81-.05.11,0,.24.12.29.02,0,.04.01.06.01,4.92.59,9.14,2.8,12.65,6.63,4.2,4.57,7,10.79,7.75,17.13,1.06,8.99-.75,17.36-5.44,25.1-4.84,8-12.29,12.96-21.7,13.97-1.38.15-2.71.19-4.01.12-.1,0-.19.07-.2.18,0,.02,0,.05,0,.07.74,2.13,1.87,3.95,3.38,5.46,1.5,1.5,2.81,2.64,3.92,3.42,2.64,1.87,5.44,3.75,8.4,5.67,2.15,1.39,3.99,2.73,5.5,4.01,5.93,5,9.48,11.37,10.66,19.1.15.99.3,1.99.45,3.02.04.25.24.44.49.44l1.33.05c.13,0,.24-.09.25-.21.15-1.29.3-2.57.44-3.83,2.65-24.2,4.95-49.09,6.89-74.65.97-12.75,1.61-24.22,1.93-34.39.14-4.58.12-8.82-.07-12.7-.4-8.2-1.82-17.2-7.58-23.42-6.43-6.94-16.89-6.02-24.25-1.29-2.45,1.57-4.45,3.33-6.02,5.28ZM265.38,154.36c-1.29.15-2.1-.75-2.16-1.98-.36-7.47-.68-14.27-.95-20.38,0-.18-.1-.23-.26-.17-3.96,1.51-7.4,3.03-10.43,6.12-2.83,2.89-4.18,6.61-5.01,10.5-.45,2.1-.81,4.29-1.09,6.56-.49,4.04-.92,8.47-1.28,13.31-.06.87-.17,1.73-.31,2.6-.02.11.06.21.16.23.03,0,.06,0,.09,0,6.08-1.93,12.7-2.74,18.7-.87,4.73,1.48,8.45,4.27,11.16,8.39,6.08,9.23,3.67,20.92-.66,30.33-1.6,3.47-3.29,6.59-5.07,9.34-.91,1.41-2.33,2.68-2.76,4.36-.53,2.03-1.03,3.62-1.51,4.77-2.92,6.9-8.19,10.34-15.82,10.3-2.05,0-4.08-.36-6.06-.63-.29-.04-.56.14-.64.42-.75,2.71-1.46,5.55-2.12,8.51-.02.07.02.12.1.16.04.02.08.02.12,0,1.59-.7,3.21-1.26,4.88-1.68,6.99-1.76,13.93-1.85,20.82-.27,3.43.78,6.47,1.9,9.11,3.35,8.11,4.47,14.15,11.8,17.17,20.86.23.69.36.67.38-.06.02-.74.09-1.44.2-2.11,1.49-8.57,2.51-17.33,3.58-26.59.21-1.8.49-3.52.85-5.14.05-.21-.07-.42-.27-.5-.39-.15-.76-.33-1.11-.52-3-1.69-5.62-3.56-7.84-5.61-3.77-3.47-5.16-8.31-4.27-13.29.95-5.32,3.69-9.56,7.65-13.19,1.91-1.75,3.83-3.45,5.77-5.11,2.71-2.33,4.92-4.9,6.63-7.71,1.42-2.35,2.24-5.15,2.44-8.39.06-1-.28-1.95-.76-2.76-1.26-2.12-2.5-4.26-3.73-6.4-.96-1.67-2.12-3.96-3.49-6.89-.23-.49-.57-.87-1.02-1.12-4.81-2.69-8.85-6.24-12.11-10.64-.09-.12-.24-.19-.39-.17-6.16.63-12.39,1.32-18.68,2.08ZM375.48,142.82c0-.31-.25-.57-.57-.57h-45.67c-.31,0-.57.25-.57.57h0v49.69c0,.31.25.57.57.57h45.67c.31,0,.57-.25.57-.57v-49.69ZM417.99,183.76c.05-3.62.92-7.19,2.54-10.32,1.14-2.19,2.11-4.2,2.92-6.03,2.46-5.55,3.3-11.71.99-17.35-1.85-4.54-5.7-7.48-10.63-7.79-2.1-.13-3.96.1-5.58.7-4.23,1.56-7.4,4.96-9.53,8.98-3.89,7.37-5,16.05-2,23.85.68,1.76,1.45,3.44,2.32,5.04,2.09,3.85,3.79,7.03,4.99,10.72.03.09.13.15.23.13,4.36-.84,8.89-1.28,13.59-1.31.18,0,.32-.14.32-.32,0,0,0-.01,0-.02-.14-2.04-.2-4.13-.17-6.28ZM149.81,200.07c.09.2.28.34.5.35,3.07.15,6.05.67,8.94,1.56,9.57,2.94,16.78,11.56,15.99,21.86-.16,2.05-.42,4.05-.8,6.01-1.79,9.37-5.18,18.38-8.74,27.42-.97,2.47-1.71,4.87-2.22,7.21-.26,1.19-.39,2.2-.41,3-.13,6.51,5.31,8.51,10.46,10.14.2.06.4-.05.46-.24,0,0,0,0,0,0,1.32-4.59,2.74-8.94,5.43-12.82,4.42-6.39,11.33-10.11,19.07-11.59.13-.02.22-.14.21-.28-.18-1.93-.41-3.93-.68-6.01-.93-7.05-3.2-13.51-6.83-19.36-2.09-3.36-4.28-6.67-6.11-10.35-2.8-5.64-3.64-11.71-2.52-18.19.47-2.7,1.05-5.13,1.73-7.28,1.2-3.77,2.39-7.39,3.55-10.86,3.15-9.39,4.78-21.68-2.29-29.83-5.19-5.98-14.3-7.19-21.71-6.71-2.72.17-5.04.67-6.93,1.5-6.17,2.68-9.87,7.29-11.09,13.82-.55,2.97-.44,6.23-.37,9.21.05,1.85-.33,3.47-1.14,4.86-1.47,2.53-3.45,4.65-5.53,6.82-1.28,1.34-2.54,2.68-1.19,4.41.55.71,1.21,1.33,1.96,1.86,1.38.98,2.7,1.94,3.97,2.88.76.57,1.4,1.28,1.91,2.13,1.69,2.8,3.14,5.63,4.37,8.49ZM81.03,181.21c3.71,3.03,7.77,5.25,12.19,6.66,4.43,1.41,8.54,1.09,12.35-.96,5.09-2.74,9.95-6.98,12.96-11.89,1.23-2,1.96-3.98,2.2-5.93.64-5.28-.81-12.36-4.44-16.65-2.26-2.68-5.08-4.48-8.44-5.41-4.65-1.29-9.57-1.55-14.77-.79-5.51.81-10.34,3.27-13.71,7.65-2.61,3.39-4.24,7.39-4.91,12-.93,6.4,1.59,11.24,6.59,15.32ZM286.71,152.04c2.85,3.32,5.8,6.09,9.31,8.5.37.26.47.17.3-.24-1.08-2.67-1.73-5.67-1.94-9.01,0-.12-.11-.21-.23-.2,0,0-.01,0-.02,0-2.48.32-4.92.56-7.33.71-.08,0-.14.07-.13.15,0,.03.01.06.03.08ZM327.81,194.53c-.71-.54-1.07-1.29-1.07-2.27,0-9,0-18.09-.01-27.29,0-.4-.1-.43-.31-.09-.67,1.13-1.36,2.21-2.07,3.23-1.56,2.27-2.35,4.22-2.61,6.86-.54,5.39-.59,10.95.45,16.16,1.45,7.26,4.26,14,8.58,19.7.71.94,1.43,1.9,2.16,2.89.13.17.34.25.55.2,4.41-1.11,8.94-1.61,13.59-1.51.1,0,.19-.08.19-.19,0,0,0,0,0,0l-.05-17.04c0-.12-.1-.21-.21-.21h0c-5.7-.04-11.35-.05-16.94,0-.83,0-1.64.01-2.25-.45ZM471.06,204.95c.27-.35.54-.62.8-.81,3.69-2.68,7.19-5.46,10.01-8.96.21-.26.29-.57.25-.93-1.03-7.39-3-15.35-9.14-20.17-2.19-1.72-4.83-3.18-7.9-4.37-3.7-1.44-7.44-2.86-11.2-4.27-.05-.02-.08,0-.1.04-1.41,3.78-3.07,8.11-5,12.98-3.03,7.66-6.05,15.42-7.47,23.27-.14.75-.15,1.36-.03,1.82.38,1.55.9,3.02,1.23,4.6,1.75,8.47,2.4,16.87,1.95,25.17-.19,3.46-.7,7.04-1.87,10.14-1.54,4.08-4.04,8.03-7.52,11.85-.29.32-.43.68-.42,1.08.09,3.24,1.06,6.59,1.75,9.83.07.32.2.59.38.81.09.11.14.09.13-.05-.1-2.31.22-5.08.94-8.31,1.15-5.17,2.87-10.12,7.36-12.96,7.82-4.95,15.72-9.67,22.95-15.64,2.61-2.15,4.79-4.39,6.53-6.7.95-1.26,1.57-2.43,1.51-3.88-.15-3.1-.3-5.42-.43-6.96-.12-1.35-.28-2.33-.49-2.93-.55-1.57-2.06-1.86-3.43-2.38-.93-.35-1.5-1.4-.8-2.29ZM220.95,206.15c1.93-2.08,4.37-2.33,6.92-1.34.67.26,1.33.54,1.98.83.92.41,1.58.22,2-.56.41-.77.7-1.56.87-2.36.68-3.35,1.26-6.62,2.53-9.84,1.09-2.75,2.91-4.74,5.46-5.98,2.46-1.19,5.46-1.16,8.12-.61,4.17.86,7.87,2.74,11.11,5.65,3.91,3.5,5.54,7.72,6.12,13,.5,4.53.51,8.94.01,13.22,0,.03.02.07.06.07.02,0,.03,0,.04-.01.07-.04.12-.1.16-.18.9-1.68,1.86-3.45,2.88-5.31,2.12-3.87,3.79-7.93,5.03-12.18.96-3.3,1.4-6.56,1.32-9.75-.25-9.73-6.88-18.11-16.82-19.3-4.55-.55-9.33.17-13.75,1.55-6.58,2.05-13.38,5.09-18.78,9.51-3.71,3.03-5.82,6.9-6.35,11.6-.51,4.58-.6,8.65.46,12.64.04.16.12.18.22.05.17-.21.24-.51.41-.7ZM473.73,205.75c1.58.41,3.22,1.28,3.58,3.02.83,3.98.81,8.17.97,12.3.12,3.19.77,6.65,3.21,8.9.84.78,1.74,1.43,2.69,1.94,9.91,5.41,23.31,4.15,31.51-3.82,6.91-6.71,10.59-16.77,10.35-26.16-.23-8.54-4.1-18.07-11.49-22.93-3.52-2.32-7.52-3.18-11.99-2.6-6.6.87-11.22,5.45-14.12,11.19-.81,1.6-1.61,3.19-2.39,4.77-2.69,5.43-7.26,9.45-12.39,12.98-.1.07-.13.21-.06.31.03.04.07.07.13.09ZM296.86,232.26s.1.02.12-.02c0,0,0,0,0,0,.12-.23.2-.46.26-.7,1.04-4.4,2.88-8.5,5.51-12.3,3.56-5.13,7.7-10.25,8.87-16.57,1.26-6.79-.93-13.72-4.08-19.83-.28-.54-.42-.51-.42.1,0,.83-.13,1.64-.37,2.45-.84,2.71-2.01,5.15-3.81,7.42-2.68,3.38-5.84,5.95-9.11,8.78-1.69,1.46-3.15,2.92-4.39,4.39-2.84,3.37-4.69,7.87-4.49,12.26.24,5.04,3.44,8.33,7.49,11.09,1.47,1,2.93,1.98,4.41,2.94ZM227.73,223.87c.51.27.65.71.68,1.25.56,10.5-2.8,20-12.34,25.22-4.63,2.53-9.6,3.64-14.81,4.23-.13.01-.22.12-.21.25.54,13.34.33,26.63.27,40.2,0,.08.06.15.15.15.02,0,.04,0,.06-.01,3.47-1.54,7.21-2.33,11.23-2.38.13,0,.24-.11.24-.24,0-.02,0-.03,0-.05-.85-4.33-1.04-8.63-.32-12.96,2.34-14.23,11.37-25.87,24.33-32.14.13-.06.22-.18.24-.32.51-2.94,1.13-5.78,1.86-8.51.44-1.66,1.01-3.78,3.28-3.43,4.39.68,8.94,1.19,13.02-.92,8-4.13,9.1-14.93,8.99-22.84-.08-5.72-.53-12.11-4.59-16.49-3.41-3.69-7.59-5.93-12.54-6.74-6.93-1.13-10.13,3.88-11.38,9.83-.38,1.82-.76,3.66-1.14,5.5-.52,2.55-1.96,5.41-5.12,4.31-2.12-.74-5.28-2.62-7.05-.1-1.06,1.5-1.56,3.22-1.51,5.14.09,3.43,1.57,7.42,4.28,9.53.66.51,1.46,1.02,2.39,1.52ZM432.58,256.92c-.12-1.23.21-2.43,1.07-3.34,1.81-1.92,3.5-4.23,5.07-6.94,2.87-4.97,3.7-10.41,3.8-16.09.13-7.21-.5-14.19-1.89-20.94-.7-3.4-1.74-6.34-3.11-8.8-2.93-5.25-8.22-7.84-14.2-8.22-6.02-.38-12.23-.06-18.63.96-.12.02-.17.09-.14.21,2.57,10.9-4.76,20.88-12.69,27.34-.1.08-.15.2-.14.33.82,8.55,1.11,17.43,6.98,24.34,1.46,1.71,2.54,3.13,3.25,4.24.94,1.47,1.63,3.27,2.06,5.4,1.44,7.03.63,14.82-1.64,21.75-.71,2.16-1.91,4.71-3.81,5.79-.13.07-.18.24-.1.37.03.05.07.09.12.11.88.42,1.79.88,2.73,1.39,2.55,1.37,5.5,2.47,8.87,3.29,6.17,1.51,12.22,1.19,18.15-.99,3.72-1.36,7.13-3.16,10.23-5.39.22-.16.33-.44.27-.71-.08-.36-.17-.7-.29-1.05-1.51-4.46-2.85-8.77-4.03-12.91-.94-3.32-1.59-6.7-1.93-10.17ZM402.19,194.25c-3.87,1.14-7.61,3.31-9.33,7-2.42,5.21-1.72,11.59-1.4,17.26,0,.1.09.17.18.17.04,0,.08-.02.11-.05,6.47-6.27,12.24-13.53,11.09-23.18-.04-.35-.12-.68-.23-.99-.06-.18-.25-.27-.43-.22ZM126.52,204.46c-.15.02-.25.14-.25.29.44,10.34.8,20.92,1.07,31.72.07,2.75.11,5.45.12,8.11.03,6.28-4.65,9.06-10.12,9.98-3.48.59-7.26.8-11.33.64-5.67-.23-11.52-.62-17.28-.69-3.01-.04-5.99-.04-8.95,0-.12,0-.22.1-.21.22,0,0,0,.02,0,.03.73,4.85,2.15,10.52,5.34,14.2,3.16,3.64,8.06,4.75,12.82,5,6.27.33,12.51-.32,18.82-.33,2.45,0,4.03,1.03,5.37,3.02,4.02,5.99,8.18,12.31,12.62,18.06,2.71,3.51,6.2,7.27,10.99,7.27,3.01,0,6.08.01,9.2.03,1.06,0,2-.03,2.83-.1.76-.06,1.64-.41,2.66-1.03,4.43-2.73,7.17-7.23,9.34-11.99,1.34-2.94,2.61-5.95,3.81-9.05.03-.09-.01-.19-.1-.22,0,0-.02,0-.02,0-2.66-.56-5.05-1.47-7.16-2.72-3.52-2.09-5.24-5.15-5.15-9.17.07-3.22,1.02-6.64,2.14-9.73.9-2.46,1.93-5.17,3.09-8.13,2.39-6.09,4.28-12.19,5.68-18.29,1.25-5.47,2.14-11.11-.26-16.27-2.19-4.7-5.72-8.16-10.59-10.38-4.28-1.95-9.09-2.51-13.95-2.45-4.31.05-8.69.39-13.14,1.01-2.45.34-4.91.66-7.38.95ZM315.64,320.75c-.16.45-.17.98-.01,1.59,2.08,8.07,2.72,15.93,1.94,23.59-.12,1.18.13,1.85.74,2.75,1.52,2.27,3.02,4.52,4.49,6.75,1.64,2.48,4.79,7.05,2.64,9.94-.81,1.09-1.99,1.77-3.55,2.05-1.36.24-2.8.38-4.3.41-.13,0-.24.11-.25.24-.15,4.68-.64,9.23-1.47,13.67-.33,1.77-.84,3.52-1.51,5.18-.87,2.14-2.45,3.93-4.83,4.12-1.6.13-3.41.08-5.45-.15-2.84-.32-5.64-.64-8.39-.97-1.31-.15-2.19.57-2.98,1.51-1.64,1.97-2.85,4.01-3.62,6.13-2.08,5.7-2.11,11.97-1.02,17.91.02.11.12.18.23.17,2.55-.41,4.94-1.05,7.18-1.91,2.87-1.1,5.49-2.71,8.32-3.89,7.24-3.01,15.21-2.16,21.92,1.92,5.86,3.57,10.32,8.99,13.86,15.06,3.01,5.16,5.44,10.52,7.28,16.09.04.12.17.19.29.15.02,0,.03-.01.05-.02,6.98-4.23,14.98-6.48,23.12-8.24,3.22-.69,6.51-1.4,9.88-2.13.1-.02.16-.09.16-.19.01-8.36.02-16.71.02-25.03,0-.71.08-1.17-.67-1.51-2.34-1.05-4.64-2.12-6.9-3.19-1.45-.69-2.87-1.68-3.33-3.25-.26-.88-.44-1.84-.53-2.89-.23-2.68-.55-5.47-.94-8.4-.23-1.75-.39-3.9-1.88-4.84-2.65-1.67-7.19-3.69-5.52-7.77.77-1.88,2.36-3.34,3.69-4.89,2.17-2.53,3.96-5.65,4.61-8.98.39-2.01.56-4.11.49-6.28,0-.07-.05-.13-.12-.15-1.13-.21-2.3-.35-3.46-.57-6.6-1.27-13.36-2.53-20.28-3.78-2.19-.39-2.17-1.49-2.15-3.37.04-4.37.06-8.76.04-13.16,0-.16-.11-.31-.26-.35-4.08-1.13-7.78-3.31-11.18-5.91-3.26-2.49-6.24-5.89-7.91-9.56-3.77-8.33-3.27-20.2,5.1-25.64,5.82-3.78,13.42-2.68,17.35,3.21.08.12.24.15.36.07,0,0,.02-.01.02-.02,3.52-3.07,7.62-4.07,12.29-2.99,2.18.5,4.17,1.43,5.99,2.78.23.17.48.21.75.11,4.88-1.73,9.81-3.66,14.81-5.78.12-.05.17-.18.12-.29,0,0,0-.02-.01-.03-2.03-3.45-4.46-6.49-7.28-9.12-1.35-1.25-2.77-2.59-4.26-4-2.81-2.66-5.45-5.7-5.66-9.6-.06-1.08.12-2.55.53-4.41,1.95-8.76,2.86-18.06,2.75-27.88-.03-2.14-.5-4.53-1.42-7.16-1.01-2.88-2.23-5.36-3.67-7.45-2.52-3.66-6.26-5.22-10.68-5.66-6.84-.68-14.07-.17-20.33,2.3-4.91,1.93-8.88,5.15-11.93,9.66-4.77,7.05-4.21,16.44-1.75,24.23,1.2,3.81,2.49,7.66,3.11,11.62,1,6.4-1.13,11.15-6.33,14.84-2.15,1.53-4.27,3.03-6.39,4.5-5.03,3.51-8.84,7.99-11.43,13.44-1.49,3.14-2.87,6.35-4.14,9.61-.03.08,0,.18.09.21.02,0,.04.01.07.01,6.53-.15,14.37.08,19.05,5.33,1.69,1.89,3.02,4.12,3.98,6.67.41,1.08.84,2.44.43,3.56ZM388.66,223.74c-3.3,2.66-7.03,5.05-11.18,7.16-2.67,1.36-5.4,2.29-8.19,2.77-.12.02-.21.13-.21.25.18,5.69-.1,11.67-.84,17.95-.55,4.66-1.22,8.73-2.02,12.22-.29,1.27-.4,2.32-.32,3.16.31,3.53,2.83,6.15,5.34,8.43,4.41,4.01,8.89,8.23,11.4,13.55.07.14.23.2.37.14,4.96-2.26,9.08-4.29,13.28-7.19,1.61-1.11,2.72-2.41,3.34-3.9,2.18-5.27,3.16-11.06,2.92-17.38-.11-3.07-.76-6.63-2.3-9.33-1.15-2-2.93-3.83-4.34-5.73-2.78-3.72-4.22-8-5-12.56-.59-3.47-.97-6.87-1.14-10.19,0-.07-.06-.12-.13-.11-.02,0-.05,0-.07.02-.31.25-.62.5-.92.74ZM490.22,249.06c3.63,2.72,4.39,7.64,4.57,11.87.2,4.58.12,9.29-.26,14.14,0,.12.08.22.2.23,0,0,0,0,0,0,10.61.85,21.3,1.83,32.06,2.95.12.01.22-.07.23-.19,0-.02,0-.04,0-.06-1.26-8.23-4.66-15.26-11.2-20.61-5.97-4.89-13.57-8.28-18.48-13.93-1.52-1.75-2.51-3.81-2.98-6.19-.02-.11-.11-.19-.22-.19-4.72-.38-9.03-1.9-12.95-4.55-2.69-1.82-4.1-4.6-4.69-7.78-.05-.3-.16-.32-.33-.07-1.23,1.91-2.85,3.74-4.85,5.5-3.98,3.5-8.62,6.96-13.91,10.38-4.28,2.76-7.39,4.72-9.32,5.87-1.23.73-2.8,1.75-3.65,2.67-1.36,1.48-2.41,3.24-3.15,5.29-1.18,3.28-2.02,6.61-2.5,9.99-.26,1.82-.52,3.67-.77,5.55-.12.85.08,1.59.34,2.38,1.02,3.04,2.16,6.11,2.72,9.1.03.15.13.27.26.33,2.99,1.26,5.79,3.67,8.16,5.88,3.54,3.3,6.93,6.72,10.18,10.26.51.56.95,1.15,1.46,1.73.06.07.11.1.13.1.12,0,.23-.1.24-.23.13-1.73.31-3.45.53-5.16.03-.21-.07-.41-.26-.52-3.96-2.24-8.08-5.27-9.87-9.62-.56-1.36-.97-2.97-1.22-4.84-.45-3.28-.57-6.7-.36-10.26.39-6.59,1.58-14.89,7.12-19.39,2.87-2.33,6.15-3.55,9.76-4.07,6.26-.91,13.01-.43,18.87,1.37,1.54.47,2.91,1.15,4.09,2.04ZM278.73,302.09c1.25,1.14,2.75,2.33,3.57,3.74.05.09.14.13.25.12,1.79-.28,3.6-.47,5.4-.58.2-.01.32-.11.36-.31,1.29-5.67,2.73-11.39,3.32-17.21.77-7.6-.35-14.8-3.35-21.59-4.84-10.95-14.18-18.5-26.1-20.32-7.35-1.12-14.97-.54-21.69,2.27-13.63,5.68-23.2,17.24-25.8,31.77-.76,4.22-.37,8.25.21,12.43.03.21.21.36.41.36,10.75.03,21.53,2.85,26.76,12.88.06.12.21.18.34.13,3.43-1.2,8.03-3.75,6.65-8.16-.93-2.98-2.4-5.76-3.76-8.6-1.27-2.68-2.18-5.47-2.71-8.38-1.37-7.46,2.8-13.94,10.37-15.31,3.89-.7,7.64-.24,11.24,1.39,4.1,1.85,7.06,5.38,8.74,9.59,2.3,5.72,2.06,12.16,2.37,18.43.15,2.96,1.28,5.41,3.42,7.36ZM464.31,293.67c0,.44-.02.85-.07,1.23-.48,3.94-.99,7.75-1.54,11.45-.45,3.04-1.2,6.01-2.25,8.9-1.67,4.62-4.52,7.94-8.54,9.94-1.19.59-2.59,1.13-4.21,1.61-3.29.98-6.62,2.14-9.69,3.65-7.26,3.56-12.43,9.94-14.75,17.64-.06.2-.05.41.02.63,1.28,3.62,1.94,7.43,1.97,11.44.05,6.1-.38,12.05,1.02,18.05,1.24,5.29,4.02,9.5,7.98,13.2,1.54,1.44,3.03,2.89,4.49,4.36,4.42,4.46,7.45,9.59,9.11,15.39.05.19.23.31.43.28l14.87-2.03c.17-.02.3-.18.28-.35-.17-1.65-.43-3.2-.79-4.64-.22-.88-.71-1.91-1.66-2.02-1.16-.14-2.42-.23-3.79-.3-5.77-.27-9.19-2.56-10.48-8.27-.59-2.63-.93-5.64-1.02-9.03,0-.22-.17-.41-.39-.44-2.07-.33-4.45-.86-6.26-2-1.97-1.24-1.3-3.29.35-4.38,1.33-.88,2.57-1.74,3.72-2.59,4.11-3.04,4.49-8.05,4.45-12.8-.04-5.43,0-10.79.1-16.09,0-.54-.28-.9-.51-1.36-.6-1.18-.83-2.55-.67-4.1.53-5.27,2.86-9.65,6.99-13.13,4.11-3.47,9.92-5.77,15.32-6.43,8.28-1,16.13.55,23.53,4.67,9.71,5.4,14.46,14.92,15.64,25.83.46,4.23.57,8.38.35,12.45-.36,6.43-1.09,13.37-2.19,20.81-.39,2.64-.57,5.16-.07,7.75.49,2.48,1.16,4.97,2.03,7.46.04.11.16.17.26.13.01,0,.02,0,.03-.02,1.5-.81,2.96-1.7,4.36-2.65,7.61-5.18,11.39-13.32,14.29-21.73,2.51-7.29,5.24-14.85,5.31-22.62.09-9.81-4.66-18.94-13.71-23.23-1.63-.77-3.22-1.5-4.6-2.66-3.54-2.99-6.91-5.44-10.52-7.27-2.76-1.4-5.46-2.78-8.1-4.15-5.12-2.65-9.18-6.46-10.59-12.14-.48-1.95-.5-3.86-.06-5.76,1.42-6.01,7.02-9.57,13.07-9.99,3.37-.23,7.05.07,11.04.92,3.78.8,7.55,1.54,11.34,1.52,6.09-.03,8.69-4.3,10.35-9.45.06-.2,0-.31-.22-.34-12.49-1.31-24.65-2.46-36.48-3.42-1.18-.1-1.75-.72-1.71-1.86.17-4.81.44-9.54.24-14.37-.14-3.39-.75-8.33-3.81-10.48-2.5-1.75-5.93-2.45-9.01-2.83-1.92-.24-3.88-.37-5.89-.41-6.27-.11-13.4.95-17.08,6.64-1.42,2.2-2.4,4.69-2.94,7.46-1.09,5.57-1.32,11.13-.69,16.67.46,4,1.96,7.4,5.1,10.01,1.48,1.24,3.07,2.31,4.75,3.23.75.41,1.46,1.08,1.47,2ZM197.55,290.13c.55.64,1,1.3,1.35,1.98.22.43.33.4.33-.08.05-8.47.03-17.75-.04-27.82-.02-3.25-.1-6.26-.24-9.04,0-.06-.05-.1-.11-.1-.24,0-.47.04-.7.1-2.08.51-4.01,1.12-5.77,1.82-7.46,2.98-12.45,8.94-14.94,16.52-.52,1.57-1.01,3.04-1.48,4.39-.06.18.03.39.22.45,0,0,.02,0,.03,0,3.88,1.02,7.62,2.44,11.21,4.25,4.29,2.17,7.67,4.67,10.14,7.52ZM279.1,306.84c.12-.03.23-.06.33-.11.26-.1.28-.25.07-.43-1.2-1.05-2.3-2.08-3.28-3.09-2.26-2.33-3.17-5.05-3.34-8.25-.4-7.36.21-15.37-4.54-21.66-2.6-3.45-6.17-5.39-10.73-5.82-8.03-.76-14.37,4.74-12.48,13.18.65,2.89,1.68,5.78,3.11,8.68,1.24,2.5,2.14,4.48,2.72,5.95.36.91.62,1.83.78,2.78.58,3.29-1.6,6.38-4.38,8.05-1.18.71-2.53,1.42-3.88,1.75-.18.05-.29.23-.25.41,0,0,0,.02,0,.03,1.02,2.9,1.57,5.91,1.64,9.02.17,6.65-.77,13.2-3.56,18.95-.91,1.88-2.25,4.26-3.99,7.14-6.56,10.79-8.61,24.52-6.99,36.89.6,4.55,2.04,8.78,4.33,12.69.11.18.34.25.52.15,4.82-2.65,10.05-5.05,15.71-7.2,3.01-1.15,5.72-2.22,8.12-3.22,3.78-1.57,5.81-4.2,6.07-7.88.05-.74-.04-2.12-.28-4.14-.16-1.39-.3-2.76-.43-4.13-.05-.53-.21-1.02-.47-1.47-3.01-5.07-5.32-10.22-6.95-15.43-3.01-9.65-2.32-19.67,2.78-28.44,4.13-7.11,11.25-12.44,19.35-14.36ZM135.83,311.96c1.75.27,3.29,1.24,3.63,2.98.28,1.42.47,2.95.56,4.6.3,5.37.54,11.36.74,17.97,0,.12.1.21.21.21,5.18-.08,10.11-.22,14.78-.41.53-.02.97-.18,1.34-.47.08-.07.14-.17.14-.28.03-1.57-1.48-3.33-2.7-4.22-3.31-2.41-7.72-4.75-8.92-9-.98-3.49.64-6.54,3.52-8.58,4.06-2.86,9.31-3.81,14.35-3.77,4.03.04,7.9,1.15,10.56,4.14,2.37,2.66,3.54,6.26,3.91,9.81,0,.07.07.13.15.12,0,0,0,0,.01,0,.08-.02.14-.07.17-.15.83-2.03,1.67-4.49,1.48-6.48-.92-9.54-7.24-13.97-16.29-14.4-5.48-.26-11.31-.35-17.48-.28-4.68.06-8.32-2.27-11.28-5.7-1.43-1.65-2.7-3.25-3.83-4.79-3.25-4.44-6.77-9.5-10.57-15.18-.44-.66-1.01-1.31-1.58-1.89-.35-.34-.5-.27-.46.22.71,9.12-1.09,17.74-7.06,24.79-1.17,1.38-2.34,2.73-3.5,4.07-1.53,1.75-2.77,3.69-3.89,5.67-.04.07-.01.16.05.19.02.01.05.02.08.02,8.49-.28,17.01-.23,25.56.16,2.11.1,4.22.31,6.32.64ZM177.71,349.05c-.16.05-.28.17-.31.33-1.11,4.6-2.58,8.82-4.41,12.66-1.09,2.29-2.63,4.24-5.39,4.28-2.35.04-4.92-.1-7.73-.42-.24-.03-.38.08-.44.31-.02.09-.03.18-.03.27-.01,4.92-.02,9.84-.01,14.76,0,.09.07.17.17.17,8.73.18,17.04,4.7,23.24,10.59.07.07.19.07.27,0,6.24-5.46,10.94-11.9,14.11-19.33,2.76-6.47,3.91-13.96,2.31-20.81-.65-2.79-1.68-5.53-3.47-7.63-1.25-1.46-2.56-2.8-3.71-4.39-6.69-9.23-7.8-22.48-2.96-32.66,2.16-4.54,5.37-8.12,9.65-10.72.21-.12.27-.39.15-.6-2.11-3.53-4.86-6.42-8.26-8.69-4.79-3.2-9.97-5.31-15.47-6.88-.12-.03-.2,0-.24.13-1.73,5.01-3.96,9.84-6.67,14.49-.42.73-1.27,1.88-2.55,3.45-1.2,1.48-2.54,2.62-4.02,3.43-.52.29-.49.43.11.44,3.25.03,6.37.35,9.31,1.46,4.41,1.66,7.46,4.61,9.16,8.83,2,4.97,1.83,10.92-1.87,14.97-.21.23-.33.48-.37.76-.31,2.21-.62,4.51-.95,6.9-.39,2.92.11,5.62,1.51,8.1.4.71.79,1.42,1.17,2.13,1.05,1.96-.62,3.19-2.29,3.68ZM367,297.91c2.08,2.08,3.31,5.34,3.66,8.26,1.51,12.51-6.35,24.74-18.85,27.79-2.04.5-4.11.66-6.22.48-.08,0-.15.05-.16.13,0,0,0,.01,0,.02v13.8c0,.27.2.51.47.56,6.3,1.17,12.85,2.4,19.63,3.7,1.21.23,2.43.49,3.65.78.11.03.22-.04.24-.15,0-.01,0-.03,0-.04.04-2.73.38-5.18,1.02-7.37.97-3.34,3.09-6.47,5.67-8.76,5.57-4.96,12.02-7.35,19.34-7.18,5.72.13,10.93,1.46,15.63,3.99,4.96,2.66,8.58,6.61,10.86,11.84.03.07.11.1.18.07,0,0,.01,0,.02,0,.08-.05.13-.11.15-.2,1.61-6.29,6.27-11.85,11.69-15.27,4.89-3.09,9.94-4.53,15.17-6.28,8.78-2.94,10.81-13.02,11.84-21.31.01-.1-.02-.19-.08-.26-.21-.24-.48-.4-.7-.66-4.06-4.67-8.74-9.39-14.05-14.14-1.73-1.55-3.59-2.85-5.58-3.89-.43-.23-.84-.2-1.24.08-5.27,3.7-10.94,6.03-16.99,7-6.41,1.02-13.04-.24-19.08-2.77-2.46-1.03-4.59-2.26-6.39-3.69-.08-.06-.15-.06-.23,0-1.28.97-2.67,1.85-4.16,2.66-4.46,2.4-9.03,4.53-13.71,6.39-3.92,1.55-7.74,3.01-11.74,4.21-.08.02-.13.11-.11.19,0,.03.02.05.04.07ZM346.1,299.24c-.09-.05-.18-.12-.24-.2-.86-1.09-1.55-2.39-2.51-3.32-3.29-3.2-8.03-3.76-12.07-1.52-8.4,4.67-8.81,16.01-5.07,23.78,2.3,4.78,6.61,8.59,11.17,11.28,1.81,1.06,3.46,1.85,4.95,2.37,2.67.93,5.23,1.01,7.86.48,10.82-2.16,18.12-11.57,18.53-22.47.24-6.24-2.83-12.05-8.96-14.05-3.74-1.22-7.71-.83-10.74,1.69-.7.59-1.4,1.21-2.09,1.86-.23.22-.51.24-.83.08ZM227.59,376.48c-.47-7.77.4-15.36,2.62-22.78,1.12-3.74,2.69-7.49,4.68-10.78,1.25-2.07,2.37-3.98,3.37-5.72,3.46-6,4.8-13.47,4.41-20.43-.46-8.33-4.15-15.19-11.85-18.92-5.03-2.44-10.73-2.92-16.49-2.96-2.19-.02-4.05.09-5.59.32-7.07,1.07-12.5,4.65-16.29,10.76-2.09,3.36-3.4,7.71-3.75,11.67-.75,8.47,1.39,15.86,6.43,22.17,1.04,1.3,2.28,2.44,3.22,3.7,1.16,1.54,2.1,3.53,2.83,5.96,2.03,6.74,1.44,14.71-.91,21.38-2.06,5.82-5.07,11.13-9.03,15.93-2.11,2.56-4.08,4.62-6.64,6.53-.13.1-.16.28-.06.41,0,.01.02.02.03.03,4.21,4.22,7.67,9.24,8.34,15.13.13,1.12.23,2.3.29,3.54.21,3.99,1.31,8.06,2.59,11.97,1.02,3.11,1.91,6.09,2.69,8.92.16.57.18,1.2.33,1.77.02.09.11.14.2.12.05-.01.1-.05.12-.11,1.99-5.55,4.27-10.88,7.22-15.93,4.13-7.05,9.47-13.05,16.03-18.01,3.27-2.47,6.63-4.66,10.08-6.56.12-.06.16-.21.09-.32,0,0,0,0,0,0-3.24-5.31-4.58-11.45-4.97-17.77ZM265.85,329.49c3.05-4.1,8-6.8,12.97-8.13,4.59-1.23,9.96-1.84,15.13-1.93,6.37-.12,12.76-.05,19.14.2.14,0,.25-.1.25-.24,0-.03,0-.05,0-.08-1.7-5.59-5.34-10.14-11.3-11.24-1.27-.23-2.56-.39-3.88-.48-5.79-.38-11.33-.26-16.98,1.01-7.2,1.62-13.63,5.54-17.91,11.56-5.53,7.78-7.1,17.32-4.6,26.61,1.6,5.96,4.34,12.44,7.93,17.9.4.61.89,1.18,1.46,1.72.24.23.63.22.85-.03,0,0,.02-.02.02-.03.97-1.17,1.97-3.25,1.37-4.74-.34-.86-.79-1.71-1.36-2.55-3.11-4.65-5.51-9.36-6.43-14.81-.86-5.12.21-10.56,3.32-14.74ZM175.41,347.88c.24-.95,1.13-1.27,2.06-1.38.13-.02.22-.14.21-.27,0-.04-.02-.07-.04-.1-.46-.68-.95-1.31-1.29-2.04-1.27-2.7-1.74-5.56-1.42-8.57.17-1.54.4-3.37.68-5.49,1-7.52-1.48-15.97-10.38-16.83-5.33-.51-13.18.49-16.8,5.16-2.46,3.17-.19,6.8,2.48,8.83,1.43,1.09,2.93,2.18,4.49,3.28,1.37.96,2.41,2.07,3.13,3.31,1.47,2.55.69,5.17-2.52,5.4-.83.06-1.6.1-2.31.12-4.25.13-8.49.17-12.75.14-.07,0-.12.05-.12.12,0,0,0,0,0,0,.16,5.7.25,11.5.26,17.4,0,2.29-.1,4.08-.3,5.36-.35,2.23-1.62,3.38-3.83,3.44-3.49.1-6.64.16-9.45.19-.12,0-.22.1-.21.22,0,.01,0,.02,0,.03.89,5.67.84,11.71-2.81,16.5-.1.13-.08.33.05.44,4.43,3.72,9.55,6.62,14.99,8.99,4.3,1.88,8.68,3.05,13.12,2.64,1.41-.13,2.68-.58,3.82-1.35.39-.26.58-.65.58-1.16,0-8.49-.01-17.1-.03-25.82,0-1.2.11-2.82,1.62-2.9.63-.03,1.26-.02,1.87.04,2.14.19,4.13.29,5.97.32,1.39.02,2.77-.21,3.49-1.43.72-1.21,1.36-2.5,1.92-3.86,1.38-3.32,2.56-6.91,3.54-10.75ZM102.15,364.49c10.45-.52,21.26-.9,32.41-1.15.71-.02,1.47-.05,2.28-.09,1.37-.07,1.51-1.22,1.57-2.3.15-2.7.2-5.72.16-9.08-.14-10.82-.49-21.57-1.04-32.24-.06-1.11-.2-2.25-.41-3.43-.16-.85-.66-1.39-1.5-1.61-.87-.23-1.74-.38-2.6-.45-4.14-.34-8.26-.57-12.32-.59-12.98-.06-25.48.21-37.49.81-2.46.12-4.51.29-6.15.5-1.3.17-2.2.89-2.71,2.18-.49,1.25-.86,2.54-1.1,3.87-.45,2.51-.77,4.8-.94,6.89-.78,9.14-.73,18.59.13,28.37.16,1.83.43,3.72.82,5.7.5,2.57,1.44,3.38,4.09,3.46,2.82.08,5.8.05,8.94-.09,5.16-.23,10.46-.48,15.88-.75ZM315,368.12c.07-1.08.16-2.47,1.54-2.61,1.19-.13,2.46-.24,3.83-.32,1.28-.09,3.65-.77,3.25-2.53-.2-.86-.52-1.7-.99-2.51-1.7-2.97-3.79-6.2-6.25-9.69-.76-1.08-1.55-2.48-1.39-3.76,1.07-8.18.21-16.52-1.95-24.46-.04-.15-.17-.25-.32-.25-8.34-.23-16.52-.49-24.83.19-9.38.77-19.84,3.99-22.67,14.14-2.2,7.88,2.04,15.88,6.36,22.34,2,3,1.43,6.5-.77,9.1-.55.65-1.34,1.03-2.38,1.14-.52.05-.99-.19-1.43-.44-.07-.04-.17-.02-.21.06-.02.03-.02.07-.02.11.36,1.74.57,3.35.64,4.83.24,4.98-1.81,8.59-6.16,10.83-1.22.63-2.41,1.16-3.58,1.61-5.49,2.09-11.19,4.18-16.25,6.72-1.62.81-3.28,1.61-4.99,2.41-.16.08-.24.27-.16.43.01.02.02.04.04.06,4.71,6.13,11.63,10,18.42,13.35,4.03,1.99,8.18,3.65,12.46,4.98,5.97,1.86,12.03,2.59,18.17,2.18.18-.01.31-.17.3-.34,0-.01,0-.02,0-.03-1.53-8.83-.76-19.49,5.64-26.25.52-.55,1.12-1.01,1.8-1.37,1.21-.65,2.75-.53,4.07-.39,3.53.38,7.1.94,10.6,1.06,1.96.07,3.28-.35,4.13-2.21,1.21-2.67,1.79-5.77,2.16-8.63.42-3.3.73-6.54.92-9.73ZM491.56,350.53c4.9,4.01,7.23,10.17,7.74,16.44.35,4.31.34,8.62,1.3,12.92.41,1.83,1.02,3.89,3.26,3.93.15,0,.28-.11.3-.26.98-6.77,1.82-13.73,2.11-20.75.53-12.78-2.01-26.51-13.57-33.94-10.59-6.81-24.98-7.88-35.68-.96-4.75,3.07-8.02,7.97-8.5,13.63-.15,1.75.46,2.97,1.88,3.97.97.69,2.05,1.24,3.23,1.65,3.8,1.34,7.75,1.37,11.85.11,2.71-.84,4.98-1.41,6.83-1.72,6.54-1.1,13.94.62,19.25,4.97ZM479.71,365.68c-1.43,1.71-2.8,3.52-4.09,5.42-1.67,2.46-2.39,4.91-.23,7.31,1.09,1.22,2.78,1.66,4.29,1.36,4.95-.98,6.65-6.01,5.99-10.64-.29-2.04-1.14-4.07-2.62-5.41-1.13-1.02-2.71,1.22-3.33,1.97ZM197.1,437.37c-.25-1.17-.54-2.3-.88-3.38-1.23-3.93-2.37-7.6-3.43-11.02-1.18-3.79-1.85-7.66-2.02-11.62-.11-2.6-.66-5-1.65-7.18-2.27-5.01-6.49-9.25-10.9-12.86-5.21-4.26-11.51-7.08-18.28-7.65-.12-.01-.23,0-.35,0-.11.02-.17.08-.17.2.01,2.25.03,4.57.03,6.97,0,1.57-.15,2.66-.46,3.26-1.39,2.67-6.08,3.24-8.77,3.14-2.76-.11-5.45-.62-8.06-1.52-6.84-2.38-13.72-6.04-19.22-10.94-.08-.07-.21-.06-.29.02,0,0,0,0,0,0-3.49,3.98-8.64,7.41-13.64,9.37-2.28.89-3.95,2.13-5.08,4.26-.03.05,0,.11.04.14.01,0,.03.01.04.01,4.2.26,8.1,1.12,11.7,2.58,2.93,1.19,5.47,3.02,6.88,5.95,1.4,2.92,1.7,6.35,1.91,9.66.14,2.15.21,4.28.23,6.38,0,.11.08.2.19.23.05,0,.1,0,.15,0,4.84-1.44,9.64-1.96,14.38-1.55,4.81.42,8.81,2.42,12.01,6,1.98,2.22,3.66,4.73,5.03,7.52,1.41,2.86,2.84,5.91,4.29,9.15,3.08,6.87,7.2,13.71,12.84,18.69,1.46,1.29,3.06,2.27,4.8,2.97,6.71,2.66,11.31-5.53,13.48-10.62,2.07-4.84,3.94-10.09,5.62-15.74.33-1.1-.25-1.46-.45-2.4ZM82.79,438.52c.79,3.18,4.91,4.09,7.69,4.56,1.86.31,3.72.53,5.59.66,5.66.4,11.8.5,18.41.31,1.36-.04,2.64-.16,3.85-.38,1.87-.33,3.72-.98,3.98-3.18.19-1.69.31-3.39.34-5.12.13-7.44.23-14.72-.51-21.99-.59-5.76-3.33-9.17-8.85-10.94-4.36-1.4-9.39-1.93-14.22-2.15-4.2-.19-8.14-.17-11.81.06-1.36.09-2.6.33-3.72.74-1.57.57-1.7,1.64-1.72,3.09-.13,9.61-.01,19.1.33,28.46.07,1.92.19,4.05.64,5.87Z"/>
  <path class="cls-1" d="M487.75,9.81c3.09-5.49,9.4-7.44,14.89-4.38,5.98,3.33,7.79,11.72,6.78,17.97-.55,3.45-1.95,6.42-4.18,8.91-5.57,6.21-13.92,9.35-22.06,6.91-1-.3-1.93-.62-2.8-.95-.65-.26-1.4-.17-2.05.07-2,.76-3.29,1.23-3.89,1.42-5.25,1.67-10.54,2.4-15.87,2.19-.51-.02-1.23-.09-1.48-.64-.32-.73-.11-1.44.67-1.7,2.1-.71,3.76-1.82,5.12-3.69,1.7-2.35,1.67-5.18,1.02-7.88-1.46-6.1-3.72-11.82-1.27-18.09,1.71-4.39,5.53-7.09,10.22-7.15,5.35-.07,11.92,2.09,14.67,7.01.03.06.1.08.16.05.02-.01.04-.03.05-.05ZM487.43,12.86c-.7-.29-1.29-1.53-1.66-2.17-2.47-4.22-8.16-5.98-12.82-6-6.66-.03-9.94,6.51-9.43,12.32.31,3.48,1.36,6.68,2.17,9.92,1.22,4.92.82,9.33-3.38,12.56-.09.06-.12.15-.11.25,0,.05.05.09.1.08,3.01-.21,5.85-.64,8.51-1.31,2.42-.6,4.94-1.55,7.41-2.43,1-.35,1.98-.34,2.94.05,1.45.59,2.89,1.05,4.3,1.37,7.58,1.73,16.54-2.86,20.22-9.64,2.76-5.1,2.43-11.46-.13-16.42-1.84-3.56-5.1-5.76-9.07-5.49-2.29.16-4.14,1.36-5.67,2.96-1.11,1.16-1.75,2.63-2.84,3.83-.14.15-.35.2-.54.12Z"/>
  <path class="cls-1" d="M290.72,27.67c6.26-.72,12.89-.98,19.51-.94,5.95.03,11.3,1.88,14.01,7.36,1,2.01,1.63,4.26,1.89,6.75.32,3.04.29,6.19-.09,9.43-.46,3.9-1.96,8.22-6.68,7.96-10.02-.57-20.68-.68-31.97-.33-.75.02-1.51.02-2.26,0-2.96-.09-2.84-2.15-2.87-4.66-.08-6.82.19-13.13.79-18.93.09-.85.34-1.96.75-3.33.36-1.19,1.22-1.99,2.57-2.41,1.38-.43,2.82-.73,4.33-.9ZM289.01,55.93c6.65-.22,13.13-.26,19.46-.14,3.56.07,7.3.35,10.84.45.86.02,1.53-.11,2.02-.39,3.55-2.08,3.14-11.75,2.71-15.15-.27-2.19-.9-4.17-1.86-5.95-2.29-4.2-6.33-5.85-11.06-5.99-6.89-.2-13.87.14-20.95,1.01-1.36.17-2.43.43-3.21.78-.75.34-1.23.94-1.44,1.78-.33,1.32-.56,2.73-.69,4.22-.49,5.65-.68,11.53-.55,17.65,0,.46.07.91.19,1.35.03.1.08.17.17.22.21.13.44.19.67.19,1.19.01,2.42,0,3.7-.05Z"/>
  <path class="cls-1" d="M347.25,175.84c-.15-.05-.32,0-.44.1-3.1,3.08-6.51,5.66-10.55,7.32-1.61.66-4.51,1.58-5.61-.47-.35-.66.07-1.43.51-1.91,3.11-3.39,5.62-6.87,5.39-11.57-.2-3.88-.1-7.39,1.19-11.17,1.93-5.64,6.78-9.22,12.87-8.6,4.08.41,6.99,2.94,9.74,5.91.88.96,2.03,1.86,3.25,2.34,1.85.73,4.03.16,6.05-.11,1.4-.19,2.03,1.04,1.92,2.24-.18,1.96-.77,4.06-1.77,6.28-3.74,8.35-13.95,12.47-22.54,9.65ZM345.45,174.28c.57-.47,1.37-.81,2.07-.64,1.44.35,2.38.56,2.82.63,4.87.8,10.19-.93,13.87-4.18,2.75-2.42,4.22-6.06,5.05-9.65.03-.15-.06-.29-.2-.32-.03,0-.06,0-.1,0-.73.1-1.5.18-2.3.25-3.53.29-6.04-1.13-8.29-3.63-2.38-2.64-4.98-4.96-8.77-5.08-2.91-.09-5.36.93-7.35,3.07-3.22,3.47-3.78,8.32-3.57,12.89.1,2.07.07,3.64-.09,4.71-.5,3.38-2.4,6.04-4.59,8.64-.56.66-.43.86.39.59,2.13-.7,4.09-1.67,5.89-2.9,1.66-1.14,3.44-2.9,5.19-4.34Z"/>
  <path class="cls-1" d="M358.3,256.39c.3,3.68.48,7,.54,9.95.05,2.39-.84,3.92-2.65,4.58-.69.25-2.13.33-4.32.23-5.15-.23-10.71-.13-16.68.3-1.56.11-3.35-.06-3.4-2.1-.12-4.45-.16-8.83-.46-13.52-.21-3.32-.39-6.7-.53-10.16-.28-6.76.95-13.25,7.16-16.75,2.57-1.45,5.34-2.06,8.31-1.82,5.07.41,8.82,3.29,10.27,8.25.5,1.73.76,3.71.84,5.53.23,5.49.54,10.65.93,15.5ZM356.66,263.88c-.06-1.27-.14-2.48-.23-3.62-.53-6.58-.9-12.4-1.1-17.46-.2-5.03-.85-11.04-6.46-12.96-3.44-1.18-6.78-.84-10,1.02-5.97,3.45-6.17,10.1-5.9,16.26.14,3.38.32,6.64.51,9.8.23,3.75.29,7.66.37,11.44,0,.23.03.46.07.68.05.26.2.38.47.37,6.46-.4,12.98-.51,19.56-.31,1.05.03,2.39-.14,2.62-1.44.15-.82.18-2.07.09-3.77Z"/>
  <path class="cls-1" d="M92.92,428.33c-.15-4.59-.33-9.09-.22-13.6.06-2.26,3.22-.79,4.38-.21,3.98,1.97,7.55,4.15,11.68,6.6.95.56,2.67,1.73,1.2,2.86-.49.38-1.07.7-1.74.98-3.54,1.47-7.06,2.91-10.53,4.32-.83.34-3.9,1.86-4.43.63-.2-.47-.31-.99-.33-1.57ZM94.78,415.69s-.08,0-.1.04c0,0,0,0,0,0-.03.06-.04.13-.04.2.1,3.78.2,7.76.28,11.96,0,.07.03.13.09.17.05.03.1.04.16.02,3.92-1.53,7.74-3.1,11.45-4.69.23-.1.52-.12.75-.22.31-.14.32-.29.03-.47-3.12-1.89-6.25-3.7-9.38-5.41-.96-.53-2.05-1.06-3.25-1.6Z"/>
</svg>