<?xml version="1.0" encoding="UTF-8"?>
<svg id="Layer_1" data-name="Layer 1" xmlns="http://www.w3.org/2000/svg" viewBox="0 0 849.23 692.01">
  <defs>
    <style>
      .cls-1 {
        fill: #ccc;
      }

      .cls-2 {
        fill: #c9da2d;
      }

      .cls-3 {
        fill: #5113f9;
      }
    </style>
  </defs>
  <path class="cls-1" d="M2.15,82.69c-1.36.26-2.48-1.01-2.06-2.33,2.48-7.86,2.54-20.06,8.65-18.1,31.35,2.89,65.79,4.01,96.93-.68,8.87-1.34,30.43,1.26,16.6,11.79-7.46,5.68-30.61,3.72-39.99,4.59-13.96,1.3-27.93,2.47-41.92,3.51-4.64.34-28.68-.57-38.21,1.22Z"/>
  <path class="cls-3" d="M662.58,408.93c1.28,0,2.44-.88,2.75-2.19,6.6-28.49,26.09-119.38,35.52-160.43.45-1.97-1.28-3.85-3.37-3.37-21.04-.01-145.55-.1-163.85-.11-1.56,0-2.82,1.26-2.82,2.82,0,1.56,1.26,2.82,2.82,2.82l160.91.11c-10.73,46.99-26.67,122.13-34.71,156.88-.41,1.77.94,3.46,2.75,3.46Z"/>
  <path class="cls-3" d="M482.47,461.61l-103.52-.42c1.17-6.73-4.86,27.9,15.06-86.35.26-1.54-.78-2.99-2.31-3.25-1.52-.26-2.99.78-3.25,2.31l-15.22,87.26c-138.02-.25-130.38-1.27-131.9.31-.53.53-.83,1.24-.83,1.99l.08,24.13-36.17-.02c-1.56,0-2.82,1.26-2.82,2.82s1.26,2.82,2.82,2.82l274.92.19c-.77-.4-1.12-1.23-1.02-1.96,5.72-40.9,3.75-26.8,4.18-29.85Z"/>
  <path class="cls-3" d="M512.71,478.58c.3-1.55-1.47-3.29-2.8-2.88-.05.01-.09.03-.14.04-.04.02-.08.05-.13.06-.6.28-1.06,1.02-1.18,1.93-.51,3.74,3.81,3.09,4.24.85Z"/>
  <rect class="cls-3" x="609.48" y="476.01" width="10.28" height="4.04"/>
  <path class="cls-3" d="M634.17,450.31c1.36.02,2.5-.88,2.81-2.18,14.05-60.52,28.52-120.38,40.39-184.45.27-1.45-.33-2.78-2.78-3.34-16.93.02-107.59-.03-126.5-.04-1.56,0-2.82,1.26-2.82,2.82s1.26,2.82,2.82,2.82c.3,0,107.89.06,123.11.04-11.67,62.35-25.75,120.72-39.2,178.63-75.93-1.5-165.93,1.65-234.36-.66,5.28-23.83,9.2-45.51,9.57-47.3.33-1.52-.65-3.02-2.17-3.35-1.51-.32-3.02.65-3.35,2.17-.13.62-.23,1.17-.42,2.15-9.67,51.45-10.95,48.69-9.37,50.75.51.66,1.29,1.07,2.13,1.1,20.95.77,43.38,1.01,66.92,1.01,55.83,0,117.6-1.35,173.21-.18Z"/>
  <path class="cls-3" d="M702.79,488.3h-60.56c3.25-6.18,5.29-10.21,8.95-20.9.53-.39.93-.95,1.09-1.63,3.56-15.45,6.68-28.97,9.6-41.59.35-1.52-.59-3.03-2.11-3.38-1.52-.35-3.03.6-3.38,2.11-2.78,12.01-5.74,24.86-9.09,39.39l-119.01-.5-42-.17c-4.54,32.45-4.21,30.57-4.46,30.98-.17.34-.47.62-.83.81l105.31.06,50.4.42c.14.02.28.04.43.04h65.67c1.56,0,2.82-1.26,2.82-2.82s-1.26-2.82-2.82-2.82ZM605.72,474.13c0-1.04.84-1.88,1.88-1.88h14.04c1.04,0,1.88.84,1.88,1.88v7.8c0,1.04-.84,1.88-1.88,1.88h-14.04c-1.04,0-1.88-.84-1.88-1.88v-7.8ZM568.83,477.08h0l11.71.06c1.04,0,1.88.85,1.87,1.89,0,1.04-.85,1.87-1.88,1.87h0l-11.71-.06c-1.04,0-1.88-.85-1.87-1.89,0-1.04.85-1.87,1.88-1.87ZM536.37,476.45h0l11.71.05c1.04,0,1.88.85,1.87,1.89,0,1.04-.85,1.87-1.88,1.87h0l-11.71-.05c-1.04,0-1.88-.85-1.87-1.89,0-1.04.85-1.87,1.88-1.87ZM508.08,472.38c.12-.06.25-.1.37-.13.11-.06.24-.11.36-.15,1.84-.56,3.9-.05,5.49,1.38,3.63,3.26,2.6,8.72-1.94,10.32-2.07.73-4.18.35-5.66-.91-3.25-2.76-2.46-8.75,1.38-10.51Z"/>
  <path class="cls-3" d="M525.42,418.23c-3.86-1.81-8.15-.78-10.92,2.26-24.51-14.82-20.12-12.07-24.05-14.59-24.64-15.78-25.45-14.94-27.38-12.89l-25.5,26.9c-6.4-5.21-15.56-.38-15.56,7.92,0,5.56,4.32,10.07,9.65,10.07,6.32,0,11.27-6.39,9.13-13.19l25.34-26.73c5.13,2.17,22.41,13.44,23.79,14.27l22.09,13.33c-1.13,6.37,3.58,11.91,9.48,11.91,7.66,0,12.2-8.8,8.13-15.46,7.01-9.42,15.37-18.19,23.22-26.76,5.94,2.93,21.2,10.1,25.71,12.41,1.28.66,2.84.25,3.64-.95,18.99-28.57,36.71-60.32,52.73-94.38,5.09-.28,9.14-4.64,9.14-10.02s-4.32-10.07-9.65-10.07-9.65,4.51-9.65,10.07c0,3.63,1.86,6.78,4.61,8.56-15.39,32.63-32.36,63.11-50.5,90.64-5.1-2.51-15.26-7.3-21.21-10.18,1.77-1.83,2.87-4.36,2.87-7.16,0-5.56-4.32-10.07-9.65-10.07s-9.65,4.51-9.65,10.07c0,4.09,2.35,7.6,5.71,9.18-7.4,8.05-14.96,16.16-21.5,24.88Z"/>
  <rect class="cls-2" x="531.14" y="291.41" width="65.06" height="14.69"/>
  <rect class="cls-2" x="527.36" y="319.53" width="34.42" height="14.69"/>
  <path class="cls-3" d="M581.47,155.21c.67,3.36,1.11,4.99,1.81,8.47l-9.19,6.07c-2.08.43-2.93,2.87-1.66,4.63,2.14,4.68,4.98,8.96,8.5,12.72.55.59,1.31.89,2.06.89.06,0,.11-.03.17-.03.37.06.81.16,1.58-.17,3.64-1.59,7.25-3.34,10.8-5.17.89.9,4.61,4.67,5.56,5.64l-1.88,10.68c-.27,1.53.76,3,2.29,3.27h0c1.56.54,11.32,4.25,14.05,4.25,1.35,0,2.61-.98,2.79-2.5l4.33-9.16c3.13-.18,5.61-.53,9.18-.94,5.02,7.52,5.11,8.15,5.96,8.79,0,0,.01,0,.01.01.91.68,2.02.78,3.06.19,6.13-2.04,11.94-5.57,12.78-6.33,1.08-.88,1.36-2.42.64-3.62-.92-3.74-2.11-7.43-3.53-11.01,2.45-1.68,4.41-3.4,5.9-5.19,3.13.96,9.29,2.5,10.85,2.5.83,0,1.57-.4,2.09-1,.6-.37,1.08-.94,1.26-1.68,1.19-4.76,2.01-9.42,3.5-14.49.03-.11.04-.21.06-.32.65-1.32.19-2.92-1.1-3.68-3-1.75-6.84-2.89-10.19-3.94l-.1-6.4c3.28-2.08,6.23-4.59,8.77-7.53,1.4-.67,2-2.33,1.34-3.74-2.25-4.81-5.1-9.33-8.48-13.43-.85-1.03-2.1-1.57-3.36-1.14-3.62,1.21-7.11,2.78-10.43,4.65-2.03-2.53-4.4-4.79-7.01-6.71l2.23-10.09c.39-1.75-.95-3.49-2.86-3.42-13.52-3.06-13.07-3.32-14.26-3.04-.95.17-1.79.81-2.15,1.78l-3.5,9.34-9.34,2.51-5.44-11.01c-.9-1.82-3.36-2.12-4.67-.58-4.9,2.28-9.04,4.97-13.21,6.81-1.51.67-2.09,2.6-1.45,3.95l5.24,11.01-4.81,6.71c-3.55.13-7.15-.3-10.56-1.28-1.57-1.2-3.71-.46-4.35,1.26l-5.08,13.74c-.38,1.03-.11,2.12.58,2.88.89,1.37,1.51.96,11.22,4.87ZM591.48,139.33c1.11-.09,2.01-.81,2.39-1.78,5.94-8.55,6.45-8.44,6.55-9.88.29-1.59-.41-1.68-4.96-11.65,4.01-2.01,5.59-3.05,9.37-4.94l4.62,9.35c.11,1.79,1.85,3.01,3.55,2.55,12.59-3.55,12.84-3.06,13.84-4.21.64-.3,1.17-.82,1.44-1.53l2.99-7.98,8.7,2.04-1.73,7.82c-1.05,1.37-.62,3.22.72,4.08,3.4,2.17,6.42,5.07,8.74,8.37.53.76,1.41,1.25,2.49,1.17.1.01.2.04.31.04.5,0,1.01-.13,1.47-.41,2.95-1.81,6.09-3.31,9.34-4.52,2.21,2.85,4.16,5.89,5.8,9.09-6.03,6.7-8.8,5.82-9.32,8.46-.73,1.22-.26,1.53-.25,10.67.02,1.12.7,2.08,1.65,2.52.95.68,5.55,1.67,9.37,3.34-1.06,3.86-1.54,6.25-2.71,11.27-2.59-.5-5.13-1.15-8.04-2.07-1.33-1.36-3.48-1.04-4.42.48-1.43,2.31-3.96,4.56-7.75,6.86-1.46.89-1.88,2.95-.58,4.33,1.38,3.34,2.54,6.79,3.46,10.3-2.51,1.53-5.16,2.81-7.91,3.84l-5.02-7.69c-.71-1.09-2.04-1.51-3.21-1.14-4.35.48-7.02.92-10.64,1.08-1.31-.39-2.74.22-3.35,1.49l-4.58,9.68c-2.77-.68-4.74-1.47-8.6-2.85l1.49-8.44c1.05-1.6.08-3.52-1.02-4.22-2.98-3.01-5.43-5.52-7.58-7.69-.86-.86-2.19-1.08-3.41-.43-3.5,1.86-7.11,3.59-10.73,5.21-2.18-2.53-4.05-5.29-5.56-8.25l9.87-6.52c1.31-.86,1.72-2.69.68-4.05-.73-3.69-1.38-6.18-2.05-9.65.12-1.24-.57-2.45-1.79-2.92l-9.24-3.53,3.22-8.7c3.99.97,8.19,1.35,12.42,1.01Z"/>
  <path class="cls-2" d="M623.05,179.71c7.35,0,14.73-3.01,19.63-8.53,8.73-9.79,9.1-25.33.15-34.11-6.66-6.59-12.33-8.9-20.79-8.52-11.28.49-21.54,9.24-23.87,20.37-2.95,14.2,7.55,30.79,24.88,30.79ZM606.72,150.08c.79-.68,1.98-.59,2.65.2l9.49,11.06c6.51-6.06,13.57-11.87,20.52-16.88.84-.61,2.02-.42,2.63.43.61.84.42,2.02-.43,2.63-7.34,5.29-14.8,11.48-21.57,17.91-.78.74-2.03.67-2.72-.14l-10.77-12.55c-.68-.79-.59-1.98.2-2.65Z"/>
  <path class="cls-3" d="M683.44,96.06c-1.13-1.07-2.92-1.02-3.99.11-1.07,1.13-1.02,2.92.11,3.99,28.8,27.28,46.26,67.24,46.71,106.91.02,1.55,1.28,2.79,2.82,2.79h.03c1.56-.02,2.81-1.29,2.79-2.85-.47-41.16-18.59-82.64-48.48-110.94Z"/>
  <path class="cls-3" d="M734.33,114.68c-1.63-2.18-5.08-1.02-5.08,1.69v1.68c0,1.48,1.14,2.69,2.58,2.81,8.04,11.51,14.12,24.64,17.66,38.2.33,1.27,1.47,2.11,2.73,2.11,1.85,0,3.2-1.75,2.73-3.53-4-15.37-11.13-30.22-20.62-42.95Z"/>
  <path class="cls-3" d="M432.45,310.29c-1.56,0-2.82,1.26-2.82,2.82s1.26,2.82,2.82,2.82h7.23c1.56,0,2.82-1.26,2.82-2.82s-1.26-2.82-2.82-2.82h-7.23Z"/>
  <path class="cls-3" d="M136.81,48.58l81.87,4.8,19.35,21.29c.56.61,1.32.92,2.09.92,2.43,0,3.74-2.91,2.09-4.72l-20.13-22.14c-.5-.55-1.19-.88-1.92-.92l-83.02-4.87c-1.63-.08-2.89,1.1-2.98,2.65-.09,1.56,1.09,2.89,2.65,2.98Z"/>
  <path class="cls-2" d="M4.24,74.39l122.63-2.18c1.49-.04,2.69-1.2,2.76-2.69l2.14-45.1c.08-1.47-1.02-2.76-2.5-2.93L7.43,7.64c-1.71-.17-3.07,1.12-3.14,2.67l-2.91,61.13c-.04.77.24,1.54.79,2.09.52.53,1.23.87,2.07.87ZM73.51,51.89c-29.85-1.41-16.17-.76-19.9-.94-1.03-.06-1.82-.94-1.79-1.97.06-1.03.96-1.81,1.97-1.79l19.81.94c1.03.06,1.84.94,1.79,1.97-.06,1-.88,1.79-1.88,1.79ZM108.32,35.77c8.33-1.19,10.59,10.95,4.72,15.29-2.6,1.9-6.34,2.14-9.08.49-7.03-4.19-2.88-14.75,4.36-15.78ZM20.73,33.31l64.23,3.07c1.03.06,1.82.92,1.79,1.97-.06,1-.88,1.79-1.88,1.79-99.08-4.72-50.26-2.4-64.32-3.07-1.03-.06-1.82-.94-1.79-1.97.06-1.03,1-1.81,1.97-1.79Z"/>
  <path class="cls-3" d="M135.38,362.48l372.86,10.24s.05,0,.08,0c1.4,0,2.6-1.04,2.79-2.44l41.29-298.87c.24-1.74-1.15-3.28-2.94-3.2l-384.75,20.23c-1.38.07-2.5,1.13-2.66,2.5l-14.85,133.12c-.17,1.55.94,2.94,2.49,3.12,1.55.17,2.94-.94,3.12-2.49l10.61-95.12c2.96,1.31,249.72-10.03,377.21-14.21l-34.76,251.64-142.9-3.93c2.91-34.97,4.91-88.99,7.85-123.13.07-.77-.19-1.54-.71-2.12-.74-.83-1.55-.95-2.53-.95-19.04,0-25.02,29.82-40.79,33.9-14.26,3.69-28.38-16.68-45.69-15.15-20.3,1.78-29.14,29.7-45.88,34.63-17.98,5.31-34.9-16.93-55.43-16.45-11.31.28-23.18,5.29-33.86,14.2l4.74-44.46c.17-1.55-.96-2.94-2.51-3.11-1.54-.15-2.94.96-3.1,2.51l-12.41,116.4c-.08.78.16,1.56.68,2.16s1.26.94,2.05.96ZM353.89,116.91c-190.86,7.88-188.18,7-189.87,7.34l3.38-30.28,378.95-19.93-4.93,35.66c-61.83,2.02-125.72,4.66-187.53,7.21ZM145.08,296.03c.36-.13.69-.32.99-.6,10.59-10.02,22.61-15.7,33.87-15.97,11.26-.31,22.34,8.18,33.03,13.02l-5.4,47.06c-.18,1.55.93,2.95,2.48,3.13.11.01.22.02.33.02,1.41,0,2.63-1.06,2.8-2.5l5.23-45.54c6.02,2.05,12.21,2.87,18.42,1.04,9.75-2.87,16.78-11.5,23.49-19.34,15.61-18.19,23.55-18.06,38.09-9.7l-3.7,64.22c-.09,1.55,1.1,2.89,2.65,2.98.06,0,.11,0,.16,0,1.48,0,2.73-1.16,2.81-2.66l3.53-61.33c7.65,4.51,15.59,8.66,24.35,6.4,17-4.4,23.53-30.21,36.71-33.4-2.81,34.42-4.77,86.32-7.59,120.08l-218.73-6.01,6.49-60.9Z"/>
  <path class="cls-3" d="M194.78,99.02c-4.64,0-8.4,4.01-8.4,8.96s3.76,8.96,8.4,8.96,8.39-4.01,8.39-8.96-3.76-8.96-8.39-8.96Z"/>
  <path class="cls-3" d="M224.44,97.9c-4.64,0-8.39,4.01-8.39,8.95s3.76,8.96,8.39,8.96,8.4-4.01,8.4-8.96-3.76-8.95-8.4-8.95Z"/>
  <path class="cls-3" d="M252.98,96.78c-4.64,0-8.4,4.01-8.4,8.95s3.76,8.96,8.4,8.96,8.39-4.01,8.39-8.96-3.76-8.95-8.39-8.95Z"/>
  <path class="cls-3" d="M496.78,89.49c-29.63,2.28-102.57,6.74-133.08,7.72-1.56.05-2.78,1.35-2.73,2.91.05,1.54,1.33,2.78,2.91,2.73,30.58-.98,103.65-5.45,133.33-7.73,1.55-.12,2.72-1.48,2.6-3.03-.12-1.55-1.5-2.71-3.03-2.6Z"/>
  <path class="cls-2" d="M171.34,261.23c1.09,1.11,2.87,1.14,3.99.05l19.45-18.98,13.87,24.1c.97,1.69,3.31,1.89,4.57.45,15.85-18.19,33.23-34.66,51.72-49.01l22.48,23.96c.98,1.05,2.6,1.19,3.75.33l22.81-17.13c4.64,8.74,4.8,9.07,4.91,9.24,1.41,2.26,4.59,1.56,5.11-.85,4.03-8.47,6.37-15.74,10.36-24.04.9-1.87-.47-4.04-2.54-4.04-8.27,0-15.44-.43-23.81-.43-2.12,0-3.49,2.27-2.49,4.14l5.79,10.93-21.5,16.14-22.51-23.99c-.99-1.05-2.61-1.19-3.77-.31-18.53,14.16-35.99,30.42-51.96,48.37l-13.72-23.84c-.92-1.6-3.1-1.89-4.42-.61l-22.05,21.52c-1.11,1.09-1.14,2.87-.05,3.99Z"/>
  <path class="cls-3" d="M503.12,230.12l10.29-94.8c.18-1.69-1.16-3.19-2.93-3.12l-123.02,5.6c-1.42.07-2.57,1.18-2.68,2.59l-6.79,84.95c-.13,1.62,1.12,2.99,2.71,3.04l119.51,4.25c1.54.04,2.75-1.09,2.91-2.51ZM383.85,222.85l6.35-79.53,117.24-5.33-9.65,88.92-113.94-4.05Z"/>
  <path class="cls-3" d="M432.98,155.56c-1.73-1.44-4.36-.38-4.61,1.85l-4.94,43.43c-.12,1.04.35,2.05,1.2,2.64.86.59,1.98.66,2.9.18,11.67-6.06,27.18-10.2,39.27-16.49,1.79-.93,2.05-3.38.51-4.67-11.27-9.41-23.18-17.64-34.33-26.95Z"/>
  <path class="cls-3" d="M480.38,262.2c1.56-.01,2.81-1.29,2.79-2.85-.01-1.55-1.27-2.79-2.82-2.79h-.03c-28.71.27-57.79-.65-86.41-2.73-1.52-.11-2.91,1.05-3.02,2.61-.11,1.55,1.05,2.91,2.61,3.02,25.48,1.86,51.32,2.79,76.94,2.79,3.31,0,6.63-.02,9.93-.05Z"/>
  <path class="cls-3" d="M468.7,286.43c0-1.55-1.27-2.81-2.82-2.81h-.01l-62.34.28c-1.56,0-2.82,1.28-2.81,2.83,0,1.55,1.27,2.81,2.82,2.81h.01l62.34-.28c1.56,0,2.82-1.28,2.81-2.83Z"/>
  <rect class="cls-2" x="178.78" y="154.3" width="165.25" height="24.62" rx="2.82" ry="2.82"/>
</svg>