<?xml version="1.0" encoding="UTF-8"?>
<svg id="Layer_1" data-name="Layer 1" xmlns="http://www.w3.org/2000/svg" viewBox="0 0 751.87 692.01">
  <defs>
    <style>
      .cls-1 {
        fill: #c9da2d;
      }

      .cls-2 {
        fill: #5113f9;
      }

      .cls-3 {
        fill: #ececec;
      }
    </style>
  </defs>
  <g id="_38" data-name="38">
    <path class="cls-3" d="M316.17,305.48c-10.99,2.3-21.64,6.42-31.54,11.69-8.82,4.68-16.72,10.58-24.57,16.52,14.06-22.13,3.97-3.05,31.06-43.88,3.55,3.83,7.23,7.55,11.05,11.14,4.22,3.96,8.71,4.8,13.94,3.96.01.19.04.38.07.56Z"/>
    <path class="cls-1" d="M361.63,209.82c-5.12,2.39-6.94,5.63-9.11,10.44-4.69,10.46-7.83,20.08-6.87,31.1-8.04,4.56-16.45,8.4-25.45,10.5-1.01.03-3.43-2.39-6.03-5.36,12.31-18.94,24.5-44.35,47.47-46.67Z"/>
    <path class="cls-1" d="M420.89,205.7c-5.51.61-9.09,2.86-14.12,6.17-49.33,32.37-53.58,35.24-61.11,39.48-.97-11.13,2.24-20.78,6.87-31.1,3.35-7.43,5.95-11.08,20.01-13.3.36-.05.69.2.74.55.15.98,1.26,2.39,1.75,2.93,3.68,4.21,11.54,4.97,16.27.56,1.81-1.69,3.13-3.57,2.89-6.2-.08-.89,20.75.38,26.7.9Z"/>
    <path class="cls-1" d="M421.32,314.06c-11.24-20.88-40.05-18.54-63.02-12.28-1.08.3-2.11.65-3.12,1.06-2.27.07-4.53.15-6.8.21.27-1.98.35-6.02.31-10.79,25.85-10.97,49.6-22.11,72.01-33.58-.51,11.05-.53,34.23.62,55.38Z"/>
    <path class="cls-1" d="M431.2,253.26c-29.92,15.71-58.49,28.94-88.74,41.62-15.13,6.28-29.84,15.88-40.29,6.06-15.56-14.63-29.22-32.03-42.37-48.77-11.26-14.37-15.16-18.84-25.28-33.99-.05-.07.63-1.21.93-1.24.03-.01.05,0,.07.01,9.65-13.25,19.66-19.87,35.82-17.01,8.85,13.58,16.9,24.34,23.05,31.7,3.79,4.6,7.16,10,11.17,14.41,1.86,2.07,12.27,15.85,14.66,15.79,18.83-4.38,35.97-16.79,54.54-28.99,38.1-24.96,38.96-26.36,46.15-27.16,5.01-.35,10,1.73,13.82,4.99,13.88,11.76,13.24,33.81-3.51,42.58Z"/>
    <path class="cls-3" d="M91.96,142.75c-16.48,14.94-41.21,16.99-60.01,4.58,1.53-4.2,6.8-10.38,10.91-12.49,3.57-1.83,7.66-2.35,11.65-2.67l.07.91c.24,2.96,2.82,5.16,5.78,4.93,2.94-.24,5.15-2.82,4.92-5.78l-.03-.27c.33.02,7.39.5,7.73.55,6.61.98,15.2,5.76,18.98,10.23Z"/>
    <path class="cls-3" d="M164.66,63.52c-10.49,12.62-28.43,16.71-43.46,9.56,2.55-5.32,8.48-10.47,12.34-11.71,1.53-.5,3.12-1.2,4.27-1.6l.04.19c.46,2.14,2.58,3.49,4.72,3.02,2.14-.46,3.49-2.57,3.04-4.7l-.15-.67c2.9-.62,5.9-1.12,8.82-.59,3.5.64,8.58,4.06,10.39,6.5Z"/>
    <g>
      <path class="cls-2" d="M611.46,326.76c-.06-.37-.41-.62-.78-.55l-191.94,33.59c8.75-7.91,10.66-16.52,7.87-24.67.4-7.18-1.18-14.86-4.63-21.25-1.06-19.73-1.15-40.56-.62-54.79,3.39-1.73,6.78-3.47,10.15-5.24,7.64-4,12.56-11.11,13.49-19.51,1.81-16.38-11.72-30.09-24.06-29.31-.32-.03-21.93-1.74-26.43-1.01l-.47-17.06c6.87-2.78,12.97-7.23,18.08-13.73.08-.1,6.16-8.02,7.4-11.81,6.41,5.08,14.48,2.52,18.97-4.13,7.4-11.01,2.74-26.38-9.06-26.27,2.47-3.9,7.16-11.68,8.36-16.14,2.29,1.26,4.65,2.41,7.06,3.41,4.3,1.78,6.12,1.24,10.22-2.06,2.34-1.88,4.8-3.94,5.67-6.82.87-2.88-.76-6.68-3.76-6.88,3.98-.89,8.09-1.83,11.4-4.21,3.31-2.38,5.64-6.62,4.56-10.55-1.27-4.59-6.57-6.94-11.34-6.94,11.35-6.44,7.63-23.86-5.34-25.13-5.65-.55-11.46,2.89-13.7,8.11,1.68-3.29-1.8-7.01-5.33-8.11-7.73-2.42-17.26,1.46-20.03,10.57-5.72-2.33-12.28-2.94-19.19-1.24,1.11-6.75-.95-14.11-6.38-18.25-2.7-2.05-7.28-2.84-9.02.06,5.47-13.31-4.39-24.24-14.03-21.83-4.73,1.18-8.17,6.32-7.26,10.93-3.1-6.11-18.9-3.83-23.53,8.23-2.49,6.49-.73,14.36,4.3,19.2-5.11-1.98-11.09,2.4-12.11,7.74-1.02,5.33,1.8,10.77,5.71,14.57.9.87,11.56,9.12,15.98,10.1-4.43,11.75-7.53,26.62-3.57,38.54-2.65,23.22,1.79,49.5,24.54,54.54l.47,17.5c-.22-.09-.45-.15-.7-.11-3.68.58-7.56,1.28-10.98,2.88-22.88,2.41-34.98,26.96-47.36,46.2-2.05-2.37-4.16-4.98-5.74-6.94-4.33-5.38-3.21-3.43-8.74-11-8.36-11.43-10.01-11.25-27.88-38.08-.14-.02-2.26-.47-5.43-.65-3.34-5.48-6.77-11.06-10.83-16.11,12.52-19.49,11.91-43.04.99-61.75-5.61-9.66-8.02-10.85-68.29-65.12-.26-.23-.69-.24-.96.06-2.35,2.69-27.72,31.71-26.12,29.88-.23.28-.2.69.07.93l.06.06c-.59,1.36-1.12,2.74-1.52,4.17-.15.52-1.33,4.14-.98,4.45,51.03,46.38,53.87,47.91,57.02,52.17,2.73,3.7,4.09,10.08,2.17,15.71-1.64,1.58-3.45,2.81-5.63,3.66-3.94,1.54-11.42,3.32-17.29-2.08l-57.82-51.5c-.14-.12-.31-.18-.48-.17-.17,0-.34.08-.46.21-16.06,17.39-11.1,12.02-27.17,29.41,0,0,0,0,0,0h0c-.22.25-.26.68.04.96l.22.2c-1.97,9.54-2.06,8.94-1.46,9.59.83.87,1.81,1.64,2.7,2.45,53.68,48.98,54.54,49.84,60.68,53.47,10.62,6.33,32.78,10.39,51.43,2.71,1.7-.7,3.35-1.52,4.97-2.38,2.13,2.54,4.47,4.89,6.98,7.06-.41.45-.7,1.07-.7,1.08l-.08.55c9.06,13.83,17.33,23.88,25.45,34.25,9.63,12.26,20.26,25.8,30.98,37.25-26.42,39.89-16.47,20.99-30.71,43.35-23.96,18.11-14.86,9.49-45.21,33.89-22.63,18.19-45.64,33.38-72.51,69.29-2.85,3.82,36.77,25.6,40.99,27.92l-24.08,42.33-26.03,28.36c-10.93,7.98-14.13,9.59-20.69,13-.13.02-.25.09-.35.18-3.22,1.68-7.32,3.9-14,8.01-.14-.09-.29-.16-.43-.24-.09-.1-.21-.15-.33-.19-8.27-4.65-23.84-4.87-32.5-.23-8.17,4.38-11.98,7.94-14.4,16.58-6.31,1.07-7.95,9.49-2.41,12.83l48.22,29.08c.94.56,2,.9,3.1.98l90.02,6.57c3.59.27,6.79-2.24,7.39-5.78l.19-1.12c.61-3.53-1.56-6.82-4.85-7.81l16.26-61.87c.09-.36-.11-.79-.61-.82l8.9-30.92,18.36-30.97c5.33,1.09,36.68,6.65,39.39,6.04.25-.05.45-.25.51-.5,13.61-57.13,11.41-52.85,27.64-100.86,2.74-8.12,3.36-8.38,4.01-9.88,1.96-3.95,1.93-4.31,10.19-5.29-5.54,27.32-6.09,56.21-8.17,83.33-1.1,14.21-1.1,28.67-.01,43.01-.13.17-.28.31-.25.61.91,11.54,2.56,23.13,4.89,34.45.99,4.76,43.49-10.47,48.1-12.11l15.66,46.09,1.94,40.02c-.17,1.61-1.84,10.45-1.83,10.59-1.13,6.34-4.53,25.12-4.48,29.48-.19-.06-.4-.04-.56.07-8.48-1.55-17.69,2.62-21.95,10.18-5.13,9.12-1.66,21.37,3.49,24.03-3.11,5.33,2.1,11.94,8.11,10.14l53.14-5.46c1.03-.31,1.98-.87,2.74-1.61l62.99-61.26c2.74-2.66,2.96-7,.51-10.03-2.25-2.81-6.03-3.56-9.04-2.12-1.7-2.73,7.13,10.69-21.26-31.9l-.39-.77,196.83-32.29c.37-.06.61-.41.55-.77l-35.88-218.74ZM387.39,296.69c-10.87,0-26.8,3.23-32.35,5.49l-5.9.19c.22-2.41.25-6.42.23-9.65,15.18-6.45,31.17-13.64,46.34-20.91,6.18-.71,12.33-1.73,18.4-3.11,1.86-.62,4.33-.84,5.75-2.33-.29,15.04-.1,30.15.64,45.02-7.19-11.04-19.88-14.7-33.12-14.7ZM323.92,303.53c6.26-2.19,8.84-3.82,24.11-10.25.02,4.21-.06,7.33-.25,9.13-14.2.53-17.22.31-23.86,1.13ZM374.53,208.68l-.28-10.33c2.38.19,14.69-5.77,18.45-10.84l.55,19.63c-.84,2.46-4.07,5.6-8.37,6.07-4.07.44-8.04-.94-10.35-4.52ZM349.32,135.61c1.14-10.84,3.71-20.86,10.3-29.71,1.38,3.65,4.98,2.89,3.3,4.83-.62.72-1.35,1.32-2.16,1.8-.76.45-.09,1.61.68,1.16,1.29-.76,3.42-2.49,3.27-3.98-.22-2.1-3.76-1.95-4.05-5.18.02-.03.05-.05.07-.08,1.06,1.03,2.32,1.94,3.72,2.74,13.38,7.68,29.59,10.25,44.7,7.18-.95,1.4-1.74,3.01-1.81,4.8-.02.41,0,1.03.34,1.55.69,1.06,2.86,1.43,4.4,2.55,2.19,1.59,1.75,3.23-.15,5.1-2.2,2.15-4.64,4.06-7.27,5.66-.76.46-.06,1.61.7,1.15,2.71-1.66,5.23-3.62,7.51-5.85,2.96-2.9,2.35-5.44,0-7.15-1.07-.77-2.29-1.2-3.39-1.73-.67-.32-.82-.48-.8-1.23.07-1.91,1.11-3.58,2.48-5.31,2.07-.49,3.77-.97,6.25-2.21,2.78,15.15,1.26,21.91-1.6,34.31-.37,1.59,1.68,2.6,2.7,1.33,1.35-1.68,9.92-14.76,10.02-14.92,2.73-.34,6.14.8,8.04,2.64,5.98,5.81,4.88,15.4.8,21.48-4.2,6.22-11.9,8.69-17.87,3.1-.57-.53-1.43.17-1.04.84-.06,1.49-5.6,9.61-7.41,11.93-10.1,12.84-25.07,17.94-37.44,15.35v.03c-.06-.03-.11-.05-.17-.06h0c-22.07-4.65-26.42-29.64-24.13-52.12ZM372.61,207.6c.2,1.35,1.74,3.09,1.91,3.27,2.41,2.75,6.33,4.12,10.51,3.67,4.81-.52,9.97-4.57,9.86-9.29,2.34-.31,13.71.25,21.27.77-3.48,1.19-6.72,3.3-9.76,5.29-42.56,27.93-52.04,34.28-60.14,38.92-.73-10.51,2.51-19.94,6.88-29.7,3.29-7.29,5.69-10.69,19.47-12.93ZM358.21,211.06c-3.24,2.41-4.67,5.31-6.3,8.92-4.61,10.3-7.85,19.99-6.96,31-7.74,4.36-16.15,8.17-24.81,10.2-.05,0-.11-.03-.15-.05-.13-.12-.84-.04-4.99-4.7,12.01-18.58,22.71-40.71,43.2-45.37ZM213.83,80.63l-25.14,28.95-26.13-23.55c2.59-2.96-9.36,10.7,25.22-28.85,2.38,2.15,24.05,21.65,26.05,23.46ZM224.69,152.11c.37-4.28-.86-9.04-3.14-12.12-2.22-3-1.47-2.05-31.86-29.51l25.15-28.95c28.89,26.08,34.97,30.54,40.46,39.98,10.56,18.08,11.38,40.81-.72,59.97-1.82-2.18-8.24-9.21-11-9.62-4.93-.79-9.58,10.26.07,22.5-4.82,4.28-10.19,7.67-15.97,10.04-18.86,7.8-41.2,3.04-50.83-2.66-6.51-3.85-9.47-6.98-38.68-33.5l26.11-29.09,29.82,26.57c9.82,9.02,29.3,1.95,30.6-13.61ZM163.26,138.26l-26.1,29.07c-2.2-2,8.03,7.3-26.65-24.23l26.26-28.43,26.49,23.59ZM228.87,209.04c6.04-3.43,11.44-7.97,15.94-13.27.12.14.24.29.37.43.6.66,1.59-.25.99-.91-10.3-11.22-6.83-22.75-2.8-22.1.64.09,1.25.53,1.86,1.01,8.28,6.41,14.03,15.55,19.46,24.44-12.87-.15-21.33,6.68-29.13,17.14-2.4-2.07-4.65-4.32-6.69-6.74ZM253.63,243.27c8.45-10.36,19.18-17.52,31.88-21.81.21.27,2.3,3.12,5.36,6.96-12.64,2.79-23.36,10.58-31.12,22.62-1.66-2.11-3.77-4.79-6.11-7.76ZM260.62,252.15c7.82-12.32,18.3-19.91,31.18-22.56,8.09,10,9.15,12.42,13.24,16.93,1.05,1.16,4.65,5.85,8.29,10.04h0c.35.36,4.63,5.55,6.56,5.95.31.07.33.02.46.01,9.46-2.2,17.57-6.06,26.01-10.78h0c7.57-4.3,10.45-6.28,60.77-39.29,3.98-2.61,8.49-5.57,13.48-6.04.17.03,6.78-1.05,13.65,4.8,13.66,11.57,12.79,33-3.38,41.47h0c-47.39,24.88-78.62,36.93-95.6,44.65-5.51,2.5-11.2,5.09-16.8,6.44-6.27,1.47-11.21,1.06-15.85-3.3-15.43-14.5-29.07-31.85-42-48.31ZM270.87,319.56c6.76-8.01,13.91-18.97,20.34-28.67,3.19,3.42,6.96,7.22,10.5,10.55,2.75,2.58,6,4.19,9.89,4.41-9.43,2.4-18.92,6.28-27.28,10.73-7.49,3.97-14.8,9.16-21.57,14.25,3.57-5.35,3-5.19,8.13-11.26ZM234.39,422.85c.13.11.17.14.37.16,17.11,7.72,32.89,19.05,45.82,32.94-2.38,10.03-4.71,20.28-7.07,30.22-27.87-34.97-85.24-50.16-129.77-50.05,6.08-8.05,13.64-17.04,21.42-25.14,23.36-1.82,47.39,2.1,69.22,11.86ZM196.06,443.82c16.36,4.01,33.97,10.52,48.41,19.2l-29.2,49.27c-1.17-.12-53.59-5.67-54.86-5.8l35.66-62.67ZM184.03,549.51c3.59-8.83,14.16-34.88,15.24-37.56,2.05.22,4.1.43,6.14.65l-13.67,35.55c-2.51.51-5.09.98-7.71,1.36ZM173.89,550.52c2.26-5.58,14.56-35.86,16.05-39.55.21.02,7.61.8,7.93.84-1.7,4.2-12.23,30.15-15.38,37.92-2.84.38-5.72.65-8.6.8ZM154.37,548.9c3.55-8.7,15.03-36.85,16.3-39.97l8.48.9c-1.13,2.78-14.17,34.79-16.49,40.48-2.84-.27-5.61-.73-8.29-1.41ZM141.82,543.35c21.67-37.58,20.28-35.12,20.31-35.33l7.15.76c-1.83,4.51-12.86,31.54-16.22,39.77-4.06-1.15-7.86-2.85-11.23-5.2ZM131.03,554.77c.06-5.14-2.34-9.55-6.63-12.28,2.3-1.52,5.06-3.43,8.62-6.02,3.1,4.43,7.17,7.86,11.87,10.31l-13.86,8ZM159.57,507.76l1.15.12c-1.35,2.34-19.11,33.14-20,34.68-2.51-1.91-4.76-4.23-6.68-7l25.53-27.81ZM180.51,509.97l8.04.85c-2.1,5.2-14.85,36.58-16.13,39.76-2.81.09-5.61.05-8.36-.15,13.82-33.93,16.41-40.22,16.45-40.45ZM123.17,543.29c4.28,2.48,6.66,6.73,6.52,11.69,0,.18.06.34.17.47l-3.7,2.14-6.9,3.67c.15-4.77-2.09-9.49-5.83-12.44,3.64-1.89,5.97-3.1,9.74-5.52ZM112.12,549.49c3.8,2.71,6.08,7.39,5.81,12.06,0,.13.03.25.09.36l-18.31,9.74c.24-4.73-.36-9.5-1.84-14.03.71-.21,5.2-3.4,14.24-8.13ZM65.06,556.74c8.16-4.37,23.35-4.17,31.17.19,4.6,12.66,1.84,27.49-6.88,37.71-12.44-6.45-30.31-17.44-38.02-22.2,2.37-8.28,5.87-11.48,13.73-15.69ZM200,569.96c-8.48-.07-16.99,2.96-23.09,8.83-6.83,6.59-10.16,16.71-8.39,25.96l-67.61-5.22c-2-.31-5.73-1.94-10.32-4.27,5.19-6.2,8.29-14,9.01-22.01.78-.4.94-.4,1.11-.61l26.11-13.89c22.45-12.98,19.21-11.05,19.49-11.27,17.25,8.07,41.79,3.82,60.03-1.65l-6.34,24.13ZM205.83,544.58c-3.76,1.13-8,2.26-12.52,3.24l13.49-35.07c2.65.28,5.3.56,7.96.84l-8.92,30.99ZM304.95,376.5c-.7,1.6-1.3,1.82-4.08,10.05-4.63,13.71-9.29,23.15-19.91,67.84-12.82-13.6-28.36-24.74-45.19-32.41,14.3-29.05,33.41-55.13,56.8-77.52,4.34-4.16,9.49-8.6,15.66-8.75.93-.02.8-1.42-.03-1.34-6.33.15-11.7,4.47-16.55,9.12-23.52,22.51-42.73,48.74-57.11,77.95-21.25-9.43-44.74-13.46-67.97-11.89,17.58-18.07,27.72-24.58,48.63-41.39,29.62-23.81,23.53-17.52,42.31-31.7h0c8.71-6.58,17.62-13.49,27.45-18.7,14.55-7.74,30.76-13.03,47.16-13.52,12.34-.39,8.62-.27,19.87-.62-18.65,10.18-30.78,45.01-35.35,66.8-8.96,1.04-9.4,1.5-11.67,6.08ZM309.51,455.24c3.54-46.16,2.7-94.4,27.47-134.28,7.85-12.65,15.25-20.17,43.37-22.62,16.42-1.42,32.59,1.58,40.38,16.04,0,0,0,0,0,0,0,0,0,0,0,0,5.91,10.84,6.66,26.65-.76,36.39-8.43,11.04-24.12,13.77-37.9,12.48-5.49-1.62-11.07-2.91-16.77-2.8,5.05,3.72,8.58,8.3,11.4,11.54,1.64,3.85,4.81,9.46,6.88,13.38,10.01,18.9,21.33,36.04,35.14,55.76-18.71.55-37.39,4.77-54.33,12.28-3.77-9.37-6.19-19.24-6.81-27.88-.66-9.3-3.2-18.47-4.46-27.69-2.83-20.69-2.65-41.58.53-62.1.06-.37-.19-.71-.56-.77-.37-.05-.71.2-.77.56-3.2,20.65-3.37,41.67-.53,62.49,1.26,9.25,3.8,18.44,4.45,27.6.63,8.79,3.09,18.83,6.92,28.35-21.2,9.65-39.66,24.48-53.75,42.58-.97-13.78-.94-27.67.11-41.32ZM438.74,559.55l9.63,18.83s0,0,0,0l.79,1.54-.07-.1c-14.31,15.23-11.26,37.97,4.93,47.33l-48.41,46.72c-1.91,1.58-4.93,2.18-7.86,2.51-.99-7.5-4.72-15.89-10.66-20.72.21-.83.34-.98.27-1.27,2.44-11.23,1.62-16.44,5.16-31.78.2-.18.27-.46.17-.72,1.38-5.84,2.79-10.27,4.05-16.3,18.42-7.2,33.59-28.15,42-46.05ZM379.75,607.99c5.31.61,10.54-.12,15.5-1.84-1.14,5.28-2.29,9.04-3.52,14.01-3.39-5.08-9.36-6.37-13.34-4.29.66-3.68,1.16-6.52,1.37-7.89ZM399.46,547.7c2.61,5.26,18.97,38.37,19.15,38.73.39.8,1.6.2,1.2-.6-.74-1.5-17.41-35.23-19.32-39.08,1.96-1.79,3.93-3.58,5.89-5.37,1.97,3.95,13.92,28.13,18.91,38.23-3.83,5.22-7.87,9.79-12.03,13.62-21.47-43.57-19.66-39.92-19.78-40.08,1.99-1.82,3.98-3.63,5.98-5.45ZM411.98,536.28l18.47,35.7c-1.38,2.23-2.82,4.36-4.27,6.4-2.89-5.85-17.31-35.03-18.76-37.93,1.52-1.39,3.04-2.78,4.57-4.16ZM392.47,554.08c1.56,3.16,16.88,34.26,19.76,40.09-2.11,1.89-4.32,3.62-6.59,5.16-3.07-6.22-18.17-36.91-19.47-39.52,2.1-1.91,4.2-3.83,6.3-5.74ZM385.14,560.76c2.46,4.98,15.76,32.01,19.37,39.33-3.8,2.43-7.61,4.22-11.36,5.33-14-41.95-13.15-39.61-13.32-39.81,7.27-6.63,4.76-4.35,5.31-4.84ZM378.04,617.81c.54-.83,2.41-1.33,3.46-1.47,4.12-.52,8.01,2.19,9.78,5.71-1.22,5.24-1.62,7.46-2.01,9.98-1.35-1.19-3.33-2.6-5.42-2.96-2.56-.44-5.67-.19-7.94.96.75-4.41,1.53-8.82,2.14-12.23ZM431.27,570.64l-18.26-35.29c1.97-1.8,3.94-3.6,5.91-5.39l18.51,29.22c-2.17,4.59-4.11,8.07-6.16,11.46ZM377.53,565.88l-23.06-67.87c13.84-9.49,30.19-18.36,46.48-23.5l17.34,54.19c-13.36,12.17-27.17,24.77-40.76,37.17ZM364.1,455.02c.13-.02.25-.03.4-.19,17.12-7.66,36.07-11.93,55.02-12.38,5.94,8.45,11.93,16.84,17.9,25.35-44.69-2.42-93.91,30.25-123.37,63.57-2.22-11.13-3.65-21.8-4.52-32.81,14.09-18.49,32.86-33.75,54.56-43.54ZM378.79,566.56c.95,2.82,9.88,29.66,13.07,39.22-3.91,1.01-7.91,1.35-12.04.86l-1.91-39.28.88-.8ZM375.6,631.82c1.94-1.59,5.55-1.84,8.01-1.42,2.14.37,4.22,2.09,5.41,3.24-1.05,7.26-1.54,14.1-3.13,21.11-3.73-2.73-8.18-4.79-12.33-6.81-.01-.01-.01-.03-.02-.04-.28-1.28.79-8.44,2.06-16.07ZM350.85,658.2c4.08-7.24,13.21-11.4,21.65-9.28,5.81,2.85,13.12,6.03,17.04,11.1,3.72,4.81,6.08,10.57,6.88,16.51-28.6,2.61-26.04,2.31-30.93,3.45-4.24.99-8.63,2.01-11.66.43-4.45-2.26-7.78-13.67-2.97-22.2ZM449.32,577.31l-10.01-19.6c-.26-.51-.97-.47-1.2.02l-18.43-29.09-10.97-34.29c6.12-4.56,30.58-24.4,30.98-25.12.13-.23.11-.5-.03-.72-23.16-33.17-40.75-55.87-59.41-92.21,17.22-2.35,27.33-7.17,36.47-14.77l193.53-33.87,7.72,47.08-216.14,36.04c-.87.15-.66,1.48.22,1.33l216.14-36.04,27.72,169-196.59,32.26Z"/>
      <path class="cls-2" d="M388.71,125.12c4.27,1.23,8.13.85,8.62-.86.49-1.71-2.57-4.09-6.84-5.32-4.27-1.23-8.13-.85-8.62.86-.49,1.71,2.57,4.09,6.84,5.32Z"/>
      <path class="cls-2" d="M386.83,126.85c-.94.59-1.22,1.84-.63,2.77s1.84,1.22,2.77.63c.94-.59,1.22-1.84.63-2.77-.59-.94-1.84-1.22-2.77-.63Z"/>
      <path class="cls-2" d="M360.41,116.12c-3.65.29-6.5,1.94-6.36,3.7.14,1.76,3.21,2.95,6.86,2.66,3.65-.29,6.5-1.94,6.36-3.7-.14-1.76-3.21-2.95-6.86-2.66Z"/>
      <path class="cls-2" d="M361.21,130.27c1.29-.47,1.96-1.9,1.49-3.2-.47-1.29-1.9-1.96-3.2-1.49-1.29.47-1.96,1.9-1.49,3.2.47,1.29,1.9,1.96,3.2,1.49Z"/>
      <path class="cls-2" d="M429.46,148.25c-.76.52-1.48,1.08-2.14,1.69-1.82,1.67-.48,3.33,1.82,3.17-.36.76-1.31,1.28-2.33,1.79-.8.39-.19,1.6.6,1.2,1.45-.72,2.78-1.49,3.15-2.96.05-.21-.01-.43-.16-.6.06-.22,0-.45-.15-.62-.41-.46-1.06,0-1.92-.18-.32-.07-.51-.24-.52-.29,0,0-.01-.13.42-.52.95-.87,2.03-1.65,3.21-2.32.52-.3.42-1.08-.16-1.23-1.06-.28-2.15-.57-3.02-1.1-1.78-1.07-1.67-2.19-.38-3.53,1.31-1.35,3.03-2.43,4.98-3.11.84-.29.4-1.56-.44-1.27-2.15.75-4.05,1.94-5.5,3.45-2.67,2.76-1.12,5.26,2.56,6.44Z"/>
      <path class="cls-2" d="M379.23,159.3c2.33,1.06,5.32.27,6.83-1.77,1.51-2.05,1.38-5.14-.31-7.05-.59-.67-1.6.23-1.01.89,1.28,1.45,1.39,3.8.24,5.36-1.15,1.56-3.43,2.14-5.19,1.34-.82-.37-1.36.86-.56,1.22Z"/>
      <path class="cls-2" d="M362.83,149.44c-1.89-.76-2.1-3.39-.34-4.43.76-.45.09-1.61-.68-1.16-2.71,1.6-2.4,5.66.52,6.84.84.34,1.31-.92.5-1.25Z"/>
      <circle class="cls-2" cx="405.87" cy="387.9" r="8.8" transform="translate(-78.26 103.63) rotate(-13.28)"/>
      <circle class="cls-2" cx="428.81" cy="383.07" r="8.8" transform="translate(31.68 798.9) rotate(-88.09)"/>
      <polygon class="cls-2" points="459.84 565.42 471.39 555.3 456.96 550.03 459.84 565.42"/>
      <rect class="cls-2" x="480.98" y="545.26" width="4.4" height="15.66" transform="translate(-93.45 98.26) rotate(-10.59)"/>
      <rect class="cls-2" x="488.4" y="543.87" width="4.4" height="15.66" transform="translate(-93.06 99.59) rotate(-10.59)"/>
      <polygon class="cls-2" points="532.07 450.93 465.47 429.35 481.63 499.48 532.07 450.93"/>
      <path class="cls-2" d="M612.29,508.42l-27.99,5.16c-1.31-3.65-8.16-5.44-15.86-4-7.65,1.43-13.38,5.53-13.35,9.39l-103.83,19.14c-.87.16-.63,1.49.24,1.32l103.83-19.14c1.37,3.61,8.19,5.36,15.84,3.93,7.61-1.42,13.32-5.48,13.36-9.32l28-5.16c.88-.16.63-1.49-.24-1.32Z"/>
      <path class="cls-2" d="M62.32,161.7c16.24-2.09,30.8-12.19,38.17-27.85,6.74-10.14,9.46-22.04,7.92-33.95-3.54-27.24-28.57-46.53-55.8-43.01-20.02,2.58-36.56,16.86-41.79,36.77-14.74,34.46,13.45,72.96,51.49,68.04ZM38.28,95.29c8.64-.51,16.24-4.78,16.38-4.88-1.18-.73-2.14-1.68-2.6-3.03-.23-.67-.68-3.14.07-3.64.55-.37,1.72,2.05,2.07,2.48.89,1.12,1.93,2.12,3.07,2.98,1.22.92,3.51,2.81,5.11,1.77,1.04-.67.67-1.65.4-2.63.22.27.11.07,1.34.8,2.72,3.22,4.52,7.22,5.06,11.41,1.6-3.17-.47-3.93.45-6.36.91-2.38,3.55-2.35,4.88-1.69,4.21,2.12,4.67,8.88,1.63,11.87-.76.24-1.38.64-1.88,1.16-1.09.33-2.27.23-3.14-.35-.47-.31-1.09.07-1.04.63.25,2.52.25,5.29-1.38,8.5-2.85,5.54-9.57,10.49-16.3,9.78-11.69-1.12-14.48-16.94-14.16-28.8ZM88.49,144.76c-.05-1.71-2.09-5.17-3.61-6.89,2.25,1.34,4.6,3.27,6.11,4.82-.44.38-2.16,1.81-2.5,2.07ZM65.89,131.35l-.83-10.43c4.43-3.75,6.81-8.35,6.49-14.08.55.17,1.14.22,1.74.2-1.58,3.44-.81,9.83,2.87,13.18-4.32,1.41-4.17,7.95-2.75,11.71-1.78-.29.32.02-7.51-.57ZM55.26,133.04c-.02-.32.08.98-.26-3.38,1.29-.37,3.09-2.12,3.92-2.77,1.37-1.07,3.9-3.3,4.9-4.55l.77,9.7c.24,7.01-8.86,6.77-9.33,1ZM54.13,134.32c1.89,6.59,11.78,5.34,11.84-1.62,6.67.54,5.83.23,8.15.72.58.98,1.25,1.94,2.09,2.69-2.52,2.47-3.16,9.83,1.9,14.72-15.45,6.61-32.32,4.61-45.33-3.76,1.54-3.75,6.48-9.61,10.39-11.61,3.38-1.73,7.26-2.25,10.72-2.55.02.13.02.66.24,1.42ZM52.78,58.23c26.45-3.43,50.85,15.3,54.3,41.85,2.04,15.75-3.69,31.1-15.1,41.72-2.35-2.43-4.9-4.26-7.61-5.77,1.6-1.43,2.46-3.64,2.3-5.78-.19-2.52-2.37-6.4-5.14-8.61,3.43-.73,5.38-4.05,5.14-7.23-.24-3.19-3.68-8.58-7.46-9.94,2.46-1.27,3.77-4.05,3.57-6.67-.33-4.46-6.55-12.63-11.5-9.59-2-5.52-3.31-11.09-8.11-12.49-2.38-.69-5.46.67-5.72,3.13-2.73-4.82-8.82-7.46-14.2-6.17-5.89,1.41-9.32,6.84-10.36,12.49-.19,1.04.52,10.11.64,10.1,1.13.09,2.26.1,3.4.08-.35,13.54,3.05,29.75,16.39,30.12l.48,6.1c-3.59.31-7.63.85-11.23,2.69-4.14,2.12-9.12,7.95-10.89,12.06-11.42-7.8-18.98-20.07-20.75-33.79-3.4-26.37,15.06-50.84,41.86-54.29Z"/>
      <path class="cls-2" d="M44.12,99.67c-.5-.69-2.08-.41-3.52.64-1.44,1.05-2.2,2.46-1.69,3.15.5.69,2.08.41,3.52-.64,1.44-1.05,2.2-2.46,1.69-3.15Z"/>
      <path class="cls-2" d="M55.95,101.64c2.03.08,3.71-.51,3.74-1.32.03-.81-1.59-1.54-3.62-1.62-2.03-.08-3.71.51-3.74,1.32-.03.81,1.59,1.54,3.62,1.62Z"/>
      <path class="cls-2" d="M52.73,103.87c.75.96,2.2-.18,1.45-1.14-.75-.96-2.2.18-1.45,1.14Z"/>
      <path class="cls-2" d="M41.14,106.15c.75.96,2.2-.18,1.45-1.14-.31-.4-2.2.18-1.45,1.14Z"/>
      <path class="cls-2" d="M46.18,109.89c-.27-.05-.53-.28-.6-.55-.08-.27.02-.6.22-.78.28-.25.3-.67.05-.95-.73-.81-1.96.72-1.56,2.1.22.76.88,1.36,1.65,1.5.86.17,1.12-1.16.24-1.32Z"/>
      <path class="cls-2" d="M50.54,113.12c1.43.86,3.41.63,4.6-.55,1.19-1.18,1.44-3.16.58-4.6-.46-.77-1.61-.08-1.15.69.54.91.38,2.21-.38,2.96-.75.75-2.05.9-2.96.36-.76-.46-1.46.69-.69,1.15Z"/>
      <path class="cls-2" d="M72.54,96.84c.94-1.07,1.47-.78,1.44,0-.03.72-.45.94-.18,1.41.36.64,1.28.21,1.56.2.44-.07,1.07.96-.13,1.84-.47.34-1.09.54-1.68.73-.73.23-.56,1.31.21,1.31.23,0,1.53-.42,2.27-.96,2.25-1.64,1.1-4.35-.72-4.27.21-2.1-1.85-3.36-3.77-1.16-.59.67.42,1.55,1.01.89Z"/>
      <path class="cls-2" d="M100.47,47.41c.68,13.44,8.66,25.29,20.72,31.03,23.25,11.02,50.56-5.09,51.85-31,2.87-14.68-3.14-28.98-14.73-37.28-26.78-19.18-64.45,3.89-57.83,37.25ZM125.94,33.46c.1.09.23.13.36.15,1.7,1.62.07,2.7,2.01,4.74-.48-2.92-.12-5.96.97-8.71.42-.5.65-.68.97-.99.02.64.08,1.25.84,1.47,3.69,1.05,1.99-5.78,6.05-2.87,3.22,2.31,7.91,1.69,11.22-.7,3.28,8.26,5.04,21.36-3.21,24.72h0c-4.49,1.84-10.24-.07-13.44-3.4-1.81-1.89-2.39-3.83-2.74-5.63-.11-.55-.81-.73-1.17-.3-.61.72-1.71,1.03-2.74.78-3.12-.76-4.83-6.19-2.12-8.78.75-.7,2.34-1.06,3.01-.47ZM144.39,55.91c.03.13.43,1.97.4,1.84,0,.26.81,2.08-.71,3.65,0,0-.01,0-.02.01-1.78,1.82-5.01,1-5.57-1.6l-.04-.19s0,0,0,0l-1.49-6.87c1.17.73,6.05,3.05,7.43,3.15ZM137.34,60.65c.84,2.41,3.64,3.8,6.2,2.71,0,0,.02,0,.03,0,1.96-.84,3.16-3,2.68-5.23h0c2.46-.51,5.23-.93,7.89-.46,3.17.58,7.84,3.69,9.63,5.81-10.09,11.75-27,15.88-41.65,9.25,2.84-5.24,8.26-9.66,11.61-10.74,1.12-.36,3.47-1.3,3.6-1.35ZM157.52,11.25c16.61,11.9,19.84,35.24,7.11,51.2-2.13-2.42-6.82-5.48-10.24-6.1-2.9-.52-5.83-.07-8.42.46l-.89-4.1c9.03-3.08,8.37-15.01,5.45-24.02-.33-.99-.65-2-1.09-3.04,1.56-1.45,2.7-3.33,2.98-5.43.89-6.8-8.44-11.82-15.11-6.77-5.12,3.87-3.14,3.73-5.21,7.87-.16-.3-.32-.61-.48-.91-.89-1.69-2.87-1.86-4.33-.91-3.11,2.02-2.82,5.89-3.18,12.43-5.7,1.15-4.69,10.79.63,12.09,1.09.27,2.25.09,3.15-.44,1.04,4.04,3.73,6.74,7.55,8.43l1.59,7.34c-1.29.49-2.58,1.02-3.7,1.39-3.63,1.16-9.27,5.68-12.42,11.44-11.09-5.52-18.76-16.54-19.71-29.28-2.31-30.67,32.2-48.92,56.33-31.64Z"/>
      <path class="cls-2" d="M147.74,34.24c1.24.43,2.42.3,2.63-.3.21-.6-.63-1.43-1.87-1.87-1.24-.43-2.42-.3-2.63.3-.21.6.63,1.43,1.87,1.87Z"/>
      <path class="cls-2" d="M137.92,36.29c1.42-.49,2.41-1.35,2.22-1.92s-1.51-.63-2.93-.14c-1.42.49-2.41,1.35-2.22,1.92.2.57,1.51.63,2.93.14Z"/>
      <path class="cls-2" d="M139.8,37.57c.84.33,1.34-.94.5-1.27-.84-.33-1.34.94-.5,1.27Z"/>
      <path class="cls-2" d="M148.98,35.44c-.84-.33-1.34.94-.5,1.27.84.33,1.34-.94.5-1.27Z"/>
      <path class="cls-2" d="M146.19,38.29c-.16.33-.02.74.32.9.29.14.3.56,0,.71-.79.41-.17,1.6.61,1.2.58-.3.96-.93.95-1.57-.02-1.23-1.44-2.17-1.89-1.23Z"/>
      <path class="cls-2" d="M140.57,41.01c.09-.36-.13-.73-.49-.81-1.27-.31-1.33,2.75.67,3.82,2,1.07,4.51-.7,3.54-1.58-.28-.25-.7-.23-.95.05-.47.52-1.33.68-1.96.34-.62-.33-.98-1.13-.81-1.81Z"/>
      <path class="cls-2" d="M123.6,40.56c.75.26,1.86.22,1.72.22.88,0,.89-1.33.01-1.34-.69-.01-1.73-.04-1.92-.71-.02-.09,0-.21.13-.38.18-.04.42.02.79-.13.43-.18.56-.73.24-1.08-.36-.39-.66-1.27.49-.56.76.47,1.46-.67.71-1.14-1.93-1.2-3.24.18-2.74,1.67-1.39.56-1.36,2.77.57,3.45Z"/>
      <path class="cls-2" d="M98.89,192.78c-.65-.61-1.57.37-.92.98,13.22,12.47,26.11,25.62,38.32,39.07.58.64,1.6-.23.99-.9-12.23-13.48-25.15-26.65-38.39-39.15Z"/>
      <path class="cls-2" d="M141.7,209.22l-22.45-25.44c-.59-.67-1.6.22-1.01.89l22.45,25.44c.58.66,1.6-.21,1.01-.89Z"/>
      <path class="cls-2" d="M596.22,309.58c.49.73,1.62,0,1.11-.75-3.56-5.27-6.61-10.91-9.08-16.76-.34-.82-1.58-.3-1.24.52,2.5,5.94,5.6,11.65,9.21,16.99Z"/>
      <path class="cls-2" d="M612.74,309.32c.33-4.12.25-3.05,10.24-54.89.17-.87-1.15-1.13-1.32-.25-10.04,52.06-9.92,50.83-10.26,55.03-.07.89,1.27,1,1.34.11Z"/>
      <path class="cls-2" d="M621.8,315.5c.74,0,10.83-3.6,19.91-11.39.67-.58-.2-1.6-.88-1.02-5.7,4.88-12.18,8.62-19.26,11.1-.71.25-.53,1.31.22,1.31Z"/>
    </g>
  </g>
</svg>