<?xml version="1.0" encoding="UTF-8"?>
<svg id="Layer_1" data-name="Layer 1" xmlns="http://www.w3.org/2000/svg" viewBox="0 0 751.87 635.81">
  <defs>
    <style>
      .cls-1 {
        fill-rule: evenodd;
      }

      .cls-1, .cls-2 {
        fill: #5113f9;
      }
    </style>
  </defs>
  <g>
    <path class="cls-2" d="M171.77,141.36c-.98-2.59-2.42-5.02-2.71-7.85-.13-1.29-.15-2.57.95-3.45,1.18-.94,2.44-.35,3.55.22,4.59,2.34,8.11,5.91,11.24,9.9,1.97,2.52,3.82,5.13,5.9,7.57,1.95,2.29,4.53,4.28,7.19,4.19,3.97-.14,6.56,2.53,9.98,3.37,4.95,1.21,9.81,2.82,14.76,4.06,5.99,1.51,11.85,3.35,17.26,6.48,5.14-11.29,12.23-21.3,18.67-31.69,2.97-4.79,5.87-9.63,8.67-14.52,4.42-7.73,10.79-12.73,19.59-14.83,6.83-1.63,13.33-4.29,19.63-7.39.94-.46,1.73-1.03,2.47-1.78,2.19-2.22,4.2-4.56,5.99-7.14.97-1.4,1.84-2.45.59-3.96-.99-1.2-1.92-2.42-3.74-2.66-7.32-.96-11.76-5.5-14.26-12.02-3.16-8.24-4.78-16.8-4.67-25.66.09-7.47.56-14.9,2.8-22.1.27-.86-.13-1.11-.7-1.44-2.72-1.61-4.76-3.9-6.6-6.41-.66-.9-.61-1.34.41-1.93,7.97-4.7,16.41-8.03,25.61-9.56,6.25-1.04,12.5-1.82,18.82-1.28,4.9.42,9.8,1.01,14.4,3.02,4.61,2.02,7.75,5.4,9.6,9.99.4,1,.96,1.38,1.98,1.77,5.01,1.88,7.83,5.73,9.05,10.77,1.85,7.67.45,15.08-1.89,22.42-2.09,6.57-4.52,12.97-8.26,18.86-2.06,3.25-2.63,7.11-3.29,10.86-.09.5-.21,1-.32,1.5-.44,1.96-.39,3.48.96,5.5,2.7,4.02,6.24,7.64,7.5,12.54.23.92,1.17,1.21,1.87,1.68,5.35,3.56,11.41,5.45,17.51,7.21,3.3.95,6.66,1.78,9.69,3.41,6.15,3.3,11.66,7.21,15.18,13.59,6.96,12.65,14.25,25.12,21.41,37.69,1.75-1.16,3.65-2.4,5.53-3.67,4.04-2.74,8.65-4.14,13.27-5.41,7.23-1.99,14.22-4.51,20.98-7.75,1.75-.84,3.65-1.35,5.34-2.41.78-.49,1.28-.98,1.62-1.81,2.08-5.05,3.41-10.3,4.62-15.6.31-1.34.8-2.61,1.64-3.71,1.2-1.57,2.68-1.83,4.34-.76,2.97,1.93,3.59,4.92,3.67,8.14.01.39-.09.78-.15,1.18.73.23.92-.4,1.22-.71,2.91-3,5.76-6.06,8.69-9.04,3.28-3.33,5.78-3.11,8.59.65,4.27,5.71,5.01,11.71,1.74,18.16-2.8,5.53-6.3,10.53-10.8,14.82-2.6,2.47-5.48,4.46-9.05,5.34-2.2.54-3.77,1.98-5.46,3.43-4.45,3.83-9.55,6.81-14.38,10.14-8.58,5.93-17.13,11.89-26.02,17.36-2.77,1.7-5.51,3.44-8.35,5.02-1.14.64-.92,1.1-.29,1.88,1.48,1.81,2.84,3.71,4.38,5.47.81.93.74,1.72.11,2.6-.99,1.38-2.31,2.38-3.89,2.99-1.1.42-2.15.2-3.01-.65-2.21-2.16-4.43-4.29-6.59-6.49-.69-.71-1.36-1.07-2.39-.96-3.62.39-6.42-1.21-8.83-3.73-4.73-4.93-8.45-10.65-12.56-16.06-3.38-4.45-6.49-9.08-9.67-13.89-.29,2.53-.57,5.07-.86,7.6-.91,8.04-1.2,16.12-1.62,24.19-.28,5.47-.29,10.95-.47,16.42-.03.96.36,1.08,1.18,1.14,2.93.21,5.88.42,8.06,2.79.35.38.84.72.98,1.17.64,2.02,2.14,2.1,3.92,2.07,9.78-.16,19.5.65,29.18,2.07.32.05.69.02.99-.09,1.83-.7,2.52-.25,2.32,1.72-.29,2.89-.62,5.78-1.11,8.64-.89,5.15-1.49,10.37-3.54,15.27-.43,1.02-1.1,1.85-1.6,2.81-4.7,9.02-8.89,18.24-10.73,28.32-1.31,7.17-1.22,14.43-.83,21.67.26,4.94.61,9.87,1.52,14.75.13.69.68,1.37.27,2.14-2.94-1.26-4.95-25.08-3.92-35.1,1.24-12.07,5.49-23.17,11.26-33.99-57.51,1.28-114.93,2.44-172.45,1.49,14.08,19.48,19.3,41.7,20.25,65.2-1.2-1.27-1.02-2.93-1.29-4.44-2.34-13.19-4.48-26.46-9.82-38.88-3.27-7.6-7.08-14.96-12.52-21.34-1.05-1.23-2.77-1.79-2.98-3.84-.31-3-.83-5.97-.97-8.99-.19-4.21-.4-8.43.73-12.58.29-1.07.63-1.67,1.87-1.79,6.28-.61,12.56-1.26,18.86-1.66,4.07-.26,8.14-.55,12.21-.77,1.08-.06,1.54-.31,1.53-1.56-.06-6.04.23-12.1-.02-18.13-.33-7.91-1.02-15.8-1.6-23.69-.25-3.4-.61-6.79-.93-10.37-.9.5-1.36,1.26-1.9,1.92-4.49,5.56-8.69,11.34-13.61,16.57-2.44,2.59-4.96,5.09-7.67,7.39-2.26,1.92-4.79,2.82-7.93,3.02-4.82.3-8.95-1.59-13.18-3.07-14.91-5.2-30.05-9.82-44.17-17.02-1.91-.97-3.6-2.2-5.26-3.5-.25-.2-.63-.63-.56-.78.77-1.68-.85-1.79-1.59-2.39-4.28-3.41-9.39-4.39-14.66-5.09-7.1-.93-14.1-2.34-20.57-5.6-3.96-1.99-6.07-5.21-6.38-9.62-.12-1.64-.36-3.28-.56-4.92-.41-3.28.18-6.47,1-9.61.61-2.33,1.54-2.57,3.97-2.23,7,.98,13.24,4.22,19.83,6.4,1.3.43,2.61.81,3.92,1.21.47.14.6.02.34-.42ZM399.67,172.61c-.16-.3-.39-.33-.67-.17.13.15.26.3.39.45,4.18,6.47,8.74,12.67,13.59,18.66,1.76,2.17,3.62,4.28,5.94,5.91,1.38.97,2.85,1.63,4.8,1.55-3.58-3.84-7.01-7.44-10.35-11.11-4.6-5.06-9.14-10.19-13.7-15.28ZM339.23,181.25c.26-.11.56-.17.77-.34,4.04-3.38,8.13-6.74,11.44-10.85,4.07-5.04,6.72-10.92,9.66-16.63.57-1.1.57-1.9-.18-2.92-1.86-2.51-2.86-5.43-3.66-8.4-.58-2.17-.18-2.62,2.02-2.71.5-.02,1.02.02,1.41-.47-1.02-1.46-1.89-2.98-2.19-4.76-.96-5.71.58-10.7,4.42-15.02.43-.49.72-.88.61-1.63-.47-3.33-.79-6.67-1.24-10-.51-3.8-.99-7.62-3.27-11.01-.66,5.21-.27,10.35-.8,15.45-.62,6.05-1.02,12.12-2.25,18.09-1.8,8.76-4.14,17.38-6.68,25.95-2.51,8.46-5.12,16.92-9.95,24.47-.14.22-.53.52-.08.84-.1-.14-.22-.17-.34-.02-.02.03,0,.1,0,.15.1-.06.2-.12.3-.18ZM323.25,179.09c-.09.05-.18.1-.27.15.04.04.08.08.11.13.05-.09.1-.19.15-.28-1.56-2.25-2.47-4.8-3.51-7.29-3.79-9.1-6.02-18.62-7.35-28.34-.81-5.91-1.33-11.86-1.88-17.8-.6-6.43-.48-12.86-.06-19.3.23-3.47.55-6.94.83-10.41-.86.7-1.58,1.46-2.03,2.35-1.15,2.28-2.04,4.68-2.78,7.13-2.6,8.52-5.19,17.05-9.24,25.05-1.67,3.3-1.69,3.31,1.19,5.86,2.11,1.87,3.96,3.96,5.5,6.32.69,1.05.69,1.84-.4,2.77-2.06,1.76-3.65,4.02-6.15,5.5,4.53,3.93,7.97,8.48,11.09,13.39,3.53,5.56,8.06,10.37,13.43,14.31.36.26.65,1.12,1.37.46ZM221.41,169.63c.9-2.28,1.73-4.5,1.62-7-.05-.98-.3-1.31-1.22-1.61-7.22-2.33-14.75-3.78-21.59-7.55-.4,8.73-5.72,14.59-11.6,20.18,1.28,1.22,2.88,1.99,4.47,2.77,9.73,4.78,19.86,8.58,30.13,12.03,7.24,2.44,14.48,4.88,21.86,6.85,2.39.64,4.9,1.47,7.48-.04,3.06-1.8,5.71-4.02,7.98-6.7,6.4-7.54,12.67-15.19,19.32-22.52.4-.44.73-.85.68-1.49-.19-2.33-.34-4.66-.51-6.99-.24-3.46-.13-6.95-.78-10.38-.12-.62-.03-1.35.75-1.52.91-.19.76.74.91,1.16.97,2.73.85,5.61,1.06,8.44.34,4.72.37,9.46.86,14.16,1.01,9.69,1.43,19.42,2.3,29.12.6,6.67.39,13.33.33,19.99-.04,4.31-.03,4.19,4.3,4.03,11.54-.43,23.07-1.33,34.63-1.31,3.93,0,3.9,0,3.42-3.91-.54-4.4-1.21-8.79-.63-13.25.51-4,.84-8.04,2.48-11.79.34-.79.15-1.25-.32-1.81-1.4-1.66-2.43-3.53-3.26-5.54-.39-.94-.79-1.91-1.88-2.51-7.91-4.42-13.9-10.76-18.21-18.63-1.83-3.35-4.04-6.33-6.91-8.86-1.16-1.02-2.27-2.1-3.38-3.18-.93-.91-.79-1.85.36-2.3,2.25-.86,3.62-2.72,5.35-4.2,1.26-1.07,1.13-1.84.19-3.01-2.09-2.61-4.62-4.76-7.07-7-.96-.88-1.46-1.76-.64-3.11,5.92-9.7,7.84-20.93,12.45-31.58-1.56.64-2.74,1.15-3.93,1.62-6.51,2.59-13.39,4.09-19.9,6.69-1.85.74-3.53,1.66-4.95,2.99-3.05,2.86-5.79,6.01-8.17,9.46-3.31,4.8-5.56,10.21-8.84,15.04-3.85,5.67-7.46,11.49-10.88,17.43-2.19,3.81-4.48,7.56-6.75,11.32-.75,1.23-1.05,2.11.54,3.09,2.04,1.26,3.78,2.97,5.45,4.71.69.72,1.28,1.5,1.76,2.46-1.06.2-1.42-.5-1.9-.92-3.98-3.4-8.35-6.18-13.1-8.42-.98-.46-1.2-.19-1.46.71-.44,1.53-1.01,3.02-1.94,4.33-.38.54-.74,1.21-1.78,1.29.8-1.86,1.35-3.56,1.6-5.35.35-2.57.26-2.75-2.41-3.32-.4,1.62-.51,3.35-1.85,4.98,0-1.05-.03-1.76,0-2.46.22-4.07.35-3.18-3.13-4.25-.07-.02-.18.05-.25.08-.18,2.87-.88,5.52-3.04,7.6ZM404.18,232.28c1.29-1.07,2.5-.58,3.6-.72,7.63-.97,15.31-1.27,23-1.43.94-.02,2.27.44,2.74-.01.54-.52.24-1.83.43-2.77.26-1.28-.13-1.59-1.47-1.6-13.22-.08-26.45-.04-39.66-.43-22.1-.66-44.2-.87-66.31-1.15-6.78-.09-13.56.24-20.34.55-7.92.36-15.86.52-23.77.98-9.46.55-18.9,1.35-28.36,2.01-2.94.2-2.94.15-3.35,3.03-.32,2.26-.32,2.29,1.92,2.22,12.35-.37,24.7-.81,37.07-.69,1.27.01,2.52.07,3.68.6-.11.47-.37.43-.58.43-6.44.02-12.86.43-19.29.67-7.35.27-14.68.83-22.01,1.38-.79.06-.92.35-.92,1.04.01,3.82.47,7.6.97,11.39.16,1.18.71,1.53,1.78,1.56,4.14.12,8.27.34,12.41.39,24.84.3,49.67.14,74.49-.69,21.78-.73,43.57-1,65.35-1.12,7-.04,14.03-.3,21.01.59q3.14.4,4.07-2.51c.38-1.2.04-1.58-1.12-1.72-2.85-.34-5.7-.68-8.57-.7-1.2,0-2.36-.2-3.54-.59.31-.52.62-.41.88-.45,3.94-.63,7.91-.18,11.86-.42,1.42-.09,2.24-1.01,2.09-2.77-.1-1.15-1.15-.41-1.75-.58-1.28-.36-2.62-.29-3.94-.36-1.2-.06-2.4-.22-3.58-.4-.28-.04-.72-.19-.62-.65.08-.38.44-.3.71-.3,2.76.03,5.49-.48,8.26-.34.44.02,1.17.81,1.39-.17.29-1.26.4-2.57.58-3.86-.21-.03-.43-.07-.64-.08-8.1-.49-16.19-.51-24.29-.09-1.29.07-2.6.21-4.2-.25ZM444.37,168.47c-.41.03-.56-.33-.77-.56-2.23-2.41-3.26-5.41-3.93-8.5-.28-1.3-.72-1.12-1.55-.67-4.49,2.44-8.72,5.22-12.22,8.99-.45.48-.97,1.27-1.69.69-.76-.6-.19-1.4.25-1.95.75-.93,1.57-1.83,2.47-2.61.62-.54.59-.88.18-1.52-1.65-2.59-3.3-5.18-4.82-7.85-6.24-10.92-12.73-21.69-19.23-32.46-.74-1.23-1.64-2.32-2.79-3.22-4.41-3.44-9.31-5.98-14.61-7.78-7.29-2.47-14.74-4.58-21.37-8.65-.05-.03-.18.07-.36.14.67,4.14,1.21,8.32,1.52,12.52.16,2.15.13,2.15,2.17,1.84.57-.09,1.13-.21,1.7-.25,3.9-.3,7.4.37,10.51,3.12,3.48,3.08,5.18,6.94,6.36,11.22.53,1.92.78,3.76.15,5.69-.3.92,1.97,4.06,2.9,3.85,2.12-.48,3.58.62,5.09,1.84.49-1.49.92-2.83,1.38-4.16.12-.36.21-.88.74-.77.67.13.24.6.2.95-.17,1.47-.24,2.95-.54,4.39-.19.91.08,1.5.61,2.16,1.73,2.13,3.27,4.39,4.73,6.71.48.76.87,1.62.58,2.41-.7,1.88.39,3.07,1.36,4.39,9.13,12.4,19.45,23.84,29.15,35.77.76.93,1.29.74,2.12.22,5.03-3.13,9.92-6.49,14.9-9.68,10.11-6.47,19.6-13.84,30.01-20.22-5.84-4.5-10.39-9.68-11.38-17.25-5.22,2.56-10.49,4.7-15.91,6.45-1.14.37-1.49.78-1.03,1.93.55,1.4.94,2.86,1.41,4.29-1.54-.89-2.1-2.34-2.74-3.77-.26-.58-.35-1.74-1.42-1.2-1.01.5-2.8.02-2.7,2.12.09,1.92.72,3.63,1.39,5.37.15.39.72.81.01,1.43-1.65-1.85-2.39-4.08-3.09-6.33-.11-.35.02-.83-.56-.92-1.12-.17-2.64,1.12-2.53,2.26.29,3.03,1.44,5.78,3,8.37.23.39.63.69.35,1.22ZM344.79,221.26v.04c4.54,0,9.08-.04,13.62.03,1.05.02,1.66-.21,2.09-1.23.74-1.74,2.08-2.71,4.04-3,4.04-.59,8.09-1.05,12.17-.91,1.42.05,1.77-.53,1.82-1.75.31-7.34.9-14.67,1.11-22.03.28-9.74.66-19.48,1.61-29.19.3-3.12.52-6.17-1.95-8.75-.85-.89-1.78-2.39-1.26-3.55.95-2.14-.81-3.04-1.5-4.44-.2-.41-.48-.29-.84-.29-3.57.07-6.95-.54-9.85-2.81-.9-.71-1.82-1.39-2.71-2.11-1.24-1-2.26.21-3.33.42-.62.12-.04,1.1.12,1.66.75,2.56,1.57,5.11,3.15,7.32.44.62.58,1.25.24,1.92-4.03,8.15-7.9,16.46-14.71,22.79-3.36,3.12-6.29,7.02-11.24,8.03-.13.03-.24.23-.34.36-2.72,3.5-5.46,6.95-6.5,11.44-1.91,8.26-1.87,16.58-1.21,24.95.08.99.66,1.13,1.52,1.13,4.65-.03,9.31-.01,13.96-.01ZM338.81,28.45c-5.6,1.9-11.24,1.34-16.81.63-8.14-1.04-16.12-2.86-23.56-6.46-.88-.42-1.12-.36-1.31.65-.86,4.58-1.77,9.14-2.17,13.8-.95,11.12.5,21.91,4.31,32.38,1.89,5.2,5.39,8.98,10.79,10.65,5.21,1.61,10.27.64,15.15-1.46,5.59-2.41,10.85-5.39,15.28-9.61,3.09-2.95,6.52-5.6,8.79-9.32.47-.77,1.19-.82,1.95-.73,1.63.2,2.84-.49,3.97-1.59,3.91-3.8,5.4-12.63,1.85-18.21-1.34-2.1-3.92-3.05-5.77-2.13-2.48,1.24-4.74,2.7-4.5,5.98.03.43-.13.88-.46,1.05-.41.21-.66-.22-.96-.5-.71-.67-1.28-1.44-1.83-2.24-2.64-3.89-4-8.25-4.73-12.89ZM289.61,13.23c.28.34.45.56.64.78,4.79,5.32,11.02,8.14,17.83,9.61,10.22,2.19,20.48,4.76,31.03,1.6.94-.28,1.95.3,1.73,1.5-.16.9.03,1.7.19,2.52.78,3.96,2.04,7.74,4.22,11.31.98-2.29,1.43-2.43,3.76-4.25,3.49-2.73,8.93-.87,10.42,3.5,2.28,6.69.87,12.66-3.2,18.21-.26.35-.76.54-.74,1.08.09,2.45-.02,4.93.86,7.47,1.3-1.51,2.32-3.01,3.1-4.65,3.67-7.69,6.83-15.57,7.89-24.09.46-3.72.53-7.51-.58-11.16-1.4-4.59-4.79-7.03-9.34-8.03-1.79-.39-2.86-1.28-3.07-3.15-.12-1.03-.68-1.91-1.22-2.79-2.74-4.46-7.15-6.45-11.92-7.77-8.1-2.25-16.28-2.1-24.53-.74-9.48,1.56-18.47,4.44-27.05,9.06ZM143.98,143.07c.64,2.14.37,4.43.68,6.7.78,5.72,4.09,8.91,9.45,10.65,3.33,1.08,6.72,1.83,10.09,2.64,5.26,1.27,10.71,1.77,15.86,3.48,1.49.49,2.47.22,3.46-.85,3.43-3.74,5.96-7.99,7.59-12.79.39-1.15.27-1.96-.73-2.77-.88-.71-1.59-1.64-2.33-2.51-2.61-3.1-4.96-6.42-7.85-9.3-2.43-2.42-4.87-4.83-7.99-6.41-1.06-.54-1.44-.29-1.41.86.03,1.09.23,2.14.65,3.14,1.28,3.09,2.6,6.16,3.81,9.27.34.87,1.2,2.15.16,2.69-.65.34-1.09-1.19-1.44-1.96-.55-1.19-1.23-1.94-2.65-2.26-3.62-.8-7.13-2.03-10.54-3.5-4.3-1.85-8.69-3.43-13.29-4.39-1.16-.24-1.91-.1-2.32,1.2-.61,1.97-.84,3.99-1.21,6.08ZM330.7,189.51c2.9-4.21,6.2-8.07,8.82-12.42,1.15-1.91,1.94-3.6,1.18-6.08-1.73-5.72-2.09-11.7-2.49-17.65-.31-4.6-.82-9.2-1.02-13.81-.32-7.24-.43-14.48-.67-21.73-.14-4.11-.18-4.1-4.4-4.12-.11,0-.23.01-.34,0-.8-.06-1.17.26-1.39,1.08-2.65,10.11-4.57,20.35-5.99,30.69-.85,6.19-1.56,12.41-2.52,18.58-1.09,6.97-1.18,6.96,1.79,13.44.38.82.7,1.66,1.11,2.47,1.66,3.32,3.05,6.8,5.93,9.53ZM487.75,139.13c-.48-.24-.54-.52-.5-.8.29-2.48.62-4.95.87-7.43.27-2.78.62-5.6-1.62-7.87-1.77-1.8-3.37-1.52-4.35.77-.78,1.83-1.1,3.79-1.46,5.73-.94,5.09-2.14,10.1-4.93,14.57-.39.63-.3,1.19-.13,1.78,1.54,5.45,4.51,9.95,8.99,13.48.34.27.63.49,1.06.26,2.94-1.62,6.35-2.16,9.15-4.17,6.52-4.68,11.28-10.73,14.38-18.04,2.59-6.12.64-11.67-3.33-16.19-1.51-1.72-2.71-1.71-4.43-.26-.78.66-1.48,1.43-2.17,2.18-3.25,3.51-5.95,7.54-9.94,10.35-.41.29-.29.69-.41,1.05-.5,1.49-.41,3.12-1.16,4.59ZM342.44,107.62c-1.48,1.87-2.81,3.57-4.16,5.25-.35.44-.48.89-.36,1.43.42,1.8.26,3.63.24,5.45-.08,7.53.22,15.04.99,22.54.47,4.59.89,9.19,1.07,13.8.21,5.31.63,10.59,1.58,15.88,7.6-10.78,17.63-64.58,14.8-79.52-.18.51-.33.92-.48,1.33-2.18,6.37-4.61,12.63-8.05,18.47-.41.69-.79,1.39-1.43,1.91-.61.5-1,.54-1.37-.36-.84-2.02-1.83-3.99-2.85-6.17ZM316.21,82.34c1.22,1.49,2.36,2.91,2.36,4.75,0,1.11.41,1.84,1.21,2.45,4.63,3.55,9.83,5.62,15.69,6.02,1.22.08,2.38,0,3.49-.58,4.57-2.37,9.15-4.72,12.77-8.5.44-.46.77-.82.81-1.55.28-5.15.11-10.39,2.46-15.22.19-.38.06-.75-.09-1.14-.94-2.4-1.36-4.92-1.53-7.48-.02-.28.13-.89-.36-.72-1.2.43-2.68-.08-3.55,1.5-1.96,3.55-4.91,6.3-8.09,8.75-7.46,5.73-15.44,10.44-25.16,11.71ZM320.19,168.54c.24-5.04.43-9.97,1.17-14.82,1.79-11.76,3.87-23.48,6.38-35.12.38-1.77,1.21-3.7.81-5.32-.51-2.09-1.46-4.17-2.22-6.51-1.28,2.79-2.18,5.4-2.96,8.06-.15.5-.29,1.06-.87,1.14-.41.05-.65-.34-.85-.73-2.52-4.82-5.45-9.41-7.81-14.31-.15-.31-.07-.85-.67-.84-3.35,26.97,2.41,58.65,7.01,68.44ZM394.21,163.41c12.39,14.44,24.65,28.73,38.16,41.9.92-1.79,2.5-2.9,4.9-2.97-2.11-2.56-4.01-4.94-5.99-7.26-5.25-6.16-10.53-12.3-15.8-18.44-1.35-1.58-1.55-1.58-3.19-.19-.82.7-1.43,1.69-2.73,2.12.33-1.96,1.81-3.05,2.53-4.55.36-.75-.2-2.32-.96-2.36-.69-.03-1.29.39-1.84.81-.28.21-.63.41-.92.17-.34-.28-.05-.61.13-.89.15-.24.31-.48.47-.71.44-.63,1.18-1.23.22-2-.84-.68-1.43-.06-2.07.38-.89.62-1.49,1.63-2.77,2.14.43-1.78,1.62-2.83,2.45-4.06.41-.61.48-1,0-1.6-2.14-2.7-4.24-5.44-6.43-8.26-1.86,2.3-3.92,4.26-6.18,5.77ZM400.28,153.97c-.05-.17-.05-.48-.21-.69-2.64-3.63-4.81-7.64-8.6-10.34-.53-.38-.99-.57-1.56-.28-3.59,1.86-6.92,4.05-9.3,7.4-.4.56-.78,1.18-.31,1.87,2.31,3.38,4.34,6.97,7.39,9.81,1.86,1.74,2.61,1.75,4.79.39,2.69-1.68,4.87-3.92,7.07-6.14.5-.51.53-1.23.72-2ZM345.96,112.69c.15-.17.33-.31.45-.49,4.14-6.67,6.76-14,9.34-21.34.21-.6.17-1.18-.3-1.73-.68-.79-1.28-1.65-1.86-2.42-4.41,4.5-9.54,7.71-15.03,10.56,3.91,4.36,5.26,10.05,7.4,15.43ZM316.43,89.18c-.45.71-.7,1.23-1.06,1.65-1.53,1.82-1.63,3.71-.88,5.96,1.92,5.81,4.78,11.19,7.33,16.78.18-.2.35-.3.39-.45,1.49-5.18,3.9-10,6.19-14.85.65-1.38.33-1.67-.9-2.21-3.95-1.73-8.2-3.02-11.07-6.89ZM387.25,165.13c-.18,4.08-.37,8.06-.54,12.04-.54,12.48-1.02,24.96-.53,37.45.04.91.11,1.47,1.27,1.5,1.24.03,1.03-.72,1.08-1.43.49-7.11.2-14.24.63-21.36.34-5.57.49-11.14,1.04-16.7.32-3.23.54-6.46.76-9.69.03-.38.44-1.17-.54-1.06-1.13.13-2.11-.36-3.17-.74ZM341.57,105.74c-.13-.29-.2-.44-.27-.59-1.12-2.45-3-4.42-4.29-6.76-.22-.39-.62-.43-1.03-.49-1.63-.2-3.59-1.08-4.78-.47-1.22.62-1.7,2.69-2.48,4.14-.43.8-.82,1.62-1.2,2.44-.14.3-.39.77-.27.93,1.34,1.72,1.33,3.96,2.28,5.83.44.87.82,1.3,1.93,1.04,1.29-.31,2.65-.01,3.88.43.91.33,1.31.1,1.81-.61,1.32-1.85,2.73-3.65,4.1-5.47.12-.16.24-.32.32-.42ZM182.92,167.86c1.59,1.07,3.16,2,4.56,3.13.87.71,1.41.66,2.1-.12,3.64-4.08,7.34-8.07,8.41-13.75.5-2.66.74-2.61-1.69-3.62-.84-.35-1.67-.74-2.48-1.16-.7-.36-1.13-.31-1.34.55-.46,1.88-1.33,3.61-2.29,5.26-2.02,3.45-3.67,7.18-7.26,9.7ZM398.31,222.13c-1.87-2.95-4.49-3.52-7.33-3.54-6.54-.05-13.09-.07-19.63-.1-1.9,0-3.78.18-5.65.5-1.33.23-2.5.71-2.78,2.51,11.79.21,23.47.42,35.39.63ZM473.94,145.18c-.83.47-1.57,1.09-2.42,1.34-1.21.35-1.22,1-1.06,2.03,1,6.47,4.83,10.97,10.08,14.51.27.18.6.56.91.31.82-.69,2.17-.78,2.6-1.75.46-1.03-.98-1.17-1.41-1.84-.4-.61-.99-1.1-1.47-1.66-3-3.53-5.15-7.53-6.64-11.89-.14-.4-.05-.92-.58-1.05ZM384.96,138.42c-1.92,2.27-3.99,4.38-6.47,6.04-.26.17-.81.37-.56.69.52.67,1.13,1.31,1.84,1.77.6.39.79-.45,1.17-.73,1.1-.82,2.13-1.73,3.25-2.52,3.04-2.18,3.05-2.16.79-5.25ZM369.62,129.41c-.35,1.46.22,2.03,1.67,1.85.39-.05.8.06,1.2.07.52.02,1.3.61,1.5-.09.29-1.06.71-2.62.19-3.25-.87-1.04-2.61-.59-3.93-.55-1.05.03-.39,1.32-.63,1.97ZM372.42,122.69c-1.79-.06-2.78,1.18-2.48,2.86.06.33.14.55.5.54,1.21-.04,2.4.08,3.59.32.28.06.53,0,.7-.32,1.17-2.13.51-3.29-1.95-3.4-.17,0-.34,0-.36,0ZM373.72,135.04c.85-2.79-1.15-2.2-2.28-2.33-.59-.07-1.8-.82-1.86.82-.09,2.57.27,2.93,3.01,3.2,2.01.2.93-1.31,1.13-1.69ZM379.28,137.89c0-1.2-.02-2.32,0-3.44.01-.59-.26-.69-.8-.82-3.1-.7-3.31-.51-3.05,2.65.05.64.29.93.85,1.04.98.2,1.97.37,2.99.56ZM375.96,128.02q-.53,3.41,2.76,4.14c.22.05.45.06.67.09q.7-3.64-3.43-4.24ZM366.37,130.92c1.84.05,1.77.04,1.99-2.82.09-1.11-.58-1.06-1.09-.87-.97.37-2.75-1.13-2.92,1.02-.21,2.6-.11,2.61,2.02,2.67ZM366.22,126.05c2.47,0,2.55-.12,2.69-2.56.05-.79-.2-.9-.96-.88-3.38.11-3.42.17-3.57,2.24-.13,1.86,1.19.98,1.83,1.19ZM368.22,134.52c-.07-2.13-.3-2.25-2.59-2.22-.96.01-.93.41-.89,1.13.13,2.43.69,3.07,2.97,2.82,1.41-.15.08-1.3.51-1.74ZM379.04,127.14c2.03.16,1.51-1.91,1.42-2.09-.59-1.26-2.1-1.35-3.2-1.41-1.13-.06-1.03,1.57-.98,2.24.14,1.9,2.12.37,2.76,1.26ZM370.92,121.23c1.48.19,2.84.3,4.17.57.59.12.67-.12.8-.52.15-.46.6-1.01.05-1.36-1.13-.72-2.52-.9-3.76-.85-.97.04-.73,1.41-1.25,2.17ZM375.55,138.59c-.08,2.59-.07,2.54,2.37,3.06,1.04.22,1.59-.4,1.79-1.08.19-.62-.31-1.23-1.1-1.37-1-.18-1.99-.39-3.06-.6ZM374.01,139.67c-.13-.42.21-1.3-.55-1.48-1.08-.25-2.23-.24-3.35-.32-.04,0-.11.17-.14.26-.26.84.63,2.21,1.51,2.31.56.06,1.17-.01,1.69.17.93.33.94-.15.84-.94ZM383.97,133.27c.28-1.1-.1-2.03-.27-2.95-.15-.81-1.08-.63-1.64-.92-.38-.19-.56.07-.6.32-.15.88-.41,1.81-.25,2.65.06.31,1.18.42,1.82.62.27.08.54.16.94.28ZM381.78,134.39c-.74-.19-.84.15-.84.61,0,.56-.05,1.13.01,1.69.07.64-.35,1.6.35,1.86.85.31,1.08-.78,1.52-1.28.5-.57,1.29-1.24.9-2.04-.36-.73-1.41-.56-1.95-.83ZM384.2,205.43c-1.04,1.98-4.21,2.05-3.44,5.29,1.28-1.74,4.57-1.66,3.44-5.29ZM381.51,191.53q3.47-1.81,3.05-4.65c-1.14,1.58-3.53,2.04-3.05,4.65ZM380.25,214.73c1.04-.61,1.81-1.09,2.6-1.51,1.83-.98,1.84-.97,1.27-3.45-1.03,1.88-3.64,2.15-3.87,4.96ZM365.45,137.37c.31,1.02.5,1.72.73,2.4.42,1.28,1.33.34,2,.4.89.08.53-.5.51-1-.09-2.38-1.91-1.34-3.24-1.79ZM370.05,119.03c-1.69.22-3.06.33-4.17,1.24-.33.27-.79.85-.16.97,1.09.21,2.31.24,3.38-.03.8-.2.52-1.31.96-2.18ZM362.02,132.34c-.74-.07-1.17.08-.88.92.2.58.37,1.18.51,1.78.19.8.67,1.13,1.47.99,1.16-.2.18-.85.25-1.28.07-.43-.02-.9-.07-1.34-.09-.77-.41-1.29-1.28-1.07ZM438.22,203.91c-1.4-.16-2.51.18-3.51.93-.5.38-.86.95-.54,1.48.36.6,1.02.32,1.52.04.98-.57,1.94-1.19,2.53-2.45ZM384.5,191.18c-.85,1.78-3.5,1.99-3.08,4.85,1.19-1.69,4.11-1.7,3.08-4.85ZM382.12,179.64c2.01-.71,3.41-1.76,2.52-4.31-1.1,1.38-2.99,2.11-2.52,4.31ZM360.95,130.13c-.37.82.26.84,1.1.8,1.97-.09.46-1.32.61-1.96.1-.41.51-1.33-.48-1.47-1.21-.18-.84.94-1.11,1.51-.12.24-.07.56-.12,1.12ZM385.23,164.7c-1.17,1.05-2.83,1.73-2.14,3.77,1.54-.77,2.9-1.62,2.14-3.77ZM384.38,195.6c-.98,1.3-3.14,1.48-3.23,3.54.98-1.3,3.72-.91,3.23-3.54ZM382.13,183.51c1.13-1.2,3.38-1.37,2.42-4.05-.75,1.46-3.11,1.55-2.42,4.05ZM384.36,201.82c-1.11,1.8-3.42,2.02-3.51,4.23.97-1.42,3.83-1.13,3.51-4.23ZM384.38,213.38c-1.04.92-1.89,1.68-2.87,2.54q3.03.31,2.87-2.54ZM381.69,187.39c.88-1.67,3.61-1.39,2.85-4.28-.79,1.67-2.96,1.82-2.85,4.28ZM384.28,198.98c-.89,1.28-3.04,1.43-3.11,3.45.84-1.33,3.53-1,3.11-3.45ZM371.62,142.12c-.22.29-.87-.14-.73.39.43,1.56,2.02.79,3,1.32.45.24.62-.24.5-.57-.51-1.36-1.91-.52-2.77-1.14ZM382.4,175.3c3.14-2.24,2.89-1.67,2.45-3.42-.88,1.15-2.64,1.52-2.45,3.42ZM384.89,168.54c-.7,1.33-2.43,1.57-2.11,3.69.85-1.34,3.01-1.22,2.11-3.69ZM383.41,160.98v3.08q1.96-1.03,0-3.08ZM311.45,95.59l.05-.09h-.08s.03.09.03.09Z"/>
    <path class="cls-2" d="M263.4,240.79c1.62-1.09,3.6-.84,5.35-.9,10.97-.36,21.93-.79,32.91-.77.33,0,.67.06,1,.1,0,.16,0,.32.01.48-13.07.52-26.14,1.05-39.21,1.57-.02-.16-.04-.32-.06-.48Z"/>
    <path class="cls-2" d="M334.35,195.01c-.04-.56.12-1.15.35-1.74.78-2.01,2.27-3.01,3.82-2.53,2.02.63,3.27,2.9,2.67,4.87-.11.38-.3.73-.48,1.08-1.12,2.16-2.3,3.01-3.7,2.66-1.66-.41-2.69-2.06-2.67-4.35ZM339.21,194.99c-.29-.79-.28-1.92-1.44-1.79-1.36.16-1.27,1.4-1.3,2.41-.03.93.09,2.14,1.24,1.97,1.2-.18,1.14-1.62,1.5-2.59Z"/>
    <path class="cls-2" d="M311.77,74.81c-4.67.02-7.62-2.57-10.14-5.91-.48-.64-.21-1.21.09-1.73.32-.55.94-.35,1.4-.22,6.34,1.85,12.15.1,17.82-2.55.57-.27,1.1-.61,1.68-.86.46-.2.9-.08,1.22.34.27.36.28.75.02,1.11-2.45,3.41-4.68,7.04-8.6,9.07-1.13.59-2.36.85-3.49.76ZM320.53,66.93c-5.41,1.92-10.92,2.35-16.65,1.94,2.65,4.6,7.77,5.46,11.15,3.62,2.34-1.27,3.91-3.43,5.5-5.56Z"/>
    <path class="cls-2" d="M319,40.54c3.34.11,5.9.96,8.23,2.54.51.35.98.74.6,1.38-.35.58-.94.35-1.36.07-4.24-2.82-8.71-2.15-13.21-.87-.16.05-.31.15-.48.19-.55.11-1.18.36-1.47-.39-.29-.78.25-1.18.86-1.44,1.1-.48,2.26-.78,3.45-.95,1.3-.18,2.6-.4,3.39-.52Z"/>
    <path class="cls-2" d="M305.94,59.33c.4,0,.81-.06,1.2.01.6.11,1.57-.42,1.7.59.1.77-.81.87-1.35,1.06-1.56.55-3.14,1.09-4.84.44-1.85-.71-2.42-1.86-1.7-3.73.63-1.64,1.28-3.27,1.92-4.9.19-.47.32-1.08.99-.98.84.13.61.87.59,1.38-.06,1.4-.78,2.59-1.37,3.81-1.02,2.13-.95,2.26,1.49,2.33.46.01.92,0,1.38,0v-.02Z"/>
    <path class="cls-2" d="M314.19,49.72c-.48.05-.73.02-.92.11-.48.22-.98.56-1.27-.16-.31-.76.36-1.03.87-1.2,2.22-.73,4.52-.56,6.77-.29,1,.12,2.15.06,3,1.01-2.1-.14-4.2-.23-6.55-.07,1.32.73,2.01,1.61,1.19,2.81-.69,1-1.82,1.25-2.89.69-1.27-.66-1.06-1.7-.2-2.9Z"/>
    <path class="cls-2" d="M300.18,41.48c1.77-.05,3.19.73,4.5,1.8.43.35.67.84.42,1.35-.3.61-1.01.47-1.36.24-2.06-1.35-4.2-1.13-6.41-.53-.43.12-.97.17-1.18-.38-.19-.51-.1-1.01.36-1.38,1.08-.85,2.34-1.1,3.67-1.1Z"/>
    <path class="cls-2" d="M304.03,48.81c-.27.63-.69.64-1.09.59-.73-.1-1.14.05-1.24.9-.11.9-.83,1.4-1.68,1.45-1.01.06-1.59-.65-1.75-1.56-.11-.66-.24-.94-.93-.62-.49.22-1.04.4-1.25-.33-.2-.7.26-1.03.87-1.22,2.49-.79,4.74.09,7.06.79Z"/>
    <path class="cls-2" d="M388.61,156.11c-.68.35-.96.06-1.25-.23-1.32-1.34-2.66-2.67-3.95-4.04-.45-.48-.71-1.22-.14-1.66.46-.35.93.27,1.25.64,1.42,1.7,2.91,3.34,4.09,5.28Z"/>
    <path class="cls-2" d="M392.34,159.57c.03.4-.25.45-.54.46-.88.04-2.56-1.25-2.54-1.97.01-.56.33-.81.87-.83.65-.03,2.22,1.62,2.22,2.34Z"/>
  </g>
  <g>
    <path class="cls-1" d="M72.94,332.33v1.61c-5.6.66-10.33,2.92-13.78,7.28-1.72,2.17-2.99,4.74-2.36,7.72.18.84.66,1.62.97,2.44.17.45.44.96.37,1.4-.24,1.52-.57,1.5-2,.83-2.66-1.25-5.49-1.7-8.45-1.35-2.53.3-4.76,1.36-6.54,3.03-1.14,1.07-1.9,2.62-2.61,4.06-1.16,2.36-1.44,4.81-.11,7.25.07.13-.02.34-.03.51-1.39-.16-2.37-1.31-2.42-3.03-.09-3.1.56-5.89,2.47-8.58,3.48-4.9,8.15-5.77,13.59-4.92,1.05.16,2.09.35,3.28.55-.11-1.26-.21-2.32-.29-3.38-.38-4.9,2.02-8.38,5.91-10.97,2.22-1.48,4.63-2.68,6.85-3.95-.91-.76-2.17-1.65-3.23-2.74-2.76-2.82-2.85-7.05-.54-10.31,1.71-2.4,3.87-3.88,6.68-4.87,2.65-.93,5.14-1.71,8.03-1.47,2.85.24,5.24,1.55,7.82,2.46.5.18.98.41,1.52.63.56-1.22,1.01-2.36,1.58-3.44,2.34-4.42,6.41-5.93,11.07-6.38.99-.09,2,0,2.99-.06,1.03-.06.93.78.93,1.29,0,.59-.44.8-1.16.67-3.82-.68-7.15.5-10.1,2.87-1.83,1.47-2.98,3.29-3.14,5.73-.05.71-.67,1.39-1.1,2.2-.56-.34-1.07-.6-1.52-.92-2.82-1.99-5.96-3.29-9.4-3.42-4.72-.18-9.04,1.42-12.2,4.84-3.11,3.36-3.2,9.52,2.52,11.57,1.35.48,2.85.57,4.38.86Z"/>
    <path class="cls-1" d="M579.57,297.74c.4-.11,1.03-.28,1.56-.43,2.13,5.19,5.58,9.11,10.73,11.26,2.56,1.07,5.4,1.6,8.12.21.77-.39,1.4-1.07,2.11-1.58.4-.28.82-.68,1.26-.73,1.54-.17,1.61.14,1.34,1.69-.5,2.88-.19,5.71.94,8.45.96,2.34,2.58,4.19,4.68,5.45,1.34.81,3.04,1.12,4.63,1.42,2.6.48,5.05.1,7.07-1.82.1-.1.33-.07.5-.1.21,1.37-.64,2.62-2.3,3.12-2.99.91-5.87,1.03-8.99-.09-5.68-2.03-7.77-6.26-8.39-11.7-.12-1.05-.21-2.1-.34-3.29-1.2.44-2.2.82-3.2,1.18-4.66,1.66-8.68.29-12.22-2.75-2.03-1.73-3.83-3.72-5.66-5.51-.5,1.07-1.03,2.52-1.8,3.82-2.01,3.39-6.09,4.6-9.86,3.25-2.79-.99-4.8-2.67-6.51-5.1-1.61-2.29-3.03-4.47-3.56-7.3-.53-2.79.11-5.43.31-8.14.04-.53.13-1.05.21-1.63-1.33-.21-2.56-.34-3.76-.6-4.91-1.07-7.46-4.56-9.13-8.9-.36-.92-.54-1.91-.86-2.85-.33-.97.51-1.1,1.01-1.23.57-.15.89.21.96.93.36,3.84,2.38,6.71,5.47,8.91,1.91,1.36,3.99,1.98,6.39,1.48.7-.15,1.53.28,2.43.47-.18.63-.3,1.18-.49,1.7-1.18,3.23-1.61,6.58-.82,9.9,1.08,4.57,3.78,8.27,7.94,10.39,4.09,2.08,10.09.53,10.56-5.49.11-1.42-.2-2.88-.32-4.42Z"/>
    <path class="cls-1" d="M346.17,336.25c1.8-1.98,3.48-3.81,5.88-4.77,4.47-1.77,8.53-1.24,12.08,2.11,1.5,1.41,2.97,2.86,4.51,4.34.22-.39.59-.78.7-1.24.89-3.56,3.33-5.64,6.49-7.25,3.82-1.94,7.76-2.76,12.01-2.2.37.05.75,0,1.18,0-2.15-5.07-1.04-9.67,2.14-13.45,2.68-3.19,6.36-5.33,10.8-5.21.09.19.18.37.26.56-1.27.6-2.5,1.3-3.81,1.78-3.62,1.34-6.36,3.69-7.74,7.23-1.2,3.08-1.96,6.33,1.13,9.12-.19.11-.43.17-.44.26-.26,2.26-2.11,1.23-3.02,1.14-4.06-.41-7.8.36-11.46,2.06-3.59,1.66-5.27,4.71-6.57,8.14-.32.85-.83,1.64-1.36,2.68-1.09-1.28-1.94-2.35-2.87-3.34-1.35-1.44-2.66-2.94-4.18-4.19-2.84-2.34-6.06-2.49-9.28-.85-2.24,1.14-4.14,2.74-5.38,5-.32.57-.7,1.2-1.23,1.54-.37.24-1.02.05-1.5.05-.49-2.27-.94-4.35-1.4-6.43-1-4.49-5.89-7.52-9.8-7.35-2.59.11-4.84.75-6.76,2.53-.3.28-1.04.32-1.47.17-.38-.14-.85-.72-.83-1.07.02-.32.62-.69,1.03-.87,1.71-.76,3.39-1.68,5.18-2.14,3.58-.9,6.81.23,9.88,2.1,3.35,2.04,4.74,5.23,5.53,8.83.05.21.16.41.28.73Z"/>
    <path class="cls-1" d="M418.68,340.29c-.68-1.26-1.14-2.22-1.69-3.11-1.61-2.57-1.49-4.06.64-6.24,1.44-1.48,2.84-3.14,5.07-3.31,1.41-.11,2.84.16,4.27.3.13.01.35.32.33.46-.02.14-.28.33-.45.35-1.03.14-2.07.19-3.09.38-2.84.51-4.56,2.41-5.79,4.82-.19.37-.1.98.05,1.42.36,1.01.74,2.03,1.29,2.95.71,1.18,1.46,2.28.32,3.89-1.19,0-2.64-.1-4.06.02-2.84.24-5.34,2.66-6.19,5.84-.03.13-.02.27-.05.4-.52,2.13-.51,2.09,1.69,2.6.67.15,1.28.59,1.88.87-.4,2.05-1.36,3.27-2.95,3.37-1.34.08-2.36-.7-2.9-1.97-1.74.54-4.12,3.51-3.91,5.21.11.88.74,1.77,1.33,2.5.49.61,1.27.98,2,1.52-.32.35-.57.62-.89.97-.8-.44-1.72-.78-2.42-1.37-2.6-2.19-2.82-5.34-.47-7.79,1.17-1.21,2.63-2.14,3.92-3.24.28-.25.5-.72.52-1.1.12-2.59,1.48-4.75,2.83-6.74,1.19-1.75,3.2-2.87,5.57-2.86.9,0,1.79-.08,3.17-.14Z"/>
    <path class="cls-1" d="M177.54,349.34c.15.71.37,1.3.37,1.89.03,3,.1,6.01-.02,9.01-.17,4.04-.48,8.08-.78,12.12-.02.31-.39.81-.63.83-.37.03-1.02-.18-1.12-.45-.42-1.12-.84-2.27-.97-3.45-.37-3.23-.72-6.47-.82-9.72-.06-2.12-.02-4.36.63-6.33.43-1.29,1.68-2.45,2.54-3.68.08-.11.33-.1.8-.23ZM176.06,355.25h-.5v11.83c.17,0,.33,0,.5,0v-11.83Z"/>
    <path class="cls-1" d="M194.82,368.48c-1.25-.23-.25-1.21-.39-1.98-.23.12-.43.31-.63.31-.58,0-1.16-.1-1.75-.15.05-.44-.06-.98.16-1.3,1.62-2.41,3.29-4.79,4.96-7.16,1-1.42,1.93-2.91,3.08-4.2,1.26-1.41,2.7-2.69,4.18-3.88.41-.33,1.23-.16,1.86-.21.03.63.33,1.41.06,1.86-1.22,2.02-2.57,3.96-3.92,5.9-2.5,3.59-5.04,7.16-7.61,10.81ZM195.31,364.81c2.78-3.8,5.48-7.48,8.17-11.15-.1-.07-.19-.13-.29-.2-2.26,1.61-7.53,9.12-7.88,11.36Z"/>
    <path class="cls-1" d="M238.71,342.59c-1.21,1-2.53,1.9-3.61,3.03-1.29,1.35-2.43,2.84-3.53,4.35-1.48,2.04-2.85,4.15-4.27,6.23-.23.33-.39.82-.7.96-.42.19-.96.11-1.45.15.05-.41-.03-.9.17-1.21,1.2-1.82,2.39-3.64,3.71-5.37,1.54-2.01,3.16-3.97,4.84-5.87,1.09-1.23,2.28-2.39,3.53-3.47.83-.72,1.78-1.36,2.78-1.83.97-.47,1.84.18,1.54,1.19-.38,1.25-.95,2.53-1.76,3.54-1.91,2.36-4.02,4.56-6.03,6.84-.32.37-.5.87-.84,1.21-.3.3-.73.45-1.11.67-.06-.47-.34-1.07-.15-1.37.62-.98,1.38-1.88,2.14-2.77,1.46-1.69,2.97-3.34,4.43-5.03.25-.28.38-.66.57-1-.09-.09-.17-.17-.26-.26Z"/>
    <path class="cls-1" d="M559.02,316.68c-.34.64-.55,1.23-.92,1.69-1.9,2.34-3.77,4.7-5.79,6.93-2.72,3.01-5.55,5.93-8.37,8.86-.21.22-.82.38-1.02.24-.31-.21-.67-.78-.58-1.05.39-1.13.81-2.29,1.46-3.28,1.79-2.72,3.59-5.45,5.6-8.02,1.31-1.67,2.78-3.38,4.54-4.48,1.16-.72,2.86-.83,4.32-1.23.13-.04.32.13.76.33ZM554.09,320.3c-.13-.11-.26-.21-.39-.32-2.53,3.04-5.05,6.08-7.58,9.12.13.11.26.21.39.32,2.53-3.04,5.05-6.08,7.58-9.12Z"/>
    <path class="cls-1" d="M560.09,342.36c-.82-.97.58-1.09.97-1.77-.25-.05-.53-.03-.68-.16-.44-.38-.84-.81-1.25-1.22.32-.31.58-.79.96-.91,2.79-.84,5.6-1.62,8.41-2.39,1.68-.46,3.35-1.02,5.07-1.29,1.88-.29,3.8-.37,5.71-.36.53,0,1.05.66,1.57,1.01-.38.51-.65,1.3-1.15,1.47-2.23.79-4.52,1.44-6.81,2.08-4.23,1.19-8.48,2.34-12.8,3.53ZM562.82,339.84c4.58-1.17,9.02-2.31,13.45-3.44-.03-.11-.06-.23-.09-.34-2.77-.18-11.65,2.28-13.36,3.78Z"/>
    <path class="cls-1" d="M610.54,350.11c-1.58,0-3.18-.13-4.73.06-1.86.22-3.7.66-5.51,1.13-2.45.64-4.86,1.4-7.29,2.11-.39.11-.82.39-1.16.3-.45-.12-.81-.52-1.21-.8.3-.28.55-.71.9-.82,2.09-.65,4.18-1.3,6.31-1.8,2.48-.58,4.98-1.06,7.5-1.47,1.63-.27,3.29-.4,4.95-.45,1.1-.03,2.24.08,3.31.34,1.05.26,1.31,1.3.42,1.89-1.09.73-2.35,1.36-3.63,1.62-2.98.62-6.02.98-9.04,1.47-.48.08-.94.35-1.42.4-.42.04-.86-.12-1.28-.18.25-.4.42-1.04.76-1.16,1.11-.37,2.27-.58,3.43-.78,2.21-.38,4.43-.7,6.64-1.08.37-.06.72-.27,1.08-.41-.01-.12-.02-.24-.03-.36Z"/>
    <g>
      <path class="cls-1" d="M225.06,451.63c-.73.48-1.36.97-2.07,1.31-.2.1-.75-.15-.88-.38-.12-.22,0-.72.19-.94.65-.72,1.42-1.34,2.08-2.06,1.89-2.09,3.75-4.21,6.25-5.6.57-.32,1.26-.53,1.91-.55,1.26-.04,1.85,1.03,1.01,1.96-1.27,1.41-2.74,2.64-4.15,3.94-.77.71-1.48,1.51-2.37,2.03-.54.33-1.35.22-1.97.3Z"/>
      <path class="cls-1" d="M237.41,460.52c-2-.69-4.07-1.41-6.14-2.14-.43-.15-.88-.29-1.23-.55-.72-.53-1.38-1.13-2.07-1.7.25-.27.45-.65.76-.78.52-.2,1.14-.15,1.66-.35,2.87-1.09,7.2-.13,9.28,2.09.21.23.44.45.68.66.75.66.73,1.47-.17,1.88-.8.37-1.68.55-2.77.89ZM238.55,458.7c-1.69-2.25-5.16-3.09-8.03-1.98,2.68.88,4.95,2.49,8.03,1.98Z"/>
    </g>
    <g>
      <path class="cls-1" d="M479.71,413.82c-.08.86-.09,1.66-.27,2.42-.05.22-.59.49-.85.44-.25-.04-.57-.45-.62-.74-.16-.96-.16-1.94-.32-2.9-.46-2.77-.95-5.54-.48-8.35.11-.64.37-1.31.76-1.82.76-1,1.97-.79,2.18.45.31,1.87.35,3.78.49,5.68.08,1.04.25,2.09.11,3.1-.09.62-.68,1.18-1,1.71Z"/>
      <path class="cls-1" d="M494.43,409.83c-1.8,1.11-3.66,2.27-5.53,3.41-.38.24-.78.5-1.2.61-.86.23-1.75.36-2.63.53-.05-.36-.23-.76-.13-1.08.17-.53.59-.98.76-1.5.95-2.91,4.41-5.65,7.46-5.87.31-.02.63-.06.94-.11.99-.17,1.61.36,1.37,1.31-.21.85-.62,1.65-1.04,2.7ZM493.72,407.81c-2.82-.1-5.66,2.05-6.59,4.97,2.37-1.53,5.06-2.27,6.59-4.97Z"/>
    </g>
    <g>
      <path class="cls-1" d="M342.27,370.02c.36,1.18.78,2.25.95,3.34.05.31-.55.91-.95.97-.37.05-1.04-.34-1.26-.7-.75-1.2-1.28-2.51-2.02-3.71-2.15-3.48-4.34-6.94-5.22-10.88-.2-.89-.2-1.91.06-2.76.51-1.67,2.31-1.92,3.27-.36,1.45,2.34,2.56,4.87,3.78,7.32.67,1.34,1.49,2.67,1.85,4.07.22.87-.29,1.87-.46,2.72Z"/>
      <path class="cls-1" d="M360.55,358.22c-1.89,2.27-3.85,4.62-5.83,6.97-.4.48-.81,1.01-1.34,1.34-1.08.68-2.24,1.25-3.37,1.87-.27-.46-.73-.91-.77-1.37-.06-.78.29-1.56.24-2.33-.27-4.28,3.05-9.46,7.17-11.09.43-.17.84-.35,1.25-.56,1.28-.66,2.44-.23,2.62,1.13.16,1.22.03,2.46.03,4.05ZM358.46,355.85c-3.98,1.11-6.75,5.23-6.45,9.5,2.46-3.07,5.79-5.25,6.45-9.5Z"/>
    </g>
    <g>
      <path class="cls-1" d="M449.75,401.71c.31.81.65,1.53.84,2.29.05.22-.31.7-.57.77-.24.07-.71-.15-.88-.39-.57-.79-1.01-1.67-1.57-2.46-1.64-2.29-3.31-4.55-4.14-7.28-.19-.62-.25-1.34-.13-1.97.24-1.23,1.42-1.57,2.15-.55,1.11,1.54,2,3.24,2.96,4.88.53.9,1.15,1.77,1.48,2.74.2.6-.08,1.36-.14,1.98Z"/>
      <path class="cls-1" d="M461.19,391.68c-1.12,1.78-2.28,3.64-3.45,5.48-.24.38-.47.79-.81,1.08-.67.58-1.41,1.09-2.13,1.63-.21-.3-.54-.58-.59-.91-.08-.55.1-1.13.02-1.68-.44-3.02,1.45-7.01,4.09-8.54.27-.16.54-.33.79-.51.81-.58,1.61-.38,1.81.57.18.85.17,1.75.27,2.88ZM459.65,390.18c-2.58,1.14-4.17,4.32-3.71,7.34,1.45-2.41,3.53-4.25,3.71-7.34Z"/>
    </g>
    <path class="cls-1" d="M305.61,343.76c.26,1.39.55,2.75.76,4.12.29,1.93-.61,3.45-2.04,4.58-.49.39-1.44.41-2.13.29-.83-.14-1.03-.92-.93-1.7.28-2.22.58-4.43.88-6.65.02-.18.08-.35.15-.51.2-.44.41-.88.62-1.31.21.58.61,1.17.6,1.75-.04,2.03-.22,4.05-.18,6.09,1.5-1.14,1.2-2.65,1.1-4.1-.03-.44-.19-.88-.25-1.32-.14-.96.15-1.52,1.43-1.22Z"/>
    <path class="cls-1" d="M190.63,442.56c.64-2.42,1.06-4.63,1.83-6.71.67-1.83,2.29-1.85,3.55-.34,1.14,1.36,1.12,2.72.48,4.25-.35.82-.46,1.75-.88,2.52-.19.35-.89.67-1.31.61-.6-.08-.98-.52-.61-1.29.53-1.08,1.04-2.19,1.34-3.34.13-.51-.28-1.16-.45-1.75-.32.44-.8.84-.92,1.33-.4,1.56-.69,3.14-.98,4.72-.12.62.17,1.6-.88,1.4-.47-.09-.79-.92-1.16-1.39Z"/>
    <path class="cls-1" d="M294.14,318.03c-.57.14-.87.28-1.16.27-1.55-.08-2.96.88-3.44,2.4-.29.93-.67,1.85-.84,2.8-.1.53.15,1.12.24,1.68.66-.26,1.59-.33,1.93-.81.94-1.35,1.62-2.87,2.63-4.73.59.65,1,1.1,1.3,1.42-.58.62-1,.95-1.28,1.38-.6.95-.99,2.06-1.71,2.89-.54.63-1.41,1.17-2.22,1.33-2.17.44-3.31-.83-2.72-2.96.51-1.87.75-3.83,2.48-5.21,1.39-1.11,3.37-1.6,4.79-.46Z"/>
    <path class="cls-1" d="M183.21,446.61c-.22.38-.44.77-.66,1.15-.3-.29-.66-.54-.89-.88-1.72-2.43-1.56-5.2-1.56-7.95,2.72-.13,4.95,2.27,4.86,4.95-.03.96.12,1.93.21,3.08-.62.44-.69.44-2-.32-.02-.94.03-1.88-.08-2.81-.11-.95-.38-1.87-.58-2.81-.19.04-.37.09-.56.13.34,1.83.03,3.8,1.26,5.46Z"/>
    <g>
      <path class="cls-1" d="M409.78,494.71c.4.97.72,1.74,1.02,2.52,2.33,5.86,2.88,11.99,2.97,18.23.07,4.55.63,9.1.71,13.66.06,3.4-.31,6.81-.46,10.22-.07,1.43-.09,2.86-.13,4.28-.01.49.1,1.02-.06,1.46-.15.43-.56.76-.86,1.14-.34-.33-.94-.64-.98-1.01-.16-1.29-.22-2.6-.15-3.89.17-3.32.53-6.64.63-9.97.06-2-.26-4.02-.39-6.03-.12-1.79-.25-3.59-.31-5.38-.16-4.14-.18-8.28-.46-12.41-.12-1.76-.64-3.5-1.11-5.22-.62-2.27-1.37-4.51-2.08-6.76-.12-.38-.31-.73-.49-1.14-1.17.19-1.09,1.07-1.03,1.76.18,2.15.36,4.3.71,6.43.36,2.12,1.01,4.18,1.39,6.3.55,3.04,1.02,6.09,1.43,9.15.27,2.04.48,4.09.53,6.14.04,2.11-.13,4.22-.26,6.33-.02.38-.23.79-.46,1.11-.2.29-.54.48-.82.72-.23-.34-.64-.67-.65-1.02-.1-3.48-.06-6.96-.21-10.43-.1-2.32-.3-4.66-.71-6.94-.56-3.17-1.51-6.27-2.02-9.44-.5-3.07-.65-6.2-.96-9.44-.61-.24-.96.02-1.05.86-.38,3.24-.7,6.48-1.24,9.69-.75,4.5-.21,8.88.73,13.28.4,1.88.61,3.8.77,5.71.05.61-.33,1.25-.51,1.88-.38-.11-.97-.11-1.09-.35-.38-.8-.73-1.66-.84-2.53-.48-3.73-.99-7.47-1.27-11.22-.36-4.71.71-9.32,1.25-13.97.09-.79.16-1.58,0-2.43-.59,2.25-1.28,4.48-1.75,6.75-.84,4.07-1.58,8.15-2.29,12.24-.25,1.46-.36,2.95-.44,4.43-.13,2.68-.11,5.36-.33,8.03-.07.79-.73,1.54-1.11,2.31-.13-.02-.26-.03-.4-.05-.14-.7-.43-1.42-.4-2.11.24-4.81.3-9.64.91-14.4.55-4.28,1.69-8.5,2.61-12.73.35-1.6.82-3.16,1.25-4.78-1.43-.37-2.15-.08-2.7,1.21-2.36,5.47-4.13,11.07-4.8,17.01-.55,4.82-1.32,9.62-1.81,14.44-.34,3.32-.3,6.68-.58,10.01-.47,5.59-1.08,11.17-1.57,16.76-.31,3.63-.39,7.29-.76,10.92-.72,7.02-1.56,14.03-2.37,21.05-.12,1.02-.44,2.02-.56,3.05-.22,1.83-.63,2.15-2.63,1.73.07-.64.04-1.32.23-1.94,1.74-5.69,2.07-11.59,2.6-17.46.58-6.28,1.17-12.56,1.68-18.84.51-6.19.88-12.38,1.4-18.57.36-4.3.85-8.58,1.32-12.87.41-3.7.77-7.41,1.37-11.09.42-2.55,1.18-5.05,1.87-7.55.49-1.77,1.04-3.52,1.67-5.24.37-.99.95-1.91,1.43-2.86.15-.3.35-.62.37-.94.11-1.56.2-3.12.24-4.68.02-.86-.09-1.73-.13-2.53-.43-.56-1.08-1.1-1.33-1.78-.99-2.68-1.92-5.38-2.75-8.11-1.48-4.88-2.86-9.78-4.3-14.67-.26-.87-.82-1.42-1.64-1.91-1.8-1.09-3.74-2.15-5.14-3.66-2.14-2.32-4.66-3.01-7.62-2.88-4.07.18-8.16.11-12.19.59-2.97.36-5.83,1.53-8.77,2.18-2.48.54-4.27,1.58-5.43,4.02-.81,1.7-2.35,3.1-3.71,4.5-1.34,1.38-2.92,2.54-4.29,3.89-.45.44-.65,1.19-.84,1.83-.95,3.18-1.81,6.39-2.81,9.55-.92,2.89-1.98,5.73-2.97,8.59-.1.3-.13.63-.29.9-.51.85-.22,1.55.15,2.4.55,1.28.74,2.71,1.25,4.01.52,1.3,1.05,2.68,1.92,3.75,2.63,3.24,3.95,6.95,4.6,10.98.5,3.09,1.1,6.17,1.58,9.26.26,1.67.33,3.36.55,5.04.35,2.66.73,5.32,1.13,7.97.62,4.12,1.22,8.24,1.94,12.35.65,3.7,1.41,7.39,2.19,11.07,1.12,5.3,2.43,10.57,3.42,15.89.75,4.03,2.16,7.84,3.41,11.71.45,1.4.68,2.87,1.1,4.29.23.77.53,1.55,1,2.19.39.54,1.04.9.14,1.46-.73.46-1.57.75-2.14-.16-.43-.67-.72-1.45-.94-2.22-.6-2.07-1.13-4.15-1.69-6.23-1.25-4.63-2.61-9.22-3.74-13.88-1.12-4.62-2.13-9.27-2.99-13.95-1.18-6.4-2.22-12.83-3.21-19.26-.53-3.4-.73-6.86-1.26-10.26-.67-4.34-1.57-8.65-2.28-12.98-.49-2.98-.9-5.99-2.37-8.67-1-1.82-2.31-3.49-3.55-5.17-.15-.21-.71-.24-1.04-.17-.52.11-1.01.37-1.65.62.59,1.29,1.18,2.57,1.75,3.86.5,1.14.97,2.3,1.48,3.44,2.01,4.57,3.46,9.32,4.5,14.18.61,2.83.72,5.76.99,8.65.03.3-.34.89-.55.91-.38.02-.92-.19-1.13-.49-.29-.42-.41-1-.47-1.52-.42-4.01-1.13-7.94-2.05-11.87-1.02-4.36-3.49-8.11-4.58-12.41,1.3,6.92,2.56,13.82,3.35,20.75-1.15.53-1.71.13-1.85-.7-.53-3.04-.94-6.11-1.47-9.15-.47-2.69-1.09-5.36-1.56-8.06-.36-2.03-.57-4.09-.87-6.13-.05-.33-.18-.65-.45-.9-.1,1.34-.25,2.67-.28,4.01-.05,2.87-.17,5.74,0,8.6.22,3.88.72,7.75,1,11.63.07.94-.27,1.9-.44,2.94-2.18-1.22-1.81-3.19-1.9-4.81-.32-5.26-.49-10.53-.57-15.8-.03-2.08.33-4.18.53-6.33-1.68.78-2.67,19.97-1.55,27.36-1.17-.22-2.23-1.45-2.23-2.85,0-4.53,0-9.05.13-13.57.06-2.44.36-4.88.55-7.19-2.48,6.74-2.68,13.94-3.24,21.37-.48-.33-.93-.48-1.05-.76-.6-1.51-.92-3.09-.76-4.73.26-2.73.32-5.49.82-8.18.45-2.39,1.42-4.67,2.11-7.02.36-1.22.61-2.46.91-3.7-.15-.08-.3-.16-.45-.24-.3.3-.68.56-.87.91-1.98,3.55-3.1,7.38-3.97,11.35-.98,4.46-1.38,8.94-1.65,13.45-.22,3.57-.33,7.15-.44,10.72-.07,2.09-.12,4.18-.06,6.26.1,3.18.27,6.35.51,9.52.26,3.52.58,7.04.95,10.55.36,3.5.85,6.99,1.2,10.49.21,2.12.31,4.26.39,6.39.12,2.99.03,6.01.32,8.98.12,1.2.26,1.98-1.08,2.36-.84.24-1.11.04-1.11-.88,0-4.09-.02-8.18-.18-12.27-.14-3.58-.29-7.18-.8-10.72-.86-5.9-1.75-11.78-1.85-17.75-.07-3.9-.02-7.8-.02-11.7,0-3.9-.13-7.81.07-11.7.25-4.97.87-9.91,1.94-14.81.8-3.67,2.21-7.07,3.58-10.52.42-1.06.26-2.35.29-3.54.03-1.33,0-2.67-.05-4.01,0-.25-.19-.48-.23-.73-.09-.55-.14-1.1-.25-2-1.64-1.73-3.77-3.7-5.57-5.94-1.55-1.93-3.04-4.04-3.93-6.32-.92-2.33-1.25-4.93-1.53-7.45-.38-3.43-.55-6.89-.66-10.34-.09-2.85-.19-5.73.12-8.56.27-2.49,3.1-3.69,5.47-2.64.28.12.54.28.83.44.2-2.43.51-4.78.51-7.14,0-.82-.93-1.48-.9-2.58.06-3.05-.04-6.11-.23-9.15-.18-2.91-.58-5.81-.85-8.72-.26-2.78-.53-5.55-.71-8.33-.21-3.32-.33-6.64-.5-9.96-.16-3.04-.27-6.08-.54-9.11-.12-1.41-.55-2.8-.85-4.19-.14-.65-.1-1.08.75-1.25,2.83-.56,5.63-1.31,8.47-1.79,4.28-.73,8.59-1.31,12.89-1.94,1.52-.22,3.05-.41,4.58-.56,5.07-.49,10.14-1.05,15.23-1.42,4.91-.36,9.84-.61,14.77-.71,3.48-.08,6.98.14,10.47.27,6.89.25,13.79.51,20.68.81,4.74.21,9.48.45,14.21.79,3.43.24,6.87.53,10.27,1.02,1.99.28,3.92,1.03,5.89,1.49,1.49.35,3.02.53,4.52.85,1.29.27,2.47,1.04,3.92.4.59-.26,1.31,0,1.27,1.03-.06,1.66.03,3.33.05,5,.08,4.79.21,9.58.21,14.37,0,2.89-.25,5.78-.29,8.68-.06,4.55-.97,9.08-.03,13.66.37,1.81.04,3.75.08,5.63.06,2.5.22,5,.24,7.5.02,2.18-.05,4.36-.19,6.53-.11,1.69-.54,1.72-2.13,1.64-2.78-.14-5.59.02-8.38.14-.26.01-.64.58-.72.94-.68,3.2-1.08,6.48-1.99,9.61-1.07,3.68-2.29,7.37-3.97,10.81-1.33,2.74-3.41,5.11-5.2,7.63-.65.91-1.49,1.69-2.06,2.64-.19.32.04,1.07.31,1.46,1.07,1.53,1.24,3.2,1.1,4.98-.02.33.23.85.52,1.02,2.41,1.42,3.43,3.44,3.38,6.25-.06,3.68.05,7.37.33,11.03.24,3.07.87,6.12,1.24,9.18.36,3.01.66,6.04.9,9.06.3,3.81.53,7.62.76,11.43.08,1.35.07,2.71.09,4.06.06,5.27.32,10.55.12,15.81-.24,6.56-.76,13.12-1.36,19.66-.33,3.58-1.26,7.11-.94,10.75.05.62.24,1.24.23,1.86-.01.62-.1,1.27-.34,1.83-.1.23-.94.43-1.05.31-.38-.44-.82-1.02-.81-1.55.07-3.28.19-6.56.44-9.84.26-3.46.77-6.9,1.01-10.37.38-5.53.9-11.07.85-16.61-.05-6.98-.61-13.95-.95-20.92-.11-2.29-.1-4.6-.33-6.88-.55-5.4-1.25-10.79-1.82-16.19-.21-1.96-.26-3.93-.35-5.9-.12-2.77-.17-5.54-.31-8.31-.06-1.3-1.79-2.76-3.85-3.21ZM432.67,451.71c.03-.31.07-.61.07-.92.02-5.11.07-10.21.03-15.32-.03-3.65-.32-7.31-.25-10.96.11-5.56.72-11.1.32-16.69-.32-4.41-.08-8.86-.09-13.3,0-1.81-.22-2.09-1.94-2.51-2.45-.61-4.88-1.35-7.36-1.81-4.84-.88-9.69-1.84-14.58-2.33-4.99-.5-10.04-.49-15.07-.68-5.57-.21-11.15-.38-16.72-.57-3.21-.11-6.41-.29-9.62-.32-3.49-.03-6.98,0-10.47.13-4.34.16-8.68.38-13.02.67-2.8.19-5.59.49-8.37.83-2.37.29-4.71.84-7.08,1.02-6.1.47-12,1.8-17.88,3.4-1.07.29-1.28.7-1.09,1.78.43,2.51.79,5.05.93,7.58.18,3.43-.04,6.87.33,10.3.24,2.26.36,4.54.56,6.81.36,4.09.76,8.17,1.09,12.27.16,1.94.21,3.89.31,5.84.06,1.13.11,2.25.19,3.8,1-1.98,2.54-2.56,4.14-2.73,2.23-.24,2.29,1.93,3.2,3.32,1.4-2.58,3.81-3.56,6.38-4.3.71-.2,1.5-.34,1.65.74.15,1.09.34,2.18.34,3.27,0,1.09-.19,2.18-.31,3.39.76-.31,1.4-.52,2-.82.96-.49,1.61-.12,1.99.73.28.64.53,1.35.55,2.03.07,2.68-.06,5.37.09,8.04.07,1.32.46,2.66.94,3.89.27.69.94,1.34,1.98.87.61-.28,1.29-.43,1.94-.58,3.86-.92,7.74-1.77,11.59-2.76,2.36-.61,4.62-1.64,7-2.09,3.41-.64,6.88-1.09,10.34-1.3,4.29-.26,8.6-.27,12.91-.24,2.78.02,5.57.34,8.35.4.57.01,1.5-.41,1.66-.85.8-2.18,1.62-4.39,2.03-6.67.66-3.71-.53-7.27-1.42-10.83-.38-1.53-.34-1.98,1.22-2.25,1.48-.26,3.03-.05,4.65-.05-.27-.88-.56-1.95-.93-2.98-.86-2.42.02-3.89,2.57-4.11,3.18-.27,5.88.52,7.46,3.58,1.88-2.33,5.49-2.09,7.05.43.37.6.64,1.28.91,1.94.47,1.14.91,2.29,1.36,3.44.18.45.38.9.59,1.41,2.8-2.48,6.46-1.97,7.54,1.45,1.41,4.49,2.12,9.1,1.33,13.8-.18,1.08.04,1.23,1.01,1.18,2.51-.16,5.03-.25,7.62-.37ZM392.42,433.58c.07.68.07,1.3.22,1.88.32,1.29.98,2.56,1.03,3.85.1,2.97.36,5.93-.55,8.92-.68,2.21-1.21,4.43-2.54,6.35-.19.28-.66.51-1,.51-1.02-.01-2.05-.14-3.07-.25-1.8-.18-3.59-.36-5.39-.55-.08.18-.16.36-.25.54,1.48,1.11,2.94,2.24,4.43,3.33.61.44,1.11,1.27,2.11.76.11-.06.55.27.65.5.74,1.71,1.58,3.41,2.12,5.19,1.13,3.67,2.04,7.41,3.14,11.09.84,2.83,1.68,5.68,2.8,8.41.95,2.32,2.52,3.01,4.99,2.73.67-.07,1.34-.14,2-.28,2.2-.46,4.73-.53,6.24-2.32,2.27-2.69,4.29-5.61,6.16-8.59,2.21-3.53,3.21-7.58,4.4-11.52,1.04-3.45,1.87-6.98,1.15-10.64-.03-.15.1-.33.15-.5.22-.64.62-1.27.64-1.92.07-2.24.17-4.5-.04-6.73-.2-2.18-.71-4.34-1.2-6.48-.2-.88-.72-1.68-1.85-1.7-1.12-.03-1.79.53-2.05,1.59-.17.69-.45,1.39-.43,2.08.04,1.83.17,3.66.35,5.49.28,2.9.06,5.74-.68,8.55-.2.75-.68,1.08-1.54.86-.96-.25-.64-.76-.55-1.42.3-2.26.59-4.54.64-6.82.09-4.71-1.19-9.21-2.5-13.69-.31-1.05-.73-2.15-1.4-2.99-.42-.53-1.42-.89-2.13-.84-.8.06-1.36.8-1.33,1.75.04,1.18-.08,2.39.09,3.55.74,5.01,1.58,10,2.36,15,.25,1.62-.61,2.52-1.95,2.02-1-6.26-1.89-12.42-3.02-18.54-.31-1.7-1.2-3.35-2.06-4.88-.8-1.42-3.08-1.89-4.49-1.19-.68.33-1.01,2.11-.62,3.22.49,1.37.97,2.74,1.43,4.11,1.68,5,1.71,10.22,2.07,15.39.08,1.06-.33,1.55-1.32,1.53-1.09-.03-.9-.86-.92-1.57-.11-6.37.28-9.1-2.25-13.38-1.16-1.96-1.91-2.6-4.01-2.39ZM319.79,492.19c0,.21.02.41.03.61,2.69-.5,5.39-.92,8.04-1.57.68-.17,1.37-.96,1.72-1.64.42-.83.39-1.87.72-2.76.86-2.39,1.8-4.75,2.73-7.11.56-1.41,1.29-2.76,1.7-4.21.33-1.17.65-2.55.31-3.63-.26-.84-.29-1.34.24-1.87,1.84-1.84,3.72-3.64,5.59-5.45,1.68-1.63,3.4-3.21,4.45-5.66-.6.13-.98.19-1.35.29-2.64.64-5.27,1.31-7.91,1.92-2.07.48-3.86-.55-4.53-2.66-.93-2.94-1.31-5.94-.91-9.03.16-1.23-.01-2.5-.04-3.95-1.92.68-2.65,2.07-3.04,3.34-.78,2.5-1.24,5.12-1.68,7.71-.39,2.31-.58,4.66-.86,6.94-1.09.16-1.83-.02-1.86-1.05-.07-2.01-.36-4.08,0-6.02.7-3.82,1.73-7.58,2.73-11.34.53-1.98,1.09-3.91.66-6-3.38.85-6.03,4.52-6.17,8.37-.05,1.25-.31,2.49-.36,3.74-.09,2.19-.2,4.38-.05,6.56.05.82.59,1.62-.32,2.2-.7.46-.65.96-.39,1.6.13.33.31.77.2,1.04-.2.49-.53,1.12-.96,1.28-.33.12-1.21-.31-1.3-.64-.27-.97-.43-2.03-.33-3.03.32-3.25.75-6.5,1.19-9.74.42-3,.68-6-.22-8.96-.18-.59-.62-1.47-1.02-1.52-.51-.06-1.18.52-1.65.95-.37.35-.68.87-.79,1.37-.33,1.43-.7,2.88-.77,4.34-.13,2.64.02,5.28-.08,7.92-.1,2.69.48,5.2,1.55,7.65.38.87.4,1.9.59,2.83-1.41.38-2.09-.23-2.38-1.04-.92-2.52-1.89-5.01-1.96-7.78-.03-1.07-.6-2.24-1.25-3.13-.39-.53-1.46-.92-2.12-.8-.47.08-.98,1.08-1.1,1.74-.19,1.03-.13,2.12-.08,3.18.26,5.38.55,10.76.84,16.14.15,2.77.93,5.34,2.24,7.81,1.65,3.11,4.5,5.13,6.72,7.72.72.85,1.59,1.57,2.39,2.35.3.3.58.63.87.94ZM319.03,499.22c.6.11,1.35.43,2.04.35,2.62-.32,5.23-.77,7.84-1.16,1.83-.28,2.39-1.13,1.88-2.91-.17-.6-.32-1.22-.58-1.79-.35-.8-.87-1.11-1.84-.73-2.44.96-4.94,1.62-7.64,1.33-1.43-.15-1.73.25-1.71,1.69.01,1.02,0,2.05,0,3.23ZM397.63,491.56c-.03,1.96.19,2.21,2.18,1.95,2.88-.38,5.74-.91,8.63-1.28,1.1-.14,1.54-.6,1.37-1.67-.41-2.54-1.11-3.63-2.23-3.46-.04,0-.09.02-.13.03-2.5.49-4.99,1.01-7.5,1.45-2.16.37-2.2.36-2.29,2.58,0,.14-.01.27-.02.4Z"/>
      <path class="cls-1" d="M343,570.06c-.37.41-.74.82-1.11,1.23-.42-.44-1.08-.82-1.21-1.33-.91-3.64-1.8-7.28-2.5-10.96-.54-2.85-.82-5.76-1.17-8.64-.04-.37.09-.82.29-1.14.23-.38.62-.66.94-.98.2.36.52.71.59,1.09.47,2.87.79,5.76,1.35,8.61.7,3.53,1.59,7.02,2.39,10.54.1.43.14.88.21,1.31.08.09.15.18.23.27Z"/>
      <path class="cls-1" d="M317.67,546.36c-.33-1.23-.63-2.23-.87-3.25-.88-3.68-.53-7.41-.54-11.13,0-.45.04-.9,0-1.35-.08-.78.37-1.17,1.03-1.04.35.07.83.63.86.99.11,1.39,0,2.8.07,4.19.12,2.2.4,4.39.48,6.58.05,1.43-.12,2.87-.24,4.3-.02.18-.35.33-.78.7Z"/>
      <path class="cls-1" d="M392.1,557.49c.3-4.11.55-7.69.83-11.27.03-.44.11-.96.37-1.27.37-.42.93-.68,1.42-1,.08.49.28.99.22,1.46-.32,2.59-.75,5.16-.62,7.78.06,1.24-.09,2.5-.04,3.74.04,1.07-.84,1.18-1.47,1.43-.14.06-.64-.78-.72-.89Z"/>
      <path class="cls-1" d="M404.96,548.04c-.7.05-1.31.09-1.89.12,0-1.71,0-3.31,0-4.91,0-1.11,0-2.23,0-3.34-.01-.7-.3-1.52.76-1.72,1.1-.2,1.14.56,1.14,1.33,0,2.82,0,5.63,0,8.52Z"/>
      <path class="cls-1" d="M328.42,540.99c.59,3.33,2.52,6.29,1.99,9.83-1.11.15-1.65-.32-1.88-1.3-.52-2.21-1.06-4.41-1.62-6.6-.28-1.1.17-1.69,1.51-1.92Z"/>
      <path class="cls-1" d="M396.59,530.82c-.15,1.87-.3,3.73-.45,5.6-.06.76-.07,1.52-.23,2.26-.07.35-.39.83-.68.89-.27.06-.75-.3-.92-.6-.24-.4-.43-.93-.37-1.37.29-2.03.62-4.05,1.05-6.05.09-.42.7-.74,1.06-1.1.18.12.35.25.53.37Z"/>
      <path class="cls-1" d="M338.41,543.17c-2.12.17-1.96-1.34-2.17-2.15-.39-1.49-.44-3.09-.51-4.64-.01-.3.53-.86.83-.87.34,0,.93.44.98.76.35,2.24.58,4.5.87,6.9Z"/>
      <path class="cls-1" d="M411.8,554.74c-.09-.93-.21-1.87-.25-2.8-.02-.52-.02-1.11.2-1.56.14-.29.7-.51,1.08-.51.21,0,.59.51.6.8.05,1.97.07,3.94,0,5.9-.01.37-.48.72-.74,1.08-.34-.34-.86-.63-.98-1.03-.17-.58-.04-1.24-.04-1.86.05,0,.1,0,.15,0Z"/>
      <path class="cls-1" d="M320.03,556.14c-1.72-.08-2.4-.82-2.5-2.24-.07-1.07-.28-2.14-.26-3.21,0-.44.46-.87.71-1.31.35.31.92.58,1,.95.41,1.87.7,3.77,1.05,5.81Z"/>
      <path class="cls-1" d="M401.65,530.51c.43-.42.81-1.1,1.3-1.2.92-.19.83.65.89,1.28.1.98.37,1.97.33,2.94-.02.48-.58.93-.89,1.39-.36-.44-.91-.83-1.04-1.33-.24-.9-.23-1.86-.33-2.8-.09-.1-.18-.19-.27-.29Z"/>
      <path class="cls-1" d="M408.72,536.16c.19-.81-.51-1.93.9-2.22.63-.13,1.06-.04,1.11.74.05.9.12,1.8.28,2.68.19,1.06-.47,1.16-1.25,1.31-.98.19-.9-.46-.95-1.04-.04-.49-.06-.99-.08-1.46Z"/>
      <path class="cls-1" d="M319.77,561.77c.45,1.24.92,2.38,1.24,3.57.1.38-.22.88-.34,1.33-.51-.19-1.25-.23-1.47-.59-.43-.69-.57-1.56-.8-2.36-.3-1.04.23-1.59,1.37-1.95Z"/>
      <path class="cls-1" d="M327.6,537.08c-1.37.54-1.79-.07-1.91-1-.1-.79-.04-1.61-.17-2.4-.18-1.09.22-1.59,1.66-1.53.14,1.61.28,3.26.42,4.92Z"/>
    </g>
    <g>
      <path class="cls-1" d="M99.9,370.96c-.91,2.6-1.88,5.18-2.72,7.8-.69,2.15-1.3,4.33-1.82,6.52-.18.78-.62,1.01-1.19.83-.29-.09-.56-.69-.58-1.08-.03-.56.15-1.15.3-1.71.48-1.81.99-3.61,1.46-5.42.87-3.35,2.41-6.41,4.04-9.43.24-.45,1.04-.86,1.55-.83.39.02.91.71,1.09,1.2.81,2.3-.2,4.38-.87,6.53-.54,1.72-.89,3.51-1.35,5.26-.07.25-.24.48-.37.72-.21-.2-.58-.39-.6-.61-.1-.78-.22-1.61-.07-2.36.4-1.97.95-3.91,1.42-5.86.11-.47.17-.95.25-1.43-.18-.04-.36-.09-.54-.13Z"/>
      <path class="cls-1" d="M83.09,354.63c-.22.64-.59,1.28-.62,1.94-.11,1.98-.07,3.98-.14,5.97-.01.41-.25.82-.38,1.23-.46-.3-1.3-.59-1.31-.9-.03-2.72-.03-5.46.2-8.17.09-1.08,1.19-1.68,2.29-1.75,1.14-.08,1.53.82,1.75,1.73.23.95.5,1.92.51,2.88.02,2.37-.12,4.73-.14,7.1,0,.9.15,1.81-.03,2.99-.4-.4-1.05-.74-1.16-1.21-.28-1.16-.42-2.37-.43-3.57-.02-2.46.08-4.93.11-7.39,0-.26-.19-.53-.29-.8-.12-.01-.23-.02-.35-.04Z"/>
      <path class="cls-1" d="M99.35,349.19s-.02-.35-.06-.66c-.27-2.44.56-3.48,2.95-4.06,1.78-.43,3.58-.94,4.61-2.71.11-.19.26-.41.44-.49.37-.17.77-.25,1.16-.36-.07.35-.09.73-.23,1.05-.82,1.85-2.28,3-4.19,3.59-3.3,1.02-2.71,1.49-2.98,4.57-.04.44-.05.88-.06,1.32-.02,1.32-.84,1.67-1.98,1.61-2.36-.13-2.64.1-2.94,2.39-.1.76-.13,1.54-.35,2.26-.09.29-.69.69-.91.62-.35-.12-.84-.61-.83-.92.08-1.24.32-2.47.52-3.7.25-1.59,1.18-2.41,2.73-2.41q1.97,0,2.1-2.1Z"/>
      <path class="cls-1" d="M130.58,411.21c-1.81-.46-3.59-1.13-5.43-1.3-1.57-.14-3.19.3-4.79.49-.22.03-.43.2-.64.18-.67-.06-1.33-.19-1.99-.28.47-.44.86-1.02,1.41-1.29,3.29-1.63,6.64-1.36,10-.18.59.21,1.27.22,1.81.5.63.32,1.45.72,1.67,1.29.34.9.14,1.77-.95,2.42-1.97,1.18-4.01,1.6-6.22,1.13-.4-.08-.7-.68-1.04-1.04.37-.22.77-.66,1.11-.62,1.76.22,3.41,0,4.96-.86.03-.15.06-.29.1-.44Z"/>
      <path class="cls-1" d="M129.72,357.59c-.78,1.16-1.36,1.95-2.58,2.35-1.74.57-3.46,1.35-4.97,2.36-.82.54-1.27,1.71-1.73,2.67-.4.84-.65,1.77-.85,2.68-.23,1.04-.86,1.37-1.84,1.37-2.92,0-2.98.06-3.6,2.86-.13.58.16,1.47-1.04,1.26-1.19-.21-.98-.89-.74-1.69.2-.68.27-1.4.48-2.08.56-1.82.98-2.09,2.91-2.03,2.12.07,2.67-.38,3.1-2.46.43-2.11,1.28-3.78,3.63-4.54,2.13-.69,4.11-1.83,6.16-2.74.22-.1.52-.01,1.08-.01Z"/>
      <path class="cls-1" d="M109.07,394.08c.98-.76,1.79-1.34,2.56-1.99.76-.64,1.46-1.35,2.09-2.15-2.65.28-4.67,1.78-6.86,2.95-.7.37-1.58.4-2.38.59-.07-.19-.15-.38-.23-.56.73-.52,1.48-1.02,2.19-1.57,2.49-1.96,5.3-3.22,8.41-3.79.5-.09,1.48.08,1.53.3.17.69.3,1.71-.08,2.16-1.36,1.6-2.89,3.06-4.44,4.49-.79.73-1.66.36-2.78-.42Z"/>
      <path class="cls-1" d="M145.92,387.59c.08.45.14.79.23,1.31-1.45.36-2.93.58-4.29,1.12-.79.32-1.74,1.02-1.99,1.77-.65,1.9-2.16,2.28-3.76,2.58-.92.17-1.91.29-2.82.15-1.04-.16-1.46.31-1.63,1.12-.18.85-.6,1.16-1.44.91-.9-.27-.54-.88-.39-1.42.15-.56.19-1.25.55-1.63.48-.49,1.2-.94,1.87-1.02,1.06-.11,2.15.09,3.22.17,1.24.09,2.25-.48,2.63-1.53,1.02-2.77,3.55-2.91,5.81-3.51.59-.16,1.26-.02,2.01-.02Z"/>
      <g>
        <path class="cls-1" d="M47.54,535.65c.75.87,1.4,1.61,2.09,2.41-1.06,2.93-2.13,5.93-3.22,8.91-1.29,3.54-2.53,7.1-3.94,10.6-1.12,2.79-2.5,5.47-3.7,8.22-1.07,2.45-1.9,5.02-3.15,7.37-1.52,2.85-3.34,5.55-5.12,8.25-.18.27-.97.15-1.48.2-.02-.39-.22-.94-.03-1.16,3.18-3.71,5.11-8.09,6.99-12.52,1.56-3.68,3.34-7.27,4.81-10.98,1.68-4.21,3.11-8.51,4.68-12.76.68-1.85,1.44-3.67,2.21-5.63-.85-.37-1.66-.75-2.49-1.06-1.73-.63-3.49-1.19-5.23-1.83-3.12-1.15-6.26-2.24-9.33-3.52-2.61-1.09-5.11-2.43-7.7-3.57-.46-.2-1.28-.15-1.68.13-1.93,1.37-3.45,3.13-4.56,5.24-2.06,3.93-4.03,7.9-6.21,11.75-1.54,2.73-3.36,5.31-5.08,7.94-.86,1.31-1.75,2.61-2.7,3.86-.96,1.28-.48,2.14.82,2.84-.05.12-.1.24-.16.36-1.1-.16-2.21-.29-3.29-.53-.09-.02-.16-.92.04-1.24,1.06-1.73,2.18-3.42,3.32-5.1,3.65-5.38,7.02-10.9,9.59-16.88,1.59-3.69,3.87-6.91,7.04-9.46.14-.11.36-.22.39-.37.4-1.81,1.56-1.51,2.84-.95,1.22-2.08,2.4-4.13,3.61-6.17.57-.95,1.11-1.94,1.79-2.81,2.83-3.66,4.68-7.79,6.25-12.11,1.11-3.06,2.63-5.96,3.89-8.96.77-1.81,1.34-3.71,2.13-5.52.61-1.39,1.46-2.68,2.11-4.06.31-.64.39-1.39.65-2.07.15-.41.37-.82.66-1.15,1.17-1.37,2.54-2.6,3.54-4.08,1.19-1.75,2.94-3.19,3.31-5.44.36-2.16.91-4.31,1.07-6.49.24-3.36.04-6.74,1.06-10.03.58-1.88,1.11-3.72,3.14-4.54-1.27-1.76-2.41-3.35-3.55-4.94-.86.48-1.72,1.35-2.62,1.39-2.54.1-4.69,1.4-7.05,2-2.21.56-4.22.34-6.35-.41-2.53-.9-3.19-3.04-3.95-5.13-.99-2.71.28-5.04,1.79-7.09,1.12-1.52,2.76-2.65,4.13-3.99.27-.26.34-.72.51-1.08.32-.66.47-1.66.99-1.92,3.9-1.91,7.1-4.69,10.32-7.54,1.85-1.63,2.66-3.66,3.63-5.7,2.08-4.37,4.12-8.75,6.26-13.09,1.58-3.21,3.32-6.35,4.93-9.55,1.18-2.34,3.25-3.79,5.25-5.3.93-.7,1.9-1.36,2.91-1.95.45-.26,1.02-.29,1.54-.42,0,.44,0,.89.03,1.33.01.2.06.43.17.58,1.59,2.25,3.21,4.48,4.79,6.73.56.8,1.19,1.62,1.51,2.52.35,1.02,1,1.17,1.87,1.09,2.83-.27,5.33.73,7.29,2.56,1.03.96,1.48,2.62,1.95,4.05.91,2.76.44,5.39-1.13,7.86-.18.28-.08.93.14,1.22,3,4.04,6.03,8.05,9.09,12.04.24.31.77.59,1.13.56.63-.06,1.22-.55,1.3.61.08,1.03-.1,1.3-1.28,1.51-2.02.37-3.95,1.24-5.88,1.99-2.52.98-4.95,2.28-7.54,3.03-4.37,1.27-8.81,2.31-13.26,3.25-2.42.51-4.93.61-7.41.91-.34.04-.67.16-1.28.31.8,1.16,1.47,2.14,2.22,3.23-.12.18-.32.49-.64.98.43.04.78.19.94.07.69-.51,1.31-1.1,1.96-1.65,1.29-1.08,2.87-.99,4.38-.86,1.3.11,2.26,1.33,2.39,2.86.09,1.17.54,1.63,1.75,1.61,4.02-.05,5.8,2.88,4.83,6.3-.06.21-.18.42-.21.64-.19,1.25-.37,2.41,1.24,3.06,1.68.69,2.93,1.94,2.74,3.91-.1,1.04-.61,2.04-.97,3.16,1.45.99,2.99,2.04,3.06,4.07.08,2.33-.08,4.63-2.14,6.23-.85.66-.82,1.12-.16,1.97,1.11,1.4,2.05,2.95,2.97,4.48.59.98.37,1.83-.61,2.56-1.33.99-2.51,2.19-3.87,3.14-1.87,1.31-3.78,2.58-5.78,3.68-2.11,1.17-3.12.95-4.18-1.15-1.13-2.27-2.58-2.92-5.05-2.26-2.23.59-4.18,1.58-6.07,2.81-.41.27-.95.35-1.44.52-.11-.17-.22-.34-.33-.51.62-.64,1.15-1.44,1.89-1.91,2.27-1.41,4.73-2.32,7.43-2.65.7-.09,1.42-.61,2-1.09,3.02-2.48,6.13-4.87,8.94-7.57,1.64-1.58,3.57-3.07,4.23-5.5.62-2.29-.08-4.11-2.21-5.17-1.36-.68-1.57-1.12-.58-2.23,1.98-2.24.59-4.25-1.63-5.19-1.83-.77-2.13-1.41-1.58-3.4.29-1.07.62-2.17.62-3.26.01-1.65-1.2-2.83-2.84-3.09-.13-.02-.27-.04-.41-.05-.95-.08-2.14.15-2.77-.34-.58-.45-.56-1.67-.81-2.55-.54-1.86-2.24-2.13-3.8-.59-2.69,2.65-5.36,5.32-8.87,6.92-.41.18-.83.34-1.25.47-2.66.81-5.19,2-6.35,4.62-.72,1.61-.8,3.52-1.02,5.32-.5,4.27-.06,8.65-1.74,12.77-.4.98-.78,2.04-.79,3.06,0,.65.63,1.36,1.11,1.94,1.52,1.83,3.07,3.62,4.67,5.38,1.23,1.35,2.44,2.75,3.84,3.92,1.81,1.5,2.26,2.89.98,4.96-1.01,1.64-2.33,2.99-4.45,3.25-.33.04-.76.44-.88.77-1,2.7-2.06,5.39-2.88,8.14-.81,2.73-1.39,5.53-2.02,8.31-1.18,5.23-2.31,10.47-3.51,15.7-.44,1.92-1.04,3.8-1.54,5.6ZM50.58,447.35c.76-.68,1.3-1.29,1.96-1.72,1.61-1.06,3.26-2.06,4.91-3.06,1.65-1,3.31-1.97,4.96-2.96.3-.18.57-.41.88-.57.57-.28,1.14-.68,1.75-.76,3.46-.43,6.94-.67,10.39-1.18,4.6-.68,9.17-1.55,13.53-3.26.99-.39,1.96-.83,3.04-1.29-6.68-13.26-15.22-25.14-23.72-37.25-.3.5-.54.87-.75,1.25-1.08,2.02-2.16,4.03-3.23,6.05-1.73,3.25-3.55,6.46-5.15,9.78-1.34,2.78-2.39,5.69-3.65,8.51-.48,1.09-1.02,2.21-1.81,3.08-1.11,1.23-2.4,2.33-3.73,3.33-2.36,1.78-4.78,3.49-7.24,5.14-.77.51-1,.88-.45,1.67,1.09,1.6,2.16,3.21,3.19,4.85,1.68,2.7,3.33,5.42,5.13,8.37ZM45.19,486.83c-.4.63-.94,1.29-1.29,2.05-1.3,2.84-2.58,5.69-3.79,8.57-1.5,3.6-2.82,7.28-4.41,10.83-1.2,2.69-2.61,5.31-4.12,7.85-1.88,3.16-3.99,6.19-5.94,9.31-.83,1.34-.56,2.11.82,2.79.92.45,1.88.83,2.85,1.2,4.92,1.88,9.87,3.7,14.76,5.66,1.16.47,1.46.06,1.68-.87.68-2.88,1.34-5.76,2.03-8.63,1.48-6.09,2.89-12.2,4.49-18.26,1.01-3.83,2.31-7.58,3.47-11.32-3.36-2.92-6.85-5.94-10.56-9.16ZM99.3,429.53c-.3-.39-.51-.68-.73-.96-1.58-2-3.28-3.93-4.73-6.02-2.53-3.67-4.99-7.39-7.33-11.18-2.74-4.42-5.27-8.98-8.01-13.41-1.5-2.43-3.23-4.72-4.93-7.2-.95.75-1.77,1.37-2.57,2.02-1.18.96-1.21,1.53-.31,2.76,2.9,3.98,5.78,7.97,8.64,11.97.67.94,1.2,1.99,1.84,2.95,1.7,2.56,3.53,5.03,5.11,7.66,2.53,4.2,4.88,8.51,7.37,12.73.2.34,1,.67,1.36.54,1.44-.51,2.81-1.21,4.3-1.88ZM35.57,442.04c.66-.45,1.23-1.02,1.92-1.26.41-.14,1,.23,1.51.37-.16.44-.19,1.04-.5,1.3-.68.57-1.51.97-2.27,1.45-1.41.9-1.46,1.26-.26,2.76.93-.62,1.84-1.35,2.86-1.86.49-.24,1.45-.3,1.75,0,.71.71-.19,1.04-.67,1.35-1.04.66-2.13,1.27-3.24,1.92,1.68,1.35,1.66,1.33,3.09.09.92-.8,1.85-1.58,2.84-2.3.31-.22.79-.19,1.21-.28.29,1.17-.02,1.81-1.04,2.28-.71.32-1.25.99-1.87,1.51.07.11.13.23.2.34,2.29-.7,4.58-1.4,7.16-2.19-2.6-4.14-5.02-8-7.41-11.82-2.44.69-5.26,4.15-5.28,6.33ZM68.88,445.07c-1.45.2-2.14-.49-2.63-1.5-.35-.72-.8-1.41-1.08-2.17-.42-1.13-1.15-.99-1.92-.52-1.38.83-2.72,1.72-4.05,2.62-1.52,1.03-3,2.1-4.63,3.25.92,1.18,1.79,2.21,2.56,3.3.94,1.33,1.92,1.37,3.46.81,3.23-1.19,5.93-2.97,8.29-5.78ZM86.24,476.31c-2.47,2.09-4.76,4.07-7.1,6-2.79,2.3-2.81,2.28-.71,5.1.03.04.05.1.08.11.51.1,1.04.31,1.52.24.46-.07.9-.4,1.3-.68,2.47-1.71,4.93-3.43,7.38-5.16.74-.53.66-1.24.22-1.88-.86-1.25-1.78-2.46-2.7-3.73ZM83.4,402.21c2.3,3.84,4.42,7.4,6.64,11.11,1.73-2.91,1.21-5.63-.18-8.19-1.28-2.37-3.68-2.74-6.47-2.92ZM48.9,487.36c1.48-1.61,2.91-3.18,4.48-4.88-.3-.29-.61-.59-1.06-1.02-.88.79-1.64,1.46-2.39,2.15-.79.72-1.56,1.45-2.36,2.2.5.59.88,1.03,1.33,1.56ZM47.08,485.28c1.53-1.73,2.97-3.35,4.47-5.05-.43-.4-.78-.72-1.17-1.08-1.53,1.7-2.97,3.3-4.42,4.91.46.5.73.79,1.12,1.21ZM50.2,488.57c.45.29.92.6,1.47.97,1.22-1.52,2.38-2.96,3.53-4.39-.88-1.56-4.08.67-5,3.42ZM58.59,488.68c-.81.68-1.57,1.29-2.29,1.94-1.23,1.11-1.16,2.01.12,2.84,1.02-1.22,2.04-2.44,3.11-3.73-.19-.22-.54-.61-.94-1.05ZM58.86,495.16c2.91-2.08,3.35-3.48,1.37-4.39-.34,1.48-2.98,2.16-1.37,4.39ZM57.21,487.12c-1.93.23-3.94,1.93-4.22,3.42-.04.23.04.59.2.71.14.11.58.06.7-.08,1.08-1.26,2.11-2.56,3.32-4.04Z"/>
        <path class="cls-1" d="M43.63,544.87c-2.9-.89-5.63-1.64-8.3-2.56-2.43-.84-4.83-1.79-7.16-2.85-1.36-.62-2.59-1.53-3.82-2.4-.22-.15-.27-.99-.16-1.05.42-.22,1.15-.51,1.41-.32,3.08,2.32,6.79,3.29,10.29,4.67,2.53.99,5.26,1.46,7.87,2.26.48.15.83.76,1.24,1.15-.44.35-.88.71-1.36,1.1Z"/>
        <path class="cls-1" d="M15.65,545.91c-.61,4.03-7.68,12.45-10.92,12.78,1-1.16,1.93-2.14,2.74-3.2,1.92-2.5,3.81-5.02,5.65-7.57.66-.91,1.25-1.82,2.53-2.02Z"/>
        <path class="cls-1" d="M40.15,548.69c-.08,1.58-.71,1.89-2.21,1.28-1.53-.62-3.16-1-4.74-1.52-.66-.22-1.28-.54-1.96-.83.6-1.19,1.22-1.44,2.36-1.01,2.09.79,4.26,1.37,6.54,2.08Z"/>
        <path class="cls-1" d="M22.83,544.51c.48-.67.96-1,1.9-.61,1.62.69,3.32,1.21,5.08,1.83-1.49,1.58-5.36.8-6.97-1.22Z"/>
        <path class="cls-1" d="M23.2,536.58c-1.13.98-2.08.85-3.01.29-.38-.23-.73-.57-.97-.94-.21-.34-.25-.78-.37-1.18.51-.13,1.19-.54,1.51-.35.98.57,1.83,1.38,2.84,2.18Z"/>
        <path class="cls-1" d="M15,542.48c.79-1.21,1.56-2.44,2.4-3.61.14-.19.86-.24.88-.19.2.51.58,1.19.39,1.55-.44.85-1.11,1.62-1.82,2.27-.34.32-.99.33-1.5.48-.12-.17-.24-.33-.36-.5Z"/>
      </g>
    </g>
    <g>
      <path class="cls-1" d="M156.87,556.42c-1.31,1.23-1.24,1.83-.12,2.97,2.05,2.08,3.99,4.28,5.96,6.43,2.45,2.68,4.91,5.35,7.34,8.05,1.27,1.42,2.4,2.96,3.73,4.33.66.68,1.76.97,1.61,2.28-.33.16-.72.36-1.27.64-6.13-7.05-12.29-14.12-18.73-21.53-1,4.02-1.9,7.6-2.77,11.19-.05.22.02.55.17.73,1.37,1.75,2.76,3.5,4.17,5.22,1.96,2.39,3.94,4.76,5.92,7.13,1.3,1.55,2.65,3.06,3.93,4.62.45.55.77,1.21,1.13,1.81-1.17.87-1.86.46-2.54-.4-3.23-4.08-6.49-8.14-9.74-12.2-1.11-1.38-2.24-2.75-3.49-4.3-.7,2.8-1.39,5.39-2,7.99-.79,3.41-2.5,6.44-3.93,9.59-.05.12-.13.3-.23.33-.64.19-1.29.34-1.93.51.04-.56-.09-1.2.14-1.68.71-1.5,1.76-2.86,2.28-4.41,1.21-3.6,2.27-7.25,3.25-10.92.97-3.64,1.78-7.32,2.66-10.98.49-2.05.8-4.15,1.49-6.12.44-1.25,1.47-2.29,2.17-3.45.39-.64.76-1.32.96-2.03,1.06-3.74,2.04-7.5,3.08-11.25,1.74-6.3,3.35-12.65,5.31-18.88.85-2.7,2.37-5.2,3.68-7.75,1.43-2.78,3.07-5.45,4.44-8.25,1.08-2.21,1.06-4.67,1.05-7.09-.03-4.47-.08-8.94-.11-13.41-.03-3.42.1-6.88,1.24-10.1.55-1.57,2-2.92,3.28-4.12,1.35-1.27,3.08-1.73,5.03-1.4,2.16.37,3.83-.29,5.3-2.14,1.28-1.62,3.08-2.92,4.85-4.06,1.84-1.18,4.01-1.23,6.11-.66,1.87.5,1.96,2.14,2.17,3.67.09.7.18,1.4.29,2.21,1.4-.29,2.63-.55,3.86-.8,2.15-.44,3.94.77,4.24,2.91.14,1.02.17,2.05.26,3.15,1.97.13,4.27-.5,5.77,1.3,1.4,1.68,1.43,3.77.91,5.94.79.26,1.6.49,2.38.8,2.02.81,2.59,1.92,2.6,4.14.02,4.02-1.6,7.14-4.75,9.66-4.21,3.37-8.24,6.96-12.47,10.3-2.54,2-5.29,3.74-7.99,5.52-1.17.77-2.48,1.34-4.01,2.14,1.03.6,1.78,1.07,2.56,1.5,3.11,1.72,6.43,2.76,9.97,3.27,2.08.3,4.29.68,6.1,1.65,3.09,1.66,5.48,4.13,6.3,7.76.35,1.55.97,3.05,1.28,4.61.11.53-.22,1.29-.6,1.72-.23.26-1.01.25-1.43.09-1.03-.4-2-.97-3.16-1.56v5.94c-.61.16-1.32.35-2.27.6-.41-1.53-.83-2.93-1.15-4.35-.86-3.82-2.95-6.7-6.01-9.25-3.37-2.81-7.46-3.33-11.26-4.79-.1.1-.2.2-.29.3,1.01,1.61,2.03,3.21,3.02,4.82,2.17,3.51,4.33,7.03,6.49,10.55.5.82-.29,1.94-1.45,1.99-1.22.05-2.44.01-3.93.01v6.64c-.87.36-1.84,1.06-2.17.83-.55-.37-.79-1.32-.99-2.06-1.32-4.98-3.05-9.83-5.01-14.59-.58-1.41-1.03-2.88-1.54-4.32-.15.03-.31.06-.46.08-.39,2.45-.81,4.89-1.16,7.34-.64,4.57-1.24,9.14-1.85,13.72-.29,2.17-.6,4.34-.88,6.51-.16,1.2.46,2.11,1.74,2.29,1.11.16,1.19.62,1.05,1.64-.94,7.07-1.81,14.15-2.67,21.23-.61,5.06-1.18,10.12-1.75,15.19-.11,1-.78,1.35-1.59,1.21-.29-.05-.69-.87-.63-1.29.29-2.21.79-4.39,1.08-6.6.49-3.69.87-7.39,1.33-11.08.56-4.5,1.18-8.99,1.73-13.48.15-1.25.27-2.52.17-3.76-.03-.38-.8-.96-1.27-1-5.94-.51-11.88-.99-17.82-1.37-2.23-.14-4.48-.02-7.06-.02.63.89,1.04,1.69,1.65,2.31,1.74,1.74,3.58,3.37,5.33,5.1,2.59,2.55,5.15,5.14,7.71,7.73.64.65,1.23,1.35,1.74,2.1.15.22-.06.69-.1,1.04-.47-.14-1.08-.13-1.38-.44-1.05-1.09-1.83-2.48-2.99-3.4-2.61-2.06-4.41-4.84-6.8-7.09-1.79-1.68-3.46-3.48-5.15-5.26-.45-.47-.75-1.08-1.12-1.63ZM209.09,472.79c-.11-2.59-.51-2.96-3.03-2.51-1.01.18-1.98.55-2.98.8-1.84.47-2.53-.11-2.55-1.95,0-1.03,0-2.11-.31-3.06-.19-.58-.99-1.34-1.51-1.34-1.03,0-2.25.21-3.05.79-2.16,1.59-4.16,3.4-6.19,5.16-1.23,1.06-2.3,1.94-4.25,1.59-3.6-.63-6.93,1.33-7.63,4.32-.54,2.3-.9,4.69-.98,7.04-.2,5.92-.19,11.85-.28,17.78-.01.84-.09,1.69-.05,2.53.02.4.13.94.41,1.17,4.1,3.3,8.83,5.29,13.98,6.29,1.18.23,2.73.39,3.65-.16,4.1-2.44,8.11-5.03,11.99-7.79,2.68-1.9,5.08-4.16,7.65-6.22,3.19-2.57,6.04-5.31,6.69-9.67.3-2-.09-3.1-2.02-3.81-.67-.24-1.4-.33-2.1-.49-.9-.2-1.44-.46-1.06-1.65.35-1.08.45-2.33.28-3.44-.11-.69-.85-1.67-1.45-1.8-1.15-.24-2.43-.09-3.61.14-1.32.26-2.12-.31-1.91-1.6.12-.71.21-1.42.31-2.13ZM158.81,553.87c.63.08,1.11.17,1.6.19,3.5.16,7,.32,10.5.46,2.74.11,5.53-.11,8.21.37,1.73.31,2.1-.3,2.29-1.57.74-4.9,1.41-9.82,2.18-14.72.86-5.48,1.82-10.95,2.68-16.44.06-.36-.29-.98-.63-1.16-1.27-.68-2.64-1.18-3.93-1.82-3.39-1.67-6.76-3.38-10.03-5.02-3.59,4.54-4.88,9.89-6.32,15.16-1.86,6.82-3.63,13.67-5.45,20.51-.34,1.28-.7,2.56-1.11,4.04ZM192.97,516.09c-.78,1.46-.62,2.9,1.83,3.5,4.77,1.16,9.36,2.71,13.08,6.1.46.42.91.87,1.27,1.38,1.06,1.53,2.06,3.09,3.17,4.75.73-1.45,1.56-1.37,2.7-.45.6.48,1.54.55,2.51.87-.24-.87-.49-1.5-.58-2.15-.51-3.71-4.29-7.79-7.94-8.88-3.59-1.08-7.5-.9-10.87-2.88-1.6-.93-3.42-1.49-5.16-2.23ZM185.29,515.39c-.38.99-.7,1.83-1.02,2.66,4.32,2.5,6.56,1.11,6.81-4.48-5.4-1.52-10.9-2.92-15.23-6.77-2.23,2-3.5,5.07-2.53,5.77.24-.55.37-1.24.78-1.65.34-.34,1.02-.47,1.55-.46.21,0,.62.67.55.94-.09.34-.55.6-.9.85-.34.25-.73.43-1.32.76.8.5,1.38.86,1.95,1.22,1.02-1.43,1.13-3.5,3.47-3.79.41,1.89-1.06,2.96-1.75,4.44.46.23.92.45,1.42.7.56-1.02,1.17-2.02,2.32-1.32.29.18-.06,1.39-.13,2.29.2.09.67.3,1.07.48,1.06-.49,1.37-2.09,2.96-1.64ZM200.35,537.3c.07-.11.15-.22.22-.34-3.28-5.52-6.56-11.03-9.84-16.54-.57.28-1.2.58-2,.97,2.28,6.28,4.55,12.51,6.89,18.96,0-.55,0-.86,0-1.18,0-.32.01-.63.03-.95.07-1.24.74-1.72,1.93-1.46.91.2,1.84.36,2.76.53Z"/>
      <path class="cls-1" d="M180.05,574.86c-.22.36-.37.82-.69,1.06-.21.16-.82.17-.98,0-2.28-2.46-4.55-4.94-6.77-7.46-1.6-1.81-3.06-3.75-4.7-5.53-1.47-1.58-3.08-3.04-4.67-4.5-.54-.5-.89-1.02-.34-1.57.14-.14,1.04.2,1.37.53,1.56,1.57,3.05,3.21,4.55,4.84,2.26,2.45,4.52,4.9,6.74,7.38,1.68,1.89,3.3,3.83,4.94,5.75.18-.17.36-.34.54-.51Z"/>
      <path class="cls-1" d="M166.92,557.04c.57.33,1.25.56,1.69,1.01,2.6,2.64,5.12,5.37,7.74,8,1.05,1.05,2.24,1.98,3.45,2.87.75.55,1.26,1.13.59,1.95-.74.91-1.24.22-1.81-.38-2.76-2.88-5.6-5.69-8.34-8.59-1.31-1.39-2.46-2.94-3.68-4.41.12-.15.24-.3.36-.44Z"/>
      <path class="cls-1" d="M170.05,579.89c-.22.24-.4.63-.61.64-.36.02-.84-.09-1.06-.33-.82-.89-1.52-1.88-2.32-2.79-1.96-2.21-3.99-4.38-5.92-6.62-.28-.32-.19-.96-.26-1.46.44.13,1.03.12,1.29.4,2.28,2.46,4.5,4.99,6.75,7.48.42.46.96.81,1.35,1.29.32.38.5.88.78,1.39Z"/>
      <path class="cls-1" d="M158.49,572.31c1.12,1.06,2.31,2.06,3.35,3.2,1.23,1.36,2.37,2.8,3.47,4.27.27.36.27.97.25,1.47,0,.13-.61.42-.78.34-.35-.17-.61-.53-.86-.85-1.31-1.63-2.55-3.31-3.91-4.9-1.2-1.4-1.25-1.35-1.51-3.52Z"/>
      <path class="cls-1" d="M180.6,564.4c-.47.19-.93.46-1.42.55-.39.07-.99.07-1.22-.17-1.52-1.53-2.99-3.11-4.39-4.75-.23-.27.02-.94.05-1.42.43.07.97,0,1.25.23.56.49.91,1.21,1.46,1.72.88.83,1.84,1.58,2.77,2.34.34.28.72.51,1.08.77.14.24.28.49.42.73Z"/>
      <path class="cls-1" d="M161.63,588.64c-.92.86-1.52.88-2.16.12-1.58-1.88-3.23-3.71-4.78-5.62-.23-.28-.05-.88-.06-1.33.39.13.9.15,1.15.41,1.39,1.49,2.7,3.05,4.05,4.57.57.64,1.19,1.23,1.79,1.85Z"/>
      <path class="cls-1" d="M177.41,557.7c.88.58,1.74,1.06,2.5,1.68.72.59,1.41,1.26,1.95,2,.25.34.11.95.14,1.44-.55-.06-1.23.06-1.62-.22-1.08-.79-2.04-1.73-3.03-2.64-.51-.47-1.22-.94-.57-1.78.15-.2.4-.32.62-.48Z"/>
      <path class="cls-1" d="M157.04,564.61c.79,1,1.51,1.88,2.17,2.81.12.17-.02.78-.05.79-.68.02-1.51.22-2.02-.09-1.16-.71-1.21-2.19-.1-3.51Z"/>
    </g>
    <g>
      <path class="cls-1" d="M501.71,528.03c-1.79,1.68-3.57,3.38-5.46,4.95-2.52,2.1-4.49,4.77-7.21,6.67-1.22.85-2.08,2.19-3.19,3.21-.31.29-.92.25-1.4.35-.02-.35-.2-.83-.04-1.05.55-.72,1.19-1.38,1.87-1.99,2.7-2.44,5.42-4.86,8.16-7.26,1.85-1.62,3.79-3.14,5.63-4.77.65-.57,1.11-1.35,1.79-2.2-2.58-.15-4.82-.41-7.05-.39-5.96.03-11.92.15-17.87.32-.47.01-1.28.55-1.33.92-.17,1.23-.14,2.51-.06,3.76.28,4.52.62,9.04.91,13.56.24,3.71.39,7.43.67,11.14.16,2.22,2.14,30.61,2.31,32.83.03.42-.41,1.22-.71,1.25-.81.09-1.46-.29-1.51-1.3-.26-5.09-2.15-36.36-2.45-41.44-.43-7.12-.87-14.24-1.38-21.35-.07-1.03.04-1.48,1.15-1.57,1.28-.11,1.96-.98,1.87-2.19-.15-2.18-.33-4.37-.49-6.55-.34-4.6-.66-9.2-1.02-13.8-.2-2.47-.47-4.93-.71-7.39-.15-.04-.31-.07-.46-.11-.6,1.41-1.14,2.85-1.8,4.22-2.24,4.64-4.26,9.37-5.88,14.27-.24.74-.54,1.66-1.11,2-.35.21-1.27-.55-2.12-.96.14-2.26.27-4.51.4-6.63-1.48-.09-2.71-.12-3.92-.24-1.15-.12-1.87-1.29-1.32-2.07,2.36-3.39,4.74-6.77,7.11-10.14,1.09-1.55,2.21-3.09,3.31-4.63-.09-.11-.18-.21-.27-.32-3.88,1.23-7.99,1.51-11.53,4.12-3.21,2.36-5.46,5.11-6.56,8.88-.41,1.4-.91,2.78-1.41,4.28-.93-.3-1.63-.53-2.23-.73.12-1.99.23-3.84.36-5.93-1.2.52-2.19,1.03-3.25,1.37-.43.14-1.21.1-1.43-.17-.35-.45-.63-1.23-.49-1.75.41-1.54,1.11-3,1.56-4.53,1.04-3.57,3.57-5.9,6.76-7.37,1.87-.86,4.1-1.11,6.19-1.29,3.56-.3,6.94-1.14,10.14-2.67.8-.38,1.58-.8,2.64-1.34-1.47-.89-2.75-1.54-3.87-2.37-2.6-1.93-5.24-3.83-7.65-5.98-4.02-3.58-7.83-7.41-11.83-11.02-2.99-2.7-4.42-5.91-4.16-9.92.14-2.21.79-3.29,2.85-3.98.8-.27,1.63-.44,2.43-.66-.39-2.2-.23-4.28,1.27-5.87,1.6-1.71,3.86-.94,5.83-.95.15-1.1.24-2.13.45-3.13.43-2.12,2.29-3.21,4.41-2.65,1.21.32,2.43.65,3.81,1.02.15-.8.29-1.49.42-2.18.29-1.51.49-3.15,2.38-3.54,2.13-.44,4.3-.26,6.06,1.03,1.7,1.24,3.41,2.64,4.6,4.34,1.36,1.94,2.99,2.69,5.16,2.45,1.96-.22,3.66.34,4.94,1.7,1.2,1.28,2.57,2.71,3.03,4.31.94,3.28.87,6.74.63,10.16-.31,4.46-.62,8.92-.92,13.38-.16,2.41-.33,4.86.62,7.14,1.2,2.88,2.68,5.64,3.94,8.5,1.16,2.62,2.52,5.21,3.21,7.95,1.58,6.34,2.81,12.77,4.17,19.16.81,3.8,1.57,7.62,2.39,11.41.16.72.49,1.42.84,2.08.64,1.21,1.6,2.3,1.96,3.58.57,2.01.76,4.13,1.12,6.2.65,3.71,1.24,7.43,1.99,11.12.76,3.72,1.59,7.43,2.59,11.1.43,1.58,8.01,27.46,8.62,29,.19.49.03,1.12.04,1.68-.63-.21-1.27-.4-1.9-.63-.1-.04-.16-.21-.21-.34-1.24-3.23-9.37-30.81-9.96-34.26-.44-2.64-.98-5.26-1.51-8.09-1.35,1.47-2.55,2.77-3.75,4.08-3.49,3.86-6.99,7.72-10.46,11.6-.73.82-1.44,1.19-2.55.25.4-.57.76-1.21,1.24-1.74,1.37-1.48,2.81-2.91,4.2-4.38,2.12-2.25,4.24-4.5,6.34-6.76,1.52-1.64,3-3.3,4.48-4.97.15-.17.25-.49.21-.72-.65-3.63-1.33-7.26-2.09-11.34-6.88,7.01-13.45,13.71-19.99,20.38-.53-.31-.92-.53-1.23-.71-.07-1.32,1.04-1.54,1.74-2.18,1.41-1.28,2.63-2.76,3.98-4.1,2.58-2.55,5.2-5.07,7.81-7.6,2.1-2.03,4.17-4.11,6.34-6.07,1.19-1.07,1.3-1.67.06-2.97-.4.53-.74,1.11-1.22,1.56ZM456.01,442.04c.14,1.3-.7,1.82-2,1.48-1.16-.3-2.43-.53-3.59-.36-.61.09-1.41,1.03-1.56,1.71-.24,1.1-.21,2.36.07,3.45.31,1.21-.24,1.44-1.16,1.59-.71.12-1.44.16-2.12.36-1.97.59-2.42,1.66-2.24,3.68.39,4.38,3.06,7.29,6.1,10.04,2.43,2.21,4.7,4.62,7.26,6.67,3.72,2.98,7.56,5.81,11.5,8.49.89.61,2.44.54,3.64.38,5.19-.7,10.04-2.4,14.33-5.45.29-.21.44-.74.48-1.14.09-.84.07-1.69.11-2.53.28-5.92.64-11.84.79-17.76.06-2.36-.15-4.76-.55-7.09-.52-3.03-3.73-5.18-7.36-4.76-1.97.23-2.99-.71-4.15-1.84-1.93-1.87-3.81-3.8-5.87-5.52-.76-.63-1.97-.91-3-.97-.53-.03-1.37.69-1.59,1.25-.37.93-.43,2.01-.5,3.04-.12,1.84-.85,2.37-2.66,1.8-.98-.31-1.93-.73-2.93-.97-2.49-.6-2.91-.26-3.18,2.32.06.71.11,1.43.18,2.14ZM500.28,519.72c-1.4-6.93-2.75-13.87-4.2-20.79-1.12-5.35-2.09-10.76-5.4-15.51-3.36,1.44-6.83,2.95-10.32,4.41-1.33.56-2.72.98-4.03,1.58-.34.16-.73.76-.7,1.12.53,5.53,1.16,11.04,1.69,16.57.47,4.94.84,9.88,1.29,14.82.12,1.28.44,1.91,2.19,1.71,2.7-.31,5.47.06,8.21.12,3.5.07,7.01.12,10.51.16.49,0,.98-.06,1.61-.1-.32-1.5-.6-2.8-.86-4.1ZM464.03,485.99c-3.49,1.77-7.38,1.36-11.03,2.23-3.71.88-7.72,4.72-8.46,8.4-.13.64-.42,1.25-.71,2.11.99-.26,1.93-.27,2.56-.72,1.19-.84,2.02-.88,2.66.61,1.2-1.59,2.3-3.09,3.45-4.55.38-.49.86-.91,1.35-1.31,3.91-3.16,8.59-4.44,13.42-5.31,2.49-.45,2.73-1.88,2.04-3.38-1.78.63-3.63,1.08-5.28,1.92ZM479.88,485.65c.41-.15.9-.34,1.1-.41-.02-.9-.29-2.13,0-2.29,1.19-.63,1.74.41,2.23,1.46.52-.22.99-.42,1.46-.62-.61-1.51-2-2.67-1.48-4.53,2.32.43,2.31,2.49,3.24,3.99.59-.32,1.19-.65,2.02-1.11-.56-.36-.94-.57-1.27-.83-.33-.26-.77-.56-.84-.9-.05-.27.4-.92.61-.91.53.03,1.19.19,1.52.56.38.43.47,1.12.68,1.69,1.01-.64-.07-3.79-2.18-5.91-4.55,3.59-10.13,4.66-15.61,5.86-.09,5.59,2.06,7.11,6.53,4.87-.27-.85-.54-1.71-.86-2.72,1.61-.36,1.83,1.26,2.85,1.81ZM463.46,504.45c1.2-.19,1.84.33,1.84,1.57,0,.32-.01.63-.02.95-.01.32-.04.63-.07,1.18,2.73-6.3,5.36-12.38,8.02-18.52-.77-.43-1.38-.77-1.93-1.08-3.6,5.31-7.21,10.62-10.82,15.93.07.12.13.23.2.35.93-.12,1.86-.22,2.79-.37Z"/>
      <path class="cls-1" d="M478.67,543.5c.2.38.32.84.62,1.1.2.18.81.22.98.05,2.43-2.32,4.84-4.66,7.2-7.04,1.71-1.72,3.28-3.57,5.03-5.24,1.56-1.49,3.25-2.85,4.93-4.22.57-.46.95-.96.44-1.54-.14-.15-1.05.14-1.4.45-1.65,1.48-3.24,3.03-4.84,4.56-2.4,2.31-4.81,4.62-7.17,6.97-1.79,1.78-3.52,3.63-5.28,5.45-.17-.18-.34-.36-.51-.54Z"/>
      <path class="cls-1" d="M492.85,526.5c-.59.3-1.28.48-1.75.91-2.76,2.48-5.44,5.06-8.21,7.52-1.11.99-2.36,1.84-3.61,2.66-.78.51-1.33,1.05-.71,1.91.69.95,1.22.29,1.83-.27,2.93-2.71,5.93-5.35,8.84-8.08,1.39-1.31,2.63-2.78,3.93-4.18-.11-.15-.22-.31-.33-.46Z"/>
      <path class="cls-1" d="M488.35,549.12c.2.25.36.65.57.67.35.04.85-.04,1.08-.27.87-.84,1.63-1.79,2.48-2.65,2.09-2.09,4.24-4.13,6.3-6.26.3-.31.24-.95.35-1.44-.44.1-1.03.05-1.31.32-2.43,2.32-4.79,4.71-7.19,7.06-.44.43-1,.75-1.43,1.21-.34.36-.55.84-.86,1.34Z"/>
      <path class="cls-1" d="M500.35,542.24c-1.18.99-2.43,1.92-3.53,2.99-1.31,1.28-2.54,2.66-3.72,4.06-.29.35-.32.96-.34,1.45,0,.13.58.46.76.38.36-.15.64-.5.91-.8,1.4-1.55,2.75-3.15,4.2-4.66,1.28-1.32,1.33-1.27,1.71-3.43Z"/>
      <path class="cls-1" d="M478.76,533.03c.46.22.9.52,1.39.63.39.09.98.13,1.23-.1,1.61-1.44,3.17-2.93,4.66-4.49.24-.25.03-.94.03-1.42-.43.04-.97-.06-1.26.16-.59.46-.99,1.15-1.56,1.63-.93.77-1.93,1.46-2.91,2.17-.36.26-.75.47-1.12.7-.15.24-.31.47-.46.7Z"/>
      <path class="cls-1" d="M496.23,558.35c.86.91,1.46.97,2.14.25,1.69-1.79,3.45-3.51,5.11-5.33.24-.26.1-.87.14-1.32-.4.11-.91.1-1.17.35-1.47,1.41-2.87,2.89-4.32,4.32-.61.6-1.27,1.16-1.9,1.74Z"/>
      <path class="cls-1" d="M482.34,526.53c-.91.53-1.8.96-2.59,1.52-.76.54-1.48,1.17-2.07,1.88-.27.32-.16.94-.23,1.42.55-.03,1.23.13,1.63-.13,1.12-.72,2.15-1.6,3.18-2.45.54-.44,1.28-.86.67-1.74-.14-.2-.39-.34-.59-.51Z"/>
      <path class="cls-1" d="M502.26,534.64c-.84.95-1.62,1.79-2.34,2.68-.13.17-.03.78,0,.79.68.06,1.49.31,2.02.03,1.2-.64,1.34-2.12.31-3.5Z"/>
    </g>
    <path class="cls-1" d="M115.03,479.44c-.26.52-.52,1.04-.78,1.56-.36-.32-.71-.64-1.07-.96.42-.35.84-.7,1.27-1.05.19.15.39.29.58.44Z"/>
    <g>
      <path class="cls-1" d="M288.7,455.41c1.86,1.94,3.59,3.7,5.27,5.5.61.65,1.13,1.39,1.62,2.13.13.2.11.65-.03.84-1.35,1.88-1.66,4.28-3.42,6.04-1.66,1.66-3.72,2.32-5.7,3.24-1.17.55-2.5.92-3.78,1-.73.05-1.67-.49-2.22-1.05-1.72-1.76-3.29-3.66-4.96-5.47-.13-.14-.7-.09-.92.07-2.08,1.55-4.13,3.14-6.1,4.65.25,1.23.5,2.44.76,3.69.57-.13,1.25-.28,1.93-.43,4.94-1.04,9,.7,12.55,3.96,3.89,3.57,8.2,6.42,13.36,7.84.76.21,1.54.31,2.17.44v1.87c-1.11.5-2.42,1.1-3.78,1.72,1.37,1.97,4.01,2.67,4.21,5.31-2.48,1-4.83.85-7.13.06-2.4-.83-4.69-1.95-6.4-3.88-1.16-1.31-2.19-2.74-3.2-4.18-1.25-1.78-2.78-3.2-4.72-4.28.69,3.14,1.36,6.17,2.02,9.2.38,1.75.51,3.6,1.15,5.24.69,1.77,1.81,3.38,2.84,5.01.74,1.17,1.71,2.19,2.42,3.37.29.48.15,1.21.24,2.19-2.06-.25-3.98-.48-6.08-.73,0,1.92,0,3.77,0,5.61,0,.84-.07,1.7-1.07,1.92-.99.22-1.45-.27-1.54-1.31-.29-3.45-2.25-6.4-3.03-9.69-.75-3.16-1.3-6.39-1.72-9.62-.55-4.2-1.49-8.21-4.38-11.51-.4-.46-.76-.97-1.33-1.69,0,1.68,0,3.09,0,4.5,0,3.5.03,6.99.01,10.49-.03,4.96.09,9.94-.21,14.88-.22,3.57-1.06,7.09-1.57,10.64-.07.5.17,1.05.27,1.58.03.19.15.4.1.55-1.41,4.43-1.46,9.06-1.94,13.62-.62,5.96-1.06,11.94-1.6,17.91-.45,5.04-.95,10.08-1.4,15.13-.4,4.51-.84,9.02-1.1,13.54-.13,2.28.02,4.58.21,6.86.11,1.3-.86.9-1.41,1.09-.67.23-1.04-.14-1.01-.84.17-3.85.2-7.71.54-11.55.51-5.72,1.27-11.42,1.86-17.14.27-2.67.34-5.37.56-8.05.34-4.26.7-8.51,1.08-12.76.37-4.07.8-8.13,1.14-12.2.11-1.32.09-2.66,0-3.99-.02-.34-.45-.86-.79-.95-2.74-.75-5.5-1.46-8.26-2.11-1.49-.35-3.01-.6-4.53-.83-2.58-.39-5.15-.79-7.74-1.06-1.26-.13-2.64-.28-3.78.11-.71.24-1.2,1.44-1.55,2.3-.4.98-.55,2.06-.78,3.1-.48,2.19.41,3.48,2.53,5.31,1.79,1.55,4.03,2.14,6.26,2.72,1.5.39,2.06.79,2.55,1.89-1.84,1.34-9.16-1.44-12.22-4.81.91,3.44,1.47,6.64,3.18,9.54,2.5,4.23,5.98,7.6,9.29,11.15,1.4,1.51,2.69,3.13,3.92,4.77.39.52.43,1.28.66,2-2.07.46-2.58-1.15-3.45-2.07-2.13-2.25-4.12-4.62-6.22-6.89-2.85-3.08-5.47-6.32-7.13-10.2-.49-1.14-.71-2.39-1.26-3.59-.42,1.96-2.19,3.49-1.31,5.85.54,1.43.25,3.15.7,4.63.83,2.77,2.05,5.43,2.85,8.21.61,2.12,1.9,4.13,1.37,6.54-1.11,0-1.56-.8-1.86-1.64-1.36-3.83-2.72-7.66-3.99-11.52-.4-1.22-.49-2.53-.75-4.01-.73,1.8-1.42,3.42-2.04,5.07-1.84,4.84-3.73,9.66-5.43,14.55-.84,2.41-1.17,4.98-1.96,7.41-1.13,3.49-2.5,6.9-3.68,10.38-.82,2.41-1.74,4.83-2.15,7.33-.3,1.85-1.25,2.33-2.99,2.47.12-.46.19-.88.33-1.26.89-2.44,1.81-4.88,2.69-7.32.88-2.45,1.76-4.9,2.57-7.37.84-2.55,1.59-5.13,2.39-7.69.76-2.43,1.51-4.87,2.33-7.29,1.02-3.02,2.07-6.02,3.18-9.01,1.67-4.51,3.56-8.94,5.04-13.5,1.05-3.23,1.57-6.62,2.32-9.94.34-1.48.66-2.97.97-4.46.13-.64.21-1.3.3-1.95.2-1.43,1.34-2.01,2.46-2.43.9-.34,1.26-.87,1.46-1.7,1.08-4.62,2.22-9.22,3.25-13.85,1.42-6.38,2.62-12.82,4.2-19.16.72-2.88,2.15-5.59,3.26-8.37.11-.28.36-.6.31-.84-.49-2.22.35-4.25.82-6.34.21-.96.32-1.94.48-2.91-.11-.04-.22-.08-.33-.13.37-.24.73-.48,1.12-.73.21-2.39.57-4.81.59-7.22.03-4.18-.08-8.37-.25-12.55-.12-2.91-.69-5.82-.62-8.72.07-2.6.31-5.3,2.02-7.72-1.37-1.6-2.72-3.27-4.17-4.85-.52-.56-1.11-.71-2.01-.2-4.32,2.41-8.74,4.61-13.08,6.98-2.96,1.62-5.83,3.41-8.72,5.13-2.15,1.28-4.29,2.58-6.42,3.89-1.46.89-2.73.47-3.54-.99-2.06-3.72-4.18-7.41-6.32-11.08-2.54-4.35-5.04-8.72-7.75-12.97-2.12-3.34-4.5-6.52-6.81-9.73-1.82-2.52-3.7-5-5.61-7.46-.66-.85-1.47-1.58-2.24-2.33-.93-.9-.94-1.4.18-2.09,4.03-2.47,8.09-4.9,12.14-7.35,3.09-1.87,6.18-3.75,9.29-5.58,2.64-1.55,5.32-3.02,7.96-4.57,2.6-1.53,5.13-3.2,7.76-4.67,3.9-2.18,7.87-4.25,11.81-6.36,3.22-1.73,6.45-3.44,9.68-5.16,4.02-2.15,8.05-4.29,12.05-6.48,2.68-1.47,5.3-3.05,7.97-4.54.94-.53,1.96-.94,2.92-1.43.31-.16.65-.35.85-.61.86-1.15,1.82-1.05,2.56.13,1.71,2.74,3.51,5.43,5.3,8.12,2.04,3.07,4.14,6.11,6.16,9.2,2.43,3.72,4.84,7.45,7.17,11.23,2.12,3.43,4.11,6.95,6.2,10.4.67,1.11,1.46,2.16,2.24,3.19.26.34.65.63,1.04.79,1.21.49,1.45,1.62.37,2.38-4.03,2.84-8.07,5.66-12.72,7.5-1.68.67-3.21,1.76-4.75,2.76-2.54,1.64-5.04,3.35-7.54,5.03-3.24,2.19-6.5,4.35-9.68,6.63-.32.23-.33,1.36-.05,1.81.99,1.64,2.19,3.17,3.26,4.77.22.32.24.78.27.9,1.4-.19,2.77-.61,4.1-.5,2.17.18,3.41,1.68,4.05,3.68.31.98.62,1.95.97,3.06.63-.07,1.26-.09,1.86-.23,1.48-.36,2.8.09,4,.85.41.26.74.94.78,1.45.1,1.47.04,2.96.04,4.62.45.08,1.05.2,1.66.28,2.82.35,3.42,1.35,2.52,4.11-.27.84-.49,1.7-.76,2.65.84.2,1.53.49,2.22.5,3.09.09,4.4,2.97,3.41,5.56-.62,1.6-1.94,2.95-3.04,4.35-.77.99-1.68,1.86-2.46,2.71ZM298.39,392.47c-9.22-14.59-18.23-28.84-27.28-43.15-1.93.88-3.68,1.59-5.34,2.46-3.22,1.69-6.4,3.48-9.6,5.22-2.17,1.18-4.38,2.31-6.53,3.54-2.23,1.27-4.34,2.75-6.6,3.94-3.13,1.65-6.41,3.03-9.55,4.67-3.43,1.79-6.79,3.71-10.16,5.61-.94.53-1.79,1.21-2.73,1.74-2.2,1.24-4.45,2.4-6.64,3.65-2.25,1.29-4.44,2.66-6.67,3.98-2.7,1.6-5.44,3.16-8.12,4.8-2.5,1.52-4.96,3.12-7.43,4.69-.89.56-1.77,1.13-2.66,1.7.26.48.36.73.52.94,2.15,2.79,4.37,5.54,6.46,8.37,2.36,3.19,4.68,6.4,6.89,9.68,2.05,3.05,3.94,6.2,5.87,9.32.97,1.57,1.86,3.18,2.8,4.77,1.94,3.29,3.94,6.54,5.81,9.87.5.9.91.96,1.67.48.9-.57,1.82-1.12,2.75-1.66,5.65-3.29,11.24-6.68,16.96-9.84,5.59-3.09,11.32-5.9,16.95-8.92,3.06-1.64,6.11-3.33,9.04-5.2,4.48-2.85,8.8-5.96,13.29-8.8,4.3-2.71,8.72-5.21,13.11-7.78,2.25-1.32,4.53-2.6,7.17-4.1ZM286.51,443.59c.03-.44,0-.85.1-1.23.34-1.2.71-2.4,1.11-3.59.33-1-.05-1.45-1.05-1.53-.9-.07-1.79-.17-2.69-.23-1.31-.08-1.56-.46-1.16-1.72.23-.72.46-1.46.52-2.21.2-2.23-.83-3.48-2.56-3.12-.91.19-1.8.53-2.66.88-1.02.42-1.45.13-1.68-.96-.32-1.52-.66-3.06-1.2-4.51-.61-1.65-2.28-2.44-3.56-1.7-.87.5-1.85,1.24-2.2,2.1-1.03,2.54-3.03,3.86-5.33,5-2.51,1.24-5.07.91-7.65.42-.82-.16-1.29-.12-1.67.78-1.2,2.77-1.6,5.61-1.26,8.6.39,3.47.9,6.93,1.03,10.41.17,4.62.19,9.25-.8,13.82-.38,1.76.03,2.11,1.8,2.7,2.56.85,5.09,1.79,7.62,2.74,2.09.78,4.17,1.71,5.88-.66.05-.07.14-.11.21-.17,2.56-1.89,5.13-3.76,7.68-5.67,4.71-3.53,8.95-7.55,12.82-11.97.65-.75,1.39-1.44,1.91-2.27,1.29-2.07,1.36-4.71-1.97-5.26-1.05-.17-2.1-.41-3.24-.64ZM263.98,523.85c.34-2.37.8-4.84,1.01-7.33.42-4.82.9-9.64,1-14.47.12-5.76-.22-11.52-.18-17.29.01-1.88-.17-3.15-2.28-3.77-3.57-1.04-7.06-2.39-10.62-3.49-.45-.14-1.4.24-1.64.66-.98,1.68-1.96,3.4-2.59,5.23-.71,2.06-1.1,4.24-1.55,6.38-.82,3.84-1.54,7.7-2.38,11.53-1.11,5.06-2.3,10.1-3.44,15.15-.14.6-.31,1.23-.26,1.83.05.6.37,1.18.55,1.7,7.25,1.26,14.67,2.54,22.38,3.87ZM250.63,423.55c1.72,1.82,3.24,3.47,4.82,5.07.3.3.79.5,1.22.56,1.43.19,2.9.54,4.3.39,3.4-.36,6.69-2.34,7.32-6.08-.86-.09-1.6-.32-1.39-1.45.03-.17-.17-.41-.3-.59-.94-1.32-1.96-2.59-2.8-3.97-.53-.87-.99-.8-1.74-.38-2.42,1.38-4.87,2.72-7.31,4.09-1.33.75-2.65,1.51-4.14,2.36ZM287.54,457.1c-3.61,3.08-7.05,6.02-10.56,9.01.25.28.48.54.72.8,1.15,1.24,2.27,2.51,3.48,3.69.68.66,1.39,1.54,2.55,1.2,1.34-.4,2.66-.86,3.98-1.32,2.56-.91,3.75-3.12,4.85-5.31.36-.73.49-2.06.06-2.6-1.59-1.99-3.45-3.75-5.08-5.47ZM295.74,489.28c-.53-.27-.75-.42-.99-.51-4.86-1.71-9.05-4.46-12.72-8.02-2.02-1.96-4.44-3.1-7.18-3.49-1.12-.16-2.3.09-3.45.16-.03.16-.05.32-.08.48,2.14.84,3.92,2.1,5.16,4.03.12.18.51.19.78.27.76.23,1.56.35,2.26.69,2.49,1.19,4.07,3.37,5.6,5.5,2.29,3.18,4.92,5.84,8.86,6.86.67.17,1.39.2,2.08.29.05-.15.11-.3.16-.45-1.06-.83-2.13-1.64-3.16-2.5-.34-.28-.83-.71-.79-1.02.04-.35.55-.72.93-.95.72-.44,1.49-.8,2.54-1.34ZM283.57,506.9c-.91-1.22-1.89-2.32-2.61-3.57-1.5-2.58-2.13-5.45-2.68-8.37-.76-4.07-1.18-8.25-3.46-11.94-1.3-2.11-3.14-3.13-5.37-3.76-.23-.06-.6.1-.8.27-.11.09-.08.51.04.66.66.82,1.46,1.55,2.04,2.42,1.14,1.71,2.31,3.43,3.23,5.26,1.31,2.6,1.41,5.51,1.61,8.33.25,3.61,1.05,7.05,2.29,10.42.17.48.45.92.73,1.49,1.11-3.26,3.29-.63,4.98-1.21ZM252.1,473.46c-.32,1.8-.33,1.84,1.32,2.24,4.02.98,8.02,2.04,11.75,3.88.63.31,1.1.17,1.41-.52.75-1.67.64-3.38.28-5.09-.05-.23-.43-.47-.7-.57-2.43-.91-4.88-1.8-7.32-2.69-1.86-.68-3.71-1.35-5.66-2.06-.26.77-.49,1.39-.67,2.02-.22.81-.08,1.35.96,1.49.93.13,1.82.52,2.73.76,1.39.37,2.82.6,4.17,1.09.62.23,1.08.92,1.61,1.4-.58.19-1.14.48-1.73.53-.5.04-1.02-.19-1.52-.34-2.17-.69-4.34-1.4-6.62-2.14Z"/>
      <path class="cls-1" d="M243.31,575.29c-1.15.5-1.52-.28-1.82-1.04-.77-1.95-1.48-3.92-2.23-5.87-.19-.5-.42-.99-.66-1.48-.63-1.29-.5-1.57,1.03-2.07,1.86,3.24,3.56,6.53,3.67,10.46Z"/>
      <path class="cls-1" d="M248.91,588.64c-1.48.3-1.91-.67-2.24-1.49-.73-1.83-1.29-3.72-1.95-5.57-.24-.67-.67-1.29-.82-1.98-.08-.4.24-.88.38-1.33.45.15,1.12.16,1.31.47.48.78.79,1.67,1.07,2.55.77,2.41,1.48,4.83,2.24,7.35Z"/>
      <path class="cls-1" d="M255.3,540.91c-.87-.25-1.68-.44-2.45-.72-1.18-.43-2.34-.91-3.49-1.4-.25-.11-.44-.36-.66-.54.2-.19.4-.54.61-.55.91-.03,1.84-.04,2.74.1.6.09,1.15.51,1.76.65,1.16.26,1.74.88,1.5,2.46Z"/>
      <path class="cls-1" d="M255.96,566.58c-1.5.51-2.17.25-2.48-.85-.29-1.02-.78-1.99-1.01-3.02-.09-.4.34-.9.53-1.35.41.21,1.05.33,1.19.66.66,1.47,1.18,3,1.77,4.57Z"/>
      <path class="cls-1" d="M247.96,417.5c-1.99,2.71-4.65,3.99-7.31,5.35-3.49,1.78-6.88,3.76-10.3,5.69-2.25,1.26-4.5,2.53-6.7,3.88-1.16.72-2.2,1.63-3.32,2.42-.32.23-.74.49-1.09.46-.44-.03-.86-.35-1.29-.54.25-.32.44-.73.76-.94,3.71-2.36,7.38-4.8,11.18-7.01,3.5-2.03,7.16-3.79,10.72-5.7,1.86-.99,3.66-2.09,5.52-3.07.55-.29,1.21-.36,1.82-.54Z"/>
      <path class="cls-1" d="M266.77,354.94c.91-.67,1.91-.43,2.85.84,1.31,1.77,2.67,3.52,3.91,5.34,1.41,2.07,2.82,4.15,4,6.35.47.87.37,2.08.35,3.13,0,.29-.64.57-.88.77-3.14-5.76-6.51-11.14-10.23-16.44Z"/>
      <path class="cls-1" d="M272.48,400.92c.83-.58,1.63-1.23,2.5-1.73,2.73-1.57,5.47-3.14,8.26-4.59.53-.28,1.34-.04,2.01-.04.04,1.26-.53,1.73-1.52,2.06-1.25.43-2.45,1.05-3.62,1.67-1.66.88-3.25,1.88-4.93,2.72-.71.35-1.56.42-2.35.62-.11-.24-.23-.47-.34-.71Z"/>
      <path class="cls-1" d="M289.77,386.93c-.98.32-1.64.26-2.25-.54-1.29-1.72-2.72-3.34-4.01-5.05-.26-.34-.22-.92-.31-1.39.55-.03,1.22-.27,1.61-.03.76.45,1.44,1.09,1.99,1.78,1.22,1.56,2.78,2.95,2.97,5.23Z"/>
      <path class="cls-1" d="M249.54,415.44c2.4-1.34,4.7-2.61,7-3.89.1.12.2.24.3.36-.14,1.18-1.03,1.92-1.93,2.57-1.01.74-2.09,1.39-3.19,1.99-.88.47-1.54.04-2.19-1.03Z"/>
      <path class="cls-1" d="M266.87,404.65c.28.22.65.42.62.52-.13.49-.23,1.14-.58,1.4-1.24.92-2.55,1.78-3.91,2.5-.45.24-1.16.01-1.74,0,.27-.43.46-.96.82-1.28.98-.86,2-1.67,3.07-2.41.49-.34,1.12-.48,1.72-.73Z"/>
      <path class="cls-1" d="M278.14,373.23c1.05-.95,1.8-.98,2.49-.16.46.54,1.01,1.06,1.31,1.69.2.42.04,1.01.04,1.53-.52-.08-1.22.01-1.52-.28-.85-.82-1.53-1.81-2.32-2.77Z"/>
      <path class="cls-1" d="M266.29,476.14c-.6.69-1.03,1.6-1.48,1.61-.79.01-1.59-.52-2.52-.88,1.15-1.45,2.35-1.06,4-.73Z"/>
    </g>
    <g>
      <path class="cls-1" d="M575.34,558.04c1.55.36,2.18.04,2.39-1.08.19-1.04.59-2.06.71-3.1.05-.4-.42-.86-.65-1.3-.39.25-1.01.43-1.13.77-.52,1.52-.89,3.1-1.33,4.71Z"/>
      <g>
        <path class="cls-1" d="M529.45,447.97c-1.22-1.29-2.67-2.51-3.44-4.05-1.23-2.48-.2-5.48,2.87-5.85.69-.08,1.34-.43,2.16-.71-.36-.92-.65-1.75-1.01-2.56-1.16-2.66-.65-3.71,2.12-4.33.6-.13,1.18-.32,1.62-.44-.16-1.66-.37-3.13-.4-4.6-.01-.51.25-1.22.63-1.52,1.12-.87,2.39-1.44,3.9-1.22.61.09,1.25.04,1.88.06.24-1.13.46-2.13.68-3.13.45-2.05,1.54-3.66,3.69-4.04,1.31-.24,2.72.06,4.13.11.02-.13,0-.58.18-.92.92-1.69,1.96-3.32,2.79-5.05.23-.48.11-1.6-.23-1.8-3.38-1.97-6.83-3.82-10.27-5.69-2.66-1.45-5.3-2.91-7.99-4.3-1.63-.84-3.25-1.79-4.99-2.3-4.81-1.39-39.5-17.97-43.79-20.42-1.15-.66-1.02-1.8.14-2.4.38-.2.74-.52.96-.88.69-1.1,1.37-2.22,1.93-3.38,1.75-3.63,3.39-7.32,5.18-10.94,1.96-3.98,4.01-7.92,6.07-11.85,1.71-3.26,3.52-6.48,5.26-9.73,1.52-2.85,3.06-5.7,4.5-8.58.62-1.24,1.57-1.43,2.53-.37.22.25.58.4.9.53,1.01.4,32.47,14.86,33.46,15.29,2.8,1.23,5.56,2.56,8.36,3.77,4.19,1.81,8.4,3.55,12.61,5.32,3.37,1.41,6.75,2.81,10.12,4.23,4.12,1.73,8.27,3.41,12.36,5.22,2.76,1.22,5.43,2.64,8.17,3.92,2.77,1.3,5.59,2.51,8.36,3.8,3.27,1.53,6.52,3.11,9.78,4.68,4.26,2.05,46.94,21.17,51.19,23.25,1.18.58,1.22,1.07.38,2.06-.7.82-1.44,1.63-2.01,2.53-1.67,2.62-3.3,5.27-4.87,7.95-2,3.42-4.06,6.81-5.86,10.33-2.29,4.48-4.36,9.08-6.48,13.64-1.79,3.86-3.54,7.73-5.24,11.63-.67,1.54-1.89,2.07-3.43,1.32-2.25-1.1-42.91-19.26-45.17-20.34-3.05-1.45-6.07-2.95-9.17-4.29-4.54-1.96-9.16-3.74-13.68-5.73-.95-.42-1.52-.22-1.98.39-1.29,1.71-2.48,3.49-3.69,5.22,1.93,2.25,2.43,4.91,2.74,7.5.35,2.88.06,5.83.22,8.74.22,4.18.51,8.35.94,12.51.25,2.4.84,4.77,1.27,7.13.41.22.8.42,1.19.62-.11.05-.21.1-.32.16.25.95.45,1.92.75,2.85.66,2.04,1.69,3.98,1.42,6.23-.03.25.25.54.39.81,1.37,2.67,3.05,5.23,4.05,8.03,2.18,6.16,3.99,12.46,6.01,18.68,1.47,4.51,3.04,8.99,4.56,13.48.27.81.68,1.3,1.61,1.55,1.15.31,2.34.78,2.68,2.18.15.64.29,1.29.48,1.92.45,1.45.92,2.9,1.39,4.35,1.06,3.24,1.91,6.57,3.26,9.68,1.91,4.41,4.21,8.64,6.3,12.97,1.38,2.87,2.72,5.76,4.02,8.67,1.04,2.33,2.02,4.69,3.01,7.04,1.04,2.47,2.03,4.97,3.11,7.43,1.04,2.38,2.16,4.74,3.26,7.09,1.11,2.35,2.26,4.69,3.38,7.04.18.37.29.78.45,1.23-1.75.02-2.73-.36-3.21-2.18-.64-2.44-1.79-4.77-2.84-7.09-1.51-3.35-3.2-6.62-4.65-9.99-1.01-2.34-1.59-4.87-2.65-7.19-2.16-4.7-4.5-9.33-6.79-13.97-.78-1.58-1.61-3.12-2.51-4.85-.12,1.49-.08,2.81-.37,4.06-.89,3.96-1.88,7.9-2.87,11.84-.22.87-.59,1.7-1.69,1.81-.75-2.36.34-4.48.75-6.64.53-2.84,1.49-5.6,2.05-8.44.3-1.52-.14-3.2.25-4.68.65-2.43-1.25-3.79-1.86-5.7-.43,1.25-.53,2.52-.91,3.69-1.28,4.02-3.58,7.49-6.13,10.82-1.88,2.46-3.63,5-5.54,7.44-.78,1-1.13,2.65-3.24,2.39.15-.74.13-1.5.46-2.05,1.07-1.75,2.2-3.49,3.45-5.12,2.95-3.85,6.1-7.53,8.18-11.98,1.42-3.04,1.68-6.28,2.25-9.79-2.73,3.64-9.75,7.1-11.71,5.94.38-1.14.9-1.6,2.35-2.12,2.17-.78,4.33-1.58,5.97-3.29,1.94-2.02,2.7-3.39,2.02-5.52-.33-1.02-.58-2.08-1.07-3.02-.43-.83-1.03-1.97-1.76-2.15-1.17-.29-2.53,0-3.77.24-2.55.52-5.08,1.16-7.61,1.79-1.49.37-2.97.77-4.43,1.26-2.69.91-5.37,1.87-8.03,2.88-.33.13-.7.68-.69,1.02.04,1.33.14,2.66.38,3.97.73,4.02,1.55,8.03,2.3,12.04.79,4.2,1.55,8.4,2.29,12.61.47,2.65.79,5.33,1.32,7.97,1.12,5.64,2.43,11.24,3.48,16.89.7,3.79,1.1,7.63,1.63,11.44.1.7-.23,1.1-.92.93-.57-.14-1.5.36-1.51-.95-.03-2.29-.09-4.6-.44-6.85-.69-4.48-1.56-8.93-2.38-13.38-.93-4.98-1.9-9.95-2.83-14.93-1.1-5.89-2.11-11.81-3.3-17.68-.91-4.5-1.39-9.1-3.22-13.38-.07-.15.03-.37.05-.56.05-.54.23-1.11.11-1.6-.84-3.49-2.01-6.92-2.58-10.45-.78-4.9-1.13-9.86-1.63-14.79-.35-3.48-.66-6.96-.99-10.44-.13-1.4-.27-2.8-.43-4.48-.49.77-.8,1.31-1.16,1.81-2.56,3.56-3.12,7.64-3.27,11.87-.11,3.25-.35,6.51-.8,9.74-.46,3.35-2.14,6.47-2.09,9.93.01,1.05-.4,1.57-1.4,1.45-1.02-.12-1.17-.98-1.25-1.81-.18-1.84-.35-3.67-.54-5.59-2.07.45-3.96.86-5.99,1.3,0-.99-.21-1.7.03-2.2.59-1.24,1.47-2.35,2.09-3.58.87-1.71,1.83-3.42,2.35-5.25.49-1.7.44-3.55.65-5.33.37-3.08.75-6.17,1.14-9.35-1.82,1.26-3.21,2.82-4.29,4.7-.87,1.52-1.76,3.04-2.79,4.46-1.52,2.09-3.69,3.42-6,4.47-2.21,1-4.54,1.37-7.1.61-.04-2.65,2.52-3.59,3.69-5.69-1.42-.49-2.78-.96-3.93-1.36-.06-.63-.11-1.15-.18-1.86.61-.18,1.38-.36,2.12-.64,5-1.9,9.02-5.15,12.55-9.06,3.23-3.57,7.1-5.69,12.12-5.12.69.08,1.38.17,1.96.24.14-1.27.27-2.5.41-3.75-2.1-1.32-4.29-2.71-6.51-4.05-.23-.14-.8-.14-.92.01-1.49,1.95-2.87,4-4.42,5.91-.49.61-1.39,1.23-2.11,1.25-1.29.04-2.64-.21-3.86-.64-2.05-.73-4.17-1.2-5.98-2.69-1.91-1.58-2.45-3.94-3.98-5.69-.16-.18-.22-.63-.11-.84.42-.78.87-1.57,1.41-2.27,1.5-1.95,3.05-3.87,4.72-5.97-.85-.77-1.84-1.55-2.7-2.46ZM524.05,392.11c4.61,2.15,9.26,4.22,13.79,6.52,4.74,2.4,9.34,5.09,14.07,7.51,3.09,1.58,6.29,2.98,9.49,4.33,5.89,2.47,11.87,4.74,17.73,7.28,6,2.61,11.89,5.45,17.82,8.2.97.45,1.94.91,2.89,1.4.8.41,39.6,17.38,40.02,16.44,1.54-3.49,3.22-6.92,4.84-10.37.78-1.67,1.52-3.36,2.33-5.01,1.62-3.29,3.21-6.61,4.96-9.83,1.89-3.48,3.9-6.89,5.94-10.29,1.82-3.02,3.76-5.96,5.64-8.94.14-.22.22-.49.43-.99-.94-.48-1.87-.97-2.81-1.45-2.61-1.33-43.61-19.76-46.25-21.05-2.83-1.38-5.7-2.67-8.54-4.02-2.34-1.1-4.66-2.26-7.02-3.33-2.3-1.04-4.65-1.98-6.96-3.01-.98-.44-1.9-1.04-2.88-1.48-3.54-1.57-7.06-3.18-10.65-4.63-3.28-1.33-6.67-2.41-9.95-3.75-2.37-.97-4.61-2.25-6.95-3.31-2.25-1.02-4.56-1.93-6.83-2.91-3.35-1.43-6.68-2.92-10.05-4.3-1.74-.71-33.96-15.4-35.96-16.1-7.64,15.1-15.26,30.13-23.05,45.52,2.77,1.25,35.57,16.46,37.94,17.56ZM530.04,439.41c-3.27.86-2.94,3.48-1.46,5.42.59.78,1.4,1.4,2.12,2.08,4.27,4.04,8.88,7.64,13.9,10.72,2.71,1.66,5.45,3.28,8.18,4.92.08.05.17.08.23.15,1.94,2.21,3.91,1.08,5.92.11,2.43-1.18,4.85-2.36,7.32-3.44,1.71-.75,2.09-1.14,1.54-2.86-1.42-4.46-1.84-9.07-2.11-13.68-.2-3.47-.03-6.97.03-10.46.05-3-.62-5.8-2.07-8.44-.47-.85-.94-.85-1.74-.62-2.52.73-5.04,1.29-7.65.29-2.4-.92-4.52-2.05-5.79-4.48-.43-.83-1.48-1.46-2.39-1.88-1.34-.62-2.93.33-3.38,2.03-.4,1.5-.59,3.06-.76,4.61-.12,1.11-.52,1.43-1.58,1.11-.89-.27-1.81-.52-2.73-.63-1.76-.2-2.66,1.15-2.25,3.35.14.74.44,1.45.73,2.15.51,1.22.3,1.62-.99,1.82-.89.14-1.77.32-2.66.48-.98.17-1.32.66-.9,1.63.51,1.14.99,2.3,1.45,3.47.14.36.14.77.22,1.21-1.12.33-2.14.67-3.17.94ZM585.19,510.3c.13-.54.39-1.14.39-1.75,0-.6-.24-1.21-.44-1.8-1.62-4.92-3.28-9.83-4.87-14.76-1.2-3.74-2.29-7.51-3.47-11.26-.66-2.09-1.25-4.22-2.15-6.21-.8-1.76-1.94-3.38-3.07-4.96-.28-.39-1.26-.68-1.69-.5-3.44,1.43-6.78,3.1-10.24,4.47-2.05.81-2.11,2.1-1.91,3.97.59,5.73.8,11.5,1.46,17.23.56,4.8,1.49,9.56,2.37,14.32.45,2.46,1.15,4.88,1.71,7.21,7.56-2.05,14.81-4.03,21.91-5.96ZM562.68,413.19c-2.55-1.13-5.12-2.23-7.67-3.38-.78-.35-1.25-.38-1.69.54-.7,1.45-1.6,2.81-2.4,4.21-.11.19-.29.45-.24.62.31,1.11-.4,1.4-1.25,1.57.98,3.67,4.45,5.33,7.87,5.37,1.41.02,2.84-.47,4.25-.8.42-.1.89-.35,1.16-.67,1.42-1.74,2.78-3.53,4.32-5.5-1.56-.7-2.94-1.34-4.34-1.96ZM528.93,457.94c-.37.57-.12,1.89.31,2.58,1.3,2.08,2.7,4.17,5.33,4.83,1.36.34,2.72.68,4.09.94,1.19.23,1.81-.7,2.42-1.43,1.1-1.29,2.09-2.66,3.12-4,.21-.28.42-.56.64-.86-3.78-2.65-7.48-5.25-11.37-7.98-1.46,1.86-3.15,3.79-4.54,5.92ZM531.02,485.92c.4.2.94.51,1.01.86.06.3-.38.77-.69,1.09-.95.95-1.94,1.86-2.91,2.78.07.14.13.29.2.43.68-.16,1.39-.25,2.05-.48,3.83-1.38,6.2-4.28,8.17-7.66,1.32-2.27,2.69-4.58,5.05-6,.67-.4,1.45-.6,2.19-.9.26-.11.66-.15.75-.34,1.05-2.03,2.71-3.45,4.76-4.49-.04-.16-.08-.31-.13-.47-1.15.04-2.35-.1-3.45.17-2.69.64-4.99,2-6.82,4.14-3.31,3.88-7.22,7.02-11.9,9.18-.23.11-.44.28-.94.6,1.09.44,1.9.72,2.65,1.1ZM547.24,501.96c.23-.6.46-1.07.59-1.56.91-3.47,1.38-6.97,1.29-10.59-.07-2.82-.24-5.73.81-8.44.74-1.91,1.74-3.73,2.71-5.54.5-.92,1.22-1.72,1.8-2.6.11-.16.09-.58-.02-.66-.22-.15-.6-.28-.82-.19-2.15.83-3.89,2.02-4.99,4.24-1.92,3.89-1.93,8.09-2.31,12.21-.27,2.96-.62,5.87-1.87,8.58-.6,1.31-1.47,2.49-2.26,3.8,1.74.42,3.65-2.4,5.07.74ZM563.92,467.72c-.48.2-.98.48-1.48.49-.59.01-1.18-.23-1.77-.36.48-.53.87-1.26,1.47-1.54,1.29-.61,2.7-.98,4.05-1.48.89-.33,1.74-.8,2.65-1.01,1.01-.24,1.1-.79.81-1.58-.23-.62-.53-1.21-.86-1.95-1.87.89-3.66,1.73-5.44,2.58-2.35,1.12-4.7,2.23-7.03,3.37-.27.13-.62.4-.65.64-.2,1.74-.14,3.45.76,5.04.38.66.86.75,1.46.39,3.54-2.18,7.42-3.61,11.33-4.97,1.6-.55,1.59-.59,1.1-2.36-2.21.95-4.29,1.86-6.39,2.75Z"/>
        <path class="cls-1" d="M588.75,565.52c1.2.39,1.49-.42,1.72-1.21.58-2.01,1.1-4.04,1.66-6.06.14-.52.32-1.03.52-1.53.51-1.34.35-1.61-1.23-1.97-1.55,3.4-2.93,6.83-2.66,10.76Z"/>
        <path class="cls-1" d="M584.46,579.33c1.5.16,1.84-.84,2.09-1.69.55-1.89.93-3.82,1.41-5.73.18-.69.55-1.35.62-2.04.04-.41-.33-.86-.51-1.29-.44.19-1.1.26-1.26.59-.4.82-.63,1.74-.82,2.64-.53,2.47-1.01,4.95-1.53,7.52Z"/>
        <path class="cls-1" d="M573.55,532.42c.84-.33,1.63-.59,2.37-.94,1.13-.54,2.24-1.12,3.35-1.72.24-.13.41-.4.61-.6-.22-.17-.45-.5-.65-.49-.91.06-1.84.14-2.72.35-.59.15-1.1.61-1.69.81-1.13.37-1.65,1.04-1.25,2.59Z"/>
        <path class="cls-1" d="M537.66,394.88c2.24,2.51,5.01,3.54,7.79,4.64,3.65,1.45,7.21,3.1,10.79,4.69,2.36,1.05,4.72,2.1,7.04,3.24,1.23.6,2.35,1.42,3.54,2.1.34.2.78.42,1.13.36.44-.07.83-.43,1.24-.66-.28-.29-.51-.69-.85-.86-3.92-2.01-7.8-4.08-11.8-5.92-3.68-1.69-7.48-3.1-11.22-4.67-1.94-.82-3.84-1.74-5.79-2.54-.57-.24-1.24-.25-1.86-.36Z"/>
        <path class="cls-1" d="M512.97,334.37c-.97-.59-1.94-.25-2.76,1.11-1.14,1.89-2.32,3.75-3.38,5.68-1.2,2.19-2.42,4.4-3.38,6.7-.38.91-.17,2.11-.05,3.15.03.29.69.51.95.69,2.58-6.03,5.42-11.7,8.62-17.33Z"/>
        <path class="cls-1" d="M511.66,380.68c-.88-.5-1.74-1.07-2.66-1.49-2.87-1.31-5.74-2.61-8.66-3.8-.56-.23-1.34.09-2,.15.08,1.26.7,1.67,1.71,1.91,1.29.31,2.54.82,3.77,1.33,1.74.72,3.42,1.56,5.17,2.24.74.28,1.6.27,2.4.39.09-.24.18-.49.27-.73Z"/>
        <path class="cls-1" d="M493.12,368.38c1.01.23,1.66.1,2.18-.75,1.12-1.83,2.39-3.58,3.52-5.4.23-.37.13-.93.18-1.41-.55.03-1.24-.15-1.61.12-.71.52-1.33,1.22-1.81,1.96-1.07,1.66-2.49,3.2-2.46,5.48Z"/>
        <path class="cls-1" d="M535.89,392.98c-2.52-1.1-4.93-2.16-7.34-3.22-.09.13-.18.26-.27.39.26,1.16,1.21,1.81,2.16,2.38,1.07.64,2.21,1.19,3.37,1.68.92.39,1.53-.1,2.08-1.23Z"/>
        <path class="cls-1" d="M517.6,383.86c-.25.25-.61.48-.57.57.18.48.34,1.11.71,1.34,1.32.8,2.7,1.53,4.13,2.13.47.2,1.15-.1,1.74-.16-.31-.41-.54-.91-.94-1.19-1.06-.76-2.15-1.47-3.29-2.11-.52-.29-1.16-.38-1.78-.56Z"/>
        <path class="cls-1" d="M503.39,353.64c-1.14-.84-1.88-.81-2.5.07-.41.58-.9,1.15-1.14,1.81-.16.44.06,1.01.11,1.52.51-.13,1.21-.1,1.49-.43.77-.9,1.35-1.94,2.04-2.98Z"/>
      </g>
      <path class="cls-1" d="M556.44,468.97c.67.63,1.18,1.5,1.62,1.46.79-.06,1.53-.67,2.43-1.11-1.29-1.33-2.44-.84-4.05-.35Z"/>
    </g>
    <g>
      <path class="cls-1" d="M124.04,550.16c-.53-.08-.84-.14-1.14-.17-1.72-.17-1.78.01-2.19,1.68-.58,2.33-1.34,4.62-2.09,6.9-.56,1.7-1.29,3.34-1.82,5.05-.29.94-.84,1.29-1.72,1.35-.67-1.59.44-2.76.89-4.08,1.28-3.81,2.54-7.63,3.86-11.6-1.31-.48-2.39-.88-3.78-1.38-.59,1.53-1.33,2.95-1.63,4.45-.16.8.25,1.71-.78,2.12-.45.18-.99.12-1.49.17-.02-.48-.18-.99-.04-1.42.63-1.95,1.34-3.87,2.1-6-1.26-.55-2.73-1.19-4.43-1.93-.52,1.7-1.02,3.39-1.55,5.08-.74,2.35-1.53,4.68-2.24,7.04-.16.52-.02,1.12-.11,1.67-.06.36-.2.93-.42.99-.52.15-1.12.11-1.66,0-.11-.02-.22-.72-.11-1.04.94-2.91,1.96-5.79,2.89-8.7.56-1.75,1.05-3.52,1.48-5.3.07-.29-.26-.82-.56-1.02-.7-.48-1.48-.83-2.41-1.33-.88,2.49-1.75,4.97-2.63,7.45.1.12.2.24.3.37-.58-.04-1.27.1-1.69-.18-.22-.15-.09-1.03.08-1.52.56-1.65,1.19-3.28,1.81-4.92q.86-2.29-1.46-3.83c-.49,1.44-.84,2.9-1.46,4.23-.83,1.82-1.91,3.53-2.8,5.33-1.15,2.33-2.19,4.72-3.32,7.06-1.45,3.02-2.79,6.11-4.45,9.01-2.3,4.03-3.96,8.35-6.15,12.43-1.36,2.52-2.52,5.16-3.79,7.73-.31.62-.6,1.58-1.49,1.16-.89-.42-.91-1.39-.47-2.22,1.85-3.49,3.79-6.93,5.59-10.44,1.14-2.23,2.03-4.58,3.15-6.83,1.13-2.28,2.44-4.47,3.58-6.75,2.41-4.8,4.84-9.6,7.12-14.46.93-1.97,1.47-4.12,2.2-6.19.21-.59.42-1.18.64-1.76.74-1.95,1.29-4.01,2.27-5.83,1.31-2.42,2.27-5.08,4.41-7.02.87-.79,1.9-1.38,2.45-2.61,1.19-2.69,2.82-5.19,3.91-7.91,2.04-5.1,3.76-10.34,5.74-15.47.64-1.66,1.78-3.12,2.51-4.75.85-1.92,1.47-3.94,2.27-5.89.29-.71.82-1.33,1.21-2.01.48-.85.98-1.69,1.39-2.57,1.45-3.08,1.72-6.35,1.57-9.69-.1-2.41-.08-4.82-.24-7.22-.3-4.63-2.05-8.87-3.59-13.2-1.06-2.97-1.69-6.12-2.21-9.24-.39-2.35.98-4.17,3.14-4.37,1.01-.09,2.33.27,3.08.92,1.44,1.25,2.59,2.85,3.85,4.32.7.81,1.33,1.71,2.11,2.44,1.34,1.28,2.35,1.09,2.92-.62.7-2.12,1.28-4.29,1.73-6.47.72-3.51,1.86-6.84,3.92-9.78.88-1.27,2.32-1.76,3.85-1.52.53.08,1.2.55,1.45,1.03.74,1.41,1.1,2.9.72,4.55-.72,3.13-1.3,6.29-1.94,9.44.13.03.25.06.38.09.33-1.35.65-2.71,1.01-4.05.9-3.42,1.73-6.86,2.77-10.23.8-2.6,2.26-4.88,4.44-6.59,1.56-1.23,3.62-1.03,4.61.58.44.72.49,1.82.37,2.7-.2,1.41-.65,2.79-1.05,4.18-1.26,4.43-2.55,8.85-3.82,13.28.12.04.24.08.36.12.62-1.7,1.42-3.36,1.8-5.11.62-2.84,1.99-5.27,3.65-7.56.99-1.36,2.46-1.64,3.58-1.07,1.03.52,1.73,2.28,1.35,3.86-1.22,5.18-2.15,10.45-4.59,15.27-.35.7-.46,1.51-.41,2.46.28-.33.62-.61.82-.98.97-1.83,1.8-3.73,2.86-5.5.82-1.36,2.04-2.42,3.66-2.8,1.7-.4,2.93.58,3.08,2.3.15,1.82-.37,3.48-1.26,5.01-1.33,2.29-2.79,4.51-4.11,6.81-.98,1.71-1.78,3.54-2.74,5.26-2.63,4.7-5.17,9.47-8.01,14.04-1.92,3.08-4.43,5.73-7.58,7.74-1.35.86-2.73,1.86-3.7,3.1-1.28,1.63-2.64,3.42-1.84,5.79.51,1.51.38,2.97-.67,4.18-1.73,2-2.2,4.46-2.86,6.88-1.33,4.83-2.69,9.65-4.06,14.47-1.07,3.74-2.17,7.48-3.28,11.21-.34,1.15-.9,2.25-1.1,3.42-.25,1.48-.19,3.01-.33,4.51-.1,1.06-.28,2.12-.48,3.17-.2,1.05-.71,1.83-2.13,1.91,1.92,2.59.06,4.57-.85,6.72-.34.81-.58,1.68-.86,2.52-1.33,3.9-2.28,7.88-3.07,11.92-.73,3.72-1.84,7.37-2.7,11.07-.61,2.61-1.07,5.26-1.64,7.88-.2.92-.58,1.79-.77,2.71-.41,2.01-.72,4.04-1.15,6.04-.11.52-.43,1.12-.85,1.42-.41.3-1.05.26-1.6.38.02-.5-.03-1.01.08-1.48.59-2.7,1.21-5.4,1.84-8.09.87-3.7,1.81-7.38,2.64-11.09,1.07-4.76,2.01-9.55,3.1-14.31.37-1.61,1.03-3.14,1.54-4.71.42-1.31.81-2.64,1.26-4.12ZM163.88,432.8c-.17-.03-.33-.06-.5-.1-.29.33-.67.62-.87,1-1.21,2.33-2.43,4.66-3.55,7.03-.92,1.94-1.62,3.98-2.58,5.89-.51,1.02-1.61,1.15-2.62.75-.92-.37-.99-1.17-.73-2.04.56-1.89,1.09-3.79,1.67-5.68.9-2.95,1.89-5.87,2.71-8.85.41-1.49.6-3.06.76-4.6.04-.38-.36-1.05-.7-1.15-.35-.11-.97.18-1.3.49-1.59,1.48-2.95,3.15-3.55,5.28-.94,3.3-1.89,6.6-2.67,9.94-.54,2.33-.91,4.71-2.74,6.45-.41.4-1.2.6-1.79.55-.37-.03-.87-.64-.98-1.07-.17-.71-.2-1.51-.06-2.23.47-2.46,1.11-4.89,1.54-7.35.27-1.55.81-3.08.23-4.75-.4-1.13-1.01-1.04-1.52-.43-.91,1.08-1.89,2.24-2.33,3.53-.85,2.49-1.29,5.12-2.03,7.65-.65,2.21-1.37,4.4-2.27,6.52-.38.9-1.19,1.62-2.46,1.52-1.43-.11-2.66-.54-3.55-1.65-1.63-2.03-3.19-4.12-4.79-6.17-.6-.76-1.43-1.6-2.35-1.07-.62.36-1.03,1.44-1.12,2.25-.39,3.62,1.06,6.93,2.33,10.15,2.08,5.23,3.75,10.48,3.66,16.16-.02.98.04,1.97.01,2.95-.07,2.44.02,4.9-.3,7.31-.43,3.27-.6,3.31,2.41,4.81,2.33,1.16,4.74,2.18,7.15,3.17.43.18,1.38.12,1.52-.14,1.55-2.79,4.36-4.22,6.63-6.22,1.48-1.3,3.21-2.46,4.3-4.04,2.79-4.05,5.38-8.26,7.87-12.5,1.47-2.51,2.52-5.26,3.93-7.8,1.63-2.94,3.51-5.75,5.16-8.68.54-.95.8-2.09.99-3.18.19-1.03-.62-1.57-1.39-.89-1.12.98-2.08,2.19-2.94,3.42-1.17,1.68-2.04,3.57-3.31,5.17-.77.97-2.19.76-3.08.07-.38-.3-.19-1.42-.13-2.15.03-.43.3-.84.46-1.25,1.11-2.89,2.33-5.74,3.29-8.68.7-2.12,1.12-4.34,1.54-6.54.17-.91.03-1.89.03-2.84ZM137.65,499.99c-.75-.23-1.41-.36-2.01-.63-3.46-1.53-6.9-3.09-10.35-4.64-.88-.4-1.77-.83-2.37.4-.85,1.77-1.82,3.5-2.51,5.32-1.16,3.04-2.05,6.19-3.24,9.22-1.07,2.72-2.42,5.33-3.63,7.99-1.01,2.21-1.97,4.44-3.01,6.62-.81,1.7-.8,2.64.72,3.61,3.37,2.16,6.49,4.75,10.4,6.01,1.81.59,3.58,1.31,5.63,2.07,3.62-12.1,7.77-23.78,10.39-35.98ZM125.56,543.49c-.72-.22-1.49-.35-2.15-.7-.26-.14-.28-.74-.41-1.14.6-.11,1.2-.35,1.79-.3.85.07,1.68.35,2.6.56.16-1.32.36-2.34.35-3.36,0-.35-.51-.96-.84-.99-2.64-.26-5.07-1.11-7.44-2.26-4.38-2.14-8.42-4.73-11.77-8.29-1.97.81-2.54,1.74-1.6,3.49.47.88,1.64,1.44,2.58,2.01,1.83,1.14,3.71,2.18,5.57,3.27-.07.16-.13.32-.2.48-1.3.25-2.58.17-3.79-.53-1.92-1.12-3.83-2.27-5.79-3.42-.24.35-.52.62-.63.94-.64,1.78-1.42,3.65-.22,5.41.62.92,1.65,1.65,2.63,2.21,2.15,1.23,4.33,2.44,6.61,3.41,3.15,1.33,6.39,2.46,9.62,3.59,1.45.51,2.72-.21,3.08-1.73.2-.84.03-1.75.03-2.65ZM135.2,490.1c-1.45-.59-1.52-.64-2.32.5-.96,1.37-1.78,2.82-2.75,4.37.67.31,1.27.58,1.83.84,1.13-2,2.16-3.82,3.24-5.72ZM139.29,492.03c-.79,1.69-1.35,3.16-2.14,4.48-.66,1.1-.2,1.41.75,1.38.51-.02,1.13-.3,1.48-.67,1.51-1.61.72-3.26-.09-5.19ZM125.89,492.96c1-2.13,1.98-4.22,3-6.4-1.12-.76-1.81.24-2.34,1.03-.55.83-.62,1.99-1.23,2.74-.98,1.21-.57,1.88.58,2.63ZM131.77,488.41c-.1-.11-.29-.46-.41-.44-.37.07-.87.19-1.03.46-.88,1.49-1.7,3.02-2.47,4.57-.13.27.07.71.12,1.07.36-.17.87-.24,1.04-.52.9-1.47,1.72-2.99,2.56-4.5.08-.15.1-.34.19-.64ZM137.97,491.12c-1.08-.19-3.96,3.59-4.15,5.51,1.36.58,1.31.56,1.89-.75.7-1.58,1.48-3.13,2.26-4.76Z"/>
      <path class="cls-1" d="M110.71,567.27c.34,2.21-.47,4.14-.99,6.09-.9,3.41-1.88,6.8-2.79,10.21-.13.5.09,1.12-.11,1.57-.15.34-.71.5-1.09.74-.17-.34-.55-.73-.49-1.02.73-3.45,1.52-6.88,2.3-10.32.42-1.87.88-3.73,1.28-5.6.2-.95.53-1.71,1.88-1.68Z"/>
      <path class="cls-1" d="M95.5,567.97c-.12-.37-.43-.79-.33-1.09.85-2.68,1.76-5.34,2.68-8,.55-1.6,1.26-3.16,1.7-4.78.28-1.02,1-1.36,1.72-1.16.87.24.67,1.13.4,1.82-.85,2.12-1.76,4.22-2.55,6.36-.68,1.85-1.18,3.76-1.86,5.61-.19.52-.75.91-1.15,1.36-.2-.03-.4-.07-.61-.1Z"/>
      <path class="cls-1" d="M94.19,571.16c-.22.73-.38,1.49-.67,2.2-1.6,3.88-3.22,7.75-4.85,11.62-.15.36-.34.79-.64,1-.29.2-.76.22-1.12.15-.12-.02-.26-.6-.18-.87.33-1.1.7-2.2,1.13-3.27,1.07-2.64,2.07-5.32,3.32-7.88.59-1.21,1.68-2.18,2.54-3.26.16.1.32.2.47.3Z"/>
      <path class="cls-1" d="M100.62,571.2c.6-2.62,1.08-4.98,1.71-7.29.09-.34.88-.5,1.34-.74.2.4.62.85.55,1.19-.49,2.31-1.05,4.61-1.69,6.88-.1.35-.74.75-1.14.76-.29,0-.59-.6-.77-.8Z"/>
      <path class="cls-1" d="M110.36,583.99c.61-2.16,1.1-4,1.68-5.82.14-.43.53-.82.88-1.14.19-.17.55-.15.83-.22.07.32.29.7.19.94-.83,1.98-1.27,4.01-1.1,6.18.02.28-.79.89-1.21.88-.44,0-.88-.55-1.27-.83Z"/>
      <path class="cls-1" d="M113.01,573.08c-.08-4.23,1.2-6.58,3.12-6.27-.41,1.76-.74,3.54-1.3,5.25-.14.42-1.03.6-1.82,1.03Z"/>
      <path class="cls-1" d="M101.53,576.82c-.05.82-.05,1.6-.14,2.37-.08.61-.14,1.28-.44,1.79-.29.48-.89.78-1.36,1.17-.14-.47-.39-.93-.38-1.4.02-.7.32-1.4.34-2.1.02-1.12.46-1.77,1.98-1.82Z"/>
      <path class="cls-1" d="M111.29,557.37c1.98-.2,1.97-.2,1.61,1.65-.1.52-.14,1.06-.15,1.6-.02.76-.46,1.14-1.12.92-.35-.12-.77-.7-.76-1.06.03-1.05.27-2.09.42-3.11Z"/>
      <path class="cls-1" d="M120.37,539.81c-1.06.55-2.07.75-3.1.3-.73-.32-1.42-.76-2.09-1.2-.26-.17-.62-.64-.56-.75.19-.3.6-.72.87-.68,1.81.25,3.59.65,4.87,2.34Z"/>
    </g>
  </g>
</svg>