<?xml version="1.0" encoding="UTF-8"?>
<svg id="Layer_1" data-name="Layer 1" xmlns="http://www.w3.org/2000/svg" viewBox="0 0 737.47 631.69">
  <defs>
    <style>
      .cls-1 {
        fill: #c9da2d;
      }

      .cls-2 {
        fill: #fff;
      }

      .cls-3 {
        fill: #5113f9;
      }

      .cls-4 {
        fill: #92cfa3;
      }

      .cls-5 {
        fill: #f1cf7e;
      }
    </style>
  </defs>
  <path class="cls-1" d="M194.34,83.41c-.32-1.18-1.23-2.45-2.33-3.03-1.18-.62-2.6-.93-3.91-.51-1.17.38-2.53,1.15-3.03,2.33-2.31,5.41-5.17,10.58-8.52,15.41-.72,1.03-.83,2.74-.51,3.91.32,1.18,1.23,2.45,2.33,3.03,2.59,1.37,5.32.51,6.94-1.82,3.35-4.84,6.21-10,8.52-15.42.56-1.31.91-2.48.51-3.91Z"/>
  <g>
    <path class="cls-1" d="M124.89,98.71c-.31-.38-.62-.76-.93-1.15-.12-.14-.23-.29-.34-.43,0,0,0,0,0,0,0,0,0,0,0-.01-.04-.05-.07-.09-.11-.14-.38-.48-.1-.2.05,0-.17-.29-.73-.92-.82-1.04-.29-.4-.58-.79-.87-1.19-1.18-1.65-2.3-3.35-3.36-5.08-2.09-3.41-3.94-6.96-5.55-10.61-.48-1.09-1.94-2.03-3.03-2.33-1.21-.33-2.83-.18-3.91.51-1.08.7-2.04,1.74-2.33,3.03-.32,1.41-.07,2.59.51,3.91,3.47,7.85,8.07,15.07,13.51,21.69,1.69,2.06,5.44,1.88,7.17,0,2.01-2.19,1.8-4.98,0-7.17Z"/>
    <path class="cls-5" d="M123.62,97.14s-.02-.08-.07-.14c.03.05.07.11.06.13,0,0,0,0,0,0Z"/>
  </g>
  <path class="cls-1" d="M80.74,149.81c-3.95-.6-7.85-1.5-11.66-2.73-1.83-.59-3.63-1.26-5.42-1.98-.19-.08-.37-.16-.55-.25-.3-.14-.61-.29-.9-.45-.15-.08-.29-.17-.44-.26,0,0,0,0,0,0-.02-.04-.04-.07-.07-.13-1.27-2.33-4.69-3.27-6.94-1.82-2.37,1.52-3.18,4.45-1.82,6.94,1.17,2.14,3.17,3.65,5.36,4.63,2.26,1.01,4.57,1.93,6.91,2.72,4.18,1.42,8.47,2.45,12.83,3.12,1.4.21,2.64.23,3.91-.51,1.05-.62,2.06-1.82,2.33-3.03.55-2.42-.74-5.81-3.54-6.24Z"/>
  <path class="cls-1" d="M182.86,180.45c6.39-8.87,10.09-19.55,9.98-30.53-.04-3.71-.5-7.47-1.87-10.91-3.37-8.45-11.64-13.87-19.86-17.77-10.32-4.91-21.69-8.37-33.07-7.29-11.38,1.07-22.72,7.37-27.53,17.73-1.89,4.07-2.71,8.54-3.52,12.95-4.14,22.61,9.68,47.51,33.29,52.02,10.28,1.96,20.5-1.13,30.2-.68,3.82.18,3.36-2.68,5.19-4.58,1.86-1.93,4.96-7.85,7.02-10.67.06-.09.12-.17.19-.26Z"/>
  <g>
    <path d="M1.32,340.55c-.12-.26.66-1.05.8-1.29.33-.56.56-1.17.9-1.73.85-1.39,1.76-2.77,2.7-4.1.87-1.22,1.55-2.49,2.16-3.86s1.44-2.55,2.27-3.84c1.68-2.61,3.28-5.15,4.7-7.92.64-1.25,1.45-2.33,2.2-3.5.84-1.31,1.29-2.84,2.15-4.13.76-1.13,1.68-2.12,2.4-3.28.85-1.37,1.67-2.68,2.68-3.94.84-1.05,1.34-2.3,2.18-3.34.94-1.18,1.9-2.34,2.82-3.55,2.01-2.63,4.1-5.14,6.28-7.64,2.05-2.34,3.91-4.84,6-7.15,1-1.1,2.08-2.12,3.03-3.26s1.88-2.48,2.9-3.65c1.96-2.25,4.18-4.47,6.42-6.45s4.73-3.52,6.85-5.6c1.05-1.03,2.26-1.87,3.37-2.83,1.26-1.09,2.44-2.27,3.58-3.49,1-1.06,1.78-2.36,2.96-3.21s1.96-2.09,2.95-3.13,1.97-2.09,3.07-3.01c1.19-.99,2.41-1.87,3.52-2.96.98-.96,2.06-1.83,2.98-2.85,1.08-1.21,2.18-2.28,3.45-3.3s2.52-2.12,3.86-3.07c1.23-.87,2.53-1.64,3.71-2.57,5.46-4.29,11.32-8.04,17.1-11.87,1.35-.9,2.81-1.49,4.24-2.25,1.31-.7,2.44-1.69,3.6-2.6,1.48-1.17,3-1.96,4.76-2.64,1.6-.62,3.03-1.39,4.56-2.15.56-.28.32-1.3-.33-1.23l-.2.02c-.83.09-.84,1.41,0,1.32l.2-.02-.33-1.23c-1.57.78-3.05,1.54-4.68,2.19-1.37.54-2.65,1.13-3.84,2-1.05.77-2.02,1.64-3.08,2.39-1.25.88-2.67,1.4-4,2.14s-2.48,1.65-3.74,2.48c-1.45.96-2.93,1.88-4.4,2.81-2.64,1.67-5.02,3.66-7.61,5.4-1.17.78-2.25,1.64-3.37,2.49-1.28.96-2.66,1.75-3.93,2.72s-2.53,2.05-3.8,3.06-2.25,2.13-3.35,3.3c-.94,1-2.02,1.88-3,2.84-1.11,1.08-2.39,1.93-3.55,2.95-1.07.94-2.08,1.99-3.04,3.04-.54.58-1.01,1.22-1.54,1.81-.5.56-1.11.9-1.66,1.38-1.14.98-1.98,2.41-3.05,3.5-1.16,1.19-2.34,2.34-3.62,3.39-1.13.93-2.25,1.82-3.29,2.86s-2.36,1.82-3.52,2.79-2.43,1.9-3.54,2.98c-1.23,1.19-2.41,2.42-3.63,3.62-2.22,2.19-3.91,4.79-6.05,7.03s-4.23,4.74-6.27,7.21-4.28,4.87-6.28,7.44c-.88,1.13-1.74,2.28-2.62,3.42-.93,1.21-2.06,2.32-2.81,3.65-.7,1.24-1.54,2.26-2.37,3.4-.95,1.32-1.64,2.8-2.62,4.1-1.03,1.38-1.85,2.56-2.61,4.12s-1.76,2.78-2.6,4.22-1.59,3.13-2.45,4.66-1.89,2.93-2.84,4.4c-.88,1.35-1.7,2.55-2.36,4.03-.74,1.67-1.7,3.09-2.74,4.58-.97,1.38-1.91,2.88-2.66,4.38-.59,1.17-1.67,1.79-1.07,3.14.34.77,1.48.1,1.14-.67h0Z"/>
    <path d="M3.45,339.13c-.15-.07-.29-.17-.44-.24s-.29-.12-.46-.12c-.15,0-.32.05-.46.13-.11.07-.21.15-.29.25-.09.11-.18.22-.25.35-.12.21-.21.44-.29.67-.08.21-.15.43-.24.64l.07-.16s-.03.07-.05.11l1.23.33c0-.07.01-.13.02-.2.01-.16-.08-.36-.19-.47s-.3-.2-.47-.19-.35.06-.47.19-.18.28-.19.47c0,.07-.01.13-.02.2l.02.18c.02.09.06.16.12.22.08.11.2.2.34.24.12.03.23.03.35,0,.14-.03.33-.17.39-.3.17-.38.29-.78.45-1.16l-.07.16c.07-.16.14-.31.24-.44l-.1.13c.05-.06.09-.12.15-.16l-.13.1s.04-.03.07-.04l-.16.07s.03-.01.05-.02l-.18.02s.04,0,.06,0l-.18-.02s.05.01.08.02l-.16-.07c.16.07.3.18.46.25s.33.12.51.07c.15-.04.32-.16.39-.3.08-.15.12-.34.07-.51-.05-.16-.15-.32-.3-.39h0Z"/>
    <path d="M88.77,385.91l-.19-.3v.67c1.59-2.93,2.89-6.04,4.28-9.09s3.16-6.1,4.27-9.32c.54-1.54,1.37-2.92,2.07-4.39.79-1.68,1.77-3.23,2.82-4.76.93-1.35,1.65-2.79,2.37-4.27.8-1.65,1.75-3.16,2.81-4.66,1.93-2.76,3.71-5.79,5.23-8.8,1.6-3.16,2.96-6.43,4.66-9.55.78-1.43,1.6-2.83,2.34-4.28.79-1.55,1.38-3.19,2.13-4.75.68-1.41,1.64-2.76,2.45-4.11.98-1.64,1.9-3.24,3.09-4.74,2.09-2.64,3.78-5.48,5.5-8.36.5-.84,1.17-1.51,1.74-2.29.34-.47.53-1,.8-1.51.8-1.53,2.39-2.78,3.51-4.1.89-1.03,1.46-2.25,2.26-3.34.39-.53.88-.97,1.28-1.5.55-.74.97-1.56,1.49-2.32.86-1.25,1.78-2.42,2.72-3.62s1.8-2.65,2.74-3.93c1.03-1.4,1.77-3.03,2.93-4.33,1.01-1.13,1.97-2.08,2.82-3.36,1.83-2.76,4.16-4.88,6.44-7.24s5.73-2.42,8.68-3.4c1.57-.52,3.12-1.1,4.72-1.51,1.82-.47,3.66-.8,5.48-1.3,3.9-1.09,7.82-2.16,11.69-3.36,1.65-.51,3.25-1.21,4.93-1.61,1.38-.33,2.8-1.19,3.94-2.04,1.04-.77,1.43-2.1,1.87-3.27.5-1.33.64-2.96.21-4.34s-1.69-2.64-2.71-3.57c-.52-.47-1.13-.67-1.74-.99s-1.09-.86-1.81-1.03c-.82-.2-1.18,1.07-.35,1.27.65.16,1.22.76,1.83,1.05.65.31,1.16.62,1.65,1.18.43.49.91.97,1.32,1.48.68.84.78,1.89.71,2.94-.08,1.13-.58,2.77-1.25,3.72-.4.57-1.09.86-1.68,1.21-.84.49-1.58.94-2.54,1.16-1.32.31-2.56.87-3.85,1.29-1.76.57-3.54,1.05-5.32,1.55-3.33.92-6.62,2.02-9.99,2.79-1.65.38-3.27.71-4.89,1.24-1.52.5-3.02,1.08-4.56,1.49-2.68.7-5.24,1.03-7.25,3.12-2.18,2.26-4.49,4.32-6.26,6.94-.85,1.25-1.68,2.32-2.74,3.4-1.18,1.2-1.94,2.75-2.88,4.13-1.69,2.48-3.59,4.79-5.26,7.28-.85,1.26-1.64,2.64-2.63,3.79-.89,1.04-1.53,2.2-2.3,3.32-.93,1.34-2.17,2.53-3.28,3.72-1.02,1.1-1.49,2.5-2.47,3.64s-1.7,2.63-2.47,3.98c-.85,1.5-1.89,2.84-2.88,4.25-.88,1.25-1.92,2.39-2.73,3.68-.98,1.56-1.84,3.22-2.79,4.8-1.68,2.78-2.79,5.81-4.37,8.66-1.68,3.04-3.32,6.08-4.74,9.26-1.33,2.97-2.98,5.71-4.6,8.52-.99,1.71-2.15,3.27-3.21,4.93-.97,1.52-1.66,3.18-2.5,4.77s-1.97,3.02-2.9,4.58-1.79,3.38-2.67,5.06c-.79,1.53-1.18,3.23-1.94,4.78-.9,1.82-1.82,3.61-2.65,5.47-1.49,3.33-2.93,6.74-4.67,9.93-.11.2-.13.46,0,.67l.19.3c.45.71,1.6.05,1.14-.67h0Z"/>
    <path d="M151.93,254.26l-.39-.04.39.97c.31-.58,1.08-.89,1.59-1.29.84-.66,1.5-1.52,2.29-2.23s1.74-1.2,2.65-1.8c.86-.56,1.59-1.28,2.49-1.78.82-.46,1.69-.8,2.53-1.2s1.5-.92,2.28-1.33c1.97-1.05,4.21-1.37,6.36-1.81.92-.19,1.91-.24,2.8-.56.36-.13.65-.35.99-.51.47-.21.98-.24,1.45-.43.86-.35,1.57-1,2.37-1.45.85-.47,1.77-.81,2.61-1.29,1.53-.88,2.51-2.11,3.46-3.56s1.49-2.61.84-4.39c-.27-.73-.69-1.33-1.25-1.86-.68-.64-1.25-1.39-1.96-1.99-.67-.57-1.43-1.08-2.22-1.45s-1.2-1.06-1.91-1.49c-1.66-1-3.67-1.33-5.53-1.77-2.15-.5-4.01-1.5-6-2.43s-3.83-1.17-5.9-1.48-4.09-.62-6.15-.87-4.24-.7-6.36-.71-4.31-.25-6.37.1c-2.2.38-4.27,1.57-6.31,2.42-.85.35-1.81.68-2.52,1.29-.37.32-.66.73-1.03,1.05-.46.4-1.01.67-1.47,1.07-.84.72-1.78,1.34-2.59,2.1s-1.55,1.7-2.47,2.42c-.81.63-1.32,1.19-1.96,1.99-.3.37-.68.62-1.01.96-.44.46-.73.94-1.31,1.25-.71.39-.18,1.3.51,1.21,1.7-.24,3.83-1.63,4.9-2.97,1.36-1.7,2.79-3.87,4.98-4.52l-.51-1.21c-.35.23-.7.45-1.07.65-.74.41-.08,1.55.67,1.14.37-.2.72-.42,1.07-.65.6-.4.24-1.43-.51-1.21-1.95.58-3.21,2.05-4.51,3.52-.74.83-1.29,1.75-2.22,2.39s-1.96,1.42-3.15,1.58l.51,1.21c.67-.37,1.06-.92,1.58-1.46s1.04-.99,1.49-1.62c.54-.74,1.37-1.18,2.04-1.79.72-.66,1.32-1.45,2.06-2.09,1.35-1.16,2.96-2.06,4.22-3.32,1.38-1.38,3.18-1.88,4.94-2.67,2.07-.93,3.83-1.53,6.12-1.54s4.45-.1,6.61.28c3.86.68,7.78.96,11.65,1.59,2.08.34,3.84,1.29,5.71,2.19,1.71.82,3.43,1.29,5.28,1.72.91.21,1.83.43,2.7.77,1.01.4,1.54.95,2.35,1.6.58.47,1.32.69,1.94,1.12.89.61,1.48,1.36,2.23,2.1s1.4,1.24,1.63,2.33-.18,1.73-.77,2.62c-1.12,1.68-2.25,2.88-4.09,3.77-.81.39-1.61.75-2.36,1.24-.45.29-.88.63-1.37.85-.4.18-.81.2-1.23.35-.83.29-1.46.74-2.35.89-.99.17-1.98.36-2.97.54-1.97.36-4.08.89-5.79,1.96s-3.61,1.65-5.2,2.8-3.44,2.15-4.87,3.53c-.76.73-1.42,1.53-2.29,2.14-.56.39-1.16.74-1.49,1.36-.2.38-.03.85.39.97.31.09.43.11.74.08.84-.06.85-1.38,0-1.32h0Z"/>
    <path d="M23.24,305.29c1.18.87,2.43,1.6,3.58,2.51,1.2.97,2.64,1.58,3.83,2.57,1,.84,1.7,1.96,2.69,2.8,1.12.95,2.46,1.6,3.6,2.54,2.45,2.01,5.12,3.69,7.57,5.7,2.31,1.9,4.37,3.96,7.18,5.1,3.09,1.25,5.72,2.9,8.51,4.68,1.28.82,2.49,1.74,3.78,2.53,1.37.85,2.87,1.42,4.21,2.31,2.53,1.68,5.11,3.25,7.66,4.89,1.3.83,2.68,1.59,4.04,2.32s2.82.99,4.26,1.56c1.73.67,3.43,1.4,5.19,1.99.86.29,1.78.47,2.63.8.78.3,1.45.82,2.25,1.09,1.41.49,3.08.59,4.57.59.94,0,1.87-.07,2.81.05.86.11,1.7.32,2.57.36.38.02.63-.32.66-.66l.03-.42c.07-.85-1.25-.84-1.32,0l-.03.42.66-.66c-1.43-.06-2.78-.44-4.23-.42-1.65.01-3.37.05-4.97-.41-.76-.22-1.39-.65-2.09-.98-.59-.28-1.22-.42-1.85-.61-1.63-.48-3.23-1.08-4.8-1.7-1.4-.56-2.8-.95-4.21-1.44-1.6-.56-3.13-1.6-4.59-2.45-1.22-.71-2.34-1.57-3.56-2.28-1.35-.79-2.67-1.55-3.96-2.44-1.2-.83-2.41-1.55-3.72-2.21-1.48-.74-2.78-1.72-4.16-2.62-2.59-1.68-5.15-3.54-8-4.76-1.33-.57-2.74-.98-3.97-1.77-1.41-.91-2.64-2.14-3.93-3.21-2.43-2.03-5.13-3.68-7.57-5.69-1.13-.93-2.25-1.71-3.46-2.52-1.4-.94-2.26-2.32-3.53-3.4s-2.82-1.76-4.12-2.81c-1.13-.92-2.38-1.61-3.55-2.48-.68-.51-1.34.64-.67,1.14h0Z"/>
    <path d="M124.53,206.72c-.64-.81-1.39-1.49-2.23-2.09-.89-.64-1.95-1.07-2.69-1.89-1.41-1.55-3.28-2.53-5.06-3.6-1.95-1.17-3.91-2.29-5.74-3.66-1.97-1.47-3.19-3.74-4.48-5.79-.62-.99-1.24-2-1.81-3.01-.69-1.23-.9-2.65-1.29-4-.7-2.45-1.24-5.11-1.42-7.66s.02-5.27.02-7.88c0-1.19-.09-2.41-.02-3.6.09-1.49.57-3,.93-4.44.3-1.2.7-2.32,1.18-3.45s.61-2.33,1.09-3.4c1-2.23,2.49-4.2,3.97-6.13,1.64-2.14,3.56-3.91,5.65-5.59.98-.78,1.97-1.54,2.95-2.32s1.97-1.77,3.05-2.5c1.01-.69,2.29-1.01,3.42-1.49,1.26-.55,2.5-1.14,3.75-1.7,2.47-1.11,5.2-1.53,7.76-2.41,1.04-.36,2.08-.76,3.19-.82,1.44-.08,2.9-.04,4.35-.04,2.74,0,5.48.03,8.21.04,2.97.01,6.03-.23,8.95.24s5.81,1.17,8.62,2.18c1.24.44,2.39.73,3.54,1.38.5.29,1.04.42,1.57.65.57.25,1.06.63,1.62.89,1.26.59,2.55,1,3.65,1.88s2.21,1.94,3.25,2.96c.6.6,1.54-.33.93-.93-1.84-1.81-3.68-3.59-6.08-4.6-.99-.42-1.89-1.01-2.88-1.43-.53-.23-1.06-.36-1.56-.65-.44-.26-.85-.55-1.33-.72-2.54-.89-5.16-1.6-7.76-2.27s-5.21-.89-7.93-.89-5.65,0-8.47-.03c-2.98-.02-6.08-.24-9.05.04-2.36.22-4.71,1.37-7,1.98-2.67.71-5.04,1.79-7.57,2.91-1.2.53-2.58.88-3.7,1.58-1,.63-1.84,1.49-2.75,2.23-2.24,1.81-4.6,3.49-6.68,5.48-1.9,1.81-3.4,4-4.93,6.11-.7.96-1.24,2.05-1.79,3.1-.48.93-.58,1.98-.93,2.96-.98,2.7-1.96,5.31-2.43,8.17-.19,1.14-.09,2.29-.09,3.44,0,1.51,0,3.02,0,4.52,0,2.66-.12,5.33.4,7.96s1,5.4,1.95,7.85c1.01,2.58,2.98,4.82,4.37,7.2,1.28,2.2,3.4,3.45,5.44,4.86,1.2.82,2.5,1.46,3.72,2.25,1.12.73,2.44,1.3,3.44,2.19.82.73,1.4,1.49,2.36,2.05,1.3.76,2.47,1.63,3.41,2.82.53.66,1.46-.27.93-.93h0Z"/>
    <path d="M106.08,95.65c.58,1.93,1.39,3.76,2.28,5.56s1.68,3.88,2.74,5.71,2.24,3.47,3.12,5.35c.76,1.62,1.36,3.3,2.75,4.5.8.69,1.97-.47,1.17-1.17-1.32-1.13-1.83-2.78-2.55-4.3-.87-1.83-2.04-3.46-3.05-5.21s-1.7-3.59-2.57-5.38-1.7-3.58-2.28-5.5c-.3-1.01-1.9-.58-1.59.44h0Z"/>
    <path d="M55.88,159.69c2.02,0,3.8.87,5.65,1.59,2.08.82,4.19,1.52,6.3,2.25,1.76.61,3.5,1.2,5.28,1.74,1.37.42,3.08.85,4.13,1.89.75.75,1.92-.41,1.17-1.17-1.07-1.07-2.66-1.6-4.06-2.06-1.9-.63-3.81-1.19-5.7-1.86-2.23-.79-4.47-1.52-6.67-2.38-2-.78-3.9-1.66-6.08-1.65-1.06,0-1.06,1.65,0,1.65h0Z"/>
    <path d="M180.02,105.31c-.75-.2-1.61-.12-2,.64-.16.31-.21.65-.24,1-.01.14-.02.28-.04.41,0,.06-.01.13-.02.19.02-.18-.01.05-.02.07-.46,2.02-1.31,3.89-2.17,5.77-.18.4-.12.89.3,1.13.35.21.94.11,1.13-.3.78-1.7,1.58-3.41,2.1-5.22.19-.66.3-1.3.36-1.99,0,0,.03-.22.01-.11s.02-.07.02-.09c0-.03.06-.2.01-.08-.04.11.02-.04.04-.06-.05.04-.09.1-.14.14-.1.03-.12.04-.06.02.04-.01.04-.01-.01,0-.09-.04.08,0,.12,0-.13-.01.19.05.18.05,1.03.28,1.46-1.31.44-1.59h0Z"/>
    <path d="M207.47,270.5c-.22,0-.43,0-.65.02l.58,1.41c.48-.55,1.69-.22,2.33-.18.9.05,1.81-.07,2.7-.22,2.37-.4,4.62-1.29,7-1.6,2.52-.33,4.87-.71,7.29-1.53s4.73-1.45,7.18-1.99c5.06-1.12,10.09-2.41,15.17-3.48s10.34-1.83,15.5-2.84c2.41-.48,4.77-1.18,7.21-1.57s4.68-1.18,7.05-1.88c4.89-1.45,9.93-2.55,14.92-3.65,4.82-1.06,9.46-2.49,14.16-3.95,2.32-.72,4.72-.85,7.05-1.51,1.04-.29,2.12-.34,3.18-.57,1.25-.27,2.48-.66,3.76-.82s2.6-.09,3.9-.29,2.7-.55,4.04-.84,2.77-.3,4.12-.61c.66-.15,1.27-.45,1.95-.54.52-.07,1.04-.05,1.56-.13,2.63-.41,5.03-1.43,7.59-2.05,1.49-.37,4.08-.45,4.71-2.12.37-.99-1.22-1.42-1.59-.44-.13.33-1.77.53-2.1.62-1.1.3-2.18.54-3.26.93-2.22.81-4.56,1.32-6.91,1.55-1.02.1-1.93.54-2.94.69-1.27.19-2.53.29-3.79.57-1.12.25-2.24.53-3.37.72-1.34.23-2.68.15-4.02.31-1.02.12-2.02.38-3.01.62-1.21.3-2.44.39-3.64.66-1.08.24-2.1.61-3.2.76-1.21.16-2.39.26-3.57.62-4.6,1.42-9.14,2.97-13.86,3.98-5.01,1.08-10.04,2.23-14.99,3.59-2.37.65-4.63,1.6-7.07,2.02s-4.77.99-7.16,1.51c-4.96,1.09-10.01,1.76-14.99,2.74-5.08,1.01-10.11,2.33-15.16,3.45-2.77.61-5.5,1.22-8.19,2.14-1.3.44-2.61.9-3.96,1.19s-2.83.39-4.24.59c-2.53.37-4.91,1.37-7.46,1.67-1.55.18-3.88-.61-5.06.73-.44.5-.17,1.44.58,1.41.22-.01.43-.02.65-.02,1.06-.01,1.06-1.66,0-1.65h0Z"/>
    <path d="M354.03,174.46l-.25-.36-.93,1.21c.19.03.37,1.2.43,1.39.2.62.54,1.16.86,1.72.49.87,1.09,1.77,1.19,2.79.1.95-.13,1.89-.02,2.85.45,3.66,1.86,7.19,2.8,10.74.46,1.76,1.09,3.47,1.56,5.22s.75,3.56,1.01,5.36c.53,3.73,1.2,7.33,2.06,10.99.41,1.75.8,3.48,1.3,5.21.21.73.38,1.46.69,2.15.33.75,1.26,1.74,1.16,2.61-.11.93-1.43,1.59-2.11,2.08s-1.41.98-2.11,1.47c-1.34.94-2.67,1.9-3.88,3s-2.7,2.02-3.97,3.14c-1.54,1.35-2.96,2.82-4.59,4.08-1.3,1-2.64,1.94-3.77,3.15-1.26,1.35-2.31,2.73-3.29,4.28-.78,1.24-1.97,2.17-2.58,3.52-.51,1.12-.66,2.46-.43,3.66.59,3.09,3.51,3.49,6.14,3.86,1.7.24,3.4.26,5.12.21.79-.03,1.6-.03,2.39-.14,1.06-.15,2.04-.54,3.11-.64,1.74-.16,3.36-.64,5.08-.92s3.56-.56,5.32-.93c3.79-.79,7.49-2.05,11.3-2.71,1.79-.31,3.58-.55,5.36-.9s3.46-.65,5.22-.63c1.03.01,1.57.29,1.93,1.29.26.71.37,1.47.6,2.19.5,1.55,1.43,2.86,2.32,4.2.99,1.49,1.87,3.06,2.82,4.58s2.01,2.88,2.93,4.38c.97,1.59,1.37,3.41,2.25,5.05.93,1.74,2.01,3.41,3.18,4.99s2.03,3.26,2.99,4.89,2.17,3.54,2.86,5.38c.32.85.59,1.65,1.07,2.43.39.63.81,1.19,1.03,1.9.34,1.09.49,2.23.8,3.33.59,2.1,1.73,3.99,4.17,3.64,1.05-.15.6-1.74-.44-1.59-2.03.29-2.36-3.4-2.67-4.73-.22-.98-.49-1.84-1.02-2.7-.48-.79-.9-1.48-1.22-2.35-.26-.7-.52-1.36-.88-2.01-1.74-3.14-3.38-6.49-5.53-9.38-1.01-1.35-1.89-2.82-2.72-4.29s-1.15-2.95-1.87-4.38-1.66-2.62-2.53-3.9c-1.1-1.61-2.04-3.31-3.07-4.96-.94-1.5-2.16-2.93-2.77-4.61-.47-1.27-.54-2.75-1.38-3.86-.78-1.02-1.98-1.19-3.2-1.15-1.67.05-3.3.28-4.94.6-3.57.71-7.14,1.17-10.66,2.13-3.72,1.02-7.47,1.84-11.28,2.43-1.72.26-3.34.77-5.07.93-.81.07-1.57.24-2.36.44-1.04.27-2.08.31-3.15.34-1.78.06-3.52.01-5.29-.23-1.52-.21-3.56-.3-4.21-1.96-.51-1.3-.14-2.91.65-4,.44-.61,1.01-1.13,1.46-1.73.53-.7.89-1.49,1.39-2.2,2.15-3.08,5.3-4.99,8.03-7.46,1.33-1.2,2.57-2.46,4.04-3.5s2.8-2.36,4.27-3.47c1.37-1.03,2.81-1.96,4.2-2.97,1.04-.76,2.37-1.55,2.55-2.94.2-1.51-.93-2.62-1.42-3.94-.65-1.75-1.1-3.64-1.47-5.46-.42-2.04-1.01-4.03-1.4-6.08-.36-1.92-.61-3.85-.88-5.78-.29-2.1-.61-4.2-1.19-6.24s-1.25-4.05-1.78-6.11c-.49-1.88-1.18-3.7-1.67-5.58-.26-.98-.46-2-.63-3-.19-1.1,0-2.14-.08-3.25-.12-1.91-1.51-3.23-2.11-4.95-.31-.88-.41-2.37-1.59-2.54-.62-.09-1.4.55-.93,1.21l.25.36c.61.86,2.04.04,1.42-.83h0Z"/>
    <g>
      <path class="cls-3" d="M361.41,493.29c3.74,1.94,7.33,3.85,10.97,5.67,3.17,1.58,5.01,4.22,6.23,7.41.65,1.7.22,3.28-.63,4.76-1.18,2.07-2.94,3.48-5.17,4.38-4.19,1.69-8.55,1.69-12.97,1.55-5.46-.17-10.94-.13-16.4-.06-1.57.02-3.14.39-4.69.71-1.8.37-3.42,1.16-4.63,2.58-1.73,2.02-3.51,4.01-5.11,6.14-3.06,4.09-6.01,8.27-9,12.42-.46.64-.89,1.22-.72,2.15.2,1.08-.54,1.65-1.51,2.05-.62.25-1.28.67-1.65,1.2-2.88,4.05-5.72,8.12-8.51,12.23-.56.82-.85,1.81-1.3,2.71-1.02,2.06-1.64,4.54-3.19,6.07-3.06,3.02-4.37,6.9-6.3,10.48-.24.44-.4,1.02-.77,1.27-.48.32-1.19.59-1.7.46-.39-.09-.9-.87-.86-1.29.14-1.4.36-2.84.83-4.16.55-1.54,1.39-2.98,2.17-4.6-3.94-1.42-7.5-3.34-11.58-4.24-5.81-1.28-11.55-3.02-17-5.56-4.3-2.01-8.67-3.89-13.01-5.82-8.52-3.79-16.51-8.49-23.94-14.13-1.43-1.09-2.97-2.05-4.36-3.19-3.11-2.56-6.2-5.14-9.22-7.81-3.55-3.14-7.04-6.37-10.52-9.59-.99-.92-1.87-1.95-2.89-3.03-.39.37-.66.57-.88.83-2.53,3.04-5.06,6.1-7.59,9.14-.6.72-1.11,1.41-1.2,2.45-.06.72-.62,1.42-1.03,2.08-.84,1.33-1.74,2.62-2.66,3.99.43.49.72.88,1.08,1.21,4.1,3.74,8.24,7.42,12.3,11.2,5.19,4.83,10.94,8.88,16.98,12.57,2.2,1.35,4.28,2.92,6.35,4.47,1.01.75,2.18,1.44,2.2,3,0,.29.53.63.87.86,2.23,1.58,4.5,3.11,6.7,4.73.8.59,1.56,1.3,2.11,2.11.28.42.3,1.36,0,1.73-.28.36-1.14.44-1.69.35-.53-.09-1-.54-1.48-.86-4.57-3.14-9.14-6.28-13.69-9.44-.52-.36-1.14-.8-1.35-1.35-.96-2.53-3.41-3.34-5.3-4.78-.72-.55-1.69-.79-2.36-1.39-3.6-3.23-7.44-6.13-11.5-8.75-4.9-3.17-9.67-6.52-13.49-11.27-.9,1.05-2.29,1-3.04,2.25-.56.93-1.49.26-2.25-.24-.86-.57-1.45-1.19-1.04-2.3.07-.2.19-.4.35-.54,1.74-1.44,2.33-3.57,3.35-5.46.78-1.45,1.75-2.81,2.7-4.15,1.49-2.11,3.18-4.1,4.54-6.28,2.64-4.24,5.82-8.02,9.19-11.68.81-.88,2.13-1.58,1.54-3.25-.12-.33.48-.97.84-1.39,1.03-1.2,2.22-2.28,3.13-3.57,4.53-6.36,9.85-12.03,15.1-17.76.57-.62.86-1.16.8-2.07-.08-1.22.62-1.62,1.8-1.39,1.01.2,2.03.37,3.06.49.24.03.57-.13.77-.31,2.76-2.48,5.5-4.98,8.24-7.48-.08-.17-.16-.34-.25-.5-1.95.27-3.92.47-5.86.83-7.57,1.41-15.13,2.85-22.68,4.34-1.69.33-3.35.84-4.99,1.38-.55.18-1.06.63-1.46,1.07-.81.87-1.62,1.11-2.36.27-.93-1.05-1.88-2.11-2.11-3.64-.31-2.13-.8-4.23-1.17-6.35-1-5.74-2.08-11.47-2.92-17.24-.78-5.34-1.27-10.72-1.92-16.07-.76-6.22-2.07-12.32-3.61-18.4-2.61-10.32-4.66-20.78-7.03-31.16-.91-4-2.19-7.91-3.02-11.92-1.05-5.07-1.76-10.21-2.74-15.3-1.06-5.51-2.27-10.99-3.41-16.49-3.43-16.56-6.85-33.12-10.29-49.68-.53-2.53-1.11-5.05-1.72-7.57-.11-.45-.56-.8-.73-1.24-.17-.42-.22-.91-.24-1.37-.02-.39.18-.8.09-1.16-.42-1.68.51-3.08,2.15-3.39,2.75-.52,5.52-.97,8.2-1.75,6.44-1.86,12.9-3.52,19.52-4.61,3.75-.62,7.42-1.73,11.16-2.45,2.4-.46,4.84-.73,7.28-.91,3.05-.23,5.98-.91,8.81-1.99,4.46-1.7,9.07-2.72,13.75-3.64,4.51-.89,8.93-2.23,13.37-3.45,8.33-2.27,16.66-4.56,24.96-6.92,5.34-1.51,10.78-2.49,16.25-3.42,6.45-1.09,12.81-2.71,19.24-3.91,13.23-2.48,26.48-4.83,39.71-7.28,1.48-.27,2.93-.73,4.37-1.18,2.66-.84,5.32-1.7,7.94-2.66.85-.31,1.62-.89,2.35-1.44,3.25-2.47,5.57-5.8,8.24-8.82.61-.69.65-1.33.38-2.16-1.7-5.2-3.5-10.35-5.55-15.43-3.1-7.67-5.95-15.44-8.79-23.21-.66-1.81-.86-3.78-1.3-5.67-.4-1.68.49-2.92,1.41-4.11.27-.34.89-.66,1.29-.6,1.4.2,2.81.47,4.16.89,1.23.38,2.36,1.04,3.57,1.49,3.91,1.43,7.89,2.69,11.74,4.27,2.65,1.08,5.15,2.53,7.66,3.91,2.96,1.63,5.81,3.49,8.82,5.02,1.9.96,4.02,1.5,6.18,2.28,3.66-3.21,7.78-5.91,10.73-9.89,3.36-4.53,7.34-8.48,11.42-12.36,2.19-2.08,4.13-4.41,6.21-6.59.69-.72,1.45-1.41,2.27-1.99,3.65-2.56,4.92-1.46,7.28,1.88.67.95.86,2.25,1.35,3.63.64-.11,1.34-.18,2-.35,4.52-1.2,9-2.53,13.54-3.6,7.35-1.73,13.87-5.28,19.93-9.54,3.67-2.58,6.86-5.92,10.04-9.14,6.58-6.67,12.43-13.99,18.17-21.39.62-.8,1.27-1.58,1.8-2.43,3.51-5.64,7.84-10.67,11.81-15.96,3.93-5.23,7.35-10.83,11.04-16.25,4.17-6.13,8.37-12.24,12.57-18.35,1.1-1.6,2.2-3.19,3.35-4.74.69-.93.67-1.79.16-2.8-.89-1.74-.82-1.76.97-2.66.42-.21.79-.58,1.08-.96,1.02-1.3,1.89-2.74,3.02-3.94,1.32-1.4,2.82-2.64,4.32-3.85.34-.27,1.18-.35,1.51-.13,1.39.95,1.22,3.67-.13,4.63-.68.48-1.34,1.09-1.78,1.78-.93,1.45-1.7,3-2.54,4.51.27,1.12.93,1.81,1.95,2.37,9.19,5.03,17.56,11.26,25.69,17.83,2.24,1.81,4.46,3.64,6.76,5.37,6.72,5.05,12.57,10.97,17.86,17.48,2.09,2.57,4.21,5.11,6.42,7.57,3.35,3.74,6.84,7.37,9.71,11.86.69-.88,1.32-1.56,1.81-2.32,2.1-3.27,4.09-6.61,6.24-9.85,1.1-1.66,2.46-3.15,3.71-4.71.09-.11.26-.18.3-.3.79-2.3,3.02-3.54,4.13-5.66.48-.93,1.8-1.62,2.88-1.98,1.46-.48,2.33.52,1.71,1.89-.91,2.01-1.8,4.09-3.1,5.84-5.32,7.16-10.7,14.28-16.38,21.16-1.16,1.41-2.16,2.8-3.96,3.41-.39.13-.91.44-1,.77-.55,2.11-2.57,2.97-3.76,4.52-1.22,1.6-2.51,3.16-3.84,4.67-8.45,9.63-17.5,18.71-26.11,28.2-6.78,7.48-14.11,14.4-21.15,21.61-2.87,2.94-5.71,5.9-8.52,8.89-6.18,6.58-13.07,12.37-19.96,18.16-4.12,3.47-8.6,6.52-13.03,9.6-4.54,3.17-9.15,6.26-13.86,9.17-2.24,1.39-4.75,2.35-7.19,3.39-2.84,1.22-5.78,2.23-8.59,3.51-2.33,1.06-4.72,1.72-7.24,1.88-1.88,2.12-4.23,3.45-7.01,3.52-5.77.15-11.46,1.01-17.18,1.64-3.43.38-6.9.38-10.35.6-1.13.07-2.25.31-3.47.49.11.75.17,1.31.27,1.86,1.42,7.71,2.98,15.4,4.24,23.14,1.08,6.6,1.67,13.29,2.74,19.89,1.4,8.66,3.06,17.29,4.62,25.93,1.08,5.95,2.17,11.89,3.27,17.84.26,1.4.6,2.79,1.26,4.26.3-.61.66-1.2.9-1.83,2.97-7.91,9.26-11.55,17.04-13.34,5.86-1.35,11.58-.92,17.18,1.18,2.15.81,4.28,1.63,6.43,2.44.2.08.44.25.6.2,2.69-.87,4.41,1.16,6.45,2.17,1.01.5,1.81,1.31,3.15,1.03.53-.11,1.22.53,2.03.92,6.58-4.67,13.26-9.41,19.94-14.15-.18-2.38.29-2.74,2.57-1.77-.1-.6-.3-1.13-.23-1.62.07-.51.25-1.17.63-1.43.65-.45,1.2,0,1.55.64.14.25.29.48.56.94.73-.53,1.37-1.07,2.07-1.51,2.67-1.69,5.3-3.47,8.07-4.98,2.82-1.53,5.73-.63,7.92,1.77,2.55,2.78,4.55,5.94,6.62,9.04,1.39,2.08,2.41,4.41,3.61,6.62.62,1.14,1.29,2.24,1.89,3.39,1.89,3.56,1.55,6.31-1.35,9.13-1.96,1.9-4.11,3.6-6.19,5.38-.49.42-1.01.79-1.26.99-.09,1.08.14,2.16-.29,2.63-.89.99-1.78-.28-2.91-.52-6.79,5.13-13.66,10.33-20.58,15.56.79,2.36,1.45,4.62,2.3,6.82,3.36,8.7,5.47,17.88,10.14,26.07,1.71,3,3.38,6.03,5.16,8.98,3.42,5.66,6.89,11.3,10.4,16.91,1.33,2.13,2.77,4.22,4.26,6.24,4.92,6.66,9.76,13.37,14.03,20.47.11.18.19.42.34.55,3.37,2.75,4.95,6.85,7.64,10.12,2.7,3.27,5.11,6.78,7.63,10.2,2.3,3.13,4.66,6.23,6.85,9.44,2.59,3.81,4.95,7.77,7.54,11.58,2.51,3.69,5.15,7.29,7.82,10.86.53.71,1.47,1.1,2.24,1.63.9.61,1.76,3.2,1.37,4.15-.35.87-1.44,1.09-2.37.34-1.23-.99-2.38-2.09-3.53-3.18-.68-.64-1.29-1.35-2.01-2.12-.49.32-.9.56-1.28.85-6.5,4.89-12.84,10-19.8,14.24-.8.49-1.58,1.01-2.41,1.44-10.62,5.45-20.97,11.47-32.09,15.91-1.07.43-2.1.95-3.12,1.49-3.86,2.04-7.96,3.28-12.29,3.87-1.84.25-3.62.9-5.43,1.39-2.85.77-5.68,1.53-8.71,1.01-1.08-.19-2.26.19-3.16.28-.44.98-.83,1.7-1.08,2.47-.16.51-.24,1.1-.14,1.62.33,1.69.77,3.37,1.14,5.05.12.56.23,1.14.22,1.71-.01.79-.38,1.4-1.23,1.54-.84.14-1.4-.27-1.62-1.07-.43-1.52-.92-3.04-1.21-4.59-1.71-9-4.6-17.67-7.46-26.34-.63-1.9-.99-3.9-1.39-5.87-1.76-8.82-3.5-17.65-5.23-26.47-.33-1.69-.75-3.38-.91-5.09-.12-1.21-1.2-1.81-1.44-2.79-.22-.89.35-1.96.18-2.88-.86-4.74-1.82-9.45-2.79-14.17-.26-1.27-.61-2.52-1.01-3.75-1.23-3.76-2.45-7.52-3.77-11.25-1.91-5.42-3.53-10.96-6.24-16.08-.8-1.52-1.43-3.13-2.11-4.72-.13-.31-.2-.69-.17-1.03.14-1.75.1-1.92-1.32-2.59-3.25-1.55-6.52-3.03-9.75-4.6-2.26-1.1-4.54-2.19-6.69-3.49-1.33-.81-2.43-1.99-4.03-3.34.57,1.83,1,3.27,1.46,4.7.2.62.45,1.21.65,1.83.24.78.03,1.39-.66,1.87-2.28,1.59-4.79,2.61-7.5,3.16-.14.03-.33.09-.42.03-1.81-1.19-3.62-.2-5.38.07-3.41.52-6.81,1.15-10.18,1.92-4.35.99-8.69,2.04-12.97,3.28-7.43,2.15-15.04,3.28-22.67,4.33-3.13.43-6.26.91-9.51,1.39,1.86,4.26,1,7.79-2.59,10.56,1.76,1.6,3.43,3.15,5.14,4.66,2.36,2.1,3.24,4.78,2.77,7.8-.69,4.45-2.74,8.09-6.69,10.6-4.67,2.97-9.17,6.22-13.85,9.17-2.42,1.52-5.04,2.78-7.67,3.92-4.36,1.88-8.81,3.55-13.22,5.32-.37.15-.72.35-1.07.52ZM230.6,268.36c.86-.32,1.7-.7,2.57-.97,2.48-.76,4.97-1.48,7.46-2.22-.03-.1-.06-.21-.1-.31-5.36,1.3-10.73,2.6-16.09,3.9.02.09.04.18.06.27,2.05-.24,4.1-.47,6.15-.71-3.76,1.16-7.54,2.24-11.5,2.65.84-.39,1.68-.78,2.52-1.18-.04-.12-.09-.24-.13-.36-1.19.4-2.39.79-3.58,1.19-.38,1.63-1.83,1.36-2.94,1.64.39-.27.77-.53,1.16-.8-.03-.08-.05-.16-.08-.25-.68.2-1.36.4-2.28.68.6.16.93.24,1.25.32-.88.28-1.75.6-2.64.85-3.33.93-6.65,1.85-9.99,2.74-4.52,1.2-9,2.61-13.59,3.49-4.6.87-8.97,2.84-13.84,2.61-1.71-.08-3.48,1.11-5.19,1.71.42,5.2.39,10.2,1.58,15.06,6.89-1.6,13.69-3.13,20.47-4.78,9.3-2.26,18.56-4.72,28.02-6.22,15.79-2.51,31.39-5.93,46.99-9.38,12.58-2.78,25.1-5.81,37.69-8.53,8.87-1.92,17.7-3.9,26.42-6.44,4-1.17,8.12-1.91,12.18-2.85.45-.1.88-.25,1.66-.46-.6-.27-.85-.37-1.1-.5-2.68-1.41-3.42-2.81-2.9-5.76.14-.83.46-1.67.85-2.42,1.43-2.7,3.34-5.03,5.56-7.12.45-.42.87-.87,1.66-1.66-1.27.17-2.03.26-2.8.37-11.02,1.59-21.83,4.45-32.99,5.22-3.01.21-6.02.69-8.96,1.33-9.07,1.96-18.13,3.99-27.17,6.11-7.42,1.75-14.8,3.66-22.2,5.53-2.48.63-4.93,1.36-7.4,2.04,6.23-.24,12.08-2.38,18.16-3.36-.66.33-1.33.56-2.03.75-6.33,1.67-12.64,3.43-19,4.96-4.61,1.11-9.29,1.92-13.93,2.86ZM542.57,63.89c-1.09,1.49-2.16,2.84-3.11,4.27-1.47,2.21-2.79,4.54-4.32,6.71-3.56,5.06-7.23,10.04-10.83,15.08-1.38,1.93-2.83,3.84-3.99,5.9-2.51,4.48-5.52,8.59-8.67,12.63-1.19,1.53-2.36,3.09-3.44,4.71-4.31,6.49-9.08,12.61-14.33,18.37-1.45,1.59-2.75,3.33-4.12,4.99-2.02,2.44-4.03,4.89-6.07,7.31-5.14,6.1-11.43,10.7-18.63,14.09-.91.43-1.81.88-2.7,1.35-5.89,3.11-12.15,5.18-18.61,6.71-2.73.65-5.5,1.12-8.24,1.74-2.57.58-4.9,1.68-6.84,3.5-1.51,1.41-2.41,3.17-1.8,5.22.62,2.11,2.32,3.23,4.44,3.65,1.06.21,2.14.28,3.21.39,1.65.16,3.3.24,4.94.44,5.03.59,10.04.72,15.04-.34,1.9-.4,3.83-.67,5.75-.89.49-.06,1.34.18,1.47.5.2.48.1,1.32-.22,1.73-.88,1.12-1.85,2.23-2.96,3.12-5.61,4.51-11.27,8.94-16.92,13.4-.23.18-.47.34-.71.49-5.98,3.79-11.23,8.52-16.6,13.08-2.65,2.24-3.85,5.13-4.08,8.51-.14,2.07.8,3.47,2.84,3.56,2.64.12,5.34.14,7.94-.25,3.8-.57,7.24-2.31,10.68-3.97,7.11-3.44,14.53-6.34,20.74-11.42.54-.44,1.24-.77,1.92-.92.38-.08.98.2,1.26.52.2.23.15.86-.03,1.17-.32.54-.77,1.06-1.28,1.43-3.13,2.3-6.23,4.63-9.46,6.79-3.11,2.08-6.41,3.87-9.51,5.96-3.16,2.13-5.18,5.19-6.07,8.89-.72,3.01.73,5.07,3.77,5.2,2.28.1,4.67.17,6.86-.36,4.18-1.02,8.29-2.37,12.35-3.82,1.94-.69,3.74-1.83,5.5-2.94,5.12-3.21,10.17-6.52,15.27-9.77.79-.5,1.58-1.5,2.67-.6.68.55.46,1.4-.87,2.74-2.18,2.19-4.41,4.34-6.68,6.44-2.3,2.14-4.07,4.65-5.57,7.38-.58,1.05-1.1,2.16-.95,3.53,1.51.69,2.99,1.11,4.62.92,4.75-.57,9.36-1.63,13.6-3.93,2.27-1.23,4.56-2.45,6.79-3.77,5.13-3.05,10.62-5.48,15.33-9.22,7.84-6.21,15.71-12.39,23.52-18.64,4.95-3.96,9.66-8.2,13.93-12.9,3.92-4.31,7.78-8.68,11.72-12.97,6.42-7.01,12.89-13.97,19.32-20.96,5.89-6.41,11.61-12.99,18.05-18.89,2.07-1.9,3.85-4.05,5.4-6.43,1.25-1.91,2.87-3.57,4.33-5.34.85-1.04,1.69-2.08,2.55-3.13-1.59-1.72-3.06-3.2-4.4-4.79-6.6-7.82-13.58-15.27-21-22.32-.78-.74-1.44-1.61-2.22-2.36-2.18-2.08-4.3-4.26-6.62-6.18-4.94-4.08-10.02-7.98-14.97-12.04-1.72-1.41-3.1-3.24-4.85-4.59-4.34-3.34-9.02-6.17-14.19-8.67ZM315.53,539.74c.55-.66.98-1.14,1.36-1.65,4.27-5.62,8.56-11.22,12.8-16.86,2.42-3.23,5.4-5.42,9.45-6.31,4.69-1.04,9.43-1.26,14.17-1.21,4.77.06,9.49-.46,14.21-.87,2.56-.23,4.89-1.15,6.99-2.64,1.68-1.2,2.08-2.59.95-4.25-1.59-2.33-3.45-4.43-6.14-5.6-3.04-1.32-6.09-2.59-9.11-3.94-2.05-.92-4.02-1.94-6.38-.96-.39.16-1.23-.11-1.47-.46-.23-.34-.05-1.06.13-1.55.57-1.56,2.03-2.18,3.36-2.85,4.37-2.19,8.81-4.25,13.17-6.47,4.81-2.45,9.61-4.93,14.31-7.57,3.76-2.11,7.42-4.41,11.03-6.77,2.51-1.64,4.47-3.85,5.57-6.71.78-2.03-.11-5.22-1.83-6.16-2.11-1.16-4.42-2.04-6.8-1.84-4.29.36-8.61.6-12.81,1.8-2.9.83-5.86,1.48-8.81,2.14-.97.22-2,.31-3,.3-.93,0-1.65-.56-1.94-1.46-.31-.95.44-1.29,1.06-1.84,1.16-1.04,2.61-1.14,3.96-1.55,6.27-1.89,12.55-3.72,18.83-5.58.69-.2,1.39-.41,2.01-.75,2.54-1.4,3.23-4.8,1.44-7.09-.28-.35-.8-.63-1.25-.72-1.98-.36-3.97-.75-5.97-.9-8.08-.62-15.96.39-23.54,3.3-1.91.73-3.84.13-5.74.46-.31.05-.94-.48-1.04-.85-.1-.36.16-1.01.47-1.27.82-.69,1.72-1.32,2.67-1.81,3.21-1.68,6.58-3.08,10.18-3.41,4.2-.39,7.62-2.43,11.07-4.5.97-.59,1.86-1.37,2.67-2.18,1.35-1.35,1.35-2.42.19-3.96-.3-.4-.65-.79-.87-1.23-.4-.79-1.04-1.17-1.86-1.31-2.27-.4-4.52-.93-6.8-1.16-7.75-.79-15.49-.61-23.18.61-2.91.46-5.79,1.16-8.67,1.75-9.67,1.99-19.25,4.23-28.36,8.18-4.22,1.83-8.55,3.43-12.81,5.18-5.39,2.22-10.87,4.26-15.8,7.44-9.63,6.19-19.32,12.28-28.25,19.49-7.96,6.42-15.91,12.84-23.03,20.22-.48.5-.93,1.03-1.74,1.93.72.51,1.36.87,1.89,1.35,5.4,4.87,10.73,9.81,16.17,14.63,8.53,7.57,18.51,12.93,28.52,18.17,10.39,5.44,20.89,10.66,31.36,15.95,2.36,1.19,4.8,2.23,7.24,3.35ZM180.96,357.41c3.44-.1,6.56-.6,9.64-1.27,13.07-2.85,26.14-5.74,39.21-8.63,5.83-1.29,11.65-2.61,17.48-3.89,8.57-1.89,17.15-3.74,25.72-5.64,10.33-2.28,20.64-4.64,30.97-6.89,10.76-2.34,21.52-4.67,32.3-6.87,8.39-1.72,16.83-3.2,25.23-4.86,9.81-1.94,19.6-3.99,29.41-5.96,4.23-.85,8.56-1.31,12.7-2.46,9.86-2.75,19.76-5.19,29.94-6.44,2.48-.3,4.94-.76,7.44-1.15-.73-4.81-1.47-9.48-2.15-14.16-1.14-7.83-2.24-15.67-3.34-23.51-.54-3.85-1.04-7.7-1.58-11.55-.06-.45-.32-.87-.58-1.57-1.62,4.04-2.8,7.84-3.58,11.82-1.78,9.1-3.83,18.15-5.84,27.2-.58,2.59-1.27,5.18-2.16,7.68-1.01,2.85-3.38,3.65-6.03,2.29-.51-.26-1.01-.57-1.55-.75-1.81-.61-3.12-1.81-4.03-3.42-1.77-3.13-3.66-6.21-5.13-9.48-3.85-8.56-8.7-16.56-13.51-24.58-.55-.92-1.24-1.78-1.98-2.55-.4-.42-1.05-.79-1.62-.84-5.37-.49-10.76-.84-16.13-1.37-3.92-.39-7.74.02-11.56.9-4.69,1.08-9.42,2.02-14.13,3.04-4.71,1.01-9.44,1.95-14.12,3.09-5.66,1.38-11.24,3.09-16.92,4.39-13.61,3.12-27.24,6.12-40.87,9.12-11.95,2.63-23.87,5.4-35.87,7.72-14.83,2.87-29.78,5.14-44.4,9.08-6.11,1.64-12.33,2.89-18.49,4.36-1.3.31-2.67.49-3.86,1.47,2.45,18.67,6.89,36.94,9.39,55.68ZM199.57,364.06c.09.95.1,1.46.18,1.95.79,4.68,1.52,9.38,2.39,14.05,1.3,7,2.83,13.97,4.01,20.99,1.44,8.51,2.62,17.06,3.93,25.59.27,1.72.64,3.43,1.04,5.54.92-.97,1.51-1.58,2.09-2.2,2.4-2.59,4.65-5.32,7.21-7.73,6.02-5.68,12.07-11.33,18.31-16.76,5.23-4.55,10.26-9.28,14.9-14.39,7.51-8.27,15.79-15.54,25.64-20.9.44-.24.82-.58,1.26-.83,2.89-1.65,5.89-3.08,9.25-3.38,3.31-.3,6.63-.22,9.88.49,2.52.55,5.14,1.03,7.46,2.11,8.49,3.94,16.72,8.4,24.72,13.25,2.09,1.27,4.06,2.75,6.16,3.99,8.67,5.14,17.37,10.23,26.06,15.33,1.24.73,2.48,1.44,3.83,2.23,18.73-15.34,37.43-30.65,56.21-46.03-2.49-12.29-4.8-24.56-7.49-36.86-.79.12-1.31.08-1.74.27-5.16,2.3-10.67,3.51-16.12,4.75-8.27,1.88-16.62,3.44-24.96,5.02-4.88.92-9.84,1.4-14.7,2.42-14.51,3.05-28.94,6.49-43.48,9.34-12.08,2.37-24.08,5.08-36.1,7.7-10.54,2.31-21.11,4.53-31.7,6.58-6.71,1.3-13.48,2.27-20.23,3.31-6.9,1.06-13.81,2.02-20.71,3.03-2.4.35-4.79.75-7.33,1.15ZM395.14,424.54c-.61-.56-.83-.83-1.1-1-2.66-1.71-5.35-3.38-7.99-5.12-4.62-3.05-9.15-6.27-13.84-9.2-7.26-4.53-14.66-8.86-21.97-13.3-6.64-4.04-13.19-8.22-19.9-12.15-6.14-3.6-12.39-7.03-18.68-10.37-3.16-1.68-6.42-3.29-10.14-3.44-1.65-.07-3.31-.19-4.96-.18-10.67.11-19.99,3.7-27.75,11.08-3.75,3.57-7.31,7.35-11.09,10.9-5.51,5.17-11.28,10.07-16.27,15.77-.66.76-1.39,1.46-2.14,2.13-5.33,4.73-10.67,9.44-16,14.16-1.13,1-2.31,1.96-3.38,3.02-1.99,1.98-3.93,4.01-5.86,6.05-.71.74-1.33,1.57-2.26,2.68,1.31,6.45,2.73,13.34,4.12,20.25.22,1.09.88,1.36,1.87,1.3,2.08-.12,4.19-.06,6.25-.34,6.63-.9,13.25-1.87,19.85-2.92,6.32-1,12.56-2.52,18.98-2.89,1.25-.07,2.63-.42,3.66-1.09,12.74-8.27,26.53-14.44,40.51-20.22,4.98-2.06,10.07-3.9,15.23-5.45,10.97-3.28,22.12-5.69,33.55-6.88,8.05-.84,15.94-.5,23.79,1.39.84.2,1.7.38,2.48.73,2.3,1.05,4.39,2.31,4.1,5.37-.02.25.15.52.27.91,2.8-.39,5.53-.77,8.67-1.21ZM575.52,455.39c-.71-1.16-1.19-2.05-1.78-2.86-3.68-4.98-7.41-9.91-11.07-14.9-6.13-8.36-12.23-16.74-17.07-25.95-1.23-2.35-2.84-4.5-4.25-6.76-2.62-4.22-5.1-8.5-6.61-13.3-2.03-6.45-4.19-12.85-6.31-19.27-.24-.71-.59-1.39-.93-2.15-.46.27-.72.39-.95.55-6.53,4.73-13.05,9.46-19.58,14.19-1.17.84-2.37,1.64-3.53,2.49-.81.59-1.62,1.2-2.35,1.89-1.76,1.65-1.99,1.66-3.54-.1-2.71.96-3.21.95-5.26.65-4.03-.59-6.76-3-8.92-6.22-2.89-4.3-4.84-8.99-5.62-14.12-.19-1.22-.76-2.1-1.53-2.99-1.6-1.84-3.93-2.32-5.94-3.41-1.2-.64-2.33-.51-3.49.12-2.32,1.26-3.85,3.19-4.9,5.55-1.65,3.69-2.28,7.56-2,11.58.29,4.24.49,8.48.84,12.71.34,4.01.78,8.02,1.27,12.02.12.97.58,1.9.93,2.83.98,2.55,2.76,4.56,4.64,6.43,2.45,2.42,4.92,4.87,8.08,6.42,2.84,1.39,5.64,2.88,8.52,4.19,3.5,1.59,5.84,4.16,7.79,7.45,2.54,4.3,4.7,8.59,5.75,13.59,1.26,6.04,3.45,11.87,5.12,17.83,1.38,4.91,3.11,9.73,3.86,14.81.26,1.75.82,3.45,1.31,5.45,1.77-.26,3.32-.43,4.85-.72,1.97-.38,3.92-.93,5.9-1.28,1.76-.31,3.58-.34,5.34-.69,8.88-1.75,16.82-5.85,24.73-9.98,6.38-3.33,12.64-6.89,18.98-10.29,2.82-1.51,5.04-3.75,7.72-5.75ZM344.9,254.59c.69.25,1.27.59,1.87.66,5.79.65,11.58,1.34,17.42.25,6.23-1.16,12.48-2.16,18.86-2.01,2.4.06,4.7.16,6.97,1.09.87.36,1.5.76,1.89,1.58.89,1.89,1.76,3.78,2.68,5.65.92,1.87,1.7,3.83,2.86,5.54,3.07,4.52,6.37,8.9,9.48,13.4,2.37,3.43,4.57,6.97,6.9,10.43,1.43,2.13,2.95,4.19,4.43,6.29.15-.04.31-.09.46-.13.52-2.06,1-4.13,1.56-6.18,1.8-6.6,3.12-13.3,4.34-20.03,1.11-6.15,2.65-12.22,4.03-18.32.12-.54.45-1.03.72-1.53,1.24-2.28,3.41-3.25,5.74-3.76,3.22-.7,6.48-1.32,9.75-1.72,6.86-.82,13.74-1.45,20.6-2.21,1.45-.16,2.98-.29,4.01-1.09-.36-1.49-.85-2.71-.93-3.94-.15-2.67-2.69-4.28-5.06-2.96-3.13,1.74-6.48,2.78-9.95,3.45-2.54.49-5.1.94-7.66,1.28-1.2.16-2.45.14-3.65-.04-3.27-.49-5.98-3.54-6.19-6.82-.17-2.68.4-5.15,2.14-7.28.35-.43.65-.91,1.18-1.64-3.25.73-6.18,1.34-9.1,2.06-2.78.68-5.54.82-8.33.13-1.47-.36-2.65-1.15-3.36-2.5-1.06-2.04-1.44-4.16-.84-6.47,1.03-3.97,3.14-7.24,6.14-9.97,2.67-2.42,5.37-4.8,8.11-7.13.85-.73,1.22-1.45,1.11-2.59-.26-2.65-.37-5.32-.61-7.97-.19-2.13-.46-4.25-.72-6.55-1.69-.33-3.22-.59-4.72-.94-.44-.1-1-.38-1.2-.74-1.6-2.96-2.76-6.04-1.97-9.5.29-1.29.87-2.41,2.01-3.2,1.23-.85,2.42-1.78,3.77-2.78-.54-.99-.23-2.23-1.25-3.34-1.68,1.57-3.35,3.04-4.91,4.61-1.47,1.48-2.77,3.12-4.26,4.58-3.5,3.41-7.21,6.63-10.58,10.16-4.11,4.32-7.97,8.88-11.93,13.34-.61.69-1.12.56-1.85.07-1.81-1.23-3.65-2.45-5.59-3.47-2.48-1.3-5.08-2.37-7.6-3.6-8.09-3.94-16.25-7.72-24.83-10.5-.58-.19-1.19-.26-2.16-.47.5,1.37.82,2.37,1.22,3.35,1.3,3.12,2.77,6.18,3.92,9.35,2.75,7.58,5.32,15.21,8.02,22.81.79,2.23,1.67,4.45,2.71,6.57,1.05,2.16,1.08,2.53-.35,4.47-3.98,5.41-8.71,10.16-13.26,15.07-1.22,1.32-2.33,2.74-3.49,4.1-.7.82-1.38,1.65-2.12,2.43-2.41,2.55-5.19,4.82-6.46,8.64ZM181.69,361.96c.21,1.25.34,2.17.52,3.07,1.57,7.83,3.19,15.65,4.73,23.49,1.28,6.5,2.49,13.01,3.69,19.52,1.6,8.7,3.07,17.44,4.76,26.12,1.79,9.18,4.03,18.27,5.32,27.55.43,3.12,1.27,6.17,2.48,9.15.67-.04,1.24-.04,1.8-.11,5.43-.69,10.85-1.46,16.28-2.07,8.75-.98,17.38-2.46,25.76-5.23.67-.22,1.37-.48,1.94-.89,3.53-2.48,7.04-5.01,10.54-7.54.44-.32.83-.7,1.25-1.06-.85-.3-1.61-.29-2.34-.17-6.1,1.02-12.23,1.95-18.3,3.12-8.08,1.55-16.23,2.4-24.43,2.78-2.09.1-2.32-.04-3-1.97-.19-.54-.39-1.11-.4-1.67-.11-3.84-1.03-7.54-1.71-11.29-2.71-15.16-5.31-30.33-7.9-45.51-.75-4.4-1.19-8.85-2.02-13.23-1.39-7.35-3-14.66-4.47-22-.5-2.51-.21-3.14,2.27-3.7,4.27-.97,8.58-1.79,12.9-2.5,4.25-.7,8.56-1.09,12.81-1.79,6.67-1.1,13.32-2.37,19.98-3.52,6.38-1.1,12.8-2.02,19.15-3.24,6.43-1.24,12.79-2.8,19.2-4.12,14.87-3.06,29.79-5.93,44.63-9.14,8.52-1.84,17-3.82,25.66-4.86,9.68-1.17,19.11-3.51,28.52-5.89,6.99-1.77,14.04-3.11,21.13-4.37,4.66-.83,9.4-1.36,13.8-3.29,1.81-.79,3.47.22,3.81,2.22.52,2.98,1,5.96,1.63,8.92,1.29,6.05,2.85,12.05,3.96,18.13,1.63,8.85,2.8,17.78,4.46,26.61,1.77,9.4,3.88,18.74,5.85,28.1.09.45.34.87.59,1.48,3.49-6.13,6.86-12.04,10.36-18.19-.26-.19-.62-.44-.96-.71-2.21-1.7-3.42-4.03-4.12-6.67-.83-3.15-1.41-6.35-1.17-9.61.52-6.88,1.28-13.71,7.42-18.36.85-.64,1.09-1.62.91-2.72-.39-2.4-.63-4.83-1.06-7.23-1.73-9.7-3.5-19.4-5.26-29.1-.23-1.26-.49-2.51-.75-3.83-.61.09-1.03.13-1.44.22-2.1.49-4.19,1.06-6.3,1.48-4.79.95-9.61,1.79-14.41,2.73-14.77,2.87-29.53,5.72-44.29,8.64-6.78,1.34-13.51,2.9-20.29,4.24-11.3,2.23-22.64,4.2-33.91,6.57-15.71,3.3-31.36,6.85-47.03,10.31-13.98,3.08-27.94,6.29-41.95,9.25-13.58,2.88-27.35,4.84-40.69,8.85-3.23.97-6.46,1.96-9.94,3.01ZM509.02,488.11c.61,2.75,1.26,5.47,1.81,8.22,1.03,5.15,2,10.31,3.01,15.47.36,1.82.95,2.29,2.79,2.29.43,0,.86-.04,1.29-.1,8.28-1.09,16.12-3.58,23.62-7.23,1.75-.85,3.53-1.63,5.32-2.37,6.19-2.55,12.42-4.99,18.57-7.62,6.9-2.96,13.58-6.31,18.89-11.85,1.14-1.19,2.53-2.14,3.81-3.19.66-.54,1.43-.86,2.16-.25.8.67.62,1.55.11,2.34-.31.48-.66.96-1.07,1.35-1.35,1.29-2.61,2.73-4.14,3.78-5.92,4.08-11.79,8.26-18.34,11.34-4.04,1.89-8.02,3.9-12.06,5.8-5.28,2.47-10.54,5.01-16.33,6.1-2.98.56-5.87,1.37-8.65,2.6-1.51.66-3.17.95-4.72,1.53-2.07.77-4.36.83-6.3,2.04-.78.48-1.56.23-1.95-.67-.38-.86-.94-.93-1.77-.59,1.23,9.02,4.37,17.43,6.9,26.08.85-.05,1.52.03,2.12-.15,4.06-1.23,8.2-1.87,12.43-2.11,1-.06,2.04-.11,2.98-.42,5.67-1.86,11.5-3.38,16.93-5.8,7.09-3.15,13.96-6.84,20.74-10.61,10.87-6.05,21.97-11.77,31.43-20.05.42-.36.83-.73,1.2-1.06-.1-.28-.12-.44-.2-.54-2.74-3.61-5.94-6.87-7.96-11-.14-.28-.51-.45-.79-.64-.69-.46-1.55-.78-2.06-1.38-1.71-2.03-3.36-4.12-4.93-6.27-2.07-2.85-3.9-5.89-6.1-8.64-2.18-2.72-4.04-5.59-5.68-8.64-.75-1.39-1.57-2.75-2.4-4.1-.51-.84-1.09-1.64-1.76-2.65-.99.83-1.87,1.46-2.61,2.21-.91.91-1.82,1.39-2.9.58-4.27,2.98-8.38,5.89-12.54,8.72-1.72,1.17-3.48,2.32-5.35,3.23-5.17,2.51-10.43,4.84-15.62,7.31-3.5,1.67-7.18,2.51-11.03,2.75-1.72.11-3.48.09-5.15.48-4.48,1.03-8.92,2.25-13.37,3.4-.06.01-.1.1-.31.34ZM313.47,542.62c-2.49-.94-4.62-1.8-6.78-2.56-8.79-3.08-17.21-6.99-25.24-11.67-9.27-5.39-18.53-10.83-26.77-17.79-.33-.28-.7-.51-1.05-.75-8.78-6.04-17.46-12.21-25.4-19.36-.41-.37-.89-.66-1.39-1.03-6.75,6.09-13.19,12.31-18.69,19.39.26.36.37.55.52.7,7.94,7.55,16.11,14.81,25.47,20.61,2.63,1.63,5.1,3.51,7.69,5.2,3.67,2.4,7.36,4.77,11.08,7.1,3.23,2.02,6.52,3.96,9.77,5.95,5.52,3.39,11.12,6.6,17.25,8.85,4.99,1.83,9.88,3.95,14.81,5.95,1.06.43,2.09.9,2.95,1.27,1.26-1.32,2.4-2.47,3.48-3.68.43-.48.71-1.07,1.06-1.62,2.1-3.26,4.16-6.56,6.32-9.78,1.52-2.26,3.18-4.41,4.91-6.79ZM427.43,418.43c.73-1.37,1.28-2.53,1.94-3.63,1.07-1.79,2.13-3.6,3.35-5.29,1.3-1.81,1.98-3.58.72-5.7-.28-.47-.3-1.11-.41-1.67-.56-2.82-1.12-5.65-1.65-8.47-1.94-10.39-3.86-20.79-5.8-31.18-.14-.75-.37-1.48-.65-2.57-2.58,2.07-4.93,3.92-7.25,5.82-4.57,3.74-9.13,7.49-13.68,11.25-4.05,3.34-8.06,6.74-12.14,10.05-6.43,5.21-12.91,10.36-19.35,15.56-.81.66-1.48,1.48-2.26,2.27.41.34.62.55.85.7,6.92,4.54,13.84,9.07,20.76,13.62,1.68,1.1,3.48,2.08,4.98,3.4,1.27,1.11,2.39,1.21,3.91.78,6.52-1.86,13.14-3.18,19.9-3.85,2.29-.23,4.55-.71,6.78-1.07ZM479.54,364.63c.27,1.17.43,2.31.81,3.38,1.07,2.97,2.18,5.93,3.36,8.85.92,2.26,1.85,4.53,3,6.67.96,1.78,2.7,2.71,4.67,3.2,1.07.27,1.88.11,2.76-.63,2.54-2.12,5.1-4.23,7.79-6.15,7.51-5.34,15.17-10.46,22.62-15.88,7.33-5.33,14.47-10.92,21.68-16.41.6-.46,1.1-1.05,1.65-1.59-.33-.41-.47-.68-.69-.85-2.73-2.21-4.76-4.96-6.44-8.02-.37-.68-.93-1.28-1.49-1.83-1.69-1.66-3.5-3.21-5.12-4.93-.95-1.01-1.66-2.26-2.56-3.52-1.66,1.28-3.22,2.54-4.84,3.74-5.96,4.4-11.9,8.84-17.92,13.16-3.62,2.6-7.44,4.91-11.07,7.5-6.03,4.31-11.97,8.73-18.22,13.31ZM380.43,434.37c.04.14.08.28.12.42.98.05,1.96.11,2.94.15,3.67.16,7.32.38,10.77,1.89.47.21,1.12.18,1.65.08,3.53-.7,7.04-1.48,10.57-2.18,9.17-1.81,18.35-3.58,27.53-5.39,7.27-1.44,14.53-2.91,21.78-4.39,1.04-.21,2.05-.59,3.25-.94-.74-3.56-1.45-6.97-2.13-10.19-2.86.35-5.48.6-8.08,1.03-3.18.52-6.34,1.21-9.43,1.81-.51,3.2-.71,3.37-3.86,3.68-2.79.28-5.58.58-8.37.92-5.21.65-10.45,1.13-15.61,2.05-5.73,1.03-11.37,2.52-17.07,3.71-2.39.5-4.83.74-7.25,1.11-.98.15-1.6.53-2.04,1.58-.45,1.06-1.39,1.96-2.24,2.79-.74.73-1.67,1.26-2.52,1.88ZM460.9,364.29c2.28-2.6,5.2-4.01,8.31-4.52.12-1.93.12-3.58.35-5.2.61-4.28,2.82-7.83,5.44-11.1,4.07-5.09,8.88-9.03,15.87-9.15.72-.01,1.44-.28,2.58-.51-2.23-.98-3.96-1.85-5.77-2.5-1.96-.71-3.98-1.35-6.11-1.04-2.55.37-5.09.86-7.63,1.28-3.62.6-6.61,2.31-9.02,5.07-.38.43-.8.83-1.25,1.19-1.91,1.56-3.05,3.63-3.79,5.91-.71,2.18-1.2,4.44-1.91,6.62-1.02,3.12-.79,6.21-.19,9.36.38,1.98,1.46,3.35,3.12,4.58ZM459.2,366.62c-.3-.36-.42-.55-.58-.69-3.78-3.34-5.05-7.54-4.37-12.45.13-.96.16-1.94.23-2.95-2.1.15-3.44.59-4.8,1.67-2.36,1.87-4.22,4.14-5.08,7.07-1.84,6.22-1.88,12.45,0,18.68.5,1.65,1.32,3.1,2.8,3.95,1.46.83,3.03,1.59,4.65,1.96,2.52.56,3.72-.52,3.84-3.04.24-4.91.7-9.77,3.3-14.2ZM552.18,343.44c2.27-1.34,4.61-2.59,6.82-4.05,2.12-1.39,2.54-3,1.71-5.42-.23-.68-.47-1.37-.84-1.98-1.45-2.4-2.93-4.77-4.43-7.13-1.26-2.01-2.61-3.96-3.81-6-1.43-2.42-2.64-2.86-5.13-1.51-1.64.89-3.24,1.87-4.82,2.87-1.26.8-2.46,1.71-3.75,2.6.36.65.62,1.16.91,1.64,1.32,2.22,2.65,4.44,3.99,6.65.74,1.23,1.49,2.45,2.25,3.66.5.79,1.09,1.52,1.53,2.34,1.35,2.52,3.21,4.58,5.58,6.33ZM503.91,340.55c-.04-.2-.07-.41-.11-.61-3.49-1.63-6.99-3.18-11.06-2.72-6.4.72-11.32,4-15.31,8.81-2.68,3.22-4.22,7.01-4.95,11.12-.39,2.16.41,3.12,2.54,3.69,1.12.3,1.58-.47,2.21-.97,7.03-5.62,14.15-11.12,21.78-15.91,1.68-1.06,3.27-2.27,4.91-3.4ZM448.08,410.5c3.86-1.12,7.65-2.21,11.47-3.31-.06-.38-.07-.68-.16-.94-1.97-5.54-2.98-11.25-3.12-17.13-.02-.83-.22-1.65-.32-2.39-1.04.15-1.83.41-2.58.33-1.24-.14-1.8.44-2.31,1.45-1.4,2.76-2.86,5.49-4.33,8.21-1.47,2.71-2.99,5.4-4.58,8.26,1.94,1.8,3.82,3.55,5.94,5.51ZM451.04,186.7c-4.83-1.06-9.35-1.68-14.14-1.86.29,3.79.57,7.37.87,11.26,4.54-3.21,8.74-6.19,13.27-9.39ZM452.17,341.48c.37,2,.11,4.14,1.3,5.96-.02-2.08-.41-4.07-1.3-5.96ZM463.29,425.93c.65-.35,1.05-.56,1.39-.74-.45-1.02-.84-1.89-1.39-3.1v3.84ZM205.97,511.58q.55,1.01,1.66,1.37-.62-1.03-1.66-1.37ZM431.71,415.69c.17.1.34.19.52.29.37-.69.75-1.37,1.12-2.06-.14-.08-.28-.15-.41-.23-.41.67-.82,1.33-1.22,2ZM229.93,483.16c-.08-.08-.16-.15-.24-.23-.19.2-.38.4-.56.6.05.05.1.09.14.14.22-.17.44-.34.65-.51Z"/>
      <path class="cls-3" d="M114.42,135.02c-.11.08-.23.12-.34.18-.27.73-.79,1.38-1.62,2.02-2.88,2.25-5.74,4.58-7.37,8.05-2.92,6.22-5.2,12.6-5.98,19.51-.7,6.12-.94,12.16.35,18.25,2.68,12.66,9.99,21.43,21.77,26.59.3.13.58.32,1.03.57-1.93.91-3.69,1.7-5.42,2.56-8.23,4.1-15.61,9.52-22.75,15.23-16.04,12.84-31.38,26.45-45.05,41.85-6.41,7.22-12.7,14.52-18.24,22.45-2.47,3.54-4.98,7.05-7.53,10.68-.33-.02-.76-.12-1.17-.06-1.06.15-1.65.8-1.3,1.79.54,1.5,0,2.67-.7,3.86-.81,1.36-1.64,2.71-2.46,4.06-3.71,6.16-7.44,12.31-11.12,18.5-1.28,2.16-2.46,4.38-3.61,6.61-.32.62-.55,1.36-.58,2.05-.04,1,1.13,1.62,1.81.95.95-.92,1.92-1.92,2.52-3.08,4.73-9.07,9.61-18.04,15.49-26.44.4-.58.82-1.14,1.15-1.6,2.84,1.97,5.48,3.97,8.27,5.71,4.7,2.93,9.47,5.77,14.28,8.52,5,2.85,10.08,5.57,15.14,8.31,4.93,2.67,9.95,5.2,14.82,7.99,5.38,3.08,10.8,6.06,16.59,8.29,2.74,1.05,5.49,2.09,8.39,3.19-1.28,2.61-2.49,5.05-3.67,7.51-4.12,8.56-7.46,17.45-10.8,26.33-.1.27-.32.59-.25.8.16.51.36,1.19.76,1.39.37.19,1.16.02,1.5-.29.51-.46.87-1.14,1.14-1.79.6-1.45.99-2.99,1.67-4.39,3.17-6.54,6.34-13.09,9.64-19.56,4.68-9.17,9.38-18.33,14.25-27.39,2.42-4.5,5.23-8.78,7.88-13.15,1.79-2.96,3.55-5.93,5.4-8.84,3.36-5.28,6.78-10.53,10.19-15.79,2.31-3.56,4.61-7.13,6.96-10.67.59-.89,1.29-1.75,2.06-2.49,2.34-2.25,4.64-4.54,7.13-6.6,2.55-2.1,5.21-4.1,8.01-5.84,4.99-3.1,10.51-4.95,16.16-6.5,5.83-1.61,11.57-3.54,16.8-6.69,2.68-1.62,5.09-3.54,6.88-6.13,1.88-2.73,1.48-5.17-1.16-7.12-.85-.63-1.78-1.13-2.82-1.79,1.49-.62,2.78-1.23,4.11-1.71,3.25-1.17,5.25-3.69,6.98-6.47.41-.65.62-1.46.78-2.23.84-4.03-.89-7.58-4.55-9.47-.33-.17-.62-.41-1.13-.76.82-.31,1.34-.57,1.88-.71,2.15-.57,3.61-2.02,4.88-3.72,4.13-5.55.9-11.46-3.42-13.72-4.49-2.35-9.35-3.7-14.3-4.72-2.31-.48-4.65-.85-6.96-1.26.02-.31-.03-.48.04-.58,2.47-3.98,3.67-8.4,4.42-12.95-.2-.64-.19-1.36.13-2.11.75-1.71,1.16-3.5,1.61-5.29-.08.02-.16.05-.25.07.08-.9.1-1.85.24-2.79,1.09-7.63.95-15.2-1.06-22.7-1.13-4.23-3.13-7.86-6.72-10.52-.81-.6-1.53-1.31-2.3-1.96-1.61-1.36-2.99-2.92-5.25-3.52-1.66-.44-3.17-1.69-4.56-2.8-3.23-2.59-6.95-4.05-10.93-4.88-2.53-.53-5.09-.91-7.65-1.3-3.67-.56-7.32-.12-10.97.34-4.21.53-8.44.95-12.63,1.66-4.55.76-8.94,2.09-12.84,4.72-.35.23-.74.4-1.45.78,0-.2-.01-.39-.02-.58M110.52,196.48c-2.04-2.96-4.22-5.89-5.74-9.12-1.23-2.62-1.65-5.64-2.3-8.51-1.26-5.61-.48-11.17.6-16.71,1.56-7.96,5.22-14.73,11.38-20.09.33-.28.65-.57.94-.89,4.24-4.74,9.78-7.15,15.71-8.97,5.54-1.7,11.19-1.92,16.88-1.7,4.31.16,8.64.38,12.91.95,6.85.9,12.84,3.65,17.27,9.21,1.44,1.8,2.89,3.59,4.36,5.36,3.02,3.64,4.74,7.85,5.58,12.47,1.08,5.98,1.49,12,1.08,18.07-.09,1.42-.38,2.87-.86,4.2-2.02,5.55-4.4,10.95-7.34,16.08-.11.19-.19.4-.34.55-1.93,2.05-3.46,4.51-6.31,5.58-2.34.88-4.59,2-6.91,3.02-3.14-7.19-3.76-14.7-5.5-21.95,1.63-1.06,3.11-1.95,4.51-2.94,4.08-2.89,6.56-6.8,7.23-11.77.36-2.62-.84-4.9-3.22-6.06-3.78-1.84-7.51-1.75-11.08.6-1.92,1.26-2.96,3.11-3.39,5.32-.79,4.02-.49,8.03.18,12.02.09.56.16,1.12.26,1.77-2.08,1.09-4.27,1.3-6.64,1.58-.38-.93-.74-1.77-1.06-2.62-1.81-4.7-4.38-8.89-8.15-12.31-1.69-1.54-3.54-2.64-5.83-3.07-4.55-.86-7,1.15-8.38,4.92-1.14,3.12-1.1,6.4-.13,9.57.96,3.13,3.02,5.36,6.17,6.46,4.69,1.63,9.44,2.64,14.4,1.31.34-.09.71-.07,1.32-.13,2.67,7.14,4.09,14.7,6.95,22.11-1.48.26-2.72.51-3.98.69-.32.04-.72-.09-1-.26-2.05-1.3-2.04-1.31-3.76.27-.15.14-.33.25-.59.44-1.33-2.2-3.64-2.57-5.82-3.32-2.88-1-5.94-1.09-8.8-1.93-3.78-1.11-7.4-2.76-11.07-4.21-1.07-.42-2.07-1-3.15-1.39-2.57-.94-4.85-2.32-6.4-4.57ZM184.53,227.47c-2-1.13-3.9-2.2-5.98-3.37.51-.58.76-1.06,1.15-1.27,1.44-.8,2.88-1.63,4.4-2.24,1.74-.7,2.2-.43,2.98,1.32.44,1,.81,2.04,1.31,3.32-1.32.76-2.61,1.51-3.86,2.24ZM184.96,234.29l-.27.03c-.04-.44-.09-.88-.13-1.33.09,0,.19-.02.28-.03.04.44.08.88.12,1.33ZM180.84,219.39c-1.8.99-3.4,2.43-5.61,2.5-.35.01-.74.12-1.05.02-2.79-.89-5.57-1.82-8.48-2.78,2.42-1.84,4.7-3.55,6.96-5.29.51-.39,1.04-.84,1.33-1.38.23-.43.34-1.2.1-1.53-.25-.34-.97-.4-1.5-.46-.24-.03-.53.19-.77.34-5.65,3.54-12,5.06-18.41,6.37-.83.17-1.71.1-2.66.15-.31-.57-.6-1.11-1.06-1.94,2.8-.96,5.41-1.92,8.06-2.75,5.28-1.64,10.62-3.09,15.86-4.86,2.07-.7,3.92-2.04,6.01-3.17,2.12,3.99,3.49,8.4,4.92,12.57-1.32.8-2.49,1.55-3.71,2.22ZM162.15,207.96c-.33.17-.81.46-1.33.67-.98.4-1.98.77-2.98,1.15-2.3-7.43-4.51-14.56-6.76-21.81,1.9-.69,3.77-1.37,5.82-2.11,1.75,7.37,3.48,14.66,5.25,22.11ZM158.63,168.74c.18-.36.37-.73.55-1.09l.24.09c-.16.41-.33.82-.49,1.22l-.3-.23ZM160.72,172.26c.22-2.05,1-3.9,2.31-5.5,1.51-1.84,3.69-2.3,5.84-1.29,1.4.66,1.91,1.4,1.48,2.91-.46,1.64-1.09,3.27-1.9,4.77-1.6,2.96-3.99,5.22-7.07,7.32-.66-2.92-.95-5.55-.66-8.21ZM163.61,201.82l.73,2.52c-.13.06-.26.12-.38.19-.36-.84-.87-1.64-.34-2.71ZM146.82,184.64c-4.17,1.88-12.65,1.1-15.87-2.77-3.39-4.07-3.42-6.6-1.54-10.69.99-2.15,2.3-2.6,4.59-1.92,3.06.9,5.6,2.55,7.52,5.15,2.28,3.1,3.95,6.5,5.3,10.24ZM115.99,203.81c3.3,1.35,6.76,2.34,9.68,4.39-3.65-.65-6.88-2.08-9.68-4.39ZM199.18,251.59c-1.87,2.03-4.12,3.59-6.59,4.82-6.67,3.33-13.74,5.55-21,7.1-6.58,1.41-12.8,3.58-17.81,8.21-2.41,2.23-4.38,4.94-6.54,7.43-1.74,2.01-3.37,4.12-5.23,6.01-2.6,2.63-4.82,5.47-6.55,8.77-6.04,11.55-12.64,22.78-20.09,33.49-4.45,6.39-8.47,13.03-12.15,19.89-.2.37-.44.72-.77,1.27-1.5-.8-3-1.49-4.38-2.36-4.61-2.88-9.57-4.97-14.72-6.64-3.17-1.03-6.17-2.37-8.97-4.18-1.09-.7-2.2-1.39-3.36-1.95-7.37-3.53-14.05-8.15-20.68-12.87-2.92-2.08-6.04-3.9-9.14-5.73-3.35-1.98-6.68-3.95-9.63-6.53-1.5-1.32-3.22-2.38-4.97-3.65.48-.7.9-1.35,1.37-1.98,5.77-7.73,11.44-15.54,17.36-23.15,2.96-3.79,6.28-7.32,9.63-10.78,5.26-5.43,10.68-10.7,16.02-16.04,5.1-5.1,10.43-9.93,16.31-14.12,6.33-4.51,12.5-9.28,19.07-13.41,7.37-4.62,15.1-8.66,22.7-12.9.64-.36,1.51-.53,2.24-.48,2.37.16,4.72.5,7.09.72.92.09,1.67.37,2.15,1.21.87,1.56,1.76,3.11,2.71,4.81-.62.3-1.04.54-1.48.72-4.98,2-9.52,4.73-13.62,8.21-.74.63-1.13,1.27-.86,2.23.29,1.05,1.03,1.34,1.97.77.18-.11.34-.27.5-.42,3.06-2.92,6.7-4.98,10.49-6.73,1.6-.74,3.37-1.29,5.12-1.52,6.84-.87,13.66-.55,20.35,1.11,3.56.89,7.04,2.09,10.05,4.32.75.55,1.62.94,2.41,1.43,2.5,1.53,3.96,3.67,4.17,6.66.21,3.07-1.67,5.9-4.65,6.67-2.23.57-4.47.81-6.83.55-2.7-.3-5.46-.25-8.19-.14-2.03.08-3.67,1.28-5.06,2.65-1.59,1.56-3.01,3.29-4.53,4.92-.63.68-1.34,1.28-1.98,1.96-.29.3-.53.67-.71,1.05-.36.75-1.01,1.52-.09,2.32.7.62,1.82.6,2.76-.2,2.02-1.73,3.97-3.55,5.96-5.32,1.4-1.25,2.8-2.49,4.21-3.71.91-.79,1.98-1.16,3.19-1.11,1.8.08,3.6.11,5.38.28,2.86.28,5.61.02,8.2-1.29.67-.34,1.27-.27,2.02-.19,3.14.34,6.31.33,9.45.7,2.19.25,4.42.67,6.48,1.43,2.72,1.01,3.2,3.55,1.22,5.7ZM206.38,227.03c1.26,1.22,1.66,2.54,1.19,4.27-1.07,3.93-3.36,6.78-7.37,7.63-4.48.95-9.06,1.44-13.6,2.11-.55.08-1.13.01-1.93.01,1.63-3.24,3.85-5.96,2.31-9.62.6-.35,1.07-.64,1.55-.91.5-.28,1.02-.53,1.52-.81,3.03-1.77,3.47-2.74,2.71-6.31,4.96-.17,9.74-.13,13.62,3.62ZM201.5,219.54c-3.51.34-7.02.38-10.39-.02-2.04-4.41-4-8.65-5.96-12.88-.33-.72-.61-1.48-1.04-2.13-.84-1.27-.61-2.27.77-3.32,2.96.66,6.19,1.11,9.24,2.1,4.29,1.41,8.48,3.14,12.64,4.91,1.13.48,2.16,1.44,2.94,2.42,1.25,1.57.99,3.39-.33,4.88-2.1,2.37-4.71,3.73-7.86,4.04Z"/>
      <path class="cls-3" d="M68.41,457.04c-1.4.31-2.8.55-4.17.93-4.57,1.28-8.95.86-13.22-1.23-1.25-.61-2.12-1.47-2.56-2.75-.96-2.78-1.27-5.63-.6-8.5.68-2.94,2.53-4.95,5.37-5.99,1.9-.7,3.87-.98,5.91-1.07,3.87-.17,7.73-.56,11.75-.87.2-.92.39-1.82.58-2.72,1.48-6.99,4.75-13.05,9.38-18.45,2.75-3.2,5.91-5.91,9.46-8.13,1.55-.97,3.4-1.52,5.18-2.06,4.89-1.48,9.79-2.87,14.92-3.32,3.71-.33,7.3.47,10.95.8,4.06.37,7.86,1.72,11.67,2.96,1.33.43,2.56,1.31,3.71,2.15,2.62,1.9,5.29,3.77,7.71,5.91,1.65,1.46,3.13,3.22,4.28,5.09,1.72,2.81,3.17,5.81,4.59,8.79,1.86,3.93,2.12,8.18,2.1,12.45-.02,2.87,0,5.75,0,8.8.44.1.98.26,1.53.34,4.84.64,9.68,1.32,14.54,1.86,2.92.32,5.86.43,8.8.6,1.11.06,2,1.04,1.93,2.34-.22,4.38-.38,8.77-.71,13.15-.54,7.18-1.27,14.33-2.53,21.43-1.43,8.08-3.04,16.11-5.12,24.05-.67,2.56-.94,5.23-1.37,7.86-.39,2.39-.63,2.6-3.06,2.52-.58-.02-1.15-.04-1.73-.02-7.06.19-14.1-.26-21.13-.88-5.23-.46-10.45-1.05-15.67-1.54-1.65-.16-3.3-.23-4.96-.3-4.89-.21-9.78-.45-14.67-.56-2.88-.06-5.76.12-8.63.17-1.44.03-2.89.11-4.31-.01-2.11-.18-2.49-.91-1.64-2.85.26-.59.52-1.2.88-1.73,2.26-3.33,3.49-7.05,4.34-10.96.56-2.6,1.4-5.13,2.12-7.7.23-.83.45-1.65.68-2.49-.25-.18-.4-.36-.58-.4-7.53-1.77-14.32-5.18-20.67-9.48-5.42-3.67-9.1-8.79-11.21-14.93-1.45-4.21-2.49-8.55-3.83-13.23ZM107.16,494.91c-.42,2.48-.61,4.71-1.2,6.83-.67,2.42-1.72,4.73-2.53,7.11-.94,2.75-1.82,5.53-2.78,8.46.88.08,1.44.17,2,.17,3.74.02,7.49.1,11.23,0,10.61-.28,21.14.83,31.69,1.62,8.02.6,16.05,1.06,24.26,1.6.34-1.37.69-2.53.9-3.71,1.3-7.3,2.64-14.59,3.81-21.91.81-5.04,1.4-10.12,2.01-15.19.56-4.71,1.08-9.43,1.51-14.15.32-3.42.47-6.86.7-10.28-7.84-1.08-15.48-2.13-23.31-3.21-.28,2.55-1.67,4.65-1.14,7.15.09.43-.24.95-.39,1.42-.83,2.6-1.79,5.17-2.46,7.81-1.17,4.61-3,8.84-6.26,12.38-.38.42-.72.91-.98,1.42-1.36,2.66-3.49,4.57-6,6.06-2.67,1.59-5.46,2.9-8.5,3.63-1.47.35-2.97.67-4.35,1.24-4.17,1.7-8.46,2.23-12.91,1.75-1.14-.12-2.3-.16-3.45-.21-.63-.03-1.27,0-1.85,0ZM74.05,445.21c.11,1.94.14,3.88.34,5.81.11,1.04.51,2.05.73,3.09.17.84.19,1.71.39,2.54,1.52,6.06,4.68,11.06,9.47,15.1,2.38,2,4.76,3.85,7.64,5.15,5.42,2.45,11.07,4.08,16.88,5.17,3.62.68,7.32.83,10.96.28,5.4-.83,10.39-2.81,14.85-6.06,1.74-1.27,3.52-2.51,5.36-3.63,4.23-2.59,6.58-6.5,7.98-11.11.35-1.17.61-2.38,1.06-3.51,2.02-5.04,2.55-10.32,2.48-15.68-.08-5.28-1.52-10.24-3.9-14.9-1.54-3.01-3.26-5.93-5.01-8.82-.89-1.46-1.82-2.99-3.07-4.13-3.96-3.64-8.44-6.45-13.76-7.73-4.13-.99-8.28-2-12.56-1.88-6.59.18-12.97,1.64-19.22,3.68-.54.17-1.04.48-1.51.81-1.95,1.35-3.92,2.68-5.81,4.11-1.25.95-2.64,1.88-3.5,3.13-3.15,4.57-5.86,9.41-7.54,14.75-1.41,4.5-1.88,9.15-2.27,13.84ZM143.99,475.38c-.09-.08-.19-.16-.28-.25-.45.31-.89.64-1.35.94-2.36,1.5-4.81,2.89-7.08,4.52-3.49,2.52-7.16,4.48-11.52,4.91-.77.08-1.71.13-2.25.57-1.35,1.1-2.86,1.19-4.46,1.23-1.51.04-3.02.17-4.52.3-4.67.4-9.19-.15-13.51-2.03-2.83-1.23-5.63-2.54-8.5-3.66-1.44-.56-2.78-1.2-3.8-2.35-2.67-3.01-5.31-6.05-7.94-9.08-.51-.58-.96-1.22-1.73-2.21.06.77.03,1.05.1,1.3,1.32,4.18,3.58,7.84,6.38,11.16.67.8,1.64,1.41,2.56,1.93,4.25,2.42,8.52,4.8,12.8,7.16,1.91,1.05,3.96,1.7,6.14,1.89,6.34.54,12.64.55,18.77-1.58,7.11-2.48,13.61-5.84,18.19-12.11.65-.9,1.35-1.76,2.03-2.64ZM70.58,440.61c-1.48.11-2.62.14-3.74.3-2.06.3-4.13.58-6.16,1.03-2.09.46-4.14,1.12-6.21,1.68-1.06.28-1.58,1-1.55,2.05.07,2.29.15,4.59.38,6.87.05.52.61,1.13,1.09,1.44,1.78,1.12,3.7,1.31,5.79.84,2.51-.57,5.08-.89,7.62-1.31.76-.12,1.52-.22,2.26-.32.17-4.19.33-8.19.51-12.57Z"/>
      <path class="cls-2" d="M542.57,63.89c5.17,2.5,9.85,5.33,14.19,8.67,1.76,1.35,3.14,3.18,4.85,4.59,4.95,4.06,10.03,7.96,14.97,12.04,2.32,1.92,4.44,4.09,6.62,6.18.78.74,1.44,1.61,2.22,2.36,7.42,7.05,14.4,14.5,21,22.32,1.34,1.59,2.81,3.07,4.4,4.79-.86,1.06-1.7,2.1-2.55,3.13-1.45,1.77-3.08,3.43-4.33,5.34-1.55,2.38-3.33,4.53-5.4,6.43-6.44,5.9-12.15,12.47-18.05,18.89-6.43,6.99-12.9,13.96-19.32,20.96-3.94,4.3-7.8,8.66-11.72,12.97-4.27,4.7-8.97,8.94-13.93,12.9-7.81,6.25-15.68,12.43-23.52,18.64-4.71,3.73-10.21,6.17-15.33,9.22-2.22,1.32-4.51,2.53-6.79,3.77-4.25,2.3-8.85,3.36-13.6,3.93-1.63.19-3.12-.22-4.62-.92-.15-1.36.37-2.47.95-3.53,1.5-2.72,3.27-5.24,5.57-7.38,2.27-2.11,4.5-4.25,6.68-6.44,1.34-1.35,1.55-2.19.87-2.74-1.09-.9-1.88.1-2.67.6-5.1,3.24-10.15,6.55-15.27,9.77-1.76,1.11-3.56,2.24-5.5,2.94-4.06,1.45-8.17,2.8-12.35,3.82-2.19.54-4.58.46-6.86.36-3.04-.14-4.5-2.19-3.77-5.2.89-3.71,2.9-6.76,6.07-8.89,3.1-2.09,6.4-3.88,9.51-5.96,3.22-2.16,6.33-4.5,9.46-6.79.51-.37.96-.89,1.28-1.43.18-.31.23-.94.03-1.17-.28-.32-.88-.6-1.26-.52-.68.15-1.38.48-1.92.92-6.22,5.08-13.63,7.98-20.74,11.42-3.44,1.67-6.88,3.41-10.68,3.97-2.61.39-5.3.37-7.94.25-2.05-.09-2.98-1.49-2.84-3.56.23-3.38,1.43-6.26,4.08-8.51,5.38-4.56,10.62-9.28,16.6-13.08.24-.15.49-.31.71-.49,5.65-4.46,11.31-8.89,16.92-13.4,1.11-.89,2.08-2,2.96-3.12.32-.41.42-1.25.22-1.73-.13-.32-.98-.56-1.47-.5-1.93.22-3.86.48-5.75.89-5,1.06-10.01.93-15.04.34-1.64-.19-3.3-.28-4.94-.44-1.07-.1-2.16-.18-3.21-.39-2.12-.42-3.82-1.54-4.44-3.65-.61-2.05.29-3.8,1.8-5.22,1.94-1.81,4.27-2.92,6.84-3.5,2.74-.62,5.51-1.09,8.24-1.74,6.45-1.53,12.72-3.6,18.61-6.71.89-.47,1.79-.92,2.7-1.35,7.2-3.4,13.48-7.99,18.63-14.09,2.04-2.42,4.05-4.87,6.07-7.31,1.38-1.66,2.67-3.4,4.12-4.99,5.25-5.75,10.02-11.88,14.33-18.37,1.07-1.62,2.24-3.18,3.44-4.71,3.15-4.03,6.15-8.15,8.67-12.63,1.16-2.06,2.61-3.97,3.99-5.9,3.6-5.04,7.26-10.02,10.83-15.08,1.53-2.17,2.84-4.5,4.32-6.71.95-1.43,2.02-2.78,3.11-4.27Z"/>
      <path class="cls-2" d="M315.53,539.74c-2.44-1.12-4.88-2.16-7.24-3.35-10.47-5.28-20.97-10.51-31.36-15.95-10.02-5.24-19.99-10.6-28.52-18.17-5.44-4.83-10.77-9.76-16.17-14.63-.53-.48-1.17-.84-1.89-1.35.81-.9,1.26-1.43,1.74-1.93,7.12-7.38,15.07-13.8,23.03-20.22,8.93-7.21,18.63-13.3,28.25-19.49,4.93-3.17,10.41-5.22,15.8-7.44,4.26-1.75,8.58-3.35,12.81-5.18,9.11-3.95,18.7-6.19,28.36-8.18,2.89-.6,5.76-1.29,8.67-1.75,7.69-1.22,15.43-1.41,23.18-.61,2.28.23,4.54.77,6.8,1.16.82.14,1.46.53,1.86,1.31.22.44.57.83.87,1.23,1.16,1.54,1.16,2.61-.19,3.96-.81.81-1.69,1.59-2.67,2.18-3.44,2.08-6.86,4.11-11.07,4.5-3.6.34-6.97,1.73-10.18,3.41-.95.5-1.84,1.13-2.67,1.81-.32.26-.57.91-.47,1.27.1.37.73.9,1.04.85,1.9-.33,3.83.27,5.74-.46,7.58-2.92,15.46-3.92,23.54-3.3,2,.15,3.99.55,5.97.9.45.08.97.36,1.25.72,1.8,2.28,1.1,5.68-1.44,7.09-.62.34-1.32.55-2.01.75-6.28,1.86-12.56,3.69-18.83,5.58-1.35.41-2.79.51-3.96,1.55-.62.55-1.37.9-1.06,1.84.29.89,1.01,1.45,1.94,1.46,1,0,2.02-.08,3-.3,2.95-.66,5.9-1.31,8.81-2.14,4.19-1.2,8.52-1.43,12.81-1.8,2.39-.2,4.69.68,6.8,1.84,1.72.94,2.61,4.14,1.83,6.16-1.1,2.86-3.05,5.07-5.57,6.71-3.61,2.35-7.27,4.66-11.03,6.77-4.7,2.64-9.5,5.12-14.31,7.57-4.36,2.22-8.8,4.28-13.17,6.47-1.33.67-2.79,1.28-3.36,2.85-.18.49-.36,1.21-.13,1.55.24.35,1.09.62,1.47.46,2.36-.99,4.33.04,6.38.96,3.02,1.35,6.07,2.63,9.11,3.94,2.68,1.16,4.55,3.26,6.14,5.6,1.13,1.67.74,3.05-.95,4.25-2.1,1.49-4.43,2.42-6.99,2.64-4.73.42-9.44.93-14.21.87-4.74-.06-9.48.17-14.17,1.21-4.05.9-7.03,3.09-9.45,6.31-4.24,5.64-8.52,11.25-12.8,16.86-.39.51-.81.99-1.36,1.65Z"/>
      <path class="cls-1" d="M180.96,357.41c-2.5-18.74-6.94-37.01-9.39-55.68,1.18-.98,2.56-1.16,3.86-1.47,6.16-1.47,12.38-2.72,18.49-4.36,14.62-3.93,29.57-6.21,44.4-9.08,12.01-2.32,23.93-5.1,35.87-7.72,13.63-3,27.27-5.99,40.87-9.12,5.68-1.3,11.26-3.01,16.92-4.39,4.68-1.14,9.41-2.07,14.12-3.09,4.71-1.01,9.44-1.95,14.13-3.04,3.82-.88,7.64-1.28,11.56-.9,5.37.53,10.75.88,16.13,1.37.57.05,1.21.42,1.62.84.75.77,1.43,1.63,1.98,2.55,4.81,8.02,9.65,16.02,13.51,24.58,1.47,3.27,3.36,6.35,5.13,9.48.91,1.61,2.22,2.81,4.03,3.42.54.18,1.04.49,1.55.75,2.65,1.36,5.02.56,6.03-2.29.89-2.5,1.58-5.09,2.16-7.68,2.01-9.05,4.06-18.1,5.84-27.2.78-3.99,1.96-7.78,3.58-11.82.26.69.52,1.12.58,1.57.55,3.85,1.04,7.7,1.58,11.55,1.1,7.84,2.21,15.68,3.34,23.51.68,4.68,1.42,9.36,2.15,14.16-2.5.39-4.96.85-7.44,1.15-10.18,1.24-20.08,3.68-29.94,6.44-4.14,1.16-8.47,1.62-12.7,2.46-9.81,1.97-19.6,4.02-29.41,5.96-8.4,1.66-16.84,3.14-25.23,4.86-10.79,2.21-21.55,4.53-32.3,6.87-10.33,2.25-20.65,4.6-30.97,6.89-8.57,1.9-17.15,3.75-25.72,5.64-5.83,1.28-11.65,2.6-17.48,3.89-13.07,2.88-26.14,5.77-39.21,8.63-3.08.67-6.2,1.17-9.64,1.27ZM246,330.14c1.07-.14,2.15-.21,3.2-.44,3.44-.78,6.86-1.59,10.29-2.43,6.49-1.6,12.98-3.2,19.47-4.84,3.27-.83,6.53-1.73,9.79-2.6,1.6-.43,3.19-.85,4.79-1.28,3.75-1,7.5-1.98,11.24-2.99,2.71-.73,5.37-1.66,8.1-2.24,4.5-.94,9.05-1.69,13.58-2.49,9.91-1.74,19.81-3.5,29.73-5.19,6.11-1.04,12.16-2.27,18.05-4.23,4.31-1.43,8.52-3.1,12.3-5.68,2.72-1.85,3.75-5.18,2.27-7.49-1.12-1.74-2.61-3.02-4.69-3.58-2.69-.73-5.4-.99-8.12-.46-8.89,1.73-17.77,3.44-26.46,6.16-5.4,1.69-11.02,2.74-16.6,3.78-8.27,1.54-16.64,2.55-24.87,4.28-9.56,2.01-19.01,4.58-28.52,6.85-7.62,1.82-15.27,3.53-22.91,5.31-4.2.98-8.42,1.9-12.31,3.89-2.19,1.12-4.3,2.33-5.84,4.33-1.44,1.89-1.62,3.95-.88,6.12,1.07,3.19,3.68,5.09,8.38,5.22ZM312.04,283.17c.3,1.47.56,2.87.89,4.24.22.9.43,1.84.87,2.64.19.35,1.04.66,1.41.52.36-.14.58-.86.68-1.36.06-.3-.24-.66-.31-1.01-.41-2.02-.79-4.04-1.2-6.13,1.65-.57,3.04-1.04,4.57-1.57.19.71.36,1.32.52,1.94.36,1.39.66,2.8,1.08,4.17.18.59.5,1.28.98,1.6.44.29,1.28.37,1.74.14.68-.34.49-1.02.13-1.68-.44-.8-.79-1.67-1.04-2.55-.36-1.24-.5-2.55-.94-3.76-.21-.58-.86-1.39-1.36-1.42-1.62-.12-3.31-.71-4.89.26-.28.17-.68.15-1.11.23-.16-.55-.3-1.01-.43-1.48-.33-1.18-.65-2.35-.99-3.53-.21-.72-.69-1.11-1.45-.91-.75.2-1.01.78-.88,1.5.09.49.31.96.43,1.44.33,1.3.64,2.61.96,3.95-.95.5-1.69.9-2.37,1.26-.66-.48-1.17-1.08-1.79-1.24-.86-.22-1.81-.18-2.72-.12-.47.03-.99.23-1.37.52-1.61,1.23-2.56,5.08-1.76,6.96.85,2,2.86,2.5,4.58,1.13.44-.35.83-.77,1.34-1.25.25.82.39,1.53.67,2.17.33.75.86,1.44,1.82,1.05.85-.34.74-1.04.53-1.82-.45-1.64-.79-3.31-1.17-4.99.93-.33,1.66-.58,2.59-.91ZM375.52,268.57c-2.81-1.84-4.29-1.33-5.47,1.86-.19.52-.38,1.03-.63,1.72-1.29-3.45-2.62-4.37-5.62-4.05-1.65.17-3.07,1.94-3.39,4.23-.33,2.38.49,4.09,2.3,4.84,2.29.94,4.35.01,6.69-3.09.06.59.08,1.07.16,1.55.09.49.2.99.37,1.46.27.76.81,1.25,1.65.99.95-.3,1.06-.98.7-1.89-.83-2.15-.41-4.16.83-6.4.6,1.02,1,1.77,1.47,2.48.8,1.2,1.77,1.1,2.39-.22.23-.48.41-.98.8-1.91.51,1.52.83,2.59,1.23,3.63.4,1.07,1.11,1.95,2.33,1.93.51,0,1.19-.48,1.48-.94.38-.61.09-1.38-.65-1.55-.98-.23-1.16-.93-1.39-1.69-.24-.83-.47-1.66-.77-2.47-.96-2.55-2.16-2.8-4.01-.86-.14.15-.32.27-.47.4ZM355.04,274.43c.15.49.3.82.36,1.16.19,1.06.24,2.16.55,3.18.13.43.75.94,1.18.98.72.06,1.14-.56,1.16-1.28.01-.42-.15-.84-.2-1.26-.17-1.25-.71-2.5.38-3.67.2-.21-.05-1.22-.39-1.47-.87-.65-1.02-1.5-1.13-2.44-.09-.78-.25-1.56-.33-2.35-.07-.75-.38-1.28-1.17-1.27-.91.01-1.22.65-1.2,1.47.01.5.09,1,.15,1.5.12.97.26,1.95.39,2.97-1.59.54-2.97,1.01-4.5,1.53-.12-.88-.2-1.44-.27-2.01-.1-.78-.19-1.57-.31-2.35-.12-.8-.49-1.41-1.4-1.26-.92.15-1,.9-.94,1.67.02.21.08.43.08.64.03,1.7.78,3.38.07,5.11-.1.25.17.66.26,1,.2.68.42,1.35.6,2.03.18.7.2,1.45.5,2.09.17.36.76.75,1.13.72.38-.03.92-.49,1.04-.86.15-.5-.01-1.11-.09-1.67-.12-.83-.28-1.65-.44-2.59,1.6-.55,3.01-1.04,4.51-1.56ZM228.56,301.29c-1.6-1.74-2.86-3.1-4.1-4.47-1.01-1.11-1.65-1.34-2.3-.78-.63.54-.5,1.27.51,2.4,1.19,1.34,2.41,2.66,3.64,3.97,1.06,1.12,1.5,2.32.97,3.89-.64,1.9-1.09,3.87-1.62,5.8-.25.9-.61,1.78-.71,2.7-.05.45.24,1.15.6,1.39.62.4,1.24.05,1.6-.6.14-.25.22-.53.3-.8,1.68-6.46,3.37-12.91,5.01-19.38.4-1.58.04-2.41-.88-2.44-1.34-.04-1.31,1.1-1.52,1.97-.48,1.94-.91,3.9-1.49,6.36ZM273.42,290.13c.05.4.06,1.06.21,1.68.72,2.92,4.1,5.04,6.56,4.06,1.65-.66,2.86-1.9,3.79-3.39.43-.69.48-1.37-.3-1.87-.71-.45-1.19-.06-1.66.47-.61.7-1.22,1.4-1.89,2.04-.87.83-1.91.81-2.7,0-.67-.68-1.43-1.58-1.53-2.46-.22-2.04.31-4.02,1.72-5.6.49-.56,1.26-1.03,1.97-1.18.47-.1,1.07.49,1.64.66.44.12,1.15.25,1.35.03.31-.34.57-1.19.36-1.46-.47-.64-1.16-1.31-1.89-1.55-1.71-.56-3.26.07-4.57,1.21-2.15,1.87-2.88,4.38-3.07,7.36ZM249.18,299.91c-.4-.46-.74-.69-.84-.99-.44-1.36-.88-2.72-1.19-4.12-.19-.83-.32-1.6-1.38-1.56-.81.03-1.27.82-1.03,2.01.28,1.4.62,2.82,1.16,4.14.33.83.96,1.62,1.64,2.21,1.24,1.08,2.51.93,3.6-.29.39-.43.71-.93,1.19-1.55.52,1.23.9,2.24,1.36,3.2.48,1,1.2,1.36,1.82.93.76-.52.88-1.23.52-2.08-1-2.38-1.96-4.77-2.94-7.16-.34-.83-.35-1.95-1.61-2-.82-.03-1.15.67-1.2,2.39-.05,1.58-.07,3.15-1.09,4.85ZM243.78,299.53c.07-1.57-1.25-2.95-2.46-4.36-.28-.32-.9-.43-1.38-.48-2.2-.22-4.21.94-4.92,3.04-.4,1.2-.59,2.52-.61,3.79-.02,1.92,1.05,3.22,2.87,3.87,1.87.66,3.59.24,4.88-1.24,1.03-1.18,1.55-2.56,1.61-4.63ZM385.08,271.6c2.21-1.08,3.02-1.82,3.54-3.16.49-1.26.15-2.48-.9-3.25-1.05-.76-2.34-.68-3.32.33-1.53,1.58-2.26,3.49-1.97,5.71.28,2.13,1.97,3.61,4.13,3.71,1.93.09,4.45-1.62,4.8-3.37.08-.38-.19-1.04-.51-1.24-.31-.19-.98-.11-1.33.11-.46.3-.73.87-1.14,1.28-1.06,1.07-1.67,1.05-3.3-.14ZM296.25,290.33c1.24-1.35,2.27-2.23,2.98-3.33.7-1.08.28-2.44-.68-3.32-.94-.87-2.16-1.05-3.17-.4-1.65,1.06-2.06,2.95-2.61,4.57-.28.83.48,2.21,1.09,3.12,1.61,2.38,4.81,2.38,6.65.13.48-.59.92-1.21.27-1.9-.62-.66-1.29-.45-1.89.12-.26.25-.5.58-.81.69-.49.17-1.03.19-1.84.32ZM335.58,280.37c.9-1.09,1.88-1.96,2.45-3.04.62-1.17-.13-2.78-1.22-3.32-1.01-.5-2.1-.15-3.01.97-1.57,1.93-1.82,4.09-.72,6.15.79,1.48,2.18,2.18,3.75,1.89,1.4-.26,3.28-2.08,3.3-3.34,0-.41-.31-1.02-.65-1.18-.33-.15-.97.04-1.31.3-.43.34-.65.95-1.05,1.35-.46.47-1.02.88-1.54.23ZM257.66,292.89c-.08-.11-.25-.56-.57-.75-.38-.23-1.07-.49-1.3-.31-.37.29-.76,1.02-.63,1.38.79,2.31,1.67,4.58,2.64,6.82.15.35,1.01.7,1.38.58.39-.13.67-.8.85-1.28.11-.3-.11-.7-.13-1.05-.04-.93-.18-1.87-.05-2.78.23-1.69.82-2,2.58-1.92.46.02,1.21-.28,1.36-.63.16-.39-.07-1.26-.4-1.46-.62-.37-1.54-.72-2.14-.52-1.23.43-2.34,1.23-3.58,1.93ZM327.51,281.43c-.88-1.44-1.57-2.6-2.29-3.74-.38-.6-.91-.99-1.62-.59-.77.44-.82,1.13-.42,1.85.91,1.62,1.83,3.25,2.79,4.84.49.82,1.11,1.58,2.22,1.34.99-.21,1.27-1.08,1.52-1.91.6-1.98,1.22-3.96,1.71-5.97.1-.43-.17-1.22-.51-1.4-.35-.18-1.18.02-1.45.34-.48.58-.76,1.36-1.02,2.09-.33.92-.56,1.89-.92,3.14ZM286.87,287.06c-.44-.4-.81-.88-1.3-1.14-.31-.17-.95-.17-1.16.03-.3.29-.56.93-.44,1.28.64,1.82,1.4,3.6,2.12,5.39.27.67.76,1.2,1.46.88.4-.18.63-.84.84-1.32.1-.23-.03-.56-.04-.85-.06-2.15.75-3.33,2.79-4.07.27-.1.66-.03.82-.2.31-.33.72-.8.68-1.18-.04-.39-.5-.93-.88-1.04-.5-.14-1.17-.06-1.64.19-1.07.56-2.07,1.27-3.25,2.02ZM320.71,274.27c-.02-1.26-.66-2.03-1.39-1.97-.73.06-1.16.49-1.19,1.25-.02.79.71,1.69,1.42,1.53.49-.11.9-.62,1.16-.81Z"/>
      <path class="cls-2" d="M199.57,364.06c2.54-.4,4.93-.8,7.33-1.15,6.9-1.02,13.82-1.97,20.71-3.03,6.75-1.04,13.53-2.01,20.23-3.31,10.59-2.05,21.16-4.28,31.7-6.58,12.02-2.63,24.02-5.34,36.1-7.7,14.55-2.85,28.97-6.29,43.48-9.34,4.85-1.02,9.82-1.5,14.7-2.42,8.34-1.57,16.69-3.13,24.96-5.02,5.45-1.24,10.96-2.45,16.12-4.75.43-.19.95-.16,1.74-.27,2.69,12.3,5,24.57,7.49,36.86-18.78,15.38-37.48,30.69-56.21,46.03-1.35-.79-2.6-1.5-3.83-2.23-8.69-5.1-17.39-10.19-26.06-15.33-2.1-1.25-4.07-2.73-6.16-3.99-8.01-4.85-16.24-9.31-24.72-13.25-2.31-1.08-4.93-1.56-7.46-2.11-3.25-.7-6.57-.78-9.88-.49-3.37.3-6.36,1.73-9.25,3.38-.44.25-.82.59-1.26.83-9.86,5.37-18.14,12.64-25.64,20.9-4.65,5.12-9.68,9.85-14.9,14.39-6.24,5.43-12.3,11.08-18.31,16.76-2.56,2.41-4.82,5.15-7.21,7.73-.58.62-1.17,1.23-2.09,2.2-.4-2.11-.78-3.81-1.04-5.54-1.32-8.53-2.49-17.08-3.93-25.59-1.19-7.02-2.71-13.98-4.01-20.99-.87-4.67-1.61-9.36-2.39-14.05-.08-.49-.1-1-.18-1.95ZM361.16,353.63c.36,2.14.54,4.24,1.09,6.23.95,3.49,3.3,5.86,6.68,7.09,4.78,1.75,12.78-.92,15.65-5.15.62-.91.79-2.17,2.12-2.56.24-.07.45-.75.41-1.12-.32-2.63-.27-5.35-1.56-7.77-2.03-3.8-4.94-6.54-9.4-7.11-4.35-.56-8.26.84-11.83,3.15-.95.61-1.68,1.8-2.12,2.88-.56,1.37-.71,2.91-1.03,4.35Z"/>
      <path class="cls-2" d="M395.14,424.54c-3.14.44-5.87.82-8.67,1.21-.12-.4-.29-.66-.27-.91.29-3.06-1.8-4.32-4.1-5.37-.78-.35-1.64-.53-2.48-.73-7.85-1.89-15.74-2.23-23.79-1.39-11.43,1.19-22.58,3.6-33.55,6.88-5.16,1.54-10.25,3.39-15.23,5.45-13.98,5.77-27.76,11.95-40.51,20.22-1.03.67-2.42,1.02-3.66,1.09-6.42.37-12.66,1.89-18.98,2.89-6.61,1.05-13.23,2.02-19.85,2.92-2.06.28-4.17.22-6.25.34-.99.06-1.65-.21-1.87-1.3-1.39-6.9-2.8-13.8-4.12-20.25.93-1.11,1.55-1.94,2.26-2.68,1.93-2.04,3.87-4.07,5.86-6.05,1.07-1.06,2.25-2.02,3.38-3.02,5.34-4.72,10.68-9.43,16-14.16.75-.67,1.48-1.38,2.14-2.13,4.99-5.71,10.76-10.61,16.27-15.77,3.78-3.54,7.34-7.32,11.09-10.9,7.76-7.39,17.07-10.97,27.75-11.08,1.65-.02,3.31.11,4.96.18,3.71.16,6.97,1.76,10.14,3.44,6.29,3.34,12.54,6.77,18.68,10.37,6.7,3.93,13.26,8.11,19.9,12.15,7.32,4.45,14.71,8.77,21.97,13.3,4.7,2.93,9.22,6.15,13.84,9.2,2.64,1.74,5.33,3.41,7.99,5.12.27.18.49.44,1.1,1Z"/>
      <path class="cls-2" d="M575.52,455.39c-2.69,2-4.9,4.24-7.72,5.75-6.35,3.39-12.6,6.96-18.98,10.29-7.91,4.13-15.86,8.23-24.73,9.98-1.76.35-3.57.38-5.34.69-1.98.35-3.92.9-5.9,1.28-1.53.29-3.08.46-4.85.72-.49-2-1.05-3.7-1.31-5.45-.75-5.08-2.47-9.9-3.86-14.81-1.68-5.95-3.86-11.79-5.12-17.83-1.05-5-3.21-9.29-5.75-13.59-1.95-3.29-4.29-5.87-7.79-7.45-2.88-1.31-5.68-2.8-8.52-4.19-3.16-1.55-5.63-3.99-8.08-6.42-1.89-1.87-3.66-3.88-4.64-6.43-.36-.93-.82-1.86-.93-2.83-.49-4-.93-8.01-1.27-12.02-.35-4.23-.55-8.47-.84-12.71-.28-4.03.35-7.89,2-11.58,1.06-2.36,2.58-4.3,4.9-5.55,1.16-.63,2.3-.76,3.49-.12,2.01,1.08,4.34,1.57,5.94,3.41.78.89,1.35,1.77,1.53,2.99.78,5.13,2.73,9.83,5.62,14.12,2.16,3.22,4.89,5.63,8.92,6.22,2.04.3,2.54.31,5.26-.65,1.55,1.77,1.78,1.76,3.54.1.73-.68,1.54-1.29,2.35-1.89,1.16-.85,2.36-1.64,3.53-2.49,6.53-4.73,13.05-9.46,19.58-14.19.23-.17.49-.29.95-.55.33.76.69,1.44.93,2.15,2.12,6.42,4.28,12.83,6.31,19.27,1.51,4.79,3.99,9.07,6.61,13.3,1.41,2.26,3.01,4.41,4.25,6.76,4.84,9.22,10.94,17.59,17.07,25.95,3.66,4.99,7.39,9.93,11.07,14.9.59.81,1.07,1.7,1.78,2.86Z"/>
      <path class="cls-1" d="M344.9,254.59c1.27-3.82,4.05-6.09,6.46-8.64.74-.78,1.42-1.61,2.12-2.43,1.17-1.37,2.27-2.79,3.49-4.1,4.55-4.91,9.27-9.66,13.26-15.07,1.43-1.94,1.4-2.31.35-4.47-1.04-2.13-1.92-4.34-2.71-6.57-2.7-7.59-5.28-15.23-8.02-22.81-1.15-3.17-2.62-6.23-3.92-9.35-.41-.97-.73-1.98-1.22-3.35.97.21,1.58.28,2.16.47,8.58,2.77,16.74,6.56,24.83,10.5,2.52,1.23,5.12,2.3,7.6,3.6,1.94,1.02,3.77,2.24,5.59,3.47.73.49,1.24.61,1.85-.07,3.96-4.46,7.81-9.03,11.93-13.34,3.37-3.54,7.08-6.75,10.58-10.16,1.49-1.45,2.79-3.1,4.26-4.58,1.56-1.57,3.22-3.03,4.91-4.61,1.02,1.11.71,2.35,1.25,3.34-1.35,1-2.53,1.93-3.77,2.78-1.15.79-1.72,1.91-2.01,3.2-.78,3.46.38,6.54,1.97,9.5.2.36.76.64,1.2.74,1.5.35,3.03.61,4.72.94.26,2.29.53,4.42.72,6.55.23,2.65.34,5.32.61,7.97.11,1.14-.26,1.87-1.11,2.59-2.74,2.33-5.44,4.71-8.11,7.13-3,2.72-5.11,6-6.14,9.97-.6,2.31-.22,4.43.84,6.47.71,1.35,1.89,2.14,3.36,2.5,2.79.68,5.55.55,8.33-.13,2.91-.71,5.85-1.33,9.1-2.06-.53.74-.83,1.21-1.18,1.64-1.74,2.13-2.31,4.6-2.14,7.28.21,3.29,2.92,6.34,6.19,6.82,1.19.18,2.45.2,3.65.04,2.57-.34,5.12-.78,7.66-1.28,3.48-.67,6.83-1.71,9.95-3.45,2.37-1.32,4.9.29,5.06,2.96.07,1.24.56,2.45.93,3.94-1.04.8-2.56.93-4.01,1.09-6.86.76-13.74,1.39-20.6,2.21-3.27.39-6.53,1.01-9.75,1.72-2.34.51-4.5,1.48-5.74,3.76-.27.49-.6.99-.72,1.53-1.38,6.1-2.91,12.17-4.03,18.32-1.22,6.73-2.54,13.43-4.34,20.03-.56,2.05-1.04,4.12-1.56,6.18-.15.04-.31.09-.46.13-1.48-2.09-3-4.16-4.43-6.29-2.33-3.46-4.53-7-6.9-10.43-3.11-4.5-6.41-8.87-9.48-13.4-1.16-1.71-1.95-3.67-2.86-5.54-.92-1.87-1.79-3.76-2.68-5.65-.39-.83-1.01-1.22-1.89-1.58-2.26-.94-4.57-1.04-6.97-1.09-6.39-.16-12.63.84-18.86,2.01-5.83,1.09-11.62.4-17.42-.25-.61-.07-1.18-.41-1.87-.66Z"/>
      <path class="cls-2" d="M181.69,361.96c3.48-1.06,6.71-2.04,9.94-3.01,13.33-4.01,27.11-5.97,40.69-8.85,14.01-2.97,27.97-6.17,41.95-9.25,15.67-3.46,31.32-7.01,47.03-10.31,11.27-2.37,22.62-4.34,33.91-6.57,6.78-1.34,13.51-2.9,20.29-4.24,14.75-2.92,29.52-5.78,44.29-8.64,4.8-.93,9.61-1.78,14.41-2.73,2.11-.42,4.2-.99,6.3-1.48.41-.1.83-.13,1.44-.22.26,1.32.52,2.57.75,3.83,1.76,9.7,3.53,19.39,5.26,29.1.43,2.4.67,4.83,1.06,7.23.18,1.1-.06,2.08-.91,2.72-6.14,4.65-6.89,11.47-7.42,18.36-.25,3.25.34,6.46,1.17,9.61.7,2.64,1.9,4.97,4.12,6.67.34.26.7.51.96.71-3.5,6.15-6.87,12.06-10.36,18.19-.25-.61-.49-1.03-.59-1.48-1.98-9.36-4.08-18.7-5.85-28.1-1.66-8.84-2.84-17.77-4.46-26.61-1.12-6.08-2.67-12.08-3.96-18.13-.63-2.95-1.11-5.94-1.63-8.92-.35-2-2.01-3.01-3.81-2.22-4.41,1.92-9.15,2.46-13.8,3.29-7.09,1.26-14.14,2.6-21.13,4.37-9.41,2.38-18.84,4.72-28.52,5.89-8.65,1.05-17.14,3.02-25.66,4.86-14.84,3.21-29.75,6.08-44.63,9.14-6.41,1.32-12.78,2.89-19.2,4.12-6.36,1.22-12.77,2.14-19.15,3.24-6.66,1.15-13.31,2.42-19.98,3.52-4.25.7-8.56,1.09-12.81,1.79-4.32.71-8.63,1.54-12.9,2.5-2.47.56-2.77,1.19-2.27,3.7,1.47,7.34,3.08,14.65,4.47,22,.83,4.38,1.27,8.83,2.02,13.23,2.59,15.18,5.19,30.36,7.9,45.51.67,3.75,1.59,7.46,1.71,11.29.02.56.21,1.13.4,1.67.68,1.92.91,2.07,3,1.97,8.21-.39,16.35-1.23,24.43-2.78,6.08-1.17,12.2-2.1,18.3-3.12.73-.12,1.49-.14,2.34.17-.41.35-.81.74-1.25,1.06-3.51,2.52-7.01,5.05-10.54,7.54-.57.4-1.27.66-1.94.89-8.38,2.77-17.02,4.25-25.76,5.23-5.44.61-10.85,1.38-16.28,2.07-.56.07-1.13.07-1.8.11-1.21-2.99-2.04-6.03-2.48-9.15-1.29-9.28-3.53-18.37-5.32-27.55-1.7-8.69-3.16-17.42-4.76-26.12-1.2-6.51-2.42-13.02-3.69-19.52-1.54-7.84-3.16-15.66-4.73-23.49-.18-.91-.31-1.82-.52-3.07Z"/>
      <path class="cls-2" d="M509.02,488.11c.21-.24.25-.32.31-.34,4.45-1.15,8.89-2.37,13.37-3.4,1.66-.38,3.43-.37,5.15-.48,3.85-.24,7.53-1.08,11.03-2.75,5.19-2.47,10.45-4.81,15.62-7.31,1.87-.9,3.63-2.06,5.35-3.23,4.16-2.83,8.27-5.74,12.54-8.72,1.08.81,1.99.33,2.9-.58.75-.75,1.62-1.38,2.61-2.21.67,1,1.25,1.81,1.76,2.65.82,1.35,1.64,2.71,2.4,4.1,1.65,3.04,3.51,5.92,5.68,8.64,2.2,2.75,4.03,5.79,6.1,8.64,1.56,2.15,3.21,4.24,4.93,6.27.51.61,1.37.92,2.06,1.38.28.19.65.36.79.64,2.02,4.13,5.22,7.39,7.96,11,.08.11.1.26.2.54-.37.33-.78.7-1.2,1.06-9.46,8.28-20.56,14-31.43,20.05-6.78,3.78-13.65,7.47-20.74,10.61-5.43,2.41-11.26,3.94-16.93,5.8-.94.31-1.98.36-2.98.42-4.22.24-8.37.89-12.43,2.11-.59.18-1.27.1-2.12.15-2.53-8.65-5.66-17.05-6.9-26.08.83-.34,1.39-.27,1.77.59.39.9,1.18,1.15,1.95.67,1.94-1.21,4.23-1.27,6.3-2.04,1.55-.58,3.21-.87,4.72-1.53,2.79-1.22,5.67-2.03,8.65-2.6,5.79-1.09,11.06-3.63,16.33-6.1,4.04-1.89,8.03-3.9,12.06-5.8,6.55-3.07,12.42-7.26,18.34-11.34,1.52-1.05,2.79-2.49,4.14-3.78.41-.39.76-.87,1.07-1.35.51-.79.69-1.67-.11-2.34-.72-.61-1.5-.29-2.16.25-1.28,1.05-2.67,2-3.81,3.19-5.31,5.54-11.99,8.89-18.89,11.85-6.15,2.63-12.38,5.07-18.57,7.62-1.8.74-3.58,1.52-5.32,2.37-7.5,3.64-15.35,6.14-23.62,7.23-.43.06-.86.1-1.29.1-1.84,0-2.43-.47-2.79-2.29-1.01-5.15-1.98-10.32-3.01-15.47-.55-2.75-1.2-5.47-1.81-8.22Z"/>
      <path class="cls-2" d="M215.02,272.26c1.13-.29,2.58-.02,2.96-1.65,1.19-.4,2.39-.79,3.58-1.19.04.12.09.24.13.36-.84.39-1.68.78-2.52,1.18,3.96-.42,7.74-1.49,11.5-2.65l-.07.06c4.65-.94,9.33-1.75,13.94-2.86,6.36-1.53,12.67-3.29,19-4.96.69-.18,1.37-.41,2.03-.75-6.08.98-11.93,3.12-18.16,3.36,2.46-.68,4.92-1.41,7.4-2.04,7.39-1.87,14.77-3.78,22.2-5.53,9.03-2.13,18.09-4.15,27.17-6.11,2.95-.64,5.96-1.12,8.96-1.33,11.15-.77,21.97-3.63,32.99-5.22.76-.11,1.52-.2,2.8-.37-.79.79-1.21,1.24-1.66,1.66-2.22,2.09-4.13,4.42-5.56,7.12-.4.75-.71,1.58-.85,2.42-.51,2.95.22,4.35,2.9,5.76.24.13.5.23,1.1.5-.77.22-1.21.36-1.66.46-4.06.94-8.18,1.69-12.18,2.85-8.71,2.54-17.55,4.53-26.42,6.44-12.59,2.72-25.11,5.75-37.69,8.53-15.6,3.44-31.2,6.87-46.99,9.38-9.46,1.5-18.72,3.97-28.02,6.22-6.77,1.64-13.57,3.17-20.47,4.78-1.2-4.86-1.16-9.86-1.58-15.06,1.71-.6,3.48-1.79,5.19-1.71,4.87.23,9.24-1.73,13.84-2.61,4.58-.87,9.07-2.28,13.59-3.49,3.34-.89,6.66-1.81,9.99-2.74.89-.25,1.76-.56,2.64-.85l-.07.05ZM178.39,292.1c1.63.02,2.99-1.18,3.25-2.86.08-.55-.06-1.27.25-1.64.87-1.05.48-1.85-.27-2.65-.89-.95-2.06-1.23-3.13-.63-1.64.91-2.81,2.26-3.12,4.16-.32,1.98,1.07,3.59,3.03,3.61ZM193.46,285.79c0-2.02-1.23-3.2-3.39-3.25-1.93-.04-3.74,1.91-3.71,3.98.03,1.6,1.26,2.79,2.91,2.81,2.08.03,4.18-1.74,4.18-3.55ZM199.59,286.14c.84-.28,1.87-.44,2.69-.92,1.46-.86,1.78-3.23.6-4.3-1.12-1.02-2.54-1.43-4-.93-1.51.52-2.49,1.67-2.76,3.28-.17,1.03.31,1.85,1.24,2.27.63.29,1.36.38,2.22.6Z"/>
      <path class="cls-2" d="M313.47,542.62c-1.73,2.38-3.4,4.54-4.91,6.79-2.16,3.22-4.22,6.51-6.32,9.78-.35.54-.64,1.14-1.06,1.62-1.08,1.21-2.22,2.36-3.48,3.68-.85-.37-1.89-.84-2.95-1.27-4.93-2-9.82-4.12-14.81-5.95-6.13-2.25-11.72-5.47-17.25-8.85-3.25-1.99-6.54-3.93-9.77-5.95-3.72-2.33-7.41-4.7-11.08-7.1-2.59-1.7-5.06-3.57-7.69-5.2-9.36-5.8-17.53-13.07-25.47-20.61-.15-.14-.26-.34-.52-.7,5.5-7.09,11.94-13.3,18.69-19.39.5.37.98.66,1.39,1.03,7.94,7.15,16.62,13.32,25.4,19.36.36.24.72.48,1.05.75,8.23,6.96,17.5,12.4,26.77,17.79,8.03,4.67,16.45,8.58,25.24,11.67,2.17.76,4.3,1.62,6.78,2.56Z"/>
      <path class="cls-2" d="M427.43,418.43c-2.24.36-4.5.84-6.78,1.07-6.76.67-13.38,1.99-19.9,3.85-1.52.44-2.65.33-3.91-.78-1.5-1.32-3.3-2.29-4.98-3.4-6.92-4.54-13.84-9.07-20.76-13.62-.24-.16-.44-.36-.85-.7.78-.79,1.45-1.61,2.26-2.27,6.44-5.2,12.92-10.35,19.35-15.56,4.08-3.31,8.09-6.7,12.14-10.05,4.55-3.76,9.11-7.51,13.68-11.25,2.32-1.89,4.67-3.75,7.25-5.82.28,1.09.51,1.82.65,2.57,1.94,10.39,3.86,20.79,5.8,31.18.53,2.83,1.09,5.65,1.65,8.47.11.56.13,1.2.41,1.67,1.26,2.12.58,3.89-.72,5.7-1.22,1.69-2.27,3.5-3.35,5.29-.66,1.1-1.22,2.27-1.94,3.63Z"/>
      <path class="cls-1" d="M479.54,364.63c6.25-4.58,12.19-9,18.22-13.31,3.63-2.59,7.45-4.91,11.07-7.5,6.02-4.32,11.96-8.75,17.92-13.16,1.62-1.19,3.18-2.45,4.84-3.74.9,1.26,1.6,2.51,2.56,3.52,1.63,1.72,3.43,3.27,5.12,4.93.56.55,1.12,1.15,1.49,1.83,1.67,3.06,3.71,5.81,6.44,8.02.22.17.36.44.69.85-.55.54-1.05,1.13-1.65,1.59-7.21,5.49-14.35,11.08-21.68,16.41-7.45,5.42-15.11,10.54-22.62,15.88-2.69,1.91-5.25,4.03-7.79,6.15-.88.73-1.69.9-2.76.63-1.98-.5-3.71-1.42-4.67-3.2-1.16-2.14-2.09-4.41-3-6.67-1.19-2.92-2.3-5.88-3.36-8.85-.38-1.06-.54-2.21-.81-3.38Z"/>
      <path class="cls-2" d="M380.43,434.37c.85-.62,1.78-1.16,2.52-1.88.85-.83,1.79-1.73,2.24-2.79.45-1.05,1.07-1.44,2.04-1.58,2.42-.36,4.86-.61,7.25-1.11,5.7-1.19,11.34-2.69,17.07-3.71,5.16-.93,10.4-1.41,15.61-2.05,2.78-.34,5.58-.64,8.37-.92,3.15-.31,3.36-.48,3.86-3.68,3.09-.6,6.25-1.28,9.43-1.81,2.6-.43,5.22-.67,8.08-1.03.67,3.22,1.38,6.63,2.13,10.19-1.2.35-2.21.73-3.25.94-7.26,1.48-14.52,2.95-21.78,4.39-9.17,1.81-18.35,3.58-27.53,5.39-3.53.7-7.04,1.48-10.57,2.18-.53.1-1.17.13-1.65-.08-3.44-1.51-7.1-1.73-10.77-1.89-.98-.04-1.96-.1-2.94-.15-.04-.14-.08-.28-.12-.42Z"/>
      <path class="cls-2" d="M460.9,364.29c-1.66-1.23-2.74-2.6-3.12-4.58-.6-3.15-.83-6.24.19-9.36.71-2.18,1.2-4.44,1.91-6.62.74-2.28,1.87-4.35,3.79-5.91.45-.36.87-.76,1.25-1.19,2.41-2.76,5.4-4.47,9.02-5.07,2.54-.42,5.08-.92,7.63-1.28,2.12-.3,4.15.34,6.11,1.04,1.81.65,3.54,1.52,5.77,2.5-1.14.24-1.86.5-2.58.51-6.99.12-11.8,4.06-15.87,9.15-2.62,3.28-4.83,6.83-5.44,11.1-.23,1.62-.23,3.27-.35,5.2-3.11.51-6.03,1.91-8.31,4.52Z"/>
      <path class="cls-2" d="M459.2,366.62c-2.6,4.43-3.07,9.29-3.3,14.2-.12,2.52-1.32,3.6-3.84,3.04-1.62-.36-3.19-1.13-4.65-1.96-1.48-.84-2.3-2.3-2.8-3.95-1.88-6.23-1.84-12.46,0-18.68.87-2.93,2.73-5.2,5.08-7.07,1.36-1.08,2.7-1.52,4.8-1.67-.08,1-.1,1.98-.23,2.95-.68,4.91.59,9.11,4.37,12.45.16.14.27.32.58.69Z"/>
      <path class="cls-2" d="M552.18,343.44c-2.37-1.75-4.22-3.81-5.58-6.33-.44-.82-1.04-1.55-1.53-2.34-.76-1.21-1.51-2.43-2.25-3.66-1.33-2.21-2.66-4.43-3.99-6.65-.29-.48-.55-.99-.91-1.64,1.29-.9,2.49-1.8,3.75-2.6,1.58-1,3.17-1.98,4.82-2.87,2.5-1.35,3.7-.91,5.13,1.51,1.2,2.04,2.55,4,3.81,6,1.49,2.37,2.98,4.74,4.43,7.13.37.61.6,1.31.84,1.98.83,2.42.41,4.03-1.71,5.42-2.21,1.45-4.55,2.71-6.82,4.05Z"/>
      <path class="cls-2" d="M503.91,340.55c-1.63,1.14-3.22,2.35-4.91,3.4-7.63,4.79-14.75,10.29-21.78,15.91-.63.5-1.09,1.27-2.21.97-2.13-.56-2.93-1.52-2.54-3.69.73-4.1,2.28-7.9,4.95-11.12,4-4.8,8.92-8.09,15.31-8.81,4.08-.46,7.57,1.09,11.06,2.72.04.2.07.41.11.61Z"/>
      <path class="cls-2" d="M448.08,410.5c-2.12-1.97-4-3.72-5.94-5.51,1.59-2.87,3.11-5.55,4.58-8.26,1.48-2.72,2.94-5.45,4.33-8.21.51-1.01,1.07-1.59,2.31-1.45.75.08,1.54-.18,2.58-.33.1.74.3,1.56.32,2.39.14,5.88,1.15,11.59,3.12,17.13.09.26.1.55.16.94-3.83,1.11-7.61,2.2-11.47,3.31Z"/>
      <path class="cls-2" d="M230.66,268.31c-2.05.24-4.1.47-6.15.71-.02-.09-.04-.18-.06-.27,5.36-1.3,10.73-2.6,16.09-3.9.03.1.06.21.1.31-2.49.74-4.98,1.46-7.46,2.22-.87.27-1.72.64-2.58.97,0,0,.06-.05.06-.05Z"/>
      <path class="cls-2" d="M452.17,341.48c.89,1.89,1.28,3.89,1.3,5.96-1.2-1.82-.93-3.96-1.3-5.96Z"/>
      <path class="cls-2" d="M463.29,425.93v-3.84c.54,1.21.93,2.08,1.39,3.1-.34.18-.74.39-1.39.74Z"/>
      <path class="cls-2" d="M205.97,511.58q1.04.34,1.66,1.37-1.11-.36-1.66-1.37Z"/>
      <path class="cls-2" d="M431.71,415.69c.41-.67.82-1.33,1.22-2,.14.08.28.15.41.23-.37.69-.75,1.37-1.12,2.06-.17-.1-.34-.19-.52-.29Z"/>
      <path class="cls-2" d="M215.08,272.22c-.33-.08-.65-.17-1.25-.32.93-.28,1.6-.48,2.28-.68.03.08.05.16.08.25-.39.27-.77.53-1.16.8,0,0,.06-.04.06-.04Z"/>
      <path class="cls-2" d="M229.93,483.16c-.22.17-.44.34-.65.51-.05-.05-.1-.09-.14-.14.19-.2.38-.4.56-.6.08.08.16.15.24.23Z"/>
      <path class="cls-2" d="M26.6,304.67c.48-.7.9-1.35,1.37-1.98,5.77-7.73,11.44-15.54,17.36-23.15,2.96-3.79,6.28-7.32,9.63-10.78,5.26-5.43,10.68-10.7,16.02-16.04,5.1-5.1,10.43-9.93,16.31-14.12,6.33-4.51,12.5-9.28,19.07-13.41,7.37-4.62,15.1-8.66,22.7-12.91.64-.36,1.51-.53,2.24-.48,2.37.16,4.72.5,7.09.72.92.09,1.67.37,2.15,1.21.87,1.56,1.76,3.11,2.71,4.8-.62.3-1.04.54-1.48.72-4.98,2-9.52,4.73-13.62,8.21-.74.63-1.13,1.27-.86,2.23.29,1.05,1.03,1.34,1.97.77.18-.11.34-.27.5-.42,3.06-2.92,6.7-4.98,10.49-6.73,1.6-.74,3.37-1.29,5.12-1.52,6.84-.87,13.66-.55,20.35,1.12,3.56.89,7.04,2.09,10.05,4.31.75.55,1.62.94,2.41,1.43,2.5,1.53,3.96,3.67,4.17,6.66.21,3.07-1.67,5.9-4.65,6.67-2.23.57-4.47.81-6.83.55-2.7-.3-5.46-.25-8.19-.14-2.03.08-3.67,1.28-5.06,2.65-1.58,1.56-3.01,3.29-4.53,4.92-.63.68-1.34,1.28-1.98,1.96-.29.3-.53.67-.71,1.05-.36.75-1.01,1.52-.09,2.32.7.62,1.82.6,2.76-.2,2.02-1.73,3.97-3.55,5.96-5.32,1.4-1.25,2.8-2.49,4.21-3.71.91-.79,1.98-1.16,3.19-1.11,1.8.08,3.6.11,5.39.28,2.86.28,5.61.02,8.2-1.29.67-.34,1.27-.27,2.02-.18,3.14.34,6.31.33,9.45.7,2.19.25,4.42.67,6.48,1.43,2.72,1.01,3.2,3.55,1.22,5.7-1.87,2.03-4.12,3.59-6.59,4.82-6.68,3.33-13.74,5.55-21,7.1-6.58,1.41-12.8,3.58-17.81,8.21-2.41,2.23-4.38,4.94-6.54,7.43-1.74,2.01-3.37,4.12-5.23,6.01-2.6,2.63-4.82,5.47-6.55,8.77-6.04,11.55-12.64,22.78-20.09,33.49-4.45,6.39-8.47,13.03-12.15,19.89-.2.37-.44.72-.77,1.27-1.5-.8-3-1.49-4.38-2.36-4.61-2.88-9.57-4.97-14.72-6.64-3.17-1.03-6.17-2.37-8.97-4.18-1.09-.7-2.2-1.39-3.36-1.95-7.37-3.53-14.05-8.15-20.68-12.87-2.92-2.08-6.04-3.9-9.14-5.73-3.35-1.98-6.68-3.95-9.63-6.53-1.5-1.31-3.22-2.38-4.97-3.65Z"/>
      <path class="cls-2" d="M191.11,219.52c-2.04-4.41-4-8.65-5.96-12.88-.33-.72-.61-1.48-1.04-2.13-.84-1.27-.61-2.27.77-3.32,2.96.66,6.19,1.11,9.24,2.1,4.29,1.41,8.48,3.14,12.64,4.91,1.13.48,2.16,1.44,2.94,2.42,1.25,1.57.99,3.39-.33,4.88-2.1,2.37-4.71,3.73-7.86,4.04-3.51.34-7.02.38-10.39-.02Z"/>
      <path class="cls-2" d="M184.67,241.06c1.63-3.24,3.85-5.96,2.31-9.62.6-.35,1.07-.64,1.55-.91.5-.28,1.02-.53,1.52-.81,3.03-1.77,3.47-2.74,2.71-6.31,4.96-.17,9.74-.13,13.62,3.62,1.26,1.22,1.66,2.54,1.19,4.27-1.07,3.93-3.36,6.78-7.37,7.63-4.48.95-9.06,1.45-13.6,2.11-.55.08-1.13.01-1.93.01Z"/>
      <path class="cls-2" d="M165.7,219.12c2.42-1.84,4.7-3.55,6.96-5.29.51-.39,1.04-.84,1.33-1.38.23-.43.34-1.2.1-1.53-.25-.34-.97-.4-1.5-.46-.24-.03-.53.19-.77.34-5.65,3.54-12,5.06-18.41,6.37-.83.17-1.71.1-2.66.15-.31-.57-.6-1.11-1.06-1.94,2.8-.96,5.41-1.92,8.06-2.75,5.28-1.64,10.62-3.09,15.86-4.86,2.07-.7,3.92-2.04,6.01-3.17,2.12,3.99,3.49,8.4,4.92,12.57-1.32.8-2.49,1.55-3.71,2.22-1.8.99-3.4,2.43-5.61,2.5-.35.01-.74.12-1.05.02-2.79-.89-5.57-1.82-8.48-2.78Z"/>
      <path class="cls-2" d="M188.39,225.23c-1.32.77-2.61,1.51-3.86,2.24-2-1.13-3.9-2.2-5.98-3.37.51-.58.76-1.06,1.15-1.27,1.44-.8,2.88-1.63,4.4-2.24,1.74-.7,2.2-.43,2.98,1.32.44,1,.81,2.04,1.31,3.32Z"/>
      <path class="cls-2" d="M125.67,208.2c-3.65-.65-6.88-2.08-9.68-4.39,3.3,1.35,6.76,2.34,9.68,4.39Z"/>
      <path class="cls-2" d="M163.95,204.53c-.36-.84-.87-1.64-.34-2.71.24.84.48,1.68.73,2.52-.13.06-.26.12-.38.19Z"/>
      <path class="cls-2" d="M184.7,234.32c-.04-.44-.09-.88-.13-1.33.09,0,.19-.02.28-.03.04.44.08.88.12,1.33-.09,0-.18.02-.27.03Z"/>
      <path class="cls-2" d="M158.63,168.74c.18-.36.37-.73.55-1.09.08.03.16.06.24.09-.16.41-.33.82-.49,1.22-.1-.08-.2-.15-.3-.23Z"/>
      <path class="cls-2" d="M74.05,445.21c.39-4.69.86-9.34,2.27-13.84,1.68-5.34,4.38-10.18,7.54-14.75.87-1.25,2.25-2.18,3.5-3.13,1.89-1.43,3.86-2.76,5.81-4.11.47-.32.98-.63,1.51-.81,6.25-2.04,12.63-3.49,19.22-3.68,4.27-.12,8.42.89,12.56,1.88,5.32,1.27,9.8,4.09,13.76,7.73,1.24,1.14,2.18,2.66,3.07,4.13,1.75,2.89,3.47,5.81,5.01,8.82,2.38,4.67,3.83,9.63,3.9,14.9.08,5.36-.46,10.63-2.48,15.68-.45,1.13-.71,2.34-1.06,3.51-1.39,4.61-3.74,8.52-7.98,11.11-1.84,1.13-3.62,2.36-5.36,3.63-4.45,3.26-9.44,5.23-14.85,6.06-3.64.56-7.34.41-10.96-.28-5.81-1.09-11.46-2.72-16.88-5.17-2.88-1.3-5.27-3.15-7.64-5.15-4.79-4.04-7.95-9.04-9.47-15.1-.21-.83-.22-1.7-.39-2.54-.21-1.04-.62-2.05-.73-3.09-.2-1.93-.24-3.87-.34-5.81ZM116.2,477.3c3.52-.21,6.07-.17,8.54-.55,6.76-1.04,11.71-5.17,16.26-9.9,2.2-2.29,3.45-5.14,4.3-8.13.9-3.17,1.48-6.44,2.31-9.63,1.72-6.61.85-13.05-1.57-19.24-1.87-4.8-4.89-8.95-8.89-12.31-1.15-.96-2.41-1.81-3.45-2.87-2.06-2.08-4.45-3.09-7.39-2.95-.89.04-1.88-.16-2.7-.53-1.55-.69-3.15-1.02-4.82-.98-2.01.04-4.03.37-6.02.22-3.59-.28-7.05.24-10.44,1.25-5.02,1.49-9.84,3.5-13.25,7.68-3.19,3.91-5.93,8.14-7.33,13.1-.65,2.31-1.07,4.69-1.88,6.96-.35.99-.63,2.16-.44,3.15.32,1.68.29,3.29.15,4.96-.05.65.36,1.34.58,2.01.27.81.87,1.63.79,2.4-.25,2.41.96,4.47,1.59,6.58,1.08,3.61,3.69,6.44,6.21,9.22,3.36,3.7,7.92,5.6,12.38,7.21,5.1,1.84,10.47,3.32,15.08,2.35Z"/>
      <path class="cls-1" d="M143.99,475.38c-.68.88-1.38,1.74-2.03,2.64-4.58,6.27-11.08,9.63-18.19,12.11-6.12,2.14-12.42,2.13-18.77,1.58-2.18-.19-4.23-.83-6.14-1.89-4.28-2.36-8.55-4.74-12.8-7.16-.92-.53-1.89-1.13-2.56-1.93-2.79-3.33-5.06-6.98-6.38-11.16-.08-.24-.05-.52-.1-1.3.78.99,1.23,1.63,1.73,2.21,2.64,3.04,5.28,6.07,7.94,9.08,1.02,1.15,2.36,1.79,3.8,2.35,2.87,1.12,5.67,2.42,8.5,3.66,4.32,1.88,8.84,2.43,13.51,2.03,1.5-.13,3.01-.26,4.52-.3,1.6-.04,3.11-.13,4.46-1.23.55-.45,1.48-.5,2.25-.57,4.36-.43,8.03-2.39,11.52-4.91,2.27-1.64,4.72-3.02,7.08-4.52.46-.29.9-.63,1.35-.94.09.08.19.16.28.25Z"/>
      <path class="cls-1" d="M70.58,440.61c-.18,4.38-.34,8.38-.51,12.57-.73.1-1.5.2-2.26.32-2.54.42-5.11.74-7.62,1.31-2.09.47-4.01.29-5.79-.84-.49-.31-1.04-.92-1.09-1.44-.22-2.28-.3-4.58-.38-6.87-.03-1.05.49-1.76,1.55-2.05,2.07-.56,4.12-1.21,6.21-1.68,2.03-.45,4.1-.74,6.16-1.03,1.12-.16,2.26-.19,3.74-.3Z"/>
      <path class="cls-3" d="M246,330.14c-4.7-.13-7.31-2.03-8.38-5.22-.73-2.18-.56-4.24.88-6.12,1.54-2.01,3.65-3.22,5.84-4.33,3.89-1.99,8.11-2.91,12.31-3.89,7.63-1.78,15.28-3.49,22.91-5.31,9.51-2.27,18.95-4.84,28.52-6.85,8.23-1.73,16.6-2.74,24.87-4.28,5.58-1.04,11.2-2.09,16.6-3.78,8.68-2.71,17.57-4.43,26.46-6.16,2.72-.53,5.44-.27,8.12.46,2.08.56,3.57,1.84,4.69,3.58,1.48,2.3.45,5.63-2.27,7.49-3.78,2.58-7.99,4.24-12.3,5.68-5.89,1.96-11.94,3.2-18.05,4.23-9.92,1.68-19.82,3.44-29.73,5.19-4.53.8-9.08,1.54-13.58,2.49-2.74.57-5.4,1.5-8.1,2.24-3.74,1.02-7.5,2-11.24,2.99-1.6.42-3.19.85-4.79,1.28-3.26.87-6.52,1.77-9.79,2.6-6.48,1.64-12.97,3.24-19.47,4.84-3.42.84-6.85,1.66-10.29,2.43-1.05.24-2.13.3-3.2.44ZM245.57,327.72c1.31-.15,2.26-.17,3.17-.37,3.16-.71,6.31-1.47,9.45-2.25,6.42-1.6,12.84-3.23,19.25-4.86,3.48-.89,6.96-1.79,10.44-2.69,1.6-.42,3.19-.89,4.79-1.29,2.86-.72,5.82-1.14,8.57-2.15,7.28-2.69,14.9-3.86,22.46-5.26,8.63-1.6,17.27-3.12,25.91-4.66,1.2-.21,2.41-.39,3.62-.56,7.58-1.04,15.06-2.57,22.23-5.24,3.28-1.22,6.37-2.97,9.52-4.55,1.3-.66,2.16-1.88,2.07-3.3-.1-1.53-1.28-2.51-2.62-3.19-.25-.13-.54-.19-.81-.28-2.23-.75-4.56-.98-6.83-.55-5.87,1.1-11.76,2.16-17.53,3.66-7.72,2.01-15.31,4.57-23.2,5.91-4.96.85-9.94,1.59-14.91,2.44-4.54.77-9.09,1.52-13.6,2.42-9.45,1.9-18.57,5.14-28.08,6.89-7.21,1.32-14.31,3.23-21.46,4.91-4.27,1-8.63,1.79-12.53,3.92-1.74.95-3.53,2.04-4.87,3.46-1.95,2.06-.88,5.8,1.78,6.82,1.12.43,2.36.59,3.19.79Z"/>
      <path class="cls-3" d="M312.04,283.17c-.93.33-1.66.58-2.59.91.39,1.67.73,3.34,1.17,4.99.21.78.32,1.48-.53,1.82-.96.38-1.49-.3-1.82-1.05-.28-.65-.43-1.36-.67-2.17-.52.48-.9.9-1.34,1.25-1.72,1.38-3.73.88-4.58-1.13-.8-1.87.15-5.73,1.76-6.96.38-.29.9-.49,1.37-.52.91-.06,1.86-.1,2.72.12.62.16,1.13.76,1.79,1.24.67-.36,1.42-.75,2.37-1.26-.32-1.34-.63-2.65-.96-3.95-.12-.49-.34-.95-.43-1.44-.13-.72.13-1.3.88-1.5.77-.2,1.24.19,1.45.91.34,1.17.66,2.35.99,3.53.13.47.27.94.43,1.48.44-.08.83-.06,1.11-.23,1.58-.98,3.27-.38,4.89-.26.5.04,1.15.84,1.36,1.42.44,1.21.58,2.52.94,3.76.26.88.61,1.75,1.04,2.55.36.65.54,1.34-.13,1.68-.46.23-1.3.16-1.74-.14-.48-.32-.79-1.01-.98-1.6-.43-1.37-.73-2.78-1.08-4.17-.16-.61-.33-1.23-.52-1.94-1.53.53-2.92,1-4.57,1.57.41,2.09.79,4.11,1.2,6.13.07.35.38.71.31,1.01-.11.5-.33,1.22-.68,1.36-.37.14-1.22-.17-1.41-.52-.44-.8-.65-1.74-.87-2.64-.33-1.38-.59-2.77-.89-4.24ZM304.88,282.89c-.8,1.34-1.56,2.65-.65,4.31,2.07-1.71,2.26-3.08.65-4.31Z"/>
      <path class="cls-3" d="M375.52,268.57c.15-.13.32-.25.47-.4,1.85-1.93,3.05-1.69,4.01.86.3.81.53,1.64.77,2.47.22.77.41,1.46,1.39,1.69.74.17,1.02.95.65,1.55-.29.46-.97.93-1.48.94-1.22.02-1.92-.86-2.33-1.93-.39-1.04-.72-2.11-1.23-3.63-.39.93-.57,1.43-.8,1.91-.62,1.32-1.59,1.41-2.39.22-.47-.7-.87-1.45-1.47-2.48-1.24,2.24-1.66,4.25-.83,6.4.35.91.25,1.59-.7,1.89-.84.26-1.38-.23-1.65-.99-.17-.47-.28-.97-.37-1.46-.08-.47-.1-.96-.16-1.55-2.34,3.11-4.41,4.03-6.69,3.09-1.82-.75-2.63-2.46-2.3-4.84.32-2.28,1.73-4.05,3.39-4.23,3.01-.32,4.33.6,5.62,4.05.25-.68.44-1.2.63-1.72,1.19-3.19,2.66-3.7,5.47-1.86ZM363.72,270.4c-.36.93-.77,1.68-.94,2.48-.25,1.15.26,1.92,1.23,2.15,1.15.28,2.42-.56,2.75-1.82.3-1.13-.07-1.73-1.31-2.14-.47-.15-.92-.36-1.73-.68Z"/>
      <path class="cls-3" d="M355.04,274.43c-1.5.52-2.91,1.01-4.51,1.56.16.93.32,1.76.44,2.59.08.56.25,1.17.09,1.67-.12.38-.66.84-1.04.86-.37.03-.97-.36-1.13-.72-.3-.63-.32-1.39-.5-2.09-.17-.68-.4-1.35-.6-2.03-.1-.34-.37-.74-.26-1,.71-1.73-.04-3.41-.07-5.11,0-.21-.07-.43-.08-.64-.06-.76.01-1.51.94-1.67.91-.15,1.28.47,1.4,1.26.12.78.21,1.57.31,2.35.07.56.15,1.12.27,2.01,1.53-.52,2.91-.99,4.5-1.53-.14-1.03-.27-2-.39-2.97-.06-.5-.14-1-.15-1.5-.02-.81.29-1.45,1.2-1.47.79-.01,1.1.52,1.17,1.27.07.79.24,1.56.33,2.35.1.94.26,1.79,1.13,2.44.33.25.58,1.26.39,1.47-1.09,1.18-.55,2.43-.38,3.67.06.42.22.85.2,1.26-.02.72-.44,1.35-1.16,1.28-.43-.04-1.05-.56-1.18-.98-.31-1.02-.37-2.12-.55-3.18-.06-.34-.2-.67-.36-1.16Z"/>
      <path class="cls-3" d="M228.56,301.29c.57-2.46,1.01-4.42,1.49-6.36.21-.87.18-2.01,1.52-1.97.92.03,1.28.86.88,2.44-1.63,6.47-3.33,12.92-5.01,19.38-.07.28-.16.56-.3.8-.36.65-.98,1-1.6.6-.36-.24-.65-.94-.6-1.39.1-.91.46-1.8.71-2.7.53-1.94.98-3.9,1.62-5.8.53-1.57.09-2.77-.97-3.89-1.23-1.31-2.44-2.63-3.64-3.97-1-1.13-1.13-1.86-.51-2.4.64-.56,1.29-.33,2.3.78,1.25,1.37,2.5,2.73,4.1,4.47Z"/>
      <path class="cls-3" d="M273.42,290.13c.19-2.98.92-5.49,3.07-7.36,1.31-1.14,2.86-1.77,4.57-1.21.73.24,1.42.9,1.89,1.55.2.28-.05,1.12-.36,1.46-.21.22-.91.1-1.35-.03-.57-.16-1.17-.76-1.64-.66-.72.15-1.48.62-1.97,1.18-1.4,1.58-1.94,3.56-1.72,5.6.1.87.86,1.78,1.53,2.46.79.8,1.83.82,2.7,0,.67-.64,1.28-1.34,1.89-2.04.46-.53.95-.93,1.66-.47.77.5.73,1.18.3,1.87-.93,1.49-2.14,2.73-3.79,3.39-2.46.98-5.84-1.13-6.56-4.06-.15-.62-.16-1.28-.21-1.68Z"/>
      <path class="cls-3" d="M249.18,299.91c1.03-1.7,1.05-3.28,1.09-4.85.05-1.72.38-2.42,1.2-2.39,1.26.04,1.28,1.16,1.61,2,.97,2.39,1.94,4.78,2.94,7.16.36.86.24,1.56-.52,2.08-.63.43-1.34.07-1.82-.93-.46-.97-.84-1.97-1.36-3.2-.47.62-.8,1.11-1.19,1.55-1.09,1.21-2.37,1.37-3.6.29-.68-.6-1.31-1.38-1.64-2.21-.53-1.32-.87-2.74-1.16-4.14-.24-1.19.22-1.98,1.03-2.01,1.06-.04,1.19.73,1.38,1.56.31,1.39.75,2.76,1.19,4.12.1.3.44.53.84.99Z"/>
      <path class="cls-3" d="M243.78,299.53c-.06,2.07-.58,3.46-1.61,4.63-1.3,1.48-3.01,1.9-4.88,1.24-1.82-.65-2.88-1.94-2.87-3.87.01-1.27.2-2.59.61-3.79.71-2.1,2.72-3.27,4.92-3.04.48.05,1.1.16,1.38.48,1.21,1.4,2.53,2.79,2.46,4.36ZM236.84,300.31c-.04,1.92.33,2.54,1.4,2.85,1.1.32,1.98-.13,2.61-1.34.78-1.48.62-2.81-.48-3.96-.92-.96-2.22-.9-2.85.29-.42.8-.56,1.76-.68,2.16Z"/>
      <path class="cls-3" d="M385.08,271.6c1.63,1.19,2.23,1.2,3.3.14.4-.41.68-.98,1.14-1.28.35-.22,1.01-.31,1.33-.11.32.2.59.86.51,1.24-.35,1.75-2.87,3.46-4.8,3.37-2.16-.1-3.84-1.58-4.13-3.71-.29-2.22.44-4.13,1.97-5.71.98-1.02,2.28-1.09,3.32-.33,1.06.77,1.4,1.99.9,3.25-.52,1.34-1.33,2.07-3.54,3.16Z"/>
      <path class="cls-3" d="M296.25,290.33c.81-.13,1.35-.14,1.84-.32.31-.11.55-.45.81-.69.6-.57,1.26-.78,1.89-.12.65.69.22,1.31-.27,1.9-1.85,2.25-5.04,2.25-6.65-.13-.62-.91-1.38-2.29-1.09-3.12.55-1.62.96-3.52,2.61-4.57,1.01-.64,2.23-.47,3.17.4.96.89,1.38,2.25.68,3.32-.71,1.09-1.74,1.97-2.98,3.33Z"/>
      <path class="cls-3" d="M335.58,280.37c.52.65,1.08.24,1.54-.23.4-.4.61-1.01,1.05-1.35.33-.26.97-.45,1.31-.3.34.16.66.77.65,1.18-.03,1.26-1.9,3.08-3.3,3.34-1.57.3-2.96-.4-3.75-1.89-1.1-2.06-.85-4.22.72-6.15.91-1.12,2-1.47,3.01-.97,1.1.54,1.84,2.15,1.22,3.32-.57,1.08-1.54,1.95-2.45,3.04Z"/>
      <path class="cls-3" d="M257.66,292.89c1.25-.7,2.35-1.5,3.58-1.93.6-.21,1.53.14,2.14.52.33.2.56,1.07.4,1.46-.15.35-.89.66-1.36.63-1.76-.08-2.35.23-2.58,1.92-.13.91,0,1.86.05,2.78.02.36.23.76.13,1.05-.18.49-.46,1.16-.85,1.28-.38.12-1.23-.22-1.38-.58-.97-2.23-1.85-4.51-2.64-6.82-.13-.37.27-1.1.63-1.38.23-.18.92.08,1.3.31.32.2.48.64.57.75Z"/>
      <path class="cls-3" d="M327.51,281.43c.36-1.25.59-2.22.92-3.14.26-.73.54-1.51,1.02-2.09.27-.32,1.1-.52,1.45-.34.34.18.62.98.51,1.4-.49,2.01-1.11,3.99-1.71,5.97-.25.83-.53,1.7-1.52,1.91-1.11.24-1.73-.53-2.22-1.34-.96-1.6-1.87-3.22-2.79-4.84-.4-.72-.35-1.42.42-1.85.71-.4,1.24,0,1.62.59.72,1.14,1.41,2.3,2.29,3.74Z"/>
      <path class="cls-3" d="M286.87,287.06c1.18-.75,2.18-1.46,3.25-2.02.47-.24,1.14-.32,1.64-.19.38.1.84.65.88,1.04.04.37-.37.84-.68,1.18-.16.17-.55.1-.82.2-2.04.74-2.85,1.92-2.79,4.07,0,.29.14.62.04.85-.21.48-.44,1.14-.84,1.32-.7.32-1.2-.22-1.46-.88-.72-1.79-1.48-3.57-2.12-5.39-.12-.35.14-.99.44-1.28.21-.21.85-.2,1.16-.03.49.26.86.74,1.3,1.14Z"/>
      <path class="cls-3" d="M320.71,274.27c-.26.2-.67.71-1.16.81-.71.15-1.44-.75-1.42-1.53.02-.76.45-1.19,1.19-1.25.73-.06,1.38.71,1.39,1.97Z"/>
      <path class="cls-3" d="M361.16,353.63c.32-1.44.48-2.98,1.03-4.35.44-1.08,1.17-2.27,2.12-2.88,3.57-2.31,7.48-3.71,11.83-3.15,4.46.57,7.36,3.31,9.4,7.11,1.29,2.42,1.25,5.14,1.56,7.77.04.37-.17,1.05-.41,1.12-1.32.39-1.5,1.65-2.12,2.56-2.86,4.22-10.86,6.89-15.65,5.15-3.38-1.24-5.73-3.6-6.68-7.09-.54-2-.73-4.09-1.09-6.23ZM375.31,347.26c-3.09-.22-5.84,1.03-8.43,2.62-2.34,1.43-2.98,3.38-2.02,5.89.64,1.67,1.38,3.32,2.25,4.89,1.65,2.95,4.15,4.02,7.44,3.33.84-.18,1.65-.48,2.48-.71,3.09-.87,4.51-3.14,5.05-6.09.31-1.69.54-3.4.69-5.11.04-.5-.17-1.15-.5-1.53-1.79-2.1-3.9-3.63-6.95-3.29Z"/>
      <path class="cls-3" d="M178.39,292.1c-1.95-.02-3.35-1.64-3.03-3.61.31-1.9,1.48-3.25,3.12-4.16,1.07-.6,2.24-.31,3.13.63.75.8,1.14,1.59.27,2.65-.3.36-.16,1.08-.25,1.64-.26,1.69-1.62,2.88-3.25,2.86ZM178.31,287.61c-.32.75-1.06,1.25-.19,1.92.15.11.6.05.74-.09.74-.78.09-1.2-.55-1.83Z"/>
      <path class="cls-3" d="M193.46,285.79c0,1.81-2.1,3.58-4.18,3.55-1.66-.03-2.88-1.21-2.91-2.81-.04-2.07,1.77-4.02,3.71-3.98,2.17.04,3.4,1.22,3.39,3.25ZM190.54,286.46c-.61-.55-1.16-1.51-1.63-.29-.06.15.06.37.13.73.55-.16,1.02-.3,1.5-.44Z"/>
      <path class="cls-3" d="M199.59,286.14c-.86-.22-1.59-.31-2.22-.6-.94-.42-1.41-1.24-1.24-2.27.27-1.62,1.25-2.77,2.76-3.28,1.45-.5,2.88-.09,4,.93,1.17,1.07.86,3.44-.6,4.3-.83.49-1.85.65-2.69.92ZM199.87,283.46c.02-.13.04-.27.06-.4-.34-.05-.67-.1-1.01-.13-.01,0-.04.24-.06.37.34.05.68.1,1.01.15Z"/>
      <path class="cls-3" d="M145.45,494.43c.18-1.5.34-3,.54-4.5.09-.68.31-1.38,1.16-1.23.87.16.72.93.67,1.58-.13,1.79-.36,3.58-.38,5.37-.02,1.82.4,3.58,1.39,5.14,1.19,1.87,2.73,2.35,4.59,1.17,1.44-.91,2.91-1.97,3.96-3.29,2.67-3.38,5.11-6.94,7.64-10.44.2-.28.25-.75.5-.92.31-.2.85-.35,1.13-.21.28.14.48.67.51,1.03.02.31-.22.68-.43.97-2.51,3.51-4.91,7.11-7.61,10.46-1.28,1.59-3,2.93-4.75,4-2.9,1.77-5.6.89-7.29-2.07-1.25-2.2-1.62-4.59-1.63-7.09Z"/>
      <path class="cls-3" d="M155.3,479.79c-.43,1.57-.79,2.81-1.11,4.06-.28,1.1-.48,2.23-.75,3.33-.1.41-.2.91-.49,1.15-.38.31-.94.41-1.42.6-.13-.44-.45-.94-.35-1.32.7-2.71,1.47-5.4,2.3-8.07.11-.35.7-.56,1.06-.83.29.41.57.83.75,1.08Z"/>
      <path class="cls-3" d="M158.95,489.54c-.2-.38-.67-.83-.59-1.15.6-2.43,1.27-4.85,2.02-7.24.1-.32.74-.47,1.13-.7.19.41.55.83.52,1.23-.05.7-.37,1.38-.52,2.08-.3,1.39-.61,2.77-.83,4.18-.14.94-.7,1.33-1.73,1.6Z"/>
      <path class="cls-3" d="M116.2,477.3c-4.6.97-9.97-.51-15.08-2.35-4.47-1.61-9.03-3.51-12.38-7.21-2.52-2.78-5.13-5.61-6.21-9.22-.63-2.12-1.84-4.17-1.59-6.58.08-.76-.52-1.59-.79-2.4-.22-.67-.63-1.36-.58-2.01.14-1.67.17-3.29-.15-4.96-.19-.99.09-2.16.44-3.15.81-2.28,1.23-4.65,1.88-6.96,1.4-4.95,4.14-9.19,7.33-13.1,3.41-4.18,8.23-6.19,13.25-7.68,3.39-1.01,6.85-1.52,10.44-1.25,1.99.15,4.01-.18,6.02-.22,1.67-.03,3.27.3,4.82.98.82.36,1.8.57,2.7.53,2.94-.14,5.33.87,7.39,2.95,1.05,1.06,2.31,1.91,3.45,2.87,3.99,3.36,7.01,7.51,8.89,12.31,2.42,6.2,3.3,12.63,1.57,19.24-.83,3.19-1.41,6.46-2.31,9.63-.85,2.98-2.1,5.83-4.3,8.13-4.54,4.73-9.5,8.86-16.26,9.9-2.48.38-5.02.34-8.54.55ZM143.34,433.39c.33,3.25,1.14,6.41.59,9.64-.24,1.4-.71,2.76-1.09,4.13-.2.73-.46,1.44-.65,2.17-.1.41-.05.86-.16,1.26-.93,3.28-1.8,6.57-2.87,9.8-.69,2.07-1.65,4.07-3.44,4.89-.8,1.33-1.21,2.57-2.05,3.33-2.07,1.88-4.47,3.29-7.18,4.13-.58.18-1.47.08-1.67,1.03,2.98-.04,5.11-.74,7.18-1.99,5.79-3.51,8.73-9.07,10.7-15.18,1.64-5.08,2.14-10.42,2.21-15.76.03-2.6-.48-5.12-1.56-7.47Z"/>
      <path class="cls-2" d="M245.57,327.72c-.84-.2-2.07-.35-3.19-.79-2.65-1.02-3.73-4.76-1.78-6.82,1.35-1.42,3.13-2.51,4.87-3.46,3.9-2.13,8.26-2.91,12.53-3.92,7.14-1.68,14.25-3.59,21.46-4.91,9.51-1.75,18.63-4.99,28.08-6.89,4.51-.9,9.06-1.66,13.6-2.42,4.96-.84,9.94-1.59,14.91-2.44,7.89-1.35,15.48-3.9,23.2-5.91,5.77-1.5,11.66-2.56,17.53-3.66,2.27-.42,4.6-.2,6.83.55.27.09.56.16.81.28,1.34.68,2.53,1.66,2.62,3.19.09,1.43-.76,2.65-2.07,3.3-3.14,1.58-6.23,3.33-9.52,4.55-7.17,2.67-14.65,4.2-22.23,5.24-1.21.17-2.42.34-3.62.56-8.64,1.54-17.28,3.06-25.91,4.66-7.56,1.4-15.18,2.57-22.46,5.26-2.75,1.02-5.71,1.43-8.57,2.15-1.6.4-3.19.87-4.79,1.29-3.48.91-6.95,1.81-10.44,2.69-6.41,1.63-12.83,3.26-19.25,4.86-3.14.78-6.29,1.54-9.45,2.25-.91.2-1.86.22-3.17.37ZM255.68,323.52c1.43-.01,2.12-.61,1.97-1.49-.15-.91-.81-1.05-1.61-1.03-1.46.02-2.55-.41-3.14-1.99-.44-1.21-1.4-2.21-2.78-2.46-2.37-.43-5.11,2.1-4.96,4.51.16,2.57,2.78,4.5,5.02,3.41,1.91-.93,3.63-2.01,5.48-.94Z"/>
      <path class="cls-4" d="M304.88,282.89c1.62,1.23,1.42,2.6-.65,4.31-.91-1.66-.15-2.97.65-4.31Z"/>
      <path class="cls-4" d="M363.72,270.4c.81.32,1.26.53,1.73.68,1.24.41,1.61,1,1.31,2.14-.33,1.25-1.61,2.1-2.75,1.82-.96-.23-1.47-1-1.23-2.15.17-.8.58-1.55.94-2.48Z"/>
      <path class="cls-4" d="M236.84,300.31c.12-.4.25-1.36.68-2.16.63-1.19,1.93-1.25,2.85-.29,1.1,1.15,1.26,2.48.48,3.96-.64,1.21-1.51,1.66-2.61,1.34-1.07-.31-1.44-.93-1.4-2.85Z"/>
      <path class="cls-1" d="M375.31,347.26c3.05-.34,5.16,1.2,6.95,3.29.33.38.54,1.03.5,1.53-.15,1.71-.38,3.42-.69,5.11-.54,2.96-1.96,5.22-5.05,6.09-.83.23-1.64.53-2.48.71-3.29.69-5.79-.38-7.44-3.33-.87-1.56-1.61-3.21-2.25-4.89-.96-2.52-.32-4.46,2.02-5.89,2.59-1.59,5.34-2.84,8.43-2.62Z"/>
      <path class="cls-2" d="M178.31,287.61c.65.63,1.29,1.04.55,1.83-.14.15-.59.2-.74.09-.88-.67-.13-1.17.19-1.92Z"/>
      <path class="cls-2" d="M190.54,286.46c-.47.14-.95.28-1.5.44-.07-.36-.19-.58-.13-.73.46-1.22,1.02-.27,1.63.29Z"/>
      <path class="cls-2" d="M199.87,283.46c-.34-.05-.68-.1-1.01-.15.02-.13.05-.37.06-.37.34.03.67.08,1.01.13-.02.13-.04.27-.06.4Z"/>
      <path class="cls-2" d="M143.34,433.39c1.08,2.34,1.59,4.87,1.56,7.47-.07,5.34-.57,10.68-2.21,15.76-1.97,6.11-4.9,11.67-10.7,15.18-2.07,1.25-4.2,1.95-7.18,1.99.2-.95,1.09-.85,1.67-1.03,2.71-.84,5.11-2.25,7.18-4.13.84-.76,1.26-2,2.05-3.33,1.79-.82,2.75-2.81,3.44-4.89,1.07-3.23,1.94-6.53,2.87-9.8.12-.4.06-.86.16-1.26.18-.73.45-1.44.65-2.17.38-1.37.85-2.73,1.09-4.13.55-3.23-.26-6.4-.59-9.64Z"/>
      <path class="cls-3" d="M255.68,323.52c-1.85-1.07-3.57,0-5.48.94-2.25,1.1-4.87-.84-5.02-3.41-.15-2.41,2.59-4.94,4.96-4.51,1.38.25,2.34,1.26,2.78,2.46.58,1.58,1.67,2.01,3.14,1.99.79-.01,1.46.12,1.61,1.03.14.88-.54,1.48-1.97,1.49ZM249.38,318.96c-1.04.45-1.86.96-1.69,2.06.07.45.59,1.07,1,1.17,1.14.27,1.8-.52,2.48-1.59-.61-.56-1.21-1.1-1.8-1.64Z"/>
      <path class="cls-2" d="M249.38,318.96c.59.54,1.18,1.08,1.8,1.64-.68,1.07-1.34,1.86-2.48,1.59-.42-.1-.93-.72-1-1.17-.17-1.1.65-1.61,1.69-2.06Z"/>
    </g>
    <path class="cls-3" d="M284.7,44.75c.33,4.68,1.07,9.18.9,13.64-.52,13.16-5.77,24.32-15.39,33.3-5.27,4.92-11.54,7.19-18.81,5.59-3.97-.87-7.24-3.05-10.09-5.89-11.83-11.76-11.62-32.58.43-44.02,4.71-4.47,10.36-7.36,16.59-8.68,4.93-1.04,10.08-1.1,15.13-1.59.48-.05.96,0,1.76,0-.96-1.76-1.76-3.34-2.67-4.87-9.71-16.33-24.32-24.69-43-26.32-11.06-.96-21.76.83-32.1,4.78-15.03,5.74-28.69,13.81-40.8,24.42-4.56,4-8.5,8.57-11.24,14.04-.56,1.12-.87,2.4-1.08,3.64-.27,1.58-1.1,2.51-2.65,2.62-1.53.11-2.85-.64-3.03-2.15-.17-1.34.05-2.87.56-4.13,3.09-7.47,8.14-13.55,14.21-18.69,16.72-14.17,35.31-24.88,57.1-29.07,12.18-2.34,24.31-1.8,36.11,2.37,16.25,5.74,27.29,17.04,34.38,32.47.62,1.36,1.38,2.07,2.88,2.44,8.36,2.06,15.72,6.19,22.62,11.22,14.65,10.69,26.17,24.25,36.11,39.27.4.6.8,1.19,1.21,1.78.07.1.22.15.65.43-.34-3.51-.69-6.79-.96-10.07-.24-2.93-.47-5.87-.59-8.81-.09-2.26.99-3.54,2.8-3.58,1.65-.04,2.63,1.22,2.84,3.36,1.01,10.36,2.08,20.71,3.11,31.06.11,1.07.22,2.15.21,3.22-.04,3.48-2.5,5.18-5.66,3.67-3.36-1.61-6.68-3.36-9.8-5.39-6.08-3.95-11.93-8.25-18.03-12.16-2.48-1.59-5.43-2.43-8.03-3.86-.91-.5-1.78-1.65-2.01-2.65-.33-1.44.74-2.63,2.15-2.68,1.51-.06,3.27.08,4.53.8,4.65,2.69,9.19,5.59,13.69,8.54,5.03,3.3,9.97,6.72,15.46,10.44-.17-.94-.15-1.23-.27-1.42-9.12-14.86-19.11-29.03-32.33-40.63-7.38-6.47-15.21-12.26-24.54-15.67-.8-.29-1.62-.55-2.33-.78ZM280.33,55.29c-.52-2.71-1.22-6.65-2.11-10.55-.15-.68-1.08-1.59-1.74-1.68-8.23-1.14-16.16-.13-23.68,3.58-15.21,7.49-19.42,25.1-9.25,38.73,5.83,7.81,14.44,9.08,21.91,2.86,9.82-8.18,13.95-19.16,14.87-32.95Z"/>
    <g>
      <path class="cls-3" d="M455.66,508.72c0,5.01.19,10.03-.07,15.03-.18,3.49-.94,6.96-1.53,10.43-.37,2.16-1.6,3.17-3.25,2.9-1.77-.29-2.51-1.68-2.21-3.98.61-4.69,1.42-9.38,1.7-14.09.22-3.59-.25-7.21-.41-10.82-.18-.02-.35-.03-.53-.05-.28.47-.59.92-.83,1.41-4.68,9.71-10.96,18.34-17.97,26.46-1.1,1.27-2.38,1.58-3.82.69-1.38-.85-1.69-2.65-.66-4.19.63-.95,1.51-1.72,2.25-2.61,8.57-10.29,15.38-21.61,20.1-34.17.41-1.09,1.57-2.27,2.64-2.64,1.52-.52,2.55.73,3.35,2.07,6.64,11.1,13.45,22.08,22.7,31.29,1.77,1.76,1.84,3.68.39,4.85-1.31,1.06-2.74.73-4.33-.82-6.12-5.94-11.09-12.79-15.76-19.87-.46-.69-.92-1.38-1.39-2.08-.13.06-.26.13-.39.19Z"/>
      <path class="cls-3" d="M435.21,577.93c-.95-.67-2.09-1.06-2.41-1.8-.37-.83-.4-2.31.12-2.95,3.48-4.38,4.94-9.66,6.98-14.69,1.05-2.58,2.19-5.13,3.4-7.64.63-1.3,1.76-1.84,3.23-1.42,1.46.42,2.14,1.47,2.01,2.91-.08.9-.44,1.81-.8,2.66-2.1,5.02-4.14,10.06-6.41,15-1,2.19-2.42,4.2-3.8,6.19-.48.69-1.41,1.08-2.33,1.74Z"/>
      <path class="cls-3" d="M427.89,593.32c-.45.42-1.23,1.25-2.11,1.93-.53.41-1.34.48-1.83.92-3.1,2.74-6.1,5.6-9.24,8.3-1.95,1.68-4.07,3.16-6.12,4.73-1.42,1.08-2.85,1.05-4.02-.28-1.22-1.38-.9-2.89.42-3.98,2.59-2.15,5.37-4.07,7.94-6.24,2.29-1.93,4.5-3.97,6.57-6.13,1.51-1.58,3.08-2.78,5.33-2.79,1.86,0,3.15,1.19,3.07,3.54Z"/>
      <path class="cls-3" d="M396.16,617.46c-.39.38-1.01,1.45-1.92,1.8-3.99,1.55-8.04,2.94-12.11,4.28-3.06,1-6.16,1.87-9.27,2.7-1.71.45-3.17-.03-3.82-1.85-.53-1.5.38-2.95,2.22-3.58,6.76-2.33,13.52-4.64,20.29-6.94,2.41-.82,4.69.61,4.61,3.6Z"/>
      <path class="cls-3" d="M351.32,623.57c1.49.57,3.09.95,4.44,1.76,1.25.75,1.37,2.15.68,3.44-.71,1.33-1.88,1.55-3.31,1.33-1.38-.22-2.81-.37-4.18-.24-5.42.53-10.83,1.19-16.25,1.78-.63.07-1.3.04-1.92-.08-1.47-.28-2.28-1.26-2.24-2.72.04-1.44.79-2.5,2.31-2.67,6.77-.75,13.55-1.45,20.32-2.17.05-.15.11-.29.16-.44Z"/>
    </g>
  </g>
</svg>