<?xml version="1.0" encoding="UTF-8"?>
<svg id="Layer_1" data-name="Layer 1" xmlns="http://www.w3.org/2000/svg" viewBox="0 0 605.92 472.97">
  <defs>
    <style>
      .cls-1 {
        font-family: Hand-Of-Sean, 'Hand Of-Sean';
        font-size: 28.3px;
      }

      .cls-1, .cls-2, .cls-3 {
        fill: #5113f9;
      }

      .cls-4 {
        fill: #c9da2d;
      }

      .cls-5 {
        letter-spacing: 0em;
      }

      .cls-6 {
        letter-spacing: 0em;
      }

      .cls-3 {
        stroke: #5113f9;
        stroke-linecap: round;
        stroke-linejoin: round;
        stroke-width: .9px;
      }

      .cls-7 {
        letter-spacing: 0em;
      }

      .cls-8 {
        letter-spacing: 0em;
      }

      .cls-9 {
        letter-spacing: 0em;
      }

      .cls-10 {
        letter-spacing: -.01em;
      }
    </style>
  </defs>
  <path class="cls-4" d="M390.41,298.96c-2.44,1.04-.69,3.48-1.49,5.3-.58.3-1,.51-1.42,1.04-.18,1.56.64,3.36,1.13,4.85l-42.61,3.66c-3.86.3-7.75.53-11.58,1.15-.28-3.05-1.68-12.6-.1-14.98,1.31-.75,2.91-1.07,4.4-1.28,5.94-.87,12.14-.96,18.15-1.41,13.62-.96,27.23-2,40.84-3.13,1.52-.16,3.62-.57,4.89.45,1.7,1.35,1.71,5.23,1.99,7.24-.8-.43-1.62-.84-2.44-1.23-2.71-1.27-8.85-2.88-11.74-1.64Z"/>
  <path class="cls-4" d="M409.87,372.72c-1.18,1.02-3.02,1.36-4.53,1.61-6.78,1.1-14.03,1.3-20.88,1.9-8.58.74-17.22,1.85-25.82,2.22-1.73.17-3.48.23-5.22.34-.3-2.54-.65-10-2.48-11.55-1.63-1.38-10.26.12-12.54.29-.91-6.09-.98-12.32-1.46-18.46-.83-10.71-1.83-21.44-2.36-32.17,17.01-.43,34.17-2.35,51.11-3.83l4.16-.29c4.85,7.62,11.24,13.33,17.77,19.48.82,5.74,3.62,36.6,2.24,40.46Z"/>
  <path class="cls-4" d="M351.81,47.27c3.58-5.32,8.13-7.96,14.34-9.14,5.86-.74,13.01.84,18.18,3.7,4.85,2.68,7.65,6.61,9.1,11.92,1.73,6.33,2.12,13.67-1.26,19.52-3.63,6.28-9.02,9.45-15.81,11.31-6.22,1.03-12.11.57-17.53-2.91-5.33-3.42-9.33-9.33-10.6-15.52-1.29-6.31-.04-13.51,3.57-18.87Z"/>
  <path class="cls-4" d="M583.84,275.75c-4.85.8-9.89,1.05-14.79,1.46l-23.83,1.9c-15.03,1.13-30.15,2.8-45.22,3.1.34-.67.27-1.17.16-1.89-1.16-7.75-4.17-18.17-10.78-22.94-.45-.32-.34-.25-.42-.75,2.87-.43,10.93-.41,12.55-2.12.02-.85-.07-.8-.62-1.39-2.95-.07-18.12.62-20.18,1.53-.77.34-2.74,3.45-4.26,4.44l-.26.16c.08-.3.13-.6.17-.91.36-2.78-2.15-25.51-3-29.17-.14-.6-.43-1.11-.81-1.6,22.47-1.81,45.07-2.76,67.59-3.83,11.79-.56,23.64-.9,35.39-1.98,1.17-.1,2.36-.31,3.5.02.04.12.09.23.13.35.88,2.45,1.06,9.76,1.36,12.71,1.28,12.76,3,25.68,3.69,38.48.05.91,0,1.59-.38,2.43Z"/>
  <path class="cls-2" d="M574.17,153.32c.11.51-.03.95-.18,1.44.74-.59,1.55-1.92,1.72-2.86.13-.69-.08-.86-.44-1.4-1.06-.44-2.08,0-3.13.31.89.63,1.78,1.4,2.03,2.51Z"/>
  <path class="cls-2" d="M82.6,123.72c1.93.29,4.04.17,5.99.18.34-.81.41-.78.08-1.65-2.01-1.34-5.69-.89-8.03-.81l-.19,1.1c.65.85,1.07,1.02,2.15,1.18Z"/>
  <path class="cls-2" d="M272.53,43.27l.81-.25c1.95-1.16,5.03-2.57,6.11-4.62l-.06-.65c-.66-.4-1.04-.46-1.81-.46-1.79,1.15-5.33,2.83-6.09,4.86.3.75.32.73,1.03,1.12Z"/>
  <path class="cls-2" d="M265.2,39.73c.61-1.77-.97-6.72-1.88-8.37-.5-.91-.9-.91-1.84-1.17-.53,2.69.34,6.98,1.85,9.26.83.5.94.39,1.87.27Z"/>
  <path class="cls-2" d="M94.44,118.36c.16.06.32.1.48.14.38-.64.67-.89.5-1.68-.36-1.66-4.56-10.03-5.85-10.71-.19-.1-.28-.11-.5-.17-.6,1.46-.55,1.77.05,3.2.79,1.88,3.39,8.49,5.33,9.22Z"/>
  <path class="cls-2" d="M352.3,87.53c.37.23.74.46,1.12.68.38.22.76.42,1.15.62.39.2.78.39,1.18.57.4.18.8.35,1.2.51.41.16.81.31,1.23.45s.83.27,1.25.39c.42.12.84.23,1.26.33s.85.19,1.28.27c.43.08.86.15,1.29.2s.86.1,1.3.14c.43.04.87.06,1.3.08s.87.02,1.3.01c.43,0,.87-.02,1.3-.05.43-.03.87-.06,1.3-.11.43-.05.86-.11,1.29-.18.43-.07.86-.15,1.28-.24,7.69-1.64,17.52-9.71,21.7-16.31,1.5-2.37,2.41-5.16,2.91-7.91.18-.97.19-6.2.4-6.6.1-.18.33-.24.5-.36,8.77,1.87,61.62,11.26,65.16,15.93l-.12.15c-2.36,2.87-5.24,5.28-7.48,8.29-9.47,12.74-10.93,27.72-11.85,43.05-.41,6.85-1.31,14.21-.7,21.03.07.77.13,1.6.62,2.22,4.39,1.15,10.4.17,14.99.17.08.09.17.18.25.27,1.74,1.93,2.82,4.83,4.52,6.96,7.38,9.25,17.67,14.68,29.47,15.58,2.26.17,4.61.26,6.87.13l-.07.43.41-.43.46.16c2.8,3.02,18.17,13.55,18.53,14.32.05.05.1.11.14.16,2.76,3.46,1.82,14.11,4.4,15.95,1.64.11,3.06-1.04,4.25-2.07,1.52-1.31,13.19-11.97,13.39-12.8,4.25.93,12.57,4.62,16.58,6.72.47-.39.74-.74.99-1.29,1.22-2.73,15.49-38.94,15.49-39.48,0-.38-.04-.4-.15-.71.14-.48.29-.93.18-1.44-.25-1.12-1.14-1.88-2.03-2.51-16.09,4.53-32.07,9.59-48.18,14.03-5.33,1.47-10.7,2.81-16.05,4.19-1.69.44-4.1.74-5.64,1.46-.42.2-.81,1.15-1.27,1.33-.56.22-2.52-.05-3.19-.08-7.79-.25-14.74-1.66-21.61-5.51-4.97-2.79-8.77-6.77-12.01-11.39-.94-1.34-1.85-3.16-3.08-4.22,15.29-.1,30.57-.41,45.84-.95,6.07-.21,12.69.11,18.66-.78.75-1.51.7-2.95.54-4.58.74-1.29,2.98-1.56,3.33-2.5,1.01-2.71.82-26.15-.03-29.35-.14-.54-.34-.93-.66-1.39-7.61-1.69-16.08,1.03-23.79.52-3.09-.21-5.24-2.29-8.14-2.79,3.52-2.88,11.12-19.53,15.42-19.1.82.08,1.75.37,2.46-.14.41-.3.64-.84.87-1.27v-.73s-1.15-1.04-1.15-1.04c.05-1.53,1.78-2.32,1.98-3.86,5.89,4.69,5.03,20.44,7.53,23.85l.45-.11c1.78-3.89.79-9.91-.3-13.93,4.22-.89,10.33-2.51,14.21-4.29,2.77,1.69,5.57,3.7,8.99,2.84,1.27-.32,2.29-1.09,2.95-2.23.97-1.66,1.16-3.76.63-5.59-.52-1.8-1.78-3.51-3.46-4.38-1.37-.7-2.76-.73-4.19-.22-1.46.51-3.68,1.96-4.29,3.39-.16.37-.27.76-.4,1.14-.44,1.29-.59,1.81-1.86,2.43-3.95,1.91-8.99,3.48-13.29,4.39-.3-2.34-2.84-8.19-4.68-9.67,3.02-2.11,5.69-6.75,8.54-9.44,2.91.09,5.08-.27,7.27-2.36,1.06-1.01,1.63-2.28,1.62-3.75-.02-2.09-1.15-4.36-2.72-5.72-1.4-1.22-3.31-1.9-5.17-1.68-1.34.16-2.42.81-3.19,1.92-1.23,1.8-1.83,4.85-1.37,6.96.23,1.04.53,2.07.82,3.1-.88,1.55-6.04,7.74-7.35,8.58-.26-1.91-2.57-3.68-4.03-4.78-8.56-6.51-18.97-7.51-29.34-6.09-4.08.56-8.62,1.57-12.29,3.47-2.21,1.14-4.32,2.59-6.63,3.52-6.49-5.87-56.56-14.42-67.88-15.89-1.09-6.39-3.29-13.11-8.77-17.03-6.2-4.44-16.03-6.54-23.46-5.21-6.36,1.14-10.1,4.6-14.56,8.89-1.87,1.8-3.83,3.54-5.3,5.7-3.83,5.63-5.18,13.35-3.85,19.98,1.35,6.7,5.41,13.34,11.17,17.11ZM570.66,156.8c.17.99-12.43,32.77-14.39,35.69-1.49-2.04-8.84-6.36-11.38-7.44-1.23-1.8-6.42-4.3-8.5-5.2,2.5-1.11,4.77-3.17,7.03-4.74l15.9-11.07c3.5-2.47,7.36-4.73,10.67-7.43l.67.2ZM526.45,166.76c7.72-2.09,15.33-4.44,23.01-6.67,5.52-1.6,11.15-3.01,16.59-4.82l.71.07c-1.15,1.55-3.86,2.76-5.48,3.91-3.43,2.41-25.95,17.73-27.48,19.92-.34.47-.23.56-.13,1.13.49.41,1.04.76,1.27,1.38-2.11,3.62-4.4,7.5-7.01,10.77l-.22.28c.83-2.52-.94-6.1-.85-8.79.03-.69-.02-1.02-.32-1.64-1.34-1.23-3.61-1.85-5.32-2.4-1.45-1.44-13.58-7.2-15.86-7.96,6.94-.82,14.3-3.34,21.09-5.18ZM542.95,81.52c1.19-.27,2.26-.42,3.42.08,1.17.51,2.13,1.45,2.53,2.67.25.76.19,1.61-.22,2.31-.61,1.05-1.51,1.51-2.63,1.85-.16.09-.23.15-.43.18-.82.14-2.18.04-2.88-.44-1.01-.7-1.37-1.77-1.47-2.94-.15-1.7.65-2.5,1.68-3.71ZM528.11,60.36c.82-.11,1.73-.28,2.53-.01,1.28.43,2.43,1.51,2.99,2.73.44.94.5,2.06.07,3.02-.54,1.18-1.36,1.62-2.54,2.02-.31.19-.83.31-1.2.29-.64-.03-1.01-.27-1.44-.71-1.12-1.15-2.36-2.98-2.22-4.66.1-1.21.96-1.94,1.8-2.69ZM526.94,140.15c-2.74.4-5.56.44-8.32.59-8.76.77-17.76.56-26.58,1.05-11.75.65-23.52,1.94-35.28,2.29-1.15.04-2.19.04-3.27-.42-1.15-.49-2.12-1.21-2.61-2.41-1.98-4.81,1-23.61-.86-27.75-.03-.06-.06-.12-.09-.19l7.64-.71c2.95-.2,13.74-.9,15.9.22,1.23,2-2.05,3.21-2.01,5.42.03,1.22.91,2.08,1.72,2.89,3.86,3.89,11.23,9.52,16.45,11.09,5.21,1.56,29.49.65,36.58.69.26.37.5.76.65,1.18.45,1.32.66,4.83.08,6.04ZM503.81,114.01c6.19.91,15.27.05,21.66-.5.16.26.31.49.4.78.75,2.29.98,13.55.09,15.62-6.69.34-13.38.75-20.08.78-13.73.48-14.9.71-25.96-7.64-2.1-1.59-4.31-3.57-6.68-4.71-.08-.04-.17-.08-.26-.12,1.54-.29,3.08-.57,4.66-.61,2.91-.07,9.99,1.21,12.15-.68.07-.85,0-1.07-.57-1.74-3.27-3.87-8.82-3.74-13.42-3.94,1.86-.19,3.65-.53,5.48-.92,4.32-.25,8.91-.51,13.09.78,3.11.96,6.2,2.45,9.43,2.93ZM476.73,95.94c3.88.84,7.79,1.5,11.56-.19.43.03.65.09,1.02.31.04,1.94-.41,4.04-1.41,5.7-1.89.12-3.8.59-5.69.54-1.96-.05-2.47-.59-3.71-1.93.02-.12.05-.24.06-.36.15-1.45-.97-3.01-1.83-4.08ZM487.17,82.66c-.8-.68-1.62-.41-2.65-.37-1.01-.89.29-3.93-.15-5.32-.2-.62-.53-.64-1.08-.87-1.52-.02-2.66.59-4.01,1.22-.61.89-1.23,1.9-1.55,2.94-.33,1.08-.57,2.52.05,3.53,1.33,2.15,3.59,1.26,5.45,1.78.15-.02.3-.03.44-.05l-.09.16c-.09-.03-.18-.06-.27-.09-.02,0-.05-.01-.08-.02-2.3.26-5.72.75-7.41,2.2-.84.72-1.4,2.37-2.36,2.71-.11-.06-.23-.12-.34-.18-.9-.56-1.23-2.04-1.38-3.03-.44-2.9.12-5.99,1.94-8.34,1.92-2.49,4.73-3.32,7.73-3.7,2.39,0,4.6.31,6.66,1.59.14.09.28.18.41.27.13.09.27.19.4.29.13.1.26.2.38.31.13.11.25.21.37.33.12.11.24.23.35.34.11.12.23.24.34.36.11.12.21.25.31.38.1.13.2.26.3.39.09.13.18.27.27.41.09.14.17.28.26.42.08.14.16.29.24.43.07.15.14.29.21.44.07.15.13.3.19.45.06.15.11.31.17.46s.1.31.15.47c.04.16.08.32.12.48.5,2.26.14,5.01-1.09,6.97-.79-2.37-3.78-2.81-5.5-4.16.05-.3.11-.42.32-.64.22-.23.49-.46.67-.72.48-.69.37-1.1.23-1.85ZM476.25,90.53c1.47-1.32,4.55-1.86,6.49-2.05.41,0,.82.02,1.23.05,1.71.13,3.73.68,4.87,2.02.2.94.17.89-.31,1.65-1.24.91-4.1,1.36-5.61,1.25-.02.02-.04.04-.06.05-.7.41-1.49.23-2.25.12-1.36-.2-3.54-.72-4.32-1.92-.34-.51-.17-.59-.05-1.15ZM486.49,106.43l-.62.9c-1.05.15-2.53.52-3.56.32-1.11-.21-1.33-.79-1.95-1.65,1.51-.24,3.75-.46,5.26-.18.58.11.55.13.88.61ZM490.44,69.29c6-.31,12.15.9,17.45,3.76,2.54,1.37,6.42,4.05,7.3,6.96-.21.97-16,19.6-18.32,22.48-1.36,1.69-2.06,3.87-3.55,5.41-1.18-.16-2.41-.21-3.45-.83.15-1.52.97-1.52,1.49-2.73.64-1.51.06-4.22.41-5.94.71-3.49,2.78-6.64,3.24-10.22.48-3.75-.19-7.59-2.57-10.6-2.1-2.65-5.11-4.24-8.47-4.56-5-.47-8.74,1.05-12.51,4.2-.33,2.49-2.39,4.79-2.5,7.52-.21,5.52,3.4,9.09,5.99,13.5,1.14,1.95,1.98,3.96,2.77,6.07.38,1.04.93,2.14.84,3.26-1.01.89-3.11,1.83-4.43,2.11-3.37.71-7.23.4-10.69.52-4.49.18-8.97.51-13.44,1,.04-.06.08-.12.12-.18,1.29-1.83,1.64-5,2.18-7.18,1.98-7.98,4.45-15.82,9.94-22.15,7.56-8.72,17.12-11.61,28.23-12.4ZM351.81,47.27c3.58-5.32,8.13-7.96,14.34-9.14,5.86-.74,13.01.84,18.18,3.7,4.85,2.68,7.65,6.61,9.1,11.92,1.73,6.33,2.12,13.67-1.26,19.52-3.63,6.28-9.02,9.45-15.81,11.31-6.22,1.03-12.11.57-17.53-2.91-5.33-3.42-9.33-9.33-10.6-15.52-1.29-6.31-.04-13.51,3.57-18.87Z"/>
  <path class="cls-2" d="M502.17,88.97c.25.1.53.13.8.16,1.05-.32,1.27-.37,1.99-1.18.14-.92.08-.98-.32-1.76-.97-.67-1.48-.82-2.69-.7-.67.73-1.07,1.13-1.16,2.13.37.8.55,1.02,1.39,1.34Z"/>
  <path class="cls-2" d="M462.44,92.14c.36.52.67.59,1.26.67.37-.2.85-.38,1.11-.71.74-.49,1.08-.8,1.49-1.6-.13-.79-.11-.87-.76-1.33-1.13-.8-2.27-.57-3.54-.38-.21,1.25-.31,2.23.45,3.34Z"/>
  <path class="cls-2" d="M360.73,69.94c2.02,2.23,3.94,4.71,7.16,4.95,3.16-1.48,16.43-14.64,17.61-17.88.41-1.14.5-2.43-.09-3.53-.65-1.23-2.12-1.98-3.42-2.28-.56-.13-1.17-.18-1.74-.23-4.15,3.53-9.41,8.94-12.47,13.42-1.69-1.77-4.54-5.45-7.19-5.43-1.26,0-2.54.87-3.35,1.78-.74.84-1.29,1.97-1.22,3.11.11,2.12,3.27,4.64,4.71,6.1Z"/>
  <path class="cls-2" d="M112.75,309.43c.35-20.42-1.44-41-16.38-56.39-10.11-10.41-26.08-17.1-40.59-17.24-1.32-.01-2.67.02-3.98.14-12.03,1.06-22.31,5.62-30.17,15.02-10.59,12.66-14.47,28.77-12.99,45.03,1.24,13.64,6.22,29.48,17.09,38.53,7.82,6.51,17.77,10.34,28.04,9.42,1.29-.11,2.99-.21,3.97-1.11,1.16,2.76,1.14,5.97,2.11,8.83,3.73,11.03,12.17,20.46,23.01,24.84,1.76.71,3.61,1.33,5.45,1.81,9.7,2.09,19.66.48,28.05-4.9.24-.15.47-.3.7-.46.23-.16.46-.31.69-.48.23-.16.45-.33.68-.49.22-.17.44-.34.66-.51.22-.17.44-.35.65-.53s.43-.36.64-.54c.21-.18.42-.37.62-.56.21-.19.41-.38.61-.57.2-.19.4-.39.6-.59.2-.2.39-.4.58-.6.19-.2.38-.41.57-.62.19-.21.37-.42.55-.63.18-.21.36-.43.53-.64.17-.22.35-.44.52-.66.17-.22.34-.44.5-.67.16-.23.33-.45.48-.68.16-.23.31-.46.47-.7.15-.23.3-.47.45-.71.15-.24.29-.48.43-.72.14-.24.28-.48.41-.73.13-.24.27-.49.39-.74.13-.25.25-.5.38-.75.12-.25.24-.5.36-.76.12-.25.23-.51.34-.77.11-.26.22-.51.32-.77.1-.26.2-.52.3-.78.1-.26.19-.52.28-.79.09-.26.18-.53.26-.8s.16-.53.24-.8.15-.54.22-.81.14-.54.2-.81c.06-.27.12-.54.18-.82,2.28-10.58-.09-21.79-5.96-30.81-3.25-4.99-7.41-8.61-12.45-11.69ZM57.75,340.38c-.44.53-.54.77-1.26.89-1.28.22-2.89-.02-4.19-.09-7.52-.4-14.11-2.46-20.23-6.98-11.46-8.47-16.61-22.31-18.63-35.96-2.24-15.11-.76-31.28,8.61-43.83,6.69-8.96,15.75-14.27,26.81-15.86,11.37-1.59,24.5,1.91,34.29,7.64,12.57,7.35,20.83,18.52,24.48,32.59,1.25,4.81,4.11,26.18,2.26,29.34l-1.93-.94c-1.14-1.45-.93-6.76-1.31-8.86-.99-5.56-2.58-11.18-4.31-16.56-4.63-14.36-13.97-26.86-27.56-33.77-9.9-5.04-21.13-6.55-31.81-3.02-10.64,3.52-17.68,9.84-22.72,19.82-4.58,9.3-6,20.17-4.64,30.42,1.71,12.9,8.25,28.73,18.86,36.75,7.02,5.3,14.91,6.53,23.42,5.28.01,1.06.03,2.07-.13,3.12ZM92.24,287.35c-2.11-11.21-7.77-21.8-17.36-28.29-7.48-5.06-17.57-7.15-26.45-5.42-7.32,1.43-12.57,5.56-16.67,11.65-2.14,3.24-3.89,6.89-4.92,10.64-3.82,14-.33,34.75,11.77,43.74,1.25.93,2.65,1.9,4.08,2.54,1.98.89,7.78,2.14,8.85,4.01-.24.13-.26.16-.57.23-4.25.82-10.82-3.12-14.01-5.57-7.6-5.85-11.96-16.03-13.13-25.38-1.48-11.84.03-23.71,7.58-33.35,5.19-6.63,11.45-9.99,19.74-11.01,6.2-.47,12.39.22,18.16,2.64,10.47,4.38,17.97,12.97,22.13,23.36,2.07,5.18,5.41,21.06,2.88,26.33-.3.63-.48.65-1.09.88-.51-.4-.55-.64-.58-1.3-.07-1.64.37-3.44.45-5.1.17-3.5-.21-7.16-.86-10.6ZM76.27,278.09c-3.3-4.42-8.88-8.45-14.48-9.17-1.69-.22-3.56.29-5.2,0-.69-.12-.73-.1-1.13-.67l.39-.88c4.2-.42,8.06-.23,11.99,1.47,6.24,2.7,11.33,8.27,13.81,14.57.14.36.27.73.39,1.09.12.37.23.74.34,1.11.1.37.2.75.28,1.13s.16.76.22,1.14c.07.38.12.77.17,1.15.05.38.08.77.11,1.16.03.39.05.77.05,1.16,0,.39,0,.77,0,1.16-.01.39-.03.77-.06,1.16-.03.39-.07.77-.12,1.16-.05.38-.11.77-.18,1.15-.07.38-.15.76-.24,1.14-.09.38-.18.75-.29,1.12-.11.37-.22.74-.35,1.11-.12.37-.26.73-.4,1.09-.14.36-.29.72-.46,1.07-.65.21-.61.19-1.22-.1-.41-1.88.68-4.76.99-6.7.97-6.26-.89-11.61-4.61-16.6ZM66.78,296.11c-1.22,2.72-3.62,4.41-6.31,5.47-.28.07-.56.13-.85.17-.28.05-.57.08-.86.1-.29.02-.58.03-.86.03-.29,0-.58-.01-.86-.04-.29-.03-.57-.06-.86-.11-.28-.05-.56-.11-.84-.18s-.55-.16-.83-.25c-.27-.1-.54-.2-.8-.32-.15-.07-.31-.14-.46-.22-.15-.08-.3-.16-.44-.24-.15-.08-.29-.17-.43-.26-.14-.09-.28-.19-.42-.28-.14-.1-.27-.2-.41-.3-.13-.1-.26-.21-.39-.32s-.25-.23-.37-.34c-.12-.12-.24-.24-.36-.36-.12-.12-.23-.25-.34-.38-.11-.13-.22-.26-.32-.39-.1-.13-.2-.27-.3-.41-.1-.14-.19-.28-.28-.42-.09-.14-.18-.29-.26-.44-.08-.15-.16-.3-.24-.45-.08-.15-.15-.3-.22-.46s-.13-.31-.19-.47c-1-2.57-1.07-5.44.07-7.97,1.19-2.66,3.32-4.07,5.94-5.08,2.26-.21,4.39-.34,6.54.53.17.07.34.14.5.22.17.08.33.16.49.24.16.08.32.17.48.27.16.09.31.19.46.29.15.1.3.2.45.31.15.11.29.22.43.33.14.12.28.23.42.36.14.12.27.25.4.38s.25.26.38.4c.12.13.24.27.36.41s.23.29.34.43c.11.15.21.3.31.45.1.15.2.31.29.46s.18.32.27.48c.09.16.17.32.24.49.08.17.15.33.22.5.96,2.37.97,5.04-.08,7.39ZM40.85,302.72c1.23,2.19,4.01,5.08,4.67,7.35.2.7-.12.94-.48,1.49-.67-.45-1.29-1.08-1.81-1.69-6.39-7.4-9.63-17.93-8.99-27.64.43-6.51,2.29-13.32,7.35-17.75l.7.81c.11,1.51-2.88,5.14-3.65,6.79-4.33,9.3-2.71,21.82,2.21,30.63ZM127.19,356.38c-2.71,7.04-8.36,13.27-15.33,16.29-7.97,3.45-17.29,2.46-25.18-.59-7.61-3.1-13.55-8.25-17.76-15.28-5.27-8.82-6-18.14-3.52-27.94-4.56-6.59-10.78-13.57-15.81-20.03,8.61,1.97,18.04,2.52,26.85,3.14,4.73-2.63,9.15-4.2,14.53-4.92,4.41-.77,9.51.2,13.64,1.71,9.67,3.54,17.25,9.8,21.57,19.28,3.92,8.61,4.44,19.46,1.02,28.35Z"/>
  <path class="cls-2" d="M59.64,284.43c-1.21-.42-2.7-.55-3.98-.61-2.27.61-4.12,1.49-5.33,3.62-1.12,1.98-1.22,4.44-.52,6.58.09.27.18.53.3.78.11.26.24.51.37.75.14.24.28.48.44.71.16.23.33.45.51.66.18.21.37.41.58.61.2.19.41.38.63.55.22.17.45.33.68.48.24.15.48.29.73.41,1.49.76,3.63,1.15,5.29.92,2.63-1.12,4.78-2.35,5.88-5.13.72-1.8.56-3.82-.23-5.56-.99-2.19-3.09-3.99-5.35-4.78Z"/>
  <path class="cls-2" d="M74.12,349.46c-.59.75-.89.97-1,1.93.42.72.81.93,1.55,1.3.58-.87.76-1.09.83-2.11-.43-.66-.66-.81-1.38-1.12Z"/>
  <path class="cls-2" d="M73.02,335.54c.48.58.83.88,1.52,1.21.56-.82.97-1.21,1.03-2.25-.52-.52-.85-.73-1.54-1-.6.79-.94,1.03-1.01,2.04Z"/>
  <path class="cls-2" d="M86.49,360.33c-.32.86-.46,1.1-.31,2.03.65.56,1.07.71,1.91.87.43-.94.59-1.18.47-2.19-.79-.61-1.06-.6-2.07-.71Z"/>
  <path class="cls-2" d="M108.88,317.35c-.87.59-1.43.94-1.8,1.96.2.7.32.95.98,1.29.12.06.24.1.36.16.74-.56,1.48-.98,1.75-1.92-.36-.88-.54-.96-1.29-1.49Z"/>
  <path class="cls-2" d="M91.48,316.36c.07.02.15.04.22.06.63-.86,1-1.26,1.14-2.33-.49-.82-.94-1-1.81-1.36-.73.81-1.01,1.06-1.26,2.1.42.85.75,1.22,1.7,1.53Z"/>
  <path class="cls-2" d="M104.35,336.29c-1.42,0-3.24,1.24-4.14,2.28-1.02,1.17-1.05,2.45-1.2,3.93-2.45-3.12-6.01-8.08-9.94-9.26-.17.64-.5,1.18-.13,1.79.37.6,1.04,1.14,1.53,1.65,1.87,1.91,3.74,3.81,5.38,5.94,1.13,1.47,2.08,3.12,3.31,4.5,2.4-2.26,4.36-4.68,6.25-7.38.44-.92.85-1.56.63-2.6-.57-.65-.78-.85-1.68-.85Z"/>
  <path class="cls-2" d="M595.8,281.6c-.49-14.58-2.24-29.33-3.39-43.88l-1.11-14.14c-.27-3.79-.26-7.82-1.2-11.51l-.34-.08.25-.25c-.44-.55-.54-.5-1.26-.58-3.05-.33-6.6.23-9.68.41-7.2.48-14.4.87-21.61,1.19l-60.26,2.89-18.08.8c-3.55.14-7.22.12-10.75.54-1.79.21-3.24.95-4.62,2.1-1.67,1.4-2.34,3.68-2.49,5.78-.52,7.39,2.38,14.97,1.67,22.42-.8-.96-2.34-1.79-3.59-1.87-.84-.05-1.85.06-2.51.63-1.44,1.25-.98,5.67-1.64,6.09-.56.36-1.04.64-1.19,1.34-.93,4.33.03,12.45-.75,14.85-.1.31-.19.62-.3.93.81-2.83-3.77-12.54-5.34-15.32-2.1-3.72-5.8-9.08-10.14-10.32-.86-.24-1.79-.27-2.57.19-1.03.61-1.66,1.55-1.89,2.71-.47,2.39-.23,4.88-.67,7.29-1.79-6.65-1.63-17.62-2.32-24.91l-8.28-92.76c-.95-10.79-1.55-21.67-2.69-32.44-.08-.79-.18-1.39-.62-2.06l-158.33,10.58-47.8,3.27c-6.25.36-12.57.93-18.82.97,3.13-11.06,5.88-17.22,14.07-25.44,1.94,1.8,3.76,3.51,6.16,4.69,6.59-.68,12.9-3.48,19.38-4.9,9.16-2.01,18.33-2.99,27.53-4.54.48-.08.74-.26,1.12-.54,1.06-2.41-.61-6.16-1.52-8.48-1.18-3.05-2.67-5.93-4.25-8.78,1.59-3.1,2.48-6.96,1.38-10.38-.78-2.41-2.46-4.2-4.69-5.33-2.13-1.07-4.11-1.19-6.46-1.18-3.18-4.38-8.71-13.35-14.07-14.72-5.48,6.76-9.77,16.52-13.69,24.36-1.55,3.1-3.07,7.16-5.41,9.71-1.63,1.78-4.37,3.04-6.45,4.26-5.62-1.36-11.21-2.76-16.73-4.48-13.51-4.2-31.38-11.15-45.49-11.08-6.06.03-12.02,1.51-17.2,4.68-9.9,6.06-15.14,16.7-17.69,27.67-.93,4-3.56,18.87-1.97,22.18l.61.07c1.39-1.53,1.75-11.76,2.08-14.32,2.5-19.14,11.37-37.2,33.11-38.22,17.39-.81,43.7,11.45,61.7,15.14-1.26,1.56-1.85,2.63-1.64,4.72.23,2.23,1.47,4.61,2.37,6.64-10.02,9.94-22.14,20.59-35.89,24.89-2.09-4.83-8.3-27.09-12.01-28.63-.59-.25-1.08-.23-1.66.05-1.88.89-3.05,4.9-3.64,6.81-.73,2.36-.93,5.36-2.14,7.5-7.95,13.98-36.41,31.52-51.11,39.43-4.88,2.62-9.87,5.13-14.98,7.28-4.03,1.69-8.24,3.08-12.21,4.91-1.74.8-2.44,2.99-4.17,3.77-8.94,4.04-18.71,6.76-27.88,10.34-3.82,1.5-7.9,2.9-11.21,5.38-2.13,1.59-3.66,3.47-4.43,6.04-.85,2.83-.26,5.42,1.15,7.96,1.2,2.16,2.99,3.74,5.39,4.39,2.3.63,4.81.28,7.09-.27,3.57-.86,7.1-2.37,10.55-3.64,7.31-2.68,14.59-5.33,21.97-7.81,3.81-1.28,7.69-2.75,11.65-3.5.46,2.2,3.54,7.39,2.43,9.13-.43.67-.86,1-.65,1.86.32,1.34,1.98,4.11,3.2,4.77.43.23.92.37,1.38.51.28,1.13-.79,1.71-.34,3.03.61,1.8,2.12,3.42,3.13,5.04,3.25,5.23,4.85,9.96,10.57,13.36,3.97,2.36,8.24,2.82,12.68,1.65,5.53-1.46,11.83-5.67,14.73-10.7,1.26-2.19,1.91-4.81,1.17-7.28-.79-2.68-2.97-3.43-4.21-5.6-.97-1.69-1.1-3.92-2.27-5.47-.54-.72-1.39-1.4-2.19-1.78-.25-.12-.51-.21-.77-.3-.73-2.72-1.47-6.77-4.15-8.28-.04-.02-.07-.04-.11-.05-.73-3.59-1.24-7.27-4.52-9.47-1.43-.96-3.08-1.42-4.72-1.86-2.68.64-5.51,1.79-8.2,2.14,7.19-5.13,24.42-9.54,33.5-10.97,1.17,15.94,3.49,31.84,4.94,47.77-6.03,2.16-11.46,7.48-14.13,13.27-2.26,4.89-2.86,11.05-.95,16.15,2.78,7.42,12.52,12.68,18.83,16.82-2.54,2.98-6.19,7.46-5.62,11.7.12.87.38,1.22.99,1.8.81-.03.84-.21,1.41-.75.95-4.92,2.09-8.02,5.98-11.4,2.09,23.08,4.33,46.15,6.7,69.2.7,6.74,1.8,23.3,3.56,29.17.52,1.72,1.89,3.06,3.22,4.21,2.35,2.03,4.95,3.29,8.05,3.52,5.18.39,10.62-.2,15.8-.51l28.58-1.84,78.28-4.55c13.96-.86,27.97-2.06,41.94-2.61.59,7.75.86,15.7,1.96,23.39-2.32.15-5.1-.07-6.86,1.67-1.14,3.06,1.38,20.41,2.72,23.44.52,1.16,2.13,1.88,3.26,2.31,4.87,1.82,14.46.69,19.15-1.55,1.47-.7,3.02-1.87,3.52-3.49.82-2.68-.23-6.34-.47-9.14,2.32-.17,4.64-.37,6.96-.59l32.54-2.74c4.97-.43,11.13-.29,15.88-1.76,1.03-.32,1.96-1.03,2.64-1.87.79-.99,1.07-2.05,1.19-3.28.38-3.76-.21-7.81-.48-11.58-.62-8.3-1.49-16.61-2.04-24.91,9.53,8.96,18.02,18.61,26.69,28.37,2.13,2.4,5.16,4.77,6.9,7.43,0,.09.01.18,0,.27-.04.46-.17.62-.36,1.02-.69,1.41-.39,3.29.13,4.72,4.06,11.1,8.54,22.26,13.26,33.09.86,1.98,4.81,9.6,4.58,11.14.19-1.07.31-2.1.16-3.18-.49-3.43-7.56-34.5-8.47-35.69-.11-.14-.23-.28-.35-.42,12.18-2.62,24.27-5.63,36.46-8.21l14.7-3.09c1.98-.42,4.37-.67,6.25-1.38.05.05.1.1.15.15,2.22,2.44,4.22,9.29,5.52,12.58,1.84,4.64,14.8,38.56,16.53,39.73.45-.15.52-.06.74-.52.29-.61.22-1.3.05-1.93-.57-2.14-1.49-4.26-2.2-6.37-2.15-6.37-4.47-12.66-6.7-19-2.75-7.98-5.58-15.94-8.5-23.87-1.27-3.44-2.38-7.02-3.87-10.36-.19-.42-.39-.84-.61-1.25-.22-.41-.45-.81-.69-1.2-.24-.39-.5-.78-.76-1.16-.27-.38-.55-.75-.84-1.11-.29-.36-.59-.71-.91-1.05-.31-.34-.63-.67-.97-.99-.34-.32-.68-.63-1.04-.93-.35-.3-.72-.58-1.09-.86,3.38-3.73,2.92-18.2,2.68-23.2-.26-5.31-2.55-31.59-4.96-34.6,19.73-1.22,39.44-2.68,59.13-4.38,10.22-.82,20.78-1.08,30.92-2.6.87-.13,1.79-.16,2.44-.8.36-1.14.38-2.2.34-3.38ZM258.86,81.96c-.85.08-1.26-.43-1.93-.91-2.44-2.04-4.53-4.46-6.51-6.93l3.84-3.35c.1.11.2.22.29.33,1.5,1.88,4.63,8.48,4.31,10.86ZM251.6,54.73c1.01.78,2,1.8,2.66,2.9,1.34,2.21,1.31,4.25.74,6.71-.28.03-.51-.09-.78-.18-2.23-2.93-5.28-6.7-6.62-10.12,1.34.15,2.67.44,3.99.7ZM250.03,65.85c-.68,1.69-1.22,3.04-2.71,4.16-2.24-2.3-3.81-5.44-5.37-8.24.91-.64,1.91-1.17,2.87-1.73,2.73.93,3.59,3.61,5.21,5.82ZM235.59,41.92c1.82,1.71,7.75,8.71,7.81,10.93l-2,1.11c-.82.38-1.58,1.09-2.29,1.65-1.99-4.75-3.73-9.7-4.91-14.71.54.29.94.61,1.39,1.03ZM231.45,41.82c1,.62,1.1,2.63,1.41,3.81.68,2.48,1.47,4.92,2.37,7.32.9,2.4,1.92,4.76,3.04,7.07,4.4,9.02,10.46,18.15,18.6,24.2-9.28.82-18.73,2.98-27.82,4.95l-4.11-3.85-3.34-3.48c4.98-2.84,9.99-5.58,13.36-10.36-5.02,2.67-9.81,5.65-14.94,8.13-1.6-2.13-2.96-4.41-4.35-6.68,4.1-10.24,10.57-21.25,15.77-31.11ZM205.45,80.3c.36-2.01,5.7-4.8,7.48-5.95,1.32.62,6.07,7.99,7.54,9.73,1.9,2.25,3.87,4.36,6.26,6.1-2.63.75-5.24,1.54-7.85,2.38l-4.38,1.22c-2.08-1.57-3.81-3.43-5.37-5.51-1.43-1.91-4.14-5.41-3.69-7.96ZM458.11,247.88c1.43.42,3.36,3.7,4.2,4.94,1.49,2.19,4.01,6.18,3.27,8.97-.27,1.03-.67,1.21-1.5,1.75-.7.48-1.93.46-2.76.41-.86-.06-1.41-.54-1.95-1.18-2.39-2.79-1.54-11.34-1.25-14.89ZM435.18,246.75c0-.07,0-.13,0-.2l.81.08c1.49,1.17,2.83,3.67,3.83,5.3.91,1.48,2.87,4.72,2.31,6.54-.34,1.08-1.25,1.64-2.18,2.16-.03.05-.04.1-.08.14-.61.65-1.32.88-2.21.95-.77.07-1.54-.17-2.06-.77-2.66-3.09-.34-10.53-.41-14.19ZM387.72,114.5c.75-1.73,2.35-2.45,4-3.05.7.1,1.5.25,2.16.52,1.41.58,2.58,1.68,3.15,3.11.42,1.04.42,2.14-.04,3.17-.71,1.56-2.13,2.18-3.64,2.69-.74.04-1.59.13-2.31-.07-1.37-.37-2.71-1.47-3.3-2.75-.53-1.15-.51-2.45,0-3.61ZM367.34,117.32c.02-.17.05-.33.09-.5.04-.16.08-.33.14-.48.61-1.86,1.86-2.71,3.52-3.52.73-.04,1.49-.06,2.22.06,1.26.21,2.43,1.14,3.13,2.18.09.14.17.28.25.42.08.15.15.29.21.45s.12.31.16.46c.05.16.09.32.12.48.03.16.06.32.07.49.02.16.02.33.02.49,0,.16,0,.33-.02.49-.02.16-.04.33-.07.49-.41,2-1.68,3.17-3.31,4.22-.97.06-2,.06-2.94-.22-1.27-.39-2.42-1.42-3.04-2.59-.08-.15-.15-.3-.21-.46-.06-.16-.12-.31-.17-.47-.05-.16-.09-.32-.12-.49-.03-.16-.05-.33-.07-.5-.01-.17-.02-.33-.02-.5,0-.17.01-.34.04-.5ZM196.07,125.75c.76.05,1.54.1,2.27.35,1.16.4,2.07,1.26,2.57,2.38.45.99.39,2.15,0,3.15-.61,1.59-1.77,2.13-3.21,2.8-1.08-.03-2.15-.08-3.13-.59-.15-.08-.29-.16-.43-.25-.14-.09-.27-.19-.4-.29-.13-.1-.25-.22-.37-.33-.12-.12-.23-.24-.34-.37-.1-.13-.2-.26-.3-.4-.09-.14-.17-.28-.25-.43-.08-.15-.15-.3-.21-.45-.06-.15-.11-.31-.16-.47-.03-.12-.06-.24-.08-.37-.02-.12-.04-.25-.04-.37,0-.13-.01-.25,0-.38,0-.13.01-.25.03-.37s.04-.25.07-.37c.03-.12.06-.24.11-.36s.09-.23.14-.35c.05-.11.11-.22.18-.33.88-1.5,1.97-1.83,3.55-2.19ZM197.72,98.26c.04.65-2.98,5.97-3.48,7.16-1.55,3.67-2.56,7.4-3.26,11.31-4.07.23-8.14.5-12.21.81-2.35.19-4.96.63-7.3.42-.34-1.09-.76-2.15-1.15-3.22,10.62-3.32,18.8-9.72,27.4-16.49ZM180.95,134.41c-.79.39-1.65.98-2.56.87-.15-.22-.29-.45-.42-.68-.84-1.47-2.92-6.07-2.5-7.55,1.95-.16,3.37-.27,5.03,1,.9.7,1.49,1.53,1.62,2.68.17,1.47-.33,2.53-1.17,3.67ZM157.11,87.8c.09.07.18.15.26.22,1.44,1.34,28.83,77.13,29.09,82.14l-.39.2-.74-.36c-4.15-4.15-6.82-9.39-9.21-14.69-3.64-8.02-7.01-16.14-10.11-24.38-3.11-8.24-5.94-16.57-8.5-24.99-.93-3.14-2.35-6.79-2.48-10.07-.1-2.57,1.19-5.7,2.09-8.08ZM74.36,170.37c-.15.02-.29.04-.44.06-3.43.37-6.61,1.77-9.8,3-6.83,2.64-20.73,9.01-27.2,9.8-.9-.16-1.78-.34-2.61-.74-1.78-.84-2.84-2.35-3.5-4.14-.62-1.67-.76-3.43.06-5.07.72-1.44,2.01-2.46,3.38-3.24,2.91-1.65,6.47-2.63,9.59-3.85,8.23-3.2,16.45-6.37,24.85-9.11l.83.2c2.15,3.25,3.7,9.24,5.11,13.05-.09,0-.18.02-.27.03ZM109.87,164.94c1.88.78,2.81,2.22,3.49,4.06.29.78,1,2.85.33,3.53-1.78,1.81-10.22,2.55-11.55,5.41l.33.75c.25.08.49.21.76.25.02,0,10.83-3.43,12.67-3.73.78,1.12,2.11,3.02,2.04,4.41-.17,3.69-8.59,3.17-11.1,5.2-.45.82-.47.96-.41,1.9,2.02,1.7,9.26-3.25,12.15-2.97,1.39.14,3.21.89,4.05,2.05.58.8.46,1.26.32,2.16-1.68,2.54-8.77,2.78-11.64,4.89-.84.62-.81,1.1-.94,2.05,4.75.98,10.08-4.72,14.66-3.12,1.29.45,2.54,1.62,3.05,2.89.57,1.43.33,3.04-.24,4.43-1.4,3.45-4.44,5.73-7.82,7.08-4.17,1.67-8.55,1.99-12.71.13-2.7-1.21-4.94-3.19-6.69-5.56-4.72-6.38-11.45-24.3-14.52-32.38l12.44-5.3c.35.6.12,1.99.2,2.77.09.12.46.72.56.76,1.82.76,6.7-3.25,10.58-1.65ZM95.14,161.39c-5.17,2.22-10.41,4.63-15.8,6.25-2.06-4.8-3.85-9.76-5.76-14.62,24.17-8.5,65.21-31.21,79.41-52.88.55.47,4.86,15.6,5.53,17.67,1.6,4.94,3.63,9.8,5.47,14.65,3.09,8.13,6.16,16.44,10.09,24.21-2.51-1.43-5.03-2.92-7.69-4.04-5.2-2.2-10.75-2.96-16.34-3.38-20.78-1.58-36.16,4.52-54.91,12.14ZM155.73,241.29c-.7-.57-1.38-1.58-1.78-2.37-.96-.77-1.55-2.77-2.03-3.92-3.78-2.73-7.2-5.31-8.78-9.85,1.33-2.05,2.69-3.81,4.66-5.28,2.69-2.01,6.36-3.66,9.79-3.13,2.66.41,5.71,2.26,7.23,4.5.89,1.31,1.28,2.71.92,4.29-.47,2.06-2.28,3.04-3.9,4.12,3.16.97,6.25,2.02,8.86,4.14,2.04,1.66,6.76,7.67,6.88,10.43.03.68-.12.75-.56,1.2-.77-.24-4.76-7.56-6.68-9.37-.69-.65-1.42-1.24-2.21-1.77-.78-.53-1.6-1-2.45-1.41-1.55-.73-5.08-1.04-5.98-2.32.41-1.8,2.96-3.03,3.79-4.87.37-.82.36-1.72.04-2.55-.97-2.5-4.12-4.1-6.38-5.17-3.78.63-8.3,2.54-10.82,5.54-.76.91-1.05,1.59-.95,2.77,1.22,2.78,5.14,5.54,7.62,7.2.49.05.84.05,1.32-.07.14-.04.28-.07.43-.11l.65.55c0,.84-.14,1.54-.37,2.35-.14.5.35,1.31.56,1.8l2.09,2.13c1.95-1.77,3.99-4.08,6.28-5.34l.65.07c.78,1.61-.27,4.55-.82,6.15-.41,1.19-.83,2.29-1.65,3.26l-.42-.13c-.53-2.62.48-4.73,1.37-7.13-1.26,1.34-3.83,4.72-5.64,4.87-.67.06-1.17-.14-1.69-.56ZM330.35,298.42c-2.36,2.47-2.59,5.23-2.47,8.5.44,11.76,1.93,23.48,2.23,35.24l-110.58,6.72-34.66,2.16c-5.92.36-12.05,1.11-17.98.85-2.25-15.1-3.3-30.53-4.71-45.74-1.6-17.15-3.5-34.33-4.62-51.52,6.96,1.48,13.71,2.1,20.68.17,6.38,4.53,12.35,7.47,19.93,9.42,1.39.36,3.34,1.05,4.75.76.33-.07.59-.2.88-.36l.37-.66c-.1-.22-.16-.47-.31-.66-.82-1.06-3.49-1.75-4.75-2.46-1.77-1.01-3.56-2.34-5.1-3.68-2.09-1.82-3.67-3.91-5.04-6.3.57-.67,1.13-1.35,1.74-1.99,1.16-1.2,2.63-5.42,4.2-5.48,2.14-.08,5.92,1.82,8.05,2.46,1.1,2.36,2.45,4.57,5.08,5.43,1.82.6,3.76.25,5.41-.67,1.66-.92,3.1-2.54,3.63-4.39.49-1.71.33-3.45-.57-5-.96-1.65-2.96-3.06-4.82-3.48-2.3-.52-4.21.11-6.18,1.32-3.97-2.16-7.9-4.01-12.14-5.56-.68-.23-1.28-.51-1.92-.84-.97-1.78,1.05-5.54,1.41-7.57-.09-1.94-.26-3.83-.55-5.75,3.13.44,6.24.74,9.32-.18,2.48-.74,4.8-2.28,5.96-4.66.85-1.75.89-3.83.18-5.63-.73-1.86-2.16-3.23-4-3.97-3.26-1.3-6.7.11-9.72,1.38-3.08,1.97-3.59,3.33-5.73,6.11-1.01-.24-1.61-1.17-2.32-1.91,2.68-2.31,5.17-4.46,6.98-7.56.65-2.02,1.01-3.79,0-5.81-.85-1.69-2.33-2.87-4.13-3.4-1.97-.58-4.21-.39-6.02.59-2.09,1.12-3.52,3.23-4.1,5.5-.37,1.46-.39,3.01-.45,4.51-8.31-3.87-17.7-6.61-26.95-5.98-2.32-15.23-3.39-30.93-4.75-46.27,6.74.23,13.18,1.09,19.42,3.81,3.12,1.36,6.11,3.04,9.31,4.21,2.14,3.54,6.97,12.32,10.94,13.31.85.21,1.16-.05,1.82-.49,1.21-1.96.75-4.02.24-6.14-.63-2.61-1.73-5.06-2.56-7.61l-5.24-16.43c10.39-.38,20.76-1.39,31.13-2.08l52.84-3.3c45.75-2.75,91.48-5.84,137.19-9.27,2.48-.2,13.09-1.56,14.5.01.97,1.1,1.39,3.5,1.61,4.89,1.45,9.33,2.07,18.88,2.96,28.29l4.36,45.43,2.81,28.15c.5,5.17,1.49,10.83,1.03,16.02-.45.72-.9,1.03-1.62,1.47-.53,1.17.2,2.51-.48,3.45-3.24-1.58-7-8.91-11.36-7.32-2.32.85-2.12,2.85-3.39,4.39-.92,1.12-2.46.4-3.45,2.7-.7,1.62-.56,3.65-.55,5.39.02,4.83.79,9.25,2.06,13.89,1.85,6.73,12.26,32.1,11.22,36.82-1.42-2.25-11.41-6.8-14.26-8.33-.05-3.31.37-8.18-2.23-10.72-1.56-1.52-3.94-1.26-6.03-1.21-5.02.13-10.1.79-15.1,1.25-5.72.49-11.45.92-17.18,1.29l-20.29,1.51c-3.87.27-8.06.26-11.88.97-1.49.28-2.92.9-3.98,2.02ZM180.45,203.72c.15-1.73.31-3.9,1.22-5.42,1-1.66,2.44-2.08,4.2-2.49,1.56.15,3.44.27,4.61,1.45.63.64.83,1.42.76,2.3-.28,3.37-3.65,6.17-6.02,8.22-.59.39-.62.4-1.32.36-1.75-1.01-2.6-2.66-3.44-4.43ZM190.67,214.14c-.1-1.56,1.22-2.82,2.17-3.89,2.8-1.8,6.31-3.8,9.78-2.95,1.28.31,2.4,1.08,3.04,2.25.51.94.55,2.1.24,3.11-.5,1.61-1.93,2.82-3.41,3.52-3.07,1.46-6.19,1.14-9.43.67-.47-.25-.96-.52-1.38-.85-.58-.46-.96-1.1-1.01-1.85ZM191.19,235.36c3.92.85,8.93,3.08,12.2,5.4.43.91.16,1.63.02,2.6-1.54.3-8.33-2.54-10.42-3.16l-1.8-4.84ZM205.89,242.15c.76-1.35,2-1.84,3.4-2.24.57.05,1.19.1,1.75.25,1.32.35,2.69,1.23,3.35,2.45.52.96.56,2.04.23,3.07-.56,1.79-2.09,2.8-3.65,3.63-.74-.06-1.67-.14-2.38-.42-1.39-.56-2.44-1.8-2.94-3.2-.42-1.16-.37-2.45.24-3.54ZM414.79,253.76c0-1.24.05-2.41.94-3.32l.61.15c2.32,1.94,6.08,6.41,6.25,9.55.06,1.13-.27,2.46-1.12,3.26-.61.58-1.38.71-2.2.64-.62-.05-1.13-.23-1.69-.49-.58-.81-1.16-1.72-1.91-2.39.37-1.1-.87-5.69-.88-7.4ZM390.41,298.96c-2.44,1.04-.69,3.48-1.49,5.3-.58.3-1,.51-1.42,1.04-.18,1.56.64,3.36,1.13,4.85l-42.61,3.66c-3.86.3-7.75.53-11.58,1.15-.28-3.05-1.68-12.6-.1-14.98,1.31-.75,2.91-1.07,4.4-1.28,5.94-.87,12.14-.96,18.15-1.41,13.62-.96,27.23-2,40.84-3.13,1.52-.16,3.62-.57,4.89.45,1.7,1.35,1.71,5.23,1.99,7.24-.8-.43-1.62-.84-2.44-1.23-2.71-1.27-8.85-2.88-11.74-1.64ZM403.35,309.31c.43.83.06,1.36-.24,2.16-.51.26-1.02.53-1.55.75-1.01.42-2,.34-2.99-.1-3.8-1.7-5.8-7.11-7.31-10.72.07.01.14.02.21.04,2.49.54,10.74,5.7,11.88,7.88ZM352.11,390.02c-.2.86-.72,1.28-1.49,1.69-2.41,1.28-11.59,1.33-14.43.52-.34-.2-.67-.42-.97-.68-3.14-2.74-3.54-16.98-3.99-21.35,5.44-1.07,11.61-.93,17.16-1.29.46-.08.68-.02,1.12.09,1.04,1.63,3.09,18.92,2.6,21.02ZM409.87,372.72c-1.18,1.02-3.02,1.36-4.53,1.61-6.78,1.1-14.03,1.3-20.88,1.9-8.58.74-17.22,1.85-25.82,2.22-1.73.17-3.48.23-5.22.34-.3-2.54-.65-10-2.48-11.55-1.63-1.38-10.26.12-12.54.29-.91-6.09-.98-12.32-1.46-18.46-.83-10.71-1.83-21.44-2.36-32.17,17.01-.43,34.17-2.35,51.11-3.83l4.16-.29c4.85,7.62,11.24,13.33,17.77,19.48.82,5.74,3.62,36.6,2.24,40.46ZM504.71,328.68c.44,6.74.66,14.06-.73,20.71-.14.69-.36,1.34-.64,1.98.89.87,2.62,2.63,2.75,3.84-19.12,4-38.56,6.63-57.71,10.54-.53-2.36-4.14-5.5-5.73-7.37-9.63-11.31-19.17-22.64-30.64-32.18-2.08-1.73-12.5-9.56-13.03-11.76,2.37-.02,3.43.26,5.24-1.53.56-.56,1.24-1.43,1.22-2.26-.04-1.6-1.66-3.05-2.81-4-2.42-2-5.32-3.39-7.68-5.46,8.17,2.1,19.01,8.96,25.99,13.74,2.73,1.87,5.92,4.61,8.85,6.01.69.33.95.2,1.58-.15,1.95-6.1-19.65-52.96-17.87-61.22.46.98.87,1.97,1.27,2.97,1.03,1.57,1.97,2.9,3.9,3.38,1.24.32,2.55.19,3.64-.52,1.27-.82,1.98-2.25,2.17-3.71.45-3.39-1.78-5.95-3.63-8.48l.44.14.28.24c2.23,1.97,3.99,4.39,5.35,7.03,1.94,3.74,3.17,8.01,4.55,11.99l6.48,18.7c.97,2.77,1.85,6,3.18,8.6.37.73.57.91,1.3,1.25.7-.26.89-.3,1.39-.89.62-3.62-5.92-23.83-7.25-28.73-.66-2.41-1.87-5.79-1.62-8.29,1.64-.42,2.86.97,4.56.36,1.65-.59,3.14-1.31,3.97-2.97.95-1.89.82-3.97.11-5.91-.75-2.08-2.2-4.27-3.74-5.86,10.12,5.36,18.82,47.74,23.38,48.82.55-.21.66-.26.9-.85,1.39-3.54-2.55-17.07-3.42-21.3-.69-3.34-.98-7.14-2.16-10.33.55.18,1.1.36,1.64.55,1.72.61,3.5.6,5.19-.14,1.05-.46,1.81-1.24,2.22-2.31.98-2.59-.22-5.9-1.39-8.23-.47-.94-1.8-2.5-1.76-3.45,1.66.6,2.47,2.66,3.19,4.17,1.54,3.27,2.57,6.76,3.7,10.18,1.29,3.93,2.76,7.84,3.93,11.8,1.48,4.98,2.7,10.21,4.47,15.08.32.88.63,1.7,1.3,2.36.83.15,1.15.16,1.85-.38.78-.61,1.51-1.61,1.67-2.61.01-.08.03-.15.04-.23.61-3.97-3.36-18.66-4.46-23.24-.54-2.28-1.58-5.19-1.34-7.52.07-.64.57-1.3,1.07-1.7.94-.74,2.24-.72,3.36-.52,3.48.63,6.47,2.8,8.43,5.7,6.22,9.18,12.25,51.96,13.03,63.95ZM583.84,275.75c-4.85.8-9.89,1.05-14.79,1.46l-23.83,1.9c-15.03,1.13-30.15,2.8-45.22,3.1.34-.67.27-1.17.16-1.89-1.16-7.75-4.17-18.17-10.78-22.94-.45-.32-.34-.25-.42-.75,2.87-.43,10.93-.41,12.55-2.12.02-.85-.07-.8-.62-1.39-2.95-.07-18.12.62-20.18,1.53-.77.34-2.74,3.45-4.26,4.44l-.26.16c.08-.3.13-.6.17-.91.36-2.78-2.15-25.51-3-29.17-.14-.6-.43-1.11-.81-1.6,22.47-1.81,45.07-2.76,67.59-3.83,11.79-.56,23.64-.9,35.39-1.98,1.17-.1,2.36-.31,3.5.02.04.12.09.23.13.35.88,2.45,1.06,9.76,1.36,12.71,1.28,12.76,3,25.68,3.69,38.48.05.91,0,1.59-.38,2.43Z"/>
  <path class="cls-2" d="M359.5,303.31c-.38-.13-.81-.16-1.2-.21-.55.96-.68,1.21-.69,2.3.52.83.99,1.14,1.95,1.38.07.02.14.02.2.04.59-.77,1.02-1.26,1.09-2.25-.36-.72-.56-.98-1.35-1.25Z"/>
  <path class="cls-2" d="M351.58,303.47c-.68.77-1.09,1.1-1.3,2.16.62,1.14,1.38,1.51,2.58,1.99.63-.77,1.02-1.2,1.08-2.21-.57-1.13-1.16-1.49-2.36-1.93Z"/>
  <path class="cls-2" d="M345.27,304.71c-.69-.44-1.59-.5-2.38-.55-.73.9-.92,1.11-1.09,2.23.31.76.49,1.23,1.31,1.58.44.19,1.07.3,1.55.34.86-.74,1.23-.99,1.6-2.1-.19-.72-.32-1.09-.98-1.51Z"/>
  <path class="cls-2" d="M361,339.49c-2.81.17-8.13-.12-10.35,1.53-1.17,2.47-.58,11.63.49,14.21.34.82.6.98,1.38,1.35,3.71-.1,7.4-.43,11.1-.76-.19-2.72-.46-14.72-1.84-16.28l-.78-.05Z"/>
  <path class="cls-2" d="M395.27,337.52c-2.76-2.41-9.15-2.46-12.63-2.82,0-3.07.7-9.62-1.58-11.83-.82-.79-1.82-.77-2.89-.82-1.05,1.23-1.33,2.49-1.63,4.04-.39,1.95-.34,4.18-.94,6.04-1.41,4.44-8.21,6.22-12.24,7.39.63,4.1.7,8.26,1.13,12.39.29,2.78,1.1,5.52,1.64,8.26.52,2.65.8,5.37,1.52,7.97l.44.14c1.81-2.65-2.54-10.33.61-12.34l1.64-.09c1.72-.02,3.47-.05,5.18.16,2.73.33,13.02,2.95,14.83,1.06,2.22-2.32,6.09-14.42,5.81-17.67-.08-.87-.19-1.27-.87-1.87Z"/>
  <path class="cls-2" d="M484.73,239.85c3.55-.11,14.91-.15,17.5-1.74.31-.69.24-.66-.02-1.38-1.4-.98-2.58-.61-4.2-.41-4.25.52-13.2.12-16.61,1.89l-.46.79c1.23.93,2.29,1.03,3.79.85Z"/>
  <path class="cls-2" d="M511.43,237.77c.27.05.56,0,.83-.03l41.17-3.07c5.1-.39,10.36-.41,15.43-1.1.96-.13,2.69-.33,3.36-1.08.33-.36.19-.6.17-1.06-.66-.72-.62-.76-1.62-.79-.42-.02-.82.01-1.23.05-13.14.84-26.27,1.88-39.37,3.14-5.73.5-11.7.6-17.37,1.47-.91.14-1.68.27-2.43.83l-.36.72c.41.63.67.8,1.44.93Z"/>
  <path class="cls-2" d="M574.5,247.27c-.97-.55-2.87-.16-3.99-.05-14.63,1.51-29.35,2.57-44.01,3.81-5.2.44-10.51.52-15.67,1.19-1.01.13-3.11.33-3.81,1.13-.07.08-.13.17-.19.26.43.81.75.91,1.51,1.37l2.26-.05,45-3.74c5.41-.48,11.03-.59,16.38-1.32,1.01-.14,1.87-.37,2.75-.91l.4-.7c-.18-.52-.11-.71-.61-.99Z"/>
  <path class="cls-2" d="M552.58,262.6c-.04-.13-.08-.27-.12-.4-.04-.13-.09-.26-.15-.4-.05-.13-.11-.26-.16-.39-.06-.13-.12-.25-.19-.38-.06-.12-.13-.25-.2-.37-.07-.12-.14-.24-.22-.36s-.16-.23-.24-.35c-.08-.11-.17-.22-.26-.33-.09-.11-.18-.22-.27-.32-.09-.1-.19-.21-.29-.31-.1-.1-.2-.2-.3-.29s-.21-.19-.32-.28c-.11-.09-.22-.18-.33-.26-.11-.08-.23-.16-.34-.24-.12-.08-.24-.15-.36-.22-1.84-1.08-3.54-1.24-5.63-.89-2.5,1.22-4.35,2.44-5.31,5.2-.73,2.11-.46,4.49.56,6.46.89,1.73,2.29,3.05,4.17,3.63,1.06.33,2.54.69,3.58.25,2.26-.47,4.21-1.26,5.55-3.27,1.19-1.8,1.43-4.02.95-6.09-.03-.14-.07-.27-.11-.41ZM547.23,261.2c-.35,1.91-3.25,4.79-4.84,5.87l-.35.82-.48-.02c-.31-.4-.62-.8-.89-1.23-.66-1.03-.81-2.24-.48-3.41.54-1.91,1.77-2.56,3.4-3.44,1.17-.15,2.33-.33,3.39.28.22.48.35.61.26,1.13Z"/>
  <path class="cls-2" d="M521.94,259.81c-1.53-1.41-3.51-1.9-5.53-1.74-.25.02-.5.04-.75.07-2.64.56-4.55,1.6-6.03,3.93-.07.12-.15.24-.22.36-.07.12-.13.24-.2.37-.06.12-.12.25-.18.38-.06.13-.11.26-.16.39-.05.13-.1.26-.14.4-.04.13-.08.27-.12.4-.03.13-.07.27-.1.41-.03.14-.06.27-.08.41-.02.14-.04.28-.06.41-.01.14-.03.28-.04.42s-.01.28-.01.42c0,.14,0,.28,0,.42,0,.14.01.28.03.42s.03.28.05.42c.02.14.04.28.07.41.03.14.06.27.09.41.51,2.02,1.72,3.65,3.51,4.71,1.28.76,2.61,1,4.06,1.1,2.4-.09,4.21-.69,5.9-2.48.1-.11.19-.21.29-.32.09-.11.19-.22.27-.34.09-.11.17-.23.26-.35.08-.12.16-.24.24-.36.08-.12.15-.25.22-.37.07-.13.14-.26.2-.38s.12-.26.18-.39c.06-.13.11-.27.16-.4.05-.14.1-.27.15-.41s.08-.28.12-.42c.04-.14.07-.28.11-.42.03-.14.06-.28.08-.43.02-.14.04-.29.06-.43.01-.14.03-.29.04-.43,0-.14.01-.29.02-.43,0-.14,0-.29,0-.43-.07-2.16-.88-4.2-2.48-5.68ZM520.08,269.55l-1.12.65c-.56.66-1.61,1.11-2.47,1.25-1.01.16-2.45-.03-3.29-.66-1.93-1.46-1.13-4.68-1.56-6.79-.02-.08-.04-.16-.05-.23.32-.06.63-.12.95-.12,2.01.05,6.45,3.8,7.67,5.29l-.13.61Z"/>
  <path class="cls-2" d="M573.48,241.2l.49-.59c-.2-.89-.36-1-.97-1.64h-1.59c-10.66,1.14-87.36,6.1-89.19,7.44-.12.82-.17.96.18,1.74.69.28,1.11.23,1.82.13l60.44-4.68c4.55-.34,25.96-1.13,28.81-2.39Z"/>
  <path class="cls-2" d="M204.08,167.66c.51,0,1.03-.01,1.54-.03,4.18-.32,16.58-.63,19.72-2.09l.2-.54c-.48-.54-.96-1.15-1.73-1.22-.62-.05-1.31.04-1.93.1-4.25.22-14.51.53-18.23,1.38-.81.18-1.07.33-1.62.93l-.03.96c.61.62,1.25.49,2.09.5Z"/>
  <path class="cls-2" d="M216.23,266.65c3.32-.08,18.49-.11,20.3-1.99.28-.29.1-.58.05-.94-.86-.72-1.29-.86-2.46-.76-.53.05-1.07.1-1.6.17-3.96.3-16.45.31-19.19,1.8l-.37.57c.23.57.24.82.87,1.04.7.24,1.67.13,2.41.11Z"/>
  <path class="cls-2" d="M244.94,264.6c1.45.64,4.53.06,6.18-.06l29.26-1.75c4.35-.26,12.44-.06,16.42-1.5l.35-.41c-.49-.8-1.29-1.27-2.2-1.5-1.09-.28-2.57-.03-3.7.06l-34.33,2.18c-2.93.19-8.77.06-11.36.74-.39.1-.59.28-.89.52l-.41.85c.21.5.14.64.67.88Z"/>
  <path class="cls-2" d="M275.79,288.67c-.44-.16-.91-.13-1.37-.11-10.78.53-21.51,1.5-32.28,2.18-6.96.44-14.17.45-21.08,1.29-.85.1-2.06.19-2.68.86-.08.08-.14.17-.21.26.21.75.33.75.94,1.2.58.03,1.17.09,1.76.07,7.05-.2,52.94-2.54,55.54-4.07l.38-.59c-.3-.66-.28-.82-1-1.08Z"/>
  <path class="cls-2" d="M266.74,190.62c-1.06-.96-1.9-1.17-3.3-1.11-.59.03-1.2.06-1.78.14-16.77,1.27-33.59,2.69-50.37,3.73-1.8.11-4.9.25-6.24,1.6.22.75.59.78,1.24,1.17,1.34.08,2.67-.14,4-.3,7.15-.41,52.94-3.15,56.34-4.72l.12-.51Z"/>
  <path class="cls-2" d="M205.98,186.94c7.55-.37,57.68-3.59,60.21-5.13l.22-.67c-.43-.63-.54-.94-1.38-1.07-.08-.01-.17.02-.25.02l-38.3,2.88c-6.31.46-12.85.59-19.12,1.49-1.04.15-1.93.31-2.83.87l-.27.64c.44.71.39.74,1.16.92.31.07.2.05.57.06Z"/>
  <path class="cls-2" d="M242.52,165.01c8.89-.62,70.39-4.24,72.64-5.38l.52-.7c-.24-.52-.3-.78-.86-1.02-1.28-.56-3.84-.1-5.21,0l-45.27,2.99c-7.89.54-16.12.7-23.93,1.74-1.62.22-3.6.52-4.98,1.45l.33.65c2.37.6,4.34.47,6.76.27Z"/>
  <path class="cls-2" d="M300,278.01c-6.96.45-82.26,4.72-83.23,5.15-.26.11-.46.33-.69.5-.29.74-.46.92-.27,1.71,1.91.95,5.63.07,7.79.02,20.23-1.54,40.54-2.53,60.79-3.88,6.98-.47,14.27-.49,21.2-1.28.99-.11,1.89-.3,2.77-.79l.41-.64-.25-.67c-2.3-.96-6.06-.28-8.52-.1Z"/>
  <path class="cls-2" d="M209.72,177.24c19.69-1.59,39.47-2.4,59.18-3.77,7.36-.51,15.22-.51,22.48-1.64,1.35-.21,2.93-.42,3.94-1.42-.43-.68-.82-.85-1.61-1.06-1.16-.31-2.92,0-4.12.12l-59.58,3.83c-7.91.55-16.14.57-23.99,1.6-1.05.14-2.19.32-3.02,1.01.1.35.04.49.37.67,2,1.14,4.15.78,6.35.65Z"/>
  <path class="cls-2" d="M324.63,266.24c-.99-.07-2.1.1-3.1.19l-69.1,4.65-23.3,1.54c-4.03.27-8.24.31-12.23.9-.82.12-1.27.25-1.89.8v.56c1.57,1.33,3.43,1.01,5.35.92l69.78-4.67,23-1.55c3.48-.24,7.04-.26,10.5-.67.98-.12,1.83-.3,2.6-.96l.08-.73c-.54-.63-.82-.92-1.68-.98Z"/>
  <path class="cls-2" d="M376.67,210.54c-1.02-.41-2.09-.57-3.13-.13-1.7.71-2.42,2.69-2.98,4.3-1.53-.97-.17-4.6-5.34-5.41-1.83.83-3.24,1.72-4.01,3.71-.47,1.21-.61,2.34-.67,3.62l-.02.45c0,.09,0,.18,0,.27-2.41.2-7.58-.04-9.31,1.6-1.25,4.18.19,13.41.56,18.22,7.82-.55,16.19-.7,23.93-1.92,4.21-.32,8.5-.52,12.68-1.15-.23-2.98-.71-16.32-2.68-17.86-1.23-.96-3.08-.73-4.53-.67-1.07-2.38-1.89-3.98-4.47-5.02ZM359.11,221.73c-1.74.19-3.52.21-5.27.18l-.2-.38c.05-.06.1-.12.15-.18,1.2-1.41,2.22-1.49,3.96-1.63.71-.09,1.43-.18,2.15-.21.96-.05,1.53.43,2.21,1.03v.66c-.84.67-1.96.52-3,.53ZM373.09,215.93c-.3-.14-.3-.44-.41-.74.35-1.12,1.12-1.74,1.94-2.53.44.01.89.05,1.32.15.82.2,1.41.79,1.8,1.52.37.67.48.81.27,1.53l-.93.02c-1.28.2-2.77.61-4,.05ZM383.14,218.16l.07.54-.64.64c-2.32.42-5.13,1-7.32-.18l.13-.83-.31.7-.11-.52.82-.39c2.35.19,5.11-.72,7.36.05Z"/>
  <path class="cls-2" d="M314.05,213.1c-1.31.11-2.29,1.1-3.03,2.1-.83,1.12-1.02,2.03-1.12,3.4l-.13,1.57c-1.11-2.54-2.22-5.8-4.98-6.97-.99-.42-2.05-.3-3.09-.18-2.39,1.76-4.03,3.41-4.46,6.45-.1.68-.09,1.37-.07,2.05-2.4.09-5.18-.13-7.23,1.28-2.19,3.11-.15,14.62.29,18.68,8.89-.08,17.83-.84,26.7-1.5,2.69-.18,5.4-.3,8.07-.59-.22-3.61-.2-16.02-2.35-18.45-.68-.24-1.3-.42-2.01-.54-2.11-1.86-2-7.69-6.59-7.31ZM299.27,225.81c-1.86.05-6.3.99-7.72-.11.05-.84.16-.96.62-1.62l.49-.05c2.07-.2,5.68.02,7.35,1.39l-.73.4ZM299.9,219.57c-.17-.76.13-1.53.56-2.14.57-.81,1.5-1.54,2.5-1.65.08,0,.17-.01.25-.01.08,0,.17,0,.25.01s.17.02.25.04c.08.02.16.04.24.06.08.03.16.05.23.09.08.03.15.07.22.11.07.04.14.09.21.14s.13.1.2.16c1.08.98,1.43,2.4,1.54,3.78-.09-.03-.18-.05-.27-.08-1.15-.38-2.15-2.35-3.44-1.92.26.99.69,2.11.73,3.12-.86,0-1.6-.03-2.43-.25-.55-.5-.87-.7-1.04-1.45ZM307.67,224.95l-.74.14c-1.15.17-2.28.33-3.44.39l-.29-.46.87-1.52c1.59,0,2.5.16,3.67,1.29l-.06.16ZM317.96,219.69l-.49.64c-1.31.06-2.25.22-3.34-.63-.85-.67-.98-1.09-1.12-2.1.26-.88.58-1.2,1.33-1.72.58.13,1.26.25,1.75.61,1.07.78,1.63,1.93,1.86,3.2Z"/>
  <path class="cls-2" d="M259.36,228.59c0-1.34-.07-2.47-1.04-3.47-4.71-1.41-2.55-4.29-7.04-7.51-1.61-.36-3.56-.91-5.05.07-.99.65-1.87,1.8-3.07,1.97l-.28-.27c-1.24-1.17-2.74-2.15-4.51-2.12-1.45.02-2.65.83-3.59,1.87-1.87,2.08-2.61,4.35-3.12,7.05-2.31.51-5.45.87-6.87,3-.84,1.26-.89,2.56-.68,4.01.71,4.15.57,8.52,1.2,12.72,11.86-.31,23.68-1.57,35.52-2.37-.37-4.87-.51-10.18-1.46-14.97ZM236.26,230.48l-1.59.37c-2.33.05-5.03.67-7.3.19-.32-.07-.33-.22-.5-.48.52-.92,1.36-1.29,2.25-1.79.07,0,.14,0,.21.01,2.26.52,5.21.23,7.23,1.22l-.3.49ZM241.22,225.66c-1.02,0-2.01.1-3.02.2-1.02.15-1.93.33-2.95.08-.62-.67-.67-.82-.86-1.71.33-1.63,1.41-2.85,2.73-3.79.34-.08.7-.18,1.05-.2.79-.05,1.34.17,1.86.78,1.07,1.25,1.22,3.08,1.19,4.64ZM247.83,222.67c-.09-.12-.17-.23-.26-.35-.35-.44-.61-.54-1.13-.71l-.34-.6c.26-.49.16-.56.73-.73,1.31-.38,2.71.11,3.85.78.85.5,1.39,1,1.8,1.9-.04,1.01-.08,1.03-.76,1.79l-1.52.44c-.73-.89-1.57-1.7-2.37-2.52ZM255.57,229.04c-1.53.16-3.85.73-5.17-.1.16-.67.34-1.29.6-1.92.65-.08,1.3-.14,1.95-.19,1.35-.09,2.75-.08,3.8.85-.2.77-.57.88-1.19,1.36Z"/>
  <path class="cls-2" d="M337.01,187.65c2.22,1.55,5.82,1,8.34.81,6.4-.5,12.8-1.06,19.19-1.66,3.33-.3,7.31-.3,10.5-1.3,1.08-.34,2.17-1.01,2.91-1.88,2.65-3.12-.4-21.74-.97-26.21-.35-2.75-.97-7.03-3.33-8.86-2-1.55-5.65-1.29-8.04-.91-4.51.44-30.07,2.07-31.83,4.39-1,1.32-1.4,3.16-1.54,4.78-.4,4.77,1.48,20.51,2.49,25.64.31,1.58.89,4.24,2.27,5.2ZM335.46,153.78c1.6-1.61,28.47-3.46,32.45-3.81,1.68-.19,3.18-.17,4.53.99,2.43,2.09,2.62,11.53,2.97,14.88.28,2.61,2,15.01.69,16.63-.77.55-1.5.89-2.43,1.07-1.68.32-3.49.25-5.2.45-8.22.93-16.52,1.41-24.76,2.11-1.36.13-3.13.47-4.46.06-.45-.14-1.1-.51-1.29-.96-1.16-2.79-3.19-22.46-3.23-26.55-.01-1.64.12-3.32.73-4.85Z"/>
  <path class="cls-2" d="M358.98,171.57c2.43-1.73,5.08-3.52,7.15-5.67-4.38-1.77-15.97-7.7-19.78-8.04-.42,4.8,1.17,15.92,1.85,20.96,3.68-2.27,7.22-4.8,10.78-7.25Z"/>
  <path class="cls-4" d="M157.11,87.8c.09.07.18.15.26.22,1.44,1.34,28.83,77.13,29.09,82.14l-.39.2-.74-.36c-4.15-4.15-6.82-9.39-9.21-14.69-3.64-8.02-7.01-16.14-10.11-24.38-3.11-8.24-5.94-16.57-8.5-24.99-.93-3.14-2.35-6.79-2.48-10.07-.1-2.57,1.19-5.7,2.09-8.08Z"/>
  <path class="cls-4" d="M74.36,170.37c-.15.02-.29.04-.44.06-3.43.37-6.61,1.77-9.8,3-6.83,2.64-20.73,9.01-27.2,9.8-.9-.16-1.78-.34-2.61-.74-1.78-.84-2.84-2.35-3.5-4.14-.62-1.67-.76-3.43.06-5.07.72-1.44,2.01-2.46,3.38-3.24,2.91-1.65,6.47-2.63,9.59-3.85,8.23-3.2,16.45-6.37,24.85-9.11l.83.2c2.15,3.25,3.7,9.24,5.11,13.05-.09,0-.18.02-.27.03Z"/>
  <path class="cls-4" d="M109.87,164.94c1.88.78,2.81,2.22,3.49,4.06.29.78,1,2.85.33,3.53-1.78,1.81-10.22,2.55-11.55,5.41l.33.75c.25.08.49.21.76.25.02,0,10.83-3.43,12.67-3.73.78,1.12,2.11,3.02,2.04,4.41-.17,3.69-8.59,3.17-11.1,5.2-.45.82-.47.96-.41,1.9,2.02,1.7,9.26-3.25,12.15-2.97,1.39.14,3.21.89,4.05,2.05.58.8.46,1.26.32,2.16-1.68,2.54-8.77,2.78-11.64,4.89-.84.62-.81,1.1-.94,2.05,4.75.98,10.08-4.72,14.66-3.12,1.29.45,2.54,1.62,3.05,2.89.57,1.43.33,3.04-.24,4.43-1.4,3.45-4.44,5.73-7.82,7.08-4.17,1.67-8.55,1.99-12.71.13-2.7-1.21-4.94-3.19-6.69-5.56-4.72-6.38-11.45-24.3-14.52-32.38l12.44-5.3c.35.6.12,1.99.2,2.77.09.12.46.72.56.76,1.82.76,6.7-3.25,10.58-1.65Z"/>
  <path class="cls-4" d="M95.14,161.39c-5.17,2.22-10.41,4.63-15.8,6.25-2.06-4.8-3.85-9.76-5.76-14.62,24.17-8.5,65.21-31.21,79.41-52.88.55.47,4.86,15.6,5.53,17.67,1.6,4.94,3.63,9.8,5.47,14.65,3.09,8.13,6.16,16.44,10.09,24.21-2.51-1.43-5.03-2.92-7.69-4.04-5.2-2.2-10.75-2.96-16.34-3.38-20.78-1.58-36.16,4.52-54.91,12.14Z"/>
  <g>
    <path class="cls-3" d="M165.01,449.88c-.36-.19-.69.04-1.03.05-.72,0-1.45-.06-2.17-.07-.78,0-1.56-.05-2.32.07-.8.12-1.61.19-2.42.22-1.2.03-2.38.32-3.58.25-1-.06-1.99.1-2.99.07-.73-.03-1.46-.17-2.19-.24-.6-.06-1.22-.04-1.82-.1-.91-.09-1.84-.07-2.75-.29-.34-.08-.69,0-1.05-.05-1.06-.13-2.13-.12-3.2-.18-.66-.04-1.31.07-1.97,0-.35-.03-.76.12-1.15.18-1.11.17-2.22.16-3.34.2-.52.02-1.02.23-1.54.31-1.63.27-3.26.2-4.89.14-1.02-.04-2.05-.18-3.07.03-.17.04-.42.09-.53-.1-.13-.24.17-.27.26-.41.57-.88,1.12-1.78,1.68-2.67.97-1.51,1.82-3.09,2.64-4.68.83-1.58,1.67-3.15,2.42-4.78.19-.42.46-.8.69-1.2.9-1.55,1.81-3.09,2.86-4.55.75-1.03,1.36-2.16,2.03-3.26.82-1.36,1.48-2.8,2.26-4.18.74-1.31,1.36-2.7,2.1-4.02,1.01-1.78,2.16-3.47,3.19-5.23.65-1.1,1.43-2.16,1.77-3.42.07-.28.2-.29.39-.08.61.68.93,1.52,1.3,2.33.87,1.88,1.73,3.76,2.84,5.52.05.16.1.32.26.41,0,0,0,0,0,0,.24.57.56,1.08.94,1.56,0,0,0,0,0,0,.05.18.08.36.29.43,0,0,0,0,0,0,.03.28.23.45.44.6,0,0,0,0,0,0,.07.34.25.61.53.82,0,0,0,0,0,0,.58,1.05,1.31,2.01,1.99,3,0,0,0,0,0,0,.12.37.33.68.63.94,0,0,0,0,0,0,.12.48.47.83.7,1.25.52.94,1.06,1.87,1.59,2.8,0,0,0,0,0,0,.02.08.04.17.07.25.71,1.89,1.69,3.65,2.78,5.34.45.7.83,1.47,1.49,2.02,0,0,0,0,0,0,0,.26.18.43.32.63.66.94,1.4,1.82,1.94,2.85.26.48.5.98.88,1.39,0,0,0,0,0,0,.04.11.08.22.13.33.3.6.64,1.19.81,1.85.3,1.16.93,2.13,1.67,3.04.14.17.3.31.18.53-.11.22-.31.32-.56.25-.04-.02-.09-.05-.13-.07l-.73-.11c-.1,0-.21,0-.31,0-.1,0-.21,0-.31,0Z"/>
    <path class="cls-3" d="M148.7,413.67s-.05-.06-.07-.09c-.47-.67-.84-1.41-1.37-2.04-.1-.12-.06-.22-.03-.34.05-.17.19-.12.3-.12.78-.04,1.54.14,2.3.23,1.53.2,3.03-.03,4.54-.07,1.08-.03,2.17-.16,3.24.01.51.08,1.02.13,1.53.13,1.09,0,2.19-.07,3.27.02,1.51.13,3.01.24,4.52.27,1.5.03,2.99.11,4.49.05,1.03-.05,2.07-.05,3.1-.16.57-.06,1.17.07,1.72-.19.58,0,1.16.05,1.75-.02.08,0,.16,0,.23,0,.13.03.26.03.38-.02.09,0,.17,0,.26,0,.54.07,1.08.07,1.63.04.5.24,1,.06,1.51.02,1.7-.12,3.4-.23,5.1-.31,1.19-.05,2.38-.2,3.57-.06.46.16.5.47.3.85-.7,1.33-1.53,2.57-2.38,3.79-.98,1.4-1.91,2.83-2.82,4.28-.72,1.14-1.35,2.32-1.98,3.51-.78,1.47-1.49,2.98-2.22,4.48-.88,1.83-1.81,3.64-2.87,5.38-.63,1.05-1.47,1.94-2.13,2.97-1.16,1.82-2.26,3.67-3.33,5.54-.56.98-1.03,2.01-1.51,3.03-.23.19-.24.49-.37.73-.65,1.13-1.56,2.11-2.09,3.32-.08.18-.27.29-.47.24-.26-.07-.12-.28-.09-.43.03-.13,0-.24-.07-.34-1.48-2.01-2.51-4.26-3.55-6.51-.54-1.15-1.15-2.27-1.69-3.42-.07-.14-.24-.24-.37-.36-.64-1.44-1.58-2.68-2.5-3.94,0,0,0,0,0,0-.05-.38-.33-.63-.51-.93-.81-1.37-1.63-2.75-2.42-4.13-.66-1.16-1.39-2.28-1.95-3.49-.58-1.25-1.2-2.48-1.99-3.61-.02-.03-.05-.07-.07-.1-.3-.5-.55-1.03-.96-1.46,0,0,0,0,0,0-.13-.4-.34-.75-.64-1.04,0-.03,0-.06-.02-.09.03-.16-.05-.26-.18-.33,0,0,0,.01,0,.01-.04-.05-.07-.09-.11-.14.01-.02.01-.04,0-.06,0-.07-.04-.11-.1-.12,0,0,.01,0,.01,0-.11-.54-.47-.94-.75-1.39-.73-1.2-1.37-2.46-2.18-3.62Z"/>
    <path class="cls-3" d="M185.16,398.23c.18.54.47,1.02.72,1.53.77,1.59,1.47,3.23,2.35,4.77.64,1.13,1.47,2.16,2.18,3.26.18.27.32.57.59.79.16.13.18.38.09.58-.12.28-.4.2-.59.17-1.34-.21-2.69-.11-4.03-.12-1.34,0-2.69-.09-4.03,0-1.38.1-2.76.07-4.14.07-1.07,0-2.12-.21-3.18-.29-1.02-.08-2.03-.08-3.05-.1-1.78-.03-3.56-.13-5.35-.2-2.58-.1-5.16.08-7.73.05-1.03-.01-2.05-.05-3.07.07-1.16.13-2.31.26-3.47.37-1.56.15-3.12.31-4.69.04-.28-.05-.53.17-.86.04.57-.78.88-1.68,1.54-2.39.44-.48.72-1.09,1-1.69.3-.63.65-1.23,1.09-1.78.56-.68.72-1.59,1.29-2.26.77-.91,1.29-1.98,1.89-2.99.92-1.54,1.7-3.17,2.46-4.8.6-1.27,1.2-2.54,1.87-3.77.73-1.34,1.51-2.63,2.41-3.86.49-.67,1.07-1.3,1.52-1.99.7-1.08,1.33-2.2,1.99-3.31,1.2-1.99,2.25-4.06,3.27-6.15.35-.72.55-1.51,1.06-2.15.31-.39.58-.75.26-1.26-.06-.1-.07-.29.09-.37.21-.1.21.12.27.22.81,1.48,1.57,2.98,2.42,4.43,1.48,2.51,2.91,5.05,4.66,7.39.44.59.8,1.25,1.19,1.87.02.29.23.48.35.72.88,1.52,1.62,3.12,2.47,4.65.98,1.77,1.89,3.58,3.16,5.19.28.35.47.8.75,1.18.19.42.45.8.72,1.17.04.09.08.18.13.28.03.04.06.07.09.11,0,0,0,0,0,0,.02.14.11.25.21.34,0,.03,0,.05.03.07.03.04.06.08.09.12Z"/>
    <path class="cls-3" d="M158.16,386.67s-.02.04-.02.06c-.03.05-.07.1-.1.15-.09.04-.09.13-.11.2-.09.04-.09.13-.1.21,0,0,0,0,0,0-.97,1.34-1.82,2.76-2.71,4.16,0,0,0,0,0,0-.79.87-1.39,1.88-1.97,2.89-.91,1.57-1.8,3.15-2.66,4.75-1.01,1.89-1.94,3.81-2.95,5.69-.62,1.15-1.33,2.23-1.98,3.36-.12.2-.35.46-.56.15-.2-.3-.47-.54-.63-.86-.31-.64-.57-1.3-.89-1.94-.31-.61-.67-1.19-1.01-1.78,0,0,0,0,0,0-.06-.31-.19-.59-.39-.84-.03-.06-.07-.13-.1-.19-.34-.61-.67-1.23-1.03-1.83-.24-.41-.43-.85-.78-1.18,0,0,0,0,0,0-.41-.88-1.03-1.63-1.57-2.43,0-.13-.1-.19-.19-.26-.21-.37-.44-.73-.74-1.05,0,0,0,0,0,0,0-.16-.09-.26-.22-.32-.06-.1-.12-.2-.17-.3-.01-.16-.12-.25-.24-.33,0-.02,0-.05-.01-.07-.06-.08-.11-.15-.17-.23,0-.15-.08-.24-.2-.3-.29-.6-.75-1.09-1.17-1.59.03-.18-.15-.24-.21-.37-.05-.16-.17-.25-.3-.33,0,0,0,0,0,0-.16-.46-.4-.88-.82-1.16,0,0,0,0,0,0,0-.18-.06-.31-.23-.39,0,0,0,0,0,0,0-.16-.08-.25-.21-.31,0,0,0,0,0,0,.02-.17-.1-.24-.22-.31,0,0,0,0,0,0-.15-.53-.53-.93-.84-1.37-.04-.06-.07-.12-.11-.18,0-.07-.03-.11-.1-.12,0,0,.01,0,.01,0,0-.16-.09-.25-.22-.31,0,0,0,0,0,0-.01-.17-.09-.31-.22-.42,0,0,0,0,0,0-.04-.04-.07-.09-.11-.13-1.03-2.09-2.45-3.95-3.44-6.06-1-2.15-2.08-4.27-3.17-6.38-.65-1.26-1.29-2.52-1.93-3.78-.1-.19-.09-.36-.05-.54.02-.1.04-.21.18-.2.13,0,.16.09.2.2.35,1.1.92,2.11,1.47,3.12.91,1.64,1.7,3.34,2.54,5.02.91,1.83,1.77,3.68,2.87,5.41.85,1.35,1.65,2.73,2.51,4.07.86,1.34,1.78,2.66,2.66,3.99.75,1.13,1.5,2.27,2.27,3.38,1.17,1.69,2.36,3.36,3.4,5.13,1.22,2.07,2.31,4.21,3.33,6.39.11.23.26.44.43.73.61-1.02,1.22-1.96,1.74-2.94.8-1.49,1.51-3.02,2.3-4.52.84-1.61,1.72-3.2,2.59-4.79.78-1.43,1.7-2.78,2.63-4.12,1.65-2.38,3.21-4.83,4.58-7.39.75-1.4,1.55-2.77,2.25-4.19.76-1.55,1.63-3.05,2.46-4.57.51-.94.99-1.91,1.49-2.86.43-.83,1.17-1.41,1.54-2.27-.17-.12-.37-.06-.55-.05-1.92.1-3.85.03-5.75-.12-2.01-.15-4.03-.11-6.04-.2-1.28-.06-2.56-.09-3.83-.07-1.36.03-2.7.24-4.05.42-.73.1-1.48.15-2.22.18-.72.03-1.44.19-2.15.18-.69-.02-1.33.2-2.02.17-1.24-.06-2.46.28-3.71.23-1.12-.04-2.22-.23-3.34-.26-2.57-.08-5.15,0-7.73.01-.38,0-.76,0-1.14-.03-.17-.01-.36-.05-.33-.3.03-.23.22-.16.37-.18.65-.08,1.29.19,1.91.17.96-.04,1.92-.06,2.88-.16.68-.07,1.36.08,2.06.07,1.36-.02,2.71-.03,4.07.22.88.16,1.83.02,2.74,0,.7-.02,1.4-.18,2.08-.22,1.01-.06,2-.25,3-.27,1.65-.03,3.29-.21,4.94-.4,1.43-.16,2.88-.32,4.33-.24.38.02.74.14,1.13.08.38.03.76.06,1.14,0,.07,0,.14-.02.21-.03.1.05.2.06.31.02.07,0,.14,0,.21,0,.03,0,.07,0,.1,0,.73.12,1.47.02,2.2.05.41.01.82-.01,1.23-.02,2.9.26,5.81.46,8.73.22h0c.06.19-.06.31-.14.46-.54.96-1.4,1.7-1.9,2.69-.73,1.42-1.41,2.88-2.2,4.26-1.08,1.89-2.03,3.85-3.04,5.78-.09.04-.09.12-.09.2-.03.04-.05.08-.08.11-.02.03-.02.06-.03.09-.66.86-1.16,1.81-1.57,2.81,0,0,0,0,0,0-.2.12-.27.32-.31.53,0,0,0,0,0,0-.03.04-.06.08-.09.11Z"/>
    <path class="cls-3" d="M145.1,404.7c-.16-.02-.23-.14-.28-.27-.16-.36-.28-.75-.43-1.12-.22-.53-.56-1.02-.9-1.49-.65-.88-1.15-1.84-1.56-2.86-.52-1.3-1.29-2.49-1.85-3.76-.76-1.7-1.76-3.27-2.64-4.91-.8-1.48-1.66-2.92-2.48-4.38-.61-1.09-1.23-2.19-1.8-3.31-.69-1.35-1.64-2.52-2.47-3.76-.39-.58-.9-1.07-1.3-1.66-.65-.97-1.12-2.04-1.67-3.07-.25-.47-.55-.91-.83-1.36-.11-.18-.34-.33-.13-.58.2-.23.34-.02.52.06.48.2,1.02.16,1.52.18,1.91.06,3.82-.17,5.72-.37.94-.1,1.87-.18,2.83-.07.84.1,1.7-.06,2.55-.05,1.53,0,3.04.39,4.58.29,1.91-.12,3.81.15,5.72.19.94.02,1.86-.09,2.79-.18,1.66-.16,3.33-.3,5-.34,1.93-.05,3.87-.17,5.8-.26.18,0,.37-.05.47.12.11.19-.05.32-.16.45-.53.65-.94,1.37-1.28,2.13-.73,1.65-1.84,3.07-2.83,4.56-1.22,1.84-2.55,3.6-3.52,5.6-.84,1.74-2,3.31-2.91,5.03-.54,1.02-1.01,2.08-1.51,3.12-.67,1.4-1.38,2.79-2.08,4.17-.9,1.77-1.83,3.53-2.94,5.18-.55.82-1.09,1.64-1.63,2.45-.08.11-.14.24-.3.26ZM147.88,372.82c-.22-.09-.44-.1-.67-.01-.92-.14-1.85-.23-2.79-.17-1.35.09-2.69-.15-4.03-.2-1.64-.06-3.28-.03-4.92.08-1.31.09-2.62.2-3.92.28-.71.04-1.44.14-2.12,0-.67-.14-1.3-.23-1.97-.02.32.53.69,1.02.95,1.56.78,1.63,1.73,3.15,2.83,4.58.86,1.12,1.68,2.28,2.38,3.52,1.14,2.04,2.18,4.14,3.43,6.13.19.3.44.55.59.89.35.78.71,1.57,1.17,2.3,1.28,2.01,2.26,4.19,3.25,6.33.91,1.97,2.14,3.72,3.11,5.69.77-.83,1.27-1.78,1.85-2.67,1.88-2.89,3.38-6,4.86-9.1.68-1.43,1.34-2.88,2.15-4.23.94-1.57,1.83-3.16,2.73-4.75.98-1.74,2.16-3.36,3.33-4.97,1.34-1.84,2.23-3.94,3.44-5.92-.25,0-.48,0-.7,0-1.12.05-2.25.09-3.36.17-1.54.12-3.09-.03-4.64.19-1.36.2-2.74.4-4.13.37-.93-.03-1.87-.02-2.8-.03Z"/>
  </g>
  <text class="cls-1" transform="translate(198.92 415.12)"><tspan class="cls-8" x="0" y="0">D</tspan><tspan class="cls-6" x="18.71" y="0">igi</tspan><tspan class="cls-7" x="47.77" y="0">t</tspan><tspan x="56.96" y="0">al</tspan><tspan class="cls-5" x="77.28" y="0"> </tspan><tspan class="cls-9" x="83.34" y="0">B</tspan><tspan class="cls-10" x="98.56" y="0">e</tspan><tspan x="112.46" y="0">e</tspan></text>
</svg>