<?xml version="1.0" encoding="UTF-8"?>
<svg id="Layer_1" data-name="Layer 1" xmlns="http://www.w3.org/2000/svg" viewBox="0 0 634.49 353.95">
  <defs>
    <style>
      .cls-1 {
        font-size: 30.8px;
        letter-spacing: 0em;
      }

      .cls-1, .cls-2, .cls-3 {
        fill: #5113f9;
      }

      .cls-1, .cls-3 {
        font-family: Hand-Of-Sean, 'Hand Of-Sean';
      }

      .cls-4 {
        fill: #c9da2d;
      }

      .cls-3 {
        font-size: 35.61px;
        letter-spacing: 0em;
      }
    </style>
  </defs>
  <path class="cls-2" d="M383.12,192.07c13.91,3.59,29.19-3.89,32.63-18.32,1.74-7.3,1.55-16.42-1.32-23.41s-9.77-12.05-16.48-15.7c-7.46-4.05-15.77-7.11-24.37-6.79-7.87.29-15.24,3.33-21.99,7.21-6.06,3.48-14.12,7.53-17.31,14.12-3.39,7.02.27,14.83,4.12,20.83,9.64,15.05,26.36,30.26,45.51,27.46,3.67-.54,2.11-6.12-1.54-5.58-17.02,2.49-33.22-14.04-40.7-27.68-2.1-3.84-4.13-8.41-2.04-12.67,1.76-3.59,5.68-5.76,8.93-7.84,6.44-4.12,13.2-8.19,20.82-9.59,8.7-1.6,17.26,1.09,24.91,5.14s14.5,8.95,16.08,17.9c1.38,7.81,1.07,17.84-4.75,23.86-5.32,5.5-13.7,7.34-20.96,5.46-3.61-.93-5.15,4.65-1.54,5.58h0Z"/>
  <path class="cls-4" d="M271.16,113.72c-15.05,15.29-27.8,32.72-37.74,51.75l6-3.44c-5.48-.05-10.03-4.48-14.37-7.34-5.24-3.46-11.13-6.09-17.55-5.45-16.66,1.65-20.17,19.11-31,28.46,3.64.47,7.28.94,10.92,1.41-2.5-3.49-4.32-7.03-5.5-11.16-1.28-4.49-6.23-6.21-10.21-4.16-14.26,7.36-28.52,14.72-42.78,22.08-7.96,4.11-.93,16.11,7.02,12.01,14.26-7.36,28.52-14.72,42.78-22.08l-10.21-4.16c1.49,5.21,3.74,10.07,6.9,14.48,2.73,3.81,7.3,4.53,10.92,1.41,4.93-4.26,8.17-9.85,11.69-15.24,2.76-4.22,6.98-10.04,12.75-9.19,4.61.69,8.84,4.78,12.59,7.24,4.89,3.22,10.11,5.52,16.05,5.58,2.35.02,4.89-1.32,6-3.44,9.42-18.04,21.29-34.43,35.56-48.93,6.28-6.38-3.54-16.23-9.83-9.83h0Z"/>
  <path class="cls-4" d="M138.62,186.57c6.11-7.19,12.87-13.86,20.39-19.58,2.35-1.79,5.27-4.83,8.12-3.89,1.79.59,3.26,2.55,5.18,3.24,2.12.76,4.07.88,6.28.57,7.13-.98,14.29-6.36,19.55-11.03,5.98-5.3,10.78-11.99,14.02-19.28h-12.01c4.86,7.8,10.77,15.53,20.53,16.79,10.7,1.38,16.11-6.25,21.01-14.39,11.85-19.68,23.71-39.36,35.56-59.05,4.63-7.69-7.39-14.69-12.01-7.02-9.14,15.18-18.29,30.37-27.43,45.55-2.2,3.66-4.4,7.31-6.6,10.97-1.67,2.78-3.22,6.92-5.71,9.1-5.29,4.65-11.13-5.42-13.34-8.97-2.5-4.01-9.78-5.02-12.01,0-3,6.76-7.21,12.74-12.97,17.44-2.45,2-6.34,5.24-9.52,5.86-2.02.4-.32.26-1.73-.44-1.91-.95-3.13-2.44-5.26-3.15-8.75-2.91-16.57,3.89-22.9,8.94-6.94,5.53-13.25,11.74-18.99,18.5-5.77,6.78,4.02,16.66,9.83,9.83h0Z"/>
  <path class="cls-4" d="M176.74,257.42c-4.31,1.8-7.29,5.37-6.85,10.29.47,5.26,4.41,9.51,9.85,9.68,4.44.14,8.7-2.38,10.81-6.28,2.43-4.49,1.62-9.83-.78-14.13-1.16-2.09-3.61-3.5-6-3.44-3.44.08-6.64,1.77-8.31,4.86s-.9,7.72,2.49,9.51,7.66.92,9.51-2.49c-.91,1.25-2.15,1.92-3.69,2.03l-6-3.44c.37.72.4.73.11.03.11.29.2.59.27.9.12.51.11.4,0-.32-.02.72,0,.82.05.29.09-.52.05-.43-.12.27.1-.5.35-.92.72-1.27-.7.87.49-.28,1-.43-.62.16-.63.19-.02.08.45-.11.9-.08,1.35.09.86.27,1.67.92,2.14,1.7.21.35.39,2.65.48,1.54-.17,2.12-1.34,3.12-3.3,3.93,3.34-1.4,6.12-4.67,4.86-8.55-1.04-3.21-4.96-6.36-8.55-4.86h0Z"/>
  <path class="cls-4" d="M218.77,274.04c-4.31,3.95-4.84,10.79-1.68,15.6,3.63,5.53,11.29,6.81,16.91,3.63s8.06-10.18,6.27-16.31c-1.95-6.69-7.84-10.67-14.57-11.2-3.75-.3-6.95,3.41-6.95,6.95,0,4.01,3.19,6.66,6.95,6.95.01,0,1.01.5,1.04.58.25.57-.04,2.03.42.94.13-.13.3-.19.49-.19-.84.22-.93.26-.27.12.25.25.76.25,1.07.59.43.47.31.82.49,1.33,0-.85,0-.89,0-.11-1.06,1.48-1.17,1.8-.34.94,2.77-2.54,2.57-7.26,0-9.83-2.76-2.76-7.06-2.55-9.83,0h0Z"/>
  <path class="cls-4" d="M258.56,248.19c-4.61,6.13-1.39,15.04,4.73,18.78,5.69,3.47,15.1,5.1,21.37,2.73,7.83-2.96,10.71-12.74,4.71-18.97-5.14-5.34-14.13-7.86-21.02-9.94-8.59-2.6-12.26,10.82-3.7,13.41,3.11.94,6.19,1.98,9.16,3.28,1.44.63,2.96,1.75,4.46,2.16l.96.59c1.04,1.32,1.25.15.65-3.5-.25-.17-2.72.02-3.17-.03-1.21-.14-2.43-.38-3.61-.67-.35-.08-2.46-1.11-2.8-1.07.18.24.16.16-.06-.21-.56,1.56-.45,1.72.32.46,2.26-3,.48-7.77-2.49-9.51-3.56-2.08-7.25-.52-9.51,2.49h0Z"/>
  <g>
    <g>
      <path class="cls-2" d="M451.15,272.17l.02.03c.2-.04.4-.07.59-.1l-.6.07Z"/>
      <path class="cls-2" d="M501.74,231.36c-.63-.61-1.5-.6-2.36-.61-.88,3.24-6.14,7.78-4.78,11.21.04.09.1.17.15.26.18-.28.39-.55.47-.87,2.54-1.4,5.21-7.27,6.52-9.98Z"/>
      <path class="cls-2" d="M445.72,258.49c-2.07,3.4-9.96,8.45-7.36,13.07.49-.31.46-.35.64-.91,1.7-.94,10.66-10.01,8.6-12.12-.69-.22-1.18-.14-1.88-.03Z"/>
      <path class="cls-2" d="M513.38,266.19l-.32-.62c-.73-.23-1.11-.25-1.86-.14-2.45,4.42-14.3,17.9-13.59,22.17,0,0,14.96-19.34,15.77-21.41Z"/>
      <path class="cls-2" d="M506.45,305.95c.11.04.23.04.34.06,3.11-.73,5.03-3.47,6.67-6.14.87-1.42,1.96-3.26,1.71-5l-.59-.65h-1.42c-.73.86-1.85,1.11-2.75,1.75-2.6,1.9-4.36,5.15-5.22,8.26.21.75.47,1.4,1.25,1.72Z"/>
      <path class="cls-2" d="M495.69,254.33c3.56-2.91,7.36-11.95,10.05-16.16,1.02-1.72,4.72-4.81,4.35-6.81-.79-.6-1.13-.38-2.08-.28-3.25,5.18-12.76,17.45-13.01,23.47l.47.25.22-.47Z"/>
      <path class="cls-2" d="M496.08,265.17c0,.09.04.17.07.26.29,0,.47.07.73-.09,2.69-1.42,9.51-15.92,11.82-19.57,1.14-1.81,3.47-3.67,4.15-5.63l-.3-.46-1.39-.26c-2.66,3.23-15.51,22.42-15.08,25.75Z"/>
      <path class="cls-2" d="M496.36,276.88c1.75-1.02,15.47-20.12,16.37-22.46.12-.31.1-.4.11-.69-.71-.64-1.13-.45-2.06-.44-.89,2.1-2.9,4.21-4.26,6.08-2.25,3.07-10.97,14.66-11.01,17.7l.29.36c.26-.19.43-.25.56-.55Z"/>
      <path class="cls-2" d="M135.33,184.84c-1.35,1.65-1.4,3.36-1.23,5.42.18,2.19.89,4.75,2.58,6.21,1,.95,2.12.85,3.37.62,2.59-3.7,1.93-7.68,1.23-11.93-2.02-.35-3.92-.37-5.95-.33Z"/>
      <path class="cls-2" d="M276.88,130.88c.98.32,2.31.1,3.33.02,1.36-3.5,2.41-10.97-1.71-12.92-1.02-.34-2.59-.16-3.65-.1-1.1,3.61-2.29,11.23,2.03,13Z"/>
      <path class="cls-2" d="M207.05,189.08c.72-.04,1.41-.29,2.09-.53,1.93-2.1,2.5-4.95,2.4-7.82-.04-1.2-.27-2.62-1.2-3.44-1.43-1.26-4.42-.82-6.21-.75-1.51,1.56-1.6,3.63-1.62,5.75-.03,2.79,1.31,6.89,4.54,6.8Z"/>
      <path class="cls-2" d="M247.53,167.33c-1.05-.91-2.49-.64-3.76-.57-1.57,1.41-1.78,2.48-1.93,4.57-.24,3.41.13,8.24,2.37,10.97.87,1.14,2.06,1.22,3.36,1.12,2.37-3.05,2.46-7.18,2.05-10.95-.19-1.73-.75-3.97-2.1-5.14Z"/>
      <path class="cls-2" d="M170.78,179.7c-1.25-.99-3.73-.5-5.2-.36-1.08,1.1-1.23,2.05-1.23,3.55-.02,3.4.81,8.03,3.31,10.47,1.13,1.14,2.28,1.19,3.75.84,1.96-2.42,2.04-5.2,1.8-8.26-.17-2.14-.67-4.87-2.42-6.24Z"/>
      <path class="cls-2" d="M163.38,123.95c-1.62-.18-3.57.19-5.21.34-5.02.41-22.24-.28-25.02,4.06.41.79.91.84,1.71,1.09,1.97.62,4.16.16,6.17-.1,4.72-.45,9.45-.79,14.18-1.01,1.99-.21,12.52.58,11.72-2.73-.83-1-2.29-1.52-3.55-1.65Z"/>
      <path class="cls-2" d="M499.57,302.72c.99.32,1.71.12,2.63-.36,1.89-1.02,11.87-11.9,12.66-14.33.21-.65.28-.87.1-1.51-3.55.72-7.19,10.05-13.8,13.15-.34.16.73-1.33,1.43-2.45,2.41-3.84,3.88-8.24,6.23-12.12,1.37-2.26,3.8-4.3,4.65-6.81l-.27-.42-1.45.05c-2.19,4.31-14.35,14.24-14.01,17.6.45.29.49.41,1.01.29,1.31-.28,2.13-1.42,2.77-2.54.35-.61.69-1.29.68-.96-.08,3.65-4.82,7.6-2.65,10.41Z"/>
      <path class="cls-2" d="M281.44,181.64c.56.04,1.14-.01,1.7-.06,2.57-3.38,2.34-7.87,1.89-11.96-.24-2.2-.65-4.29-2.36-5.79-1.27-.53-2.75-.27-4.08-.18-1.62,1.41-1.78,2.83-1.96,4.91-.41,3.77.08,12.49,4.82,13.08Z"/>
      <path class="cls-2" d="M204.62,171.02c.42.27.88.46,1.33.65,1.3-.37,2.9-.66,3.68-1.92,1-1.6-.33-13.17-1.03-15.17-.43-1.74-2.36-1.38-3.7-1.29-1.39.31-2.97.47-4.09,1.44-1.38,2.48-.07,6.86.62,9.52.49,1.9,1.47,5.68,3.19,6.77Z"/>
      <path class="cls-2" d="M280,156.32c.83.15,1.77.06,2.62.01,1.43-1.11,1.85-2.03,2.09-3.81.45-3.36.58-10.06-1.67-12.79-.76-.92-1.67-1.07-2.79-1.12-.88-.04-1.77.04-2.65.09-1.16.75-1.66,1.27-1.99,2.66-1.06,4.24-.62,13.61,4.39,14.96Z"/>
      <path class="cls-2" d="M404.8,283.86c-6.98,8.3-9.92,10.72-8.5,22.54.61.1.75.1,1.28-.28,1.01-.72,2.14-2.87,3.27-3.07.16.58.25,1.08.31,1.68.15,1.38.79,2.88,1.74,3.86.85.34,1.2.52,2.09.1,2.52-1.2,7.44-8.6,6.81-11.61-.43-.46-.5-.64-1.17-.62-2.7.09-5.09,4.48-7.21,4.01-.15-.82-.02-1.06.23-1.83,1.76-2.56,3.52-5.11,4.84-7.96-3.96,3.31-6.67,7.23-9.59,11.48,1.08-3.38,7.94-12.6,8.01-13.32l-.33-.4c-1.56.72-7.18,7.22-7.9,7.07,1.39-3.38,6.69-7.63,6.77-11.12l-.67-.54ZM403.82,305.09c.39-2.34,3.15-4.16,4.86-5.54.27.25.22.37.29.72-1.21,2.58-2.8,4.7-4.75,6.72-.32-.66-.52-1.15-.4-1.9Z"/>
      <path class="cls-2" d="M138.65,115.75c14.01-.12,23.9-2.08,37.39-3.89,3.66-.49,7.17.24,10.6-1.62l.35-.59c-.87-1.17-2.95-1.74-4.36-1.91-1.4-.17-2.91.06-4.3.24-10.63,1.3-20.94,3.58-31.69,3.66-2.83.19-16.11-1.16-16.19,2.92,1.14,1.22,3.41,1.2,4.98,1.24,1.07.02,2.14-.02,3.21-.06Z"/>
      <path class="cls-2" d="M33.94,199.38c.89,0,1.38-.17,2.14-.63,2.09-14.54,3.61-31.27,13.98-42.38,1.3-.24,2.91-.35,3.7-1.59.42-.65.4-.85.36-1.63-.89-1.64-2.76-1.71-4.39-1.65-7.29,3.99-11.01,13.98-13.33,21.77-1.06,4.04-7.31,23.94-2.47,26.11Z"/>
      <path class="cls-2" d="M133.22,100.16c1.12.11,2.33-.1,3.44-.22,8.07-.72,16.25-.37,24.34-.93,11.09-.76,21.98-2.46,32.99-3.95,2.62-.36,9.88,0,11.72-2.1.36-.41.25-.5.24-1.01-.59-.91-1.18-1.24-2.22-1.43-1.23-.22-2.51-.06-3.74.05-6.35.68-12.61,1.93-18.93,2.78-9.07,1.19-18.17,1.93-27.31,2.21-4.9.15-20.05-.72-23.26,2.23l-.1.77c.71.94,1.67,1.47,2.83,1.59Z"/>
      <path class="cls-2" d="M388.94,285.42c-.22,2.78.43,5.52.5,8.28.1,3.76-1.28,14.58.78,17.3.59.07.65.16,1.12-.21,4.02-3.08,1.69-22.07,1.51-27.46,7.37-.45,14.79-1,22.17-.34.06,4.24-.42,23.97,1.9,26.79.94-.63,1.2-2.04,1.43-3.14,1.09-5.28,1.2-21.98-1.76-26.19-1.02-1.45-3.42-1.81-5.03-1.99-3.19-.36-6.59-.4-9.79-.2-3.11.14-6.38.09-9.42.84-2.12,1.83-3.19,3.43-3.42,6.33Z"/>
      <path class="cls-2" d="M134.66,83.86c12.68-1.4,25.33-.76,38.04-1.38,16.89-.81,33.57-2.82,50.35-4.83,4.26-.51,10.59.05,14.26-2.32l.4-.63c-.45-.94-1.08-1.28-2.03-1.66-1.27-.49-2.98-.38-4.31-.18-24.29,3-48.6,5.99-73.1,6.19-6.42.11-25.39-.52-30.45,2.67l-.29.61c.66.94,2.5,1.69,3.59,1.83,1.1.14,2.46-.11,3.55-.32Z"/>
      <path class="cls-2" d="M69.01,90.48c1.65,50.49.81,101.06,2.27,151.54.06,1.25.09,2.63.66,3.75.85.5,1.53.35,2.47.26.79-13.6-.2-27.34-.35-40.95-.31-17.53-.75-156.49-6.99-163.3-1.16,5.63.45,15.08.79,21.18.48,9.17.86,18.34,1.15,27.52Z"/>
      <path class="cls-2" d="M486.67,195.97c.12-.02.24-.05.36-.07.44-.79.46-1.13.24-2.04-.31-1.24-1.07-2.51-1.78-3.54-1.17-1.71-10.46-13.87-11.44-14.33-.55-.26-1.39-.09-2.01-.05-2.49,4.39-15.94,18.06-15.26,21.75.1.5.39.95.66,1.38.86.35,1.17.43,2.08-.02,2.17-1.1,11.53-11.48,11.1-14.22v-.17c.84,1.26,1.01,2.28,1.11,3.79.7,10.3.63,20.76.79,31.09.2,11.23.49,61.14.96,71.39.07,3.87.6,17.13,1.6,17.92,2.25-.88,2.34-7.35,2.41-9.56.46-17.16-.48-34.53-.7-51.71-.24-19.23.16-38.54-.44-57.75-.04-1.33-.01-3.15-.6-4.36-.15-.31-.17-.3-.35-.52,3.6,2.15,6.74,11.67,11.29,11.04Z"/>
      <path class="cls-2" d="M516.9,248.5c.47,13.29,1.09,26.58,1.84,39.86.28,5.55-.05,11.68.86,17.13.18,1.06.38,2.1,1.4,2.53,1.59-1.45,1.68-5.18,1.8-7.22.54-8.98-1.92-70.43-5.32-74.12-2.74-2.73-14.35-1.61-18.34-1.48-3.08.34-7.46.36-9.55,3.1-.96,1.26-.87,3.4-.9,4.92-.28,13.34.95,26.81,1.27,40.15l.39,20.01c.06,3.69-.15,7.54.36,11.2.16,1.12.26,2.53,1.02,3.36,1.96-1.41,2.73-10.09,2.83-12.69.46-10.44-.25-58.35-3.53-64.97,6.01-.41,12.05-1,18.07-.69l6.86.24c1.67,2.91.81,14.64.93,18.67Z"/>
      <path class="cls-2" d="M113.44,51.43c4.23.54,8.86-.23,13.12-.56,50.43-3.2,100.98-5.08,151.5-5.31,3.85-.14,16.24,2.11,18.33-.5.1-1.73-1.33-2.81-2.86-3.03-2.59-.42-5.59-.08-8.24-.13-7.6-.17-15.2-.48-22.8-.19-49.55.53-99.77,3.03-149.26,5.84-.86.13-1.89.37-2.52,1.02-.41.41-.29.58-.32,1.14.92,1.22,1.53,1.54,3.04,1.73Z"/>
      <path class="cls-2" d="M307.25,123.97c1.47,20.8.58,41.63.89,62.46.1,4.17-.08,8.78.81,12.85.31,1.4.86,3.32,2.45,3.54.34.03.74-.07,1.08-.13,2.33-9.48,1.1-21.62.96-31.42-.55-38.73-2.16-77.78-7.86-116.1-.42-2.82-.85-9.62-2.23-11.94-.57-.97-1.7-1.38-2.7-1.63-.77,5.04,2.6,27.47,3.2,34.05,1.4,16.09,2.53,32.19,3.4,48.32Z"/>
      <path class="cls-2" d="M276.73,104.38c-.3-.23-.66-.41-1-.58-8.11,8.78-14.92,18.65-22.56,27.84-6.93,8.34-16.35,18.03-22.41,26.78-9.21-3.22-19.98-13.76-30.18-8.67-6.46,3.23-17.55,18.84-22.95,24.97-6.39-2.2-12.39-4.61-18.25-8.05-5.48,3.3-18.17,10.98-22.02,15.62-.18.73-.04.83.26,1.49,1.33.44,2.44-.08,3.64-.72,3.01-1.59,5.87-3.76,8.69-5.69,3-2.19,6.02-4.34,8.99-6.56,6.07,3.5,12.86,6.68,19.7,8.09,8.59-7.77,13.9-18.71,22.79-26.03,2.56-.49,4.91-.85,7.49-.36,5.3,1.01,19.42,10.98,23.29,8.97,3.34-1.73,6.38-7.17,8.62-10.26.01,3.76-.2,8.2,2.57,11.11,1.14,1.28,2.68,1.71,3.9.27,1.99-2.26,2.02-8.07,1.7-10.96-.1-.91-.34-1.84-1.07-2.42-1.2-.96-3.35-.65-4.78-.61,5.98-7.37,31.73-35.92,34.41-42.53-.09-.84-.16-1.17-.83-1.7Z"/>
      <path class="cls-2" d="M290.75,72.19c.28-.98.2-1.81-.03-2.79-.87-3.71-4.49-16.79-7.41-18.69-3.66-.66-13.29,5.67-16.76,7.55-1.06.58-1.99.97-2.63,2.07.03.89.12,1.22.77,1.83.35.33.79.59,1.19.85,2.53,1.09,5.08,2.13,7.65,3.12-5.19,10.84-11.01,21.34-17.42,31.45-4.04,6.24-8.62,12.16-12.46,18.53-5.81,9.66-9.61,20.55-17.41,28.77-6.05-2.85-12.08-6.44-17.56-10.33-2.81-2-5.49-4.35-8.4-6.16-1.18-.8-2.98-1.24-4.03,0-1.99,2.28-5.21,11-7.12,14.41-3.75,6.72-8.26,12.93-12.87,19.04-6.01-3.22-11.93-6.5-17.74-10.1-5.14,4.3-9.37,9.6-14.32,14.13-3.19,2.91-8.83,6.22-11.36,9.36-.54.67-.6.95-.53,1.81,4.77,3.59,22.51-17.24,26.69-20.73,3.09,1.94,15.05,9.97,18,9.09,4.92-1.47,18.36-27.66,21.39-33.7,5.11,3.78,23.81,18.27,29.36,15.87,5.62-2.04,15.58-24.24,19.28-30.32,4.67-7.69,10.19-14.85,15.05-22.42,5.38-8.39,10.02-17.51,14.18-26.61,2.82,1.15,12.25,6.92,14.49,3.95ZM275.39,61.87c-.82.59-1.42.34-2.32.17l-1.11-.66c-1.42-2.09,4.96-4.29,6.27-4.97l.26.09.13.46c-.76,1.69-1.69,3.82-3.23,4.92ZM283.23,66.81c-1.77-.71-3.49-1.58-5.22-2.39l4.52-8.49c1.62,3.95,2.76,8.19,4.05,12.26l-3.35-1.38Z"/>
      <path class="cls-2" d="M458.78,310.61c-26.39,3.01-53.39,1.18-79.87.75-1.79.04-3.5.13-5.11,1.02-.5.71-.49.64-.37,1.51,1.59,1.83,4.52,2.16,6.75,2.3,6.84.41,13.88.02,20.74.05,13.03.06,26.03.25,39.06-.11,11.18-.31,22.34-1.17,33.52-1.47,16.91-.44,33.86.27,50.75-.73,1.91-.23,4.83-.64,5.93-2.45-.13-.56-.08-.61-.57-.89-1.28-.74-2.99-.89-4.43-.96-8.06-.39-16.34.35-24.42.42-13.45.11-26.84-.26-40.28.52,3.93-5.34,2.39-23.05,2.5-30.24-.17-5.09.78-24.34-2.05-27.33-3.62-2.78-19.66-2.16-24.29-1.38-1.23.21-2.42.56-3.14,1.68-1.16,1.79-1.15,4.53-1.24,6.62-.36,8.8.48,17.87.72,26.69.26,4.04-.86,20.17,1.53,22.15.96-.26,1.35-.79,1.84-1.7.32-.59.48-1.05.47-1.73,1.86,1.41,2.13,4.12,4.95,3.93.85-.05,1.44-.3,2.13-.8.35-.63.39-.96.47-1.68.45-3.73,5.81-5.06,5.81-9.42.99,3.41-4.19,7.26-1.3,9.42,2.73.22,7.03-3.71,7.4-6.48-.36-.43-.29-.54-.87-.59-1.63-.15-2.45,1.25-3.8,1.81,1.37-1.79,2.38-5.39,2.18-7.68-.04-.52-.13-.53-.49-.88-2.32.62-4.48,4.43-6.71,5.81,2.36-2.61,4.72-5.79,5.12-9.46l-.21-.52c-.92.14-1.97,1.25-2.53,2.01-1.24,1.68-1.67,4.06-3.15,5.52-.8-.24-1.46-1.32-2.23-.88-.46.26-1.03,1-1.4,1.4,2.12-5.31,5.87-8.95,7.84-13.39.31-.7.41-.78.17-1.5-1.34.04-2.51,1.17-3.38,2.15-3.09,3.47-5.11,8.09-6.83,12.4-.72,1.79-1.34,4.09-2.55,5.58-2.17-5.58,7.69-17.42,7.43-21.12,2.78-.71,5.55-5.37,6.81-7.87l-.49-.87c-.19.04-.37.09-.53.17-2.15,1.15-3.86,3.16-5.52,4.95-1.34,3.78-5.86,10.85-8.71,13.53,1.13-1.89-.07-4.67.89-6.23.56-.91,1.71-1.45,2.32-2.38,1.27-1.92,2.16-4.2,3.37-6.18,1.66-2.95,6.59-8.75,6.54-11.84l-.5-.17c-5.85,3.6-7.85,12.9-12.8,17.85.04-.07.07-.13.11-.2,2.37-4.9-1.56-20.03.29-24.35,1.67-3.59,17.27-2.64,21.27-2.91.72.9.75,1.86.85,2.97,1.09,12.34.36,25.1.34,37.5,0,3.63.5,11.37.1,14.55-.06.46-.21.74-.42,1.15Z"/>
      <path class="cls-2" d="M527.08,328.78c-146.39-3.28-292.61,4.73-438.93,7.96-1.26.02-3.08-.14-4.05.82-.42.41-.28.58-.29,1.14.76,1.08,1.68,1.5,2.93,1.73,4.53.84,10.2-.2,14.78-.52,3.67-.26,7.33-.31,11.01-.35,79.99-.03,159.81-5.52,239.74-7.53,57.39-1.18,133.27-1.03,190.89-.67,1.71-.1,3.36-.35,4.97-.94l.42-.49c-1.15-1.02-3.27-1.18-4.74-1.25-5.53-.25-11.19.18-16.75.1Z"/>
      <path class="cls-2" d="M105.07,100.36c1.96,31.05,5.3,62,10.01,92.73.77,5.31.97,13.57,3.08,18.3.29.64.47,1.01,1.14,1.22,4.23,1.33,19.87.04,24.99-.22,42.96-2.22,85.72-7.12,128.7-8.68,7.05-.3,14.15-.4,21.18-1.06,4.49-.42,9.49-.85,13.76-2.43.08-1.47.33-3.02-.76-4.18-.9-.96-2.3-1.13-3.53-1.08-3.15.12-6.36,1.46-9.46,2.07-3.43.67-7.18.78-10.67,1.02-53.73,2.34-107.28,8.91-161.05,10.34-7.04-46.32-12.97-92.86-15.47-139.71-.37-5.57-.26-13.57-1.38-18.77-.22-1.02-.63-1.64-1.38-2.32-2.11,5.44-.84,15.64-.66,21.69.35,10.37.85,20.72,1.5,31.07Z"/>
      <path class="cls-2" d="M279.15,249.85c-8.3-2.82-13.4-.64-13.6,9.03-9.49,7.19-19.92,16.56-31.54,19.47-5.12-3.78-10.08-4.53-14.27,1.07-10.44-.43-19.51-3.71-28.33-9.42,1.96-5.4-.04-10.23-5.47-11.95-7.06-2.24-12.53,2.66-13.83,9.72-13.4,3.52-26.35,8.82-38.46,15.72-2.06,1.23-6.74,2.86-6.75,5.76.34.54.38.72,1.02.89,2.01.48,3.98-1.4,5.57-2.44,12.3-7.63,25.77-13.24,39.75-16.53,1.94,2.78,4.23,5.32,7.67,5.89,3.68.59,6.65-1.3,8.94-4.13,7.93,6.57,18.35,10.15,28.5,10.07-3.23,8.17,7.74,12.47,13.61,9.1,1.78-1.02,3.01-2.7,3.56-4.72.5-1.87.24-3.82.08-5.72,11.87-4.42,21.33-11.85,31.51-19.31,2.39,2.13,4.61,3.28,7.84,3.01,6.46-.6,10.99-6.69,7.52-13,6.48-5.63,12.84-11.1,18.68-17.47,12.36-13.47,25.15-34.07,42.11-41.1-.86,2.14-2.29,4.88-1.98,7.24.36.74.63,1.03,1.35,1.4.82-.01,1.17-.02,1.82-.63,2.26-2.16,4.08-10.57,4.04-13.74.23-2.42-2.82-2.59-4.5-2.45-3.46.22-11.61-.74-13.68,2.61.08.49,0,.54.4.87,2.26,1.78,7.75,1.12,10.42,1.07-13.56,6.91-23.35,18.66-32.8,30.52-8.77,10.68-18.02,21.11-29.17,29.19ZM188.41,267.06c-.17,2.89-2.27,4.73-4.52,6.08-2.4.27-5.13-.55-6.48-2.74-.74-1.24-.93-2.75-.62-4.17.55-2.56,2.19-3.97,4.22-5.34,3.44-.05,7.61,2.11,7.41,6.17ZM232.14,286.36c-.56,1.66-1.71,2.41-3.13,3.16-8.18.5-9.46-5.41-3.96-10.81.94-.11,1.85-.19,2.77.11,2.9.95,5.35,4.36,4.32,7.55ZM279.93,257.44c-.26,1.59-1.66,2.63-2.8,3.55-.8.28-1.61.55-2.45.62-2.75.32-5.52-1.29-5.52-4.41-.02-2.11,1.15-3.47,2.48-4.87,2.92-.3,8.78,1.12,8.29,5.1Z"/>
      <path class="cls-2" d="M69.13,255.54c-15.69-3.1-31.35,1.42-44.11,10.91v2.63c8.09-7.65,19.32-11.36,30.05-12.35,21.07-2.1,38.44,11.52,39.46,33.92.39,10.96-5.21,20.89-12.34,28.56-6.45,6.81-15.15,11.26-24.29,12.41-10.33,1.28-21.8-.98-29.55-8.57-7.81-7.69-9.58-18.92-10.03-29.58h-1.99c-.89,10.5,2.83,23.27,7.98,31.58,5.64,9.09,14.64,14.68,24.68,16.93,10.95,2.46,22.84,1.24,32.37-5.15,8.21-5.51,15.47-13.43,17.55-23.61,4.26-22.5-6.03-52.5-29.78-57.66Z"/>
      <path class="cls-2" d="M58.67,292.97c2.88-3.59,14.91-16.87,13.55-21.03-3.13-.34-13.44,15.63-16.61,18.99v6.4c.5-.49.92-1.09,1.35-1.65.57.36,1.15,1.16,1.45,1.78.91,1.9-.57,3.45-2.14,4.22-2.04,1.1-3.69,1.04-5.84.36-1.06-.72-2.11-2.3-2.29-3.67h-2.65c.24,1.6.31,3.42,2.05,5.22,1.47,1.53,3.61,2.26,5.66,2.29,4.53.1,8.63-3.38,8.39-8.27-.06-2.02-1.58-3.38-2.91-4.64Z"/>
      <path class="cls-2" d="M47.56,267.09c-.2.98-.28,1.58,0,2.55.62.81,1.15.98,2.1,1.24.24-.99.54-1.78.12-2.76-.73-.6-1.31-.79-2.21-1.02Z"/>
      <path class="cls-2" d="M38.16,315.07c-1.37,1.07-3.11,2.16-4.01,3.68l.06.76c.47.31.69.49,1.25.62,1.55-1.08,3.47-2.01,3.95-3.99-.43-.64-.57-.72-1.25-1.06Z"/>
      <path class="cls-2" d="M54.55,320.84c-.16,2.61-.68,6.07,2.39,7.04.09-2.21.54-4.62-.95-6.42-.48-.24-.93-.49-1.45-.61Z"/>
      <path class="cls-2" d="M84.06,298.64c-1.2.35-2.5.6-3.4,1.57l-.06.64c1.14.8,2.61.46,3.9.29,1.2-.42,2.37-.7,3.25-1.7l-.09-.54c-1.13-.59-2.39-.36-3.61-.26Z"/>
      <path class="cls-2" d="M71.6,315.02c.13,2.21,1.04,4.21,2.66,5.7.95.9,2.13,1.66,3.45,1.25.11-3.11-3.27-6.47-6.11-6.94Z"/>
      <path class="cls-2" d="M85.14,279.53l-.03-.63c-.58-.37-.85-.48-1.56-.51-2.54,1.13-6.46,2.35-8.26,4.58l.11.6c.4.16.81.36,1.23.42,2.72-.84,6.63-2.09,8.5-4.46Z"/>
    </g>
    <text class="cls-3" transform="translate(99.8 41.61) rotate(-4.44)"><tspan x="0" y="0">Data </tspan></text>
    <path class="cls-4" d="M346.75,168.34c10.58,8.52,19.94,18.33,27.76,29.44,2.34,3.33,8.6,3.53,9.53-1.25,3.91-20.07,13.99-38.01,29.15-51.74,4.99-4.52-2.41-11.87-7.38-7.38-16.36,14.81-27.61,34.67-31.83,56.34l9.53-1.25c-8.34-11.85-18.1-22.46-29.39-31.55-5.18-4.17-12.61,3.16-7.38,7.38h0Z"/>
    <path class="cls-2" d="M602.97,131.02c-.34-.76-.4-.89-1.1-1.38-1.84.47-2.39,2.34-3.93,3.33-.46-1.13-12.29-12.36-14.97-16.16-5.61-7.96-11.2-17.77-15.92-26.38-4.03-7.34-9.57-19.19-15.14-25.02,1.4-.83,2.65-1.65,3.18-3.32-.23-3.27-6.87-14.51-9.79-16.32-1.92,2.19-8.13,5.36-11,6.12-2.03-1.29-4.56-2.1-6.79-2.94-2.46-.93-5.3-2.16-7.91-2.4-4.62-.44-17.02,2.8-22.89,3.25-4.29.33-8.84-.86-13.04.18-6.43,1.57-14.18,16-18.32,21.61-3.49,5-7.43,9.73-10.48,15.03-1.16,2.02-2.2,3.95-1.69,6.4.45,2.19,3.04,3.25,3.5,5.05-1.21,1.75-4.53,3.22-6.33,4.36,0,0-15.41,9.73-15.41,9.73-3.06,1.92-6.41,3.72-9.19,6.06-5.36,4.5-8.76,10.47-12.94,16.02-1.6,2.13-5.42,5.43-5.41,8.11.54.79.74,1,1.69,1.17,2.74.49,23.87-5.13,26.97-6.49,4.18-1.84,20.3-11.28,23.49-14.19.28-.26.44-.5.65-.82,2.97,4.9-4.71,17.67,2.88,19.76,4.1,1.03,9.16-3.36,10.58-7.14,1.11.33,2.35.53,3.19,1.38.38,1.66.51,3.99,1.54,5.32.87.41,1.32.56,2.29.21,2.05-.75,3.39-1.8,4.37-3.84,30.97,9.89,27.64,28.73,68.19,26.9,4.42,1.66,8.48,6.11,12.25,8.99,1.75,1.33,3.62,2.35,5.45,3.55-.16,4.05-5.26,4.84-1.25,9.26,2.41,2.66,5.26,4.97,7.91,7.37,5.25,4.74,10.58,9.42,15.72,14.28,4.13,3.9,8.31,9.55,12.81,12.72.78-.1.82-.01,1.31-.63.06-2.22-2.58-4.97-3.96-6.47-4.82-5.25-27.78-26.83-33.31-28.51,7.72-3.62,12.55-15.08,16.91-22.32,5.47-9.71,12.07-19.02,14.8-30.05,2.58,1.53,5.18,3.51,7.48,5.48,2.31,1.88,5.94,6.26,9.11,5.29l.16-.7c-1.83-4.41-11.53-9.54-15.68-11.84ZM542.76,50.37c.51-.05,1.1-.24,1.56.04,2.12,1.3,4.59,6.6,5.12,9.06.27,1.27.14,1.9-.5,2.93-.93.6-1.59.55-2.66.46-.61-2.53-5.02-8.89-7.15-10.26,1.3-.45,2.69-1.17,3.63-2.23ZM517.35,49.33c3.77-.61,10.19,2.14,13.03,4.73-.84,1.73-4.41,3.27-6.05,4.05-2.29-1.42-4.8-2.03-7.37-2.62-4.72-2.34-10.78-2.66-15.93-3.33,5.43-.53,11.06-1.31,16.31-2.84ZM457.58,90.19c2.01-5.01,6.41-9.7,9.42-14.15,4.14-6.14,7.73-13.27,12.85-18.6,1.97-2.05,3.9-3.18,6.47-4.29,5.58-.84,30.53,3.72,35.03,6.51-.17.32-.1.25-.37.49-1.84,1.64-4.37,2.88-6.48,4.15-9.97,6.01-13.8,6.14-25.08,5.73-.05-.71-.17-1.28-.41-1.95-.37-1.02-.77-2.03-1.75-2.48-1.73,1.38-.22,3.56-.8,5.48-.02.06-.04.13-.07.19-.4,2.15-4.02,4.5-5.78,5.47-.65,1.7-11.65,12.54-13.82,14.59-1.7,1.6-3.02,2.45-5.43,2.28-1.56-.11-2.76-.61-3.81-1.82-.19-.74-.29-.85,0-1.59ZM494.14,75.92c-1.05,2.16-9.51,6.2-11.8,7.05-1.5,1.67-3.97,2.16-6.02,2.74,3.04-1.4,10.19-7.5,10.93-10.73,2.24-.15,4.71.43,6.9.93ZM432.27,133.33c-1.9.32-3.31-1.98-4.06-3.5-1.3-2.7-2-5.49-1.07-8.39.39,0,.79.05,1.17.09,1.27,1.79.83,4.58,1.66,6.58.7,1.69,2.4,3.17,3.32,4.78l-1.02.43ZM437.14,131.2c-.52-1.81-2.91-2.77-3.79-4.55-1.08-2.18-.97-5.76-1.55-8.23,4.41-1.68,12.61-8.31,17.4-11.15,10.28-6.11,20.76-11.88,31.07-17.95,12.36-7.38,24.65-14.89,36.87-22.52,5.61-3.48,15.3-8.29,19.93-12.27.58.02.99-.02,1.38.51,1.32,1.8,4.13,7.46,3.96,9.58-1.68,1.76-4.31,2.81-6.37,4.05-3.41,2.01-6.8,4.07-10.17,6.18-16.04,9.93-32.52,19.47-48.2,29.99-4.88,3.27-37.13,26.79-40.53,26.36ZM505.98,96.01c3.07-1.63,6.48-3.23,8.98-5.75l.94.21c.63,1.18.63,2.55.61,3.87-.04,3.64-.42,11.43-2.93,13.98l-.5-.02c-.91-1.9-4.58-10.08-7.11-12.29ZM491.6,107.95c-.21,1.16-.59,1.57-1.41,2.29-.71-1.64-1.08-2.63-.55-4.38.49-.06.89-.03,1.38.04.42.7.74,1.16.58,2.04ZM469.2,134.3c-.5.95-.96,1.46-1.81,2.09-.26.72-.59,1.11-1.3,1.42-.72.31-1.13.14-1.77-.2-1.6-2.85,0-5.59-.73-8.51,1.34.23,3.92,1.79,4.84,2.82.74.82.82,1.33.78,2.38ZM596.16,136.82c-1.57,4.57-16.72,28.86-20.48,30.86-.82-1.4-13.75-9.39-15.64-9.77-3.4-.68-7.56.42-11.05.57-7.81.34-16.93-2.06-24.22-4.82-4.18-1.59-7.94-4.13-11.77-6.44-10.27-6.2-17.47-10.98-29.2-14.06-3.57-2.35-16.49-3.86-17.44-9.62-.21-1.37-.02-2.77.79-3.91,5.24-7.35,24.11-1.01,31.66-.33,1.55.14,3.08-.02,4.62-.21-8.24-1.45-15.9-5.43-24.19-6.82,2.45-.65,5.98-2.37,7.58-4.43.85,1.09.77,2.4,1.23,3.67.38,1.05,1.05,2.5,2.13,2.9.79.29,1.66-.03,2.36-.41,1.26-.69,1.94-1.67,2.37-3.07.62-2.15,1.15-6.19-.25-8.11,1.99-2.19,5.63-2.07,7.16-4.95,2.23,1.1,9.89,12.1,9.83,14.33-.11.72-.36,1.41-.68,2.06-1.43,2.9-4.8,5.43-4.8,5.43,9.28-2.14,12.8-13.82,12.79-22.55,0-2.8-.44-5.85-2.42-7.91,4.41-2.39,31.59-18.74,33.04-22.22.49-.02.96.01,1.44.05,2.11,2.17,10.62,20.53,12.75,24.68,6.23,11.85,12.62,23.93,21.76,33.66,1.84,1.92,9.98,8.93,10.75,10.23.03.42-.01.8-.15,1.19Z"/>
  </g>
  <text class="cls-1" transform="translate(336.49 229.88)"><tspan x="0" y="0">Decisions</tspan></text>
</svg>