<?xml version="1.0" encoding="UTF-8"?>
<svg id="Layer_1" data-name="Layer 1" xmlns="http://www.w3.org/2000/svg" viewBox="0 0 605.92 490.99">
  <defs>
    <style>
      .cls-1, .cls-2 {
        fill: #c9da2d;
      }

      .cls-3 {
        fill: #5113f9;
      }

      .cls-2 {
        font-family: Hand-Of-Sean, 'Hand Of-Sean';
        font-size: 38px;
        letter-spacing: 0em;
      }
    </style>
  </defs>
  <g>
    <path class="cls-1" d="M211.43,344.54c.79.35.92.35,1.77.23,1.03-.71,1.44-1.84,1.97-2.94-.4-1.54-.93-3.06-1.41-4.57l32.06,7.33c-13.61,5.34-27.06,11.13-40.84,16.05-13.82,4.94-28.19,9.48-42.33,13.42-5.58,1.55-11.25,2.78-16.84,4.32-7.57,2.09-14.95,4.72-22.57,6.68-12.59,3.03-26.91,6.24-39.87,5.47-11.25-17.34-17.77-36.53-24.69-55.84-4.83-13.47-9.72-26.99-13.04-40.93-1.95-8.2-3.29-16.67-4.33-25.04-.64-5.14-.88-10.48-2.07-15.52-.45-1.89-1.06-3.31-2.09-4.95,9.99-5.01,20.46-8.05,31.13-11.22,21.66-6.44,42.98-11.26,65.1-15.7,9.83-1.97,19.8-4.51,29.78-5.47.58.01,1.21,0,1.78.11,3.9.68,6.01,6.41,7.29,9.73,4.57,11.91,5.7,24.91,8.98,37.2,1.85,6.92,4.29,13.7,6.6,20.48,2.7,7.93,5.32,15.9,8.4,23.7,2.52,6.38,5.4,12.63,7.86,19.03,2.05,5.31,4.03,14.17,7.35,18.44Z"/>
    <g>
      <path class="cls-3" d="M141.95,109.79c-.55,1.37-.88,2.6-.2,4.03.43.9,1.16,1.66,1.93,2.28.37-1.72.06-3.92-.9-5.42-.22-.34-.51-.62-.82-.88Z"/>
      <path class="cls-3" d="M140.75,100.6c.02-1.51.28-3.77-.95-4.9-.37-.34-.96-.55-1.44-.69-.2,1.41-.44,2.81.46,4.05.46.64,1.25,1.15,1.92,1.54Z"/>
      <path class="cls-3" d="M54.62,179.4c-.82-.5-1.66-.42-2.59-.43-1.3.5-2.57.91-3.6,1.88l-.05.48c.87.49,1.66.47,2.63.5,1.25-.53,2.53-.97,3.54-1.91l.07-.51Z"/>
      <path class="cls-3" d="M78.8,172.35l.15.52c.32.15.74.41,1.08.48,1.52-.49,3.83-1.08,4.64-2.57-.36-.73-.5-.66-1.24-.92-1.64.45-3.64,1.01-4.63,2.49Z"/>
      <path class="cls-3" d="M35.24,140.46c.27-1.39.04-2.56-.74-3.76-.7-1.09-1.54-1.74-2.72-2.25-.32,1.1-.46,1.7.08,2.8.66,1.32,2.1,2.53,3.38,3.21Z"/>
      <path class="cls-3" d="M143.27,124.61c.11,1.56.02,3.85,1.25,5.02.63.6,1.34.72,2.18.7.03-1.67.16-3.49-1.14-4.76-.66-.64-1.42-.8-2.29-.96Z"/>
      <path class="cls-3" d="M44.51,170.8c.54.42,1.14.58,1.8.64-.08-2.01-.45-4.22-2.02-5.64-.58-.52-1.19-.65-1.94-.74.33,1.85.56,4.5,2.16,5.75Z"/>
      <path class="cls-3" d="M36.65,149.44c-.3-.19-.62-.28-.96-.37,0,2.24.4,4.55,2.02,6.23.6.63,1.34.93,2.14,1.24-.46-2.16-1.14-5.81-3.2-7.11Z"/>
      <path class="cls-3" d="M111.24,161.73l.2.44c.43.11,1.01.34,1.44.33,1.55-.97,4.45-2.34,4.9-4.17-.6-.5-.78-.51-1.52-.64-1.74.98-4.26,2.08-5.02,4.03Z"/>
      <path class="cls-3" d="M143.18,146.05c-.04.08-.06.18-.1.26.26.42.24.42.73.53.75.17,1.46.09,2.21.03,1.16-.5,3.41-1.24,3.99-2.44.04-.08.05-.17.08-.26-.42-.55-.99-.6-1.68-.68-.43-.05-.88-.03-1.31-.01-1.25.53-3.27,1.3-3.93,2.57Z"/>
      <path class="cls-3" d="M63.24,177.69l.15.48c.8.2,1.4.32,2.23.22,1.64-.55,4-1.19,5-2.72l-.2-.49c-.82-.27-1.51-.42-2.37-.45-1.7.57-3.93,1.24-4.81,2.96Z"/>
      <path class="cls-3" d="M93.63,166.91l.03.56c.53.15,1.03.36,1.58.33,1.9-.9,4.46-1.82,5.7-3.58v-.67c-.44-.26-.78-.48-1.26-.64-2.12.91-4.84,1.91-6.05,3.99Z"/>
      <path class="cls-3" d="M127.09,154l-.06.5c.75.34,1.23.24,2.02.1,2.18-.81,5.15-1.67,6.71-3.45l.07-.61c-.69-.44-1.13-.54-1.93-.62-2.19.91-5.51,1.99-6.81,4.07Z"/>
      <path class="cls-3" d="M50.33,399.26c-10.01-6.12-13.01-5.11-16.1-17.75-.36-1.47-.51-3.26-1.45-4.46l-.8-.4c-1,4.99.8,10.5,3.57,14.66,3.67,5.52,10.31,9.44,16.77,10.69.07.01.13.02.2.04-.37-1.55-.82-1.93-2.19-2.77Z"/>
      <path class="cls-3" d="M501.77,60.35c.43.17.8.33,1.27.35,4.49-.58,6.05-3.35,7.44-3.56,1.84-.29,4.41,2.05,6.96,1.34l.17-.57c-1.09-1.79-2.68-2.76-4.37-3.91.93-.98,1.72-2.08,1.68-3.49,0-.35-.3-.7-.48-1-.88-.51-1.44-.45-2.42-.33-.39,1.18-1.63,2.03-2.6,2.76-1.26-1.14-2.81-2.54-4.63-2.53-.95,0-1.41.13-2.16.69.12,1.1.75,1.83,1.6,2.52.53.42,1.08.8,1.61,1.21.26.2.18.16.43.51-1.01,2.18-4.3,2.74-4.98,5.27.13.32.14.6.47.74Z"/>
      <path class="cls-1" d="M447.16,46.76c.43.17.8.33,1.27.35,4.49-.58,6.05-3.35,7.44-3.56,1.84-.29,4.41,2.05,6.96,1.34l.17-.57c-1.09-1.79-2.68-2.76-4.37-3.91.93-.98,1.72-2.08,1.68-3.49,0-.35-.3-.7-.48-1-.88-.51-1.44-.45-2.42-.33-.39,1.18-1.63,2.03-2.6,2.76-1.26-1.14-2.81-2.54-4.63-2.53-.95,0-1.41.13-2.16.69.12,1.1.75,1.83,1.6,2.52.53.42,1.08.8,1.61,1.21.26.2.18.16.43.51-1.01,2.18-4.3,2.74-4.98,5.27.13.32.14.6.47.74Z"/>
      <path class="cls-3" d="M10.82,214.69c1.55.2,3.26.03,4.82-.04.89-.36,1.46-.66,1.85-1.57,1.11-2.55.31-6.32.06-9.02l-7.83.1c-1,.16-1.66.13-2.47.8-.38,2.23-.59,6.39.81,8.31.67.91,1.66,1.28,2.75,1.43ZM14.19,206.85c-.12,1.63-.35,3.26-.54,4.89-.33.05-.67.09-1,.12-1.08.08-1.48-.15-2.23-.83-.63-1.27-.51-2.71-.53-4.09l4.3-.08Z"/>
      <path class="cls-3" d="M191.6,123.74c2.31.83,5.88.09,8.27-.34,1.66-2.28,1.93-6.75,1.49-9.52-.15-.92-.35-1.48-1.01-2.13-2.39-1.08-5.65-.59-8.22-.5-1.34,2.85-2.38,8.57-1.25,11.58.16.42.38.63.71.91ZM193.78,113.15c1.69,0,3.35.21,5.03.39-.1,2.48-.35,4.95-.56,7.42-1.59.13-3.19.18-4.78.26,0-2.68.2-5.39.31-8.07Z"/>
      <path class="cls-3" d="M330.92,342.56c.43,1.47,1.52,2.35,2.85,2.99,2.36,1.15,5.37,1.47,7.93,1.97,2.92-3.43,2.73-8.85,2.82-13.14-3.58-.79-7.14-1.57-10.8-1.84-1.49,2.62-3.69,6.96-2.79,10.01ZM335.45,335.24l6.22,1.02c-.43,2.57-.92,5.12-1.48,7.66-2.11-.62-4.27-1.03-6.42-1.47.68-2.38,1.18-4.79,1.68-7.21Z"/>
      <path class="cls-3" d="M15.85,299.48c-.67-.06-1.26-.09-1.92,0-2.57.55-5.23,1.06-7.57,2.29.44,3.74.48,11.2,3.06,13.96.66.26,1.1.25,1.8.2,2.19-.15,5.08,0,6.79-1.53,1.54-3.12.62-8.99-.49-12.21-.37-1.06-.73-2.03-1.66-2.7ZM15.28,311.74c-1.33.39-2.7.62-4.06.88-.73-2.99-1.33-6.01-1.99-9.01,1.56-.51,3.15-.83,4.75-1.17.07.06.15.11.21.18,1.37,1.58,1.07,6.96,1.09,9.12Z"/>
      <path class="cls-3" d="M42.75,369c-.39-4.9-.09-9.94.64-14.8.37-2.48,1.42-5.94,1.24-8.41-.05-.65-.38-.83-.94-1.08-.29-.13-.63-.2-.93-.28-4.61,10.63-5.7,25.8-1.42,36.69,2.24,5.69,6.24,10.62,11.93,13.08.48.2.97.37,1.48.51.5.14,1.01.24,1.53.31.68-.69,1.17-1.02,1.4-1.99-1.38-4.38-13.45-5.37-14.93-24.03Z"/>
      <path class="cls-3" d="M67.26,65.79c.63,2.16,1.58,7.2,3.22,8.61.49-.1.53-.07.8-.5,1.13-1.8.13-5.62-.39-7.58-.39-1.46-1.01-2.86-1.59-4.26,2.19-1.41,3.54-2.54,4.1-5.19.3-1.39.51-2.8.74-4.2.36,2.46.56,5.6,2.82,7.13.52.35,1.12.58,1.7.8.63.06,1.23.15,1.86,0l.25.57c-2.85,2.82-7.23,8.96-7.4,13.15-.03.75.21,1.4.7,1.98.5.6.91.63,1.64.62,1.68-.84,2.68-2.9,3.25-4.62.79-2.38,1.14-5.85,2.89-7.74,1.87-2.02,8.12-3.39,7.71-6.53-.6-.77-1.21-1.31-2.21-1.46-2.49-.35-6.53,2.6-8.46.42-2.4-2.73.32-8.87-4.01-9.89-1.42.75-2.04,1.53-2.52,3.07-.99,3.21.22,8.47-3.17,10.35-1.55.86-5.96,1.4-6.85,2.48.83,1.44,3.45,2.19,4.92,2.79Z"/>
      <path class="cls-3" d="M321.5,293.27c-1.87-.59-3.59-.63-5.53-.6-.18-2.04-.16-4.97-1.78-6.42-.43-.39-.98-.69-1.49-.96-2.48,2.32-3.89,4.87-5.3,7.92-2.78.53-6.89.84-9.2,2.57l-.27.56c.49.98,1.4,1.46,2.43,1.78.91.29,1.86.47,2.79.65.04.11.08.22.12.33,1.02,2.84.8,10.12,3.79,11.47.73.33,1.28.25,2.01-.03,2.4-2.56,3.99-5.55,5.1-8.87,3.13-.86,7.75-1.8,9.57-4.81.36-.59.45-1.04.4-1.72-.58-1.13-1.47-1.5-2.62-1.86ZM312.4,297.52c-2.07,1.1-2.68,2.42-3.33,4.56l-1.54,4.07c-.71-3.82-1.23-6.88-3.31-10.22,1.73-.2,3.23-.51,4.86-1.1,1.33-1.39,2.29-2.97,3.3-4.59.67,1.35,1.05,3,1.51,4.44,2.44.43,4.95.48,7.42.6-2.85.54-6.35.86-8.91,2.23Z"/>
      <path class="cls-3" d="M251.67,365.44c-7.5,4.79-16.2,7.45-24.43,10.74-10.9,4.35-21.7,9.01-32.95,12.41-3.82,1.15-7.66,2.26-11.59,2.96-2.59.46-5.28.62-7.83,1.18-.84.19-1.05.29-1.63.92-.04.9.13.93.67,1.6.41.16.85.39,1.28.5,6.23-.14,12.26-1.22,18.27-2.86,11.92-3.25,23.18-8.33,34.63-12.89,6.61-2.63,13.48-4.78,19.85-7.97,1.75-.87,3.48-1.89,4.83-3.33.68-.73.8-1.16.77-2.11-.54-.75-1.02-.87-1.88-1.14Z"/>
      <path class="cls-3" d="M182.63,184.66c1.71.24,3.52.14,5.25.11-1.36,4.36-3.18,8.56-4.49,12.93.98,1.83,1.99,3.65,3.03,5.44.73.65,1.13,1.02,2.12,1.12,1.52-.48,2.48-2.1,3.2-3.44,1.5-2.81,2.5-5.95,4.12-8.69,1.7-2.88,5.42-5.8,5.97-9.15-.36-1-.64-1.51-1.68-1.98-1.31-.59-2.91-.72-4.32-.93.08-2.71,1.23-12.91-.29-14.6-.35-.39-.63-.49-1.12-.64-3.14,3.36-13.34,14.37-13.74,18.76.58.76,1.01.93,1.98,1.07ZM192.68,170.74c1.8,1.94-.43,7.52.63,10.26.47,1.22,1.4,1.52,2.52,1.98-1.46,2.63-6.1,12.23-8.48,13.23l-.55-.23.13-1.3c.9-2.54,2.63-5.14,3.05-7.79.17-1.08.17-2.17-.53-3.08-1.23-1.6-3.54-1.62-5.37-1.82,2.64-3.94,5.61-7.58,8.59-11.26Z"/>
      <path class="cls-3" d="M108.25,113.45c-1.1.12-1.86.79-2.49,1.65-1.8,2.48-4.33,10.06-5.87,13.37-3.29-1.98-8.1-5.51-12.16-4.57-2.48.57-4.11,2.8-5.29,4.89-.96,1.69-1.82,3.44-2.68,5.17l-3.43-3.16c-3.71,5.73-7.39,11.5-11.35,17.05-2.68,3.75-5.77,7.31-8.24,11.2-.4.64-.78,1.31-.68,2.1.03.25.21.44.36.63,1.25-.15,2.19-1.55,2.92-2.48,5.87-7.45,10.74-15.83,16.36-23.5l.74-.78c.89-.01.84-.03,1.5.58,1.13,3.26-7.2,15.94-5.94,20.1l.52.21c.74-.35,1.17-.79,1.46-1.57,2.04-5.5,3.65-11.12,6.12-16.47,3.35,2.78,6.98,5.46,10.08,8.51-1.68,2.84-4.13,6.13-4.74,9.41l.15.56c2.6-1.03,4.82-6.19,6.05-8.61,1.9,1.35,4.45,3.61,6.94,3.13.87-.16,1.53-.76,2-1.48,1.9-2.94,1.67-7.62,2.45-11l4.55-1.12c2.05,1.1,7.1,4.91,9.33,4.26,1.29-.38,2.33-2.62,2.83-3.76,1.2-2.73,1.75-5.86,2.42-8.75,1.74-7.5,3.13-15.66,6.71-22.55,1.26-.23,2.58-.29,3.34-1.45.86-1.31,1.03-3,.64-4.49-.36-1.36-.95-3.15-2.05-4.1-1.79,1.25-6.63,4.1-6.88,6.47-.05.45.09.76.41,1.09.38.39,1,.72,1.45,1.01.16,2.54-6.13,11.81-7.88,14.36-2.27-1.99-6.34-6.32-9.64-5.94ZM91.86,143.34c-.94.02-9.48-6.96-10.74-7.95,1.64-3.75,3.05-7.23,6.29-9.9,4.21.25,7.93,3.18,11.34,5.41-2.35,4.09-4.76,8.12-6.76,12.4-.04.01-.08.03-.13.03ZM100.57,136.39c-.98,4.07-1.37,8.17-3.09,12.03-1.44-1.05-2.82-2.17-4.21-3.29,2.15-4.47,4.23-8.88,7.11-12.95,1.41.57,2.71,1.65,3.95,2.53l-3.76,1.67ZM108.45,133.61c-2.48-.2-4.96-2.71-6.85-4.21,2.02-4.79,4.44-9.38,6.27-14.27,3.56,1.13,6.35,4.17,9.03,6.64-2.45,3.71-4.94,7.39-7.46,11.05-.28.37-.59.55-.99.78ZM117.56,135.54c-.34,1.08-.7,2.48-1.73,3.02-1.17-.16-2.07-.81-3.06-1.41l-2.52-2.05c3.58-4.98,7.21-9.93,10.41-15.16.61,2.73-2.16,12.64-3.1,15.61Z"/>
      <path class="cls-3" d="M37.08,190.28c.84,2.09,1.85,4.12,3.31,5.85,1.71,2.03,3.97,3.52,6.67,3.73,1.5.11,2.89-.3,4.3-.77,7.44-2.48,14.7-6.01,21.97-8.96,8.96-3.63,18.01-7,26.96-10.66,8.9-3.64,17.7-7.56,26.68-11.04,11.6-4.5,23.63-7.96,35.04-12.95,2.54-1.11,4.66-2.71,6.75-4.5-2.3-11.67-6.53-23.67-9.9-35.13-2.26-7.69-3.93-15.56-6.26-23.21-.57-1.86-1.3-5.07-2.53-6.52-.82-.96-2.14-1.21-3.31-1.37-1.46-.57-2.91-1.16-4.36-1.78-8.64,2.4-17.22,4.98-25.75,7.73-8.53,2.76-17,5.69-25.41,8.8-8.41,3.11-16.75,6.39-25.02,9.85-8.27,3.46-16.47,7.09-24.58,10.89-5.09,2.34-12.72,4.98-16.75,8.57l-.15.56c1.37.55,2.91-.04,4.22-.61,1.25-.54,3.13-1.94,4.43-2.03l-.19-.1c9.28-4.48,18.67-8.71,28.16-12.71,9.5-4,19.09-7.75,28.78-11.25,6.28-2.28,12.48-4.66,18.86-6.66,7.11-2.2,14.28-4.19,21.5-5.97,4.85-1.21,9.99-2.12,14.63-3.96.29,5.44,2.71,10.97,4.15,16.21,1.88,7.08,3.82,14.15,5.81,21.2,2.43,8.31,5.09,16.57,7.09,24.99-10.79,5-22.19,8.99-33.27,13.32l-44.33,17.68c-7.43,2.93-14.79,6.01-22.09,9.25-5.2,2.31-10.44,5.06-15.84,6.84-1.32-.67-2.57-1.52-3.83-2.3-3.77-7.61-5.3-16.52-8.32-24.47-1.86-4.89-5.52-8.84-7.52-13.73-2.13-5.19-5.28-18.62-8.95-21.95l-.32.15c-.04.19-.06.25-.08.47-.65,5.46,10.5,29.04,12.99,36.21,2.33,6.7,3.8,13.72,6.44,20.3Z"/>
      <path class="cls-3" d="M514.86,162.19c6.06,1.51,14.49.91,19.93-2.34.53-.32,1.05-.62,1.45-1.09,5.76-1.72,11.78-8.02,14.6-13.27.49-.92,1.38-2.45,1.11-3.5,8.49-2.21,16.32-7.71,20.82-15.28,5.12-8.61,3.89-13.93,1.54-22.96-2.02-7.75-7.21-10.87-13.11-15.32-1.4-1.06-2.48-2.64-3.99-3.52-4.97-2.89-13.33-1.67-18.84-1.16-1.53-1.52-3.75-1.96-5.84-1.93-.56,0-1.09.11-1.64.26-.09,1.04-.14,2.33-.9,3.14l-.2.13c-1.2.79-2.51,1.34-3.74,2.08-4.64,2.81-8.14,6.87-9.29,12.26-.41,1.96-.23,5.1-1.34,6.71-.06.04-.11.07-.17.11-1.77,1.09-3.77,1.82-5.59,2.84-6.91,3.89-12.41,9.41-14.37,17.3-1.97,7.89-.2,16.48,3.95,23.37,3.56,5.91,8.85,10.48,15.62,12.17ZM571.24,113.94c.01.05.03.1.04.15.45,1.64-.25,3.66-.92,5.15-6.82,15.18-15.68,16.33-17.16,16.92.39-.77.64-1.63.76-2.48.31-2.08.32-4.86-.98-6.63.49-.21.95-.43,1.42-.68,3.69-1.98,7.37-5.7,8.57-9.81.39-1.35.58-2.6-.11-3.89,2.43-.36,6.2.11,8.37,1.27ZM562.98,107.21c.32-.92,1.15-1.05,1.96-1.37.54-.03,1.12-.09,1.64.11.69.26.7.36.97,1.04-.1.28-.15.43-.29.67-.57,1.06-1.61,1.41-2.69,1.74l-.69.21-.68-.39c-.29-.72-.49-1.21-.22-2ZM560.26,93.02c.05-.07.1-.13.14-.2.08,0,.16,0,.25,0,.83.08,1.18.07,1.73.7-.03.31-.07.57-.21.85-.77,1.47-3.18,3.08-4.69,3.64l-.3.35c-.53-.52-.53-.55-.64-1.28.75-1.64,2.63-2.59,3.71-4.07ZM542.51,85.65c2.07-.27,4.34-.36,6.43-.22,1.89.13,4.5.5,5.75,2.09.63.8.76,1.78.59,2.76-.24,1.37-1.51,3.45-2.65,4.23l-1.09-.27c-.08-.09-.16-.19-.25-.28-1.92-1.7-8.88-.24-11.21.09,1.33-1.92.37-5.7,0-7.81l2.44-.6ZM542.6,96.07c.21-.03.43-.06.64-.08,4.21-.37,8.23.44,11.5,3.27,4.01,3.47,1.55,3.84,2.24,4.96,1.41,2.33,3.59,3.01,3.81,6.12.26,3.75-1.35,8.81-3.82,11.64-.76.87-1.97,1.85-3.18,1.84-1.06-.01-2.51-3.66-2.96-4.66-3.47-7.74-17.85-10.51-19.17-14.71-.25-.79-.06-1.6.34-2.31,2.23-3.95,6.55-5,10.61-6.07ZM534.24,84.49c1.26.27,2.54.85,3.2,2.01.66,1.15.39,2.19,0,3.38-1.51-.48-3.82-4.34-5.3-5.54.69-.05,1.42,0,2.1.14ZM519.3,99.72c1.49-6.1,6.17-8.74,10.89-12.11.47-.05.95-.05,1.42-.07,2.05,1.21,5.23,5,6.04,7.3-3.59,1.64-6.33,3.25-7.87,7.07-.5,1.24-.76,2.51-1.38,3.7-.03.06-.07.13-.1.19l-3.87-.4c-2.32-.07-4.66.19-6.96.4,1.12-1.91,1.3-3.96,1.82-6.08ZM501.31,120.15c4.46-6.92,11.68-10.65,19.51-12.36,6.45-.69,13.59,1.42,19.01,4.85,4.65,2.94,7.89,7.06,9.09,12.49,1.47,6.65-.24,14.09-3.96,19.74-4.63,7.02-12.34,11.23-20.43,12.87-.6.3-1.36.49-2.01.66-4.49,1.12-8.98.6-12.95-1.85-5.96-3.68-9.61-10.34-11.12-17.02-1.49-6.62-.89-13.58,2.85-19.38Z"/>
      <path class="cls-3" d="M506.59,134.48c.03.27.06.53.1.8.04.27.09.53.14.79.05.26.11.53.18.79.07.26.14.52.22.78,1.33,4.32,4.52,8.09,8.51,10.2,2.59,1.37,6.99,2.51,9.86,1.55.07-.02.13-.06.2-.09,4.33-.61,8.19-3.01,10.79-6.52,2.78-3.75,4.24-8.79,3.55-13.43-.04-.24-.08-.48-.13-.71-.05-.24-.1-.47-.16-.71-.06-.23-.13-.47-.2-.7-.07-.23-.15-.46-.23-.69-.08-.23-.17-.45-.26-.68-.09-.22-.19-.44-.3-.66-.11-.22-.22-.43-.33-.65-.12-.21-.24-.42-.36-.63-.13-.21-.26-.41-.39-.61-.14-.2-.28-.4-.42-.59-.14-.19-.3-.38-.45-.57-.15-.19-.31-.37-.48-.55-.16-.18-.33-.35-.5-.52-.17-.17-.35-.33-.53-.5-.18-.16-.36-.32-.55-.47-.19-.15-.38-.3-.58-.44-4.05-3-9.16-3.67-14.06-3.09-5.01,1.48-9.24,3.74-11.81,8.54-.12.24-.24.48-.36.72-.11.24-.22.49-.32.74-.1.25-.2.5-.29.75-.09.25-.17.51-.25.77-.08.26-.14.52-.21.78-.06.26-.12.52-.17.79-.05.26-.09.53-.13.79-.04.27-.07.53-.1.8-.03.27-.04.54-.06.8-.01.27-.02.54-.01.81,0,.27,0,.54.02.81.01.27.04.54.07.8ZM509.76,127.99c1.66-4.77,6.02-7.06,10.29-9.13,4.28-.43,8.24-.38,11.94,2.11.17.12.34.24.51.36.17.12.33.25.49.38.16.13.32.27.47.41.16.14.31.28.46.43s.29.3.43.45c.14.15.28.31.41.47.13.16.26.33.39.49.12.17.24.34.36.51.12.17.23.35.33.53.11.18.21.36.31.55.1.18.19.37.28.56.09.19.17.38.25.57.08.19.15.39.22.59.07.2.13.4.2.6.06.2.11.4.16.6.05.2.09.41.13.61.79,4.05-.29,8.63-2.61,12.02-2.05,2.99-5.34,5.42-8.93,6.09-2.14.57-3.95.56-6.08-.1-3.94-1.21-7.23-4.4-9.05-8.03-1.71-3.41-2.22-7.44-.95-11.08Z"/>
      <path class="cls-3" d="M251.51,355.82c.35-2.91.88-9.37.33-12.22-7.62-3.76-30.41-7.73-39.33-9.48-1.56-4.09-3.16-8.17-4.81-12.23,7.64-3.11,15.03-6.75,22.57-10.08,8-3.53,16.44-6.63,23.91-11.21,2.66-1.63,5.62-3.93,6.27-7.17,1.37-6.91-10.58-24.11-14.56-29.88,6.12-.32,12.38,0,18.51.15l27.24.58c35.34.69,70.67,1.64,105.99,2.87,17.33.55,34.67,1.97,52.01,1.7,4.18-.07,14.69-.24,18.31-2.23,3.63-1.99,5.37-6.91,6.54-10.61.76-2.42,2.36-6.98,1.15-9.3,2.91.41,21.76,4.83,23.67,5.82-3.45,1.59-7.4,1.48-10.87,3.36-2.72,1.47-4.95,3.78-5.83,6.79-.82,2.78-.61,5.77.83,8.3,1.32,2.31,3.55,4.31,6.15,5,7.89,2.11,45.78-1.98,52.9-6.19,6.34,1.48,20.91,19.48,29.48,21.84.88.24,1.47.15,2.24-.36,1.98-1.34,3.4-3.96,4.69-5.94,6.93-10.67,11.28-21.53,14.12-33.93.53-2.32,2.7-10.3,1.21-12.25-.33-.44-.81-.41-1.32-.51l-.56-.09c1.74-3.37,4.31-7.7,4.03-11.6-.64-1.18-1.68-1.55-2.88-2.15-3.59-1.79-7.59-2.84-11.29-4.4-4.93-2.09-9.87-4.91-14.99-6.49-.36-.11-.59-.12-.96-.09-1.23.86-1.42,2.31-2.48,3.38-2.17-3.4-8.61-6.35-12.13-8.45-5.08-3.03-10.01-6.44-15.24-9.2-15.22-8.04-31.68-12.37-48.39-16.05-3.4-.75-6.78-1.27-10.24-1.66,2.49-4.28-.43-69.12-.75-80-.23-7.83.92-18.15-.97-25.54-.97-3.79-3.05-7.24-6.51-9.22-2.68-1.53-5.77-2.19-8.8-2.62-12.69-1.81-25.59-2.42-38.37-3.27-21.44-1.43-42.89-2.7-64.35-3.78-30.47-1.76-60.91-3.95-91.43-4.57-8.13-.16-20.75-1.21-28.31.85-2.76.75-4.41,2.21-5.77,4.7-10.4,18.92-11.96,101.28-11.68,125.6.21,12.09.7,24.16,1.49,36.22.49,8.21.86,16.46,1.84,24.63-5.31,1.06-10.42,2.9-15.55,4.62-8.24,2.76-16.43,5.58-24.34,9.19-2.64-9.88-7.15-39.45-15.76-44.48-5.48-3.2-23.9,1.85-30.44,3.15-26.15,5.17-51.41,10.9-76.9,18.84-9.66,3.01-21.89,6.88-30.74,11.45-3.32,10.94-2.39,23.53-.8,34.69,1.61,11.27,4.96,22.21,7.99,33.16,2.5,9.05,4.89,18.14,7.78,27.08,2.04,6.32,4.43,12.55,6.7,18.79,2.51,6.88,4.82,13.87,8.29,20.34,3.35,6.26,10.68,18.26,17.84,20.32,8.57,2.46,30.99-4.19,40.35-6.48,7.73-1.89,15.52-3.48,23.22-5.52,28.44-7.53,56.4-16.48,84.36-25.61,4.47-1.48,8.96-2.92,13.45-4.33,3.95-1.23,8.21-2.32,11.9-4.22M234.91,58.48c3.76-3.97,9.58-3.64,14.6-3.77,40.38,1.16,80.76,4.08,121.09,6.32,18.06.89,36.1,1.95,54.14,3.15,11.77.83,30.49,1.79,41.45,5.5,2.14.72,3.56,1.43,4.58,3.58,1.93,4.07,2.95,15.08,1.41,19.37-5.41-1.85-12.55-1.93-18.29-2.84-18.03-2.46-36.26-4.01-54.4-5.42-19.47-1.5-38.96-2.63-58.47-3.37-19.51-.75-39.03-1.11-58.56-1.1-11.68,0-23.46.39-35.13.81-6.1.22-12.19.67-18.3.6.88-6.61,1.14-17.82,5.87-22.81ZM464.24,95.72c-.79,1.27-2.04,2.4-3.51,2.76l-.93-.27c-.04-1.01,2.33-2.11,2.64-3.45.82-.13,1.13-.27,1.91.07,0,.32.07.6-.11.88ZM444.55,91.27c-.03.09-.04.18-.08.27-.69,1.55-3.39,2.9-4.9,3.47-1.32.84-4.44.08-5.99-.13.79-.31,1.58-.63,2.31-1.06,1.29-.76,2.27-1.46,2.64-2.96,1.94-.23,4.11,0,6.02.41ZM431.22,89.84c-1.04,1.3-2.58,2.29-4.08,2.98-.25.37-.55.64-.99.76-.81.23-1.75.3-2.49-.11.1-.8.92-1.19,1.51-1.72.83-.74,1.13-1.1,1.2-2.2,1.75-.3,3.14-.17,4.84.28ZM422.29,89.5c-.76,1.42-2.41,2.34-3.87,2.91-.52.29-1.33.2-1.93.21l-.17-.3c1.08-.8,2.77-2.03,2.98-3.42,1.01-.12,1.86-.3,2.83.11l.16.49ZM317.59,83.72c-.05,1.25-1.02,2.29-1.69,3.33-.86-.05-1.2.06-1.87-.52-.05-1.2.98-2.39,1.6-3.38.8.04,1.34.02,1.96.56ZM302.51,83.63c-.57,1.31-1.89,2.33-2.92,3.3-.54-.22-.97-.51-1.45-.85-.13-.43-.28-.64-.15-1.09.35-1.2,1.91-1.95,2.94-2.52.58.06.97.23,1.49.46l.09.69ZM295.35,82.88l-2.35,3c-.52.17-1.17.28-1.72.31-.86.06-1.15.01-1.79-.54-.07-1.26.45-1.85,1.05-2.95,1.6-.02,3.21.11,4.81.18ZM278.89,85.84c-1.53-.21-3.08-.3-4.62-.42l1.87-2.56c1.2-.07,2.6-.26,3.66.32.07,1.11-.41,1.69-.91,2.66ZM270.32,85.53c-1.07.05-2.43.31-3.36-.28-.14-1.03.22-1.51.64-2.42,1.1-.04,2.55-.3,3.54.24.11,1.01-.36,1.58-.82,2.46ZM263.39,85c-.42.4-.67.64-1.24.84-1.11.05-2.14.14-3.22-.2,0-.9,1.18-2.03,1.74-2.77,1.1,0,1.65-.13,2.58.52.25.72.27.86.14,1.61ZM255.55,85.99c-.96-.03-1.77.05-2.58-.56-.08-1.01.39-1.67.8-2.58.72.02,1.34.1,2.05.27.45.95-.02,1.86-.27,2.87ZM244.61,86.4c-.7-.09-1.19-.19-1.81-.55-.2-1.11.48-1.89.99-2.87.5.11.97.27,1.45.43.33,1.1-.24,1.94-.64,2.99ZM235.08,83.5c1.3-.37,3.41-.66,4.65.04.52.3.63.61.77,1.16-.23.73-.38,1.04-.93,1.57l-4.22.69c.08-1.25.15-2.25-.26-3.45ZM228.61,83.18c1.95,0,4.24-.23,6.13.28-1.36.71-2.15,2.33-2.88,3.63-1.09-.27-2.35-.21-3.47-.26l.22-3.65ZM211.43,344.54c.79.35.92.35,1.77.23,1.03-.71,1.44-1.84,1.97-2.94-.4-1.54-.93-3.06-1.41-4.57l32.06,7.33c-13.61,5.34-27.06,11.13-40.84,16.05-13.82,4.94-28.19,9.48-42.33,13.42-5.58,1.55-11.25,2.78-16.84,4.32-7.57,2.09-14.95,4.72-22.57,6.68-12.59,3.03-26.91,6.24-39.87,5.47-11.25-17.34-17.77-36.53-24.69-55.84-4.83-13.47-9.72-26.99-13.04-40.93-1.95-8.2-3.29-16.67-4.33-25.04-.64-5.14-.88-10.48-2.07-15.52-.45-1.89-1.06-3.31-2.09-4.95,9.99-5.01,20.46-8.05,31.13-11.22,21.66-6.44,42.98-11.26,65.1-15.7,9.83-1.97,19.8-4.51,29.78-5.47.58.01,1.21,0,1.78.11,3.9.68,6.01,6.41,7.29,9.73,4.57,11.91,5.7,24.91,8.98,37.2,1.85,6.92,4.29,13.7,6.6,20.48,2.7,7.93,5.32,15.9,8.4,23.7,2.52,6.38,5.4,12.63,7.86,19.03,2.05,5.31,4.03,14.17,7.35,18.44ZM249.83,279c2.24,3.83,4.01,7.84,5.59,11.98-9.75,10.17-28.98,15.69-41.7,22.12-2.66,1.3-5.44,2.37-8.18,3.49-3.49-6.22-5.74-13-8.23-19.65-4.43-11.83-8.46-23.59-12.25-35.65,12.8-4.86,25.7-9.99,38.92-13.6l.45.03c1.72,1.66,1.91,6.91,3.77,9.45,2.65,3.62,7.83,3.81,11.88,4.44,2.44,6.24,6.39,11.63,9.75,17.38ZM470.06,258.9c-.53.64-1.21.45-1.98.47-13.56-.52-27.12-.8-40.69-.84-27.91.09-55.77,1.21-83.69,1.15-35-.08-69.95-1.88-104.94-2.36-1.78-.02-6.73-.08-7.94-1.51-5.36-6.3-7.29-91.26-6.94-104.33.27-10.01.99-20.06,1.64-30.05.71-10.93,1.37-21.88,2.82-32.74,8.4.95,17.02-.08,25.45-.41,23.34-1.21,47.03.42,70.37,1.38,18.1.77,36.2,1.74,54.28,2.9,12.22.72,24.5,1.25,36.69,2.42,13.11,1.32,26.18,2.96,39.21,4.93,4.35.63,14.93,1.33,18.42,3.74.2.31.38.59.51.93,1.39,3.62,1.99,62.84,1.68,70.79-.08,2.06-.08,4.44-.98,6.32-5.05,1.64-9.96,3.39-12.13,8.7-.49,1.21-.49,2.78-1.11,3.89-.06.1-.12.2-.17.29-3.04,3.06-6.59,5.12-8.63,9.14-1.87,3.68-1.63,8.19,1.11,11.4.72.84,2.5,2.32,2.77,3.33.03.11.05.22.08.34-.36,1.65-2.01,3.42-2.75,5.03-1.32,2.86-1.37,6.75-.23,9.69,3.09,7.97,12.46,8.86,19.17,11.9.07.03.13.06.19.09.11.26.22.54.26.83.4,2.7-.82,10.63-2.46,12.59ZM549.15,265.89c-.23-.2-.47-.38-.72-.55-.25-.17-.5-.34-.76-.48-.26-.15-.53-.29-.81-.41-.27-.12-.56-.24-.84-.33-.29-.1-.58-.18-.87-.25-.29-.07-.59-.13-.89-.17-.3-.04-.6-.07-.9-.09-.3-.02-.6-.02-.91,0-3.11.15-5.69,2.42-8.69,3.12-3.83.89-7.99,1.11-11.9,1.63-8.99,1.19-21.38,4.26-30.15,2.01-1.43-.37-2.85-1.18-3.57-2.51-.59-1.08-.55-2.29-.14-3.42,2.42-6.7,14.6-5.47,20.11-8.08,1.47-.7,2.69-1.73,3.22-3.32.31-.95.3-1.94-.23-2.81-2.2-3.66-14.73-4.65-18.78-5.47-3.15-2.54-23.99-4.24-31.58-10.42-2.06-1.68-2.07-4.16-3.77-5.87-.05-.05-.1-.09-.14-.13,1.24-.93,3.74-5.19,4.09-6.7,2.64.47,5.35,1.98,7.81,3.01,5.43,2.28,25.92,9.57,30.61,7.41.78-.36,1.35-.94,1.6-1.77.13-.42.16-1.19-.05-1.59-.52-.98-1.64-1.67-2.66-2.09-2.49-1.03-5.67-1.25-8.31-1.83-4.76-1.03-9.46-2.28-14.11-3.74-4.98-1.59-16.73-5.6-19.01-10.46-2.12-4.52,4.1-7.01,5.09-9.83.03-.11.07-.22.1-.34,2.7.94,5.3,2.25,8.02,3.21,7.26,2.58,14.82,4.75,22.27,6.66,2.95.75,11.57,3.27,14.07,1.58.59-.4.95-.99,1.06-1.69,1-6.26-34.65-7.63-39.93-15.03-.48-.68-.72-1.47-.51-2.29.54-2.11,3.02-3.59,4.76-4.6,8.43-1.23,19.49,2.07,27.79,4.03,8.05,1.9,16.04,4.17,23.71,7.29,2.56,1.02,5.05,2.18,7.48,3.48,4.08,2.15,30.6,17.08,31.78,18.98.07.24.08.22.1.52.03.45-10.9,36.87-12.01,40.2-.36,1.1-.69,2.24-1.41,3.17ZM570.3,255.5c3.35-4.38,12.32-25.8,11.56-31.15,2.93.1,8.66,1.68,11.11,3.3-.03.29-.08.57-.16.85-.76,2.96-4,6.76-6.6,8.27,1.04-.97,1.63-1.75,2.25-3.02.66-1.33,1.49-3.27.9-4.75-.27-.68-.43-.66-1.07-.9-3.67,1.09-10.02,16.33-10.16,16.72-1.25,3.54-6.01,10.63-9.42,12.28.55-.49,1.13-1,1.58-1.59Z"/>
      <path class="cls-3" d="M220.01,254.75c-.03-.47.07-.61-.28-.96-.47-.45-1.2-.56-1.82-.71-.99.73-1.78,1.3-2.4,2.4l.05.67c.71.54,1.18.56,2.06.58.93-.57,1.83-1.01,2.39-1.98Z"/>
      <path class="cls-3" d="M247.36,292.4c1.05-.73,2.15-1.38,2.89-2.45l.05-.68c-.64-.61-1.2-.6-2.05-.68-1.13.7-2.45,1.58-2.81,2.96-.13.49.01.5.25.91.66.11,1.02.09,1.67-.07Z"/>
      <path class="cls-3" d="M224.43,281.52l-.24.82c.65.52,1.16.5,1.99.46.1,0,.19-.02.28-.04,1.31-.71,2.61-1.35,3.69-2.4l.19-.66c-.69-.49-1.31-.41-2.13-.47-1.55.59-2.65,1.07-3.78,2.3Z"/>
      <path class="cls-3" d="M188.94,264.83c-.14.51-.05.59.14,1.08.77.21,1.13.12,1.88-.14,1.2-.62,2.28-1.11,3.14-2.19l.11-.7c-.74-.68-1.55-.86-2.55-.97-1.31.78-2.3,1.34-2.73,2.92Z"/>
      <path class="cls-3" d="M235.66,274.28c.11.54,0,.61.49.93.49.32.93.34,1.5.36,1.01-.62,2.93-1.62,3.26-2.85.12-.45-.05-.53-.26-.91-.62-.24-1.13-.39-1.8-.45-1.54.68-2.54,1.26-3.19,2.91Z"/>
      <path class="cls-3" d="M210.72,306.18c-1.2.67-2.66,1.3-3.48,2.44.01.55-.11.66.3,1.07.46.46,1.05.65,1.65.87,1.16-.59,2.77-1.33,3.25-2.63.17-.46.05-.55-.09-.99-.54-.35-.98-.66-1.63-.75Z"/>
      <path class="cls-3" d="M204.4,257.04c-1.38.7-2.87,1.33-3.93,2.49l-.18.74c.59.72.92.78,1.77,1.11,1.43-.71,3.3-1.52,4.05-3.02l-.1-.68c-.58-.38-.92-.52-1.6-.64Z"/>
      <path class="cls-3" d="M215.74,284.11c-1.61.83-3.4,1.67-4.11,3.44l.24.69c.5.2.97.44,1.5.48,1.24-.77,2.93-1.59,3.75-2.8l.11-.76c-.47-.61-.78-.78-1.5-1.04Z"/>
      <path class="cls-3" d="M204.53,289.97c-.13-.03-.27-.04-.4-.06-1.57.81-3.16,1.47-3.78,3.23.51.76,1,.95,1.9,1.14,1.44-.7,3.27-1.42,3.84-3.05-.34-.75-.74-1.03-1.57-1.25Z"/>
      <path class="cls-3" d="M236.26,294.47c-1.69.85-3.77,1.76-4.51,3.64.04.39-.05.46.27.73.39.34,1.15.5,1.66.52,1.61-.93,3.79-1.97,4.6-3.75l-.14-.61c-.67-.41-1.09-.49-1.88-.53Z"/>
      <path class="cls-3" d="M224.53,299.71c-1.67.87-4.59,2-5.36,3.78l.22.6c.48.22.93.47,1.46.53,1.77-.67,3.84-1.35,5.08-2.86l.2-.85c-.53-.77-.78-.83-1.6-1.21Z"/>
      <path class="cls-3" d="M266.38,74.1c1.09.44,2.43.41,3.59.41,1.55-.49,3.1-.95,3.94-2.48.41-.75.54-1.62.28-2.44-.33-1.04-1.18-1.82-2.15-2.28-1.1-.52-2.28-.59-3.48-.65-1.71.49-3.62.96-4.54,2.66-.38.7-.53,1.53-.25,2.29.42,1.17,1.48,2.03,2.61,2.49Z"/>
      <path class="cls-3" d="M248.34,74c.98.17,2.06.09,3.05.07,1.39-.64,2.95-1.3,3.53-2.85.31-.82.25-1.69-.16-2.47-.64-1.24-2.1-2.24-3.42-2.62-.99-.28-2.17-.16-3.19-.12-1.54.68-3.22,1.35-3.83,3.08-.29.81-.16,1.67.28,2.39.73,1.22,2.35,2.27,3.75,2.52Z"/>
      <path class="cls-3" d="M450.68,84.66c.71-.01,1.63-.11,2.14-.63,1.76-.57,3.47-1.33,4.3-3.12.06-.12.11-.24.16-.37.05-.13.09-.25.12-.38.03-.13.06-.26.08-.39.02-.13.03-.27.04-.4,0-.13,0-.27,0-.4,0-.13-.02-.27-.04-.4-.02-.13-.05-.26-.08-.39-.03-.13-.08-.26-.12-.38-.44-1.18-1.45-2.13-2.61-2.61-1.4-.58-2.82-.53-4.28-.26-1.57,1.2-2.96,2.27-3.22,4.38-.18,1.45.08,2.94,1.03,4.1.61.73,1.51,1.29,2.49,1.27ZM449.43,80.09c.09-1.4,1.01-2.33,1.96-3.23.53,0,1.12-.01,1.64.08.86.16,1.32.72,1.75,1.43.09.89.15,1.36-.38,2.15-.58.85-1.53,1.1-2.47,1.33-.71.05-1.32-.26-1.97-.5-.35-.47-.57-.64-.53-1.25Z"/>
      <path class="cls-3" d="M411.98,79.6c.72.35,1.81.56,2.61.53,1.78-.21,3.4-.46,4.61-1.95.12-.14.22-.29.33-.44.1-.15.19-.31.27-.47.08-.16.16-.33.23-.5.07-.17.12-.34.17-.52.05-.18.09-.35.12-.53.03-.18.05-.36.06-.54.01-.18.01-.36,0-.55,0-.18-.03-.36-.05-.54-.03-.19-.06-.37-.11-.55-.05-.18-.1-.36-.17-.54-.06-.18-.14-.35-.22-.52-.08-.17-.18-.33-.27-.49-.1-.16-.2-.31-.32-.46-.12-.15-.24-.29-.37-.43-.13-.14-.26-.27-.41-.39-.14-.12-.29-.24-.44-.35-1.17-.83-2.29-.99-3.69-.98-1.67.47-2.96,1.19-3.88,2.73-.85,1.43-1.18,3.23-.72,4.84.35,1.19,1.12,2.13,2.24,2.67ZM412.69,71.93c.83-.1,1.94-.32,2.75-.1.99.28,2.29,1.33,2.7,2.29.28.65.23,1.36-.12,1.97-.44.78-1.21,1.12-2.01,1.42-.12.08-.26.2-.4.26-.94.43-1.79.34-2.69-.02-.33-.34-.62-.69-.77-1.15-.63-1.89-.36-2.97.55-4.67Z"/>
      <path class="cls-3" d="M432.89,81.97c.97.23,2.19.34,3.12-.04,1.69-.36,3.08-.91,4.05-2.45.68-1.09.83-2.39.52-3.63-.37-1.47-1.39-2.76-2.69-3.52-1.47-.86-2.95-.85-4.57-.68-1.65,1.08-2.93,1.95-3.45,3.99-.37,1.47-.2,3.16.59,4.47.54.91,1.41,1.63,2.44,1.87ZM432.99,73.93c.77-.14,1.51-.26,2.28-.09.93.2,1.78.86,2.22,1.7.04.07.07.15.1.23.03.08.05.15.07.23.02.08.04.16.05.24.01.08.02.16.03.25,0,.08,0,.16,0,.25,0,.08-.01.16-.03.24-.01.08-.03.16-.06.24-.02.08-.05.16-.08.23-.42,1.06-1.23,1.55-2.23,1.99-.46.37-1.03.45-1.59.6-.66-.26-.99-.4-1.27-1.1-.75-1.86-.25-3.31.51-5.02Z"/>
      <path class="cls-3" d="M391.95,78.15c1.1.32,2.38.23,3.51.11,1.97-.84,3.66-1.64,4.49-3.79.49-1.26.54-2.57-.05-3.81-.64-1.37-1.92-2.27-3.33-2.74-1.03-.34-2.15-.36-3.23-.29-2.07,1.09-3.72,2.19-4.49,4.57-.38,1.19-.41,2.53.17,3.67.6,1.16,1.68,1.93,2.92,2.29ZM391.37,73.17c.09-1.23,1.1-1.97,1.95-2.73,1.18.03,2.72.19,3.57,1.11.47.5.59,1.01.54,1.67-.09,1.2-1.17,1.98-2,2.72-1.16-.01-2.71-.13-3.53-1.06-.47-.53-.58-1.03-.53-1.71Z"/>
      <path class="cls-3" d="M187.5,346.96c-1.81.52-3.04,1.09-4.28,2.6l-.08.72c.8.53,1.54.58,2.49.55,1.64-.55,3.56-1.22,4.43-2.84l-.14-.53c-.83-.44-1.5-.48-2.43-.5Z"/>
      <path class="cls-3" d="M113.12,372.05s-.06,0-.09,0c-1.77.51-3.92,1.09-5.19,2.5l-.06.67c.66.63,1.19.74,2.07.93,1.71-.36,3.67-1.06,4.79-2.5.19-.25.26-.51.34-.81-.58-.74-.93-.66-1.85-.79Z"/>
      <path class="cls-3" d="M131.91,364.86c-1.81.63-4.38,1.24-5.55,2.82v.73c.54.48.91.7,1.59.96,1.89-.52,3.91-1.18,5.23-2.72l.19-.68c-.42-.67-.74-.83-1.47-1.11Z"/>
      <path class="cls-3" d="M168.68,352.54c-2.05.63-3.71,1.12-5.06,2.9l-.09.78c.64.48,1.88.55,2.66.41.09-.02.19-.04.28-.06,1.58-.57,4.54-1.48,5.33-3.17.04-.09.06-.2.09-.3,0,0-.01,0-.02-.01-1.13-.66-1.88-.72-3.19-.56Z"/>
      <path class="cls-3" d="M149.75,357.71c-1.92.75-4.44,1.54-5.6,3.35l.08.54c.7.51,1.79.62,2.65.62,1.93-.7,4.44-1.47,5.54-3.36l-.15-.63c-.87-.4-1.56-.5-2.52-.53Z"/>
      <path class="cls-3" d="M197.1,342.26c.07.85.29.91.87,1.5.76.22,1.25.26,2.04.16,1.86-.27,4.29-.49,5.57-2.09.17-.22.24-.44.32-.7-.25-.62-.28-.76-.93-.99-.61-.22-1.39-.05-2.01.05-1.82.33-4.69.53-5.86,2.07Z"/>
      <path class="cls-3" d="M95.47,377.99c-2.15.32-5.08.51-6.82,1.87l-.15.61c.92.97,1.8,1,3.12,1.04h.28c2.1-.12,4.67-.33,6.13-2.1.12-.15.2-.33.29-.5l-.16-.61c-.81-.43-1.79-.41-2.69-.31Z"/>
      <path class="cls-3" d="M77.12,306.36c-.16.26-.07.57-.06.87,1.23.69,2.26.46,3.6.14,2.63-.87,5.92-1.72,8.03-3.55l.27-.61c-.63-.65-1.31-.89-2.23-.91-.54,0-1.09.05-1.62.09-2.76.66-6.37,1.32-7.99,3.97Z"/>
      <path class="cls-3" d="M73.09,277.14c4.89-.92,16.79-2.13,20.3-5.05l.33-.84c-.36-.66-.58-.62-1.26-.82-.44-.13-.79-.21-1.26-.19-4.3.52-17.33,2.07-20.09,5.36l-.12.55c.55.63,1.04.94,1.92.99.06,0,.12,0,.17,0Z"/>
      <path class="cls-3" d="M101.31,285.98c.89-.28,1.61-.63,2.3-1.28l.13-.63c-.63-.67-1.48-.81-2.38-.84-.2,0-.29,0-.51.03-5.97.52-24.78,3.59-29.14,7.17l-.32.82c.28.52.31.69.93.86.67.19,1.52.08,2.21.04,5.13-1.17,10.22-2.51,15.35-3.64,3.77-.83,7.76-1.37,11.43-2.55Z"/>
      <path class="cls-3" d="M130.74,292.05c7.65-10.43,14.67-21.03,21.44-32.05.3,1.32.57,3.54,1.86,4.28.47.27.64.14,1.14.06,2.19-1.69,2.71-5.33,3.03-7.9.21-1.69.54-4.9-.46-6.39-.47-.69-1-.69-1.75-.83-2.5,1.23-12.84,4.78-13.68,6.92-.04.11-.07.21-.11.32.5.79.88.87,1.79,1.06,2.09.44,4.42.17,6.54.05-3.67,6.35-7.54,12.57-11.61,18.66-4.08,6.09-8.35,12.04-12.82,17.85-3.47,4.6-6.88,9.33-10.87,13.51-3.89,4.07-8.29,7.71-12.88,10.96-7.01,4.98-16.33,8.1-22.55,12.73.41.72.56,1.16,1.46,1.35,3.24.68,23.63-12.59,27.39-15.6,8.95-7.16,15.36-15.82,22.08-24.99Z"/>
      <path class="cls-3" d="M58.3,279.43c-.84-3.38-1.79-6.79-2.39-10.23-.2-1.14-1.67-5.37-1.52-6.23,3.13-2.23,8.69-3.11,12.39-4.15,5.4-1.53,10.74-3.3,16.18-4.66,5.87-1.47,11.82-2.5,17.72-3.81l36.03-8.28c3.3-.77,13.58-2.5,15.81-3.62,2.01-1.01,3.32-2.82,3.7-5.03.29-1.65-.05-3.4-1.02-4.78-.5-.71-1.18-1.28-2.07-1.42-.06,0-.13,0-.19-.01-9.54,1.9-18.84,4.48-28.25,6.89l-27.96,6.98c-10.18,2.61-20.62,4.5-30.64,7.67-6.08,1.92-12.84,4.26-18.27,7.67,6.25,11.9,7.7,24.71,11.05,37.59,3.9,15.11,8.14,30.13,12.71,45.06,2.06,6.86,3.44,14.39,7.11,20.61h1.44c.45-.48.56-.59.57-1.26.07-3.03-6.98-23.44-8.45-28.07-5.2-16.82-9.85-33.79-13.95-50.92ZM96.15,245.01c.52-.02.94-.03,1.45.11.55.15.45.2.7.67-.59.77-.96.84-1.84,1.2-.72.19-1.19.35-1.92.08l-.22-.52c.54-.92.86-1.02,1.82-1.54Z"/>
      <path class="cls-3" d="M188.62,329.6c.14-.17.17-.27.28-.48-.46-.71-.77-.8-1.6-1.01-3.75-.91-8.11,1.07-11.63,2.17-2.56-12.29-7.57-25.06-11.37-37.12-2.08-6.62-3.48-13.47-5.26-20.18-2.17-.54-4.24-.89-6.46-1.12-3.77.51-6.36,2.66-8.73,5.53,1.75,7.68,3.33,15.39,4.73,23.13,1.16,6.41,2.11,12.96,3.57,19.3,1.07,4.63,4.72,11.62,4.23,16.21-1.05,1.49-4.18,1.89-5.85,2.18-.97.17-1.95.32-2.92.47-2.54-8.28-4.57-16.68-6.08-25.21-.3-1.75-1.66-13.2-2.22-13.87-.17-.2-.55-.45-.8-.55-2.73-1.16-9.09.45-11.59,1.73-.89.46-1.99,1.05-2.26,2.09-1.25,4.85,6.15,34.74,8.38,39.83-2.28.88-4.54,1.76-6.87,2.48-1.05-4.09-4.59-21.63-6.72-23.9-2.73-.7-12.09.54-14.62,1.94-.57.32-.67.92-.76,1.51-.94,6,7.72,21.02,5.56,25.49l-1.22.63c-1.86.58-3.73,1.21-5.61,1.71-1.08-4.85-2.02-10.26-4.4-14.66-2.98.31-12.29.73-14.06,2.79-.66.77-.65,1.85-.51,2.8.64,4.18,3.18,8.52,4.37,12.65-1.48.45-3.23.81-4.49,1.73l-.09.48c.84.78,2.03.85,3.13.81,4.78-.16,9.98-1.98,14.61-3.21,14.9-3.95,29.04-8.8,43.74-13.14l28.88-8.43c3.66-1.05,7.62-1.79,11.19-3,.96-.33,2.85-1.02,3.49-1.8ZM108.76,331.33l-1.84-6.12c2.5-.17,4.96-.36,7.43-.81l.41,2.77c-2.15,1.13-3.66,3.09-6.01,4.16ZM166.49,333.27c-1.86.62-4.07,1.42-6.04,1.43-2.89-3.69-7.86-31.87-9.23-38.32-1.3-6.14-3.85-13.11-3.86-19.38,1.71-1.14,3.4-1.86,5.4-2.32,1.02-.02,2.49.12,3.42.58,2.47,1.23,2.56,10.45,3.19,13.05.31,1.27,1.32,2.69,1.8,3.97,1.21,3.23,2.16,6.61,3.19,9.91,1.92,6.15,3.82,12.36,5.59,18.55.96,3.36,1.65,6.77,2.75,10.09-2.03.97-4.09,1.7-6.21,2.43Z"/>
      <path class="cls-3" d="M254.98,202.49c1.3-2.15,3.65-5.11,3.37-7.72-.57-.73-.73-.74-1.58-1.03-1.18,1.71-3.72,4.72-3.5,6.88.08.78.44,1.2,1.1,1.59.25.15.37.19.62.29Z"/>
      <path class="cls-3" d="M264.19,188.83c2.32-1.21,5.31-2.36,7.18-4.17l.18-.66c-.74-.63-1.56-.68-2.53-.76-1.77.61-6.22,2.37-6.92,4.31-.13.35-.11.39-.13.72.46.64.46.7,1.2.93l1.01-.37Z"/>
      <path class="cls-3" d="M323.53,247.23c-1.77,1.18-6.55,3.8-6.89,6.03-.08.52.1.63.35,1.07l1.29.59c2.21-1.6,6.06-3.92,6.71-6.67-.45-.82-.61-.74-1.47-1.02Z"/>
      <path class="cls-3" d="M335.13,209.95c-.18-.12-.51-.19-.72-.24-1.76,2.85-2.79,6.42-1.94,9.76.35,1.41.88,2.1,2.09,2.87,1.43-1.54,1.46-7.98,1.38-10.19-.03-.78-.09-1.72-.81-2.19Z"/>
      <path class="cls-3" d="M411.28,228.34c-5.79-1.38-14.3-.71-20.38-.39-4.3.06-26.57-.72-28.71,1.29.53.76,1.35.91,2.25,1.06,5.77.95,13.96.38,19.98.32,4.97.01,25.72.84,28.86-.34l.48-.52c-.54-.9-1.48-1.18-2.48-1.42Z"/>
      <path class="cls-3" d="M373.86,202.33c6.83-.23,32.68-1.94,38.04.37,1.14.06,3.16.34,4.01-.55.07-.07.13-.16.2-.23-.28-.78-.82-1.01-1.56-1.35-4.64-2.17-41.61-1.67-49.11-1.32-1.2.17-2.16.28-3.18,1.02l-.37.69c.44.8.72.95,1.62,1.22,2.94.88,7.28.26,10.34.16Z"/>
      <path class="cls-3" d="M431.13,215.07c-3.06-2.4-23.42-2.11-27.89-1.81-8.74.45-17.45,1.15-26.19,1.59-3.97.2-8.1-.11-12.02.38-1.14.14-3.21.43-3.99,1.28.4.77,1.18,1.02,2,1.26,4.81,1.42,21.57-.52,27.37-.86,7.1-.58,14.22-.88,21.35-.91,4.21,0,15.81,1.27,19.14.39l.47-.58c-.04-.29.01-.56-.23-.75Z"/>
      <path class="cls-3" d="M441.1,187.28c-5.37-.83-10.98-.86-16.41-1.02-10.23-.22-20.46-.24-30.7-.06-10.95.22-21.65.65-32.54-.71-.29.94-.35,1.09-.08,2.02,1.66,1.86,5.26,1.93,7.6,2.06,8.35.46,16.93-.49,25.3-.76,10.75-.24,21.5-.15,32.25.25,2.46.08,14.5,1.34,15.66.61.83-.29,1.43-.45,1.99-1.16-.68-.93-1.98-1.07-3.08-1.24Z"/>
      <path class="cls-3" d="M240.21,163.02c3.79,1.38,12.97-.23,17.33-.37,12.92-.43,25.63.06,38.53.34,6.04.35,23.29,2.08,28.21.35l.51-.52c-.43-.84-.95-1.13-1.86-1.45-2.65-.92-8.21-.32-11.2-.44-14.76-.59-29.53-1.63-44.31-1.38-4.54.19-26.58.48-28.67,2.1.39.87.49,1.02,1.45,1.37Z"/>
      <path class="cls-3" d="M375.83,134.85c1.75.36,3.55.52,5.31.84,2.41.49,4.89,1.14,7.32,1.4,1.58-5.96,3.53-10.78,9.1-14.05,1.56-.91,3.2-1.58,4.91-2.17-.17-4.25-1.43-8.25-2.58-12.32-1.47.04-2.95.06-4.43.14-8.07,1.9-14.25,6.99-18.57,13.97-1.69,2.74-4.21,7.37-3.52,10.71.62.95,1.39,1.25,2.46,1.47ZM378.68,125.12c3.75-7.42,9.49-11.64,17.22-14.21.68-.04,1.11-.01,1.75.24,1.83,2.05,1.85,5.53,2.23,8.15-7.23,3.76-10.65,7.58-13.4,15.25-1.5-.53-3.09-.91-4.62-1.34-1.92-.31-3.87-.49-5.81-.72.54-2.52,1.48-5.08,2.64-7.37Z"/>
      <path class="cls-3" d="M349.58,173.23c-5-.52-10.11-.63-15.13-.88-13.98-.59-27.96-.99-41.94-1.22l-20.96-.53c-5.02-.12-10.17-.4-15.17.05-3.36.17-16.63-.49-18.51,1.43.05.45-.03.58.33.9.47.42,1.11.56,1.71.66,3.49.58,7.45-.12,10.99-.19,6.77-.09,13.54-.11,20.32-.04,26.97.3,53.64.84,80.5,3.31-.03,11.74-.28,23.47-.74,35.19-.42,9.52-1.19,19.01-1.53,28.53-.05,2.53-.83,13.97.72,15.52.3.3.53.3.92.4,1.03-.94.97-3.21,1.03-4.52.17-3.87-.19-7.74-.03-11.61.52-12.48,1.49-24.88,1.78-37.38.22-9.48-.35-19,.79-28.42-1.26-.92-3.56-1.06-5.08-1.22Z"/>
      <path class="cls-3" d="M424.22,131.24c.92,2,1.56,6.4,3.73,7.23,2.83,1.08,6.17-.63,9.01.74,1.16,0,2.12.18,2.99-.78,1.2-1.32,1.24-3.28,1.06-4.96-1.02-9.93-5.9-18.08-13.62-24.27-5.34-4.29-11.84-7.92-18.86-7.74-1.44.74-2.15,1.33-2.66,2.94-1.39,4.48-.26,10.5.59,15.05,6.91,2.57,14.42,4.48,17.76,11.79ZM435.94,128.58c.08,1.43-.48,2.71-1.24,3.89-.98,1.51-1.53,2.16-3.31,2.56l-.45-.48c.39-2.62,3.47-4.35,3.82-6.89.8.26.79.19,1.17.93ZM431.02,120.49c.24.01.33.01.58.08.82.23.98.53,1.37,1.22-.01.53-.05,1.05-.26,1.55-.56,1.34-1.84,3.01-3.16,3.62l-.22.39-.47-.17c.15-2.38,2.04-4.32,2.16-6.69ZM425.68,115.6c.1,0,.19,0,.28,0,.96.03,1.44.19,2.12.85.1.44.16.76.06,1.21-.51,2.21-2.88,4.87-4.72,6.1-.19.43-.32.41-.71.63l-.45-.28c-.54-3.12,3.74-5.36,3.42-8.51Z"/>
      <path class="cls-1" d="M295.5,133.18c.12.23.25.46.39.68.14.22.28.44.42.66.15.22.3.43.46.64s.32.42.49.62c.17.2.34.4.52.59.18.19.36.38.54.57.19.18.38.36.57.54.2.18.39.35.6.51.2.17.41.33.62.48.21.15.43.3.65.45.22.14.44.28.67.42.23.13.45.26.69.38.23.12.47.24.7.35s.48.21.72.31c.24.1.49.19.74.28,2.55.9,5.13,1.17,7.82.99,5.21-1.15,10-3.6,12.9-8.26,2.63-4.22,3.16-9.95,2-14.71-1.25-5.15-4.98-9.92-9.53-12.59-2.92-1.71-5.48-2.06-8.81-1.98-5.81,2.71-12.18,7.66-14.39,13.87-1.61,4.5-1.16,10.21.88,14.51.11.24.23.47.36.7ZM300.11,118.76c3.02,2.61,5.28,5.89,7.62,9.09,3.9-4.72,7.59-9.54,12.61-13.14,1.74.44,2.47,2.13,3.34,3.55-3.63,2.46-9.52,5.94-11.9,9.58-.97,1.48-.78,3.69-1.85,5.02-.34.1-.71.2-1.06.18-2.95-.09-6.93-4.89-8.85-6.88-.6-.74-1.31-1.69-1.55-2.62-.44-1.75.79-3.37,1.65-4.78Z"/>
      <path class="cls-1" d="M251.34,136.26c4.45,2.53,9.47,2.59,14.44,2.77,4.26.01,8.23-.26,11.45-3.41,2.98-2.92,3.8-7.08,3.81-11.1.01-4.3-.58-10.51-3.93-13.67-1.07-1.01-2.62-1.64-4.09-1.55-.97.06-2.01.34-2.93.62-1.76-2.57-3.72-5.71-7.05-6.31-.71-.13-1.46-.2-2.18-.16-6.17,1.6-11.23,5.12-14.52,10.65-2.35,3.94-3.39,8.6-2.17,13.1,1.04,3.87,3.73,7.09,7.19,9.07ZM249,118.98c3.21,1.88,5.53,4.73,7.76,7.63,2.67-2.45,4.96-5.29,7.83-7.54,2.38-1.86,5.38-3.22,7.61-5.21.58-.52.78-1.2.99-1.92.6.12,1.32.23,1.86.53,1.56.88,1.87,3.08,2.29,4.66-3.18,2.89-6.83,5.25-10.2,7.92-3.14,2.5-5.92,5.37-8.72,8.24-2.73-1.64-5-3.87-7.25-6.1-1.25-1.49-2.31-2.99-3.33-4.64l1.16-3.58Z"/>
      <path class="cls-3" d="M419.06,155.2c-4.73,3.47-10.85,4.23-16.52,3.29-5.9-.98-11.93-3.84-15.43-8.85-1.72-2.45-2.9-5.43-4.17-8.14-2.5-.59-6.16-1.97-8.67-1.22-.75.84-.89,1.42-.83,2.58.34,5.95,3.38,12.96,6.49,17.97,4.77,6.39,11.05,9.6,18.87,10.74.33.05.66.09,1,.13.33.04.67.07,1,.1.33.03.67.06,1,.08.34.02.67.04,1,.05.34.01.67.02,1.01.03.34,0,.67,0,1,0,.34,0,.67,0,1.01-.02.34-.01.67-.03,1-.05.34-.02.67-.04,1-.07.34-.03.67-.06,1-.09.33-.04.67-.08,1-.12.33-.04.66-.09.99-.14.33-.05.66-.11.99-.17.33-.06.66-.12.99-.19.33-.07.66-.14.98-.22.33-.08.65-.16.98-.24.33-.08.65-.17.97-.26.32-.09.64-.19.96-.29.32-.1.64-.2.95-.31.32-.11.64-.22.95-.33.32-.12.63-.23.94-.36.31-.12.62-.25.93-.38.31-.13.62-.26.92-.4.31-.14.61-.28.91-.42.3-.14.6-.29.9-.45.3-.15.59-.31.89-.47.3-.16.59-.32.88-.49.29-.17.58-.34.87-.51.29-.17.57-.35.85-.53.28-.18.56-.37.84-.55.28-.19.55-.38.82-.57.27-.19.54-.39.81-.59,5.32-4.02,9.98-9.76,10.95-16.54.19-1.34.21-2.58-.43-3.81-1.82-1.52-8.33-1.64-10.87-1.96-7.04-.89-14.26-2.35-20.96-4.7.07-3.93,1.32-10.41.06-13.96-.69-.61-1.07-.62-1.96-.81-.46,3.96-2.26,12.74.12,16.02,3.25,4.48,20.11,2.65,19.55,8.08-.33,3.19-4.07,7.34-6.55,9.17ZM382.32,158.23c-.51-.78-.96-1.63-1.43-2.44l2.93-2.26c.23.18.47.48.66.68.05,1.64-1.17,2.85-2.17,4.02ZM390.83,163.7c-.7-.49-.95-.61-1.32-1.39.11-1.35,1.15-2.36,1.97-3.39.8.35.97.3,1.36,1.12-.18,1.39-1.21,2.53-2,3.66ZM406.33,167.55c-.5,0-.96-.13-1.45-.25l-.34-.64c.14-1.46,1.26-2.88,2.03-4.12.96.25,1.27.15,1.81,1.02-.13,1.45-1.26,2.79-2.05,3.98ZM417.39,164.59l-.99.51c-.45.27-.7.31-1.2.42-.45-.67-.1-2.18-.12-3.06.24,0,.49,0,.72.05.63.1,1.27.47,1.6,1.03.29.48.13.55-.02,1.05ZM429.57,149.79c.97-.09,1.46-.22,2.27.35l.03.78c-.56.96-1.07,1.47-1.99,2.09l-.21.37-.53.06c-.4-.75.24-2.82.44-3.65Z"/>
      <path class="cls-3" d="M315.65,190.9c-6.29-5.41-13.75-7.98-21.98-8.25-11.45.78-24.26,6.26-31.9,15.01-6.14,7.03-8,16.37-7.33,25.46.67,9.15,4.15,21.03,11.32,27.08,6.17,5.2,16.57,5.68,24.31,5.58,10.98-.61,22.26-2.79,29.92-11.44,6.55-7.4,9.79-17.65,9.16-27.48-.63-9.9-6.05-19.54-13.51-25.97ZM319.05,241.17c-6.78,8.51-15.94,10.48-26.13,11.68-7.64.09-18.78.37-25.02-4.75-6.59-5.42-9.9-16.5-10.63-24.78-.77-8.65,1.15-17.42,6.86-24.17,6.65-7.87,17.58-12.39,27.69-13.25,7.31-.86,15.55,1.84,21.27,6.3.45.35.89.71,1.32,1.08.43.37.85.75,1.27,1.14.41.39.82.79,1.21,1.2.39.41.78.83,1.15,1.26.37.43.73.87,1.08,1.32.35.45.69.9,1.02,1.37.33.46.65.94.95,1.42.31.48.6.97.88,1.46.28.49.55.99.81,1.5.26.51.5,1.02.73,1.54.23.52.45,1.04.66,1.57.21.53.4,1.06.58,1.6.18.54.35,1.08.5,1.63.15.55.29,1.1.42,1.65.13.55.24,1.11.34,1.67.1.56.18,1.12.26,1.69,1.04,8.86-1.67,18.88-7.22,25.85Z"/>
      <path class="cls-3" d="M285.51,194.1c1.98-.55,4.03-.96,6.08-1.15,2.88-.26,6.82.44,9.31-1.2l.31-.57c-.76-.88-2.39-1.03-3.51-1.12-1.15-.09-2.31-.01-3.46.06-10.3,1.26-20.28,4.92-26.85,13.42-1.68,2.17-4.63,6.52-4.18,9.47.04.28.16.49.29.73.73.05.79,0,1.34-.48.99-.89,1.39-2.61,1.82-3.84,4.3-7.61,10.36-12.94,18.87-15.33Z"/>
      <path class="cls-3" d="M320.62,208.38c-.83-.2-1.17-.29-1.96.18-1.32.78-2.12,2.7-2.79,4.02-.9-2.27-2.52-7.22-5.01-8.1-.77-.27-1.46-.11-2.13.33-1.29.85-1.99,3.14-2.49,4.55-1.44-2.65-2.83-6.07-6.02-6.93-.47-.12-.89-.15-1.37-.16-1.03,1.3-2.19,2.57-1.99,4.36.05.43.21.73.42,1.1.69.34.75.42,1.55.28.61-.76.76-2.23,1.49-2.65,2.38,1.65,2.89,6.9,5.83,7.7.97-.24,1.61-.95,2.1-1.79.78-1.31,1.44-2.73,2.16-4.07l.19.35c1.37,2.64,2.27,8.16,5.11,9.38,1.59-.45,2.52-3.34,3.72-3.53l.24.55.19.32c.45.74.72,1.3,1.58,1.61.48-.19.6-.12.83-.62.65-1.41.11-4.1-.53-5.47-.3-.63-.58-.99-1.11-1.43Z"/>
      <path class="cls-3" d="M296.44,215.04c-.87-.82-2.27-1.12-3.39-1.43-1.08,3.42-1.51,7.03-2.14,10.56-1.09-1.76-2.15-4.08-4.31-4.62-.81.3-1.07.42-1.4,1.26-.97,2.54-.43,5.95-.26,8.6-1.6-.93-4.23-2.86-6.12-2.33-.73.2-1.16.73-1.42,1.41-.83,2.2-.26,5.58-.25,7.93-1.59-.26-3.73-.84-5.17.12.14.73.31.78.94,1.2.89.59,1.89.76,2.92.98,5.27,1.15,6.38,2.39,9.36,6.81.78.85,1.42,1.63,2.54,2.04l.84-.05c.5-.69.58-.94.4-1.8-.85-4.13-6.13-7.2-9.47-9.17.16-2.23.29-4.47.54-6.69,1.52.71,4.08,2.27,5.76,1.74.59-.19,1.02-.66,1.28-1.22.73-1.55.65-4.03.79-5.74.8,1.11,1.81,2.99,3.27,3.26.55.1.76-.13,1.23-.38,1.66-2.36,1.57-5.79,2.28-8.52,1.03-.58,1.94-.94,2.44-2.07-.01-.87.01-1.25-.67-1.89Z"/>
    </g>
    <path class="cls-1" d="M312.4,297.52c-2.07,1.1-2.68,2.42-3.33,4.56l-1.54,4.07c-.71-3.82-1.23-6.88-3.31-10.22,1.73-.2,3.23-.51,4.86-1.1,1.33-1.39,2.29-2.97,3.3-4.59.67,1.35,1.05,3,1.51,4.44,2.44.43,4.95.48,7.42.6-2.85.54-6.35.86-8.91,2.23Z"/>
  </g>
  <text class="cls-2" transform="translate(228.38 47.1) rotate(-4.44)"><tspan x="0" y="0">Data </tspan></text>
  <g>
    <path class="cls-3" d="M453.11,415.96c-.23-.2-.49-.26-.71-.21,3.45-2.94,6.1-6.62,7.36-11.39,1.45-5.48.54-13.85-5.83-15.72.11-.16.22-.31.33-.47,3.06-4.66,3.95-10.26,2.12-15.66-1.99-5.89-7.68-8.42-13.65-9.33-7.18-1.09-14.77.47-21.52,2.37-3.3.93-6.64,2.16-9.78,3.69,3.59-3.42,5.61-8.67,7.64-13.02,2.96-6.32,5.29-12.97,6.63-19.82,2.26-11.49.7-25.77-13.88-28.89-1.19-.25-2.33.19-2.7,1.33-5.96,18.06-14.8,33.94-28.06,47.96-6.31,6.67-10.45,13.93-14.26,22.13-2.2,4.75-4.55,9.32-7.59,13.37-.25-.33-.6-.59-1.08-.74-4.02-1.23-8.49-1.55-12.64-2.09-4.52-.58-9.05-.99-13.58-1.35-9.69-.75-19.4-1.01-29.09-.96-9.07.05-18.1.51-27.1,1.33-9.23.84-18.92,1.57-27.8,3.97-.31.08-.29.59.07.57,8.97-.37,17.87-1.79,26.84-2.37,9.29-.6,18.63-.88,27.96-.85,9.32.03,18.64.56,27.94,1.5,4.55.46,9.09,1.11,13.61,1.84,4.07.66,8.15,1.79,12.23,2.31-2.26,2.44-4.87,4.62-8.01,6.43-1.36.78-.16,2.9,1.23,2.13,8.31-4.62,13.54-11.58,17.69-19.67,4.66-9.07,8.62-17.69,15.96-25.12,13.53-13.69,22.77-29.47,29.19-47.21,11.15,3.91,10.19,16.62,7.92,25.92-1.47,5.99-3.76,11.77-6.32,17.38-1.9,4.16-4.59,8-6.22,12.24-.5,1.3.85,2.41,2.09,2.35-1.69.89-3.31,1.87-4.81,2.96-.14.1.04.32.18.24,4.31-2.47,9.3-3.82,14.17-5.03,5.98-1.48,12.14-2.49,18.4-2.25,5.04.19,10.57,1.52,13.34,5.99,2.34,3.76,1.68,9.01-.06,12.72-4.17,8.87-14.35,14.28-23.66,17.35-4.5,1.48-9.28,2.51-14.11,2.56-3.02.03-6.89-.24-9.14-2.52-1.73-1.75-1.15-4.69-.14-6.51,1.94-3.53,6.1-5.68,9.74-7.36,4.32-1.99,9-3.3,13.69-4.37,3.63-.83,7.92-.75,10.91-2.9.94-.68.28-1.89-.59-2.27-2.27-1-4.26-.56-6.61-.17-3.18.53-6.31,1.26-9.4,2.11-6.09,1.67-12.07,3.95-17.09,7.59-6.31,4.58-9.31,15.07-.15,18.94-1.52,1.25-2.59,3.08-2.95,4.95-.66,3.48.9,7.02,3.23,9.8-1.92,1.67-3.22,4.44-3.87,6.43-1.15,3.52-.51,7.36,1.16,10.71.18.35.37.69.56,1.01-5.42,2.57-1.96,9.79.67,13.39,1.36,1.86,2.92,3.34,4.63,4.55-1.68.46-3.25,1.44-4.93,1.97-2.88.91-5.93,1.33-8.98,1.41-6.13.17-12.47-1.28-18.06-3.84-5.39-2.47-10.14-6.21-13.49-10.94-1.75-2.47-2.97-5.19-3.77-8.03-.82-2.91-.57-5.92-1.29-8.8-.17-.69-1.09-.62-1.33-.06-2.26,5.29.71,12.78,3.65,17.5.44.7.91,1.38,1.4,2.04-2.34-1.72-5.45-.97-8.03-.22-1.75.51-3.28,1.25-4.75,2.09-1.4-2.9-2.26-6.03-2.95-9.12-1.25-5.6-1.75-11.62-1.41-17.29.24-4.09.87-8.17,1.51-12.21.35-2.18.71-4.36,1.08-6.54.28-1.64,1.03-3.43.71-5.11-.26-1.36-2.15-1.78-3.13-.95-1.32,1.12-1.55,3.17-1.95,4.73-.59,2.33-.97,4.7-1.34,7.08-.67,4.35-1.28,8.76-1.5,13.17-.31,6.22.52,12.79,1.95,18.92.74,3.18,1.88,6.27,3.27,9.26.04.09.08.17.12.26-.34.21-.69.42-1.04.62-.86.5-.38,2.02.7,1.69.43-.13.86-.24,1.29-.37.98,1.83,2.25,3.52,4.4,4.05.7.17,1.33-.24,1.36-.92.09-1.59-.6-2.99-1.41-4.36,1.1-.3,2.2-.6,3.3-.91,1.45-.41,3.04-.47,4.57-.7-1.89,2.3-3.17,5.19-4.75,7.62-.38.58-.75,1.16-1.17,1.71-.03,0-.05,0-.08,0-2.03-.05-4.21-.69-6.2-1.07-12.21-2.33-24.07-3.19-36.39-2.51-11.55.64-22.95,2.33-34.11,4.94-11.16,2.61-21.7,6.54-32.26,10.68-.45.18-.07.81.37.65,21.96-8.18,46.54-12.54,70.41-12.69,6.18-.04,12.34.26,18.48,1.14,5.89.84,11.67,2.34,17.52,3.44,2.85.54,4.81.33,6.67-1.8,3.08-3.52,4.61-8.08,7.52-11.75.05-.06.08-.12.12-.19,2.97,2.99,6.52,5.48,10.27,7.42,6.07,3.13,12.88,4.69,19.67,4.64,3.36-.03,6.7-.54,9.88-1.46,2.42-.7,5.46-1.48,6.77-3.57,3.7,1.87,7.94,2.77,12.4,3.27,7.33.82,14.07-.47,19.43-5.28,5.04-4.52,6.53-11.33,4.15-17.63-.28-.74-1.08-.92-1.63-.67,2.16-1.66,4.1-3.57,5.78-5.72,3.38-4.31,7.39-12.91,2.06-17.5ZM407.11,411.48c.86-1.39,2.75-1.7,3.83-2.89.04-.04.07-.08.1-.12,6.55.53,13.66-1.51,19.26-3.46,8.87-3.09,17.93-8.39,23.3-15.9,5.21,2.4,5.01,10.71,3.71,15.09-2.4,8.05-9.65,12.26-17.34,15.33-7.96,3.18-17.76,6.41-26.49,3.36-1.1-.38-2.11-.95-3-1.64-.15-.17-.33-.32-.53-.44-1.6-1.41-2.77-3.26-3.36-5.26-.42-1.42-.23-2.83.53-4.06ZM444.75,440.3c2.7,11.22-6.31,20.45-18.24,19.5-6.26-.5-12.4-2.06-17.09-6.39-2.27-2.1-6.51-7.55-3.8-10.33,5.75,4.79,15.13,3.92,22.23,3.09,6.33-.74,12.21-3.1,17.06-6.73-.17.21-.25.49-.16.85ZM448.72,432.04c-4.48,5.85-11.31,9.39-18.74,10.91-6.55,1.33-17.98,1.11-22.4-4.81-1.88-2.51-2.14-5.6-1.34-8.41.52-1.84,1.83-3.05,2.98-4.37,8.48,5.1,20.52,1.39,28.73-1.72,5.07-1.91,9.97-4.23,13.92-7.43-.08.21-.05.47.16.72,3.62,4.34-.54,11.54-3.29,15.12Z"/>
    <path class="cls-3" d="M383.24,426.97c5.62-4.14,8.69-10.33,11.1-16.57,1.28-3.3,2.1-6.72,2.8-10.18.64-3.17,1.23-6.45.18-9.65-.26-.81-1.39-1.05-1.88-.33-1.76,2.57-2.22,5.61-2.84,8.6-.64,3.11-1.5,6.17-2.41,9.21-1.93,6.42-5.48,12.09-8.16,18.19-.3.68.7,1.09,1.2.73Z"/>
    <path class="cls-3" d="M373.95,305.74c-2.41-3.12-7.35.96-4.59,4,3.91,4.31,7.07,9.03,10.7,13.52.73.91,2.24-.14,1.65-1.09-3.23-5.22-3.97-11.5-7.77-16.43Z"/>
    <path class="cls-3" d="M394.89,296.7c.36.82,1.79.67,1.97-.15,1.03-4.79.89-10.1.47-15.01-.11-1.31-1.14-2.8-2.73-2.72-.24.01-.47.03-.71.06-1.11.12-2.18,1.36-2.07,2.43.54,5.08.99,10.59,3.08,15.39Z"/>
    <path class="cls-3" d="M426.83,306.55c-.53,1.41,1.69,2.3,2.5,1.12,1.9-2.78,3.9-5.51,6.03-8.13,1.82-2.24,5.6-4.83,4.98-7.92-.13-.65-.79-1.04-1.43-1.11-3.12-.34-5.35,3.68-6.84,5.79-2.22,3.15-3.9,6.66-5.24,10.25Z"/>
    <path class="cls-3" d="M278.74,451.33c-.39,1.43,1.96,2.15,2.36.72.32-1.16.23-2.42,0-3.6-.29-1.48-2.66-.98-2.37.49.07.37.07.38.1.76.05.55.06,1.11-.09,1.63Z"/>
    <path class="cls-3" d="M287.55,451.87c.56-1.83,1.11-3.66,1.67-5.48.43-1.42-1.92-2.14-2.35-.72-.56,1.83-1.11,3.66-1.67,5.48-.43,1.42,1.92,2.14,2.35.72Z"/>
    <path class="cls-3" d="M293.29,451.05c.89-2.83,2.11-5.47,3.75-7.96.82-1.25-1.27-2.52-2.09-1.28-1.75,2.66-3.06,5.5-4.01,8.52-.45,1.42,1.91,2.13,2.35.72Z"/>
    <path class="cls-3" d="M300.05,451.39c1.22-3.7,4.07-7.01,4.64-10.89.22-1.47-2.24-1.56-2.45-.11-.53,3.6-3.41,6.83-4.54,10.28-.47,1.41,1.89,2.12,2.36.72Z"/>
    <path class="cls-3" d="M310.15,449.76c.55-1.7,1.42-3.27,1.97-4.97.46-1.41-1.9-2.13-2.36-.72-.55,1.7-1.42,3.27-1.97,4.97-.46,1.41,1.9,2.13,2.36.72Z"/>
  </g>
</svg>